<svg xmlns="http://www.w3.org/2000/svg" viewBox="0 0 60 60"><path d="M30 4c-5.1 0-10.2 1.5-14.4 4.4S7.9 15.3 6 20.1c-2 4.8-2.5 10-1.5 15s3.5 9.7 7.1 13.3c3.6 3.6 8.3 6.1 13.3 7.1s10.3.5 15-1.5c4.8-2 8.8-5.3 11.7-9.6C54.5 40.2 56 35.1 56 30c0-6.9-2.7-13.5-7.6-18.4C43.5 6.7 36.9 4 30 4zm16.8 16.1h-5c-.7-2.7-1.8-5.4-3.4-7.7 3.4 1.7 6.4 4.4 8.4 7.7zm2.7 9.9c0 2.2-.4 4.3-1.1 6.4h-5.9c.3-2.1.5-4.2.5-6.4 0-2.1-.2-4.3-.5-6.4h5.9c.7 2.1 1.1 4.2 1.1 6.4zM30 49.5c-3.5 0-6.6-3.9-8.3-9.6h16.7c-1.8 5.7-4.9 9.6-8.4 9.6zm-9.2-13.1c-.8-4.2-.8-8.5 0-12.7h18.4c.4 2.1.6 4.2.6 6.4 0 2.1-.2 4.3-.6 6.4H20.8zM10.5 30c0-2.2.4-4.3 1.1-6.4h5.9c-.7 4.2-.7 8.5 0 12.7h-5.9c-.7-2-1.1-4.1-1.1-6.3zM30 10.5c3.5 0 6.6 3.9 8.3 9.6H21.7c1.7-5.7 4.8-9.6 8.3-9.6zm-8.3 1.9c-1.6 2.4-2.7 5-3.4 7.7h-5c1.9-3.3 4.9-6 8.4-7.7zm-8.5 27.5h5c.7 2.7 1.8 5.4 3.4 7.7-3.4-1.7-6.4-4.4-8.4-7.7zm25.1 7.7c1.6-2.4 2.7-5 3.4-7.7h5c-1.9 3.3-4.9 6-8.4 7.7z" fill="#3d3d3d"/></svg>