<svg xmlns="http://www.w3.org/2000/svg" viewBox="0 0 35.74 44"><path d="M37.24,13.5h8.38a2.75,2.75,0,0,1,0,5.5V43.75A8.25,8.25,0,0,1,37.37,52H23.63a8.25,8.25,0,0,1-8.25-8.25V19a2.75,2.75,0,0,1,0-5.5h8.38a6.88,6.88,0,0,1,13.48,0Zm-2.92,0a4,4,0,0,0-7.64,0Zm5.8,30.25a2.75,2.75,0,0,1-2.75,2.75H23.63a2.75,2.75,0,0,1-2.75-2.75V19H40.12ZM26.38,39.63a1.38,1.38,0,0,1-2.75,0V23.13a1.38,1.38,0,1,1,2.75,0Zm5.49,0a1.37,1.37,0,1,1-2.74,0V23.13a1.37,1.37,0,1,1,2.74,0ZM36,41a1.37,1.37,0,0,0,1.37-1.37V23.13a1.38,1.38,0,1,0-2.75,0v16.5A1.38,1.38,0,0,0,36,41Z" transform="translate(-12.63 -8)" fill="#ff4f5e" fill-rule="evenodd"/></svg>