<?xml version="1.0" encoding="utf-8"?>
<!-- Generator: Adobe Illustrator 24.2.1, SVG Export Plug-In . SVG Version: 6.00 Build 0)  -->
<svg version="1.1" id="Layer_1" xmlns="http://www.w3.org/2000/svg" xmlns:xlink="http://www.w3.org/1999/xlink" x="0px" y="0px"
	 viewBox="0 0 53.5 58.8" style="enable-background:new 0 0 53.5 58.8;" xml:space="preserve">
<style type="text/css">
	.st0{fill:#FFFFFF;}
</style>
<path class="st0" d="M23.5,6v38.8L9.1,30.4C8,29,5.8,28.8,4.4,30S2.8,33.3,4,34.7c0.1,0.1,0.3,0.3,0.4,0.4l20.1,20.1
	c1.3,1.3,3.4,1.3,4.7,0c0,0,0,0,0,0l0,0l20.1-20.1c1.3-1.3,1.3-3.4,0-4.7c-1.3-1.3-3.4-1.3-4.7,0L30.1,44.8V6c0-1.9-1.5-3.4-3.4-3.4
	S23.4,4.1,23.5,6L23.5,6L23.5,6z"/>
</svg>
