<svg width="24" height="24" viewBox="0 0 24 24" fill="none" xmlns="http://www.w3.org/2000/svg">
<path fill-rule="evenodd" clip-rule="evenodd" d="M8 5H9C9.55228 5 10 5.44772 10 6C10 6.55228 9.55228 7 9 7H8C7.44772 7 7 7.44772 7 8V16C7 16.5523 7.44772 17 8 17H16C16.5523 17 17 16.5523 17 16V15C17 14.4477 17.4477 14 18 14C18.5523 14 19 14.4477 19 15V16C19 17.6569 17.6569 19 16 19H8C6.34315 19 5 17.6569 5 16V8C5 6.34315 6.34315 5 8 5ZM18.012 5C18.4163 5.00047 18.7805 5.24435 18.935 5.618H18.936C18.9864 5.73905 19.0126 5.86885 19.013 6V11C19.013 11.5523 18.5652 12 18.013 12C17.4607 12 17.013 11.5523 17.013 11V8.414L13.72 11.707C13.3295 12.0977 12.6962 12.098 12.3055 11.7075C11.9147 11.317 11.9145 10.6837 12.305 10.293L15.598 7H13.012C12.4597 7 12.012 6.55228 12.012 6C12.012 5.44772 12.4597 5 13.012 5H18.012Z" fill="#0060DF"/>
</svg>
