<svg width="16" height="16" viewBox="0 0 16 16" fill="none" xmlns="http://www.w3.org/2000/svg">
<path fill-rule="evenodd" clip-rule="evenodd" d="M12.9 7H15C15.5523 7 16 7.44772 16 8C16 8.55229 15.5523 9 15 9H12.9C12.7709 9.62641 12.522 10.222 12.167 10.754L13.657 12.244C14.036 12.6364 14.0306 13.2601 13.6448 13.6458C13.2591 14.0316 12.6354 14.037 12.243 13.658L10.753 12.168C10.2212 12.5225 9.62598 12.771 9 12.9V15C9 15.5523 8.55229 16 8 16C7.44772 16 7 15.5523 7 15V12.9C6.36976 12.7705 5.77066 12.5199 5.236 12.162C5.23047 12.1685 5.22642 12.1758 5.22239 12.183C5.21769 12.1915 5.21301 12.2 5.206 12.207L3.756 13.657C3.50493 13.917 3.13312 14.0212 2.78349 13.9297C2.43386 13.8382 2.16082 13.5651 2.0693 13.2155C1.97779 12.8659 2.08204 12.4941 2.342 12.243L3.792 10.793C3.79865 10.7863 3.80662 10.7821 3.81468 10.7777C3.82238 10.7735 3.83017 10.7693 3.837 10.763C3.47957 10.2286 3.22927 9.62982 3.1 9H1C0.447715 9 0 8.55228 0 8C0 7.44772 0.447715 7 1 7H3.1C3.22925 6.37394 3.47814 5.77872 3.833 5.247L2.343 3.757C1.95226 3.36653 1.95203 2.73324 2.3425 2.3425C2.73297 1.95176 3.36626 1.95153 3.757 2.342L5.247 3.832C5.77881 3.47751 6.37402 3.22897 7 3.1V1C7 0.447715 7.44772 0 8 0C8.55229 0 9 0.447715 9 1V3.1C9.6264 3.22915 10.222 3.47804 10.754 3.833L12.244 2.343C12.6364 1.96403 13.2601 1.96945 13.6458 2.35518C14.0316 2.74092 14.037 3.36462 13.658 3.757L12.168 5.247C12.5225 5.7788 12.7711 6.37401 12.9 7ZM8 5C6.34315 5 5 6.34315 5 8C5 9.65685 6.34315 11 8 11C9.65685 11 11 9.65685 11 8C11 6.34315 9.65685 5 8 5Z" fill="white" fill-opacity="0.8"/>
</svg>
