<svg xmlns="http://www.w3.org/2000/svg" viewBox="0 0 60 60"><path d="M45.9 26.8h6.8c1.8 0 3.2 1.5 3.2 3.2s-1.5 3.2-3.2 3.2h-6.8c-.4 2-1.2 4-2.4 5.7l4.8 4.8c1.2 1.3 1.2 3.3 0 4.6-1.3 1.3-3.3 1.3-4.6 0l-4.8-4.8c-1.7 1.2-3.7 2-5.7 2.4v6.8c0 1.8-1.5 3.2-3.2 3.2s-3.2-1.5-3.2-3.2v-6.8c-2-.4-4-1.2-5.7-2.4v.1s0 .1-.1.1l-4.7 4.7c-.8.8-2 1.2-3.2.9-1.1-.3-2-1.2-2.3-2.3-.3-1.1 0-2.3.9-3.2l4.7-4.7h.2c-1.2-1.7-2-3.7-2.4-5.7h-7C5.5 33.2 4 31.8 4 30s1.5-3.2 3.2-3.2H14c.4-2 1.2-4 2.4-5.7l-4.8-4.8c-1.3-1.3-1.3-3.3 0-4.6 1.3-1.3 3.3-1.3 4.6 0l4.8 4.8c1.7-1.2 3.7-2 5.7-2.4V7.2C26.8 5.5 28.2 4 30 4s3.2 1.5 3.2 3.2V14c2 .4 4 1.2 5.7 2.4l4.8-4.8c1.3-1.2 3.3-1.2 4.6 0 1.3 1.3 1.3 3.3 0 4.6L43.5 21c1.2 1.8 2 3.7 2.4 5.8zM30 20.2c-5.4 0-9.8 4.4-9.8 9.8s4.4 9.8 9.8 9.8 9.8-4.4 9.8-9.8-4.4-9.8-9.8-9.8z" fill-rule="evenodd" clip-rule="evenodd" fill="#0c0c0d" fill-opacity=".6"/></svg>