<svg xmlns="http://www.w3.org/2000/svg" viewBox="0 0 51.9 51.9"><path d="M45.9,26.8h6.8A3.22,3.22,0,0,1,55.9,30a3.29,3.29,0,0,1-3.2,3.2H45.9a15.09,15.09,0,0,1-2.4,5.7l4.8,4.8a3.39,3.39,0,0,1,0,4.6,3.2,3.2,0,0,1-4.6,0l-4.8-4.8a15.09,15.09,0,0,1-5.7,2.4v6.8A3.22,3.22,0,0,1,30,55.9a3.29,3.29,0,0,1-3.2-3.2V45.9a15.09,15.09,0,0,1-5.7-2.4v.1a.1.1,0,0,1-.1.1l-4.7,4.7a3.37,3.37,0,0,1-3.2.9A3.33,3.33,0,0,1,10.8,47a3.27,3.27,0,0,1,.9-3.2l4.7-4.7h.2a15.09,15.09,0,0,1-2.4-5.7h-7A3.55,3.55,0,0,1,4,30a3.22,3.22,0,0,1,3.2-3.2H14a15.09,15.09,0,0,1,2.4-5.7l-4.8-4.8a3.25,3.25,0,0,1,4.6-4.6L21,16.5a15.09,15.09,0,0,1,5.7-2.4V7.2A3.38,3.38,0,0,1,30,4a3.22,3.22,0,0,1,3.2,3.2V14a15.09,15.09,0,0,1,5.7,2.4l4.8-4.8a3.39,3.39,0,0,1,4.6,0,3.2,3.2,0,0,1,0,4.6L43.5,21A15.54,15.54,0,0,1,45.9,26.8ZM30,20.2A9.8,9.8,0,1,0,39.8,30,9.82,9.82,0,0,0,30,20.2Z" transform="translate(-4 -4)" fill="#fff" fill-opacity="0.6" fill-rule="evenodd"/></svg>