<svg width="66" height="76" viewBox="0 0 66 76" fill="none" xmlns="http://www.w3.org/2000/svg">
<path d="M57.1484 32.4882H54.4271V21.7143C54.4271 15.9553 52.1334 10.4322 48.0506 6.35997C43.9677 2.28775 38.4302 0 32.6562 0C26.8823 0 21.3448 2.28775 17.2619 6.35997C13.1791 10.4322 10.8854 15.9553 10.8854 21.7143V32.4882H8.16406C5.99882 32.4882 3.92226 33.3461 2.3912 34.8732C0.86014 36.4003 0 38.4714 0 40.6311V67.8571C0 70.0168 0.86014 72.0879 2.3912 73.615C3.92226 75.1421 5.99882 76 8.16406 76H57.1484C59.3137 76 61.3902 75.1421 62.9213 73.615C64.4524 72.0879 65.3125 70.0168 65.3125 67.8571V40.6311C65.3125 38.4714 64.4524 36.4003 62.9213 34.8732C61.3902 33.3461 59.3137 32.4882 57.1484 32.4882ZM21.7708 21.7143C21.7708 18.8348 22.9177 16.0732 24.9591 14.0371C27.0005 12.001 29.7693 10.8571 32.6562 10.8571C35.5432 10.8571 38.312 12.001 40.3534 14.0371C42.3948 16.0732 43.5417 18.8348 43.5417 21.7143V32.4882H21.7708V21.7143Z" fill="url(#paint0_radial)"/>
<defs>
<radialGradient id="paint0_radial" cx="0" cy="0" r="1" gradientUnits="userSpaceOnUse" gradientTransform="translate(65.3125) rotate(130.675) scale(100.208 99.0685)">
<stop stop-color="#0060DF"/>
<stop offset="1" stop-color="#3FE1B0"/>
</radialGradient>
</defs>
</svg>
