<svg width="255" height="108" viewBox="0 0 255 108" fill="none" xmlns="http://www.w3.org/2000/svg">
<path d="M74.4111 21.6737H28.3594C28.7466 19.485 29.8932 17.503 31.5975 16.0763C33.3019 14.6496 35.4548 13.8697 37.6774 13.8737H38.0479C39.3556 11.5369 41.3234 9.63749 43.7051 8.41326C46.0868 7.18904 48.7766 6.69439 51.438 6.99105C54.0995 7.28771 56.6143 8.36255 58.668 10.0812C60.7216 11.7998 62.2229 14.0857 62.984 16.6531C63.957 15.7532 65.1715 15.157 66.4786 14.9377C67.7857 14.7185 69.1285 14.8857 70.3419 15.4189C71.5552 15.9521 72.5864 16.8282 73.3089 17.9393C74.0314 19.0504 74.4138 20.3484 74.4089 21.6737H74.4111Z" fill="#6A52DE" stroke="#6A52DE" stroke-width="0.454543" stroke-miterlimit="10"/>
<path d="M61.7125 25.2558H15.6426C16.0303 23.0675 17.1771 21.0859 18.8814 19.6597C20.5857 18.2335 22.7383 17.4539 24.9606 17.458H25.3334C26.6406 15.121 28.6078 13.2214 30.9891 11.9967C33.3703 10.772 36.0599 10.2768 38.7212 10.5727C41.3826 10.8686 43.8976 11.9427 45.9516 13.6606C48.0057 15.3785 49.5075 17.6637 50.2694 20.2308C51.2424 19.3302 52.4574 18.7338 53.7649 18.5145C55.0724 18.2952 56.4154 18.4627 57.6289 18.9965C58.8425 19.5304 59.8736 20.4074 60.5954 21.5194C61.3173 22.6314 61.6985 23.93 61.6921 25.2558H61.7125Z" stroke="white" stroke-width="0.40225" stroke-miterlimit="10"/>
<path d="M192.787 73.1822H160.412C160.686 71.6454 161.492 70.254 162.689 69.2514C163.885 68.2488 165.396 67.6991 166.957 67.6982H167.217C168.138 66.0571 169.522 64.7238 171.196 63.8646C172.87 63.0054 174.76 62.6585 176.631 62.8672C178.501 63.076 180.268 63.8311 181.712 65.0383C183.156 66.2454 184.212 67.8513 184.748 69.6551C185.432 69.0205 186.286 68.5996 187.206 68.4442C188.126 68.2888 189.071 68.4059 189.925 68.7807C190.779 69.1555 191.505 69.7717 192.014 70.5538C192.522 71.3358 192.791 72.2495 192.787 73.1822V73.1822Z" fill="#6A52DE" stroke="#6A52DE" stroke-width="0.454543" stroke-miterlimit="10"/>
<path d="M138.007 83.373C146.848 83.3731 155.415 80.3079 162.248 74.6997C169.082 69.0915 173.76 61.2873 175.485 52.6168C177.209 43.9463 175.874 34.9459 171.707 27.1494C167.539 19.353 160.798 13.2426 152.63 9.85961C144.463 6.47664 135.375 6.03037 126.915 8.59675C118.456 11.1631 111.147 16.5835 106.236 23.9341C101.325 31.2848 99.1143 40.1108 99.981 48.9085C100.848 57.7063 104.738 65.9313 110.99 72.1822C114.537 75.7314 118.749 78.5467 123.385 80.4669C128.021 82.3871 132.99 83.3746 138.007 83.373Z" stroke="white" stroke-width="0.40225" stroke-miterlimit="10"/>
<path d="M138.006 78.2548C145.663 78.2533 153.083 75.5968 159.001 70.7383C164.919 65.8797 168.969 59.1195 170.462 51.6094C171.955 44.0993 170.797 36.304 167.187 29.5516C163.576 22.7992 157.737 17.5073 150.662 14.5779C143.587 11.6485 135.716 11.2628 128.389 13.4862C121.062 15.7096 114.732 20.4048 110.479 26.7717C106.225 33.1386 104.311 40.7833 105.062 48.4034C105.813 56.0235 109.183 63.1475 114.597 68.5617C117.671 71.6361 121.32 74.0748 125.337 75.738C129.354 77.4012 133.659 78.2564 138.006 78.2548V78.2548Z" fill="#C3C5FF" stroke="#C2C6FF" stroke-width="0.414318" stroke-miterlimit="10"/>
<path d="M127.86 82.0256C118.812 73.3348 113.037 60.0439 113.037 45.1646C113.037 30.2852 118.812 16.9831 127.86 8.29688" stroke="white" stroke-width="0.40225" stroke-miterlimit="10"/>
<path d="M148.168 8.27832C157.216 16.9691 162.986 30.2599 162.986 45.1438C162.986 60.0277 157.216 73.3253 148.168 82.007" stroke="white" stroke-width="0.40225" stroke-miterlimit="10"/>
<path d="M99.7969 45.1641H176.223" stroke="white" stroke-width="0.40225" stroke-miterlimit="10"/>
<path d="M138.008 6.93066V83.3728" stroke="white" stroke-width="0.40225" stroke-miterlimit="10"/>
<path d="M165.153 21.2872C165.651 21.2868 166.143 21.1758 166.594 20.9622C167.044 20.7487 167.441 20.4379 167.757 20.0523C168.073 19.6666 168.299 19.2156 168.419 18.7319C168.539 18.2482 168.551 17.744 168.453 17.2553C168.327 16.6292 168.027 16.0515 167.586 15.5896C167.145 15.1277 166.582 14.8008 165.963 14.6464C165.343 14.492 164.693 14.5168 164.086 14.7178C163.48 14.9189 162.944 15.2878 162.54 15.7818C162.135 16.2759 161.879 16.8748 161.802 17.5086C161.725 18.1424 161.829 18.7852 162.103 19.362C162.377 19.9388 162.809 20.4259 163.349 20.7667C163.889 21.1075 164.514 21.2881 165.153 21.2872Z" fill="#AD79FF" stroke="black" stroke-width="0.40225" stroke-miterlimit="10"/>
<path d="M137.92 35.8963C138.702 35.8978 139.46 35.6279 140.066 35.1328C140.671 34.6377 141.086 33.9481 141.24 33.1813C141.394 32.4145 141.277 31.6181 140.909 30.9279C140.541 30.2376 139.946 29.6962 139.224 29.396C138.501 29.0959 137.697 29.0555 136.949 29.2817C136.2 29.508 135.553 29.987 135.118 30.6369C134.683 31.2868 134.487 32.0675 134.563 32.8459C134.639 33.6243 134.983 34.3521 135.536 34.9053C136.168 35.5375 137.025 35.8938 137.92 35.8963V35.8963Z" fill="#AD79FF" stroke="black" stroke-width="0.40225" stroke-miterlimit="10"/>
<path d="M163.197 48.4774C163.978 48.478 164.735 48.2078 165.339 47.7128C165.943 47.2178 166.356 46.5286 166.509 45.7628C166.662 44.997 166.544 44.2019 166.176 43.513C165.809 42.8241 165.213 42.284 164.492 41.9849C163.771 41.6858 162.968 41.6461 162.221 41.8726C161.473 42.0991 160.827 42.5777 160.393 43.2269C159.959 43.8761 159.764 44.6556 159.84 45.4328C159.917 46.21 160.26 46.9367 160.813 47.4889C161.126 47.8023 161.497 48.051 161.906 48.2206C162.315 48.3903 162.754 48.4775 163.197 48.4774Z" fill="#6F4AE7" stroke="black" stroke-width="0.40225" stroke-miterlimit="10"/>
<path d="M85.4498 8.08522C85.7562 8.085 86.0557 7.99388 86.3104 7.82355C86.5651 7.65322 86.7636 7.41129 86.8808 7.1282C86.998 6.84512 87.0288 6.53363 86.9691 6.23311C86.9093 5.93259 86.7619 5.65642 86.5454 5.43966C86.329 5.22241 86.0529 5.07453 85.7522 5.01464C85.4516 4.95474 85.1398 4.98565 84.8567 5.10341C84.5255 5.24072 84.2522 5.48854 84.0832 5.80476C83.9143 6.12097 83.8602 6.48606 83.9302 6.83768C84.0001 7.1893 84.1898 7.50575 84.4669 7.73322C84.744 7.9607 85.0913 8.08512 85.4498 8.08522V8.08522Z" stroke="white" stroke-width="0.40225" stroke-miterlimit="10"/>
<path d="M56.0259 50.0278C56.2009 50.0282 56.3738 49.9897 56.5321 49.915C56.6903 49.8404 56.83 49.7314 56.941 49.5961C57.052 49.4608 57.1315 49.3025 57.1737 49.1327C57.2159 48.9628 57.2198 48.7857 57.185 48.6142C57.1404 48.3843 57.0279 48.1728 56.8623 48.0072C56.6967 47.8416 56.4854 47.7291 56.2554 47.6845C56.0064 47.6342 55.7479 47.6655 55.5181 47.7737C55.2883 47.8819 55.0995 48.0614 54.9797 48.2853C54.8598 48.5092 54.8153 48.7658 54.8527 49.017C54.8901 49.2683 55.0074 49.5007 55.1873 49.68C55.2973 49.7903 55.428 49.8778 55.5719 49.9374C55.7158 49.9971 55.8701 50.0278 56.0259 50.0278V50.0278Z" stroke="white" stroke-width="0.40225" stroke-miterlimit="10"/>
<path d="M10.0657 50.0277C10.2996 50.0275 10.5282 49.958 10.7226 49.8278C10.9174 49.6982 11.0693 49.5136 11.1591 49.2976C11.2489 49.0815 11.2726 48.8437 11.2272 48.6142C11.1927 48.4427 11.1207 48.281 11.0164 48.1406C10.9121 48.0002 10.778 47.8844 10.6238 47.8019C10.4696 47.7193 10.2991 47.6721 10.1244 47.6632C9.94976 47.6543 9.77531 47.684 9.61351 47.7504C9.39793 47.8416 9.2132 47.9931 9.08163 48.1867C8.9628 48.365 8.8946 48.5722 8.88421 48.7862C8.87381 49.0002 8.92171 49.2129 9.0227 49.4019C9.12369 49.5908 9.27401 49.7489 9.45771 49.8591C9.6414 49.9693 9.8515 50.0275 10.0657 50.0277V50.0277Z" stroke="white" stroke-width="0.40225" stroke-miterlimit="10"/>
<path fill-rule="evenodd" clip-rule="evenodd" d="M188.607 21.519C188.876 21.5351 189.131 21.6466 189.325 21.8333C189.52 22.0201 189.642 22.27 189.67 22.5384C189.697 22.8069 189.628 23.0762 189.475 23.2984C189.322 23.5205 189.094 23.6809 188.834 23.7509C188.615 23.7943 188.389 23.7713 188.184 23.685C187.978 23.5998 187.802 23.4559 187.677 23.2713C187.554 23.0852 187.488 22.8671 187.488 22.6441C187.491 22.3466 187.611 22.0623 187.821 21.852C188.031 21.6416 188.316 21.522 188.613 21.519H188.607Z" fill="#6A45E3"/>
<path fill-rule="evenodd" clip-rule="evenodd" d="M197.199 13.1081C196.106 11.9299 194.783 10.9899 193.31 10.3471C191.838 9.70433 190.249 9.37256 188.642 9.37256C187.035 9.37256 185.446 9.70433 183.974 10.3471C182.501 10.9899 181.178 11.9299 180.085 13.1081C180.023 13.1738 179.974 13.2513 179.942 13.336C179.91 13.4207 179.896 13.5108 179.899 13.6012C179.901 13.6909 179.922 13.7793 179.96 13.8605C179.996 13.9459 180.048 14.0233 180.115 14.0877C180.181 14.149 180.258 14.1967 180.342 14.2285C180.426 14.2604 180.516 14.2759 180.606 14.274C180.696 14.2697 180.784 14.249 180.867 14.2127C180.953 14.1771 181.03 14.1244 181.094 14.058C182.058 13.0156 183.227 12.184 184.528 11.6151C185.829 11.0462 187.234 10.7524 188.653 10.7524C190.073 10.7524 191.478 11.0462 192.778 11.6151C194.079 12.184 195.248 13.0156 196.212 14.058C196.305 14.158 196.426 14.228 196.558 14.2589C196.691 14.2897 196.83 14.2798 196.957 14.2309C197.084 14.182 197.194 14.0962 197.272 13.9843C197.35 13.8725 197.392 13.7397 197.394 13.6035C197.396 13.512 197.38 13.4211 197.347 13.336C197.313 13.2509 197.263 13.1733 197.199 13.1081Z" fill="#6A45E3"/>
<path fill-rule="evenodd" clip-rule="evenodd" d="M194.698 15.9259C193.917 15.1072 192.979 14.4552 191.939 14.0099C190.899 13.5645 189.779 13.335 188.648 13.335C187.517 13.335 186.397 13.5645 185.357 14.0099C184.317 14.4552 183.379 15.1072 182.598 15.9259C182.477 16.0155 182.389 16.1426 182.348 16.2873C182.307 16.4319 182.315 16.5861 182.371 16.7258C182.407 16.8188 182.462 16.9028 182.534 16.9719C182.606 17.0411 182.692 17.0935 182.787 17.1258C182.88 17.1598 182.981 17.1715 183.08 17.1599C183.18 17.1508 183.276 17.1189 183.362 17.0667C183.447 17.0153 183.521 16.9465 183.577 16.8645C184.231 16.1733 185.018 15.6227 185.892 15.2463C186.765 14.87 187.706 14.6757 188.657 14.6757C189.608 14.6757 190.549 14.87 191.423 15.2463C192.296 15.6227 193.083 16.1733 193.736 16.8645C193.861 16.9905 194.03 17.063 194.207 17.0667C194.382 17.0622 194.55 16.9916 194.675 16.869C194.801 16.7459 194.874 16.5791 194.879 16.4033C194.885 16.2276 194.822 16.0566 194.705 15.9259H194.698Z" fill="#6A45E3"/>
<path fill-rule="evenodd" clip-rule="evenodd" d="M191.953 18.7763C191.066 17.9028 189.88 17.3991 188.635 17.3672H188.583C187.337 17.3984 186.149 17.9021 185.26 18.7763C185.196 18.8397 185.146 18.9149 185.111 18.998C185.076 19.0811 185.059 19.1704 185.059 19.2604C185.059 19.3504 185.076 19.4394 185.111 19.5225C185.146 19.6056 185.196 19.681 185.26 19.7444C185.384 19.8703 185.552 19.9421 185.728 19.9444C185.905 19.9425 186.073 19.8724 186.199 19.7489C186.825 19.123 187.662 18.7542 188.547 18.7148H188.597C189.481 18.7555 190.318 19.1241 190.944 19.7489C191.075 19.8465 191.236 19.8942 191.399 19.8831C191.564 19.8703 191.719 19.7975 191.835 19.6785C191.953 19.5561 192.021 19.394 192.026 19.224C192.031 19.0595 191.978 18.8985 191.876 18.7694L191.953 18.7763Z" fill="#6A45E3"/>
<path d="M228.015 23.2508C225.845 24.4099 223.686 25.5986 221.575 26.8713L214.643 25.0532L213.961 24.8712C213.598 24.8331 213.235 24.9374 212.947 25.1622L210.507 26.4576C210.414 26.5139 210.336 26.59 210.277 26.6805C210.218 26.7709 210.18 26.8733 210.166 26.9803C210.152 27.0874 210.163 27.1962 210.198 27.2986C210.231 27.4007 210.289 27.4933 210.366 27.5689L214.625 31.0439L213.057 32.1394C212.964 32.196 212.886 32.2739 212.829 32.3667C212.77 32.456 212.732 32.5578 212.718 32.6643C212.704 32.771 212.714 32.8796 212.747 32.9819C212.781 33.0842 212.837 33.1776 212.911 33.2553L214.136 34.6642L214.607 35.1802C214.713 35.2796 214.845 35.3465 214.988 35.3733C215.132 35.4028 215.28 35.3918 215.418 35.3416L218.827 34.6984L224.7 33.5938C224.752 33.5937 224.805 33.5847 224.854 33.5667C224.903 33.5556 224.95 33.5396 224.995 33.519C230.122 31.7667 235.222 29.8825 240.181 27.6916C243.222 26.3965 246.168 24.8891 248.997 23.1804C250.549 22.2636 251.982 21.1599 253.265 19.8941C253.885 19.3018 254.366 18.5802 254.674 17.7805C254.737 17.5927 254.772 17.3966 254.779 17.1986C254.774 17.1133 254.764 17.0283 254.749 16.944C254.702 16.6009 254.195 16.3396 253.929 16.1646C253.379 15.8168 252.791 15.5333 252.177 15.3192C249.735 14.4985 247.089 14.5218 244.663 15.3851C243.443 15.7851 242.247 16.2645 241.063 16.7623C238.922 17.6532 236.838 18.6394 234.715 19.6076L228.015 23.2508Z" fill="#C0C3F6"/>
<path d="M225.405 21.6828C223.237 22.8464 221.087 24.0304 218.964 25.3031L212.032 23.4849L211.35 23.3076C211.171 23.2854 210.988 23.3002 210.814 23.3509C210.64 23.4006 210.478 23.4848 210.337 23.5986L207.889 24.8941C207.797 24.9514 207.719 25.0292 207.662 25.1213C207.603 25.2125 207.565 25.3158 207.55 25.4236C207.537 25.5307 207.548 25.6393 207.582 25.7417C207.618 25.8436 207.676 25.9366 207.751 26.0144L212.01 29.4872L210.441 30.578C210.349 30.6354 210.271 30.7131 210.214 30.8053C210.155 30.8951 210.117 30.9967 210.103 31.1029C210.09 31.2099 210.1 31.3184 210.132 31.4212C210.166 31.5233 210.221 31.6166 210.296 31.694L211.521 33.1031L211.991 33.6189C212.098 33.7188 212.23 33.7867 212.373 33.8144C212.517 33.8431 212.666 33.8312 212.803 33.7802L216.212 33.1392L222.084 32.0371C222.137 32.0326 222.19 32.0234 222.241 32.0098C222.29 31.9978 222.337 31.9804 222.382 31.9576C227.509 30.2054 232.609 28.3213 237.566 26.1349C240.608 24.8396 243.555 23.3305 246.384 21.6191C247.936 20.703 249.37 19.5993 250.652 18.3327C251.271 17.7404 251.751 17.0187 252.059 16.2192C252.122 16.0329 252.157 15.8384 252.164 15.6419C252.159 15.5566 252.15 15.4716 252.136 15.3873C252.089 15.0442 251.582 14.7827 251.314 14.6032C250.764 14.2556 250.176 13.9733 249.561 13.7623C247.715 13.1545 245.748 13.0133 243.834 13.351C243.226 13.4577 242.628 13.6142 242.046 13.8191C240.825 14.2191 239.627 14.6986 238.443 15.1827C236.302 16.0804 234.218 17.0623 232.096 18.0282L225.405 21.6828Z" fill="white" stroke="black" stroke-width="0.40225" stroke-linecap="round" stroke-linejoin="round"/>
<path d="M237.048 19.3192C237.035 19.2732 237.015 19.229 236.991 19.1874C236.915 19.0502 236.791 18.9454 236.644 18.892L236.569 18.8578C234.771 18.2851 232.948 17.7556 231.169 17.1215L223.314 14.3466L219.558 13.008L218.698 12.7079C218.228 12.5466 217.862 12.8988 217.51 13.1261L215.069 14.6897C214.912 14.7872 214.799 14.9413 214.753 15.1198C214.707 15.2983 214.731 15.4876 214.821 15.6487C214.88 15.7554 214.966 15.8455 215.069 15.9101L221.06 19.9555C222.792 21.1282 224.526 22.3001 226.262 23.4713L227.671 24.4101C227.778 24.4752 227.901 24.5096 228.026 24.5096C228.151 24.5096 228.273 24.4752 228.38 24.4101L235.08 21.0011L236.771 20.1419C236.844 20.1026 236.909 20.0493 236.962 19.985C237.015 19.9178 237.054 19.8405 237.076 19.7578V19.7147C237.106 19.5831 237.096 19.4454 237.048 19.3192V19.3192Z" fill="white" stroke="black" stroke-width="0.40225" stroke-linecap="round" stroke-linejoin="round"/>
<path d="M249.862 13.9172L246.881 16.217L245.471 15.5081L244.771 13.3852C244.771 13.3852 246.203 12.5218 249.862 13.9172Z" fill="#C0C3F6" stroke="black" stroke-width="0.40225" stroke-linecap="round" stroke-linejoin="round"/>
<path d="M42.3365 55.7935H17.9209C17.0569 55.7941 16.2286 56.1376 15.6179 56.7487C15.0072 57.3598 14.6641 58.1885 14.6641 59.0525V92.9157C14.6641 93.7797 15.0072 94.6084 15.6179 95.2195C16.2286 95.8306 17.0569 96.1741 17.9209 96.1747H42.3365C42.7645 96.1747 43.1883 96.0904 43.5837 95.9266C43.9791 95.7628 44.3383 95.5228 44.641 95.2201C44.9436 94.9175 45.1837 94.5582 45.3475 94.1628C45.5113 93.7674 45.5955 93.3437 45.5955 92.9157V59.0525C45.5955 58.6245 45.5113 58.2008 45.3475 57.8054C45.1837 57.41 44.9436 57.0507 44.641 56.748C44.3383 56.4454 43.9791 56.2054 43.5837 56.0416C43.1883 55.8778 42.7645 55.7935 42.3365 55.7935V55.7935Z" fill="#C0C3F6"/>
<path d="M28.4946 97.0933C28.4649 97.8437 28.1458 98.5534 27.6044 99.0739C27.0629 99.5943 26.341 99.8851 25.59 99.8851C24.839 99.8851 24.1171 99.5943 23.5757 99.0739C23.0342 98.5534 22.7152 97.8437 22.6855 97.0933" stroke="white" stroke-width="0.40225" stroke-linecap="round" stroke-linejoin="round"/>
<path d="M46.9163 52.8911H21.1712C20.3069 52.8911 19.4779 53.2345 18.8667 53.8457C18.2555 54.4569 17.9121 55.2858 17.9121 56.1501V93.1951C17.9121 94.0595 18.2555 94.8886 18.8667 95.4998C19.4779 96.111 20.3069 96.4544 21.1712 96.4544H46.9163C47.3442 96.4544 47.7679 96.3701 48.1632 96.2062C48.5585 96.0424 48.9175 95.8022 49.22 95.4996C49.5224 95.1969 49.7624 94.8376 49.9259 94.4422C50.0894 94.0468 50.1734 93.623 50.1731 93.1951V56.1501C50.1734 55.7223 50.0894 55.2986 49.9259 54.9033C49.7624 54.5079 49.5224 54.1486 49.22 53.8459C48.9175 53.5433 48.5585 53.3031 48.1632 53.1392C47.7679 52.9754 47.3442 52.8911 46.9163 52.8911Z" stroke="white" stroke-width="0.40225" stroke-linecap="round" stroke-linejoin="round"/>
<path d="M25.6543 59.6665V91.2797" stroke="white" stroke-width="0.40225" stroke-linecap="round" stroke-linejoin="round"/>
<path d="M34.041 59.6665V91.2797" stroke="white" stroke-width="0.40225" stroke-linecap="round" stroke-linejoin="round"/>
<path d="M42.4277 59.6665V80.6366" stroke="white" stroke-width="0.40225" stroke-linecap="round" stroke-linejoin="round"/>
<path d="M29.2051 47.4072V52.5685" stroke="white" stroke-width="0.40225" stroke-linecap="round" stroke-linejoin="round"/>
<path d="M38.8809 47.4072V52.5685" stroke="white" stroke-width="0.40225" stroke-linecap="round" stroke-linejoin="round"/>
<path d="M41.1406 44.1777H26.9453V47.4028H41.1406V44.1777Z" stroke="white" stroke-width="0.40225" stroke-linecap="round" stroke-linejoin="round"/>
<path d="M47.1269 107.334C47.5579 107.334 47.9793 107.206 48.3377 106.966C48.6961 106.727 48.9755 106.386 49.1404 105.988C49.3054 105.59 49.3486 105.152 49.2645 104.729C49.1804 104.306 48.9727 103.918 48.6679 103.613C48.3631 103.308 47.9748 103.101 47.552 103.016C47.1292 102.932 46.6911 102.976 46.2928 103.141C45.8945 103.306 45.5541 103.585 45.3146 103.943C45.0751 104.302 44.9473 104.723 44.9473 105.154C44.9473 105.732 45.1769 106.286 45.5857 106.695C45.9944 107.104 46.5488 107.334 47.1269 107.334V107.334Z" stroke="white" stroke-width="0.40225" stroke-linecap="round" stroke-linejoin="round"/>
<path d="M65.9978 107.334C66.4289 107.334 66.8503 107.206 67.2088 106.966C67.5672 106.727 67.8465 106.386 68.0114 105.988C68.1764 105.59 68.2196 105.152 68.1355 104.729C68.0514 104.306 67.8438 103.918 67.539 103.613C67.2342 103.308 66.8459 103.101 66.4231 103.016C66.0003 102.932 65.562 102.976 65.1638 103.141C64.7655 103.306 64.4252 103.585 64.1857 103.943C63.9462 104.302 63.8184 104.723 63.8184 105.154C63.8184 105.732 64.0479 106.286 64.4567 106.695C64.8654 107.104 65.4198 107.334 65.9978 107.334V107.334Z" stroke="white" stroke-width="0.40225" stroke-linecap="round" stroke-linejoin="round"/>
<path d="M52.0924 83.2138V78.8799C52.1359 77.8063 52.593 76.7911 53.368 76.0468C54.143 75.3026 55.1759 74.887 56.2504 74.887C57.3249 74.887 58.3576 75.3026 59.1326 76.0468C59.9076 76.7911 60.3648 77.8063 60.4083 78.8799V83.2138H62.756V79.073C62.7013 77.3817 61.9909 75.7779 60.7751 74.6009C59.5594 73.4238 57.9335 72.7656 56.2413 72.7656C54.5491 72.7656 52.9232 73.4238 51.7074 74.6009C50.4916 75.7779 49.7813 77.3817 49.7266 79.073V83.2138H52.0924Z" stroke="white" stroke-width="0.40225" stroke-linecap="round" stroke-linejoin="round"/>
<path d="M70.4102 80.6367H42.0833C41.219 80.6367 40.39 80.9801 39.7788 81.5913C39.1676 82.2025 38.8242 83.0314 38.8242 83.8957V100.941C38.8242 101.805 39.1676 102.634 39.7788 103.246C40.39 103.857 41.219 104.2 42.0833 104.2H70.4102C71.2742 104.2 72.1026 103.856 72.7133 103.245C73.324 102.634 73.667 101.805 73.667 100.941V83.8957C73.667 83.0318 73.324 82.2033 72.7133 81.5922C72.1026 80.9811 71.2742 80.6373 70.4102 80.6367V80.6367Z" fill="#A77FFA" stroke="white" stroke-width="0.40225" stroke-linecap="round" stroke-linejoin="round"/>
<path d="M52.2745 87.125L45.1973 88.9933L46.2473 92.9705L53.3245 91.1022L52.2745 87.125Z" fill="#6A52DE" stroke="black" stroke-width="0.40225" stroke-linecap="round" stroke-linejoin="round"/>
<path d="M63.0566 92.5206L67.1134 89.4775L68.2134 94.4251L63.0566 92.5206Z" fill="white" stroke="black" stroke-width="0.40225" stroke-linecap="round" stroke-linejoin="round"/>
<path d="M55.5903 99.3457C55.9728 99.3457 56.3467 99.2321 56.6648 99.0196C56.9829 98.8071 57.2307 98.505 57.3771 98.1516C57.5235 97.7982 57.5618 97.4095 57.4872 97.0343C57.4126 96.6592 57.2284 96.3145 56.9579 96.044C56.6874 95.7735 56.3427 95.5893 55.9676 95.5147C55.5924 95.4401 55.2036 95.4784 54.8502 95.6248C54.4968 95.7712 54.1947 96.0189 53.9822 96.337C53.7697 96.6551 53.6562 97.0291 53.6562 97.4116C53.6562 97.9246 53.8599 98.4166 54.2226 98.7793C54.5854 99.142 55.0773 99.3457 55.5903 99.3457V99.3457Z" fill="#C0C3F6" stroke="black" stroke-width="0.40225" stroke-linecap="round" stroke-linejoin="round"/>
<path d="M189.543 37.5618L193.788 35.9097" stroke="white" stroke-width="0.40225" stroke-linecap="round" stroke-linejoin="round"/>
<path d="M197.424 34.4781L204.431 31.603" stroke="white" stroke-width="0.40225" stroke-linecap="round" stroke-linejoin="round"/>
<path d="M187.514 43.1029L204.786 36.3369" stroke="white" stroke-width="0.40225" stroke-linecap="round" stroke-linejoin="round"/>
<path d="M202.229 106.193V93.2793H215.285V81.1523H235.93V106.193H202.229Z" fill="#C4C6FC"/>
<path d="M202.231 106.193H202.338V93.3841H215.392V81.2547H235.835V106.089H202.231V106.193V106.295H236.042V81.0503H215.181V93.1819H202.131V106.3H202.231V106.193Z" fill="#C4C7FC"/>
<path d="M180.668 89.3548V83.8389H174.418V106.075" stroke="white" stroke-width="0.40225" stroke-linecap="round" stroke-linejoin="round"/>
<path d="M226.484 103.9V92.5366H219.805V101.523" stroke="black" stroke-width="0.40225" stroke-linecap="round" stroke-linejoin="round"/>
<path d="M206.943 75.5138V65.5503H215.025V74.4571H218.934V90.2273" stroke="white" stroke-width="0.40225" stroke-linecap="round" stroke-linejoin="round"/>
<path d="M210.981 78.1934H195.393V82.2729H210.981V78.1934Z" stroke="white" stroke-width="0.40225" stroke-linecap="round" stroke-linejoin="round"/>
<path d="M210.062 82.6592V106.309H196.314V82.6592" stroke="white" stroke-width="0.40225" stroke-linecap="round" stroke-linejoin="round"/>
<path d="M195.892 92.7681H177.797V95.2476H195.892" stroke="white" stroke-width="0.40225" stroke-linecap="round" stroke-linejoin="round"/>
<path d="M195.891 106.309H178.959V95.4863" stroke="white" stroke-width="0.40225" stroke-linecap="round" stroke-linejoin="round"/>
<path d="M222.58 54.7007V57.3576" stroke="white" stroke-width="0.40225" stroke-linecap="round" stroke-linejoin="round"/>
<path d="M223.907 56.0278H221.25" stroke="white" stroke-width="0.40225" stroke-linecap="round" stroke-linejoin="round"/>
<path d="M61.8887 52.2734V55.3189" stroke="white" stroke-width="0.40225" stroke-linecap="round" stroke-linejoin="round"/>
<path d="M63.4087 53.7939H60.3633" stroke="white" stroke-width="0.40225" stroke-linecap="round" stroke-linejoin="round"/>
<path d="M74.002 0.666992V3.71472" stroke="white" stroke-width="0.40225" stroke-linecap="round" stroke-linejoin="round"/>
<path d="M75.522 2.19189H72.4766" stroke="white" stroke-width="0.40225" stroke-linecap="round" stroke-linejoin="round"/>
<path d="M1.85938 53.835V56.8827" stroke="white" stroke-width="0.40225" stroke-linecap="round" stroke-linejoin="round"/>
<path d="M3.37976 55.3618H0.332031" stroke="white" stroke-width="0.40225" stroke-linecap="round" stroke-linejoin="round"/>
<path d="M232.367 65.316C232.64 65.3165 232.906 65.2363 233.133 65.0852C233.36 64.9341 233.537 64.7192 233.641 64.4675C233.746 64.2159 233.773 63.939 233.72 63.6716C233.668 63.4043 233.537 63.1587 233.344 62.9659C233.152 62.773 232.906 62.6414 232.639 62.5881C232.372 62.5348 232.095 62.5621 231.843 62.6662C231.591 62.7704 231.376 62.9468 231.224 63.1734C231.073 63.3999 230.992 63.6664 230.992 63.9389C230.992 64.1196 231.027 64.2987 231.096 64.4658C231.165 64.6328 231.266 64.7846 231.394 64.9125C231.522 65.0404 231.673 65.142 231.84 65.2113C232.007 65.2805 232.186 65.316 232.367 65.316V65.316Z" stroke="white" stroke-width="0.40225" stroke-miterlimit="10"/>
<path d="M144.528 104.63C141.801 105.159 138.764 104.63 136.237 103.555C134.571 102.859 132.846 101.648 131.071 101.314C129.296 100.98 127.26 101.605 125.517 102.075C123.774 102.546 121.964 103.132 120.542 101.891C119.314 100.83 118.887 98.773 118.555 96.8912C118.224 95.0094 117.892 93.1866 117.56 91.3366C117.399 90.6289 117.341 89.9017 117.389 89.1775C117.508 88.4587 117.794 87.778 118.226 87.1911C119.344 85.5752 120.917 84.6184 122.476 83.7821C123.824 83.073 125.23 82.4185 126.701 82.4185C127.919 82.4983 129.114 82.7955 130.228 83.2958L136.055 85.523C136.688 85.7138 137.274 86.0334 137.778 86.4616C138.194 86.9171 138.569 87.4084 138.898 87.9298C141.016 90.9252 144.303 92.4388 145.862 95.9774C146.66 97.7819 146.998 100.125 147.13 102.184C147.178 103.727 145.923 104.375 144.528 104.63Z" fill="#9C7452"/>
<path d="M124.017 85.4543L95.6722 90.5042C95.3265 90.5667 94.9719 90.5598 94.629 90.4838C94.1146 90.3683 93.6458 90.1032 93.2818 89.7218C92.9178 89.3404 92.6749 88.8599 92.5836 88.3407L82.5496 31.9981C82.4878 31.6522 82.4946 31.2974 82.5698 30.9541C82.6451 30.6108 82.7873 30.2858 82.9882 29.9975C83.1891 29.7092 83.4449 29.4634 83.7409 29.274C84.0369 29.0846 84.3673 28.9553 84.7133 28.8936L113.04 23.8368C113.739 23.715 114.457 23.8743 115.039 24.28C115.62 24.6858 116.018 25.3051 116.145 26.0028L126.192 82.3657C126.312 83.0636 126.151 83.7805 125.743 84.3594C125.335 84.9384 124.715 85.3322 124.017 85.4543V85.4543Z" fill="white" stroke="black" stroke-width="0.40225" stroke-miterlimit="10"/>
<path d="M85.2698 43.6371C83.938 43.1257 80.7244 41.703 79.3607 41.3644C78.9718 41.2495 78.5639 41.2133 78.1608 41.2576C77.7575 41.3013 77.3672 41.4256 77.0131 41.6234C75.0177 42.8893 76.379 45.646 77.529 46.9937C79.7222 49.5346 83.8085 52.121 86.7289 53.7415" fill="#9C7452"/>
<path d="M85.2698 43.6371C83.938 43.1257 80.7244 41.703 79.3607 41.3644C78.9718 41.2495 78.5639 41.2133 78.1608 41.2576C77.7575 41.3013 77.3672 41.4256 77.0131 41.6234C75.0177 42.8893 76.379 45.646 77.529 46.9937C79.7222 49.5346 83.8085 52.121 86.7289 53.7415" stroke="black" stroke-width="0.40225" stroke-miterlimit="10"/>
<path d="M122.653 85.6978L101.062 90.0727C101.062 90.0727 105.608 95.7543 115.467 96.3839L119.055 99.9998" fill="#9C7452"/>
<path d="M122.653 85.6978L101.062 90.0727C101.062 90.0727 105.608 95.7543 115.467 96.3839L119.055 99.9998" stroke="black" stroke-width="0.40225" stroke-miterlimit="10"/>
<path d="M127.444 81.8569L117.381 26.1189C117.176 25.0056 116.539 24.0185 115.609 23.3724C114.68 22.7263 113.532 22.4735 112.417 22.6691L85.2699 27.5758C84.1571 27.7811 83.1703 28.4176 82.5243 29.3467C81.8782 30.2758 81.6251 31.4224 81.82 32.5371L91.8949 88.2704C92.1023 89.3854 92.7416 90.3736 93.6737 91.0196C94.6058 91.6657 95.7553 91.9176 96.8721 91.7205L124.017 86.8182C125.131 86.6137 126.118 85.9757 126.762 85.0443C127.405 84.1128 127.653 82.9641 127.451 81.85L127.444 81.8569Z" fill="white" stroke="black" stroke-width="0.40225" stroke-miterlimit="10"/>
<path d="M85.5423 75.0864C85.9173 75.1614 86.2855 75.2682 86.6468 75.3727C88.6923 75.9636 88.0218 75.8136 90.0559 76.4045C92.3558 77.0682 94.1717 80.1249 92.2672 82.1522C89.9195 84.6363 87.256 83.2137 84.656 82.3069C83.2924 81.8387 82.1106 81.1387 81.6265 79.6864C80.9606 77.6592 82.2037 75.1409 84.4719 74.9932C84.831 74.986 85.1899 75.0173 85.5423 75.0864V75.0864Z" fill="#9C7452" stroke="black" stroke-width="0.40225" stroke-miterlimit="10"/>
<path d="M119.711 84.5662L97.3751 88.6571C96.808 88.7602 96.223 88.6351 95.7475 88.3091C95.2721 87.983 94.9447 87.4824 94.8366 86.9161L84.5298 32.2872C84.4744 32.0165 84.4744 31.7376 84.5298 31.4669C84.5844 31.1978 84.693 30.9424 84.8493 30.7165C85.0056 30.4907 85.2062 30.2991 85.4389 30.1532C85.6739 30.0074 85.936 29.9108 86.2094 29.8691L89.448 29.2783C89.6053 29.251 89.7671 29.2796 89.9054 29.3593C90.0437 29.4391 90.1497 29.5648 90.2048 29.7147C90.4683 30.4298 90.9748 31.0294 91.6358 31.4088C92.2968 31.7881 93.0702 31.923 93.8206 31.7896L105.957 29.5964C106.702 29.4592 107.375 29.0663 107.861 28.4853C108.347 27.9044 108.615 27.172 108.618 26.4146C108.619 26.2483 108.677 26.0874 108.784 25.9601C108.891 25.8386 109.038 25.7582 109.198 25.7328L111.75 25.2625C112.07 25.2039 112.399 25.2092 112.717 25.2782C113.036 25.3473 113.337 25.4786 113.605 25.6647C113.872 25.8495 114.1 26.0861 114.275 26.3602C114.45 26.6336 114.571 26.9383 114.629 27.2578L116.675 38.8805" fill="white"/>
<path d="M119.711 84.5662L97.3751 88.6571C96.808 88.7602 96.223 88.6351 95.7475 88.3091C95.2721 87.983 94.9447 87.4824 94.8366 86.9161L84.5298 32.2872C84.4744 32.0165 84.4744 31.7376 84.5298 31.4669C84.5844 31.1978 84.693 30.9424 84.8493 30.7165C85.0056 30.4907 85.2062 30.2991 85.4389 30.1532C85.6739 30.0074 85.936 29.9108 86.2094 29.8691L89.448 29.2783C89.6053 29.251 89.7671 29.2796 89.9054 29.3593C90.0437 29.4391 90.1497 29.5648 90.2048 29.7147C90.4683 30.4298 90.9748 31.0294 91.6358 31.4088C92.2968 31.7881 93.0702 31.923 93.8206 31.7896L105.957 29.5964C106.702 29.4592 107.375 29.0663 107.861 28.4853C108.347 27.9044 108.615 27.172 108.618 26.4146C108.619 26.2483 108.677 26.0874 108.784 25.9601C108.891 25.8386 109.038 25.7582 109.198 25.7328L111.75 25.2625C112.07 25.2039 112.399 25.2092 112.717 25.2782C113.036 25.3473 113.337 25.4786 113.605 25.6647C113.872 25.8495 114.1 26.0861 114.275 26.3602C114.45 26.6336 114.571 26.9383 114.629 27.2578L116.675 38.8805" stroke="black" stroke-width="0.40225" stroke-miterlimit="10"/>
<path d="M82.8207 59.0915C83.1957 59.1665 83.5616 59.2756 83.923 59.3779C85.9684 59.9688 88.0139 60.5756 90.0593 61.1665C92.3593 61.8347 94.1751 64.8916 92.2706 66.9188C89.9229 69.3983 84.5434 67.2347 81.9412 66.3142C80.5775 65.8438 79.3957 65.1437 78.9116 63.6938C78.2457 61.6642 79.4889 59.1483 81.7571 58.9983C82.1141 58.9844 82.4715 59.0158 82.8207 59.0915V59.0915Z" fill="#9C7452" stroke="black" stroke-width="0.40225" stroke-miterlimit="10"/>
<path d="M82.8207 66.6028C83.1957 66.6778 83.5616 66.7846 83.923 66.8891C85.9684 67.48 88.0139 68.087 90.0593 68.6733C92.3593 69.3392 94.1751 72.3959 92.2706 74.4254C89.9229 76.9072 84.5434 74.7436 81.9412 73.8186C80.5775 73.3482 79.3957 72.6551 78.9116 71.2028C78.2457 69.1755 79.4889 66.6574 81.7571 66.5074C82.1139 66.5023 82.4704 66.5342 82.8207 66.6028V66.6028Z" fill="#9C7452" stroke="black" stroke-width="0.40225" stroke-miterlimit="10"/>
<path d="M147.582 102.225L146.779 98.8952C146.704 98.0656 137.186 74.907 136.145 72.0615C135.104 69.2161 127.736 54.6139 127.736 54.6139C126.709 52.4332 126.033 50.1036 125.734 47.7117C125.734 47.7117 125.086 43.0186 124.891 40.1346C124.816 38.9709 123.161 38.196 122.073 38.5892C120.636 39.0869 119.425 40.1004 118.757 42.1436C118.512 42.9218 118.445 43.7453 118.561 44.5528L120.5 69.2025C113.959 85.3386 126.539 92.8998 126.539 92.8998" fill="#9C7452"/>
<path d="M147.582 102.225L146.779 98.8952C146.704 98.0656 137.186 74.907 136.145 72.0615C135.104 69.2161 127.736 54.6139 127.736 54.6139C126.709 52.4332 126.033 50.1036 125.734 47.7117C125.734 47.7117 125.086 43.0186 124.891 40.1346C124.816 38.9709 123.161 38.196 122.073 38.5892C120.636 39.0869 119.425 40.1004 118.757 42.1436C118.512 42.9218 118.445 43.7453 118.561 44.5528L120.5 69.2025C113.959 85.3386 126.539 92.8998 126.539 92.8998" stroke="black" stroke-width="0.40225" stroke-miterlimit="10"/>
<path d="M107.381 43.235C107.172 42.9178 106.877 42.6663 106.531 42.5099C106.055 42.3036 105.517 42.2924 105.033 42.4786C104.549 42.6648 104.157 43.0334 103.942 43.5053C103.861 43.6985 103.81 43.9032 103.792 44.1121L101.097 44.5666C101.065 44.4919 101.024 44.421 100.976 44.3554C100.929 44.294 100.888 44.219 100.84 44.1576L101.642 43.0213C101.926 43.1238 102.229 43.1596 102.529 43.1258C102.827 43.0924 103.114 42.9888 103.365 42.8235C103.689 42.6152 103.945 42.3153 104.099 41.9617C104.253 41.6081 104.299 41.2167 104.231 40.8371C104.181 40.5802 104.083 40.3351 103.942 40.1145C103.735 39.7908 103.436 39.536 103.083 39.3823C102.731 39.2285 102.341 39.1829 101.963 39.2509C101.703 39.2979 101.455 39.3951 101.233 39.5372C100.914 39.7444 100.661 40.0397 100.506 40.3872C100.347 40.7438 100.3 41.1397 100.369 41.5236C100.417 41.7828 100.515 42.0304 100.656 42.2531C100.694 42.3099 100.735 42.3668 100.778 42.4213L99.9763 43.5712C99.6657 43.4622 99.3323 43.4349 99.0081 43.4918C98.7493 43.5414 98.5024 43.64 98.2807 43.7825C97.9634 43.9888 97.7125 44.2825 97.5581 44.6281C97.3968 44.9838 97.3491 45.3807 97.4217 45.7645C97.4772 46.0801 97.609 46.3773 97.8058 46.6303C98.0028 46.8839 98.2597 47.0847 98.5535 47.2144C98.9057 47.387 99.3026 47.4466 99.6899 47.3849C100.006 47.3275 100.304 47.194 100.557 46.996C100.811 46.7981 101.012 46.5416 101.144 46.2485C101.233 46.0577 101.284 45.8517 101.294 45.6417L104.003 45.1734C104.035 45.2481 104.074 45.3192 104.122 45.385C104.161 45.4425 104.202 45.497 104.244 45.5485L103.447 46.6849C103.136 46.5773 102.802 46.5515 102.478 46.6099C102.22 46.6577 101.973 46.7548 101.751 46.8962C101.434 47.1047 101.183 47.3997 101.029 47.7462C100.869 48.1025 100.822 48.4987 100.892 48.8826C100.935 49.1371 101.028 49.3806 101.166 49.5988C101.304 49.8169 101.484 50.0054 101.696 50.1534C101.907 50.3014 102.146 50.4061 102.398 50.461C102.65 50.5159 102.911 50.5201 103.165 50.4734C103.424 50.4254 103.672 50.3283 103.894 50.1871C104.213 49.9793 104.466 49.6842 104.622 49.3371C104.779 48.9804 104.827 48.5846 104.758 48.2007C104.708 47.942 104.61 47.6951 104.467 47.4734C104.424 47.4121 104.376 47.337 104.331 47.2757L105.133 46.1393C105.453 46.2547 105.797 46.2875 106.133 46.2348C106.391 46.1835 106.638 46.085 106.86 45.944C107.178 45.7372 107.429 45.4437 107.585 45.0984C107.745 44.7422 107.792 44.3457 107.719 43.9621C107.644 43.7038 107.53 43.4587 107.381 43.235V43.235ZM101.417 40.9803C101.457 40.8019 101.547 40.6388 101.676 40.51C101.802 40.3809 101.966 40.2956 102.144 40.2667C102.297 40.2407 102.453 40.2533 102.599 40.3031C102.741 40.348 102.87 40.4258 102.976 40.5304C103.084 40.6373 103.162 40.7705 103.203 40.9168C103.243 41.0657 103.243 41.2224 103.203 41.3713C103.162 41.549 103.072 41.7116 102.944 41.8416C102.836 41.9457 102.704 42.0221 102.559 42.0645C102.415 42.1068 102.262 42.1138 102.115 42.0849C101.939 42.0435 101.776 41.9564 101.644 41.8325C101.523 41.7005 101.441 41.5379 101.406 41.3622C101.381 41.2357 101.385 41.1051 101.417 40.9803V40.9803ZM100.206 45.628C100.177 45.7506 100.123 45.8659 100.047 45.9662C99.9707 46.0666 99.8743 46.1499 99.7639 46.2106C99.6535 46.2712 99.5316 46.308 99.4061 46.3184C99.2806 46.3289 99.1543 46.3127 99.0354 46.2712C98.894 46.2265 98.7654 46.1485 98.6604 46.0439C98.5376 45.913 98.4547 45.7497 98.4217 45.5734C98.3969 45.4527 98.3969 45.3283 98.4217 45.2076C98.4619 45.0393 98.5522 44.8871 98.6808 44.7713C98.8078 44.6435 98.9714 44.5584 99.149 44.528C99.2681 44.503 99.3912 44.503 99.5103 44.528C99.6277 44.5526 99.7389 44.6006 99.8373 44.6692C99.9358 44.7378 100.019 44.8256 100.083 44.9273C100.147 45.029 100.189 45.1424 100.208 45.2609C100.227 45.3794 100.221 45.5003 100.192 45.6167L100.206 45.628ZM103.658 48.7281C103.616 48.8972 103.526 49.0503 103.399 49.1689C103.292 49.2768 103.159 49.3551 103.013 49.3961C102.864 49.4352 102.707 49.4352 102.558 49.3961C102.381 49.3537 102.22 49.2642 102.09 49.1371C101.966 49.0067 101.881 48.8445 101.844 48.6688C101.822 48.5479 101.822 48.424 101.844 48.3031C101.878 48.1326 101.968 47.978 102.099 47.8643C102.228 47.7387 102.39 47.6543 102.567 47.6213C102.688 47.6008 102.812 47.6008 102.933 47.6213C103.11 47.6642 103.272 47.7535 103.403 47.8803C103.526 48.0115 103.61 48.1733 103.649 48.3486C103.674 48.4735 103.677 48.602 103.658 48.7281V48.7281ZM106.613 44.5007C106.576 44.6691 106.488 44.8218 106.36 44.9371C106.232 45.0651 106.068 45.1508 105.89 45.1825C105.742 45.2047 105.591 45.1922 105.449 45.1461C105.307 45.1015 105.179 45.0236 105.074 44.9189C104.951 44.787 104.866 44.6246 104.828 44.4486C104.808 44.329 104.808 44.2068 104.828 44.0872C104.869 43.9302 104.95 43.7865 105.063 43.6704C105.176 43.5544 105.318 43.47 105.474 43.4259C105.623 43.3863 105.78 43.3863 105.928 43.4259C106.105 43.4698 106.267 43.559 106.399 43.6849C106.521 43.8157 106.605 43.9776 106.642 44.1529C106.66 44.2704 106.654 44.3904 106.624 44.5054L106.613 44.5007Z" fill="black"/>
<path d="M109.028 60.2594L101.515 61.623C100.846 61.7427 100.156 61.6267 99.5625 61.2949C98.9694 60.9632 98.5097 60.436 98.2615 59.8033C98.0133 59.1705 97.9921 58.4714 98.2016 57.8249C98.411 57.1783 98.8381 56.6243 99.4101 56.2573C99.735 56.0482 100.098 55.9052 100.478 55.8367L107.978 54.4731C108.743 54.3347 109.531 54.5059 110.169 54.9487C110.808 55.3915 111.244 56.07 111.383 56.8346C111.521 57.5992 111.35 58.3873 110.907 59.0258C110.464 59.6643 109.786 60.1006 109.021 60.2389L109.028 60.2594Z" fill="#47FFB9"/>
<path d="M109.027 60.2594L108.966 59.9571L101.455 61.3207C101.299 61.3482 101.142 61.3634 100.984 61.3662C100.376 61.3641 99.7866 61.1503 99.3183 60.7616C98.8379 60.3679 98.5152 59.8147 98.4092 59.2027C98.3774 59.0479 98.3614 58.8902 98.3615 58.7322C98.3643 58.1176 98.5825 57.5235 98.9783 57.0534C99.3741 56.5833 99.9223 56.2669 100.527 56.1594L108.039 54.7958C108.193 54.7639 108.351 54.748 108.509 54.7481C109.118 54.751 109.707 54.9655 110.175 55.3548C110.655 55.7488 110.978 56.3022 111.084 56.914C111.115 57.0681 111.13 57.2251 111.129 57.3823C111.127 57.9966 110.909 58.5905 110.514 59.0606C110.119 59.5308 109.571 59.8473 108.966 59.9548L109.027 60.2571L109.089 60.5616C109.695 60.4525 110.258 60.1726 110.711 59.7549C111.189 59.3138 111.522 58.7388 111.667 58.1052C111.812 57.4716 111.763 56.809 111.525 56.204C111.287 55.599 110.872 55.08 110.335 54.7148C109.797 54.3496 109.161 54.1552 108.511 54.1572C108.32 54.1568 108.128 54.1713 107.939 54.2005L100.425 55.5641C99.675 55.6949 98.9976 56.0928 98.5183 56.6845C98.0407 57.2593 97.7786 57.9827 97.7773 58.7299C97.777 59.1536 97.8603 59.5733 98.0223 59.9648C98.1842 60.3564 98.4217 60.712 98.7212 61.0117C99.0207 61.3114 99.3763 61.5493 99.7677 61.7115C100.159 61.8737 100.579 61.9572 101.002 61.9572C101.191 61.9622 101.379 61.9523 101.566 61.9277L109.079 60.5641L109.027 60.2594Z" fill="black"/>
<path d="M111.328 56.855C111.453 57.5226 111.342 58.213 111.015 58.8083C110.688 59.4036 110.165 59.8669 109.534 60.1193C108.903 60.3717 108.205 60.3976 107.557 60.1924C106.91 59.9871 106.354 59.5635 105.984 58.9939C105.613 58.4243 105.452 57.744 105.528 57.0689C105.604 56.3939 105.911 55.7659 106.398 55.2923C106.885 54.8186 107.521 54.5287 108.198 54.4718C108.875 54.4148 109.55 54.5944 110.11 54.98C110.426 55.1969 110.697 55.4741 110.906 55.7959C111.115 56.1176 111.258 56.4776 111.328 56.855V56.855Z" fill="white"/>
<path d="M111.328 56.855L111.024 56.9163C111.053 57.0707 111.069 57.2275 111.072 57.3846C111.07 57.9994 110.852 58.594 110.456 59.0643C110.06 59.5346 109.511 59.8505 108.906 59.9571C108.751 59.9866 108.595 60.0026 108.438 60.0049C107.824 60.0005 107.23 59.7822 106.76 59.3872C106.29 58.9922 105.973 58.4454 105.863 57.8414C105.836 57.686 105.822 57.5285 105.822 57.3708C105.824 56.7565 106.042 56.1625 106.437 55.6923C106.833 55.2221 107.38 54.9058 107.985 54.7983C108.14 54.7666 108.298 54.7506 108.456 54.7506C109.063 54.7546 109.65 54.969 110.117 55.3574C110.597 55.7513 110.92 56.3045 111.026 56.9163L111.331 56.855L111.631 56.7936C111.495 56.0493 111.102 55.3764 110.52 54.8924C109.939 54.4084 109.206 54.1444 108.449 54.146C108.256 54.1464 108.063 54.1616 107.872 54.1915C107.122 54.3222 106.445 54.7193 105.965 55.3097C105.573 55.7805 105.323 56.3534 105.245 56.9614C105.167 57.5693 105.264 58.1869 105.525 58.7416C105.786 59.2962 106.2 59.7649 106.717 60.0925C107.235 60.4202 107.836 60.5931 108.449 60.5912C108.641 60.5912 108.832 60.5776 109.022 60.5504C109.772 60.4179 110.449 60.0194 110.929 59.4278C111.406 58.8533 111.668 58.1297 111.669 57.3824C111.672 57.1889 111.656 56.9956 111.622 56.8051L111.328 56.855Z" fill="black"/>
<path d="M144.528 104.63C141.801 105.159 138.764 104.63 136.237 103.555C134.571 102.859 132.846 101.648 131.071 101.314C129.296 100.98 127.26 101.605 125.517 102.075C123.774 102.546 121.964 103.132 120.542 101.891C119.314 100.83 118.887 98.773 118.555 96.8912C118.224 95.0094 117.892 93.1866 117.56 91.3366C117.399 90.6289 117.341 89.9017 117.389 89.1775C117.508 88.4587 117.794 87.778 118.226 87.1911C119.344 85.5752 120.917 84.6184 122.476 83.7821C123.824 83.073 125.23 82.4185 126.701 82.4185C127.919 82.4983 129.114 82.7955 130.228 83.2958L136.055 85.523C136.688 85.7138 137.274 86.0334 137.778 86.4616C138.194 86.9171 138.569 87.4084 138.898 87.9298C141.016 90.9252 144.303 92.4388 145.862 95.9774C146.66 97.7819 146.998 100.125 147.13 102.184C147.178 103.727 145.923 104.375 144.528 104.63Z" fill="#9C7452"/>
<path d="M124.017 85.4543L95.6722 90.5042C95.3265 90.5667 94.9719 90.5598 94.629 90.4838C94.1146 90.3683 93.6458 90.1032 93.2818 89.7218C92.9178 89.3404 92.6749 88.8599 92.5836 88.3407L82.5496 31.9981C82.4878 31.6522 82.4946 31.2974 82.5698 30.9541C82.6451 30.6108 82.7873 30.2858 82.9882 29.9975C83.1891 29.7092 83.4449 29.4634 83.7409 29.274C84.0369 29.0846 84.3673 28.9553 84.7133 28.8936L113.04 23.8368C113.739 23.715 114.457 23.8743 115.039 24.28C115.62 24.6858 116.018 25.3051 116.145 26.0028L126.192 82.3657C126.312 83.0636 126.151 83.7805 125.743 84.3594C125.335 84.9384 124.715 85.3322 124.017 85.4543V85.4543Z" fill="white" stroke="black" stroke-width="0.40225" stroke-miterlimit="10"/>
<path d="M85.2698 43.6371C83.938 43.1257 80.7244 41.703 79.3607 41.3644C78.9718 41.2495 78.5639 41.2133 78.1608 41.2576C77.7575 41.3013 77.3672 41.4256 77.0131 41.6234C75.0177 42.8893 76.379 45.646 77.529 46.9937C79.7222 49.5346 83.8085 52.121 86.7289 53.7415" fill="#9C7452"/>
<path d="M85.2698 43.6371C83.938 43.1257 80.7244 41.703 79.3607 41.3644C78.9718 41.2495 78.5639 41.2133 78.1608 41.2576C77.7575 41.3013 77.3672 41.4256 77.0131 41.6234C75.0177 42.8893 76.379 45.646 77.529 46.9937C79.7222 49.5346 83.8085 52.121 86.7289 53.7415" stroke="black" stroke-width="0.40225" stroke-miterlimit="10"/>
<path d="M122.653 85.6978L101.062 90.0727C101.062 90.0727 105.608 95.7543 115.467 96.3839L119.055 99.9998" fill="#9C7452"/>
<path d="M122.653 85.6978L101.062 90.0727C101.062 90.0727 105.608 95.7543 115.467 96.3839L119.055 99.9998" stroke="black" stroke-width="0.40225" stroke-miterlimit="10"/>
<path d="M127.444 81.8569L117.381 26.1189C117.176 25.0056 116.539 24.0185 115.609 23.3724C114.68 22.7263 113.532 22.4735 112.417 22.6691L85.2699 27.5758C84.1571 27.7811 83.1703 28.4176 82.5243 29.3467C81.8782 30.2758 81.6251 31.4224 81.82 32.5371L91.8949 88.2704C92.1023 89.3854 92.7416 90.3736 93.6737 91.0196C94.6058 91.6657 95.7553 91.9176 96.8721 91.7205L124.017 86.8182C125.131 86.6137 126.118 85.9757 126.762 85.0443C127.405 84.1128 127.653 82.9641 127.451 81.85L127.444 81.8569Z" fill="white" stroke="black" stroke-width="0.40225" stroke-miterlimit="10"/>
<path d="M85.5423 75.0864C85.9173 75.1614 86.2855 75.2682 86.6468 75.3727C88.6923 75.9636 88.0218 75.8136 90.0559 76.4045C92.3558 77.0682 94.1717 80.1249 92.2672 82.1522C89.9195 84.6363 87.256 83.2137 84.656 82.3069C83.2924 81.8387 82.1106 81.1387 81.6265 79.6864C80.9606 77.6592 82.2037 75.1409 84.4719 74.9932C84.831 74.986 85.1899 75.0173 85.5423 75.0864V75.0864Z" fill="#9C7452" stroke="black" stroke-width="0.40225" stroke-miterlimit="10"/>
<path d="M119.711 84.5662L97.3751 88.6571C96.808 88.7602 96.223 88.6351 95.7475 88.3091C95.2721 87.983 94.9447 87.4824 94.8366 86.9161L84.5298 32.2872C84.4744 32.0165 84.4744 31.7376 84.5298 31.4669C84.5844 31.1978 84.693 30.9424 84.8493 30.7165C85.0056 30.4907 85.2062 30.2991 85.4389 30.1532C85.6739 30.0074 85.936 29.9108 86.2094 29.8691L89.448 29.2783C89.6053 29.251 89.7671 29.2796 89.9054 29.3593C90.0437 29.4391 90.1497 29.5648 90.2048 29.7147C90.4683 30.4298 90.9748 31.0294 91.6358 31.4088C92.2968 31.7881 93.0702 31.923 93.8206 31.7896L105.957 29.5964C106.702 29.4592 107.375 29.0663 107.861 28.4853C108.347 27.9044 108.615 27.172 108.618 26.4146C108.619 26.2483 108.677 26.0874 108.784 25.9601C108.891 25.8386 109.038 25.7582 109.198 25.7328L111.75 25.2625C112.07 25.2039 112.399 25.2092 112.717 25.2782C113.036 25.3473 113.337 25.4786 113.605 25.6647C113.872 25.8495 114.1 26.0861 114.275 26.3602C114.45 26.6336 114.571 26.9383 114.629 27.2578L116.675 38.8805" fill="white"/>
<path d="M119.711 84.5662L97.3751 88.6571C96.808 88.7602 96.223 88.6351 95.7475 88.3091C95.2721 87.983 94.9447 87.4824 94.8366 86.9161L84.5298 32.2872C84.4744 32.0165 84.4744 31.7376 84.5298 31.4669C84.5844 31.1978 84.693 30.9424 84.8493 30.7165C85.0056 30.4907 85.2062 30.2991 85.4389 30.1532C85.6739 30.0074 85.936 29.9108 86.2094 29.8691L89.448 29.2783C89.6053 29.251 89.7671 29.2796 89.9054 29.3593C90.0437 29.4391 90.1497 29.5648 90.2048 29.7147C90.4683 30.4298 90.9748 31.0294 91.6358 31.4088C92.2968 31.7881 93.0702 31.923 93.8206 31.7896L105.957 29.5964C106.702 29.4592 107.375 29.0663 107.861 28.4853C108.347 27.9044 108.615 27.172 108.618 26.4146C108.619 26.2483 108.677 26.0874 108.784 25.9601C108.891 25.8386 109.038 25.7582 109.198 25.7328L111.75 25.2625C112.07 25.2039 112.399 25.2092 112.717 25.2782C113.036 25.3473 113.337 25.4786 113.605 25.6647C113.872 25.8495 114.1 26.0861 114.275 26.3602C114.45 26.6336 114.571 26.9383 114.629 27.2578L116.675 38.8805" stroke="black" stroke-width="0.40225" stroke-miterlimit="10"/>
<path d="M82.8207 59.0915C83.1957 59.1665 83.5616 59.2756 83.923 59.3779C85.9684 59.9688 88.0139 60.5756 90.0593 61.1665C92.3593 61.8347 94.1751 64.8916 92.2706 66.9188C89.9229 69.3983 84.5434 67.2347 81.9412 66.3142C80.5775 65.8438 79.3957 65.1437 78.9116 63.6938C78.2457 61.6642 79.4889 59.1483 81.7571 58.9983C82.1141 58.9844 82.4715 59.0158 82.8207 59.0915V59.0915Z" fill="#9C7452" stroke="black" stroke-width="0.40225" stroke-miterlimit="10"/>
<path d="M82.8207 66.6028C83.1957 66.6778 83.5616 66.7846 83.923 66.8891C85.9684 67.48 88.0139 68.087 90.0593 68.6733C92.3593 69.3392 94.1751 72.3959 92.2706 74.4254C89.9229 76.9072 84.5434 74.7436 81.9412 73.8186C80.5775 73.3482 79.3957 72.6551 78.9116 71.2028C78.2457 69.1755 79.4889 66.6574 81.7571 66.5074C82.1139 66.5023 82.4704 66.5342 82.8207 66.6028V66.6028Z" fill="#9C7452" stroke="black" stroke-width="0.40225" stroke-miterlimit="10"/>
<path d="M147.582 102.225L146.779 98.8952C146.704 98.0656 137.186 74.907 136.145 72.0615C135.104 69.2161 127.736 54.6139 127.736 54.6139C126.709 52.4332 126.033 50.1036 125.734 47.7117C125.734 47.7117 125.086 43.0186 124.891 40.1346C124.816 38.9709 123.161 38.196 122.073 38.5892C120.636 39.0869 119.425 40.1004 118.757 42.1436C118.512 42.9218 118.445 43.7453 118.561 44.5528L120.5 69.2025C113.959 85.3386 126.539 92.8998 126.539 92.8998" fill="#9C7452"/>
<path d="M147.582 102.225L146.779 98.8952C146.704 98.0656 137.186 74.907 136.145 72.0615C135.104 69.2161 127.736 54.6139 127.736 54.6139C126.709 52.4332 126.033 50.1036 125.734 47.7117C125.734 47.7117 125.086 43.0186 124.891 40.1346C124.816 38.9709 123.161 38.196 122.073 38.5892C120.636 39.0869 119.425 40.1004 118.757 42.1436C118.512 42.9218 118.445 43.7453 118.561 44.5528L120.5 69.2025C113.959 85.3386 126.539 92.8998 126.539 92.8998" stroke="black" stroke-width="0.40225" stroke-miterlimit="10"/>
<path d="M107.381 43.235C107.172 42.9178 106.877 42.6663 106.531 42.5099C106.055 42.3036 105.517 42.2924 105.033 42.4786C104.549 42.6648 104.157 43.0334 103.942 43.5053C103.861 43.6985 103.81 43.9032 103.792 44.1121L101.097 44.5666C101.065 44.4919 101.024 44.421 100.976 44.3554C100.929 44.294 100.888 44.219 100.84 44.1576L101.642 43.0213C101.926 43.1238 102.229 43.1596 102.529 43.1258C102.827 43.0924 103.114 42.9888 103.365 42.8235C103.689 42.6152 103.945 42.3153 104.099 41.9617C104.253 41.6081 104.299 41.2167 104.231 40.8371C104.181 40.5802 104.083 40.3351 103.942 40.1145C103.735 39.7908 103.436 39.536 103.083 39.3823C102.731 39.2285 102.341 39.1829 101.963 39.2509C101.703 39.2979 101.455 39.3951 101.233 39.5372C100.914 39.7444 100.661 40.0397 100.506 40.3872C100.347 40.7438 100.3 41.1397 100.369 41.5236C100.417 41.7828 100.515 42.0304 100.656 42.2531C100.694 42.3099 100.735 42.3668 100.778 42.4213L99.9763 43.5712C99.6657 43.4622 99.3323 43.4349 99.0081 43.4918C98.7493 43.5414 98.5024 43.64 98.2807 43.7825C97.9634 43.9888 97.7125 44.2825 97.5581 44.6281C97.3968 44.9838 97.3491 45.3807 97.4217 45.7645C97.4772 46.0801 97.609 46.3773 97.8058 46.6303C98.0028 46.8839 98.2597 47.0847 98.5535 47.2144C98.9057 47.387 99.3026 47.4466 99.6899 47.3849C100.006 47.3275 100.304 47.194 100.557 46.996C100.811 46.7981 101.012 46.5416 101.144 46.2485C101.233 46.0577 101.284 45.8517 101.294 45.6417L104.003 45.1734C104.035 45.2481 104.074 45.3192 104.122 45.385C104.161 45.4425 104.202 45.497 104.244 45.5485L103.447 46.6849C103.136 46.5773 102.802 46.5515 102.478 46.6099C102.22 46.6577 101.973 46.7548 101.751 46.8962C101.434 47.1047 101.183 47.3997 101.029 47.7462C100.869 48.1025 100.822 48.4987 100.892 48.8826C100.935 49.1371 101.028 49.3806 101.166 49.5988C101.304 49.8169 101.484 50.0054 101.696 50.1534C101.907 50.3014 102.146 50.4061 102.398 50.461C102.65 50.5159 102.911 50.5201 103.165 50.4734C103.424 50.4254 103.672 50.3283 103.894 50.1871C104.213 49.9793 104.466 49.6842 104.622 49.3371C104.779 48.9804 104.827 48.5846 104.758 48.2007C104.708 47.942 104.61 47.6951 104.467 47.4734C104.424 47.4121 104.376 47.337 104.331 47.2757L105.133 46.1393C105.453 46.2547 105.797 46.2875 106.133 46.2348C106.391 46.1835 106.638 46.085 106.86 45.944C107.178 45.7372 107.429 45.4437 107.585 45.0984C107.745 44.7422 107.792 44.3457 107.719 43.9621C107.644 43.7038 107.53 43.4587 107.381 43.235V43.235ZM101.417 40.9803C101.457 40.8019 101.547 40.6388 101.676 40.51C101.802 40.3809 101.966 40.2956 102.144 40.2667C102.297 40.2407 102.453 40.2533 102.599 40.3031C102.741 40.348 102.87 40.4258 102.976 40.5304C103.084 40.6373 103.162 40.7705 103.203 40.9168C103.243 41.0657 103.243 41.2224 103.203 41.3713C103.162 41.549 103.072 41.7116 102.944 41.8416C102.836 41.9457 102.704 42.0221 102.559 42.0645C102.415 42.1068 102.262 42.1138 102.115 42.0849C101.939 42.0435 101.776 41.9564 101.644 41.8325C101.523 41.7005 101.441 41.5379 101.406 41.3622C101.381 41.2357 101.385 41.1051 101.417 40.9803V40.9803ZM100.206 45.628C100.177 45.7506 100.123 45.8659 100.047 45.9662C99.9707 46.0666 99.8743 46.1499 99.7639 46.2106C99.6535 46.2712 99.5316 46.308 99.4061 46.3184C99.2806 46.3289 99.1543 46.3127 99.0354 46.2712C98.894 46.2265 98.7654 46.1485 98.6604 46.0439C98.5376 45.913 98.4547 45.7497 98.4217 45.5734C98.3969 45.4527 98.3969 45.3283 98.4217 45.2076C98.4619 45.0393 98.5522 44.8871 98.6808 44.7713C98.8078 44.6435 98.9714 44.5584 99.149 44.528C99.2681 44.503 99.3912 44.503 99.5103 44.528C99.6277 44.5526 99.7389 44.6006 99.8373 44.6692C99.9358 44.7378 100.019 44.8256 100.083 44.9273C100.147 45.029 100.189 45.1424 100.208 45.2609C100.227 45.3794 100.221 45.5003 100.192 45.6167L100.206 45.628ZM103.658 48.7281C103.616 48.8972 103.526 49.0503 103.399 49.1689C103.292 49.2768 103.159 49.3551 103.013 49.3961C102.864 49.4352 102.707 49.4352 102.558 49.3961C102.381 49.3537 102.22 49.2642 102.09 49.1371C101.966 49.0067 101.881 48.8445 101.844 48.6688C101.822 48.5479 101.822 48.424 101.844 48.3031C101.878 48.1326 101.968 47.978 102.099 47.8643C102.228 47.7387 102.39 47.6543 102.567 47.6213C102.688 47.6008 102.812 47.6008 102.933 47.6213C103.11 47.6642 103.272 47.7535 103.403 47.8803C103.526 48.0115 103.61 48.1733 103.649 48.3486C103.674 48.4735 103.677 48.602 103.658 48.7281V48.7281ZM106.613 44.5007C106.576 44.6691 106.488 44.8218 106.36 44.9371C106.232 45.0651 106.068 45.1508 105.89 45.1825C105.742 45.2047 105.591 45.1922 105.449 45.1461C105.307 45.1015 105.179 45.0236 105.074 44.9189C104.951 44.787 104.866 44.6246 104.828 44.4486C104.808 44.329 104.808 44.2068 104.828 44.0872C104.869 43.9302 104.95 43.7865 105.063 43.6704C105.176 43.5544 105.318 43.47 105.474 43.4259C105.623 43.3863 105.78 43.3863 105.928 43.4259C106.105 43.4698 106.267 43.559 106.399 43.6849C106.521 43.8157 106.605 43.9776 106.642 44.1529C106.66 44.2704 106.654 44.3904 106.624 44.5054L106.613 44.5007Z" fill="black"/>
<path d="M109.028 60.2594L101.515 61.623C100.846 61.7427 100.156 61.6267 99.5625 61.2949C98.9694 60.9632 98.5097 60.436 98.2615 59.8033C98.0133 59.1705 97.9921 58.4714 98.2016 57.8249C98.411 57.1783 98.8381 56.6243 99.4101 56.2573C99.735 56.0482 100.098 55.9052 100.478 55.8367L107.978 54.4731C108.743 54.3347 109.531 54.5059 110.169 54.9487C110.808 55.3915 111.244 56.07 111.383 56.8346C111.521 57.5992 111.35 58.3873 110.907 59.0258C110.464 59.6643 109.786 60.1006 109.021 60.2389L109.028 60.2594Z" fill="#47FFB9"/>
<path d="M109.027 60.2594L108.966 59.9571L101.455 61.3207C101.299 61.3482 101.142 61.3634 100.984 61.3662C100.376 61.3641 99.7866 61.1503 99.3183 60.7616C98.8379 60.3679 98.5152 59.8147 98.4092 59.2027C98.3774 59.0479 98.3614 58.8902 98.3615 58.7322C98.3643 58.1176 98.5825 57.5235 98.9783 57.0534C99.3741 56.5833 99.9223 56.2669 100.527 56.1594L108.039 54.7958C108.193 54.7639 108.351 54.748 108.509 54.7481C109.118 54.751 109.707 54.9655 110.175 55.3548C110.655 55.7488 110.978 56.3022 111.084 56.914C111.115 57.0681 111.13 57.2251 111.129 57.3823C111.127 57.9966 110.909 58.5905 110.514 59.0606C110.119 59.5308 109.571 59.8473 108.966 59.9548L109.027 60.2571L109.089 60.5616C109.695 60.4525 110.258 60.1726 110.711 59.7549C111.189 59.3138 111.522 58.7388 111.667 58.1052C111.812 57.4716 111.763 56.809 111.525 56.204C111.287 55.599 110.872 55.08 110.335 54.7148C109.797 54.3496 109.161 54.1552 108.511 54.1572C108.32 54.1568 108.128 54.1713 107.939 54.2005L100.425 55.5641C99.675 55.6949 98.9976 56.0928 98.5183 56.6845C98.0407 57.2593 97.7786 57.9827 97.7773 58.7299C97.777 59.1536 97.8603 59.5733 98.0223 59.9648C98.1842 60.3564 98.4217 60.712 98.7212 61.0117C99.0207 61.3114 99.3763 61.5493 99.7677 61.7115C100.159 61.8737 100.579 61.9572 101.002 61.9572C101.191 61.9622 101.379 61.9523 101.566 61.9277L109.079 60.5641L109.027 60.2594Z" fill="black"/>
<path d="M111.328 56.855C111.453 57.5226 111.342 58.213 111.015 58.8083C110.688 59.4036 110.165 59.8669 109.534 60.1193C108.903 60.3717 108.205 60.3976 107.557 60.1924C106.91 59.9871 106.354 59.5635 105.984 58.9939C105.613 58.4243 105.452 57.744 105.528 57.0689C105.604 56.3939 105.911 55.7659 106.398 55.2923C106.885 54.8186 107.521 54.5287 108.198 54.4718C108.875 54.4148 109.55 54.5944 110.11 54.98C110.426 55.1969 110.697 55.4741 110.906 55.7959C111.115 56.1176 111.258 56.4776 111.328 56.855V56.855Z" fill="white"/>
<path d="M111.328 56.855L111.024 56.9163C111.053 57.0707 111.069 57.2275 111.072 57.3846C111.07 57.9994 110.852 58.594 110.456 59.0643C110.06 59.5346 109.511 59.8505 108.906 59.9571C108.751 59.9866 108.595 60.0026 108.438 60.0049C107.824 60.0005 107.23 59.7822 106.76 59.3872C106.29 58.9922 105.973 58.4454 105.863 57.8414C105.836 57.686 105.822 57.5285 105.822 57.3708C105.824 56.7565 106.042 56.1625 106.437 55.6923C106.833 55.2221 107.38 54.9058 107.985 54.7983C108.14 54.7666 108.298 54.7506 108.456 54.7506C109.063 54.7546 109.65 54.969 110.117 55.3574C110.597 55.7513 110.92 56.3045 111.026 56.9163L111.331 56.855L111.631 56.7936C111.495 56.0493 111.102 55.3764 110.52 54.8924C109.939 54.4084 109.206 54.1444 108.449 54.146C108.256 54.1464 108.063 54.1616 107.872 54.1915C107.122 54.3222 106.445 54.7193 105.965 55.3097C105.573 55.7805 105.323 56.3534 105.245 56.9614C105.167 57.5693 105.264 58.1869 105.525 58.7416C105.786 59.2962 106.2 59.7649 106.717 60.0925C107.235 60.4202 107.836 60.5931 108.449 60.5912C108.641 60.5912 108.832 60.5776 109.022 60.5504C109.772 60.4179 110.449 60.0194 110.929 59.4278C111.406 58.8533 111.668 58.1297 111.669 57.3824C111.672 57.1889 111.656 56.9956 111.622 56.8051L111.328 56.855Z" fill="black"/>
</svg>
