<svg width="80" height="80" viewBox="0 0 80 80" fill="none" xmlns="http://www.w3.org/2000/svg">
<rect x="43" y="43" width="32" height="32" rx="16" fill="#FF4F5E"/>
<path fill-rule="evenodd" clip-rule="evenodd" d="M15.8484 6.39998H63.3484C67.1278 6.39998 70.7523 7.90131 73.4247 10.5737C76.0971 13.2461 77.5984 16.8706 77.5984 20.65V49.242C75.5033 45.2565 72.1647 42.0269 68.0984 40.0687V30.15H11.0984V58.65C11.0984 59.9098 11.5989 61.1179 12.4897 62.0087C13.3805 62.8995 14.5887 63.4 15.8484 63.4H38.4601C39.2261 66.9927 40.9109 70.2453 43.2568 72.9H15.8484C12.0691 72.9 8.44457 71.3986 5.77218 68.7263C3.09978 66.0539 1.59845 62.4293 1.59845 58.65V20.65C1.59845 16.8706 3.09978 13.2461 5.77218 10.5737C8.44457 7.90131 12.0691 6.39998 15.8484 6.39998ZM11.0984 25.4H68.0984V20.65C68.0984 19.3902 67.598 18.182 66.7072 17.2912C65.8164 16.4004 64.6082 15.9 63.3484 15.9H15.8484C14.5887 15.9 13.3805 16.4004 12.4897 17.2912C11.5989 18.182 11.0984 19.3902 11.0984 20.65V25.4Z" fill="url(#paint0_radial_379_2833)"/>
<path d="M65.6929 63.0119L60.7399 53.1059C60.5739 52.7736 60.3185 52.4941 60.0025 52.2988C59.6866 52.1035 59.3224 52 58.9509 52C58.5795 52 58.2153 52.1035 57.8993 52.2988C57.5834 52.4941 57.328 52.7736 57.1619 53.1059L52.2089 63.0159C52.0575 63.3206 51.9863 63.659 52.0022 63.999C52.018 64.3389 52.1203 64.6692 52.2995 64.9586C52.4786 65.2479 52.7286 65.4868 53.0258 65.6526C53.323 65.8183 53.6576 65.9055 53.9979 65.9059H63.9029C64.2439 65.906 64.5792 65.819 64.8771 65.6531C65.1749 65.4872 65.4255 65.2479 65.6048 64.9579C65.7842 64.668 65.8864 64.337 65.9018 63.9964C65.9172 63.6557 65.8453 63.3169 65.6929 63.0119ZM57.9509 55.9059C57.9509 55.6406 58.0563 55.3863 58.2438 55.1988C58.4314 55.0112 58.6857 54.9059 58.9509 54.9059C59.2162 54.9059 59.4705 55.0112 59.658 55.1988C59.8456 55.3863 59.9509 55.6406 59.9509 55.9059V59.9059C59.9509 60.1711 59.8456 60.4254 59.658 60.613C59.4705 60.8005 59.2162 60.9059 58.9509 60.9059C58.6857 60.9059 58.4314 60.8005 58.2438 60.613C58.0563 60.4254 57.9509 60.1711 57.9509 59.9059V55.9059ZM58.9509 64.1559C58.7037 64.1559 58.462 64.0826 58.2565 63.9452C58.0509 63.8078 57.8907 63.6126 57.7961 63.3842C57.7015 63.1558 57.6767 62.9045 57.725 62.662C57.7732 62.4195 57.8922 62.1968 58.0671 62.022C58.2419 61.8472 58.4646 61.7281 58.7071 61.6799C58.9496 61.6317 59.2009 61.6564 59.4293 61.751C59.6577 61.8456 59.8529 62.0058 59.9903 62.2114C60.1276 62.417 60.2009 62.6586 60.2009 62.9059C60.2009 63.2374 60.0692 63.5553 59.8348 63.7897C59.6004 64.0242 59.2825 64.1559 58.9509 64.1559Z" fill="white"/>
<defs>
<radialGradient id="paint0_radial_379_2833" cx="0" cy="0" r="1" gradientUnits="userSpaceOnUse" gradientTransform="translate(77.5984 6.39998) rotate(138.814) scale(100.986 100.093)">
<stop stop-color="#E22850"/>
<stop offset="1" stop-color="#FFA436"/>
</radialGradient>
</defs>
</svg>
