<svg width="24" height="17" viewBox="0 0 24 17" fill="none" xmlns="http://www.w3.org/2000/svg">
<g clip-path="url(#clip0_830_3792)">
<path d="M24 0.807617H0V16.1922H24V0.807617Z" fill="#16366F"/>
<path d="M13.8157 8.50013C13.8157 11.5507 11.3428 14.0232 8.29236 14.0232C5.2419 14.0232 2.76929 11.5506 2.76929 8.50013C2.76929 5.44988 5.24196 2.97705 8.29236 2.97705C11.3427 2.97705 13.8157 5.44997 13.8157 8.50013Z" fill="#D9222A"/>
<path d="M15.7073 2.97656C14.2803 2.97656 12.9799 3.51798 11.9996 4.40629C11.7999 4.58749 11.6135 4.78281 11.4419 4.99078H12.5578C12.7106 5.17653 12.8512 5.37195 12.9789 5.57579H11.0209C10.9031 5.76413 10.7969 5.95946 10.7027 6.16066H13.2969C13.3859 6.35096 13.464 6.54619 13.5308 6.74539H10.4689C10.4045 6.93724 10.351 7.1325 10.3083 7.33029H13.6911C13.7739 7.71459 13.8155 8.10662 13.8155 8.49976C13.8155 9.11312 13.7153 9.70324 13.5307 10.2542H10.4688C10.5354 10.4536 10.6134 10.6488 10.7025 10.8391H13.2969C13.2026 11.0404 13.0963 11.2357 12.9785 11.4242H11.0208C11.1486 11.6281 11.2894 11.8235 11.4419 12.0087H12.5575C12.3861 12.217 12.1997 12.4125 11.9997 12.5936C12.98 13.4819 14.2802 14.023 15.7074 14.023C18.7578 14.023 21.2307 11.5503 21.2307 8.49992C21.2307 5.44976 18.7578 2.97684 15.7074 2.97684" fill="#EE9F2D"/>
<path d="M20.4947 11.5786C20.4947 11.4801 20.5745 11.4001 20.6731 11.4001C20.7717 11.4001 20.8514 11.4801 20.8514 11.5786C20.8514 11.677 20.7717 11.757 20.6731 11.757C20.5746 11.757 20.4947 11.6771 20.4947 11.5786ZM20.6731 11.7142C20.748 11.7142 20.8087 11.6534 20.8087 11.5786C20.8087 11.5037 20.748 11.4431 20.6732 11.4431H20.6731C20.5983 11.4429 20.5377 11.5035 20.5376 11.5782V11.5786C20.5375 11.6534 20.5981 11.7142 20.6729 11.7142C20.673 11.7142 20.673 11.7142 20.6731 11.7142ZM20.649 11.657H20.6124V11.5002H20.6786C20.6924 11.5002 20.7065 11.5002 20.7187 11.508C20.7314 11.5166 20.7386 11.5317 20.7386 11.5474C20.7386 11.5649 20.7282 11.5813 20.7114 11.5877L20.7403 11.657H20.6998L20.6758 11.5949H20.649V11.657H20.649ZM20.649 11.568H20.6692C20.6768 11.568 20.6847 11.5687 20.6915 11.565C20.6976 11.5611 20.7007 11.5539 20.7007 11.547C20.7007 11.541 20.697 11.5341 20.6918 11.5311C20.6854 11.5271 20.6753 11.528 20.6685 11.528H20.649V11.568ZM7.00284 9.10456C6.93992 9.09727 6.91223 9.0953 6.869 9.0953C6.52915 9.0953 6.35709 9.21188 6.35709 9.44201C6.35709 9.58388 6.44109 9.67419 6.57207 9.67419C6.81632 9.67419 6.99235 9.44158 7.00284 9.10456ZM7.43887 10.1198H6.94207L6.95349 9.88364C6.80195 10.0703 6.59976 10.159 6.32503 10.159C6.00004 10.159 5.77721 9.90518 5.77721 9.53659C5.77721 8.98201 6.16478 8.65844 6.83004 8.65844C6.89798 8.65844 6.98515 8.66459 7.07438 8.67594C7.093 8.60084 7.09786 8.56868 7.09786 8.52825C7.09786 8.37723 6.99336 8.32093 6.71324 8.32093C6.41992 8.3176 6.17798 8.3908 6.07863 8.42351C6.0849 8.38567 6.1617 7.91096 6.1617 7.91096C6.46053 7.82339 6.65761 7.79043 6.8794 7.79043C7.39426 7.79043 7.66696 8.02157 7.66647 8.4585C7.66746 8.57557 7.6481 8.72004 7.61786 8.90991C7.5658 9.2401 7.45416 9.94739 7.43887 10.1198ZM5.52632 10.1198H4.92669L5.27016 7.96606L4.50324 10.1198H4.09463L4.04416 7.97837L3.68312 10.1198H3.12183L3.59069 7.31815H4.45284L4.50515 8.88634L5.03106 7.31815H5.99004L5.52632 10.1198ZM16.4488 9.10456C16.3861 9.09727 16.3583 9.0953 16.3152 9.0953C15.9755 9.0953 15.8034 9.21188 15.8034 9.44201C15.8034 9.58388 15.8872 9.67419 16.0182 9.67419C16.2625 9.67419 16.4387 9.44158 16.4488 9.10456ZM16.8852 10.1198H16.3884L16.3996 9.88364C16.2481 10.0703 16.0458 10.159 15.7713 10.159C15.4462 10.159 15.2236 9.90518 15.2236 9.53659C15.2236 8.98201 15.6109 8.65844 16.2763 8.65844C16.3443 8.65844 16.4313 8.66459 16.5204 8.67594C16.539 8.60084 16.5439 8.56868 16.5439 8.52825C16.5439 8.37723 16.4395 8.32093 16.1594 8.32093C15.8661 8.3176 15.6244 8.3908 15.5247 8.42351C15.531 8.38567 15.608 7.91096 15.608 7.91096C15.9069 7.82339 16.1038 7.79043 16.3253 7.79043C16.8404 7.79043 17.1131 8.02157 17.1126 8.4585C17.1136 8.57557 17.0943 8.72004 17.064 8.90991C17.0123 9.2401 16.9003 9.94739 16.8852 10.1198ZM10.1039 10.0852C9.93983 10.1369 9.81189 10.159 9.67318 10.159C9.36663 10.159 9.19933 9.98287 9.19933 9.6585C9.19496 9.55788 9.24343 9.29299 9.28149 9.05121C9.3161 8.83837 9.54149 7.49643 9.54149 7.49643H10.1375L10.0679 7.84133H10.4279L10.3466 8.3889H9.9853C9.91607 8.82222 9.81749 9.36198 9.81635 9.43352C9.81635 9.55096 9.87903 9.60222 10.0216 9.60222C10.0899 9.60222 10.1428 9.59527 10.1833 9.58068L10.1039 10.0852ZM11.9314 10.0667C11.7266 10.1293 11.5291 10.1596 11.3197 10.1591C10.6525 10.1584 10.3047 9.80995 10.3047 9.14268C10.3047 8.36382 10.7472 7.79046 11.3478 7.79046C11.8392 7.79046 12.153 8.11148 12.153 8.61496C12.153 8.782 12.1315 8.94508 12.0796 9.17533H10.8927C10.8525 9.50585 11.064 9.64355 11.4107 9.64355C11.6241 9.64355 11.8165 9.59955 12.0305 9.50007L11.9314 10.0667ZM11.5964 8.71597C11.5997 8.6685 11.6596 8.3093 11.3191 8.3093C11.1292 8.3093 10.9934 8.45403 10.9381 8.71597H11.5964ZM7.79884 8.5616C7.79884 8.84982 7.93856 9.04853 8.25549 9.19779C8.49832 9.31191 8.53589 9.34576 8.53589 9.44918C8.53589 9.59124 8.42881 9.65533 8.19152 9.65533C8.01269 9.65533 7.84629 9.62742 7.65435 9.56548C7.65435 9.56548 7.57549 10.0676 7.57189 10.0917C7.7082 10.1214 7.82973 10.1489 8.19589 10.1591C8.82857 10.1591 9.12075 9.91816 9.12075 9.39751C9.12075 9.08444 8.99844 8.90071 8.69807 8.76265C8.44666 8.64727 8.4178 8.62148 8.4178 8.51508C8.4178 8.39188 8.51743 8.32905 8.71127 8.32905C8.82897 8.32905 8.98973 8.3416 9.14204 8.3633L9.22743 7.83483C9.07217 7.81022 8.83678 7.79046 8.69973 7.79046C8.02896 7.79046 7.79678 8.14083 7.79884 8.5616ZM14.8478 7.85034C15.0143 7.85034 15.1696 7.89403 15.3835 8.00173L15.4816 7.39366C15.3938 7.3592 15.0846 7.15674 14.8227 7.15674C14.4214 7.15674 14.0822 7.35582 13.8436 7.68443C13.4956 7.56917 13.3525 7.80212 13.1771 8.03419L13.0214 8.07046C13.0332 7.99406 13.0439 7.91816 13.0403 7.84136H12.4896C12.4144 8.5465 12.281 9.26075 12.1767 9.96675L12.1495 10.1199H12.7493C12.8495 9.4693 12.9043 9.05274 12.9377 8.77087L13.1636 8.6452C13.1973 8.51967 13.3029 8.47727 13.5148 8.48237C13.4863 8.63647 13.4721 8.79284 13.4723 8.94958C13.4723 9.69496 13.8745 10.1591 14.52 10.1591C14.6863 10.1591 14.829 10.1371 15.0499 10.0773L15.1554 9.43853C14.9567 9.53638 14.7935 9.58241 14.6459 9.58241C14.2973 9.58241 14.0864 9.32511 14.0864 8.89982C14.0863 8.2829 14.4001 7.85034 14.8478 7.85034Z" fill="black"/>
<path d="M5.69893 9.95364H5.09921L5.4429 7.80016L4.67598 9.95364H4.2673L4.21677 7.81247L3.85576 9.95364H3.29443L3.7633 7.15234H4.62545L4.6497 8.88656L5.23136 7.15234H6.16266L5.69893 9.95364Z" fill="white"/>
<path d="M19.9235 7.31836L19.7907 8.12784C19.6267 7.91208 19.4505 7.75593 19.218 7.75593C18.9154 7.75593 18.64 7.98528 18.4598 8.32285C18.2087 8.27079 17.9491 8.18245 17.9491 8.18245L17.949 8.18451C17.9692 7.99581 17.9773 7.88067 17.9755 7.84156H17.4247C17.3497 8.5467 17.2164 9.26094 17.1122 9.96694L17.0847 10.1201H17.6845C17.7655 9.59399 17.8275 9.15719 17.8732 8.81079C18.0781 8.62565 18.1806 8.46411 18.3877 8.47488C18.296 8.69661 18.2423 8.95193 18.2423 9.21387C18.2423 9.7835 18.5305 10.1593 18.9664 10.1593C19.1861 10.1593 19.3547 10.0835 19.5192 9.90787L19.4911 10.1197H20.0583L20.515 7.31836H19.9235ZM19.1737 9.5935C18.9696 9.5935 18.8665 9.44245 18.8665 9.14436C18.8665 8.69657 19.0595 8.37897 19.3315 8.37897C19.5375 8.37897 19.6491 8.53602 19.6491 8.82537C19.6491 9.2771 19.4531 9.5935 19.1737 9.5935Z" fill="black"/>
<path d="M7.17509 8.93857C7.11226 8.93131 7.08445 8.92934 7.04137 8.92934C6.70149 8.92934 6.52955 9.04589 6.52955 9.27601C6.52955 9.41767 6.61355 9.50823 6.74432 9.50823C6.98878 9.5082 7.16481 9.27565 7.17509 8.93857ZM7.61137 9.95345H7.11457L7.12586 9.71767C6.97445 9.90395 6.77201 9.99306 6.49752 9.99306C6.17238 9.99306 5.94971 9.73921 5.94971 9.37063C5.94971 8.8158 6.33712 8.49242 7.00251 8.49242C7.07048 8.49242 7.15765 8.49857 7.24675 8.50999C7.26534 8.43485 7.2702 8.4027 7.2702 8.36205C7.2702 8.21104 7.16586 8.15498 6.88571 8.15498C6.59226 8.15165 6.35048 8.22488 6.25097 8.25719C6.25725 8.21947 6.33405 7.74526 6.33405 7.74526C6.63278 7.65732 6.83008 7.62433 7.05161 7.62433C7.56663 7.62433 7.83943 7.85566 7.83894 8.29218C7.83983 8.40971 7.82032 8.55408 7.7902 8.74371C7.73829 9.07371 7.62651 9.78139 7.61137 9.95345ZM15.6538 7.22757L15.5556 7.83578C15.3418 7.72821 15.1864 7.68437 15.02 7.68437C14.5723 7.68437 14.2585 8.11692 14.2585 8.7338C14.2585 9.15906 14.4695 9.41629 14.818 9.41629C14.9656 9.41629 15.1286 9.37038 15.3273 9.27238L15.2221 9.91084C15.001 9.97112 14.8585 9.99306 14.692 9.99306C14.0466 9.99306 13.6444 9.52893 13.6444 8.78356C13.6444 7.78203 14.2 7.08203 14.9948 7.08203C15.2565 7.08206 15.5659 7.19308 15.6538 7.22757ZM16.6213 8.93857C16.5585 8.93131 16.5308 8.92934 16.4876 8.92934C16.1478 8.92934 15.9757 9.04589 15.9757 9.27601C15.9757 9.41767 16.0597 9.50823 16.1906 9.50823C16.4348 9.5082 16.611 9.27565 16.6213 8.93857ZM17.0576 9.95345H16.5606L16.572 9.71767C16.4205 9.90395 16.2182 9.99306 15.9437 9.99306C15.6187 9.99306 15.3959 9.73921 15.3959 9.37063C15.3959 8.8158 15.7834 8.49242 16.4486 8.49242C16.5167 8.49242 16.6037 8.49857 16.6929 8.50999C16.7114 8.43485 16.7164 8.4027 16.7164 8.36205C16.7164 8.21104 16.612 8.15498 16.3319 8.15498C16.0386 8.15165 15.7966 8.22488 15.6972 8.25719C15.7034 8.21947 15.7804 7.74526 15.7804 7.74526C16.0791 7.65732 16.2762 7.62433 16.4978 7.62433C17.0129 7.62433 17.2856 7.85566 17.2849 8.29218C17.286 8.40971 17.2666 8.55408 17.2364 8.74371C17.1846 9.07371 17.0725 9.78139 17.0576 9.95345ZM10.2763 9.91893C10.1121 9.97062 9.98414 9.99306 9.84555 9.99306C9.539 9.99306 9.37171 9.81687 9.37171 9.49257C9.36746 9.39161 9.41592 9.127 9.45401 8.88525C9.48848 8.67214 9.71389 7.3304 9.71389 7.3304H10.3098L10.2403 7.67538H10.5462L10.4648 8.2227H10.1579C10.0886 8.65627 9.98977 9.19558 9.98875 9.26728C9.98875 9.38512 10.0516 9.43598 10.194 9.43598C10.2623 9.43598 10.3152 9.42931 10.3557 9.41469L10.2763 9.91893ZM12.1038 9.90075C11.8992 9.9633 11.7013 9.99346 11.4921 9.99306C10.8249 9.99241 10.4771 9.64395 10.4771 8.97666C10.4771 8.19756 10.9196 7.62437 11.5202 7.62437C12.0116 7.62437 12.3254 7.94526 12.3254 8.44897C12.3254 8.61614 12.3039 8.77922 12.2521 9.00934H11.0652C11.025 9.33983 11.2365 9.47767 11.5832 9.47767C11.7965 9.47767 11.989 9.43355 12.2028 9.3338L12.1038 9.90075ZM11.7686 8.54962C11.7722 8.5023 11.832 8.14295 11.4913 8.14295C11.3016 8.14295 11.1658 8.28808 11.1105 8.54962H11.7686ZM7.97109 8.39565C7.97109 8.6838 8.11085 8.88229 8.42777 9.0318C8.67057 9.14589 8.70814 9.17986 8.70814 9.28318C8.70814 9.42524 8.60097 9.48934 8.36392 9.48934C8.18494 9.48934 8.01854 9.4614 7.82648 9.39949C7.82648 9.39949 7.74789 9.90164 7.74432 9.92564C7.88032 9.95539 8.00198 9.98256 8.36814 9.99306C9.00097 9.99306 9.29303 9.75216 9.29303 9.23165C9.29303 8.91842 9.17085 8.73473 8.87032 8.59667C8.61903 8.48104 8.58995 8.45565 8.58995 8.3491C8.58995 8.22602 8.6898 8.1627 8.88352 8.1627C9.00109 8.1627 9.16186 8.17562 9.31441 8.19732L9.39968 7.6687C9.24457 7.64409 9.00918 7.62437 8.87211 7.62437C8.20121 7.62437 7.96918 7.97449 7.97109 8.39565ZM20.2311 9.95345H19.6638L19.692 9.74136C19.5275 9.91727 19.3589 9.99306 19.1392 9.99306C18.7032 9.99306 18.4152 9.61727 18.4152 9.04768C18.4152 8.28984 18.862 7.65098 19.3908 7.65098C19.6234 7.65098 19.7995 7.746 19.9633 7.96162L20.0964 7.15215H20.6878L20.2311 9.95345ZM19.3466 9.42703C19.6259 9.42703 19.822 9.11063 19.822 8.65925C19.822 8.36987 19.7103 8.21282 19.5043 8.21282C19.2324 8.21282 19.0392 8.53027 19.0392 8.9782C19.0392 9.27623 19.1425 9.42703 19.3466 9.42703ZM17.5976 7.67538C17.5226 8.38051 17.3892 9.09475 17.2849 9.80038L17.2575 9.95345H17.8572C18.0717 8.56039 18.1236 8.28833 18.46 8.32242C18.5136 8.03732 18.6132 7.78756 18.6876 7.66153C18.4364 7.60923 18.2962 7.75116 18.1126 8.02076C18.1271 7.90424 18.1536 7.79104 18.1484 7.67538H17.5976ZM12.6616 7.67538C12.5864 8.38051 12.453 9.09475 12.3488 9.80038L12.3215 9.95345H12.9215C13.1357 8.56039 13.1875 8.28833 13.5236 8.32242C13.5775 8.03732 13.6772 7.78756 13.7513 7.66153C13.5004 7.60923 13.36 7.75116 13.1766 8.02076C13.1911 7.90424 13.2174 7.79104 13.2124 7.67538H12.6616ZM20.4945 9.77512C20.4945 9.67623 20.5744 9.59666 20.6729 9.59666C20.7712 9.59657 20.8511 9.67626 20.8512 9.77466V9.77512C20.8512 9.87358 20.7713 9.95339 20.6729 9.95345C20.5744 9.95339 20.4946 9.87358 20.4945 9.77512ZM20.6729 9.91062C20.7477 9.91066 20.8084 9.85001 20.8084 9.77521V9.77515C20.8084 9.70029 20.7478 9.63958 20.673 9.63952H20.6729C20.598 9.63955 20.5372 9.70026 20.5372 9.77515C20.5373 9.84998 20.598 9.91062 20.6729 9.91062ZM20.6488 9.85309H20.6122V9.69666H20.6785C20.6922 9.69666 20.7064 9.6969 20.7184 9.70447C20.7312 9.71318 20.7385 9.72807 20.7385 9.74367C20.7385 9.76136 20.7281 9.77792 20.7112 9.7842L20.7401 9.85299H20.6995L20.6755 9.79121H20.6488V9.85299V9.85309ZM20.6488 9.76447H20.6689C20.6764 9.76447 20.6847 9.76503 20.6913 9.7614C20.6973 9.75755 20.7004 9.75029 20.7004 9.74333C20.7001 9.73687 20.6968 9.7309 20.6916 9.72721C20.6853 9.72361 20.6749 9.7246 20.6681 9.7246H20.6487V9.76447H20.6488Z" fill="white"/>
</g>
<defs>
<clipPath id="clip0_830_3792">
<rect y="0.807617" width="24" height="15.3846" rx="1" fill="white"/>
</clipPath>
</defs>
</svg>
