<svg width="38" height="24" viewBox="0 0 38 24" fill="none" xmlns="http://www.w3.org/2000/svg">
<path d="M1.94872 0H36.0513C37.1276 0 38 0.859632 38 1.92V22.08C38 23.1404 37.1276 24 36.0513 24H1.94872C0.87249 24 0 23.1404 0 22.08V1.92C0 0.859632 0.87249 0 1.94872 0Z" fill="#2B2A33"/>
<path d="M8.43399 4.92676H3.45943C3.34897 4.92676 3.25943 5.0163 3.25943 5.12676V9.31997C3.25943 9.43042 3.34897 9.51997 3.45943 9.51997H8.43399C8.54445 9.51997 8.63399 9.43042 8.63399 9.31997V5.12676C8.63399 5.0163 8.54445 4.92676 8.43399 4.92676Z" fill="#FFA436"/>
<path d="M4.61515 13.0932V12.9183H4.36586V12.399H4.16135L4.14176 12.9183H3.58428L4.09972 11.7631L3.90645 11.6836L3.33777 12.9343V13.0932H4.13894V13.5383H4.36586V13.0932H4.61515ZM5.56934 11.6836C5.37325 11.6836 5.18554 11.7473 5.02307 11.8956L5.14915 12.0308C5.27801 11.9169 5.39284 11.8612 5.55814 11.8612C5.76261 11.8612 5.92508 11.9698 5.92508 12.1712C5.92508 12.3912 5.74302 12.4919 5.55814 12.4919H5.44326L5.41525 12.6668H5.57772C5.80465 12.6668 5.97833 12.7515 5.97833 13.0138C5.97833 13.2417 5.81863 13.3874 5.54693 13.3874C5.39006 13.3874 5.22759 13.3264 5.11831 13.2046L4.96144 13.3264C5.10711 13.496 5.33681 13.5675 5.55253 13.5675C5.95032 13.5675 6.22202 13.3291 6.22202 13.0137C6.22202 12.7303 6.00912 12.5819 5.78224 12.566C5.98671 12.5288 6.16039 12.3618 6.16039 12.1421C6.16039 11.893 5.93068 11.6836 5.56934 11.6836V11.6836ZM7.24899 11.6836C6.9885 11.6836 6.81482 11.771 6.66072 11.946L6.8232 12.0625C6.94645 11.9273 7.05012 11.8691 7.24061 11.8691C7.45629 11.8691 7.58514 11.9963 7.58514 12.2003C7.58514 12.4997 7.42827 12.6984 6.69994 13.3582V13.5383H7.84569L7.8737 13.3503H6.96609C7.60195 12.8017 7.82888 12.5288 7.82888 12.195C7.82888 11.9036 7.61316 11.6836 7.24899 11.6836V11.6836ZM9.62341 13.3581H9.22002V11.7155H9.0155L8.44404 12.0493L8.54489 12.2056L8.98749 11.9539V13.3582H8.51127V13.5383H9.62341V13.3581V13.3581ZM13.0135 13.0932V12.9183H12.7643V12.399H12.5597L12.5401 12.9183H11.9827L12.4981 11.7631L12.3048 11.6836L11.7362 12.9343V13.0932H12.5373V13.5383H12.7643V13.0932H13.0135V13.0932ZM13.9677 11.6836C13.7716 11.6836 13.5839 11.7473 13.4215 11.8956L13.5475 12.0308C13.6763 11.9169 13.7912 11.8612 13.9565 11.8612C14.161 11.8612 14.3235 11.9698 14.3235 12.1712C14.3235 12.3912 14.1414 12.4919 13.9565 12.4919H13.8416L13.8136 12.6668H13.9761C14.203 12.6668 14.3767 12.7515 14.3767 13.0138C14.3767 13.2417 14.217 13.3874 13.9453 13.3874C13.7884 13.3874 13.6259 13.3264 13.5167 13.2046L13.3598 13.3264C13.5055 13.496 13.7352 13.5675 13.9509 13.5675C14.3487 13.5675 14.6204 13.3291 14.6204 13.0137C14.6204 12.7303 14.4075 12.5819 14.1806 12.566C14.3851 12.5288 14.5588 12.3618 14.5588 12.1421C14.5588 11.893 14.3291 11.6836 13.9677 11.6836V11.6836ZM15.6474 11.6836C15.3868 11.6836 15.2132 11.771 15.0591 11.946L15.2216 12.0625C15.3448 11.9273 15.4485 11.8691 15.639 11.8691C15.8547 11.8691 15.9835 11.9963 15.9835 12.2003C15.9835 12.4997 15.8266 12.6984 15.0983 13.3582V13.5383H16.244L16.272 13.3503H15.3644C16.0003 12.8017 16.2272 12.5288 16.2272 12.195C16.2272 11.9036 16.0115 11.6836 15.6474 11.6836V11.6836ZM18.0217 13.3581H17.6184V11.7155H17.4139L16.8425 12.0493L16.9433 12.2056L17.3859 11.9539V13.3582H16.9098V13.5383H18.0218L18.0217 13.3581V13.3581ZM21.4119 13.0932V12.9183H21.1625V12.399H20.9581L20.9385 12.9183H20.3811L20.8965 11.7631L20.7031 11.6836L20.1345 12.9343V13.0932H20.9357V13.5383H21.1625V13.0932H21.4119V13.0932ZM22.366 11.6836C22.17 11.6836 21.9823 11.7473 21.8197 11.8956L21.9458 12.0308C22.0747 11.9169 22.1895 11.8612 22.3549 11.8612C22.5592 11.8612 22.7218 11.9698 22.7218 12.1712C22.7218 12.3912 22.5398 12.4919 22.3549 12.4919H22.24L22.212 12.6668H22.3745C22.6014 12.6668 22.7752 12.7515 22.7752 13.0138C22.7752 13.2417 22.6155 13.3874 22.3438 13.3874C22.1868 13.3874 22.0244 13.3264 21.9151 13.2046L21.7583 13.3264C21.9038 13.496 22.1335 13.5675 22.3494 13.5675C22.7471 13.5675 23.0188 13.3291 23.0188 13.0137C23.0188 12.7303 22.8059 12.5819 22.5791 12.566C22.7835 12.5288 22.9573 12.3618 22.9573 12.1421C22.9571 11.893 22.7274 11.6836 22.366 11.6836V11.6836ZM24.0458 11.6836C23.7852 11.6836 23.6116 11.771 23.4574 11.946L23.62 12.0625C23.7432 11.9273 23.8469 11.8691 24.0373 11.8691C24.253 11.8691 24.3818 11.9963 24.3818 12.2003C24.3818 12.4997 24.225 12.6984 23.4966 13.3582V13.5383H24.6424L24.6704 13.3503H23.7628C24.3987 12.8017 24.6256 12.5288 24.6256 12.195C24.6256 11.9035 24.4099 11.6836 24.0457 11.6836H24.0458V11.6836ZM26.4201 13.3581H26.0167V11.7155H25.8123L25.2409 12.0493L25.3417 12.2056L25.7843 11.9539V13.3582H25.308V13.5383H26.4202L26.4201 13.3581V13.3581ZM29.8103 13.0932V12.9183H29.561V12.399H29.3565L29.337 12.9183H28.7795L29.2949 11.7631L29.1017 11.6836L28.533 12.9343V13.0932H29.3342V13.5383H29.561V13.0932H29.8103V13.0932ZM30.7644 11.6836C30.5684 11.6836 30.3806 11.7473 30.2182 11.8956L30.3443 12.0308C30.4732 11.9169 30.588 11.8612 30.7533 11.8612C30.9577 11.8612 31.1202 11.9698 31.1202 12.1712C31.1202 12.3912 30.9382 12.4919 30.7533 12.4919H30.6385L30.6105 12.6668H30.7729C30.9999 12.6668 31.1736 12.7515 31.1736 13.0138C31.1736 13.2417 31.0139 13.3874 30.7422 13.3874C30.5854 13.3874 30.4228 13.3264 30.3136 13.2046L30.1567 13.3264C30.3024 13.496 30.5321 13.5675 30.7478 13.5675C31.1456 13.5675 31.4173 13.3291 31.4173 13.0137C31.4173 12.7303 31.2044 12.5819 30.9775 12.566C31.182 12.5288 31.3557 12.3618 31.3557 12.1421C31.3557 11.893 31.126 11.6836 30.7647 11.6836H30.7644V11.6836ZM32.4441 11.6836C32.1836 11.6836 32.0099 11.771 31.8558 11.946L32.0183 12.0625C32.1416 11.9273 32.2452 11.8691 32.4356 11.8691C32.6514 11.8691 32.7802 11.9963 32.7802 12.2003C32.7802 12.4997 32.6232 12.6984 31.895 13.3582V13.5383H33.0408L33.0688 13.3503H32.1611C32.7971 12.8017 33.0239 12.5288 33.0239 12.195C33.024 11.9036 32.8082 11.6836 32.4441 11.6836V11.6836ZM34.8185 13.3581H34.4152V11.7155H34.2106L33.6392 12.0493L33.74 12.2056L34.1826 11.9539V13.3582H33.7064V13.5383H34.8185V13.3581V13.3581Z" fill="white"/>
<path d="M3.51798 17.9346H3.83197V16.9095L3.49036 16.9743V16.8087L3.83007 16.7439H4.02226V17.9346H4.33629V18.0876H3.51798V17.9346V17.9346ZM4.75873 17.9346H5.07276V16.9095L4.73115 16.9743V16.8087L5.07086 16.7439H5.26306V17.9346H5.57704V18.0876H4.75873V17.9346V17.9346ZM6.75217 17.9346H7.42301V18.0876H6.52095V17.9346C6.59388 17.8632 6.69317 17.7675 6.81882 17.6476C6.94504 17.527 7.02431 17.4492 7.05666 17.4143C7.11819 17.3489 7.16101 17.2937 7.18513 17.2487C7.20987 17.2032 7.22225 17.1585 7.22225 17.1146C7.22225 17.0433 7.1956 16.9851 7.14235 16.94C7.08969 16.895 7.0208 16.8725 6.93579 16.8725C6.87552 16.8725 6.8118 16.8824 6.74457 16.9023C6.67797 16.9221 6.60665 16.9521 6.5305 16.9923V16.8086C6.60787 16.7793 6.68016 16.7571 6.74744 16.7421C6.81467 16.7271 6.8762 16.7197 6.93204 16.7197C7.07921 16.7197 7.19652 16.7545 7.28407 16.8241C7.37162 16.8937 7.41541 16.9867 7.41541 17.1031C7.41541 17.1583 7.40431 17.2108 7.38209 17.2606C7.36056 17.3098 7.3209 17.368 7.26317 17.4352C7.24729 17.4525 7.19687 17.503 7.11185 17.5864C7.02684 17.6691 6.90695 17.7852 6.75217 17.9346V17.9346ZM8.40975 17.3631C8.50173 17.3817 8.57339 17.4204 8.62479 17.4793C8.67677 17.538 8.70279 17.6107 8.70279 17.6971C8.70279 17.8297 8.65456 17.9323 8.55819 18.005C8.46178 18.0775 8.32474 18.1138 8.14711 18.1138C8.08748 18.1138 8.02595 18.108 7.96252 18.0967C7.89972 18.0859 7.83473 18.0693 7.76745 18.0472V17.8717C7.8207 17.9011 7.87911 17.9232 7.94254 17.9383C8.00597 17.9532 8.07228 17.9608 8.14141 17.9608C8.26194 17.9608 8.35362 17.9383 8.41642 17.8932C8.47985 17.8481 8.51157 17.7828 8.51157 17.6969C8.51157 17.6177 8.48209 17.5559 8.42305 17.5117C8.36468 17.4665 8.28313 17.4442 8.17848 17.4442H8.01294V17.2948H8.18613C8.28065 17.2948 8.35299 17.277 8.40307 17.2417C8.4532 17.2057 8.47825 17.1541 8.47825 17.0869C8.47825 17.018 8.45223 16.965 8.40025 16.9285C8.34885 16.8912 8.27494 16.8727 8.17853 16.8727C8.12587 16.8727 8.0694 16.8781 8.00914 16.889C7.94888 16.8997 7.88262 16.9165 7.81027 16.9393V16.7774C7.88325 16.7581 7.95141 16.7437 8.01489 16.7341C8.0789 16.7246 8.13917 16.7198 8.19563 16.7198C8.34154 16.7198 8.457 16.7512 8.54202 16.8142C8.62703 16.8766 8.66951 16.9611 8.66951 17.068C8.66951 17.1424 8.647 17.2053 8.60194 17.257C8.55688 17.3079 8.49281 17.3433 8.40975 17.3631V17.3631ZM9.69049 16.7439H10.445V16.8969H9.86656V17.2262C9.89448 17.2173 9.92239 17.2106 9.95031 17.2064C9.97822 17.2016 10.0061 17.1992 10.0341 17.1992C10.1926 17.1992 10.3182 17.2404 10.4108 17.3225C10.5034 17.4047 10.5498 17.516 10.5498 17.6564C10.5498 17.8011 10.5022 17.9135 10.407 17.9939C10.3118 18.0737 10.1777 18.1137 10.0045 18.1137C9.9449 18.1137 9.884 18.1089 9.82184 18.0993C9.76031 18.0897 9.69658 18.0753 9.63057 18.0561V17.8733C9.68767 17.9028 9.74667 17.9246 9.80756 17.9391C9.86846 17.9535 9.93287 17.9607 10.0007 17.9607C10.1105 17.9607 10.1974 17.9333 10.2615 17.8788C10.3255 17.8243 10.3575 17.7501 10.3575 17.6565C10.3575 17.5629 10.3255 17.4888 10.2615 17.4342C10.1974 17.3796 10.1105 17.3524 10.0007 17.3524C9.94933 17.3524 9.89798 17.3578 9.84659 17.3686C9.79587 17.3794 9.74384 17.3963 9.69054 17.4189L9.69049 16.7439V16.7439ZM11.3404 17.4495C11.2491 17.4495 11.1771 17.4726 11.1244 17.5189C11.0724 17.5651 11.0464 17.6287 11.0464 17.7097C11.0464 17.7907 11.0724 17.8543 11.1244 17.9004C11.1771 17.9467 11.2491 17.9698 11.3404 17.9698C11.4318 17.9698 11.5038 17.9467 11.5564 17.9005C11.6091 17.8537 11.6354 17.7901 11.6354 17.7097C11.6354 17.6287 11.6091 17.5651 11.5564 17.5189C11.5044 17.4726 11.4324 17.4495 11.3404 17.4495V17.4495ZM11.1482 17.3721C11.0658 17.3529 11.0013 17.3166 10.9551 17.2632C10.9094 17.2098 10.8866 17.1448 10.8866 17.068C10.8866 16.9605 10.9269 16.8757 11.0074 16.8133C11.0886 16.7509 11.1996 16.7198 11.3404 16.7198C11.4819 16.7198 11.5929 16.751 11.6735 16.8132C11.754 16.8757 11.7943 16.9605 11.7943 17.068C11.7943 17.1448 11.7711 17.2098 11.7249 17.2632C11.6792 17.3166 11.6154 17.3529 11.5336 17.3721C11.6262 17.3925 11.6982 17.4325 11.7496 17.4918C11.8016 17.5512 11.8276 17.6238 11.8276 17.7097C11.8276 17.8398 11.7854 17.9397 11.701 18.0094C11.6173 18.079 11.4971 18.1138 11.3404 18.1138C11.1837 18.1138 11.0632 18.079 10.9788 18.0094C10.8951 17.9397 10.8532 17.8398 10.8532 17.7097C10.8532 17.6239 10.8793 17.5512 10.9313 17.4918C10.9833 17.4324 11.0556 17.3925 11.1482 17.3721ZM11.0778 17.0851C11.0778 17.1547 11.1006 17.209 11.1463 17.2479C11.1926 17.287 11.2573 17.3065 11.3404 17.3065C11.4229 17.3065 11.4873 17.2869 11.5336 17.2479C11.5805 17.2088 11.604 17.1547 11.604 17.085C11.604 17.0154 11.5806 16.9611 11.5336 16.9221C11.4873 16.8831 11.4229 16.8635 11.3404 16.8635C11.2573 16.8635 11.1926 16.8832 11.1463 16.9221C11.1006 16.9611 11.0778 17.0154 11.0778 17.0851V17.0851Z" fill="white" fill-opacity="0.784"/>
<path d="M15.8548 17.8898H16.1688V16.8647L15.8271 16.9295V16.7639L16.1669 16.6991H16.3591V17.8898H16.673V18.0428H15.8547L15.8548 17.8898V17.8898ZM17.6446 17.3182C17.7366 17.3368 17.8083 17.3755 17.8597 17.4344C17.9117 17.4931 17.9378 17.5658 17.9378 17.6522C17.9378 17.7848 17.8896 17.8874 17.7931 17.96C17.6967 18.0326 17.5597 18.0689 17.382 18.0689C17.3224 18.0689 17.2609 18.0632 17.1974 18.0518C17.1346 18.0411 17.0697 18.0245 17.0024 18.0023V17.8268C17.0557 17.8562 17.114 17.8785 17.1775 17.8934C17.241 17.9084 17.3072 17.9159 17.3764 17.9159C17.4969 17.9159 17.5885 17.8934 17.6514 17.8484C17.7148 17.8033 17.7465 17.738 17.7465 17.6522C17.7465 17.5729 17.7171 17.5111 17.6581 17.4668C17.5998 17.4218 17.5182 17.3993 17.4135 17.3993H17.248V17.2499H17.4212C17.5157 17.2499 17.5881 17.2321 17.6381 17.1968C17.6882 17.1608 17.7133 17.1092 17.7133 17.042C17.7133 16.9731 17.6873 16.9202 17.6352 16.8836C17.5838 16.8464 17.51 16.8279 17.4136 16.8279C17.3609 16.8279 17.3044 16.8332 17.2441 16.844C17.1838 16.8548 17.1175 16.8717 17.0452 16.8945V16.7324C17.1182 16.7132 17.1863 16.6988 17.2498 16.6892C17.3138 16.6796 17.3741 16.6748 17.4305 16.6748C17.5765 16.6748 17.6919 16.7064 17.7769 16.7694C17.8619 16.8318 17.9043 16.9164 17.9043 17.0232C17.9043 17.0975 17.8818 17.1605 17.8368 17.2122C17.7918 17.2631 17.7277 17.2985 17.6446 17.3182V17.3182ZM18.4687 17.8898H19.1396V18.0428H18.2374V17.8898C18.3104 17.8183 18.4097 17.7227 18.5353 17.6027C18.6615 17.4821 18.7408 17.4043 18.7732 17.3696C18.8348 17.3042 18.8776 17.249 18.9016 17.204C18.9264 17.1584 18.9388 17.1136 18.9388 17.0699C18.9388 16.9985 18.9121 16.9403 18.8589 16.8953C18.8062 16.8503 18.7374 16.8278 18.6524 16.8278C18.5921 16.8278 18.5284 16.8377 18.4611 16.8575C18.3945 16.8773 18.3232 16.9073 18.2469 16.9475V16.7639C18.3243 16.7345 18.3966 16.7124 18.4639 16.6973C18.5311 16.6823 18.5927 16.6749 18.6485 16.6749C18.7956 16.6749 18.913 16.7097 19.0005 16.7794C19.0881 16.8489 19.1318 16.9419 19.1318 17.0584C19.1318 17.1134 19.1208 17.166 19.0985 17.2159C19.077 17.265 19.0373 17.3232 18.9796 17.3905C18.9638 17.4078 18.9133 17.4583 18.8284 17.5416C18.7433 17.6243 18.6235 17.7404 18.4687 17.8898V17.8898ZM19.5772 17.8898H19.8912V16.8647L19.5495 16.9295V16.7639L19.8893 16.6991H20.0814V17.8898H20.3954V18.0428H19.5771L19.5772 17.8898ZM21.9873 17.3182C22.0794 17.3368 22.1509 17.3755 22.2024 17.4344C22.2544 17.4931 22.2805 17.5658 22.2805 17.6522C22.2805 17.7848 22.2323 17.8874 22.1358 17.96C22.0394 18.0326 21.9024 18.0689 21.7247 18.0689C21.6651 18.0689 21.6036 18.0632 21.5402 18.0518C21.4774 18.0411 21.4124 18.0245 21.345 18.0023V17.8268C21.3984 17.8562 21.4568 17.8785 21.5202 17.8934C21.5837 17.9084 21.65 17.9159 21.719 17.9159C21.8396 17.9159 21.9312 17.8934 21.9941 17.8484C22.0575 17.8033 22.0892 17.738 22.0892 17.6522C22.0892 17.5729 22.0597 17.5111 22.0008 17.4668C21.9425 17.4218 21.8609 17.3993 21.7562 17.3993H21.5908V17.2499H21.7639C21.8584 17.2499 21.9307 17.2321 21.9809 17.1968C22.0309 17.1608 22.056 17.1092 22.056 17.042C22.056 16.9731 22.0301 16.9202 21.9779 16.8836C21.9265 16.8464 21.8528 16.8279 21.7562 16.8279C21.7036 16.8279 21.6472 16.8332 21.5868 16.844C21.5266 16.8548 21.4602 16.8717 21.388 16.8945V16.7324C21.4609 16.7132 21.5291 16.6988 21.5926 16.6892C21.6566 16.6796 21.7169 16.6748 21.7733 16.6748C21.9192 16.6748 22.0346 16.7064 22.1196 16.7694C22.2047 16.8318 22.2471 16.9164 22.2471 17.0232C22.2471 17.0975 22.2246 17.1605 22.1795 17.2122C22.1346 17.2631 22.0705 17.2985 21.9873 17.3182V17.3182ZM23.1739 16.8574L22.6887 17.5748H23.1739V16.8574ZM23.1234 16.6991H23.3651V17.5748H23.5677V17.726H23.3651V18.0428H23.1739V17.726H22.5325V17.5504L23.1235 16.699H23.1234V16.6991V16.6991ZM23.8886 16.6991H24.6431V16.8521H24.0645V17.1814C24.0925 17.1724 24.1204 17.1658 24.1484 17.1616C24.1762 17.1568 24.2042 17.1544 24.2321 17.1544C24.3907 17.1544 24.5163 17.1956 24.6089 17.2777C24.7015 17.36 24.7478 17.4712 24.7478 17.6116C24.7478 17.7563 24.7001 17.8687 24.605 17.9491C24.5099 18.0288 24.3757 18.0688 24.2025 18.0688C24.1429 18.0688 24.082 18.064 24.0198 18.0545C23.9583 18.0449 23.8946 18.0305 23.8285 18.0112V17.8285C23.8856 17.858 23.9446 17.8798 24.0055 17.8942C24.0664 17.9087 24.1308 17.9158 24.1988 17.9158C24.3085 17.9158 24.3954 17.8886 24.4595 17.834C24.5235 17.7794 24.5556 17.7053 24.5556 17.6117C24.5556 17.5182 24.5236 17.444 24.4595 17.3895C24.3955 17.3348 24.3085 17.3076 24.1988 17.3076C24.1474 17.3076 24.0961 17.313 24.0446 17.3238C23.9938 17.3346 23.9419 17.3514 23.8886 17.3742V16.6991V16.6991ZM25.1293 16.6991H25.8838V16.8521H25.3052V17.1814C25.3331 17.1724 25.3611 17.1658 25.389 17.1616C25.4168 17.1568 25.4448 17.1544 25.4728 17.1544C25.6314 17.1544 25.7569 17.1956 25.8495 17.2777C25.9421 17.36 25.9885 17.4712 25.9885 17.6116C25.9885 17.7563 25.9408 17.8687 25.8457 17.9491C25.7506 18.0288 25.6164 18.0688 25.4432 18.0688C25.3835 18.0688 25.3226 18.064 25.2605 18.0545C25.1989 18.0449 25.1352 18.0305 25.0692 18.0112V17.8285C25.1263 17.858 25.1853 17.8798 25.2462 17.8942C25.3071 17.9087 25.3715 17.9158 25.4394 17.9158C25.5491 17.9158 25.6361 17.8886 25.7002 17.834C25.7641 17.7794 25.7963 17.7053 25.7963 17.6117C25.7963 17.5182 25.7642 17.444 25.7002 17.3895C25.6361 17.3348 25.5491 17.3076 25.4394 17.3076C25.388 17.3076 25.3367 17.313 25.2852 17.3238C25.2344 17.3346 25.1826 17.3514 25.1293 17.3742V16.6991V16.6991Z" fill="white" fill-opacity="0.784"/>
</svg>
