<svg width="24" height="24" viewBox="0 0 24 24" fill="none" xmlns="http://www.w3.org/2000/svg">
<path d="M8.33395 20.3902L8.6459 18.4087L7.95101 18.3926H4.63281L6.93879 3.77119C6.94565 3.72651 6.96834 3.68579 7.00272 3.65645C7.0371 3.6271 7.08088 3.61109 7.12608 3.61133H12.721C14.5785 3.61133 15.8603 3.99785 16.5295 4.76074C16.8433 5.11863 17.0431 5.49262 17.1397 5.90419C17.2411 6.33603 17.2429 6.85199 17.1439 7.48127L17.1367 7.5272V7.93042L17.4505 8.10816C17.69 8.22951 17.9053 8.39366 18.0857 8.5925C18.3541 8.8985 18.5277 9.2874 18.6011 9.74847C18.6768 10.2227 18.6518 10.7869 18.5277 11.4258C18.3846 12.1606 18.1531 12.8006 17.8406 13.3243C17.5648 13.7935 17.194 14.1998 16.752 14.5173C16.3369 14.812 15.8436 15.0356 15.2859 15.1788C14.7455 15.3196 14.1293 15.3905 13.4535 15.3905H13.0181C12.7067 15.3905 12.4043 15.5027 12.1669 15.7037C11.9298 15.9068 11.7726 16.1876 11.7231 16.4958L11.6903 16.6742L11.1392 20.1665L11.1141 20.2948C11.1076 20.3353 11.0962 20.3556 11.0795 20.3693C11.0633 20.3826 11.0432 20.3899 11.0223 20.3902H8.33395Z" fill="#253B80"/>
<path d="M17.7478 7.57324C17.7311 7.68001 17.712 7.78917 17.6905 7.9013C16.9527 11.6895 14.4284 12.9982 11.2044 12.9982H9.56294C9.16867 12.9982 8.83643 13.2845 8.77499 13.6734L7.93456 19.0035L7.69656 20.5144C7.68708 20.5743 7.6907 20.6356 7.70717 20.694C7.72364 20.7524 7.75258 20.8065 7.79197 20.8527C7.83137 20.8988 7.8803 20.9359 7.9354 20.9613C7.99049 20.9867 8.05044 20.9999 8.11111 20.9999H11.0225C11.3673 20.9999 11.6601 20.7494 11.7144 20.4094L11.7431 20.2615L12.2912 16.7828L12.3264 16.592C12.3801 16.2508 12.6736 16.0003 13.0183 16.0003H13.4537C16.2745 16.0003 18.4826 14.855 19.128 11.541C19.3976 10.1566 19.2581 9.00061 18.5447 8.18761C18.3186 7.93612 18.0485 7.72793 17.7478 7.57324Z" fill="#179BD7"/>
<path d="M16.9754 7.26554C16.7398 7.19738 16.5001 7.14419 16.2578 7.10628C15.779 7.0327 15.2951 6.99739 14.8108 7.0007H10.4255C10.2586 7.00057 10.0971 7.06015 9.97035 7.16867C9.84356 7.27719 9.75978 7.42749 9.73414 7.59241L8.80126 13.5011L8.77441 13.6735C8.80348 13.4854 8.8989 13.3139 9.04343 13.1901C9.18795 13.0662 9.37203 12.9982 9.56236 12.9983H11.2039C14.4278 12.9983 16.9521 11.689 17.6899 7.90138C17.712 7.78924 17.7305 7.68009 17.7472 7.57332C17.5525 7.47122 17.3496 7.38562 17.1406 7.31743C17.0858 7.29925 17.0307 7.28195 16.9754 7.26554Z" fill="#222D65"/>
<path d="M9.73447 7.59227C9.75988 7.42731 9.84362 7.27694 9.97047 7.16848C10.0973 7.06001 10.2589 7.00064 10.4258 7.00116H14.8111C15.3306 7.00116 15.8155 7.03516 16.2581 7.10674C16.5576 7.15381 16.853 7.22421 17.1415 7.31729C17.3592 7.38947 17.5614 7.47476 17.7481 7.57318C17.9676 6.17325 17.7463 5.22008 16.9894 4.35698C16.1549 3.4068 14.6488 3 12.7216 3H7.12667C6.733 3 6.39718 3.28631 6.33634 3.67581L4.00591 18.4475C3.99506 18.5161 3.99919 18.5862 4.01802 18.6531C4.03685 18.7199 4.06993 18.7819 4.11499 18.8347C4.16005 18.8875 4.21603 18.93 4.27905 18.9591C4.34208 18.9882 4.41067 19.0034 4.48011 19.0035H7.9343L8.80158 13.501L9.73447 7.59227Z" fill="#253B80"/>
</svg>
