<svg width="40" height="40" viewBox="0 0 40 40" fill="none" xmlns="http://www.w3.org/2000/svg">
<rect x="21.5" y="2.5" width="16" height="16" rx="8" fill="#FF4F5E"/>
<path fill-rule="evenodd" clip-rule="evenodd" d="M19.2472 12.7752H13.9034C15.1621 8.6 17.4469 5.75 20 5.75C20.0441 5.75 20.0881 5.75085 20.132 5.75254C21.0375 3.96943 22.437 2.47952 24.1504 1.46304C22.7986 1.15912 21.4074 1.00158 20 1C16.2422 1 12.5687 2.11433 9.44417 4.20208C6.31964 6.28982 3.88436 9.25722 2.4463 12.729C1.00823 16.2008 0.631969 20.0211 1.36509 23.7067C2.09821 27.3923 3.90778 30.7778 6.56498 33.435C9.22218 36.0922 12.6077 37.9018 16.2933 38.6349C19.9789 39.368 23.7992 38.9918 27.271 37.5537C30.7428 36.1156 33.7102 33.6804 35.7979 30.5558C37.8857 27.4313 39 23.7578 39 20C38.9984 18.5926 38.8409 17.2014 38.537 15.8496C37.5208 17.5625 36.0315 18.9617 34.2491 19.8671C34.2496 19.9114 34.2499 19.9557 34.25 20C34.2467 21.5837 33.9777 23.1556 33.4544 24.6502H29.1295C29.3236 23.4418 29.4417 22.2226 29.4832 21C28.6687 20.9987 27.8759 20.9047 27.1149 20.7279C27.0785 22.0433 26.9438 23.3544 26.7118 24.6502H13.2883C12.7363 21.5746 12.7363 18.4253 13.2883 15.3497H20.1847C19.7658 14.5469 19.4478 13.6831 19.2472 12.7752ZM13.9034 27.2247C15.1621 31.4 17.4469 34.25 20 34.25C22.5531 34.25 24.8379 31.4 26.099 27.2247H13.9034ZM6.54563 15.3497C6.02228 16.8444 5.75335 18.4163 5.75001 20C5.75335 21.5837 6.02228 23.1556 6.54563 24.6502H10.8705C10.3763 21.5698 10.3763 18.4302 10.8705 15.3497H6.54563ZM11.4239 12.7752C11.9303 10.7664 12.7743 8.85829 13.92 7.13225C11.3433 8.35563 9.19065 10.3206 7.73788 12.7752H11.4239ZM11.4239 27.2247H7.74501H7.73788C9.19065 29.6794 11.3433 31.6444 13.92 32.8677C12.7743 31.1417 11.9303 29.2335 11.4239 27.2247ZM26.0904 32.8628C28.6651 31.6402 30.8165 29.6772 32.2693 27.2247H28.5833C28.0773 29.2316 27.2344 31.1381 26.0904 32.8628Z" fill="url(#paint0_radial_10_3080)"/>
<path fill-rule="evenodd" clip-rule="evenodd" d="M32.8597 7.154C32.6644 6.95881 32.3479 6.95881 32.1527 7.154L31.8842 7.4225C31.8378 7.4058 31.7901 7.39293 31.7417 7.384L29.5062 7L27.2697 7.384C26.8274 7.46139 26.505 7.84599 26.5062 8.295C26.5062 8.8075 26.5062 9.7285 26.5462 10.148C26.5772 10.8694 26.7611 11.576 27.0857 12.221L26.1527 13.154C26.0227 13.2795 25.9706 13.4654 26.0163 13.6403C26.0621 13.8151 26.1986 13.9516 26.3734 13.9973C26.5482 14.0431 26.7341 13.991 26.8597 13.861L32.8597 7.861C33.0548 7.66575 33.0548 7.34925 32.8597 7.154ZM30.7626 12.1985C30.4554 12.61 30.0086 12.8953 29.5061 13.001C29.2557 12.9477 29.0169 12.8499 28.8011 12.712L28.0831 13.4305C28.4859 13.7292 28.9549 13.9261 29.4501 14.0045L29.5061 14.0105L29.5621 14.0045C30.3631 13.876 31.0825 13.4407 31.5681 12.791C32.1329 12.0236 32.4472 11.1006 32.4681 10.148C32.4896 9.889 32.4996 9.4375 32.5061 9.0075L31.5061 10.0075C31.493 10.7975 31.233 11.5636 30.7626 12.1985ZM27.4995 9.1747C27.4946 9.55832 27.4909 9.84009 27.5061 10.0075C27.5357 10.5109 27.645 11.0064 27.8301 11.4755L31.0301 8.2755L29.5061 8.014L27.5061 8.3575C27.5061 8.66623 27.5026 8.93959 27.4995 9.1747Z" fill="white"/>
<defs>
<radialGradient id="paint0_radial_10_3080" cx="0" cy="0" r="1" gradientUnits="userSpaceOnUse" gradientTransform="translate(39 1) rotate(135) scale(53.7401)">
<stop stop-color="#9D62FC"/>
<stop offset="1" stop-color="#FD3296"/>
</radialGradient>
</defs>
</svg>
