<svg width="80" height="80" viewBox="0 0 80 80" fill="none" xmlns="http://www.w3.org/2000/svg">
<path d="M60.9373 59C53.0383 59 47.576 49.5012 40 49.5012C32.424 49.5012 26.4915 59 19.0627 59C9.31602 59 2.12001 49.7672 2.00126 33.9564C1.93001 24.1346 4.85117 21.0048 17.5095 21.0048C30.1678 21.0048 33.868 26.1816 40 26.1816C46.132 26.1816 49.8369 21 62.4905 21C75.1441 21 78.07 24.1346 77.9987 33.9516C77.88 49.7672 70.684 59 60.9373 59ZM23.7175 33.092C16.0275 33.4244 12.8594 38.0076 12.8594 39.138C12.8594 40.2683 17.956 43.4552 22.9386 43.4552C27.9212 43.4552 33.7967 41.6314 33.7967 40.0024C33.2896 37.7965 31.9719 35.8617 30.1049 34.5817C28.238 33.3017 25.9582 32.77 23.7175 33.092ZM56.2872 33.092C54.0458 32.7687 51.7648 33.2998 49.8969 34.5799C48.0289 35.86 46.7105 37.7955 46.2033 40.0024C46.2033 41.6314 52.0741 43.4552 57.0614 43.4552C62.0488 43.4552 67.1406 40.2683 67.1406 39.138C67.1406 38.0076 63.9725 33.4244 56.2825 33.092H56.2872Z" fill="url(#paint0_radial_1407_946)"/>
<defs>
<radialGradient id="paint0_radial_1407_946" cx="0" cy="0" r="1" gradientUnits="userSpaceOnUse" gradientTransform="translate(78 21) rotate(-26.5651) scale(84.9706 67.9765)">
<stop stop-color="#B833E1"/>
<stop offset="0.371" stop-color="#9059FF"/>
<stop offset="0.614" stop-color="#5B6DF8"/>
<stop offset="1" stop-color="#0090ED"/>
</radialGradient>
</defs>
</svg>
