<svg width="76" height="76" viewBox="0 0 76 76" fill="none" xmlns="http://www.w3.org/2000/svg">
<path fill-rule="evenodd" clip-rule="evenodd" d="M36.4944 23.5505H25.8068C28.3243 15.2 32.8938 9.5 38 9.5C38.0882 9.5 38.1762 9.5017 38.264 9.50508C40.0749 5.93887 42.874 2.95904 46.3009 0.926078C43.5972 0.318245 40.8148 0.00316135 38 0C30.4843 0 23.1374 2.22866 16.8883 6.40415C10.6393 10.5796 5.76872 16.5144 2.89259 23.458C0.0164647 30.4016 -0.736062 38.0421 0.730176 45.4134C2.19641 52.7847 5.81556 59.5557 11.13 64.87C16.4444 70.1844 23.2153 73.8036 30.5866 75.2698C37.9579 76.7361 45.5984 75.9835 52.542 73.1074C59.4856 70.2313 65.4204 65.3607 69.5958 59.1117C73.7713 52.8626 76 45.5157 76 38C75.9968 35.1852 75.6818 32.4028 75.0739 29.6991C73.0416 33.1249 70.063 35.9234 66.4982 37.7343C66.4992 37.8228 66.4998 37.9114 66.5 38C66.4933 41.1673 65.9555 44.3111 64.9088 47.3005H56.259C56.6472 44.8835 56.8834 42.4452 56.9663 40C55.3373 39.9974 53.7518 39.8094 52.2298 39.4559C52.157 42.0865 51.8876 44.7087 51.4235 47.3005H24.5765C23.4725 41.1493 23.4725 34.8507 24.5765 28.6995H38.3694C37.5317 27.0938 36.8955 25.3663 36.4944 23.5505ZM25.8068 52.4495C28.3243 60.8 32.8938 66.5 38 66.5C43.1063 66.5 47.6758 60.8 50.198 52.4495H25.8068ZM11.0913 28.6995C10.0446 31.6889 9.50669 34.8327 9.50002 38C9.50669 41.1673 10.0446 44.3111 11.0913 47.3005H19.741C18.7526 41.1395 18.7526 34.8604 19.741 28.6995H11.0913ZM20.8478 23.5505C21.8606 19.5329 23.5487 15.7166 25.84 12.2645C20.6866 14.7113 16.3813 18.6411 13.4758 23.5505H20.8478ZM20.8478 52.4495H13.49H13.4758C16.3813 57.3588 20.6866 61.2887 25.84 63.7355C23.5487 60.2834 21.8606 56.4671 20.8478 52.4495ZM50.1808 63.7256C55.3302 61.2805 59.6331 57.3544 62.5385 52.4495H55.1665C54.1547 56.4633 52.4688 60.2761 50.1808 63.7256Z" fill="url(#paint0_radial_3202_1681)"/>
<defs>
<radialGradient id="paint0_radial_3202_1681" cx="0" cy="0" r="1" gradientUnits="userSpaceOnUse" gradientTransform="translate(76) rotate(135) scale(107.48)">
<stop stop-color="#9D62FC"/>
<stop offset="1" stop-color="#FD3296"/>
</radialGradient>
</defs>
</svg>
