<svg width="80" height="80" viewBox="0 0 80 80" fill="none" xmlns="http://www.w3.org/2000/svg">
<path d="M69.1471 35.1173H68.7055C68.27 32.6844 67.523 30.3178 66.4829 28.0758L58.9172 35.6414C59.6797 38.8438 59.6094 42.1882 58.7128 45.3557C57.8163 48.5232 56.1235 51.4083 53.7957 53.7361C51.468 56.0639 48.5828 57.7567 45.4153 58.6532C42.2478 59.5497 38.9035 59.6201 35.701 58.8576L28.1305 66.4281C30.3739 67.469 32.7423 68.2161 35.1769 68.6507V69.0875C35.1769 70.3745 35.6882 71.6089 36.5983 72.519C37.5084 73.4291 38.7428 73.9404 40.0298 73.9404C41.3169 73.9404 42.5512 73.4291 43.4613 72.519C44.3714 71.6089 44.8827 70.3745 44.8827 69.0875V68.6507C50.8336 67.6384 56.3228 64.8016 60.5907 60.5327C64.8587 56.2639 67.6944 50.7742 68.7055 44.8231H69.1471C70.4342 44.8231 71.6685 44.3118 72.5786 43.4017C73.4887 42.4916 74 41.2572 74 39.9702C74 38.6831 73.4887 37.4488 72.5786 36.5387C71.6685 35.6286 70.4342 35.1173 69.1471 35.1173ZM72.5781 7.42189C71.6681 6.51212 70.4339 6.00104 69.1471 6.00104C67.8603 6.00104 66.6262 6.51212 65.7161 7.42189L56.8548 16.2833C53.294 13.733 49.2002 12.0255 44.8827 11.2896V10.8529C44.8827 9.56582 44.3714 8.33147 43.4613 7.42138C42.5512 6.51128 41.3169 6 40.0298 6C38.7428 6 37.5084 6.51128 36.5983 7.42138C35.6882 8.33147 35.1769 9.56582 35.1769 10.8529V11.2896C29.226 12.302 23.7368 15.1388 19.4689 19.4076C15.201 23.6764 12.3653 29.1662 11.3541 35.1173H10.9125C9.62545 35.1173 8.3911 35.6286 7.48101 36.5387C6.57092 37.4488 6.05963 38.6831 6.05963 39.9702C6.05963 41.2572 6.57092 42.4916 7.48101 43.4017C8.3911 44.3118 9.62545 44.8231 10.9125 44.8231H11.3541C12.0913 49.1402 13.7987 53.2337 16.3477 56.7951L7.48153 65.6565C7.01803 66.1042 6.64832 66.6396 6.39399 67.2317C6.13966 67.8238 6.00578 68.4606 6.00018 69.1049C5.99458 69.7493 6.11737 70.3883 6.36138 70.9847C6.60538 71.5811 6.96573 72.123 7.42138 72.5786C7.87703 73.0343 8.41886 73.3946 9.01526 73.6386C9.61166 73.8826 10.2507 74.0054 10.8951 73.9998C11.5394 73.9942 12.1762 73.8603 12.7683 73.606C13.3604 73.3517 13.8958 72.982 14.3435 72.5185L72.5781 14.2839C73.4879 13.3738 73.999 12.1397 73.999 10.8529C73.999 9.56607 73.4879 8.33194 72.5781 7.42189ZM20.6183 39.9702C20.5979 36.5467 21.4887 33.1795 23.1994 30.214C24.91 27.2486 27.3789 24.7916 30.3526 23.0953C33.3263 21.399 36.6978 20.5245 40.1211 20.5614C43.5444 20.5983 46.8962 21.5454 49.8326 23.3054L42.5145 30.6235C40.8737 30.1578 39.1384 30.1386 37.4877 30.5678C35.8371 30.9971 34.3309 31.8593 33.1249 33.0653C31.9189 34.2713 31.0567 35.7774 30.6275 37.4281C30.1982 39.0788 30.2174 40.8141 30.6832 42.4549L23.365 49.773C21.5851 46.8116 20.6362 43.4253 20.6183 39.9702Z" fill="url(#paint0_radial_219_1302)"/>
<defs>
<radialGradient id="paint0_radial_219_1302" cx="0" cy="0" r="1" gradientUnits="userSpaceOnUse" gradientTransform="translate(74 6) rotate(135) scale(96.1665)">
<stop stop-color="#9D62FC"/>
<stop offset="1" stop-color="#FD3296"/>
</radialGradient>
</defs>
</svg>
