<svg xmlns="http://www.w3.org/2000/svg" viewBox="0 0 32 32"><path d="M16,0h0A16,16,0,0,1,32,16h0A16,16,0,0,1,16,32h0A16,16,0,0,1,0,16H0A16,16,0,0,1,16,0Z" fill="none"/><path d="M16,23h-.11a6.25,6.25,0,0,1-4-2.43,9.23,9.23,0,0,1-1.8-5.28C10,14.45,10,12.6,10,11.58a1.84,1.84,0,0,1,1.53-1.82L16,9l4.47.77A1.84,1.84,0,0,1,22,11.58c0,1,0,2.87-.08,3.71a9.23,9.23,0,0,1-1.8,5.28,6.25,6.25,0,0,1-4,2.43Zm-4-9.67h0c0,.77,0,1.33,0,1.66a7.63,7.63,0,0,0,1.49,4.39A4.21,4.21,0,0,0,16,21a4.21,4.21,0,0,0,2.51-1.6A7.63,7.63,0,0,0,20,15c0-.33,0-.89,0-1.66h0c0-.47,0-1,0-1.64L16,11l-4,.68C12,12.32,12,12.87,12,13.34ZM13.5,13l2.5-.43v6.9h0a2.66,2.66,0,0,1-1.3-.94A5.81,5.81,0,0,1,13.56,15C13.53,14.62,13.51,13.91,13.5,13Z" fill="#fff" fill-rule="evenodd"/></svg>