<svg width="80" height="80" viewBox="0 0 80 80" fill="none" xmlns="http://www.w3.org/2000/svg">
<rect x="43" y="43" width="32" height="32" rx="16" fill="#FF4F5E"/>
<path d="M65.6929 63.0119L60.7399 53.1059C60.5739 52.7736 60.3185 52.4941 60.0025 52.2988C59.6866 52.1035 59.3224 52 58.9509 52C58.5795 52 58.2153 52.1035 57.8993 52.2988C57.5834 52.4941 57.328 52.7736 57.1619 53.1059L52.2089 63.0159C52.0575 63.3206 51.9863 63.659 52.0022 63.999C52.018 64.3389 52.1203 64.6692 52.2995 64.9586C52.4786 65.2479 52.7286 65.4868 53.0258 65.6526C53.323 65.8183 53.6576 65.9055 53.9979 65.9059H63.9029C64.2439 65.906 64.5792 65.819 64.8771 65.6531C65.1749 65.4872 65.4255 65.2479 65.6048 64.9579C65.7842 64.668 65.8864 64.337 65.9018 63.9964C65.9172 63.6557 65.8453 63.3169 65.6929 63.0119ZM57.9509 55.9059C57.9509 55.6406 58.0563 55.3863 58.2438 55.1988C58.4314 55.0112 58.6857 54.9059 58.9509 54.9059C59.2162 54.9059 59.4705 55.0112 59.658 55.1988C59.8456 55.3863 59.9509 55.6406 59.9509 55.9059V59.9059C59.9509 60.1711 59.8456 60.4254 59.658 60.613C59.4705 60.8005 59.2162 60.9059 58.9509 60.9059C58.6857 60.9059 58.4314 60.8005 58.2438 60.613C58.0563 60.4254 57.9509 60.1711 57.9509 59.9059V55.9059ZM58.9509 64.1559C58.7037 64.1559 58.462 64.0826 58.2565 63.9452C58.0509 63.8078 57.8907 63.6126 57.7961 63.3842C57.7015 63.1558 57.6767 62.9045 57.725 62.662C57.7732 62.4195 57.8922 62.1968 58.0671 62.022C58.2419 61.8472 58.4646 61.7281 58.7071 61.6799C58.9496 61.6317 59.2009 61.6564 59.4293 61.751C59.6577 61.8456 59.8529 62.0058 59.9903 62.2114C60.1276 62.417 60.2009 62.6586 60.2009 62.9059C60.2009 63.2374 60.0692 63.5553 59.8348 63.7897C59.6004 64.0242 59.2825 64.1559 58.9509 64.1559Z" fill="white"/>
<path fill-rule="evenodd" clip-rule="evenodd" d="M61.4271 34.4882H64.1484C66.3137 34.4882 68.3902 35.3461 69.9213 36.8732C71.4524 38.4003 72.3125 40.4714 72.3125 42.6311V42.758C68.6891 39.7846 64.053 38 59 38C47.402 38 38 47.402 38 59C38 67.3945 42.9255 74.6387 50.0441 78H15.1641C12.9988 78 10.9223 77.1421 9.3912 75.615C7.86014 74.0879 7 72.0168 7 69.8571V42.6311C7 40.4714 7.86014 38.4003 9.3912 36.8732C10.9223 35.3461 12.9988 34.4882 15.1641 34.4882H17.8854V23.7143C17.8854 17.9553 20.1791 12.4322 24.2619 8.35997C28.3448 4.28775 33.8823 2 39.6562 2C45.4302 2 50.9677 4.28775 55.0506 8.35997C59.1334 12.4322 61.4271 17.9553 61.4271 23.7143V34.4882ZM31.9591 16.0371C29.9177 18.0732 28.7708 20.8348 28.7708 23.7143V34.4882H50.5417V23.7143C50.5417 20.8348 49.3948 18.0732 47.3534 16.0371C45.312 14.001 42.5432 12.8571 39.6562 12.8571C36.7693 12.8571 34.0005 14.001 31.9591 16.0371Z" fill="url(#paint0_radial)"/>
<defs>
<radialGradient id="paint0_radial" cx="0" cy="0" r="1" gradientUnits="userSpaceOnUse" gradientTransform="translate(72.3125 2) rotate(130.675) scale(100.208 99.0685)">
<stop stop-color="#0060DF"/>
<stop offset="1" stop-color="#3FE1B0"/>
</radialGradient>
</defs>
</svg>
