<svg width="24" height="24" viewBox="0 0 24 24" fill="none" xmlns="http://www.w3.org/2000/svg">
<path d="M18.1875 10.8074V5.125C18.1875 4.82663 18.0734 4.54048 17.8702 4.3295C17.667 4.11853 17.3915 4 17.1042 4H7.89583C7.60852 4 7.33297 4.11853 7.1298 4.3295C6.92664 4.54048 6.8125 4.82663 6.8125 5.125V10.8074C6.58203 10.8662 6.37701 11.0031 6.22986 11.1964C6.0827 11.3898 6.00182 11.6286 6 11.875V14.125C6 14.7217 6.22827 15.294 6.6346 15.716C7.04093 16.1379 7.59203 16.375 8.16667 16.375H10.875V20.3125C10.875 20.7601 11.0462 21.1893 11.351 21.5057C11.6557 21.8222 12.069 22 12.5 22C12.931 22 13.3443 21.8222 13.649 21.5057C13.9538 21.1893 14.125 20.7601 14.125 20.3125V16.375H16.8333C17.408 16.375 17.9591 16.1379 18.3654 15.716C18.7717 15.294 19 14.7217 19 14.125V11.875C18.9982 11.6286 18.9173 11.3898 18.7701 11.1964C18.623 11.0031 18.418 10.8662 18.1875 10.8074ZM8.16667 10.75V6.3625L8.81667 5.6875H9.64867L10.4839 6.6505C10.6457 6.83778 10.8711 6.95261 11.1127 6.97087C11.3544 6.98912 11.5934 6.90937 11.7796 6.74838L12.3559 6.25H13.0763L13.8607 7.0645C14.0594 7.27078 14.3276 7.38878 14.6085 7.39361C14.8895 7.39844 15.1613 7.28971 15.3665 7.09037L16.231 6.25H16.8333V10.75H8.16667Z" fill="#3D3D3D"/>
</svg>
