<svg width="24" height="24" viewBox="0 0 24 24" fill="none" xmlns="http://www.w3.org/2000/svg">
<path d="M12 4C10.4178 4 8.87103 4.46919 7.55544 5.34824C6.23985 6.22729 5.21447 7.47672 4.60897 8.93853C4.00347 10.4003 3.84504 12.0089 4.15372 13.5607C4.4624 15.1126 5.22433 16.538 6.34315 17.6569C7.46197 18.7757 8.88743 19.5376 10.4393 19.8463C11.9911 20.155 13.5997 19.9965 15.0615 19.391C16.5233 18.7855 17.7727 17.7602 18.6518 16.4446C19.5308 15.129 20 13.5823 20 12C19.9976 9.879 19.154 7.84555 17.6542 6.34578C16.1545 4.846 14.121 4.00238 12 4V4ZM17.163 8.958H15.611C15.3978 8.11219 15.0424 7.30875 14.56 6.582C15.6449 7.09711 16.5513 7.92445 17.163 8.958ZM18 12C17.9986 12.6668 17.8854 13.3287 17.665 13.958H15.844C15.948 13.3105 16.0002 12.6558 16 12C16.0002 11.3442 15.948 10.6895 15.844 10.042H17.665C17.8854 10.6713 17.9986 11.3332 18 12ZM12 18C10.925 18 9.963 16.8 9.433 15.042H14.568C14.037 16.8 13.075 18 12 18ZM9.174 13.958C8.94159 12.663 8.94159 11.337 9.174 10.042H14.825C14.9411 10.6882 14.9996 11.3434 15 12C14.9999 12.6565 14.9417 13.3118 14.826 13.958H9.174ZM6 12C6.00141 11.3332 6.11465 10.6713 6.335 10.042H8.156C7.94792 11.339 7.94792 12.661 8.156 13.958H6.335C6.11465 13.3287 6.00141 12.6668 6 12ZM12 6C13.075 6 14.037 7.2 14.567 8.958H9.433C9.963 7.2 10.925 6 12 6ZM9.44 6.582C8.95762 7.30875 8.60223 8.11219 8.389 8.958H6.837C7.4487 7.92445 8.35508 7.09711 9.44 6.582ZM6.84 15.042H8.389C8.60223 15.8878 8.95762 16.6912 9.44 17.418C8.35508 16.9029 7.4487 16.0755 6.837 15.042H6.84ZM14.563 17.418C15.0454 16.6912 15.4008 15.8878 15.614 15.042H17.166C16.5535 16.076 15.646 16.9034 14.56 17.418H14.563Z" fill="white"/>
</svg>
