<svg width="24" height="24" viewBox="0 0 24 24" fill="none" xmlns="http://www.w3.org/2000/svg">
<path fill-rule="evenodd" clip-rule="evenodd" d="M12.25 5.5C11.5592 5.5 11 6.05921 11 6.75V8.25C11 8.66421 10.6642 9 10.25 9H7.5C7.22421 9 7 9.22421 7 9.5V11H8.25C9.76921 11 11 12.2308 11 13.75C11 15.2692 9.76921 16.5 8.25 16.5H7V18C7 18.2758 7.22421 18.5 7.5 18.5H17C17.2758 18.5 17.5 18.2758 17.5 18V9.5C17.5 9.22421 17.2758 9 17 9H14.25C13.8358 9 13.5 8.66421 13.5 8.25V6.75C13.5 6.05921 12.9408 5.5 12.25 5.5ZM9.5 6.75C9.5 5.23079 10.7308 4 12.25 4C13.7692 4 15 5.23079 15 6.75V7.5H17C18.1042 7.5 19 8.39579 19 9.5V18C19 19.1042 18.1042 20 17 20H7.5C6.39579 20 5.5 19.1042 5.5 18V15.75C5.5 15.3358 5.83579 15 6.25 15H8.25C8.94079 15 9.5 14.4408 9.5 13.75C9.5 13.0592 8.94079 12.5 8.25 12.5H6.25C5.83579 12.5 5.5 12.1642 5.5 11.75V9.5C5.5 8.39579 6.39579 7.5 7.5 7.5H9.5V6.75Z" fill="white"/>
</svg>
