<svg width="24" height="24" viewBox="0 0 24 24" fill="none" xmlns="http://www.w3.org/2000/svg">
<path fill-rule="evenodd" clip-rule="evenodd" d="M19 12C19 15.866 15.866 19 12 19C8.13401 19 5 15.866 5 12C5 8.13401 8.13401 5 12 5C15.866 5 19 8.13401 19 12ZM21 12C21 16.9706 16.9706 21 12 21C7.02944 21 3 16.9706 3 12C3 7.02944 7.02944 3 12 3C16.9706 3 21 7.02944 21 12ZM10 11C10.5523 11 11 10.5523 11 10C11 9.44772 10.5523 9 10 9C9.44772 9 9 9.44772 9 10C9 10.5523 9.44772 11 10 11ZM15 10C15 10.5523 14.5523 11 14 11C13.4477 11 13 10.5523 13 10C13 9.44772 13.4477 9 14 9C14.5523 9 15 9.44772 15 10ZM8.83216 13.4453C8.5258 12.9858 7.90493 12.8616 7.44541 13.168C6.98588 13.4743 6.8617 14.0952 7.16806 14.5547C7.74503 15.4202 9.44709 17 12.0001 17C14.5531 17 16.2552 15.4202 16.8322 14.5547C17.1385 14.0952 17.0143 13.4743 16.5548 13.168C16.0953 12.8616 15.4744 12.9858 15.1681 13.4453C14.8561 13.9132 13.7138 15 12.0001 15C10.2865 15 9.14407 13.9132 8.83216 13.4453Z" fill="#3D3D3D"/>
</svg>
