<svg width="24" height="24" viewBox="0 0 24 24" fill="none" xmlns="http://www.w3.org/2000/svg">
<path d="M18.5673 7.20007L16.1333 9.63607C16.0193 9.75746 15.8821 9.8547 15.7298 9.92204C15.5775 9.98937 15.4132 10.0254 15.2467 10.028C15.0802 10.0306 14.9149 9.99978 14.7605 9.93726C14.6062 9.87475 14.466 9.78186 14.3482 9.66411C14.2305 9.54637 14.1376 9.40616 14.0751 9.25182C14.0126 9.09748 13.9817 8.93215 13.9843 8.76565C13.9869 8.59916 14.023 8.43488 14.0903 8.28258C14.1577 8.13028 14.2549 7.99306 14.3763 7.87907L16.8123 5.44507C16.256 5.15624 15.6391 5.00371 15.0123 5.00007C14.3068 4.99587 13.613 5.17944 13.0019 5.53194C12.3908 5.88444 11.8845 6.39318 11.535 7.00595C11.1855 7.61872 11.0052 8.31346 11.0128 9.01887C11.0205 9.72429 11.2156 10.415 11.5783 11.0201L5.30529 17.2931C5.20978 17.3853 5.1336 17.4957 5.08119 17.6177C5.02878 17.7397 5.00119 17.8709 5.00004 18.0037C4.99888 18.1364 5.02419 18.2681 5.07447 18.391C5.12475 18.5139 5.199 18.6256 5.29289 18.7195C5.38679 18.8134 5.49844 18.8876 5.62133 18.9379C5.74423 18.9882 5.87591 19.0135 6.00869 19.0123C6.14147 19.0112 6.27269 18.9836 6.39469 18.9312C6.5167 18.8788 6.62704 18.8026 6.71929 18.7071L12.9923 12.4341C13.6025 12.8009 14.3003 12.9964 15.0123 13.0001C16.0732 13.0001 17.0906 12.5786 17.8407 11.8285C18.5909 11.0784 19.0123 10.0609 19.0123 9.00007C19.0086 8.37329 18.8561 7.75635 18.5673 7.20007Z" fill="white"/>
</svg>
