<svg width="24" height="24" viewBox="0 0 24 24" fill="none" xmlns="http://www.w3.org/2000/svg">
<path fill-rule="evenodd" clip-rule="evenodd" d="M11.8567 19C12.116 19 12.2593 18.6873 12.1089 18.4761C11.8781 18.1519 11.6787 17.8037 11.5152 17.4361C11.4655 17.3244 11.3561 17.25 11.2339 17.25H8C6.15833 17.25 4.66667 15.6838 4.66667 13.75C4.66667 11.8162 6.15833 10.25 8 10.25H8.36239C8.49774 10.25 8.61545 10.159 8.65692 10.0301C9.27093 8.12241 10.9769 6.75 13 6.75C14.5956 6.75 15.9994 7.60388 16.8201 8.90064C16.8591 8.96231 16.927 9 17 9H18C18.0884 9 18.1764 9.00191 18.2639 9.0057C18.4919 9.01557 18.665 8.78962 18.5655 8.58428C17.5334 6.4541 15.4298 5 13 5C10.6478 5 8.59773 6.36885 7.53292 8.38917C7.48534 8.47944 7.39672 8.54118 7.29575 8.55598C4.86624 8.91211 3 11.105 3 13.75C3 16.6462 5.24167 19 8 19H11.8567ZM20.4375 13.9375H19.2563C19.1837 13.5854 19.0439 13.2506 18.8445 12.9514L19.6826 12.1133C19.8958 11.8926 19.8927 11.5418 19.6758 11.3248C19.4588 11.1078 19.108 11.1048 18.8873 11.3179L18.0491 12.1561C17.7499 11.9564 17.4148 11.8164 17.0625 11.7438V10.5625C17.0625 10.2518 16.8107 10 16.5 10C16.1893 10 15.9375 10.2518 15.9375 10.5625V11.7438C15.5854 11.8163 15.2506 11.9561 14.9514 12.1555L14.1133 11.3174C13.8935 11.0977 13.5373 11.0979 13.3177 11.3177C13.098 11.5374 13.0981 11.8937 13.3179 12.1133L14.1561 12.9514C13.9565 13.2505 13.8165 13.5853 13.7437 13.9375H12.5625C12.2518 13.9375 12 14.1893 12 14.5C12 14.8107 12.2518 15.0625 12.5625 15.0625H13.7437C13.8165 15.4168 13.9573 15.7536 14.1583 16.0542C14.1545 16.0578 14.1501 16.0601 14.1458 16.0625C14.1412 16.0649 14.1367 16.0673 14.133 16.0711L13.3174 16.8867C13.1711 17.0279 13.1125 17.2371 13.164 17.4337C13.2155 17.6304 13.369 17.784 13.5657 17.8355C13.7624 17.8869 13.9715 17.8283 14.1128 17.6821L14.9284 16.8664C14.9323 16.8625 14.9349 16.8577 14.9376 16.853C14.9399 16.8489 14.9421 16.8448 14.9452 16.8411C15.246 17.0424 15.583 17.1834 15.9375 17.2563V18.4375C15.9375 18.7482 16.1893 19 16.5 19C16.8107 19 17.0625 18.7482 17.0625 18.4375V17.2563C17.4146 17.1837 17.7494 17.0439 18.0486 16.8445L18.8867 17.6826C19.1074 17.8958 19.4582 17.8927 19.6752 17.6758C19.8922 17.4588 19.8952 17.108 19.6821 16.8873L18.8439 16.0491C19.0436 15.7499 19.1836 15.4149 19.2563 15.0625H20.4375C20.7482 15.0625 21 14.8107 21 14.5C21 14.1893 20.7482 13.9375 20.4375 13.9375ZM14.8125 14.5C14.8125 13.568 15.568 12.8125 16.5 12.8125C17.432 12.8125 18.1875 13.568 18.1875 14.5C18.1875 15.432 17.432 16.1875 16.5 16.1875C15.568 16.1875 14.8125 15.432 14.8125 14.5Z" fill="#3D3D3D"/>
</svg>
