<svg width="27" height="36" viewBox="0 0 27 36" fill="none" xmlns="http://www.w3.org/2000/svg">
<path d="M22.5 15.75V9C22.5 4.0365 18.4635 0 13.5 0C8.5365 0 4.5 4.0365 4.5 9V15.75C2.01375 15.75 0 17.7638 0 20.25V31.5C0 33.9863 2.01375 36 4.5 36H22.5C24.9862 36 27 33.9863 27 31.5V20.25C27 17.7638 24.9862 15.75 22.5 15.75ZM7.3125 9C7.3125 5.58675 10.0868 2.8125 13.5 2.8125C16.9132 2.8125 19.6875 5.58675 19.6875 9V15.75H7.3125V9ZM24.1875 31.8375L22.8375 33.1875H4.1625L2.8125 31.8375V19.9125L4.1625 18.5625H22.8375L24.1875 19.9125V31.8375Z" fill="#5B5B66"/>
</svg>
