<svg width="24" height="24" viewBox="0 0 24 24" fill="none" xmlns="http://www.w3.org/2000/svg">
<path d="M16.4078 15.992C14.7448 15.992 13.5948 13.992 11.9998 13.992C10.4048 13.992 9.15578 15.992 7.59178 15.992C5.53978 15.992 4.02478 14.048 3.99978 10.719C3.98478 8.65103 4.59978 7.99203 7.26478 7.99203C9.92978 7.99203 10.7088 9.08203 11.9998 9.08203C13.2908 9.08203 14.0708 7.99103 16.7348 7.99103C19.3988 7.99103 20.0148 8.65103 19.9998 10.718C19.9748 14.048 18.4598 15.992 16.4078 15.992ZM8.57178 10.537C6.95278 10.607 6.28578 11.572 6.28578 11.81C6.28578 12.048 7.35878 12.719 8.40778 12.719C9.45678 12.719 10.6938 12.335 10.6938 11.992C10.587 11.5276 10.3096 11.1202 9.91654 10.8507C9.52348 10.5812 9.0435 10.4692 8.57178 10.537ZM15.4288 10.537C14.9569 10.469 14.4767 10.5808 14.0834 10.8503C13.6901 11.1198 13.4126 11.5274 13.3058 11.992C13.3058 12.335 14.5418 12.719 15.5918 12.719C16.6418 12.719 17.7138 12.048 17.7138 11.81C17.7138 11.572 17.0468 10.607 15.4278 10.537H15.4288Z" fill="white"/>
</svg>
