<svg width="32" height="32" xmlns="http://www.w3.org/2000/svg">

 <g>
  <title>Layer 1</title>
  <path id="svg_1" fill="none" d="m86.89108,-16.23762l0,0a16,16 0 0 1 16,16l0,0a16,16 0 0 1 -16,16l0,0a16,16 0 0 1 -16,-16l0,0a16,16 0 0 1 16,-16z"/>
  <path id="svg_2" fill-rule="evenodd" fill="#6D6D6E" d="m16.07132,28.55184l-0.19895,0a11.3037,11.3037 0 0 1 -7.23437,-4.39488a16.69331,16.69331 0 0 1 -3.25547,-9.54937c-0.16277,-1.51922 -0.16277,-4.86511 -0.16277,-6.70988a3.32781,3.32781 0 0 1 2.76715,-3.29164l8.08441,-1.37453l8.08441,1.39262a3.32781,3.32781 0 0 1 2.76715,3.27355c0,1.80859 0,5.19066 -0.14469,6.70988a16.69331,16.69331 0 0 1 -3.25547,9.54937a11.3037,11.3037 0 0 1 -7.23437,4.39488l-0.21703,0zm-7.23437,-17.48909l0,0c0,1.39262 0,2.40543 0,3.00226a13.79956,13.79956 0 0 0 2.6948,7.93972a7.61417,7.61417 0 0 0 4.53957,2.92992a7.61417,7.61417 0 0 0 4.53957,-2.89375a13.79956,13.79956 0 0 0 2.6948,-7.95781c0,-0.59684 0,-1.60965 0,-3.00226l0,0c0,-0.85004 0,-1.80859 0,-2.96609l-7.23437,-1.26601l-7.23437,1.22984c0,1.1575 0,2.15222 0,3.00226l0,-0.01809zm2.71289,-0.59684l4.52148,-0.77769l0,12.47929l0,0a4.81086,4.81086 0 0 1 -2.35117,-1.70008a10.50792,10.50792 0 0 1 -2.0618,-6.38433c-0.05426,-0.68727 -0.09043,-1.97137 -0.10852,-3.61718z"/>
 </g>
</svg>