<svg width="320" height="160" viewBox="0 0 320 160" fill="none" xmlns="http://www.w3.org/2000/svg">
<path d="M173.366 96.3674C153.994 96.3674 138.208 80.6044 138.208 61.2092C138.208 41.814 153.994 26.0509 173.366 26.0509C192.737 26.0509 208.524 41.814 208.524 61.2092C208.524 80.6044 192.761 96.3674 173.366 96.3674ZM173.366 26.7394C154.374 26.7394 138.896 42.1938 138.896 61.2092C138.896 80.2246 154.35 95.679 173.366 95.679C192.381 95.679 207.836 80.2246 207.836 61.2092C207.836 42.1938 192.381 26.7394 173.366 26.7394Z" fill="white"/>
<path d="M173.225 92.617C190.531 92.617 204.561 78.5873 204.561 61.2808C204.561 43.9743 190.531 29.9446 173.225 29.9446C155.918 29.9446 141.889 43.9743 141.889 61.2808C141.889 78.5873 155.918 92.617 173.225 92.617Z" fill="#A577FF"/>
<path d="M173.224 92.7111C155.894 92.7111 141.793 78.6098 141.793 61.2799C141.793 43.95 155.894 29.8488 173.224 29.8488C190.554 29.8488 204.655 43.95 204.655 61.2799C204.631 78.6098 190.53 92.7111 173.224 92.7111Z" fill="#2B2A33"/>
<path d="M196.086 83.7916C208.491 71.3868 208.491 51.2745 196.086 38.8697C183.681 26.4649 163.569 26.4649 151.164 38.8697C138.759 51.2745 138.759 71.3868 151.164 83.7916C163.569 96.1965 183.681 96.1965 196.086 83.7916Z" fill="#C5C8FB"/>
<path d="M163.895 95.0375C155.254 86.7286 150.293 74.4078 150.293 61.2086C150.293 48.0332 155.254 35.6886 163.895 27.3798L164.37 27.8546C155.848 36.0447 150.981 48.1993 150.981 61.1849C150.981 74.1941 155.872 86.3488 164.37 94.5152L163.895 95.0375Z" fill="white"/>
<path d="M182.863 95.0398L182.389 94.565C190.911 86.3748 195.778 74.2202 195.778 61.2347C195.778 48.2254 190.887 36.0708 182.389 27.9044L182.863 27.4296C191.505 35.7384 196.466 48.0592 196.466 61.2584C196.466 74.3864 191.505 86.7309 182.863 95.0398Z" fill="white"/>
<path d="M173.393 84.2836C160.218 84.2836 147.873 79.322 139.564 70.6808L140.039 70.2061C148.229 78.7286 160.384 83.5952 173.37 83.5952C186.379 83.5952 198.533 78.7048 206.7 70.2061L207.175 70.6808C198.89 79.3458 186.569 84.2836 173.393 84.2836Z" fill="white"/>
<path d="M206.723 52.1864C198.532 43.6639 186.378 38.7973 173.392 38.7973C160.383 38.7973 148.228 43.6876 140.062 52.1864L139.587 51.7116C147.896 43.0704 160.217 38.1088 173.416 38.1088C186.591 38.1088 198.936 43.0704 207.245 51.7116L206.723 52.1864Z" fill="white"/>
<path d="M208.196 60.876H138.568V61.5407H208.196V60.876Z" fill="white"/>
<path d="M173.698 26.406H173.033V96.0341H173.698V26.406Z" fill="white"/>
<path d="M135.1 51.9261H97.3303C97.9713 48.2939 101.152 45.5164 104.974 45.5164C105.069 45.5164 105.164 45.5164 105.283 45.5164C107.206 42.1216 110.838 39.8189 115.016 39.8189C120.073 39.8189 124.346 43.1899 125.723 47.7954C126.72 46.8696 128.049 46.3235 129.521 46.3235C132.584 46.3235 135.1 48.8399 135.1 51.9261Z" fill="#6A3DE6"/>
<path d="M125.034 55.2035H86.5286L86.5998 54.7999C87.2882 50.9304 90.6355 48.1291 94.5763 48.1291C94.6 48.1291 94.6475 48.1291 94.6712 48.1291C96.7366 44.6157 100.511 42.4316 104.594 42.4316C109.485 42.4316 113.877 45.589 115.467 50.1707C116.512 49.3636 117.77 48.9363 119.075 48.9363C122.352 48.9363 125.01 51.5951 125.01 54.8711V55.2035H125.034ZM87.3357 54.5151H124.346C124.179 51.785 121.877 49.601 119.099 49.601C117.77 49.601 116.512 50.0995 115.538 51.0016L115.135 51.3577L114.969 50.8354C113.615 46.2774 109.342 43.0963 104.571 43.0963C100.654 43.0963 97.0452 45.2092 95.1223 48.6277L95.0273 48.8176H94.8137C94.7187 48.8176 94.6237 48.8176 94.5288 48.8176C91.0866 48.7938 88.1191 51.1678 87.3357 54.5151Z" fill="white"/>
<path d="M223.772 54.847C223.677 54.847 223.583 54.7521 223.583 54.6571V52.9716C223.583 52.8766 223.677 52.7817 223.772 52.7817C223.867 52.7817 223.962 52.8766 223.962 52.9716V54.6571C223.962 54.7521 223.867 54.847 223.772 54.847Z" fill="white"/>
<path d="M223.769 55.0134C223.579 55.0134 223.413 54.8472 223.413 54.6573V52.9718C223.413 52.7819 223.579 52.6157 223.769 52.6157C223.959 52.6157 224.125 52.7819 224.125 52.9718V54.6573C224.125 54.8472 223.959 55.0134 223.769 55.0134ZM223.769 52.9243C223.745 52.9243 223.745 52.9481 223.769 52.9243L223.745 54.6336C223.745 54.6573 223.793 54.6573 223.793 54.6336L223.769 52.9243C223.769 52.9243 223.793 52.9481 223.769 52.9243Z" fill="white"/>
<path d="M224.792 53.8017C224.792 53.8966 224.697 53.9916 224.602 53.9916H222.917C222.822 53.9916 222.727 53.8966 222.727 53.8017C222.727 53.7067 222.822 53.6118 222.917 53.6118H224.602C224.721 53.6118 224.792 53.7067 224.792 53.8017Z" fill="white"/>
<path d="M224.599 54.158H222.913C222.723 54.158 222.557 53.9918 222.557 53.8019C222.557 53.612 222.723 53.4458 222.913 53.4458H224.599C224.789 53.4458 224.955 53.612 224.955 53.8019C224.955 53.9918 224.812 54.158 224.599 54.158ZM222.913 53.7782C222.913 53.7782 222.889 53.8019 222.913 53.7782C222.889 53.8019 222.913 53.8256 222.913 53.8256H224.599C224.599 53.8256 224.622 53.8256 224.622 53.8019C224.622 53.7782 224.622 53.7782 224.599 53.7782H222.913Z" fill="white"/>
<path d="M280.136 125.353C280.041 125.353 279.946 125.258 279.946 125.163V123.477C279.946 123.382 280.041 123.287 280.136 123.287C280.231 123.287 280.326 123.382 280.326 123.477V125.163C280.326 125.258 280.255 125.353 280.136 125.353Z" fill="white"/>
<path d="M280.132 125.519C279.943 125.519 279.776 125.353 279.776 125.163V123.478C279.776 123.288 279.943 123.121 280.132 123.121C280.322 123.121 280.488 123.288 280.488 123.478V125.163C280.488 125.353 280.322 125.519 280.132 125.519ZM280.132 123.454C280.132 123.454 280.109 123.454 280.132 123.454L280.109 125.163C280.109 125.187 280.156 125.187 280.156 125.163L280.132 123.454C280.156 123.454 280.156 123.454 280.132 123.454Z" fill="white"/>
<path d="M281.177 124.309C281.177 124.404 281.082 124.499 280.987 124.499H279.302C279.207 124.499 279.112 124.404 279.112 124.309C279.112 124.214 279.207 124.119 279.302 124.119H280.987C281.082 124.119 281.177 124.214 281.177 124.309Z" fill="white"/>
<path d="M280.984 124.665H279.298C279.109 124.665 278.942 124.499 278.942 124.309C278.942 124.119 279.109 123.953 279.298 123.953H280.984C281.174 123.953 281.34 124.119 281.34 124.309C281.34 124.499 281.174 124.665 280.984 124.665ZM279.275 124.286C279.275 124.286 279.275 124.309 279.275 124.286C279.251 124.309 279.275 124.333 279.275 124.333H280.96C280.96 124.333 280.984 124.333 280.984 124.309C280.984 124.286 280.984 124.286 280.96 124.286H279.275V124.286Z" fill="white"/>
<path d="M52.8957 63.4404C52.8008 63.4404 52.7058 63.3454 52.7058 63.2504V61.5649C52.7058 61.47 52.8008 61.375 52.8957 61.375C52.9907 61.375 53.0856 61.47 53.0856 61.5649V63.2504C53.0856 63.3454 52.9907 63.4404 52.8957 63.4404Z" fill="white"/>
<path d="M52.8925 63.6067C52.7026 63.6067 52.5364 63.4405 52.5364 63.2506V61.5651C52.5364 61.3752 52.7026 61.209 52.8925 61.209C53.0824 61.209 53.2486 61.3752 53.2486 61.5651V63.2506C53.2486 63.4405 53.0824 63.6067 52.8925 63.6067ZM52.8925 61.5413C52.8925 61.5413 52.8687 61.5413 52.8925 61.5413L52.8687 63.2506C52.8687 63.2743 52.9162 63.2743 52.9162 63.2506L52.8925 61.5413C52.8925 61.5413 52.9162 61.5413 52.8925 61.5413Z" fill="white"/>
<path d="M53.9379 62.3957C53.9379 62.4906 53.8429 62.5856 53.748 62.5856H52.0625C51.9675 62.5856 51.8726 62.4906 51.8726 62.3957C51.8726 62.3007 51.9675 62.2057 52.0625 62.2057H53.748C53.8429 62.2057 53.9379 62.3007 53.9379 62.3957Z" fill="white"/>
<path d="M53.7445 62.752H52.059C51.8691 62.752 51.7029 62.5858 51.7029 62.3959C51.7029 62.2059 51.8691 62.0398 52.059 62.0398H53.7445C53.9344 62.0398 54.1006 62.2059 54.1006 62.3959C54.1006 62.6095 53.9344 62.752 53.7445 62.752ZM52.0352 62.3959C52.0352 62.3959 52.0115 62.3959 52.0352 62.3959C52.0115 62.4196 52.0352 62.4433 52.0352 62.4433H53.7207C53.7207 62.4433 53.7445 62.4433 53.7445 62.4196C53.7445 62.3959 53.7445 62.3959 53.7207 62.3959H52.0352Z" fill="white"/>
<path d="M264.155 55.37C264.06 55.37 263.965 55.275 263.965 55.1801V53.4946C263.965 53.3996 264.06 53.3047 264.155 53.3047C264.25 53.3047 264.345 53.3996 264.345 53.4946V55.1801C264.345 55.2988 264.25 55.37 264.155 55.37Z" fill="white"/>
<path d="M264.151 55.5363C263.961 55.5363 263.795 55.3702 263.795 55.1802V53.4948C263.795 53.3048 263.961 53.1387 264.151 53.1387C264.341 53.1387 264.507 53.3048 264.507 53.4948V55.1802C264.507 55.3939 264.341 55.5363 264.151 55.5363ZM264.151 53.471C264.151 53.471 264.128 53.471 264.151 53.471L264.128 55.1802C264.128 55.204 264.175 55.204 264.175 55.1802L264.151 53.471C264.151 53.471 264.175 53.471 264.151 53.471Z" fill="white"/>
<path d="M265.198 54.3486C265.198 54.4436 265.103 54.5385 265.008 54.5385H263.299C263.204 54.5385 263.109 54.4436 263.109 54.3486C263.109 54.2536 263.204 54.1587 263.299 54.1587H264.984C265.103 54.1587 265.198 54.2299 265.198 54.3486Z" fill="white"/>
<path d="M265.005 54.7049H263.295C263.105 54.7049 262.939 54.5388 262.939 54.3488C262.939 54.1589 263.105 53.9927 263.295 53.9927H264.981C265.171 53.9927 265.337 54.1589 265.337 54.3488C265.361 54.5388 265.194 54.7049 265.005 54.7049ZM263.295 54.3251C263.295 54.3251 263.272 54.3251 263.295 54.3251C263.272 54.3488 263.295 54.3726 263.295 54.3726H264.981C264.981 54.3726 265.005 54.3726 265.005 54.3488C265.005 54.3488 265.005 54.3251 264.981 54.3251H263.295Z" fill="white"/>
<path d="M100.516 105.293C100.421 105.293 100.326 105.198 100.326 105.103V103.417C100.326 103.322 100.421 103.227 100.516 103.227C100.611 103.227 100.706 103.322 100.706 103.417V105.103C100.706 105.221 100.634 105.293 100.516 105.293Z" fill="white"/>
<path d="M100.512 105.459C100.322 105.459 100.156 105.293 100.156 105.103V103.417C100.156 103.227 100.322 103.061 100.512 103.061C100.702 103.061 100.868 103.227 100.868 103.417V105.103C100.868 105.293 100.726 105.459 100.512 105.459ZM100.512 103.394L100.489 105.103C100.489 105.127 100.536 105.127 100.536 105.103L100.512 103.394C100.536 103.394 100.536 103.394 100.512 103.394Z" fill="white"/>
<path d="M101.55 104.248C101.55 104.343 101.455 104.438 101.36 104.438H99.6748C99.5798 104.438 99.4849 104.343 99.4849 104.248C99.4849 104.153 99.5798 104.058 99.6748 104.058H101.36C101.455 104.082 101.55 104.153 101.55 104.248Z" fill="white"/>
<path d="M101.364 104.604H99.6786C99.4887 104.604 99.3225 104.438 99.3225 104.248C99.3225 104.058 99.4887 103.892 99.6786 103.892H101.364C101.554 103.892 101.72 104.058 101.72 104.248C101.72 104.462 101.554 104.604 101.364 104.604ZM99.6786 104.248C99.6549 104.248 99.6549 104.248 99.6786 104.248C99.6549 104.272 99.6786 104.296 99.6786 104.296H101.364C101.364 104.296 101.388 104.296 101.388 104.272C101.388 104.272 101.388 104.248 101.364 104.248H99.6786V104.248Z" fill="white"/>
<path d="M222.678 109.874C222.037 109.874 221.539 109.352 221.539 108.735C221.539 108.094 222.061 107.595 222.678 107.595C223.319 107.595 223.818 108.118 223.818 108.735C223.842 109.352 223.319 109.874 222.678 109.874ZM222.678 108.26C222.417 108.26 222.204 108.474 222.204 108.735C222.204 108.996 222.417 109.21 222.678 109.21C222.939 109.21 223.153 108.996 223.153 108.735C223.153 108.474 222.939 108.26 222.678 108.26Z" fill="white"/>
<path d="M49.6395 127.039C48.9985 127.039 48.5 126.517 48.5 125.9C48.5 125.259 49.0223 124.76 49.6395 124.76C50.2805 124.76 50.779 125.283 50.779 125.9C50.779 126.517 50.2567 127.039 49.6395 127.039ZM49.6395 125.425C49.3784 125.425 49.1647 125.639 49.1647 125.9C49.1647 126.161 49.3784 126.375 49.6395 126.375C49.9006 126.375 50.1143 126.161 50.1143 125.9C50.1143 125.639 49.9006 125.425 49.6395 125.425Z" fill="white"/>
<path d="M78.0574 106.908H91.2566L91.2091 111.514H88.9776V113.057H88.2891L88.0042 115.146L86.746 122.719L78.0574 122.861V106.908Z" fill="#6A3DE6"/>
<path d="M73.712 123.097C73.6645 123.097 73.617 123.097 73.5933 123.073C73.4746 123.026 73.3796 122.907 73.3796 122.765V106.836C73.3796 106.646 73.5221 106.503 73.712 106.503H91.2318C91.4217 106.503 91.5641 106.646 91.5641 106.836V111.512C91.5641 111.702 91.4217 111.845 91.2318 111.845C91.0419 111.845 90.8994 111.702 90.8994 111.512V107.168H76.0859L76.1809 120.628C76.1809 120.723 76.1572 120.794 76.0859 120.866L73.9494 123.002C73.8782 123.073 73.7832 123.097 73.712 123.097ZM74.0443 107.168V121.958L75.4925 120.51L75.3975 107.192H74.0443V107.168Z" fill="white"/>
<path d="M78.0092 123.145C77.9142 123.145 77.843 123.121 77.7718 123.05L75.6115 120.89C75.469 120.747 75.469 120.534 75.6115 120.415C75.7539 120.272 75.9676 120.272 76.0863 120.415L77.6768 122.005V106.86C77.6768 106.67 77.8192 106.527 78.0092 106.527C78.1991 106.527 78.3415 106.67 78.3415 106.86V122.813C78.3415 122.955 78.2703 123.074 78.1279 123.121C78.0804 123.121 78.0566 123.145 78.0092 123.145Z" fill="white"/>
<path d="M87.1292 107.169C86.9392 107.169 86.7968 107.026 86.7968 106.836V104.747C86.7968 103.513 85.776 102.492 84.5415 102.492C83.3071 102.492 82.2863 103.513 82.2863 104.747V106.836C82.2863 107.026 82.1439 107.169 81.9539 107.169C81.764 107.169 81.6216 107.026 81.6216 106.836V104.747C81.6216 103.133 82.9273 101.827 84.5415 101.827C86.1558 101.827 87.4615 103.133 87.4615 104.747V106.836C87.4615 107.026 87.3191 107.169 87.1292 107.169Z" fill="white"/>
<path d="M84.5393 107.169C84.3494 107.169 84.207 107.026 84.207 106.836V104.747C84.207 103.513 83.1862 102.492 81.9517 102.492C80.7172 102.492 79.6964 103.513 79.6964 104.747V106.836C79.6964 107.026 79.554 107.169 79.3641 107.169C79.1742 107.169 79.0317 107.026 79.0317 106.836V104.747C79.0317 103.133 80.3374 101.827 81.9517 101.827C83.566 101.827 84.8717 103.133 84.8717 104.747V106.836C84.8717 107.026 84.7292 107.169 84.5393 107.169Z" fill="white"/>
<path d="M86.7235 123.097C86.6998 123.097 86.6761 123.097 86.6761 123.097C86.4862 123.073 86.3675 122.884 86.3912 122.717L88.0292 112.984C88.053 112.818 88.1954 112.699 88.3616 112.699H95.2223C95.4122 112.699 95.5546 112.842 95.5546 113.032C95.5546 113.222 95.4122 113.364 95.2223 113.364H88.6702L87.0796 122.836C87.0322 122.978 86.8897 123.097 86.7235 123.097Z" fill="white"/>
<path d="M103.909 123.098C103.743 123.098 103.601 122.979 103.577 122.813L101.986 113.341H95.4342C95.2442 113.341 95.1018 113.198 95.1018 113.009C95.1018 112.819 95.2442 112.676 95.4342 112.676H102.271C102.437 112.676 102.58 112.795 102.604 112.961L104.242 122.694C104.265 122.884 104.147 123.05 103.957 123.074C103.957 123.098 103.933 123.098 103.909 123.098Z" fill="white"/>
<path d="M98.2332 113.222C98.0433 113.222 97.9009 113.08 97.9009 112.89V110.635C97.9009 109.282 96.7851 108.166 95.432 108.166C94.0788 108.166 92.963 109.282 92.963 110.635V112.89C92.963 113.08 92.8206 113.222 92.6307 113.222C92.4408 113.222 92.2983 113.08 92.2983 112.89V110.635C92.2983 108.902 93.699 107.501 95.432 107.501C97.1649 107.501 98.5656 108.902 98.5656 110.635V112.89C98.5656 113.056 98.3994 113.222 98.2332 113.222Z" fill="white"/>
<path d="M101.774 113.317H88.9784C88.7884 113.317 88.646 113.174 88.646 112.984V111.513C88.646 111.323 88.7884 111.18 88.9784 111.18H101.774C101.964 111.18 102.106 111.323 102.106 111.513V112.984C102.13 113.174 101.964 113.317 101.774 113.317ZM89.3107 112.652H101.442V111.845H89.3107V112.652Z" fill="white"/>
<path d="M111.913 123.384H68.4217C68.2318 123.384 68.0894 123.241 68.0894 123.052C68.0894 122.862 68.2318 122.719 68.4217 122.719H111.913C112.102 122.719 112.245 122.862 112.245 123.052C112.245 123.241 112.102 123.384 111.913 123.384Z" fill="white"/>
<path d="M96.2157 93.7081H65.2119C64.5947 93.7081 64.1199 93.2096 64.1199 92.6161V72.295C64.1199 71.6778 64.6184 71.203 65.2119 71.203H96.2157C96.833 71.203 97.3077 71.7015 97.3077 72.295V92.6161C97.3077 93.2096 96.833 93.7081 96.2157 93.7081ZM65.2119 71.8677C64.9745 71.8677 64.7846 72.0576 64.7846 72.295V92.6161C64.7846 92.8535 64.9745 93.0434 65.2119 93.0434H96.2157C96.4531 93.0434 96.643 92.8535 96.643 92.6161V72.295C96.643 72.0576 96.4531 71.8677 96.2157 71.8677H65.2119V71.8677Z" fill="white"/>
<path d="M97.2129 74.835H64.666V75.4997H97.2129V74.835Z" fill="white"/>
<path d="M92.0591 79.3698H78.7887C78.5987 79.3698 78.4563 79.2274 78.4563 79.0374C78.4563 78.8475 78.5987 78.7051 78.7887 78.7051H92.0591C92.249 78.7051 92.3914 78.8475 92.3914 79.0374C92.3914 79.2274 92.249 79.3698 92.0591 79.3698Z" fill="white"/>
<path d="M92.0591 83.2158H78.7887C78.5987 83.2158 78.4563 83.0733 78.4563 82.8834C78.4563 82.6935 78.5987 82.5511 78.7887 82.5511H92.0591C92.249 82.5511 92.3914 82.6935 92.3914 82.8834C92.3914 83.0733 92.249 83.2158 92.0591 83.2158Z" fill="white"/>
<path d="M92.0591 87.0857H78.7887C78.5987 87.0857 78.4563 86.9433 78.4563 86.7534C78.4563 86.5635 78.5987 86.421 78.7887 86.421H92.0591C92.249 86.421 92.3914 86.5635 92.3914 86.7534C92.3914 86.9196 92.249 87.0857 92.0591 87.0857Z" fill="white"/>
<path d="M75.532 83.5719C75.7932 81.4641 74.2963 79.5435 72.1884 79.2823C70.0806 79.021 68.1601 80.518 67.8988 82.6258C67.6376 84.7337 69.1345 86.6542 71.2424 86.9154C73.3502 87.1767 75.2707 85.6797 75.532 83.5719Z" fill="#A577FF"/>
<path d="M71.7161 87.2979C69.4133 87.2979 67.5142 85.4225 67.5142 83.096C67.5142 80.7933 69.3896 78.8941 71.7161 78.8941C74.0188 78.8941 75.918 80.7696 75.918 83.096C75.918 85.3988 74.0188 87.2979 71.7161 87.2979ZM71.7161 79.5826C69.7694 79.5826 68.2026 81.1494 68.2026 83.096C68.2026 85.0427 69.7694 86.6095 71.7161 86.6095C73.6627 86.6095 75.2295 85.0427 75.2295 83.096C75.2295 81.1494 73.6627 79.5826 71.7161 79.5826Z" fill="white"/>
<path d="M71.0489 85.1144C71.0014 85.1144 70.9539 85.1144 70.9065 85.0906C70.7878 85.0432 70.7166 84.9245 70.7166 84.782V81.4585C70.7166 81.3398 70.7878 81.2211 70.9065 81.1498C71.0252 81.1024 71.1676 81.1024 71.2626 81.1736L73.4703 82.8354C73.5653 82.9066 73.6128 83.0015 73.6128 83.0965C73.6128 83.1915 73.5653 83.3102 73.4703 83.3576L71.2626 85.0194C71.1913 85.0906 71.1201 85.1144 71.0489 85.1144ZM71.3813 82.1232V84.0936L72.6869 83.0965L71.3813 82.1232Z" fill="#2B2A33"/>
<path d="M94.9568 98.7414C90.8024 98.7414 86.9566 96.9372 84.4402 93.6374L84.9862 93.2338C88.286 97.5781 94.0547 99.1687 99.681 97.2695C102.506 96.32 105.331 93.6849 108.346 90.8836C112.69 86.8479 117.177 82.6697 121.925 83.6668L121.782 84.3315C117.367 83.4057 113.023 87.4651 108.797 91.3821C105.735 94.2309 102.862 96.9134 99.8946 97.9105C98.2329 98.4803 96.5711 98.7414 94.9568 98.7414Z" fill="white"/>
<path d="M60.8671 82.1951C56.1904 82.1951 53.8164 79.4176 50.9439 76.0703C50.0656 75.0495 49.1635 74.005 48.1189 72.9367C45.7212 70.4915 42.7775 69.6131 40.2374 70.5627L40 69.9218C42.8013 68.8535 46.0061 69.8031 48.5937 72.4382C49.6383 73.5064 50.5641 74.5747 51.4425 75.6193C54.9322 79.6787 57.4486 82.6224 64.0956 81.1268L64.2381 81.7915C62.9799 82.0764 61.8641 82.1951 60.8671 82.1951Z" fill="white"/>
<path d="M76.2576 59.3082H94.4895V65.7178H81.1717L78.7977 67.7357V65.7178H76.2576V59.3082Z" fill="#C2C2FF"/>
<path d="M78.724 67.9258V65.813H76.1838V59.2372H94.5583V65.813H81.1691L78.724 67.9258ZM76.35 65.6231H78.8901V67.546L81.1454 65.6231H94.4158V59.3796H76.3738V65.6231H76.35Z" fill="#C2C3FF"/>
<path d="M82.7107 147.311C86.1851 147.311 89.0016 144.495 89.0016 141.02C89.0016 137.546 86.1851 134.729 82.7107 134.729C79.2362 134.729 76.4197 137.546 76.4197 141.02C76.4197 144.495 79.2362 147.311 82.7107 147.311Z" fill="#A577FF"/>
<path d="M82.7069 147.382C79.2172 147.382 76.3684 144.534 76.3684 141.044C76.3684 137.554 79.2172 134.705 82.7069 134.705C86.1966 134.705 89.0453 137.554 89.0453 141.044C89.0453 144.534 86.1966 147.382 82.7069 147.382Z" fill="#A577FF"/>
<path d="M64.6704 147.311C68.1448 147.311 70.9613 144.495 70.9613 141.02C70.9613 137.546 68.1448 134.729 64.6704 134.729C61.196 134.729 58.3794 137.546 58.3794 141.02C58.3794 144.495 61.196 147.311 64.6704 147.311Z" fill="#A577FF"/>
<path d="M64.6663 147.382C61.1766 147.382 58.3279 144.534 58.3279 141.044C58.3279 137.554 61.1766 134.705 64.6663 134.705C68.156 134.705 71.0048 137.554 71.0048 141.044C71.0048 144.534 68.1798 147.382 64.6663 147.382Z" fill="#A577FF"/>
<path d="M80.0005 141.377C79.8581 141.377 79.7394 141.306 79.6919 141.164L75.2051 129.697C75.1576 129.602 75.1814 129.484 75.2526 129.389C75.3238 129.294 75.4188 129.246 75.5375 129.246H80.6889C81.7572 129.246 82.6118 130.125 82.6118 131.169C82.6118 132.214 81.7335 133.092 80.6889 133.092H80.2616C80.0717 133.092 79.9293 132.95 79.9293 132.76C79.9293 132.57 80.0717 132.427 80.2616 132.427H80.6652C81.3537 132.427 81.9234 131.858 81.9234 131.169C81.9234 130.481 81.3537 129.911 80.6652 129.911H76.0123L80.3091 140.926C80.3803 141.092 80.2854 141.306 80.1192 141.354C80.0955 141.354 80.048 141.377 80.0005 141.377Z" fill="white"/>
<path d="M69.6543 141.378H61.8915C61.7728 141.378 61.6778 141.33 61.6066 141.235C61.5354 141.14 61.5354 141.022 61.5591 140.927L65.5948 130.576C65.6661 130.41 65.856 130.315 66.0222 130.386C66.1883 130.457 66.2833 130.647 66.2121 130.814L62.3663 140.689H69.6306C69.8205 140.689 69.9629 140.832 69.9629 141.022C69.9867 141.211 69.8442 141.378 69.6543 141.378Z" fill="white"/>
<path d="M76.4635 132.26H65.4483C65.2584 132.26 65.116 132.118 65.116 131.928C65.116 131.738 65.2584 131.595 65.4483 131.595H76.4635C76.6534 131.595 76.7958 131.738 76.7958 131.928C76.7958 132.118 76.6534 132.26 76.4635 132.26Z" fill="white"/>
<path d="M71.6658 139.312C71.5945 139.312 71.4996 139.288 71.4521 139.24C71.3097 139.122 71.2859 138.908 71.4046 138.766L76.5561 132.688C76.6748 132.546 76.8885 132.522 77.0309 132.641C77.1733 132.76 77.1971 132.973 77.0784 133.116L71.9269 139.193C71.8557 139.264 71.7607 139.312 71.6658 139.312Z" fill="white"/>
<path d="M80.0035 147.644C76.3476 147.644 73.3801 144.677 73.3801 141.021C73.3801 137.365 76.3476 134.397 80.0035 134.397C83.6594 134.397 86.6268 137.365 86.6268 141.021C86.6268 144.677 83.6594 147.644 80.0035 147.644ZM80.0035 135.086C76.7274 135.086 74.0686 137.745 74.0686 141.021C74.0686 144.297 76.7274 146.956 80.0035 146.956C83.2795 146.956 85.9384 144.297 85.9384 141.021C85.9621 137.745 83.2795 135.086 80.0035 135.086Z" fill="white"/>
<path d="M62.1253 147.644C58.4694 147.644 55.502 144.677 55.502 141.021C55.502 137.365 58.4694 134.397 62.1253 134.397C65.7812 134.397 68.7486 137.365 68.7486 141.021C68.7486 144.677 65.7812 147.644 62.1253 147.644ZM62.1253 135.086C58.8492 135.086 56.1904 137.745 56.1904 141.021C56.1904 144.297 58.8492 146.956 62.1253 146.956C65.4013 146.956 68.0602 144.297 68.0602 141.021C68.0839 137.745 65.4013 135.086 62.1253 135.086Z" fill="white"/>
<path d="M70.98 142.183C69.9592 142.183 69.1521 141.353 69.1521 140.355C69.1521 139.358 69.983 138.528 70.98 138.528C71.9771 138.528 72.808 139.358 72.808 140.355C72.808 141.353 72.0008 142.183 70.98 142.183ZM70.98 139.216C70.3391 139.216 69.8168 139.738 69.8168 140.379C69.8168 141.02 70.3391 141.542 70.98 141.542C71.621 141.542 72.1433 141.02 72.1433 140.379C72.1433 139.715 71.621 139.216 70.98 139.216Z" fill="white"/>
<path d="M68.9135 130.836H63.7383C62.6462 130.836 61.7441 129.934 61.7441 128.842C61.7441 128.652 61.8866 128.509 62.0765 128.509H67.2517C68.3437 128.509 69.2458 129.412 69.2458 130.504C69.2458 130.67 69.1034 130.836 68.9135 130.836ZM62.4326 129.174C62.575 129.744 63.0973 130.171 63.7145 130.171H68.5099C68.3675 129.601 67.8452 129.174 67.228 129.174H62.4326Z" fill="white"/>
<path d="M80.0035 147.645H73.7125C73.5226 147.645 73.3801 147.503 73.3801 147.313C73.3801 147.123 73.5226 146.98 73.7125 146.98H80.0035C80.1934 146.98 80.3358 147.123 80.3358 147.313C80.3358 147.503 80.1934 147.645 80.0035 147.645Z" fill="white"/>
<path d="M62.1253 147.645H55.8343C55.6444 147.645 55.502 147.503 55.502 147.313C55.502 147.123 55.6444 146.98 55.8343 146.98H62.1253C62.3152 146.98 62.4576 147.123 62.4576 147.313C62.4576 147.503 62.3152 147.645 62.1253 147.645Z" fill="white"/>
<path d="M251.444 64.7478H224.357C224.808 62.1364 227.087 60.166 229.841 60.166C229.912 60.166 229.983 60.166 230.055 60.166C231.432 57.7209 234.043 56.0828 237.034 56.0828C240.666 56.0828 243.729 58.5043 244.702 61.8041C245.414 61.1394 246.364 60.7358 247.408 60.7358C249.64 60.7358 251.444 62.54 251.444 64.7478Z" fill="#6A3DE6"/>
<path d="M251.546 64.819H224.269L224.293 64.724C224.768 62.0177 227.118 60.0711 229.848 60.0711C229.895 60.0711 229.967 60.0711 230.014 60.0711C231.462 57.5547 234.145 55.9879 237.041 55.9879C240.554 55.9879 243.712 58.3143 244.756 61.6379C245.492 60.9969 246.442 60.6408 247.439 60.6408C249.694 60.6408 251.522 62.4688 251.522 64.724V64.819H251.546ZM224.483 64.6528H251.38C251.332 62.54 249.599 60.807 247.463 60.807C246.466 60.807 245.54 61.1868 244.804 61.8515L244.709 61.9465L244.661 61.8278C243.664 58.5042 240.554 56.1778 237.065 56.1778C234.216 56.1778 231.557 57.7208 230.156 60.2135L230.133 60.261H230.085C230.014 60.261 229.943 60.261 229.872 60.261C227.213 60.2372 224.981 62.0889 224.483 64.6528Z" fill="#6A3DE6"/>
<path d="M266.407 71.4887H249.599C249.884 69.8744 251.308 68.6399 252.994 68.6399C253.041 68.6399 253.089 68.6399 253.136 68.6399C253.991 67.1206 255.605 66.0998 257.481 66.0998C259.736 66.0998 261.635 67.5954 262.252 69.6607C262.703 69.2572 263.297 68.996 263.938 68.996C265.291 69.0198 266.407 70.1355 266.407 71.4887Z" fill="#6A3DE6"/>
<path d="M266.5 71.5839H249.503L249.526 71.489C249.835 69.8035 251.283 68.569 253.016 68.569C253.04 68.569 253.064 68.569 253.111 68.569C254.013 67.0022 255.699 66.0289 257.503 66.0289C259.687 66.0289 261.634 67.4532 262.322 69.5186C262.773 69.1387 263.367 68.9251 263.96 68.9251C265.384 68.9251 266.524 70.0883 266.524 71.489V71.5839H266.5ZM249.716 71.4177H266.334C266.287 70.1358 265.218 69.0913 263.936 69.0913C263.343 69.0913 262.749 69.3287 262.298 69.7322L262.203 69.8272L262.156 69.7085C261.539 67.6432 259.616 66.2188 257.479 66.2188C255.722 66.2188 254.084 67.1684 253.206 68.7114L253.182 68.7589H253.135C253.087 68.7589 253.04 68.7589 253.016 68.7589C251.402 68.7352 250.025 69.8509 249.716 71.4177Z" fill="#6A3DE6"/>
<path d="M267.167 107.5H241.6C239.748 107.5 238.229 105.981 238.229 104.129C238.229 102.278 239.748 100.758 241.6 100.758H267.167C269.019 100.758 270.538 102.278 270.538 104.129C270.538 105.981 269.019 107.5 267.167 107.5ZM241.6 101.423C240.104 101.423 238.893 102.634 238.893 104.129C238.893 105.625 240.104 106.836 241.6 106.836H267.167C268.663 106.836 269.874 105.625 269.874 104.129C269.874 102.634 268.663 101.423 267.167 101.423H241.6Z" fill="white"/>
<path d="M243.38 104.938C243.996 104.938 244.496 104.439 244.496 103.823C244.496 103.206 243.996 102.707 243.38 102.707C242.764 102.707 242.264 103.206 242.264 103.823C242.264 104.439 242.764 104.938 243.38 104.938Z" fill="#50134B"/>
<path d="M243.381 105.27C242.573 105.27 241.932 104.629 241.932 103.822C241.932 103.015 242.573 102.374 243.381 102.374C244.188 102.374 244.829 103.015 244.829 103.822C244.829 104.629 244.164 105.27 243.381 105.27ZM243.381 103.039C242.953 103.039 242.597 103.395 242.597 103.822C242.597 104.25 242.953 104.606 243.381 104.606C243.808 104.606 244.164 104.25 244.164 103.822C244.164 103.395 243.808 103.039 243.381 103.039Z" fill="white"/>
<path d="M245.04 105.888C244.945 105.888 244.874 105.864 244.803 105.793L243.877 104.867C243.734 104.724 243.734 104.511 243.877 104.392C244.019 104.249 244.233 104.249 244.352 104.392L245.277 105.318C245.42 105.46 245.42 105.674 245.277 105.793C245.206 105.864 245.135 105.888 245.04 105.888Z" fill="white"/>
<path d="M202.78 31.5344C202.78 32.8401 202.401 34.0508 201.712 35.0479L201.665 35.1191L197.202 41.6237C196.845 42.146 196.086 42.1222 195.73 41.6L191.409 34.9766L191.362 34.9054C190.721 33.9321 190.365 32.7451 190.388 31.4869C190.436 28.0447 193.285 25.2909 196.727 25.3621C200.05 25.4808 202.757 28.2109 202.78 31.5344Z" fill="#6A45E3"/>
<path d="M196.466 42.3594C196.039 42.3594 195.659 42.1457 195.446 41.8134L191.077 35.1188C190.389 34.0506 190.033 32.7924 190.033 31.5104C190.057 29.7537 190.769 28.1157 192.027 26.8812C193.285 25.6705 194.971 25.0058 196.728 25.0533C200.217 25.1482 203.066 28.0445 203.09 31.5104C203.09 32.8399 202.71 34.1218 201.974 35.2138L197.463 41.7897C197.25 42.1695 196.87 42.3594 196.466 42.3594ZM196.585 25.7417C195.066 25.7417 193.618 26.3115 192.526 27.3798C191.386 28.4718 190.745 29.9436 190.745 31.5342C190.721 32.6737 191.054 33.8132 191.671 34.7628L191.718 34.834L196.039 41.4573C196.134 41.5997 196.3 41.6947 196.49 41.6947C196.68 41.6947 196.846 41.5997 196.941 41.4573L201.452 34.8815C202.116 33.9081 202.473 32.7449 202.449 31.5579C202.425 28.448 199.861 25.8367 196.751 25.7655C196.68 25.7417 196.633 25.7417 196.585 25.7417Z" fill="#2B2A33"/>
<path d="M198.586 32.8405C199.271 31.738 198.932 30.289 197.83 29.604C196.727 28.9191 195.278 29.2576 194.593 30.3601C193.909 31.4626 194.247 32.9116 195.35 33.5966C196.452 34.2815 197.901 33.943 198.586 32.8405Z" fill="#2B2A33"/>
<path d="M196.589 34.2869H196.566C195.094 34.2632 193.907 33.0525 193.907 31.5806C193.93 30.1088 195.117 28.9218 196.589 28.9218H196.613C197.325 28.9218 197.99 29.2067 198.488 29.729C198.987 30.2512 199.248 30.9159 199.248 31.6281C199.248 32.3403 198.963 33.005 198.441 33.5035C197.966 34.0021 197.301 34.2869 196.589 34.2869ZM196.589 29.5865C195.497 29.5865 194.595 30.4649 194.595 31.5806C194.571 32.6964 195.474 33.5985 196.589 33.5985C197.112 33.5985 197.634 33.4086 198.014 33.0287C198.394 32.6489 198.607 32.1504 198.607 31.6281C198.607 31.0821 198.417 30.5836 198.037 30.2037C197.658 29.8002 197.159 29.5865 196.589 29.5865C196.589 29.5865 196.613 29.5865 196.589 29.5865Z" fill="#2B2A33"/>
<path d="M166.985 50.1937C166.985 51.2857 166.676 52.2828 166.106 53.1136L166.059 53.1849L162.356 58.5737C162.071 59.001 161.43 59.001 161.145 58.55L157.56 53.0662L157.513 52.9949C156.991 52.1878 156.682 51.2145 156.706 50.1699C156.729 47.3212 159.103 45.0185 161.976 45.0897C164.73 45.1846 166.961 47.4399 166.985 50.1937Z" fill="#6A45E3"/>
<path d="M161.763 59.2377C161.763 59.2377 161.739 59.2377 161.763 59.2377C161.383 59.2377 161.075 59.0478 160.861 58.7629L157.229 53.2079C156.659 52.3058 156.35 51.2612 156.35 50.1929C156.374 48.7211 156.968 47.3442 158.036 46.3234C159.104 45.3026 160.505 44.7566 161.977 44.8041C164.897 44.8753 167.294 47.3205 167.318 50.2167C167.318 51.3324 167.009 52.4007 166.392 53.3266L166.345 53.3978L162.641 58.7629C162.428 59.0478 162.119 59.2377 161.763 59.2377ZM161.858 45.445C160.6 45.445 159.436 45.9198 158.534 46.7982C157.609 47.7003 157.086 48.911 157.063 50.1929C157.063 51.1425 157.324 52.0446 157.822 52.8518L161.431 58.4068C161.502 58.5255 161.621 58.573 161.763 58.573C161.882 58.573 162.024 58.5018 162.095 58.4068L165.846 52.9467C166.392 52.1396 166.677 51.19 166.653 50.2167C166.63 47.6528 164.54 45.5163 161.977 45.4688C161.929 45.445 161.882 45.445 161.858 45.445Z" fill="#2B2A33"/>
<path d="M162.131 52.1635C163.195 52.0146 163.938 51.0307 163.789 49.9659C163.64 48.9012 162.656 48.1587 161.591 48.3076C160.527 48.4565 159.784 49.4404 159.933 50.5052C160.082 51.5699 161.066 52.3124 162.131 52.1635Z" fill="#2B2A33"/>
<path d="M161.854 52.52H161.83C160.572 52.4962 159.551 51.4754 159.575 50.2172C159.599 48.959 160.62 47.962 161.854 47.962H161.878C163.136 47.9857 164.157 49.0065 164.133 50.2647C164.109 51.5229 163.089 52.52 161.854 52.52ZM161.854 48.6267C160.976 48.6267 160.264 49.3389 160.24 50.2172C160.24 51.0956 160.952 51.8315 161.83 51.8315H161.854C162.732 51.8315 163.445 51.1193 163.468 50.241C163.468 49.3863 162.756 48.6504 161.854 48.6267Z" fill="#2B2A33"/>
<path d="M200.885 62.0148C200.885 63.1781 200.553 64.2464 199.936 65.1485L199.888 65.2197L195.924 70.9884C195.615 71.4394 194.927 71.4394 194.618 70.9646L190.796 65.101L190.749 65.0298C190.179 64.1514 189.87 63.1069 189.87 61.9911C189.894 58.9287 192.434 56.4835 195.497 56.5547C198.464 56.6497 200.862 59.0711 200.885 62.0148Z" fill="#A577FF"/>
<path d="M195.282 71.6535C194.902 71.6535 194.546 71.4636 194.356 71.155L190.486 65.2201C189.869 64.2705 189.561 63.1548 189.561 61.9915C189.584 60.4247 190.202 58.9529 191.341 57.8608C192.481 56.7688 193.952 56.1991 195.543 56.2228C198.653 56.294 201.193 58.8816 201.24 61.9915C201.24 63.1785 200.908 64.318 200.243 65.315L196.231 71.155C195.994 71.4873 195.662 71.6535 195.282 71.6535ZM195.377 56.9113C194.024 56.9113 192.765 57.4098 191.792 58.3594C190.795 59.3327 190.225 60.6146 190.225 62.0153C190.225 63.0361 190.486 64.0094 191.032 64.864L191.08 64.9352L194.902 70.7989C194.973 70.9176 195.116 70.9888 195.258 70.9888C195.4 70.9888 195.543 70.9176 195.638 70.7989L199.65 64.959C200.243 64.1043 200.528 63.0835 200.528 62.0153C200.504 59.2615 198.249 56.9825 195.495 56.9113C195.472 56.9113 195.424 56.9113 195.377 56.9113Z" fill="#2B2A33"/>
<path d="M195.68 64.1349C196.822 63.9674 197.611 62.9062 197.444 61.7646C197.276 60.6231 196.215 59.8335 195.073 60.001C193.932 60.1686 193.142 61.2298 193.31 62.3713C193.477 63.5129 194.538 64.3024 195.68 64.1349Z" fill="#2B2A33"/>
<path d="M195.376 64.485H195.353C194.023 64.4612 192.955 63.3692 192.955 62.0398C192.979 60.7104 194.047 59.6421 195.376 59.6421H195.4C196.729 59.6658 197.798 60.7578 197.798 62.0873C197.798 63.4167 196.706 64.485 195.376 64.485ZM195.376 60.3305C194.427 60.3305 193.643 61.0902 193.643 62.0635C193.643 63.0131 194.403 63.8202 195.376 63.8202H195.4C196.35 63.8202 197.133 63.0606 197.133 62.0873C197.133 61.1139 196.373 60.3305 195.376 60.3305C195.4 60.3305 195.4 60.3305 195.376 60.3305Z" fill="#2B2A33"/>
<path d="M244.515 85.7073C245.109 85.7073 245.607 86.1821 245.607 86.7993C245.607 87.3928 245.133 87.8913 244.515 87.8913C243.922 87.8913 243.423 87.4166 243.423 86.7993C243.447 86.1821 243.922 85.7073 244.515 85.7073Z" fill="#C4C6FC"/>
<path d="M252.78 77.6607C250.62 75.358 247.7 74.076 244.567 74.076C241.433 74.076 238.513 75.358 236.353 77.6607C236.115 77.9219 236.115 78.3492 236.376 78.5866C236.638 78.824 237.065 78.824 237.302 78.5628C239.201 76.5212 241.789 75.4055 244.567 75.4055C247.344 75.4055 249.908 76.5212 251.831 78.5628C251.95 78.7053 252.139 78.7765 252.306 78.7765C252.472 78.7765 252.614 78.729 252.757 78.6103C252.994 78.3492 253.018 77.9219 252.78 77.6607Z" fill="#C4C6FC"/>
<path d="M250.36 80.3686C248.769 78.7543 246.704 77.876 244.544 77.876C242.383 77.876 240.318 78.7543 238.728 80.3686C238.466 80.6298 238.466 81.0333 238.728 81.2945C238.989 81.5556 239.392 81.5556 239.653 81.2945C241.007 79.9413 242.74 79.2054 244.52 79.2054C246.324 79.2054 248.057 79.9413 249.387 81.2945C249.505 81.4132 249.671 81.4844 249.861 81.4844C250.028 81.4844 250.194 81.4132 250.312 81.2945C250.621 81.0333 250.621 80.6298 250.36 80.3686Z" fill="#C4C6FC"/>
<path d="M247.749 83.073C246.894 82.2184 245.683 81.6961 244.568 81.6961H244.52C243.405 81.6961 242.194 82.2184 241.339 83.073C241.078 83.3342 241.078 83.7377 241.339 83.9989C241.458 84.1176 241.648 84.1888 241.814 84.1888C241.98 84.1888 242.146 84.1176 242.265 83.9989C242.882 83.4054 243.761 83.0018 244.52 83.0018H244.568C245.327 83.0018 246.229 83.3816 246.823 83.9989C247.084 84.26 247.488 84.26 247.749 83.9989C248.01 83.7615 248.01 83.3342 247.749 83.073Z" fill="#C4C6FC"/>
<path d="M216.956 102.136L218.38 101.4C219.164 100.996 219.828 100.403 220.327 99.6669C220.92 98.7648 221.229 97.7203 221.205 96.652L221.11 92.4026L216.695 90.7171H216.623L212.279 92.5925L212.374 96.8419C212.398 97.9102 212.754 98.9547 213.395 99.8331C213.917 100.545 214.606 101.115 215.413 101.471L216.885 102.136H216.956Z" fill="#A577FF"/>
<path d="M216.027 98.1951C215.932 98.1951 215.86 98.1714 215.789 98.1002L214.555 96.9369C214.412 96.8182 214.412 96.6046 214.555 96.4621C214.674 96.3197 214.887 96.3197 215.03 96.4621L216.003 97.4117L218.448 94.8004C218.567 94.6579 218.78 94.6579 218.923 94.7766C219.065 94.8953 219.065 95.109 218.947 95.2514L216.264 98.1002C216.217 98.1476 216.145 98.1951 216.027 98.1951C216.05 98.1951 216.05 98.1951 216.027 98.1951Z" fill="white"/>
<path d="M269.42 143.727L271.225 136.486L258.381 133.281L253.467 136.249L252.636 139.525L253.372 136.605L252.565 139.881L255.509 144.795L268.352 148L270.156 140.783" fill="#A577FF"/>
<path d="M267.597 145.959L254.303 142.635L251.193 137.46L252.166 133.543L257.341 130.433L270.636 133.757L268.76 141.306L267.597 145.959ZM254.706 142.042L267.075 145.128L268.808 138.22L269.805 134.255L257.436 131.169L252.76 133.971L251.929 137.342L254.706 142.042Z" fill="white"/>
<path d="M255.604 137.722C255.51 137.722 255.415 137.722 255.32 137.674C254.655 137.508 254.275 136.843 254.441 136.202C254.512 135.894 254.726 135.609 254.987 135.443C255.272 135.276 255.604 135.229 255.913 135.3C256.578 135.466 256.958 136.131 256.791 136.772C256.649 137.342 256.15 137.722 255.604 137.722ZM255.462 137.009C255.747 137.081 256.056 136.914 256.127 136.606C256.198 136.321 256.032 136.012 255.723 135.941C255.581 135.917 255.438 135.917 255.32 136.012C255.201 136.084 255.106 136.202 255.082 136.345C254.987 136.653 255.177 136.938 255.462 137.009Z" fill="white"/>
<path d="M237.991 140.214C237.255 140.214 236.495 140.096 235.688 139.858C233.029 139.027 231.581 136.938 231.368 133.686C231.201 131.003 231.914 128.012 232.412 125.804L232.46 125.638C233.029 123.217 232.65 121.009 231.344 119.252C229.943 117.377 227.641 116.214 224.839 116.024C222.37 115.857 220.02 116.712 217.741 117.543C215.011 118.54 212.162 119.585 209.076 118.849C206.489 118.255 203.165 116.095 201.337 113.84L201.859 113.412C203.569 115.525 206.797 117.638 209.219 118.184C212.115 118.872 214.726 117.899 217.504 116.902C219.83 116.047 222.252 115.169 224.863 115.335C227.854 115.549 230.347 116.783 231.866 118.825C233.291 120.748 233.694 123.145 233.101 125.757L233.053 125.923C232.032 130.244 230.347 137.46 235.854 139.17C239.178 140.214 241.623 138.647 244.211 137.009C244.875 136.582 245.54 136.155 246.252 135.775C247.795 134.92 249.647 134.73 251.594 135.229L251.428 135.894C249.647 135.443 247.985 135.609 246.585 136.368C245.896 136.748 245.232 137.176 244.567 137.579C242.573 138.909 240.507 140.214 237.991 140.214Z" fill="white"/>
<path d="M199.189 126.389C199.841 126.389 200.467 126.128 200.929 125.664C201.391 125.2 201.65 124.571 201.65 123.915V78.5352C201.65 77.879 201.391 77.2497 200.929 76.7857C200.467 76.3217 199.841 76.061 199.189 76.061H124.03C123.377 76.061 122.751 76.3217 122.29 76.7857C121.828 77.2497 121.569 77.879 121.569 78.5352V123.915C121.569 124.571 121.828 125.2 122.29 125.664C122.751 126.128 123.377 126.389 124.03 126.389" fill="white"/>
<path d="M199.086 126.706C199.849 126.706 200.581 126.401 201.121 125.86C201.661 125.319 201.965 124.584 201.966 123.818V78.2114H201.537V78.6352H201.963C201.963 77.8686 201.659 77.1333 201.119 76.5913C200.579 76.0492 199.846 75.7446 199.082 75.7446H124.132C123.368 75.7446 122.635 76.0492 122.095 76.5913C121.555 77.1333 121.251 77.8686 121.251 78.6352V123.818C121.251 124.198 121.326 124.573 121.471 124.924C121.616 125.274 121.828 125.593 122.095 125.861C122.363 126.129 122.68 126.342 123.03 126.487C123.379 126.632 123.754 126.706 124.132 126.706V125.855C123.593 125.855 123.077 125.64 122.696 125.258C122.315 124.877 122.1 124.359 122.099 123.818V78.6352C122.101 78.0948 122.316 77.577 122.697 77.1949C123.077 76.8128 123.593 76.5973 124.132 76.5956H199.082C199.621 76.5973 200.137 76.8128 200.517 77.1949C200.898 77.577 201.113 78.0948 201.115 78.6352V79.0623V123.818C201.114 124.359 200.899 124.877 200.518 125.258C200.137 125.64 199.621 125.855 199.082 125.855V126.706H199.086Z" fill="#2B2A33"/>
<path d="M107.638 138.416V140.061C107.639 140.548 107.822 141.015 108.147 141.359C108.471 141.703 108.912 141.897 109.371 141.898H214.16C214.619 141.897 215.059 141.703 215.384 141.359C215.708 141.014 215.89 140.547 215.89 140.061V138.416" fill="white"/>
<path d="M107.321 138.417V140.006C107.321 140.592 107.548 141.154 107.951 141.568C108.355 141.983 108.902 142.215 109.473 142.215H214.054C214.625 142.215 215.172 141.983 215.576 141.568C215.979 141.154 216.206 140.592 216.206 140.006V138.417H215.358V140.006C215.353 140.36 215.215 140.698 214.971 140.948C214.727 141.198 214.398 141.34 214.054 141.345H109.473C109.126 141.345 108.792 141.204 108.545 140.954C108.298 140.703 108.157 140.363 108.153 140.006V138.417H107.321Z" fill="#2B2A33"/>
<path d="M214.571 139.683C214.843 139.683 215.108 139.6 215.33 139.446C215.552 139.292 215.721 139.075 215.813 138.824C215.904 138.573 215.915 138.301 215.843 138.044C215.771 137.786 215.621 137.557 215.411 137.387L202.177 126.684C201.94 126.494 201.643 126.389 201.337 126.389H122.191C121.885 126.389 121.588 126.494 121.351 126.684L108.117 137.387C107.908 137.557 107.757 137.786 107.685 138.044C107.613 138.301 107.624 138.573 107.716 138.824C107.808 139.075 107.976 139.292 108.198 139.446C108.42 139.6 108.685 139.683 108.957 139.683H214.571Z" fill="white"/>
<path d="M214.46 139.574V139.996C214.708 139.997 214.953 139.946 215.179 139.846C215.493 139.709 215.756 139.481 215.935 139.192C216.112 138.912 216.205 138.59 216.206 138.26C216.206 138.016 216.153 137.776 216.051 137.554C215.939 137.316 215.774 137.106 215.569 136.939L202.363 126.151C202.05 125.897 201.658 125.757 201.253 125.756H122.274C121.869 125.757 121.477 125.897 121.164 126.151L107.958 136.939C107.753 137.106 107.588 137.316 107.476 137.554C107.374 137.776 107.321 138.016 107.321 138.26C107.321 138.703 107.49 139.13 107.793 139.457C107.956 139.629 108.153 139.767 108.373 139.86C108.592 139.953 108.829 140.001 109.067 139.999H214.46V139.159H109.061C108.932 139.16 108.805 139.135 108.688 139.084C108.53 139.014 108.397 138.901 108.305 138.757C108.213 138.61 108.163 138.44 108.163 138.267C108.163 138.144 108.189 138.023 108.239 137.91C108.296 137.784 108.382 137.672 108.49 137.583L121.696 126.795C121.855 126.664 122.056 126.592 122.264 126.593H201.247C201.454 126.593 201.655 126.665 201.815 126.795L215.021 137.583C215.129 137.671 215.215 137.783 215.272 137.91C215.324 138.022 215.351 138.144 215.351 138.267C215.351 138.498 215.262 138.721 215.103 138.891C215.026 138.976 214.932 139.044 214.826 139.091C214.708 139.141 214.581 139.166 214.453 139.166L214.46 139.574Z" fill="#2B2A33"/>
<path d="M161.674 134.935H198.793L192.753 127.971H161.674H161.529H130.45L124.409 134.935H161.529H161.674Z" fill="white"/>
<path d="M161.508 135.143V135.567H198.668C198.752 135.571 198.834 135.55 198.905 135.506C198.976 135.463 199.033 135.4 199.069 135.325C199.104 135.249 199.116 135.165 199.104 135.083C199.091 135.001 199.055 134.924 198.998 134.863L192.949 128.113C192.91 128.068 192.862 128.032 192.808 128.008C192.754 127.983 192.695 127.971 192.635 127.971H130.261C130.199 127.969 130.137 127.981 130.08 128.005C130.023 128.03 129.972 128.067 129.931 128.113L123.885 134.863C123.829 134.923 123.793 134.998 123.78 135.079C123.767 135.16 123.778 135.243 123.812 135.317C123.846 135.391 123.9 135.454 123.969 135.498C124.037 135.543 124.117 135.567 124.198 135.567H161.508V134.721H125.163L130.446 128.817H192.424L197.707 134.721H161.508V135.143Z" fill="#2B2A33"/>
<path d="M197.222 79.5428H126.003V123.224H197.222V79.5428Z" fill="white"/>
<path d="M197.106 123.433H197.53V79.3367C197.529 79.2238 197.484 79.1157 197.405 79.0359C197.325 78.956 197.218 78.9108 197.106 78.9099H126.1C125.988 78.9117 125.881 78.9573 125.803 79.037C125.724 79.1168 125.679 79.2244 125.678 79.3367V123.433C125.678 123.546 125.723 123.653 125.802 123.733C125.881 123.812 125.988 123.857 126.1 123.857H197.106C197.217 123.856 197.325 123.812 197.405 123.734C197.484 123.654 197.529 123.546 197.53 123.433H197.106V123.007H126.524V79.7635H196.685V123.433H197.106Z" fill="#2B2A33"/>
<path d="M169.754 99.8448C169.538 99.3147 169.187 98.8549 168.738 98.514C168.29 98.173 167.761 97.9636 167.207 97.9078C166.653 97.852 166.095 97.9519 165.591 98.197C165.088 98.442 164.657 98.8231 164.346 99.3C164.161 99.5826 164.023 99.8956 163.939 100.226H159.594C159.565 100.095 159.524 99.9675 159.471 99.8448C159.423 99.7289 159.365 99.6172 159.3 99.5105L160.852 97.9063C161.32 98.1836 161.851 98.3289 162.39 98.3274C162.803 98.329 163.213 98.2437 163.593 98.0768C164.158 97.8351 164.641 97.4252 164.981 96.8992C165.32 96.3732 165.501 95.7548 165.5 95.1224C165.498 94.6966 165.416 94.2754 165.258 93.8824C164.987 93.1921 164.492 92.6211 163.858 92.2682C163.223 91.9153 162.489 91.8027 161.783 91.9497C161.077 92.0968 160.442 92.4943 159.99 93.0736C159.537 93.6529 159.294 94.3776 159.303 95.1224C159.302 95.5508 159.386 95.975 159.549 96.369C159.591 96.4692 159.639 96.5728 159.688 96.6664L158.117 98.2907C157.647 98.0239 157.117 97.8882 156.581 97.8969C156.045 97.9056 155.52 98.0584 155.059 98.3402C154.597 98.6221 154.214 99.0233 153.947 99.5045C153.681 99.9857 153.54 100.53 153.539 101.085C153.54 101.769 153.752 102.434 154.146 102.984C154.539 103.534 155.093 103.938 155.725 104.138C156.358 104.339 157.036 104.324 157.659 104.096C158.283 103.868 158.82 103.439 159.19 102.873C159.377 102.592 159.516 102.28 159.601 101.95H163.939C163.973 102.08 164.016 102.208 164.068 102.331C164.11 102.433 164.158 102.532 164.21 102.629L162.636 104.253C162.179 103.994 161.667 103.858 161.146 103.859C160.732 103.859 160.322 103.944 159.94 104.109C159.186 104.441 158.59 105.068 158.282 105.853C157.975 106.637 157.98 107.516 158.298 108.297C158.533 108.866 158.921 109.353 159.416 109.701C159.927 110.057 160.53 110.246 161.146 110.245C161.559 110.247 161.969 110.161 162.348 109.991C162.906 109.745 163.382 109.335 163.717 108.813C164.053 108.29 164.233 107.678 164.236 107.05C164.235 106.624 164.151 106.203 163.99 105.81C163.94 105.691 163.884 105.573 163.822 105.459L165.371 103.859C165.931 104.192 166.579 104.336 167.223 104.268C167.866 104.201 168.473 103.926 168.957 103.483C169.442 103.04 169.779 102.45 169.922 101.798C170.065 101.146 170.007 100.464 169.754 99.8481V99.8448ZM161.081 94.5475C161.19 94.2855 161.369 94.0615 161.598 93.9025C161.794 93.7645 162.02 93.6795 162.255 93.6556C162.491 93.6316 162.729 93.6694 162.946 93.7655C163.202 93.8768 163.421 94.0626 163.577 94.3002C163.734 94.5423 163.817 94.8275 163.816 95.119C163.819 95.3176 163.781 95.5145 163.706 95.6972C163.633 95.8753 163.527 96.0367 163.394 96.1724C163.261 96.3081 163.103 96.4153 162.93 96.488C162.757 96.5606 162.572 96.5972 162.385 96.5957C162.198 96.5942 162.013 96.5547 161.841 96.4793C161.585 96.3671 161.367 96.1815 161.21 95.9445C161.053 95.7016 160.97 95.4148 160.974 95.1224C160.973 94.9253 161.009 94.7299 161.081 94.5475V94.5475ZM157.936 101.663C157.826 101.924 157.647 102.148 157.418 102.308C157.183 102.473 156.905 102.562 156.62 102.562C156.43 102.56 156.242 102.521 156.067 102.445C155.806 102.336 155.581 102.15 155.421 101.91C155.263 101.666 155.18 101.378 155.181 101.085C155.181 100.888 155.219 100.694 155.295 100.513C155.401 100.249 155.581 100.023 155.811 99.8632C156.041 99.7034 156.311 99.6168 156.588 99.6142C156.777 99.6131 156.966 99.6517 157.14 99.7278C157.396 99.8405 157.615 100.027 157.771 100.266C157.903 100.469 157.984 100.704 158.007 100.947C158.029 101.191 157.993 101.437 157.9 101.663H157.936ZM162.461 107.625C162.353 107.892 162.171 108.12 161.938 108.28C161.705 108.44 161.432 108.527 161.152 108.528C160.919 108.526 160.689 108.466 160.483 108.353C160.277 108.239 160.1 108.076 159.969 107.876C159.809 107.632 159.725 107.345 159.727 107.05C159.726 106.854 159.764 106.659 159.84 106.479C159.948 106.212 160.13 105.983 160.364 105.823C160.598 105.663 160.872 105.579 161.152 105.58C161.342 105.579 161.53 105.618 161.705 105.693C161.963 105.806 162.184 105.994 162.338 106.236C162.493 106.477 162.575 106.761 162.575 107.05C162.572 107.249 162.529 107.445 162.448 107.625H162.461ZM168.232 101.663C168.122 101.929 167.94 102.155 167.707 102.315C167.475 102.475 167.202 102.561 166.922 102.562C166.732 102.561 166.543 102.521 166.366 102.445C166.112 102.334 165.894 102.148 165.739 101.91C165.579 101.667 165.495 101.379 165.497 101.085C165.496 100.888 165.534 100.694 165.61 100.513C165.718 100.251 165.897 100.026 166.124 99.8648C166.321 99.7287 166.547 99.645 166.783 99.6211C167.019 99.5972 167.256 99.6339 167.475 99.7278C167.73 99.8424 167.948 100.029 168.106 100.266C168.261 100.509 168.344 100.793 168.345 101.085C168.342 101.284 168.299 101.481 168.219 101.663H168.232Z" fill="black"/>
<path d="M199.86 131.454H196.628L199.335 134.712C199.392 134.779 199.429 134.862 199.441 134.951C199.454 135.04 199.441 135.131 199.406 135.212C199.371 135.294 199.313 135.362 199.242 135.409C199.17 135.456 199.087 135.479 199.004 135.475H133.312L131.375 137.468H205.759L199.86 131.461" fill="#C3C4FD"/>
<path d="M195.272 131.454H168.52H168.375H137.258L134.223 134.619H161.444H161.59H197.845L195.272 131.454Z" fill="#C3C4FD"/>
<path d="M196.298 131.454H195.158L197.728 134.631H134.174L133.279 135.568H198.676C198.759 135.572 198.842 135.548 198.913 135.501C198.984 135.453 199.041 135.383 199.076 135.299C199.112 135.216 199.124 135.123 199.111 135.032C199.099 134.941 199.062 134.856 199.006 134.788L196.311 131.454" fill="#2B2A33"/>
<path d="M199.843 131.454H196.399L196.552 131.625H199.773L205.655 137.293H168.646H168.5H131.491L133.436 135.419H133.188L131.065 137.468H168.5H168.646H206.082L199.843 131.454Z" fill="#C3C5FD"/>
<path d="M195.161 131.454H168.651H168.506H137.429L134.223 134.619H134.47L137.495 131.629H168.506H168.651H195.312L195.161 131.454Z" fill="#C3C5FD"/>
<path d="M134.422 134.672H134.174L133.279 135.569H133.526L134.422 134.672ZM196.432 131.454H195.292L195.444 131.632H196.584L196.432 131.454Z" fill="black"/>
</svg>
