<svg width="320" height="160" viewBox="0 0 320 160" fill="none" xmlns="http://www.w3.org/2000/svg">
<path d="M215.493 126.243C212.243 126.873 208.637 126.243 205.624 124.972C203.652 124.141 201.592 122.709 199.485 122.32C197.312 121.92 194.952 122.655 192.876 123.216C190.882 123.753 188.64 124.47 186.945 122.994C185.49 121.739 184.979 119.305 184.577 117.089C184.176 114.872 183.78 112.698 183.382 110.505C183.228 109.662 183.074 108.791 183.187 107.94C183.306 107.044 187.632 108.031 188.098 107.363C189.436 105.438 187.378 102.541 189.231 101.569C190.834 100.727 192.501 99.9563 194.228 99.9563C195.656 99.9563 197.049 100.48 198.419 101.001L205.349 103.632C206.069 103.904 206.79 104.186 207.398 104.756C207.91 105.234 208.299 105.894 208.729 106.496C211.251 110.044 215.16 111.84 217.013 116.03C217.959 118.166 218.371 120.935 218.528 123.377C218.643 125.155 217.139 125.922 215.493 126.243Z" fill="#9E7455"/>
<path d="M143.257 53.2382C141.667 52.6324 139.574 51.7077 137.924 51.3099C136.991 51.0859 135.943 51.111 135.136 51.6235C132.763 53.127 134.378 56.394 135.758 57.9926C138.364 61.0122 141.769 63.3276 145.238 65.2451" fill="#9E7455"/>
<path d="M143.257 53.2382C141.667 52.6324 139.574 51.7077 137.924 51.3099C136.991 51.0859 135.943 51.111 135.136 51.6235C132.763 53.127 134.378 56.394 135.758 57.9926C138.364 61.0122 141.769 63.3276 145.238 65.2451" stroke="black" stroke-width="0.548051" stroke-miterlimit="10"/>
<path d="M190.542 104.713L164.865 109.892C164.865 109.892 169.187 115.731 180.929 116.473L185.194 120.763" fill="#9E7455"/>
<path d="M190.542 104.713L164.865 109.892C164.865 109.892 169.187 115.731 180.929 116.473L185.194 120.763" stroke="black" stroke-width="0.548051" stroke-miterlimit="10"/>
<path d="M195.149 99.2566L183.175 33.2613C182.935 31.9407 182.177 30.769 181.069 30.0039C179.961 29.2387 178.593 28.9426 177.266 29.1807L144.967 34.9871C143.639 35.2257 142.462 35.9792 141.693 37.0819C140.924 38.1846 140.626 39.5461 140.866 40.8669L152.846 106.86C153.086 108.181 153.843 109.353 154.951 110.119C156.059 110.885 157.427 111.181 158.755 110.943L191.054 105.136C192.38 104.897 193.556 104.143 194.324 103.04C195.092 101.938 195.389 100.577 195.149 99.2566Z" fill="white" stroke="black" stroke-width="0.548051" stroke-miterlimit="10"/>
<path d="M145.274 91.2715C145.721 91.3575 146.16 91.4847 146.596 91.6102C149.031 92.3163 148.233 92.1299 150.668 92.836C153.402 93.6263 155.57 97.2463 153.301 99.6459C150.518 102.587 147.34 100.9 144.235 99.8251C142.614 99.2642 141.202 98.4452 140.633 96.723C139.834 94.3162 141.316 91.327 144.014 91.1675C144.436 91.1494 144.86 91.1843 145.274 91.2715Z" fill="#9E7455" stroke="black" stroke-width="0.548051" stroke-miterlimit="10"/>
<path d="M185.946 102.476L159.361 107.329C158.686 107.452 157.989 107.304 157.423 106.917C156.857 106.53 156.468 105.936 156.341 105.264L144.084 40.5701C144.022 40.2494 144.024 39.9193 144.093 39.5996C144.161 39.28 144.293 38.9773 144.482 38.7097C144.67 38.442 144.911 38.2149 145.189 38.0419C145.468 37.8689 145.779 37.7536 146.103 37.7028V37.7028L149.946 37.0146C150.133 36.9805 150.325 37.0128 150.49 37.1059C150.654 37.199 150.781 37.3469 150.847 37.5236C151.16 38.3694 151.762 39.0785 152.548 39.5262C153.335 39.9739 154.254 40.1316 155.146 39.9716L169.589 37.3748C170.476 37.2158 171.279 36.752 171.858 36.0643C172.437 35.3766 172.755 34.5085 172.757 33.6114V33.6114C172.757 33.4184 172.825 33.2315 172.949 33.0834C173.074 32.9353 173.246 32.8355 173.437 32.8014L176.481 32.253C176.861 32.1823 177.252 32.1874 177.631 32.268C178.01 32.3486 178.368 32.5031 178.687 32.7226C179.005 32.9421 179.276 33.2222 179.485 33.5467C179.694 33.8712 179.836 34.2337 179.903 34.6132L182.343 48.3854" stroke="black" stroke-width="0.548051" stroke-miterlimit="10"/>
<path d="M142.039 72.3052C142.484 72.3913 142.925 72.5185 143.361 72.644L150.664 74.7586C153.398 75.5507 155.566 79.1689 153.297 81.5685C150.514 84.5094 144.112 81.927 140.998 80.8517C139.378 80.2908 137.966 79.47 137.397 77.7496C136.597 75.3428 138.077 72.3536 140.775 72.1941C141.2 72.1791 141.624 72.2164 142.039 72.3052V72.3052Z" fill="#9E7455" stroke="black" stroke-width="0.548051" stroke-miterlimit="10"/>
<path d="M142.039 81.2039C142.484 81.29 142.925 81.4172 143.361 81.5426L150.664 83.6573C153.398 84.4494 155.566 88.0676 153.297 90.4672C150.514 93.408 144.112 90.8346 140.998 89.7504C139.378 89.1895 137.966 88.3705 137.397 86.6483C136.597 84.2415 138.077 81.2523 140.775 81.0928C141.2 81.0769 141.624 81.1142 142.039 81.2039V81.2039Z" fill="#9E7455" stroke="black" stroke-width="0.548051" stroke-miterlimit="10"/>
<path d="M219.031 123.425L218.08 119.48C218 118.49 206.733 91.0517 205.5 87.6743C204.268 84.2968 195.541 66.9894 195.541 66.9894C194.272 64.447 193.594 61.6085 193.178 58.819C193.178 58.819 192.419 53.2384 192.193 49.8472C192.101 48.4617 190.142 47.5467 188.824 48.0041C187.108 48.5985 185.667 49.7886 184.872 52.2079C184.581 53.1238 184.5 54.093 184.635 55.0442L186.887 84.2607C179.065 103.33 194.012 112.338 194.012 112.338" fill="#9E7455"/>
<path d="M219.031 123.425L218.08 119.48C218 118.49 206.733 91.0517 205.5 87.6743C204.268 84.2968 195.541 66.9894 195.541 66.9894C194.272 64.447 193.594 61.6085 193.178 58.819C193.178 58.819 192.419 53.2384 192.193 49.8472C192.101 48.4617 190.142 47.5467 188.824 48.0041C187.108 48.5985 185.667 49.7886 184.872 52.2079C184.581 53.1238 184.5 54.093 184.635 55.0442L186.887 84.2607C179.065 103.33 194.012 112.338 194.012 112.338" stroke="black" stroke-width="0.548051" stroke-miterlimit="10"/>
<path d="M173.233 73.6831L164.294 75.296C163.839 75.3867 163.372 75.3864 162.918 75.2952C162.464 75.2039 162.032 75.0236 161.649 74.7646C161.266 74.5056 160.938 74.1733 160.686 73.7869C160.433 73.4006 160.26 72.968 160.177 72.5145C160.094 72.0609 160.103 71.5955 160.203 71.1454C160.303 70.6953 160.492 70.2695 160.76 69.893C161.027 69.5164 161.367 69.1966 161.76 68.9523C162.152 68.708 162.59 68.544 163.047 68.4699L171.987 66.857V66.8893C171.126 67.0011 170.34 67.4344 169.789 68.1013C169.237 68.7682 168.96 69.619 169.015 70.4811C169.07 71.3433 169.452 72.1524 170.084 72.7446C170.717 73.3368 171.551 73.6678 172.419 73.6705C172.685 73.6707 172.95 73.6394 173.208 73.5774L173.233 73.6831Z" fill="#54FFBD"/>
<path d="M173.235 73.6832L173.17 73.3248L164.23 74.9376C164.044 74.9725 163.856 74.9899 163.666 74.9896C162.935 74.9877 162.227 74.7311 161.666 74.2643C161.105 73.7975 160.726 73.15 160.594 72.4341C160.561 72.249 160.544 72.0613 160.544 71.8732C160.545 71.1451 160.802 70.4403 161.271 69.8817C161.741 69.323 162.392 68.9459 163.112 68.8159L172.053 67.203C172.501 67.1219 172.962 67.1393 173.403 67.2538C173.844 67.3683 174.254 67.5773 174.605 67.8661C175.173 68.3337 175.556 68.9864 175.686 69.7083C175.767 70.1543 175.75 70.6127 175.635 71.0513C175.52 71.4899 175.31 71.8983 175.019 72.2477C174.55 72.8132 173.894 73.1943 173.168 73.323L173.233 73.6814L173.298 74.0398C174.184 73.8799 174.985 73.4156 175.563 72.7278C176.14 72.0401 176.456 71.1725 176.456 70.2764C176.456 70.0457 176.436 69.8154 176.395 69.5883C176.234 68.707 175.767 67.91 175.076 67.3357C174.385 66.7615 173.514 66.4463 172.613 66.4449C172.381 66.4449 172.15 66.4653 171.922 66.5059L162.98 68.1187C162.095 68.2796 161.294 68.7442 160.717 69.4318C160.14 70.1193 159.823 70.9863 159.822 71.8821C159.821 72.113 159.842 72.3433 159.885 72.5703C160.046 73.4519 160.513 74.2493 161.204 74.8239C161.894 75.3985 162.766 75.714 163.666 75.7154C163.898 75.7148 164.13 75.6938 164.358 75.6527L173.299 74.0398L173.235 73.6832Z" fill="black"/>
<path d="M175.965 69.6631L175.605 69.7258C175.639 69.9109 175.657 70.0986 175.657 70.2868C175.656 71.0149 175.399 71.7196 174.93 72.2782C174.46 72.8369 173.809 73.214 173.089 73.3441C172.903 73.3774 172.714 73.3942 172.525 73.3942C171.931 73.3939 171.348 73.2249 170.847 72.907C170.345 72.5891 169.945 72.1355 169.693 71.5993C169.441 71.0631 169.348 70.4666 169.425 69.8798C169.502 69.2929 169.745 68.7399 170.126 68.2857C170.508 67.8315 171.011 67.4949 171.578 67.3153C172.145 67.1357 172.751 67.1206 173.326 67.2718C173.901 67.4229 174.421 67.7341 174.824 68.1687C175.228 68.6034 175.499 69.1435 175.605 69.7258L175.965 69.6631L176.325 69.5986C176.164 68.717 175.697 67.9196 175.006 67.345C174.315 66.7704 173.444 66.4549 172.543 66.4535C172.312 66.4542 172.08 66.4751 171.852 66.5162C170.966 66.6761 170.164 67.1404 169.587 67.8282C169.01 68.5159 168.693 69.3835 168.693 70.2796C168.693 70.5103 168.714 70.7406 168.754 70.9678C168.916 71.849 169.383 72.646 170.074 73.2203C170.765 73.7945 171.636 74.1097 172.536 74.1111C172.768 74.1111 173 74.0907 173.228 74.0501C174.113 73.889 174.914 73.4244 175.492 72.7369C176.069 72.0495 176.386 71.1826 176.388 70.2868C176.388 70.056 176.367 69.8257 176.325 69.5986L175.965 69.6631Z" fill="black"/>
<path fill-rule="evenodd" clip-rule="evenodd" d="M162.655 49.091C163.094 47.7615 164.854 47.4773 165.691 48.6005L172.957 58.3403C173.736 59.3846 173.121 60.8803 171.831 61.0791L160.785 62.7811C159.506 62.9782 158.469 61.7584 158.874 60.5328L162.655 49.091ZM166.876 59.3194C166.955 59.8298 166.604 60.3075 166.092 60.3864C165.581 60.4653 165.101 60.1154 165.022 59.605C164.943 59.0946 165.294 58.6169 165.806 58.538C166.318 58.4591 166.797 58.809 166.876 59.3194ZM164.708 51.4524C164.196 51.5313 163.845 52.009 163.924 52.5195L164.497 56.2162C164.576 56.7267 165.055 57.0765 165.567 56.9976C166.079 56.9187 166.43 56.441 166.351 55.9306L165.778 52.2338C165.699 51.7234 165.22 51.3736 164.708 51.4524Z" fill="white"/>
<path d="M162.759 49.1253C163.17 47.8804 164.819 47.6137 165.603 48.666L172.869 58.4058C173.599 59.3836 173.023 60.7845 171.814 60.9708L160.768 62.6728C159.569 62.8575 158.599 61.7145 158.978 60.5671L162.759 49.1253ZM165.584 57.106L165.567 56.9976L165.584 57.106C166.155 57.0179 166.548 56.4844 166.459 55.9138L165.886 52.217C165.798 51.6466 165.263 51.2561 164.691 51.3441C164.12 51.4322 163.727 51.9657 163.816 52.5363L164.389 56.233C164.477 56.8035 165.013 57.194 165.584 57.106ZM166.109 60.4947C166.681 60.4067 167.073 59.8731 166.984 59.3026C166.896 58.7321 166.361 58.3416 165.789 58.4297C165.218 58.5177 164.826 59.0513 164.914 59.6218C165.002 60.1923 165.538 60.5828 166.109 60.4947Z" fill="#D50A2E" stroke="black" stroke-width="0.21922"/>
<path d="M125.544 109.249H57.4644C58.6197 102.722 64.3536 97.7298 71.2429 97.7298C71.414 97.7298 71.5852 97.7298 71.7991 97.7298C75.2652 91.6288 81.8121 87.4903 89.3432 87.4903C98.4575 87.4903 106.16 93.5487 108.642 101.826C110.439 100.162 112.835 99.1804 115.488 99.1804C121.008 99.1804 125.544 103.703 125.544 109.249Z" fill="#A883F8"/>
<path d="M107.39 115.136H38L38.1283 114.413C39.369 107.479 45.401 102.459 52.5025 102.459C52.5453 102.459 52.6309 102.459 52.6737 102.459C56.3955 96.163 63.1976 92.2493 70.5558 92.2493C79.3686 92.2493 87.2829 97.9072 90.1492 106.117C92.0315 104.671 94.2989 103.905 96.6518 103.905C102.555 103.905 107.347 108.67 107.347 114.54V115.136H107.39ZM39.4545 113.902H106.149C105.85 109.01 101.7 105.096 96.6946 105.096C94.2989 105.096 92.0315 105.99 90.2775 107.606L89.5503 108.244L89.2508 107.308C86.8123 99.1408 79.1119 93.4405 70.513 93.4405C63.4543 93.4405 56.9517 97.2265 53.4865 103.352L53.3154 103.693H52.9303C52.7592 103.693 52.5881 103.693 52.417 103.693C46.2138 103.65 40.8663 107.904 39.4545 113.902Z" fill="white"/>
<path d="M254.989 43.3592H206.834C207.636 38.7304 211.687 35.2378 216.583 35.2378C216.71 35.2378 216.836 35.2378 216.963 35.2378C219.411 30.9035 224.053 28 229.371 28C235.828 28 241.273 32.2922 243.003 38.1413C244.269 36.9631 245.957 36.2477 247.814 36.2477C251.781 36.2477 254.989 39.4458 254.989 43.3592Z" fill="#A883F8"/>
<path d="M281.586 55.3103H251.706C252.212 52.4489 254.744 50.2607 257.741 50.2607C257.825 50.2607 257.91 50.2607 257.994 50.2607C259.513 47.5676 262.383 45.7581 265.717 45.7581C269.727 45.7581 273.103 48.4092 274.2 52.0702C275.002 51.3548 276.057 50.8919 277.197 50.8919C279.603 50.934 281.586 52.9118 281.586 55.3103Z" fill="#A883F8"/>
<path fill-rule="evenodd" clip-rule="evenodd" d="M84.1667 36.2038C83.7229 36.2038 83.3631 36.5629 83.3631 37.006C83.3631 37.449 83.7229 37.8081 84.1667 37.8081C84.6105 37.8081 84.9703 37.449 84.9703 37.006C84.9703 36.5629 84.6105 36.2038 84.1667 36.2038ZM82.8118 37.006C82.8118 36.259 83.4184 35.6534 84.1667 35.6534C84.915 35.6534 85.5217 36.259 85.5217 37.006C85.5217 37.7529 84.915 38.3585 84.1667 38.3585C83.4184 38.3585 82.8118 37.7529 82.8118 37.006Z" fill="white"/>
<path fill-rule="evenodd" clip-rule="evenodd" d="M277.269 127.041C276.825 127.041 276.465 127.4 276.465 127.843C276.465 128.286 276.825 128.645 277.269 128.645C277.713 128.645 278.073 128.286 278.073 127.843C278.073 127.4 277.713 127.041 277.269 127.041ZM275.914 127.843C275.914 127.096 276.521 126.491 277.269 126.491C278.017 126.491 278.624 127.096 278.624 127.843C278.624 128.59 278.017 129.196 277.269 129.196C276.521 129.196 275.914 128.59 275.914 127.843Z" fill="white"/>
<path fill-rule="evenodd" clip-rule="evenodd" d="M197.793 31.5133C197.349 31.5133 196.99 31.8724 196.99 32.3154C196.99 32.7584 197.349 33.1176 197.793 33.1176C198.237 33.1176 198.597 32.7584 198.597 32.3154C198.597 31.8724 198.237 31.5133 197.793 31.5133ZM196.438 32.3154C196.438 31.5684 197.045 30.9629 197.793 30.9629C198.542 30.9629 199.148 31.5684 199.148 32.3154C199.148 33.0624 198.542 33.6679 197.793 33.6679C197.045 33.6679 196.438 33.0624 196.438 32.3154Z" fill="white"/>
<path d="M251.486 98.4297C251.454 98.4297 251.422 98.4234 251.393 98.4113C251.363 98.3991 251.337 98.3812 251.314 98.3588C251.292 98.3363 251.274 98.3096 251.262 98.2802C251.249 98.2508 251.243 98.2193 251.243 98.1875V95.9971C251.248 95.9362 251.275 95.8793 251.32 95.8378C251.365 95.7962 251.424 95.7732 251.485 95.7732C251.546 95.7732 251.605 95.7962 251.65 95.8378C251.695 95.8793 251.722 95.9362 251.727 95.9971V98.1875C251.727 98.2193 251.721 98.2507 251.709 98.2801C251.697 98.3095 251.679 98.3362 251.657 98.3587C251.634 98.3812 251.608 98.399 251.578 98.4112C251.549 98.4234 251.518 98.4297 251.486 98.4297Z" fill="white"/>
<path d="M137.097 132C137.065 132 137.034 131.994 137.004 131.982C136.975 131.969 136.948 131.952 136.926 131.929C136.903 131.907 136.885 131.88 136.873 131.851C136.861 131.821 136.855 131.79 136.855 131.758V129.567C136.859 129.506 136.887 129.45 136.932 129.408C136.977 129.366 137.035 129.343 137.097 129.343C137.158 129.343 137.217 129.366 137.262 129.408C137.306 129.45 137.334 129.506 137.339 129.567V131.758C137.339 131.79 137.333 131.821 137.321 131.85C137.309 131.88 137.291 131.906 137.268 131.929C137.246 131.951 137.219 131.969 137.19 131.982C137.161 131.994 137.129 132 137.097 132Z" fill="white"/>
<path d="M97.4921 76.954C97.4603 76.954 97.4287 76.9478 97.3993 76.9356C97.3698 76.9234 97.3431 76.9056 97.3206 76.8831C97.298 76.8606 97.2802 76.8339 97.268 76.8045C97.2558 76.7751 97.2495 76.7437 97.2495 76.7119V74.5214C97.2541 74.4605 97.2816 74.4036 97.3265 74.3621C97.3713 74.3205 97.4302 74.2975 97.4914 74.2975C97.5526 74.2975 97.6115 74.3205 97.6564 74.3621C97.7012 74.4036 97.7287 74.4605 97.7333 74.5214V76.7119C97.7335 76.7436 97.7274 76.7751 97.7154 76.8044C97.7033 76.8338 97.6856 76.8605 97.6632 76.883C97.6408 76.9055 97.6141 76.9234 97.5847 76.9356C97.5554 76.9477 97.5239 76.954 97.4921 76.954Z" fill="white"/>
<path fill-rule="evenodd" clip-rule="evenodd" d="M251.485 95.9103C251.458 95.9103 251.433 95.9202 251.414 95.9381C251.395 95.9551 251.384 95.9781 251.381 96.0028V98.187C251.381 98.2008 251.383 98.2144 251.389 98.2271C251.394 98.2397 251.402 98.2513 251.411 98.261C251.421 98.2707 251.433 98.2784 251.445 98.2837C251.458 98.2889 251.472 98.2916 251.485 98.2916C251.499 98.2916 251.513 98.2889 251.525 98.2837C251.538 98.2785 251.549 98.2708 251.559 98.2612C251.568 98.2515 251.576 98.2401 251.581 98.2275C251.586 98.2149 251.589 98.2014 251.589 98.1878L251.589 98.187V96.0028C251.586 95.9781 251.574 95.9551 251.556 95.9381C251.537 95.9202 251.511 95.9103 251.485 95.9103ZM251.226 95.7364C251.296 95.6713 251.389 95.6351 251.485 95.6351C251.581 95.6351 251.673 95.6713 251.743 95.7364C251.814 95.8015 251.857 95.8907 251.864 95.9862L251.864 95.9914V98.1867" fill="white"/>
<path fill-rule="evenodd" clip-rule="evenodd" d="M137.105 129.482C137.078 129.482 137.053 129.492 137.034 129.509C137.015 129.526 137.004 129.549 137.001 129.574V131.758C137.001 131.772 137.004 131.786 137.009 131.798C137.014 131.811 137.022 131.823 137.031 131.832C137.041 131.842 137.053 131.85 137.065 131.855C137.078 131.86 137.092 131.863 137.106 131.863C137.119 131.863 137.133 131.86 137.145 131.855C137.158 131.85 137.169 131.842 137.179 131.832C137.188 131.823 137.196 131.811 137.201 131.799C137.206 131.786 137.209 131.773 137.209 131.759L137.209 131.758V129.574C137.206 129.549 137.194 129.526 137.176 129.509C137.157 129.492 137.131 129.482 137.105 129.482ZM136.846 129.308C136.917 129.243 137.009 129.206 137.105 129.206C137.201 129.206 137.293 129.243 137.364 129.308C137.434 129.373 137.477 129.462 137.484 129.558L137.485 129.563V131.758" fill="white"/>
<path fill-rule="evenodd" clip-rule="evenodd" d="M97.4911 74.4346C97.4647 74.4346 97.4392 74.4445 97.4199 74.4625C97.4015 74.4795 97.3899 74.5024 97.387 74.5272V76.7113C97.387 76.7251 97.3897 76.7387 97.395 76.7514C97.4003 76.764 97.408 76.7756 97.4177 76.7853C97.4274 76.795 97.439 76.8027 97.4517 76.8079C97.4644 76.8132 97.478 76.8159 97.4918 76.8159C97.5054 76.8159 97.5189 76.8132 97.5315 76.808C97.5441 76.8028 97.5555 76.7951 97.5651 76.7855C97.5747 76.7758 97.5823 76.7644 97.5875 76.7518C97.5926 76.7392 97.5952 76.7257 97.5952 76.7121L97.5952 76.7113V74.5272C97.5923 74.5024 97.5807 74.4795 97.5623 74.4625C97.543 74.4445 97.5175 74.4346 97.4911 74.4346ZM97.2324 74.2607C97.3028 74.1956 97.3952 74.1594 97.4911 74.1594C97.587 74.1594 97.6794 74.1956 97.7498 74.2607C97.8201 74.3258 97.8632 74.415 97.8704 74.5105L97.8708 74.5157V76.711" fill="white"/>
<path d="M252.824 97.0919C252.824 97.1236 252.818 97.1551 252.806 97.1844C252.794 97.2138 252.777 97.2405 252.754 97.263C252.732 97.2855 252.705 97.3034 252.676 97.3156C252.646 97.3278 252.615 97.3341 252.583 97.3341H250.389C250.328 97.3295 250.271 97.302 250.229 97.2572C250.187 97.2124 250.164 97.1536 250.164 97.0926C250.164 97.0315 250.187 96.9727 250.229 96.9279C250.271 96.8831 250.328 96.8557 250.389 96.8511H252.583C252.647 96.8511 252.708 96.8764 252.754 96.9216C252.799 96.9668 252.824 97.028 252.824 97.0919Z" fill="white"/>
<path d="M138.444 130.663C138.444 130.695 138.438 130.726 138.426 130.756C138.414 130.785 138.396 130.812 138.374 130.834C138.352 130.857 138.325 130.875 138.296 130.887C138.266 130.899 138.235 130.905 138.203 130.905H136.009C135.947 130.901 135.89 130.873 135.849 130.829C135.807 130.784 135.784 130.725 135.784 130.664C135.784 130.603 135.807 130.544 135.849 130.499C135.89 130.454 135.947 130.427 136.009 130.422H138.203C138.267 130.422 138.328 130.448 138.373 130.493C138.419 130.538 138.444 130.599 138.444 130.663Z" fill="white"/>
<path d="M98.8389 75.6172C98.839 75.6489 98.8329 75.6804 98.8209 75.7098C98.8089 75.7391 98.7911 75.7658 98.7687 75.7883C98.7463 75.8109 98.7196 75.8287 98.6903 75.8409C98.6609 75.8531 98.6294 75.8594 98.5976 75.8594H96.4033C96.3423 75.8548 96.2853 75.8273 96.2437 75.7825C96.2021 75.7378 96.179 75.679 96.179 75.6179C96.179 75.5568 96.2021 75.498 96.2437 75.4533C96.2853 75.4085 96.3423 75.381 96.4033 75.3764H98.5976C98.6616 75.3764 98.723 75.4018 98.7682 75.447C98.8135 75.4921 98.8389 75.5534 98.8389 75.6172Z" fill="white"/>
<path fill-rule="evenodd" clip-rule="evenodd" d="M250.383 96.7141H252.582C252.683 96.7141 252.779 96.7539 252.85 96.8249C252.921 96.8957 252.961 96.9918 252.961 97.0921M250.394 96.9892C250.369 96.9921 250.346 97.0037 250.329 97.022C250.311 97.0413 250.301 97.0667 250.301 97.0931C250.301 97.1195 250.311 97.1449 250.329 97.1642C250.346 97.1825 250.369 97.1941 250.394 97.197H252.582C252.596 97.197 252.609 97.1943 252.622 97.1891C252.634 97.1839 252.646 97.1762 252.655 97.1666C252.665 97.1569 252.673 97.1455 252.678 97.1329C252.683 97.1203 252.686 97.1068 252.686 97.0932L252.686 97.0924C252.686 97.0651 252.675 97.0388 252.655 97.0195C252.636 97.0001 252.61 96.9892 252.582 96.9892H250.394Z" fill="white"/>
<path fill-rule="evenodd" clip-rule="evenodd" d="M136.011 130.283H138.211C138.311 130.283 138.408 130.323 138.479 130.394C138.55 130.465 138.59 130.561 138.59 130.661M136.023 130.558C135.998 130.561 135.975 130.573 135.958 130.591C135.94 130.611 135.93 130.636 135.93 130.662C135.93 130.689 135.94 130.714 135.958 130.733C135.975 130.752 135.998 130.763 136.023 130.766H138.211C138.224 130.766 138.238 130.764 138.25 130.758C138.263 130.753 138.274 130.745 138.284 130.736C138.294 130.726 138.301 130.715 138.306 130.702C138.312 130.689 138.314 130.676 138.314 130.662L138.314 130.662C138.314 130.634 138.303 130.608 138.284 130.589C138.264 130.569 138.238 130.558 138.211 130.558H136.023Z" fill="white"/>
<path fill-rule="evenodd" clip-rule="evenodd" d="M96.3974 75.2384H98.597C98.6976 75.2384 98.794 75.2782 98.8651 75.3492C98.9361 75.4201 98.976 75.5162 98.9761 75.6164M96.4089 75.5135C96.3841 75.5164 96.3611 75.528 96.3441 75.5463C96.3261 75.5657 96.3162 75.5911 96.3162 75.6174C96.3162 75.6438 96.3261 75.6692 96.3441 75.6885C96.3611 75.7069 96.3841 75.7185 96.4089 75.7213H98.597C98.6107 75.7213 98.6242 75.7186 98.6367 75.7134C98.6493 75.7082 98.6607 75.7005 98.6703 75.6909C98.68 75.6812 98.6876 75.6698 98.6927 75.6572C98.6979 75.6446 98.7005 75.6311 98.7004 75.6175L98.7004 75.6167C98.7004 75.5894 98.6895 75.5631 98.6701 75.5438C98.6507 75.5244 98.6245 75.5135 98.597 75.5135H96.4089Z" fill="white"/>
</svg>
