<svg width="320" height="160" viewBox="0 0 320 160" fill="none" xmlns="http://www.w3.org/2000/svg">
<path d="M140.212 27.9331C141.561 27.4546 142.936 27.0541 144.33 26.7337C145.923 26.3505 147.554 26.1431 149.192 26.1154C149.996 26.1068 150.799 26.1866 151.586 26.3534C152.632 26.5478 153.6 27.0406 154.373 27.7724C154.747 28.149 155.05 28.5899 155.268 29.0738C155.524 29.6506 155.689 30.2639 155.757 30.8916C155.812 31.345 155.839 31.8012 155.84 32.2579C155.849 33.793 155.489 35.3078 154.791 36.6755C154.168 37.8597 153.355 38.9342 152.385 39.8565C150.629 41.5537 148.325 43.0159 145.786 44.3545C141.955 46.367 137.571 48.1043 133.672 50.0395C131.806 50.9391 130.014 51.9841 128.312 53.1649C126.801 54.1974 125.492 55.4977 124.451 57.0013C122.902 59.3848 122.184 61.728 122.184 63.8982C122.182 65.5043 122.573 67.0865 123.323 68.5074C124.492 70.651 126.275 72.3971 128.445 73.5216C130.805 74.7721 133.438 75.419 136.109 75.4043C136.487 75.4043 136.868 75.4043 137.252 75.3641C141.352 75.092 145.256 73.7349 148.923 71.8708C152.589 70.0067 156.029 67.6356 159.194 65.3171C164.505 61.4282 170.066 56.7756 175.949 53.1062C178.804 51.2779 181.842 49.7508 185.013 48.5495C188.073 47.3942 191.313 46.7862 194.585 46.7534C198.516 46.7754 202.388 47.72 205.887 49.5109C212.164 52.6301 216.762 57.1559 219.797 62.4205C222.793 67.7113 224.347 73.6945 224.302 79.7724C224.29 86.0155 222.777 92.1646 219.89 97.7024C216.924 103.435 212.504 108.291 207.07 111.784L207.5 112.454C213.049 108.884 217.564 103.925 220.596 98.0702C223.542 92.4188 225.086 86.1436 225.098 79.7724C225.142 73.5558 223.552 67.4364 220.487 62.0248C217.391 56.6273 212.656 51.9871 206.243 48.7999C202.634 46.9547 198.642 45.9815 194.588 45.9589C191.223 45.9955 187.891 46.6234 184.744 47.8138C179.984 49.5449 175.454 52.3179 171.14 55.3753C166.827 58.4326 162.687 61.7868 158.726 64.6865C155.574 66.9957 152.171 69.3421 148.567 71.1784C144.962 73.0146 141.16 74.3254 137.202 74.5789C136.837 74.6036 136.474 74.616 136.112 74.616C132.567 74.616 129.266 73.4598 126.869 71.5246C125.695 70.6006 124.727 69.4425 124.026 68.1241C123.335 66.817 122.975 65.3608 122.977 63.8827C122.977 61.8826 123.621 59.7001 125.113 57.4187C125.959 56.1888 127.006 55.1094 128.21 54.2253C130.43 52.5126 133.31 51.0411 136.375 49.6191C140.98 47.4861 146.006 45.4674 149.917 42.8181C151.871 41.4981 153.552 40.0358 154.75 38.283C155.979 36.5118 156.633 34.4064 156.624 32.2518C156.622 31.7641 156.592 31.2769 156.534 30.7926C156.445 29.869 156.159 28.9751 155.695 28.1712C155.38 27.6482 154.973 27.1863 154.493 26.8079C153.775 26.2532 152.948 25.8561 152.066 25.6424C151.125 25.4133 150.16 25.3032 149.192 25.3147C147.497 25.3373 145.81 25.5446 144.16 25.933C142.73 26.2636 141.319 26.6764 139.936 27.1695L140.206 27.9177" fill="white"/>
<path d="M113.512 77.7044H113.112C113.118 77.7919 113.106 77.8798 113.077 77.9626C113.048 78.0453 113.002 78.1211 112.942 78.1853C112.882 78.2495 112.809 78.3007 112.728 78.3357C112.648 78.3707 112.561 78.3887 112.473 78.3887C112.385 78.3887 112.298 78.3707 112.217 78.3357C112.137 78.3007 112.064 78.2495 112.004 78.1853C111.944 78.1211 111.898 78.0453 111.869 77.9626C111.839 77.8798 111.827 77.7919 111.833 77.7044C111.827 77.6168 111.839 77.5289 111.869 77.4462C111.898 77.3634 111.944 77.2876 112.004 77.2234C112.064 77.1592 112.137 77.1081 112.217 77.0731C112.298 77.0381 112.385 77.02 112.473 77.02C112.561 77.02 112.648 77.0381 112.728 77.0731C112.809 77.1081 112.882 77.1592 112.942 77.2234C113.002 77.2876 113.048 77.3634 113.077 77.4462C113.106 77.5289 113.118 77.6168 113.112 77.7044H113.908C113.908 77.4215 113.823 77.1452 113.665 76.9103C113.508 76.6754 113.284 76.4925 113.022 76.3845C112.76 76.2766 112.472 76.2485 112.194 76.3038C111.916 76.3591 111.661 76.4954 111.461 76.6954C111.26 76.8954 111.124 77.1501 111.068 77.4275C111.013 77.7048 111.041 77.9924 111.149 78.2538C111.257 78.5152 111.441 78.7387 111.676 78.8963C111.911 79.0538 112.188 79.1382 112.471 79.1388C112.852 79.1388 113.218 78.9876 113.487 78.7186C113.757 78.4496 113.908 78.0848 113.908 77.7044H113.512Z" fill="white"/>
<path d="M145.976 61.0228H145.579C145.58 61.1497 145.543 61.274 145.473 61.3798C145.403 61.4856 145.303 61.568 145.185 61.6165C145.068 61.665 144.938 61.6773 144.814 61.652C144.689 61.6266 144.575 61.5647 144.486 61.4741C144.397 61.3846 144.336 61.2708 144.312 61.147C144.287 61.0232 144.3 60.8949 144.348 60.7782C144.397 60.6616 144.478 60.5618 144.583 60.4914C144.688 60.4211 144.812 60.3833 144.938 60.3829C145.023 60.3819 145.106 60.3982 145.184 60.4306C145.262 60.463 145.332 60.511 145.39 60.5714C145.451 60.6299 145.499 60.7001 145.531 60.7777C145.564 60.8553 145.58 60.9387 145.579 61.0228H146.375C146.375 60.7391 146.291 60.4618 146.133 60.2259C145.975 59.99 145.751 59.8061 145.488 59.6976C145.226 59.589 144.937 59.5606 144.658 59.6159C144.379 59.6713 144.123 59.8079 143.922 60.0085C143.721 60.2091 143.585 60.4647 143.529 60.7429C143.474 61.0212 143.502 61.3096 143.611 61.5717C143.72 61.8338 143.904 62.0578 144.14 62.2154C144.376 62.3731 144.654 62.4572 144.938 62.4572C145.127 62.4576 145.314 62.4208 145.489 62.3488C145.663 62.2769 145.822 62.1712 145.955 62.038C146.089 61.9047 146.194 61.7464 146.267 61.5722C146.339 61.398 146.375 61.2113 146.375 61.0228H145.976Z" fill="white"/>
<path d="M165.857 24.1156V26.1498C165.852 26.2049 165.858 26.2604 165.876 26.3128C165.894 26.3652 165.922 26.4133 165.96 26.4541C165.997 26.4949 166.043 26.5275 166.093 26.5498C166.144 26.5721 166.199 26.5836 166.254 26.5836C166.31 26.5836 166.365 26.5721 166.415 26.5498C166.466 26.5275 166.512 26.4949 166.549 26.4541C166.586 26.4133 166.615 26.3652 166.633 26.3128C166.651 26.2604 166.657 26.2049 166.652 26.1498V24.1156C166.644 24.0163 166.598 23.9239 166.524 23.8566C166.451 23.7893 166.354 23.7519 166.254 23.7519C166.155 23.7519 166.058 23.7893 165.985 23.8566C165.911 23.9239 165.865 24.0163 165.857 24.1156" fill="white"/>
<path d="M165.239 25.5327H167.277C167.376 25.5239 167.469 25.4782 167.536 25.4046C167.604 25.3309 167.641 25.2347 167.641 25.1348C167.641 25.0349 167.604 24.9387 167.536 24.8651C167.469 24.7914 167.376 24.7457 167.277 24.7369H165.239C165.184 24.732 165.128 24.7387 165.076 24.7565C165.023 24.7743 164.975 24.8028 164.934 24.8402C164.894 24.8776 164.861 24.9231 164.839 24.9739C164.816 25.0246 164.805 25.0794 164.805 25.1348C164.805 25.1902 164.816 25.245 164.839 25.2958C164.861 25.3465 164.894 25.392 164.934 25.4294C164.975 25.4669 165.023 25.4954 165.076 25.5131C165.128 25.5309 165.184 25.5376 165.239 25.5327" fill="white"/>
<path d="M230.151 90.6808V92.715C230.146 92.7701 230.153 92.8256 230.171 92.878C230.189 92.9304 230.217 92.9785 230.254 93.0193C230.292 93.0602 230.337 93.0927 230.388 93.115C230.439 93.1373 230.494 93.1488 230.549 93.1488C230.605 93.1488 230.659 93.1373 230.71 93.115C230.761 93.0927 230.806 93.0602 230.844 93.0193C230.881 92.9785 230.91 92.9304 230.927 92.878C230.945 92.8256 230.952 92.7701 230.947 92.715V90.6808C230.938 90.5815 230.893 90.4891 230.819 90.4218C230.745 90.3545 230.649 90.3171 230.549 90.3171C230.449 90.3171 230.353 90.3545 230.279 90.4218C230.206 90.4891 230.16 90.5815 230.151 90.6808" fill="white"/>
<path d="M229.531 92.0987H231.565C231.621 92.1036 231.676 92.0969 231.729 92.0792C231.781 92.0614 231.829 92.0329 231.87 91.9954C231.911 91.958 231.944 91.9125 231.966 91.8618C231.989 91.8111 232 91.7562 232 91.7008C232 91.6454 231.989 91.5906 231.966 91.5399C231.944 91.4891 231.911 91.4436 231.87 91.4062C231.829 91.3688 231.781 91.3403 231.729 91.3225C231.676 91.3047 231.621 91.298 231.565 91.3029H229.528C229.428 91.3117 229.336 91.3574 229.268 91.4311C229.201 91.5047 229.164 91.601 229.164 91.7008C229.164 91.8007 229.201 91.8969 229.268 91.9706C229.336 92.0442 229.428 92.0899 229.528 92.0987" fill="white"/>
<path d="M221.213 35.3518C223.739 35.3518 225.786 33.3076 225.786 30.7859C225.786 28.2641 223.739 26.2199 221.213 26.2199C218.687 26.2199 216.639 28.2641 216.639 30.7859C216.639 33.3076 218.687 35.3518 221.213 35.3518Z" fill="#C3C4FD"/>
<path d="M225.784 30.7859H225.707C225.709 31.8261 225.349 32.8346 224.689 33.6396C224.029 34.4446 223.11 34.9962 222.088 35.2003C221.067 35.4045 220.006 35.2486 219.086 34.7592C218.167 34.2698 217.446 33.4772 217.046 32.5165C216.647 31.5559 216.593 30.4866 216.895 29.491C217.197 28.4954 217.835 27.6351 218.701 27.0568C219.567 26.4785 220.608 26.2179 221.644 26.3196C222.681 26.4212 223.651 26.8787 224.388 27.6141C224.806 28.0301 225.138 28.5244 225.364 29.0687C225.591 29.613 225.707 30.1966 225.707 30.7859H225.865C225.865 29.8688 225.592 28.9722 225.082 28.2097C224.572 27.4471 223.846 26.8528 222.998 26.5018C222.149 26.1508 221.215 26.059 220.314 26.2379C219.413 26.4169 218.585 26.8585 217.936 27.507C217.286 28.1555 216.844 28.9818 216.664 29.8813C216.485 30.7808 216.577 31.7131 216.929 32.5604C217.28 33.4077 217.876 34.132 218.64 34.6415C219.403 35.151 220.301 35.423 221.22 35.423C222.452 35.423 223.633 34.9344 224.504 34.0648C225.376 33.1952 225.865 32.0157 225.865 30.7859H225.784Z" fill="#C3C5FD"/>
<path d="M227.274 30.7865H227.674C227.674 29.0754 226.993 27.4344 225.781 26.2245C224.569 25.0146 222.925 24.3348 221.211 24.3348C221.105 24.3356 221.004 24.3779 220.929 24.4525C220.855 24.5271 220.812 24.6281 220.812 24.7336V30.7865C220.812 30.8921 220.855 30.993 220.929 31.0676C221.004 31.1422 221.105 31.1845 221.211 31.1853H227.274C227.38 31.1845 227.481 31.1422 227.556 31.0676C227.63 30.993 227.673 30.8921 227.674 30.7865H227.274V30.3908H221.607V24.7336H221.211V25.1293C222.714 25.1293 224.155 25.7253 225.218 26.7863C226.281 27.8472 226.878 29.2862 226.878 30.7865H227.274Z" fill="white"/>
<path d="M109.311 118.049V108.172H119.312V98.895H135.133V118.049H109.311Z" fill="#6A3DE6"/>
<path d="M109.31 118.049H109.39V108.252H119.392V98.9752H135.054V117.969H109.31V118.049H109.39H109.31V118.126H135.212V98.8176H119.231V108.095H109.232V118.126H109.31V118.049Z" fill="#6A3DE6"/>
<path d="M105.041 109.486V109.091H91.1313V107.724H104.642V109.486H105.041V109.091V109.486H105.437V106.933H90.3354V109.885H105.437V109.486H105.041Z" fill="white"/>
<path d="M105.037 117.793V117.394H91.9572V109.886H104.638V117.793H105.037V117.394V117.793H105.433V109.091H91.1614V118.189H105.433V117.793H105.037Z" fill="white"/>
<path d="M115.518 99.3561V98.9573H104.766V97.4271H115.118V99.3561H115.518V98.9573V99.3561H115.914V96.6326H103.97V99.7518H115.914V99.3561H115.518Z" fill="white"/>
<path d="M114.855 117.793V117.394H105.435V99.7518H114.456V117.793H114.855V117.394V117.793H115.252V98.9573H104.64V118.189H115.252V117.793H114.855Z" fill="white"/>
<path d="M92.7904 105.172V100.952H88V117.961H88.7989V101.746H91.9946V105.172H92.7904Z" fill="white"/>
<path d="M127.893 116.297V107.595H122.775V114.47H123.57V108.389H127.101V116.297H127.893Z" fill="white"/>
<path d="M122.902 105.832V92.9781H119.905V86.1678H112.123V97.0309H112.919V86.9622H119.112V93.7726H122.106V105.832H122.902Z" fill="white"/>
<path d="M204.739 130.146C205.35 130.146 205.936 129.903 206.369 129.472C206.801 129.041 207.043 128.456 207.043 127.846V85.6606C207.043 85.0506 206.801 84.4656 206.369 84.0343C205.936 83.603 205.35 83.3606 204.739 83.3606H134.392C133.781 83.3606 133.195 83.603 132.763 84.0343C132.331 84.4656 132.088 85.0506 132.088 85.6606V127.846C132.088 128.456 132.331 129.041 132.763 129.472C133.195 129.903 133.781 130.146 134.392 130.146" fill="white"/>
<path d="M204.74 130.542C205.457 130.542 206.144 130.258 206.651 129.753C207.158 129.247 207.443 128.562 207.444 127.846V85.2659H207.041V85.6616H207.44C207.44 84.9458 207.156 84.2594 206.649 83.7533C206.142 83.2471 205.454 82.9628 204.737 82.9628H134.393C133.676 82.9628 132.988 83.2471 132.481 83.7533C131.974 84.2594 131.689 84.9458 131.689 85.6616V127.846C131.689 128.201 131.759 128.552 131.895 128.879C132.031 129.206 132.23 129.503 132.481 129.754C132.732 130.004 133.03 130.203 133.358 130.338C133.686 130.473 134.038 130.543 134.393 130.542V129.748C133.887 129.748 133.402 129.547 133.045 129.191C132.687 128.835 132.486 128.351 132.485 127.846V85.6616C132.487 85.157 132.688 84.6736 133.046 84.3168C133.403 83.9601 133.887 83.7589 134.393 83.7573H204.737C205.243 83.7589 205.727 83.9601 206.084 84.3168C206.441 84.6736 206.643 85.157 206.645 85.6616V86.0604V127.846C206.644 128.351 206.442 128.835 206.085 129.191C205.727 129.547 205.242 129.748 204.737 129.748V130.542H204.74Z" fill="black"/>
<path d="M118.901 141.773V143.222C118.902 143.652 119.073 144.063 119.378 144.367C119.682 144.671 120.094 144.841 120.524 144.842H218.617C219.047 144.841 219.459 144.67 219.762 144.367C220.066 144.063 220.236 143.651 220.236 143.222V141.773" fill="white"/>
<path d="M118.503 141.772V143.222C118.503 143.757 118.715 144.269 119.094 144.647C119.473 145.025 119.986 145.238 120.522 145.238H218.615C219.15 145.238 219.664 145.025 220.042 144.647C220.421 144.269 220.634 143.757 220.634 143.222V141.772H219.838V143.222C219.834 143.545 219.704 143.853 219.475 144.081C219.246 144.309 218.938 144.439 218.615 144.443H120.522C120.196 144.443 119.883 144.315 119.651 144.087C119.419 143.858 119.287 143.548 119.283 143.222V141.772H118.503Z" fill="black"/>
<path d="M218.999 142.818C219.253 142.817 219.501 142.738 219.709 142.591C219.917 142.445 220.075 142.238 220.161 141.999C220.247 141.759 220.257 141.5 220.19 141.255C220.123 141.01 219.981 140.791 219.785 140.629L207.399 130.427C207.177 130.246 206.899 130.146 206.613 130.146H132.537C132.25 130.146 131.972 130.246 131.75 130.427L119.364 140.629C119.168 140.791 119.027 141.01 118.959 141.255C118.892 141.5 118.902 141.759 118.988 141.999C119.074 142.238 119.232 142.445 119.44 142.591C119.648 142.738 119.896 142.817 120.15 142.818H218.999Z" fill="white"/>
<path d="M218.996 142.817V143.216C219.229 143.217 219.459 143.169 219.671 143.074C219.965 142.944 220.212 142.729 220.38 142.456C220.546 142.191 220.634 141.886 220.634 141.575C220.634 141.344 220.585 141.116 220.489 140.907C220.384 140.682 220.229 140.483 220.037 140.326L207.651 130.124C207.357 129.883 206.99 129.751 206.61 129.75H132.534C132.154 129.751 131.787 129.883 131.494 130.124L119.107 140.326C118.915 140.483 118.76 140.682 118.655 140.907C118.559 141.116 118.51 141.344 118.51 141.575C118.51 141.994 118.668 142.398 118.953 142.706C119.106 142.869 119.291 142.999 119.496 143.087C119.702 143.176 119.924 143.221 120.148 143.219H218.996V142.425H120.142C120.021 142.426 119.902 142.402 119.792 142.354C119.644 142.288 119.519 142.18 119.433 142.044C119.346 141.905 119.3 141.745 119.299 141.581C119.3 141.465 119.324 141.35 119.371 141.244C119.425 141.124 119.505 141.019 119.606 140.935L131.992 130.733C132.142 130.609 132.33 130.541 132.525 130.541H206.604C206.798 130.542 206.987 130.61 207.136 130.733L219.523 140.935C219.625 141.018 219.705 141.124 219.758 141.244C219.807 141.349 219.832 141.464 219.832 141.581C219.832 141.8 219.749 142.01 219.6 142.171C219.528 142.252 219.439 142.316 219.34 142.36C219.229 142.407 219.11 142.431 218.99 142.431L218.996 142.817Z" fill="black"/>
<path d="M169.637 138.369H204.48L198.81 132.032H169.637H169.501H140.328L134.658 138.369H169.501H169.637Z" fill="white"/>
<path d="M169.63 138.369V138.768H204.479C204.557 138.771 204.635 138.751 204.701 138.711C204.768 138.67 204.821 138.611 204.855 138.54C204.888 138.469 204.899 138.391 204.887 138.313C204.876 138.236 204.841 138.164 204.789 138.106L199.116 131.769C199.079 131.727 199.034 131.694 198.983 131.671C198.933 131.648 198.877 131.636 198.822 131.636H140.328C140.269 131.634 140.211 131.645 140.158 131.668C140.104 131.691 140.057 131.726 140.018 131.769L134.348 138.106C134.296 138.163 134.262 138.234 134.25 138.31C134.238 138.385 134.248 138.463 134.28 138.533C134.312 138.603 134.363 138.662 134.427 138.703C134.491 138.745 134.566 138.767 134.642 138.768H169.63V137.974H135.547L140.501 132.431H198.624L203.578 137.974H169.63V138.369Z" fill="black"/>
<path d="M202.959 86.3075H136.132V127.506H202.959V86.3075Z" fill="white"/>
<path d="M202.956 127.512H203.356V86.3066C203.355 86.2011 203.313 86.1002 203.238 86.0256C203.163 85.9509 203.062 85.9087 202.956 85.9079H136.13C136.024 85.9095 135.924 85.9521 135.85 86.0266C135.776 86.1012 135.734 86.2017 135.733 86.3066V127.512C135.733 127.617 135.775 127.717 135.849 127.791C135.924 127.866 136.024 127.907 136.13 127.907H202.956C203.062 127.906 203.162 127.866 203.238 127.793C203.313 127.718 203.355 127.617 203.356 127.512H202.956V127.113H136.529V86.7054H202.56V127.512H202.956Z" fill="black"/>
<path d="M177.422 105.604C177.214 105.113 176.878 104.688 176.448 104.373C176.019 104.057 175.512 103.864 174.982 103.812C174.451 103.76 173.916 103.853 173.434 104.079C172.951 104.306 172.539 104.659 172.241 105.1C172.063 105.361 171.932 105.651 171.851 105.956H167.689C167.661 105.835 167.622 105.717 167.571 105.604C167.525 105.496 167.47 105.393 167.407 105.294L168.894 103.811C169.342 104.067 169.851 104.201 170.368 104.2C170.763 104.202 171.155 104.123 171.519 103.968C172.061 103.745 172.524 103.366 172.849 102.879C173.174 102.393 173.347 101.82 173.346 101.236C173.345 100.842 173.266 100.452 173.114 100.089C172.855 99.4501 172.381 98.9219 171.773 98.5955C171.165 98.2691 170.462 98.1649 169.786 98.3009C169.109 98.437 168.502 98.8047 168.068 99.3405C167.634 99.8763 167.402 100.547 167.41 101.236C167.41 101.632 167.49 102.024 167.646 102.389C167.686 102.481 167.732 102.577 167.779 102.664L166.274 104.166C165.824 103.919 165.317 103.794 164.803 103.802C164.289 103.81 163.787 103.951 163.344 104.212C162.902 104.473 162.535 104.844 162.28 105.289C162.025 105.734 161.89 106.238 161.889 106.751C161.889 107.383 162.093 107.999 162.47 108.507C162.847 109.016 163.377 109.39 163.983 109.575C164.589 109.76 165.238 109.747 165.836 109.536C166.433 109.325 166.947 108.928 167.302 108.404C167.481 108.145 167.614 107.856 167.695 107.551H171.851C171.884 107.671 171.925 107.789 171.975 107.904C172.015 107.998 172.061 108.09 172.111 108.179L170.603 109.681C170.166 109.441 169.674 109.316 169.175 109.316C168.779 109.316 168.386 109.395 168.02 109.548C167.298 109.855 166.727 110.435 166.433 111.161C166.138 111.887 166.143 112.7 166.447 113.422C166.673 113.948 167.044 114.399 167.519 114.72C168.008 115.049 168.585 115.225 169.175 115.224C169.571 115.226 169.964 115.146 170.327 114.989C170.862 114.761 171.318 114.382 171.639 113.899C171.96 113.415 172.133 112.849 172.136 112.269C172.135 111.875 172.055 111.485 171.9 111.122C171.852 111.011 171.799 110.903 171.739 110.797L173.223 109.316C173.76 109.625 174.38 109.758 174.997 109.695C175.613 109.633 176.194 109.379 176.658 108.969C177.122 108.559 177.446 108.014 177.583 107.411C177.719 106.807 177.663 106.176 177.422 105.607V105.604ZM169.113 100.704C169.218 100.461 169.39 100.254 169.609 100.107C169.796 99.9795 170.013 99.9009 170.238 99.8788C170.464 99.8566 170.692 99.8916 170.9 99.9804C171.145 100.083 171.355 100.255 171.504 100.475C171.654 100.699 171.734 100.963 171.733 101.232C171.736 101.416 171.7 101.598 171.628 101.767C171.558 101.932 171.457 102.081 171.329 102.207C171.202 102.332 171.051 102.431 170.885 102.499C170.719 102.566 170.541 102.6 170.362 102.598C170.183 102.597 170.006 102.56 169.841 102.491C169.597 102.387 169.387 102.215 169.237 101.996C169.086 101.771 169.008 101.506 169.011 101.236C169.009 101.053 169.044 100.872 169.113 100.704V100.704ZM166.1 107.285C165.996 107.527 165.824 107.734 165.605 107.882C165.379 108.035 165.113 108.117 164.84 108.117C164.658 108.115 164.479 108.079 164.311 108.009C164.06 107.908 163.845 107.736 163.691 107.514C163.54 107.288 163.461 107.022 163.462 106.751C163.461 106.569 163.498 106.389 163.571 106.222C163.673 105.978 163.845 105.769 164.065 105.621C164.285 105.473 164.544 105.393 164.809 105.39C164.991 105.389 165.171 105.425 165.339 105.495C165.584 105.6 165.794 105.773 165.943 105.993C166.069 106.181 166.147 106.398 166.168 106.624C166.19 106.849 166.155 107.077 166.066 107.285H166.1ZM170.436 112.8C170.332 113.047 170.157 113.258 169.934 113.406C169.711 113.554 169.45 113.634 169.182 113.635C168.958 113.634 168.738 113.579 168.54 113.473C168.343 113.368 168.174 113.217 168.048 113.032C167.895 112.807 167.814 112.541 167.816 112.269C167.815 112.087 167.852 111.907 167.924 111.74C168.028 111.493 168.203 111.282 168.427 111.134C168.65 110.986 168.913 110.907 169.182 110.908C169.363 110.908 169.543 110.943 169.711 111.014C169.959 111.117 170.17 111.292 170.318 111.515C170.466 111.739 170.545 112.001 170.544 112.269C170.541 112.452 170.5 112.633 170.423 112.8H170.436ZM175.963 107.285C175.858 107.531 175.684 107.741 175.461 107.889C175.238 108.037 174.977 108.116 174.709 108.117C174.526 108.116 174.345 108.079 174.176 108.009C173.932 107.906 173.723 107.734 173.576 107.514C173.422 107.289 173.341 107.023 173.343 106.751C173.342 106.569 173.379 106.389 173.452 106.222C173.555 105.979 173.726 105.771 173.944 105.622C174.133 105.496 174.35 105.419 174.575 105.397C174.801 105.375 175.029 105.409 175.238 105.495C175.483 105.601 175.692 105.774 175.842 105.993C175.991 106.218 176.071 106.481 176.071 106.751C176.068 106.935 176.027 107.117 175.951 107.285H175.963Z" fill="black"/>
<path d="M205.267 135.282H202.251L204.778 138.107C204.83 138.165 204.865 138.237 204.876 138.314C204.888 138.391 204.877 138.47 204.843 138.541C204.81 138.611 204.757 138.671 204.69 138.711C204.623 138.752 204.546 138.772 204.468 138.769H143.156L141.348 140.497H210.773L205.267 135.288" fill="#C3C4FD"/>
<path d="M201.182 135.281H176.127H175.991H146.849L144.007 137.973H169.501H169.637H203.591L201.182 135.281Z" fill="#C3C4FD"/>
<path d="M202.249 135.282H201.181L203.59 137.974H144.006L143.167 138.769H204.479C204.557 138.772 204.634 138.752 204.701 138.711C204.768 138.671 204.821 138.611 204.854 138.541C204.887 138.47 204.899 138.391 204.887 138.314C204.875 138.237 204.841 138.165 204.788 138.107L202.262 135.282" fill="black"/>
<path d="M205.329 135.123H202.106L202.248 135.281H205.264L210.77 140.49H176.125H175.989H141.345L143.166 138.768H142.933L140.945 140.65H175.989H176.125H211.169L205.329 135.123Z" fill="#C3C5FD"/>
<path d="M201.04 135.123H176.128H175.992H146.788L143.775 137.973H144.008L146.85 135.281H175.992H176.128H201.183L201.04 135.123Z" fill="#C3C5FD"/>
<path d="M144.007 137.973H143.774L142.935 138.768H143.168L144.007 137.973ZM202.107 135.123H201.039L201.182 135.281H202.25L202.107 135.123Z" fill="black"/>
<path d="M113.224 61.6848C113.224 62.7199 112.916 63.7318 112.34 64.5924C111.764 65.4531 110.945 66.1239 109.987 66.5201C109.03 66.9162 107.975 67.0198 106.959 66.8179C105.942 66.616 105.007 66.1175 104.274 65.3855C103.541 64.6536 103.042 63.721 102.84 62.7058C102.637 61.6906 102.741 60.6382 103.138 59.6819C103.535 58.7256 104.207 57.9082 105.069 57.3331C105.931 56.758 106.944 56.4511 107.981 56.4511C108.67 56.4511 109.351 56.5864 109.987 56.8495C110.624 57.1125 111.201 57.498 111.688 57.984C112.175 58.47 112.561 59.0469 112.825 59.6819C113.088 60.3169 113.224 60.9975 113.224 61.6848Z" fill="#C3C4FD"/>
<path d="M113.226 61.6841H113.145C113.145 62.8755 112.73 64.0299 111.973 64.9505C111.215 65.8711 110.161 66.501 108.991 66.733C107.82 66.9649 106.605 66.7846 105.553 66.2226C104.501 65.6606 103.676 64.7518 103.22 63.651C102.763 62.5501 102.703 61.3254 103.05 60.1853C103.397 59.0453 104.129 58.0605 105.121 57.3987C106.113 56.7369 107.305 56.4391 108.492 56.5559C109.68 56.6727 110.79 57.197 111.634 58.0394C112.114 58.5174 112.495 59.0855 112.755 59.711C113.014 60.3366 113.147 61.0071 113.145 61.6841H113.306C113.306 60.6331 112.994 59.6057 112.409 58.7318C111.824 57.8579 110.993 57.1768 110.02 56.7746C109.048 56.3724 107.977 56.2671 106.945 56.4722C105.912 56.6772 104.964 57.1833 104.219 57.9265C103.475 58.6697 102.968 59.6166 102.763 60.6474C102.557 61.6782 102.663 62.7467 103.066 63.7177C103.468 64.6888 104.151 65.5187 105.026 66.1026C105.901 66.6866 106.931 66.9982 107.983 66.9982C109.395 66.9982 110.749 66.4383 111.747 65.4418C112.746 64.4452 113.306 63.0935 113.306 61.6841H113.226Z" fill="#C3C5FD"/>
<path d="M107.63 59.2581V64.1116C107.63 64.1579 107.639 64.2037 107.657 64.2464C107.675 64.2892 107.701 64.328 107.734 64.3608C107.766 64.3935 107.805 64.4195 107.848 64.4372C107.891 64.4549 107.937 64.464 107.983 64.464C108.029 64.464 108.075 64.4549 108.118 64.4372C108.161 64.4195 108.2 64.3935 108.233 64.3608C108.266 64.328 108.292 64.2892 108.309 64.2464C108.327 64.2037 108.336 64.1579 108.336 64.1116V59.2581C108.336 59.2118 108.327 59.166 108.309 59.1233C108.292 59.0805 108.266 59.0416 108.233 59.0089C108.2 58.9762 108.161 58.9502 108.118 58.9325C108.075 58.9148 108.029 58.9057 107.983 58.9057C107.937 58.9057 107.891 58.9148 107.848 58.9325C107.805 58.9502 107.766 58.9762 107.734 59.0089C107.701 59.0416 107.675 59.0805 107.657 59.1233C107.639 59.166 107.63 59.2118 107.63 59.2581" fill="black"/>
<path d="M105.876 62.51L107.644 64.2752C107.711 64.3412 107.801 64.3781 107.895 64.3778C107.989 64.3776 108.078 64.3401 108.145 64.2737C108.211 64.2073 108.248 64.1174 108.247 64.0237C108.247 63.9301 108.21 63.8404 108.143 63.7744L106.375 62.0092C106.342 61.9762 106.304 61.95 106.261 61.9322C106.218 61.9143 106.172 61.9051 106.126 61.9051C106.079 61.9051 106.033 61.9143 105.99 61.9322C105.948 61.95 105.909 61.9762 105.876 62.0092C105.843 62.042 105.817 62.081 105.799 62.124C105.781 62.167 105.772 62.2131 105.772 62.2596C105.772 62.3062 105.781 62.3523 105.799 62.3953C105.817 62.4383 105.843 62.4773 105.876 62.51" fill="black"/>
<path d="M109.595 62.0095L107.827 63.7747C107.794 63.8074 107.768 63.8464 107.75 63.8894C107.732 63.9324 107.723 63.9785 107.723 64.0251C107.723 64.0716 107.732 64.1177 107.75 64.1607C107.768 64.2037 107.794 64.2427 107.827 64.2755C107.894 64.3408 107.984 64.3774 108.078 64.3774C108.172 64.3774 108.262 64.3408 108.329 64.2755L110.097 62.5103C110.162 62.4433 110.199 62.3535 110.199 62.2599C110.199 62.1663 110.162 62.0765 110.097 62.0095C110.064 61.9764 110.025 61.9501 109.982 61.9322C109.939 61.9143 109.893 61.9051 109.846 61.9051C109.8 61.9051 109.753 61.9143 109.71 61.9322C109.667 61.9501 109.628 61.9764 109.595 62.0095" fill="black"/>
<path d="M177.251 67.163C177.756 66.9843 178.22 66.7081 178.618 66.3502C179.015 65.9923 179.338 65.5597 179.568 65.0771C179.798 64.5945 179.931 64.0714 179.959 63.5377C179.986 63.0039 179.908 62.47 179.729 61.9664V61.951L200.878 54.4791L200.528 54.6028C200.709 55.1122 200.788 55.6524 200.76 56.1923C200.732 56.7322 200.598 57.2613 200.365 57.7493C200.132 58.2374 199.805 58.6749 199.403 59.0367C199 59.3985 198.53 59.6776 198.02 59.8581L179.162 66.52L177.112 67.231C176.58 67.4192 176.017 67.5011 175.454 67.4718C174.891 67.4425 174.339 67.3027 173.83 67.0604C173.321 66.8181 172.865 66.478 172.487 66.0596C172.11 65.6412 171.819 65.1527 171.631 64.6219L163.84 42.6453L175.282 38.6018L178.945 48.9363L189.139 45.3286L193.335 57.1655L177.261 67.163" fill="white"/>
<path d="M177.373 67.5399C177.928 67.3455 178.439 67.0435 178.877 66.6512C179.315 66.2589 179.67 65.784 179.924 65.2539C180.177 64.7238 180.323 64.149 180.353 63.5624C180.382 62.9759 180.296 62.3893 180.098 61.8363V61.8363L179.723 61.9692L179.856 62.3463L201.015 54.8652L200.749 54.1171L200.024 54.3737L200.157 54.7477C200.321 55.2076 200.393 55.6953 200.367 56.1828C200.342 56.6703 200.221 57.148 200.01 57.5885C199.799 58.0291 199.504 58.4238 199.14 58.7501C198.776 59.0763 198.352 59.3278 197.891 59.4899L179.033 66.1518L176.983 66.8752C176.008 67.2198 174.937 67.1639 174.003 66.7199C173.07 66.2758 172.352 65.4799 172.006 64.5072L164.349 42.8985L175.041 39.0992L178.704 49.4337L188.889 45.826L192.952 57.2858L193.701 57.023L189.366 44.809L179.181 48.4197L175.515 38.0945L163.324 42.4039L171.257 64.7576C171.58 65.6714 172.18 66.4626 172.972 67.0223C173.765 67.582 174.711 67.8827 175.682 67.883C176.21 67.8815 176.734 67.7895 177.23 67.611L179.283 66.8876L198.141 60.2257C198.702 60.0297 199.219 59.7253 199.661 59.3297C200.104 58.9342 200.464 58.4553 200.721 57.9206C200.978 57.3858 201.126 56.8057 201.158 56.2135C201.19 55.6213 201.105 55.0287 200.907 54.4695L200.532 54.6024L200.665 54.9765L201.015 54.8528L200.749 54.1047L179.231 61.7095L179.37 62.099C179.513 62.4957 179.585 62.9141 179.584 63.3356C179.583 64.0952 179.346 64.8358 178.906 65.4557C178.467 66.0757 177.845 66.5445 177.128 66.7979L177.373 67.5399Z" fill="black"/>
<path d="M187.603 31.4319L177.091 35.1447L180.813 45.6399L191.325 41.9272L187.603 31.4319Z" fill="#C3C4FD"/>
<path d="M180.777 45.7429L180.851 45.7151L180.777 45.7429ZM180.826 45.6409L177.11 35.1457L187.639 31.436L191.355 41.9467L180.842 45.6564L180.826 45.6409ZM187.729 31.2444L176.887 35.0498L180.712 45.8449L180.789 45.8171L191.525 42.024L187.698 31.2289" fill="#C3C5FD"/>
<path d="M129.065 14.9275V32.3937C129.066 32.4614 129.054 32.5286 129.029 32.5915C129.004 32.6545 128.967 32.7119 128.92 32.7604C128.873 32.809 128.816 32.8477 128.754 32.8745C128.692 32.9012 128.625 32.9154 128.557 32.9162H118.468C118.401 32.9162 118.334 32.9028 118.271 32.8768C118.208 32.8508 118.152 32.8128 118.104 32.7648C118.056 32.7168 118.018 32.6599 117.993 32.5972C117.967 32.5346 117.954 32.4676 117.954 32.3999V14.9275C117.954 14.8598 117.967 14.7927 117.993 14.7301C118.018 14.6675 118.056 14.6106 118.104 14.5626C118.152 14.5146 118.208 14.4765 118.271 14.4506C118.334 14.4246 118.401 14.4112 118.468 14.4112H128.557C128.693 14.4128 128.822 14.468 128.918 14.5648C129.013 14.6615 129.066 14.7919 129.065 14.9275Z" fill="white"/>
<path d="M129.07 14.9274H128.673V32.3937C128.674 32.4097 128.671 32.4256 128.665 32.4405C128.659 32.4554 128.651 32.4689 128.639 32.4802C128.617 32.5019 128.587 32.5141 128.556 32.5143H118.473C118.458 32.5143 118.443 32.5113 118.43 32.5055C118.416 32.4996 118.403 32.491 118.393 32.4802C118.37 32.4569 118.357 32.4261 118.356 32.3937V14.9274C118.358 14.896 118.371 14.8664 118.393 14.8439C118.403 14.8332 118.416 14.8246 118.43 14.8187C118.443 14.8129 118.458 14.8099 118.473 14.8099H128.562C128.577 14.8095 128.593 14.8123 128.607 14.818C128.622 14.8238 128.635 14.8324 128.646 14.8434C128.657 14.8544 128.666 14.8675 128.672 14.882C128.677 14.8964 128.68 14.9119 128.68 14.9274H129.475C129.475 14.6841 129.38 14.4505 129.209 14.277C129.038 14.1036 128.806 14.0041 128.562 14H118.473C118.352 14 118.232 14.0241 118.121 14.0709C118.009 14.1177 117.908 14.1864 117.823 14.2727C117.738 14.3591 117.671 14.4615 117.627 14.5739C117.582 14.6863 117.56 14.8065 117.563 14.9274V32.3937C117.563 32.6365 117.658 32.8696 117.828 33.043C117.999 33.2164 118.23 33.3162 118.473 33.3211H128.562C128.806 33.317 129.038 33.2176 129.209 33.0441C129.38 32.8706 129.475 32.637 129.475 32.3937V14.9274H129.07Z" fill="black"/>
<path d="M117.954 16.4744H129.071V15.6785H117.954" fill="black"/>
<path d="M117.954 31.4582H129.071V30.6655H117.954V31.4582Z" fill="black"/>
<path d="M131.895 25.5126H121.986C121.849 25.5126 121.719 25.4585 121.622 25.3623C121.526 25.266 121.472 25.1355 121.472 24.9994V19.1814C121.472 19.0453 121.526 18.9148 121.622 18.8186C121.719 18.7223 121.849 18.6683 121.986 18.6683H131.895C132.031 18.6683 132.162 18.7223 132.258 18.8186C132.355 18.9148 132.409 19.0453 132.409 19.1814V24.9994C132.409 25.1355 132.355 25.266 132.258 25.3623C132.162 25.4585 132.031 25.5126 131.895 25.5126" fill="#6A3DE6"/>
<path d="M131.89 25.5121V25.1133H121.981C121.965 25.1136 121.95 25.1108 121.935 25.1049C121.921 25.0991 121.908 25.0904 121.897 25.0793C121.886 25.069 121.877 25.0566 121.872 25.0427C121.866 25.0289 121.863 25.014 121.863 24.999V19.181C121.863 19.1656 121.866 19.1503 121.872 19.136C121.878 19.1218 121.887 19.1088 121.898 19.0979C121.908 19.087 121.921 19.0784 121.936 19.0725C121.95 19.0666 121.965 19.0635 121.981 19.0635H131.89C131.905 19.0635 131.92 19.0666 131.935 19.0725C131.949 19.0784 131.962 19.087 131.973 19.0979C131.984 19.1088 131.993 19.1218 131.998 19.136C132.004 19.1503 132.007 19.1656 132.007 19.181V24.999C132.008 25.014 132.005 25.0289 131.999 25.0427C131.993 25.0566 131.984 25.069 131.973 25.0793C131.962 25.0904 131.949 25.0991 131.935 25.1049C131.921 25.1108 131.905 25.1136 131.89 25.1133V25.9078C132.011 25.9103 132.131 25.8886 132.244 25.844C132.356 25.7995 132.459 25.7329 132.546 25.6483C132.632 25.5636 132.701 25.4626 132.748 25.3511C132.795 25.2396 132.819 25.1199 132.819 24.999V19.181C132.821 19.0585 132.799 18.9368 132.753 18.8231C132.707 18.7095 132.639 18.6062 132.552 18.5196C132.465 18.433 132.362 18.3647 132.248 18.319C132.134 18.2733 132.012 18.2511 131.89 18.2536H121.981C121.734 18.2536 121.498 18.3513 121.324 18.5252C121.15 18.6991 121.052 18.935 121.052 19.181V24.999C121.057 25.2417 121.157 25.4729 121.33 25.6428C121.504 25.8127 121.738 25.9079 121.981 25.9078H131.89V25.5121" fill="black"/>
<path d="M126.299 21.2847H130.374C130.43 21.2895 130.485 21.2829 130.538 21.2651C130.59 21.2473 130.638 21.2188 130.679 21.1814C130.72 21.144 130.753 21.0984 130.775 21.0477C130.797 20.997 130.809 20.9422 130.809 20.8868C130.809 20.8313 130.797 20.7765 130.775 20.7258C130.753 20.6751 130.72 20.6296 130.679 20.5921C130.638 20.5547 130.59 20.5262 130.538 20.5084C130.485 20.4906 130.43 20.484 130.374 20.4889H126.299C126.244 20.484 126.189 20.4906 126.136 20.5084C126.084 20.5262 126.035 20.5547 125.994 20.5921C125.954 20.6296 125.921 20.6751 125.899 20.7258C125.876 20.7765 125.865 20.8313 125.865 20.8868C125.865 20.9422 125.876 20.997 125.899 21.0477C125.921 21.0984 125.954 21.144 125.994 21.1814C126.035 21.2188 126.084 21.2473 126.136 21.2651C126.189 21.2829 126.244 21.2895 126.299 21.2847Z" fill="black"/>
<path d="M126.299 22.9508H130.374C130.43 22.9557 130.485 22.949 130.538 22.9312C130.59 22.9134 130.638 22.8849 130.679 22.8475C130.72 22.8101 130.753 22.7645 130.775 22.7138C130.797 22.6631 130.809 22.6083 130.809 22.5529C130.809 22.4974 130.797 22.4426 130.775 22.3919C130.753 22.3412 130.72 22.2957 130.679 22.2582C130.638 22.2208 130.59 22.1923 130.538 22.1745C130.485 22.1568 130.43 22.1501 130.374 22.155H126.299C126.244 22.1501 126.189 22.1568 126.136 22.1745C126.084 22.1923 126.035 22.2208 125.994 22.2582C125.954 22.2957 125.921 22.3412 125.899 22.3919C125.876 22.4426 125.865 22.4974 125.865 22.5529C125.865 22.6083 125.876 22.6631 125.899 22.7138C125.921 22.7645 125.954 22.8101 125.994 22.8475C126.035 22.8849 126.084 22.9134 126.136 22.9312C126.189 22.949 126.244 22.9557 126.299 22.9508Z" fill="black"/>
<path d="M140.546 26.972L139.927 27.1857L140.196 27.935L140.54 27.8143V26.972" fill="white"/>
<path d="M132.803 25.0584H132.722C132.485 25.0587 132.256 25.1452 132.078 25.3018C131.899 25.4585 131.784 25.6746 131.753 25.91H131.896C132.137 25.9082 132.368 25.8127 132.54 25.6437C132.696 25.4875 132.79 25.2792 132.803 25.0584" fill="black"/>
<path d="M129.789 28.9594H129.48V32.3939C129.48 32.6372 129.384 32.8708 129.213 33.0443C129.042 33.2177 128.81 33.3172 128.566 33.3213H125.566C125.595 33.4691 125.675 33.6021 125.792 33.6974C125.909 33.7928 126.056 33.8445 126.207 33.8437H129.789C129.962 33.8429 130.128 33.7738 130.249 33.6516C130.371 33.5294 130.44 33.3639 130.44 33.1915V29.6116C130.44 29.5261 130.424 29.4414 130.391 29.3623C130.359 29.2831 130.311 29.2112 130.25 29.1506C130.19 29.09 130.118 29.0419 130.039 29.0091C129.96 28.9763 129.875 28.9594 129.789 28.9594" fill="#A77FFA"/>
<path d="M128.673 31.4572H125.552V32.5144H128.555C128.586 32.5143 128.616 32.5021 128.639 32.4804C128.65 32.4691 128.659 32.4556 128.665 32.4407C128.671 32.4258 128.673 32.4099 128.673 32.3939V31.4665V31.4572ZM128.673 28.9686H126.53C126.271 28.9695 126.022 29.0726 125.839 29.2557C125.656 29.4387 125.552 29.6867 125.552 29.9455V30.672H128.673V28.9594" fill="#A77FFA"/>
<path d="M129.471 28.9594H128.675V30.6627H129.066V31.4572H128.669V32.3846C128.67 32.4006 128.667 32.4165 128.661 32.4314C128.655 32.4463 128.646 32.4598 128.635 32.4712C128.613 32.4929 128.583 32.5051 128.552 32.5052H125.548V33.1791C125.543 33.2192 125.543 33.2596 125.548 33.2997H128.539C128.783 33.2956 129.015 33.1961 129.186 33.0226C129.357 32.8491 129.453 32.6156 129.453 32.3722V28.9594" fill="black"/>
<path d="M129.069 30.6655H128.673H125.552V31.4582H128.673H129.069V30.6655Z" fill="black"/>
<path d="M135.982 35.3061H132.396C132.224 35.3061 132.059 35.3745 131.937 35.4962C131.815 35.6179 131.746 35.7831 131.746 35.9552V39.2074C131.746 39.3798 131.815 39.5453 131.936 39.6675C132.058 39.7898 132.224 39.8588 132.396 39.8597H135.654C135.913 39.8597 136.162 39.7567 136.346 39.5735C136.529 39.3903 136.632 39.1419 136.632 38.8828V35.9552C136.632 35.7831 136.564 35.6179 136.442 35.4962C136.32 35.3745 136.155 35.3061 135.982 35.3061Z" fill="#A77FFA"/>
<path d="M129.788 35.3061H126.205C126.119 35.3057 126.034 35.3222 125.955 35.3546C125.876 35.387 125.804 35.4348 125.743 35.4951C125.682 35.5554 125.634 35.6271 125.601 35.7061C125.568 35.7851 125.552 35.8697 125.552 35.9553V38.8828C125.552 39.1416 125.656 39.3896 125.839 39.5726C126.022 39.7557 126.271 39.8588 126.53 39.8597H129.788C129.96 39.8588 130.126 39.7898 130.248 39.6675C130.369 39.5453 130.438 39.3798 130.438 39.2074V35.9553C130.438 35.7831 130.369 35.618 130.247 35.4962C130.125 35.3745 129.96 35.3061 129.788 35.3061Z" fill="#A77FFA"/>
<path d="M139.566 25.0584H132.803C132.79 25.2788 132.696 25.4868 132.54 25.6427C132.368 25.8114 132.137 25.9067 131.896 25.9086H131.753C131.753 25.9487 131.753 25.992 131.753 26.0322V32.8642C131.752 33.1222 131.854 33.37 132.035 33.5536C132.217 33.7372 132.464 33.8417 132.722 33.8441H139.566C139.825 33.8433 140.073 33.7401 140.257 33.5571C140.44 33.3741 140.543 33.1261 140.544 32.8672V27.8128L140.201 27.9334L139.931 27.1853L140.551 26.972V26.0446C140.55 25.786 140.446 25.5383 140.263 25.3558C140.079 25.1733 139.831 25.0708 139.572 25.0708" fill="#A77FFA"/>
</svg>
