<svg width="24" height="24" viewBox="0 0 24 24" fill="none" xmlns="http://www.w3.org/2000/svg">
<path fill-rule="evenodd" clip-rule="evenodd" d="M10.1043 4.51485C10.0538 4.40705 9.98178 4.31035 9.89258 4.23049C9.80339 4.15062 9.69881 4.08922 9.58508 4.04994C9.47134 4.01065 9.35075 3.99427 9.23046 4.00177C9.11018 4.00927 8.99265 4.04051 8.88485 4.09361C8.77704 4.14672 8.68117 4.22062 8.6029 4.31093C8.52464 4.40123 8.46559 4.50611 8.42924 4.61933C8.3929 4.73256 8.38001 4.85182 8.39134 4.97004C8.40267 5.08827 8.43798 5.20304 8.49519 5.30756L8.74358 5.79791H3.89997C3.66128 5.79791 3.43237 5.89133 3.26359 6.05762C3.09482 6.22391 3 6.44944 3 6.68461C3 6.91978 3.09482 7.14531 3.26359 7.3116C3.43237 7.47789 3.66128 7.57131 3.89997 7.57131H10.1817C10.1943 7.57158 10.2069 7.57158 10.2195 7.57131H11.7C11.0565 9.4653 10.08 11.0649 9.04237 12.3684C8.33315 11.6782 7.78685 10.8427 7.44223 9.92107C7.35408 9.70691 7.18455 9.53513 6.96975 9.4423C6.75496 9.34947 6.51186 9.34293 6.29224 9.42407C6.07262 9.50521 5.89383 9.66763 5.79395 9.87672C5.69407 10.0858 5.68099 10.3251 5.7575 10.5435C6.20668 11.7432 6.92644 12.8268 7.86251 13.7126C7.07219 14.531 6.20897 15.2779 5.28321 15.9444C4.99811 16.1486 4.70542 16.3424 4.40575 16.5252L4.37245 16.5447L4.36255 16.5509L4.35355 16.5562H4.35265C4.14749 16.674 3.99789 16.8669 3.93642 17.0929C3.87496 17.3188 3.90663 17.5596 4.02452 17.7627C4.14242 17.9657 4.33698 18.1147 4.56583 18.177C4.79469 18.2394 5.03927 18.2101 5.24631 18.0956L4.79993 17.325C5.24631 18.0947 5.24721 18.0947 5.24811 18.0938H5.24991L5.25531 18.0894L5.27331 18.0796L5.33631 18.0424C5.67975 17.8332 6.01507 17.6114 6.34157 17.3773C7.40585 16.6114 8.39448 15.7484 9.29436 14.7997C9.64805 15.0125 9.96664 15.1694 10.2213 15.2812C10.4202 15.3684 10.6236 15.4453 10.8306 15.5117L10.8441 15.5153L10.8486 15.5161L10.8504 15.517H10.8522C11.0792 15.5751 11.3202 15.5436 11.524 15.4292C11.7278 15.3148 11.8782 15.1265 11.9432 14.9045C12.0082 14.6825 11.9826 14.4442 11.872 14.2405C11.7613 14.0368 11.5743 13.8836 11.3508 13.8137L11.3481 13.8128L11.3373 13.8093C11.2063 13.7655 11.0775 13.7158 10.9512 13.6603C10.7922 13.5905 10.6363 13.5138 10.4841 13.4306C11.7171 11.8762 12.8816 9.92373 13.5872 7.57131H15.5995C15.8382 7.57131 16.0671 7.47789 16.2359 7.3116C16.4047 7.14531 16.4995 6.91978 16.4995 6.68461C16.4995 6.44944 16.4047 6.22391 16.2359 6.05762C16.0671 5.89133 15.8382 5.79791 15.5995 5.79791H10.7559L10.1043 4.51485ZM17.9628 15.5516L16.4995 11.6484L15.0361 15.5516H17.9628ZM18.6279 17.325L19.4289 19.4637C19.5033 19.6625 19.6549 19.8239 19.8502 19.9125C20.0454 20.0012 20.2684 20.0097 20.4701 19.9364C20.6718 19.863 20.8357 19.7137 20.9256 19.5213C21.0156 19.3289 21.0243 19.1092 20.9498 18.9104L17.6811 10.1942C17.2762 9.1124 15.7228 9.1124 15.3178 10.1942L12.0501 18.9104C12.0107 19.0092 11.9917 19.1148 11.9943 19.2209C11.9969 19.327 12.0209 19.4315 12.0649 19.5284C12.109 19.6252 12.1722 19.7124 12.2509 19.7849C12.3296 19.8574 12.4222 19.9137 12.5232 19.9505C12.6242 19.9873 12.7317 20.0039 12.8393 19.9992C12.947 19.9946 13.0526 19.9689 13.15 19.9236C13.2474 19.8782 13.3346 19.8142 13.4066 19.7353C13.4786 19.6563 13.5339 19.564 13.5692 19.4637L14.3711 17.325H18.6279Z" fill="#3D3D3D"/>
</svg>
