<svg width="24" height="24" viewBox="0 0 24 24" fill="none" xmlns="http://www.w3.org/2000/svg">
<path d="M10.0002 20C9.73496 20 9.48065 19.8946 9.29315 19.707C8.09819 18.647 7.30764 17.2055 7.05615 15.628C6.94527 14.6938 6.49596 13.8325 5.79315 13.207C4.87353 12.1914 4.36426 10.8702 4.36426 9.50003C4.36426 8.1299 4.87353 6.80869 5.79315 5.79303C6.80881 4.87341 8.13003 4.36414 9.50015 4.36414C10.8703 4.36414 12.1915 4.87341 13.2072 5.79303C13.833 6.49583 14.6946 6.94512 15.6292 7.05603C17.2063 7.30766 18.6474 8.0982 19.7072 9.29303C19.8946 9.48056 19.9999 9.73487 19.9999 10C19.9999 10.2652 19.8946 10.5195 19.7072 10.707L10.7072 19.707C10.5197 19.8946 10.2653 20 10.0002 20ZM9.50015 6.37503C8.65737 6.34779 7.83638 6.64568 7.20715 7.20703C6.64598 7.83636 6.34812 8.65728 6.37515 9.50003C6.34812 10.3428 6.64598 11.1637 7.20715 11.793C8.19096 12.6988 8.83116 13.917 9.01915 15.241C9.133 16.0917 9.48563 16.8926 10.0362 17.551L17.5522 10.035C16.8935 9.48488 16.0927 9.1323 15.2422 9.01803C13.9178 8.83085 12.6991 8.19094 11.7932 7.20703C11.1639 6.64568 10.3429 6.34779 9.50015 6.37503ZM14.7322 18.268C14.9643 18.5002 15.24 18.6844 15.5433 18.81C15.8467 18.9357 16.1718 19.0004 16.5002 19.0004C16.8285 19.0004 17.1536 18.9357 17.457 18.81C17.7603 18.6844 18.036 18.5002 18.2682 18.268C18.5003 18.0359 18.6845 17.7602 18.8102 17.4569C18.9358 17.1535 19.0005 16.8284 19.0005 16.5C19.0005 16.1717 18.9358 15.8466 18.8102 15.5432C18.6845 15.2398 18.5003 14.9642 18.2682 14.732L14.7322 18.268Z" fill="#3D3D3D"/>
</svg>
