<svg width="152" height="76" viewBox="0 0 152 76" fill="none" xmlns="http://www.w3.org/2000/svg">
<path d="M51.021 22.6449H29.1465C29.3304 21.6053 29.875 20.6638 30.6846 19.9862C31.4942 19.3085 32.5168 18.938 33.5726 18.94H33.7485C34.3697 17.8299 35.3044 16.9277 36.4357 16.3462C37.567 15.7647 38.8447 15.5298 40.1089 15.6707C41.373 15.8116 42.5676 16.3221 43.5431 17.1385C44.5185 17.9548 45.2317 19.0406 45.5932 20.2602C46.0553 19.8327 46.6322 19.5495 47.2531 19.4453C47.874 19.3412 48.5118 19.4206 49.0882 19.6739C49.6645 19.9272 50.1543 20.3433 50.4975 20.8711C50.8407 21.3989 51.0223 22.0154 51.02 22.6449H51.021Z" fill="#6A52DE" stroke="#6A52DE" stroke-width="0.454543" stroke-miterlimit="10"/>
<path d="M44.9906 24.3471H23.1074C23.2916 23.3077 23.8363 22.3664 24.6459 21.689C25.4554 21.0115 26.4779 20.6412 27.5335 20.6432H27.7106C28.3315 19.5331 29.2659 18.6308 30.397 18.049C31.5281 17.4673 32.8057 17.2321 34.0698 17.3726C35.3339 17.5132 36.5285 18.0234 37.5042 18.8394C38.4799 19.6554 39.1933 20.7409 39.5552 21.9602C40.0173 21.5325 40.5945 21.2491 41.2155 21.145C41.8366 21.0408 42.4745 21.1204 43.0509 21.374C43.6274 21.6275 44.1171 22.0441 44.46 22.5723C44.8029 23.1005 44.984 23.7174 44.9809 24.3471H44.9906Z" stroke="white" stroke-width="0.40225" stroke-miterlimit="10"/>
<path d="M107.251 47.1113H91.873C92.0033 46.3813 92.386 45.7204 92.9544 45.2442C93.5228 44.7679 94.2406 44.5068 94.9821 44.5064H95.1052C95.5426 43.7269 96.2001 43.0936 96.9953 42.6854C97.7906 42.2773 98.6885 42.1125 99.5769 42.2117C100.465 42.3108 101.305 42.6695 101.991 43.2429C102.676 43.8163 103.178 44.5791 103.433 45.4359C103.757 45.1345 104.163 44.9345 104.6 44.8607C105.037 44.7869 105.486 44.8425 105.892 45.0206C106.297 45.1986 106.642 45.4913 106.884 45.8628C107.125 46.2343 107.253 46.6682 107.251 47.1113V47.1113Z" fill="#6A52DE" stroke="#6A52DE" stroke-width="0.454543" stroke-miterlimit="10"/>
<path d="M81.2301 51.9518C85.4293 51.9518 89.4986 50.4958 92.7446 47.8319C95.9906 45.168 98.2125 41.461 99.0318 37.3425C99.851 33.224 99.2168 28.9489 97.2372 25.2455C95.2577 21.5422 92.0554 18.6398 88.1759 17.0329C84.2963 15.426 79.9796 15.214 75.9613 16.433C71.9429 17.652 68.4716 20.2267 66.1387 23.7183C63.8059 27.2098 62.7558 31.4022 63.1676 35.5811C63.5793 39.7601 65.4273 43.6669 68.3966 46.6361C70.0815 48.322 72.0822 49.6592 74.2843 50.5713C76.4863 51.4834 78.8466 51.9525 81.2301 51.9518Z" stroke="white" stroke-width="0.40225" stroke-miterlimit="10"/>
<path d="M81.2302 49.5206C84.8672 49.5199 88.3915 48.2581 91.2027 45.9503C94.0138 43.6424 95.9377 40.4314 96.6468 36.8641C97.3558 33.2968 96.806 29.594 95.091 26.3866C93.3761 23.1792 90.6021 20.6656 87.2417 19.2741C83.8813 17.8827 80.1424 17.6994 76.662 18.7555C73.1816 19.8117 70.1752 22.0419 68.1547 25.0662C66.1343 28.0904 65.225 31.7217 65.5817 35.3412C65.9384 38.9608 67.5391 42.3447 70.111 44.9164C71.571 46.3768 73.3044 47.5351 75.2123 48.3251C77.1202 49.1152 79.1652 49.5214 81.2302 49.5206V49.5206Z" fill="#C3C5FF" stroke="#C2C6FF" stroke-width="0.414318" stroke-miterlimit="10"/>
<path d="M76.4099 51.3121C72.1123 47.184 69.3691 40.8709 69.3691 33.8032C69.3691 26.7355 72.1123 20.417 76.4099 16.291" stroke="white" stroke-width="0.40225" stroke-miterlimit="10"/>
<path d="M86.0566 16.2822C90.3543 20.4104 93.0952 26.7235 93.0952 33.7933C93.0952 40.8632 90.3543 47.1795 86.0566 51.3034" stroke="white" stroke-width="0.40225" stroke-miterlimit="10"/>
<path d="M63.0801 33.8027H99.3826" stroke="white" stroke-width="0.40225" stroke-miterlimit="10"/>
<path d="M81.2305 15.6416V51.9516" stroke="white" stroke-width="0.40225" stroke-miterlimit="10"/>
<path d="M94.1228 22.4616C94.3596 22.4615 94.5933 22.4087 94.8072 22.3073C95.0211 22.2059 95.2099 22.0583 95.3599 21.8751C95.5098 21.6919 95.6172 21.4776 95.6743 21.2479C95.7315 21.0181 95.737 20.7786 95.6903 20.5465C95.6308 20.2491 95.488 19.9747 95.2786 19.7553C95.0692 19.5359 94.8019 19.3806 94.5076 19.3073C94.2133 19.2339 93.9042 19.2457 93.6164 19.3412C93.3285 19.4367 93.0737 19.6119 92.8816 19.8466C92.6895 20.0813 92.568 20.3657 92.5313 20.6668C92.4946 20.9679 92.5442 21.2732 92.6742 21.5472C92.8043 21.8212 93.0094 22.0525 93.2659 22.2144C93.5224 22.3763 93.8195 22.4621 94.1228 22.4616Z" fill="#AD79FF" stroke="black" stroke-width="0.40225" stroke-miterlimit="10"/>
<path d="M81.188 29.401C81.5595 29.4017 81.9198 29.2735 82.2074 29.0383C82.495 28.8032 82.6921 28.4756 82.7651 28.1114C82.8382 27.7471 82.7826 27.3689 82.608 27.041C82.4333 26.7131 82.1504 26.4559 81.8073 26.3134C81.4643 26.1708 81.0824 26.1516 80.7268 26.2591C80.3712 26.3666 80.0639 26.5941 79.8572 26.9028C79.6506 27.2115 79.5574 27.5823 79.5936 27.9521C79.6297 28.3218 79.7931 28.6675 80.0556 28.9303C80.3561 29.2306 80.7632 29.3998 81.188 29.401V29.401Z" fill="#AD79FF" stroke="black" stroke-width="0.40225" stroke-miterlimit="10"/>
<path d="M93.1957 35.3771C93.5666 35.3774 93.9262 35.249 94.213 35.0139C94.4999 34.7788 94.6964 34.4514 94.769 34.0877C94.8416 33.7239 94.7858 33.3462 94.6111 33.019C94.4364 32.6918 94.1536 32.4352 93.811 32.2931C93.4683 32.1511 93.087 32.1322 92.732 32.2398C92.377 32.3474 92.0703 32.5747 91.8641 32.8831C91.658 33.1915 91.5651 33.5617 91.6015 33.9309C91.6378 34.3 91.801 34.6452 92.0633 34.9075C92.2119 35.0564 92.3884 35.1745 92.5827 35.2551C92.777 35.3357 92.9853 35.3771 93.1957 35.3771Z" fill="#6F4AE7" stroke="black" stroke-width="0.40225" stroke-miterlimit="10"/>
<path d="M56.2653 16.1904C56.4108 16.1903 56.5531 16.1471 56.6741 16.0662C56.795 15.9852 56.8893 15.8703 56.945 15.7359C57.0007 15.6014 57.0153 15.4534 56.9869 15.3107C56.9585 15.1679 56.8885 15.0368 56.7857 14.9338C56.6829 14.8306 56.5518 14.7604 56.4089 14.7319C56.2661 14.7035 56.118 14.7181 55.9835 14.7741C55.8262 14.8393 55.6964 14.957 55.6161 15.1072C55.5359 15.2574 55.5102 15.4308 55.5435 15.5979C55.5767 15.7649 55.6667 15.9152 55.7984 16.0232C55.93 16.1313 56.095 16.1904 56.2653 16.1904V16.1904Z" stroke="white" stroke-width="0.40225" stroke-miterlimit="10"/>
<path d="M42.288 36.1134C42.3711 36.1136 42.4532 36.0953 42.5284 36.0599C42.6036 36.0244 42.6699 35.9726 42.7227 35.9084C42.7754 35.8441 42.8132 35.7689 42.8332 35.6882C42.8532 35.6076 42.8551 35.5234 42.8386 35.442C42.8174 35.3328 42.764 35.2323 42.6853 35.1536C42.6066 35.075 42.5062 35.0216 42.397 35.0004C42.2787 34.9765 42.1559 34.9913 42.0468 35.0427C41.9376 35.0941 41.848 35.1794 41.791 35.2857C41.7341 35.3921 41.713 35.514 41.7307 35.6333C41.7485 35.7526 41.8042 35.863 41.8897 35.9482C41.9419 36.0006 42.004 36.0422 42.0724 36.0705C42.1407 36.0988 42.214 36.1134 42.288 36.1134V36.1134Z" stroke="white" stroke-width="0.40225" stroke-miterlimit="10"/>
<path d="M20.4584 36.1132C20.5695 36.1131 20.6781 36.08 20.7704 36.0182C20.8629 35.9566 20.9351 35.869 20.9777 35.7663C21.0204 35.6637 21.0317 35.5507 21.01 35.4417C20.9937 35.3603 20.9595 35.2834 20.9099 35.2168C20.8604 35.1501 20.7967 35.0951 20.7235 35.0559C20.6502 35.0167 20.5692 34.9942 20.4863 34.99C20.4033 34.9858 20.3204 34.9999 20.2436 35.0314C20.1412 35.0748 20.0534 35.1467 19.9909 35.2387C19.9345 35.3233 19.9021 35.4218 19.8971 35.5234C19.8922 35.6251 19.915 35.7261 19.9629 35.8159C20.0109 35.9056 20.0823 35.9807 20.1696 36.033C20.2568 36.0854 20.3566 36.1131 20.4584 36.1132V36.1132Z" stroke="white" stroke-width="0.40225" stroke-miterlimit="10"/>
<path fill-rule="evenodd" clip-rule="evenodd" d="M105.266 22.5713C105.393 22.5789 105.515 22.6319 105.607 22.7206C105.7 22.8093 105.757 22.928 105.77 23.0555C105.783 23.183 105.751 23.3109 105.678 23.4165C105.605 23.522 105.497 23.5982 105.374 23.6314C105.27 23.652 105.162 23.6411 105.065 23.6001C104.967 23.5596 104.883 23.4913 104.824 23.4036C104.766 23.3152 104.734 23.2116 104.734 23.1057C104.736 22.9644 104.793 22.8293 104.892 22.7294C104.992 22.6295 105.127 22.5727 105.269 22.5713H105.266Z" fill="#6A45E3"/>
<path fill-rule="evenodd" clip-rule="evenodd" d="M109.345 18.5761C108.826 18.0165 108.197 17.57 107.498 17.2647C106.798 16.9593 106.043 16.8018 105.28 16.8018C104.517 16.8018 103.762 16.9593 103.063 17.2647C102.363 17.57 101.735 18.0165 101.216 18.5761C101.186 18.6074 101.163 18.6442 101.148 18.6844C101.133 18.7246 101.126 18.7674 101.127 18.8104C101.128 18.853 101.138 18.895 101.156 18.9335C101.173 18.9741 101.198 19.0108 101.23 19.0415C101.261 19.0706 101.298 19.0932 101.338 19.1083C101.378 19.1235 101.42 19.1308 101.463 19.1299C101.506 19.1279 101.548 19.1181 101.587 19.1008C101.628 19.0839 101.664 19.0589 101.695 19.0273C102.153 18.5322 102.708 18.1372 103.326 17.867C103.944 17.5967 104.611 17.4572 105.286 17.4572C105.96 17.4572 106.627 17.5967 107.245 17.867C107.863 18.1372 108.418 18.5322 108.876 19.0273C108.92 19.0748 108.977 19.1081 109.04 19.1228C109.103 19.1374 109.169 19.1327 109.23 19.1095C109.29 19.0862 109.342 19.0455 109.379 18.9923C109.416 18.9392 109.437 18.8762 109.437 18.8114C109.439 18.768 109.431 18.7248 109.415 18.6844C109.399 18.644 109.375 18.6071 109.345 18.5761Z" fill="#6A45E3"/>
<path fill-rule="evenodd" clip-rule="evenodd" d="M108.158 19.9143C107.787 19.5254 107.341 19.2157 106.847 19.0042C106.353 18.7926 105.821 18.6836 105.284 18.6836C104.747 18.6836 104.215 18.7926 103.721 19.0042C103.227 19.2157 102.781 19.5254 102.41 19.9143C102.353 19.9569 102.311 20.0172 102.292 20.0859C102.272 20.1547 102.276 20.2279 102.302 20.2942C102.319 20.3384 102.346 20.3783 102.38 20.4112C102.414 20.444 102.455 20.4689 102.5 20.4842C102.544 20.5004 102.592 20.506 102.639 20.5005C102.687 20.4961 102.732 20.481 102.773 20.4562C102.814 20.4318 102.849 20.3991 102.876 20.3601C103.186 20.0318 103.56 19.7703 103.975 19.5915C104.39 19.4127 104.837 19.3205 105.288 19.3205C105.74 19.3205 106.187 19.4127 106.602 19.5915C107.017 19.7703 107.391 20.0318 107.701 20.3601C107.76 20.42 107.84 20.4544 107.924 20.4562C108.008 20.454 108.087 20.4205 108.147 20.3622C108.207 20.3038 108.241 20.2246 108.244 20.1411C108.247 20.0576 108.217 19.9764 108.161 19.9143H108.158Z" fill="#6A45E3"/>
<path fill-rule="evenodd" clip-rule="evenodd" d="M106.855 21.2689C106.434 20.854 105.87 20.6148 105.279 20.5996H105.254C104.662 20.6144 104.098 20.8537 103.676 21.2689C103.645 21.299 103.621 21.3348 103.605 21.3743C103.589 21.4137 103.58 21.4561 103.58 21.4989C103.58 21.5416 103.589 21.5839 103.605 21.6234C103.621 21.6628 103.645 21.6987 103.676 21.7288C103.735 21.7886 103.814 21.8227 103.898 21.8238C103.982 21.8229 104.062 21.7896 104.122 21.7309C104.419 21.4336 104.817 21.2584 105.237 21.2397H105.261C105.681 21.259 106.078 21.4342 106.376 21.7309C106.438 21.7773 106.514 21.8 106.592 21.7947C106.67 21.7886 106.744 21.754 106.799 21.6975C106.855 21.6393 106.887 21.5623 106.89 21.4816C106.892 21.4035 106.867 21.327 106.818 21.2657L106.855 21.2689Z" fill="#6A45E3"/>
<path d="M123.985 23.3938C122.954 23.9444 121.929 24.509 120.926 25.1136L117.633 24.25L117.309 24.1635C117.137 24.1454 116.964 24.195 116.828 24.3017L115.668 24.9171C115.625 24.9438 115.587 24.98 115.559 25.0229C115.531 25.0659 115.513 25.1145 115.507 25.1653C115.5 25.2162 115.505 25.2679 115.522 25.3165C115.538 25.365 115.565 25.409 115.602 25.4449L117.625 27.0955L116.88 27.6159C116.836 27.6428 116.799 27.6798 116.772 27.7239C116.743 27.7663 116.725 27.8146 116.719 27.8652C116.712 27.9159 116.717 27.9675 116.733 28.0161C116.749 28.0647 116.775 28.1091 116.811 28.146L117.392 28.8152L117.616 29.0603C117.666 29.1075 117.729 29.1393 117.797 29.152C117.865 29.166 117.936 29.1608 118.001 29.1369L119.621 28.8314L122.41 28.3067C122.435 28.3067 122.46 28.3024 122.484 28.2939C122.507 28.2886 122.529 28.281 122.55 28.2712C124.986 27.4389 127.408 26.5439 129.764 25.5032C131.208 24.888 132.608 24.172 133.951 23.3604C134.688 22.9249 135.369 22.4007 135.979 21.7994C136.273 21.5181 136.502 21.1753 136.648 20.7955C136.678 20.7062 136.695 20.6131 136.698 20.519C136.695 20.4785 136.691 20.4381 136.684 20.3981C136.661 20.2351 136.42 20.111 136.294 20.0279C136.033 19.8627 135.754 19.728 135.462 19.6263C134.302 19.2365 133.045 19.2475 131.893 19.6576C131.313 19.8476 130.745 20.0754 130.183 20.3118C129.166 20.7349 128.176 21.2034 127.168 21.6633L123.985 23.3938Z" fill="#C0C3F6"/>
<path d="M122.743 22.6491C121.713 23.2018 120.692 23.7642 119.684 24.3688L116.391 23.5051L116.067 23.4209C115.982 23.4104 115.895 23.4174 115.813 23.4415C115.73 23.4651 115.653 23.5051 115.586 23.5591L114.423 24.1745C114.379 24.2017 114.343 24.2387 114.315 24.2824C114.287 24.3257 114.269 24.3748 114.262 24.426C114.256 24.4769 114.261 24.5285 114.278 24.5771C114.295 24.6255 114.322 24.6697 114.357 24.7067L116.38 26.3562L115.636 26.8744C115.592 26.9016 115.555 26.9385 115.528 26.9823C115.5 27.025 115.482 27.0732 115.475 27.1237C115.469 27.1745 115.473 27.2261 115.489 27.2749C115.505 27.3234 115.531 27.3677 115.566 27.4044L116.148 28.0738L116.372 28.3188C116.422 28.3663 116.485 28.3985 116.553 28.4116C116.621 28.4253 116.692 28.4196 116.757 28.3954L118.377 28.0909L121.166 27.5674C121.191 27.5653 121.216 27.5609 121.241 27.5544C121.264 27.5488 121.286 27.5405 121.307 27.5297C123.743 26.6974 126.165 25.8024 128.52 24.7639C129.965 24.1486 131.365 23.4318 132.708 22.6189C133.446 22.1837 134.127 21.6595 134.736 21.0579C135.03 20.7765 135.258 20.4337 135.404 20.0539C135.434 19.9654 135.451 19.873 135.454 19.7797C135.452 19.7392 135.447 19.6988 135.441 19.6588C135.418 19.4958 135.177 19.3716 135.05 19.2863C134.789 19.1212 134.51 18.9871 134.218 18.8869C133.341 18.5982 132.406 18.5311 131.497 18.6915C131.208 18.7422 130.924 18.8166 130.648 18.9139C130.068 19.1039 129.499 19.3316 128.936 19.5616C127.92 19.988 126.93 20.4544 125.921 20.9132L122.743 22.6491Z" fill="white" stroke="black" stroke-width="0.40225" stroke-linecap="round" stroke-linejoin="round"/>
<path d="M128.275 21.526C128.268 21.5042 128.259 21.4831 128.248 21.4634C128.211 21.3982 128.153 21.3484 128.083 21.3231L128.047 21.3068C127.193 21.0348 126.327 20.7833 125.482 20.4821L121.751 19.164L119.967 18.5282L119.559 18.3857C119.335 18.309 119.161 18.4763 118.994 18.5843L117.835 19.327C117.76 19.3733 117.707 19.4465 117.685 19.5313C117.663 19.6161 117.674 19.706 117.717 19.7825C117.745 19.8332 117.786 19.876 117.835 19.9067L120.68 21.8283C121.503 22.3853 122.327 22.9419 123.151 23.4983L123.821 23.9442C123.871 23.9751 123.93 23.9914 123.989 23.9914C124.048 23.9914 124.107 23.9751 124.157 23.9442L127.34 22.3249L128.143 21.9168C128.178 21.8981 128.209 21.8728 128.234 21.8423C128.259 21.8104 128.277 21.7736 128.288 21.7343V21.7139C128.302 21.6514 128.298 21.586 128.275 21.526V21.526Z" fill="white" stroke="black" stroke-width="0.40225" stroke-linecap="round" stroke-linejoin="round"/>
<path d="M134.361 18.9602L132.945 20.0526L132.276 19.7159L131.943 18.7075C131.943 18.7075 132.623 18.2974 134.361 18.9602Z" fill="#C0C3F6" stroke="black" stroke-width="0.40225" stroke-linecap="round" stroke-linejoin="round"/>
<path d="M35.785 38.8516H24.1876C23.7772 38.8518 23.3838 39.015 23.0937 39.3053C22.8036 39.5956 22.6406 39.9892 22.6406 40.3996V56.4846C22.6406 56.895 22.8036 57.2886 23.0937 57.5789C23.3838 57.8692 23.7772 58.0324 24.1876 58.0327H35.785C35.9883 58.0327 36.1896 57.9926 36.3775 57.9148C36.5653 57.837 36.7359 57.723 36.8797 57.5792C37.0234 57.4355 37.1375 57.2648 37.2153 57.077C37.2931 56.8892 37.3331 56.6879 37.3331 56.4846V40.3996C37.3331 40.1963 37.2931 39.995 37.2153 39.8072C37.1375 39.6194 37.0234 39.4487 36.8797 39.305C36.7359 39.1612 36.5653 39.0472 36.3775 38.9694C36.1896 38.8916 35.9883 38.8516 35.785 38.8516V38.8516Z" fill="#C0C3F6"/>
<path d="M29.2105 58.4697C29.1964 58.8262 29.0448 59.1633 28.7876 59.4105C28.5304 59.6577 28.1875 59.7958 27.8308 59.7958C27.4741 59.7958 27.1312 59.6577 26.874 59.4105C26.6168 59.1633 26.4653 58.8262 26.4512 58.4697" stroke="white" stroke-width="0.40225" stroke-linecap="round" stroke-linejoin="round"/>
<path d="M37.9606 37.4736H25.7317C25.3211 37.4736 24.9273 37.6367 24.637 37.9271C24.3467 38.2174 24.1836 38.6111 24.1836 39.0217V56.618C24.1836 57.0286 24.3467 57.4224 24.637 57.7128C24.9273 58.0031 25.3211 58.1662 25.7317 58.1662H37.9606C38.1638 58.1662 38.3651 58.1261 38.5529 58.0483C38.7406 57.9705 38.9112 57.8564 39.0548 57.7127C39.1985 57.5689 39.3125 57.3982 39.3901 57.2104C39.4678 57.0226 39.5077 56.8213 39.5076 56.618V39.0217C39.5077 38.8184 39.4678 38.6172 39.3901 38.4294C39.3125 38.2416 39.1985 38.0709 39.0548 37.9272C38.9112 37.7834 38.7406 37.6693 38.5529 37.5915C38.3651 37.5137 38.1638 37.4736 37.9606 37.4736Z" stroke="white" stroke-width="0.40225" stroke-linecap="round" stroke-linejoin="round"/>
<path d="M27.8633 40.6914V55.7077" stroke="white" stroke-width="0.40225" stroke-linecap="round" stroke-linejoin="round"/>
<path d="M31.8457 40.6914V55.7077" stroke="white" stroke-width="0.40225" stroke-linecap="round" stroke-linejoin="round"/>
<path d="M35.8281 40.6914V50.6522" stroke="white" stroke-width="0.40225" stroke-linecap="round" stroke-linejoin="round"/>
<path d="M29.5469 34.8682V37.3198" stroke="white" stroke-width="0.40225" stroke-linecap="round" stroke-linejoin="round"/>
<path d="M34.1445 34.8682V37.3198" stroke="white" stroke-width="0.40225" stroke-linecap="round" stroke-linejoin="round"/>
<path d="M35.2174 33.335H28.4746V34.8669H35.2174V33.335Z" stroke="white" stroke-width="0.40225" stroke-linecap="round" stroke-linejoin="round"/>
<path d="M38.0607 63.3341C38.2655 63.3341 38.4656 63.2734 38.6358 63.1597C38.8061 63.0459 38.9388 62.8842 39.0171 62.6951C39.0955 62.5059 39.116 62.2978 39.0761 62.097C39.0361 61.8962 38.9375 61.7116 38.7927 61.5668C38.6479 61.422 38.4635 61.3235 38.2626 61.2836C38.0618 61.2436 37.8537 61.2641 37.6645 61.3425C37.4753 61.4208 37.3136 61.5536 37.1999 61.7238C37.0861 61.8941 37.0254 62.0941 37.0254 62.2989C37.0254 62.5735 37.1345 62.8368 37.3286 63.0309C37.5228 63.2251 37.7861 63.3341 38.0607 63.3341V63.3341Z" stroke="white" stroke-width="0.40225" stroke-linecap="round" stroke-linejoin="round"/>
<path d="M47.0235 63.3341C47.2283 63.3341 47.4285 63.2734 47.5987 63.1597C47.769 63.0459 47.9016 62.8842 47.98 62.6951C48.0583 62.5059 48.0789 62.2978 48.0389 62.097C47.999 61.8962 47.9004 61.7116 47.7556 61.5668C47.6108 61.422 47.4263 61.3235 47.2255 61.2836C47.0247 61.2436 46.8165 61.2641 46.6274 61.3425C46.4382 61.4208 46.2765 61.5536 46.1628 61.7238C46.049 61.8941 45.9883 62.0941 45.9883 62.2989C45.9883 62.5735 46.0973 62.8368 46.2915 63.0309C46.4856 63.2251 46.749 63.3341 47.0235 63.3341V63.3341Z" stroke="white" stroke-width="0.40225" stroke-linecap="round" stroke-linejoin="round"/>
<path d="M40.4206 51.877V49.8184C40.4413 49.3084 40.6584 48.8262 41.0266 48.4726C41.3947 48.1191 41.8853 47.9217 42.3957 47.9217C42.9061 47.9217 43.3966 48.1191 43.7648 48.4726C44.1329 48.8262 44.35 49.3084 44.3707 49.8184V51.877H45.4858V49.9101C45.4599 49.1067 45.1224 48.3449 44.5449 47.7858C43.9675 47.2267 43.1952 46.9141 42.3914 46.9141C41.5876 46.9141 40.8153 47.2267 40.2378 47.7858C39.6603 48.3449 39.3229 49.1067 39.2969 49.9101V51.877H40.4206Z" stroke="white" stroke-width="0.40225" stroke-linecap="round" stroke-linejoin="round"/>
<path d="M49.1205 50.6523H35.6653C35.2547 50.6523 34.8609 50.8155 34.5706 51.1058C34.2803 51.3961 34.1172 51.7898 34.1172 52.2004V60.2969C34.1172 60.7074 34.2803 61.1013 34.5706 61.3916C34.8609 61.6819 35.2547 61.845 35.6653 61.845H49.1205C49.5309 61.8447 49.9244 61.6814 50.2145 61.3912C50.5046 61.1009 50.6675 60.7073 50.6675 60.2969V52.2004C50.6675 51.79 50.5046 51.3965 50.2145 51.1062C49.9244 50.8159 49.5309 50.6526 49.1205 50.6523V50.6523Z" fill="#A77FFA" stroke="white" stroke-width="0.40225" stroke-linecap="round" stroke-linejoin="round"/>
<path d="M40.5062 53.7344L37.1445 54.6218L37.6433 56.511L41.005 55.6236L40.5062 53.7344Z" fill="#6A52DE" stroke="black" stroke-width="0.40225" stroke-linecap="round" stroke-linejoin="round"/>
<path d="M45.6289 56.298L47.5559 54.8525L48.0784 57.2026L45.6289 56.298Z" fill="white" stroke="black" stroke-width="0.40225" stroke-linecap="round" stroke-linejoin="round"/>
<path d="M42.0827 59.5395C42.2644 59.5395 42.442 59.4856 42.5931 59.3846C42.7442 59.2837 42.8619 59.1402 42.9315 58.9723C43.001 58.8045 43.0192 58.6198 42.9838 58.4416C42.9483 58.2634 42.8608 58.0997 42.7323 57.9712C42.6039 57.8428 42.4401 57.7552 42.2619 57.7198C42.0837 57.6844 41.8991 57.7026 41.7312 57.7721C41.5633 57.8416 41.4198 57.9593 41.3189 58.1104C41.2179 58.2615 41.1641 58.4392 41.1641 58.6209C41.1641 58.8645 41.2608 59.0982 41.4331 59.2705C41.6054 59.4428 41.8391 59.5395 42.0827 59.5395V59.5395Z" fill="#C0C3F6" stroke="black" stroke-width="0.40225" stroke-linecap="round" stroke-linejoin="round"/>
<path d="M105.709 30.192L107.726 29.4072" stroke="white" stroke-width="0.40225" stroke-linecap="round" stroke-linejoin="round"/>
<path d="M109.453 28.727L112.781 27.3613" stroke="white" stroke-width="0.40225" stroke-linecap="round" stroke-linejoin="round"/>
<path d="M104.746 32.8242L112.951 29.6104" stroke="white" stroke-width="0.40225" stroke-linecap="round" stroke-linejoin="round"/>
<path d="M111.736 62.7917V56.6578H117.938V50.8975H127.745V62.7917H111.736Z" fill="#C4C6FC"/>
<path d="M111.735 62.7915H111.786V56.7072H117.987V50.9457H127.697V62.7418H111.735V62.7915V62.8401H127.795V50.8486H117.886V56.6112H111.688V62.8422H111.735V62.7915Z" fill="#C4C7FC"/>
<path d="M101.494 54.7939V52.1738H98.5254V62.7361" stroke="white" stroke-width="0.40225" stroke-linecap="round" stroke-linejoin="round"/>
<path d="M123.257 61.7023V56.3047H120.084V60.5732" stroke="black" stroke-width="0.40225" stroke-linecap="round" stroke-linejoin="round"/>
<path d="M113.975 48.219V43.4863H117.813V47.7171H119.67V55.2079" stroke="white" stroke-width="0.40225" stroke-linecap="round" stroke-linejoin="round"/>
<path d="M115.893 49.4922H108.488V51.43H115.893V49.4922Z" stroke="white" stroke-width="0.40225" stroke-linecap="round" stroke-linejoin="round"/>
<path d="M115.456 51.6133V62.8468H108.926V51.6133" stroke="white" stroke-width="0.40225" stroke-linecap="round" stroke-linejoin="round"/>
<path d="M108.724 56.415H100.129V57.5928H108.724" stroke="white" stroke-width="0.40225" stroke-linecap="round" stroke-linejoin="round"/>
<path d="M108.724 62.8468H100.682V57.7061" stroke="white" stroke-width="0.40225" stroke-linecap="round" stroke-linejoin="round"/>
<path d="M121.402 38.333V39.595" stroke="white" stroke-width="0.40225" stroke-linecap="round" stroke-linejoin="round"/>
<path d="M122.032 38.9629H120.77" stroke="white" stroke-width="0.40225" stroke-linecap="round" stroke-linejoin="round"/>
<path d="M45.0723 37.1797V38.6263" stroke="white" stroke-width="0.40225" stroke-linecap="round" stroke-linejoin="round"/>
<path d="M45.7942 37.9023H44.3477" stroke="white" stroke-width="0.40225" stroke-linecap="round" stroke-linejoin="round"/>
<path d="M50.8281 12.667V14.1147" stroke="white" stroke-width="0.40225" stroke-linecap="round" stroke-linejoin="round"/>
<path d="M51.5501 13.3916H50.1035" stroke="white" stroke-width="0.40225" stroke-linecap="round" stroke-linejoin="round"/>
<path d="M16.5605 37.9219V39.3695" stroke="white" stroke-width="0.40225" stroke-linecap="round" stroke-linejoin="round"/>
<path d="M17.2817 38.6465H15.834" stroke="white" stroke-width="0.40225" stroke-linecap="round" stroke-linejoin="round"/>
<path d="M126.05 43.3748C126.179 43.375 126.306 43.3369 126.413 43.2652C126.521 43.1934 126.605 43.0913 126.655 42.9718C126.704 42.8522 126.718 42.7207 126.692 42.5937C126.667 42.4667 126.605 42.3501 126.514 42.2585C126.422 42.1669 126.306 42.1044 126.179 42.079C126.052 42.0537 125.92 42.0667 125.801 42.1161C125.681 42.1656 125.579 42.2494 125.507 42.357C125.435 42.4646 125.396 42.5912 125.396 42.7206C125.396 42.8065 125.413 42.8916 125.446 42.9709C125.479 43.0503 125.527 43.1224 125.587 43.1831C125.648 43.2439 125.72 43.2921 125.799 43.325C125.879 43.3579 125.964 43.3748 126.05 43.3748V43.3748Z" stroke="white" stroke-width="0.40225" stroke-miterlimit="10"/>
<path d="M84.3262 62.0484C83.0308 62.2999 81.5885 62.0483 80.3881 61.5377C79.5968 61.2074 78.7774 60.632 77.9343 60.4733C77.0912 60.3147 76.124 60.6115 75.296 60.835C74.468 61.0584 73.6086 61.337 72.9328 60.7476C72.3499 60.2434 72.147 59.2664 71.9894 58.3726C71.8317 57.4787 71.6741 56.6129 71.5165 55.7342C71.44 55.398 71.4127 55.0526 71.4355 54.7086C71.4916 54.3672 71.6278 54.0438 71.8328 53.7651C72.3639 52.9975 73.111 52.543 73.8516 52.1458C74.4917 51.809 75.1599 51.498 75.8584 51.498C76.4372 51.536 77.0046 51.6771 77.5338 51.9148L80.3018 52.9727C80.6023 53.0633 80.8809 53.2151 81.12 53.4185C81.3176 53.6349 81.4957 53.8683 81.6522 54.1159C82.6584 55.5387 84.2194 56.2577 84.9599 57.9386C85.3388 58.7957 85.4997 59.9088 85.5623 60.8868C85.585 61.6198 84.9891 61.9275 84.3262 62.0484Z" fill="#9C7452"/>
<path d="M74.5842 52.9416L61.1202 55.3403C60.9561 55.37 60.7876 55.3667 60.6248 55.3306C60.3804 55.2757 60.1577 55.1498 59.9848 54.9686C59.8119 54.7875 59.6966 54.5592 59.6532 54.3126L54.8871 27.5499C54.8577 27.3856 54.8609 27.217 54.8966 27.054C54.9324 26.8909 54.9999 26.7366 55.0954 26.5996C55.1908 26.4627 55.3123 26.3459 55.4529 26.2559C55.5935 26.166 55.7504 26.1045 55.9148 26.0752L69.3701 23.6733C69.7019 23.6154 70.0431 23.6911 70.3194 23.8838C70.5956 24.0765 70.7844 24.3707 70.8447 24.7021L75.6173 51.4745C75.6743 51.806 75.5976 52.1465 75.404 52.4215C75.2103 52.6965 74.9155 52.8836 74.5842 52.9416V52.9416Z" fill="white" stroke="black" stroke-width="0.40225" stroke-miterlimit="10"/>
<path d="M56.1804 33.0774C55.5478 32.8345 54.0213 32.1587 53.3736 31.9979C53.1888 31.9433 52.9951 31.9261 52.8036 31.9472C52.6121 31.9679 52.4267 32.027 52.2585 32.1209C51.3107 32.7222 51.9573 34.0317 52.5035 34.6718C53.5453 35.8788 55.4863 37.1073 56.8735 37.877" fill="#9C7452"/>
<path d="M56.1804 33.0774C55.5478 32.8345 54.0213 32.1587 53.3736 31.9979C53.1888 31.9433 52.9951 31.9261 52.8036 31.9472C52.6121 31.9679 52.4267 32.027 52.2585 32.1209C51.3107 32.7222 51.9573 34.0317 52.5035 34.6718C53.5453 35.8788 55.4863 37.1073 56.8735 37.877" stroke="black" stroke-width="0.40225" stroke-miterlimit="10"/>
<path d="M73.9372 53.0566L63.6816 55.1347C63.6816 55.1347 65.8407 57.8335 70.5237 58.1326L72.2283 59.8501" fill="#9C7452"/>
<path d="M73.9372 53.0566L63.6816 55.1347C63.6816 55.1347 65.8407 57.8335 70.5237 58.1326L72.2283 59.8501" stroke="black" stroke-width="0.40225" stroke-miterlimit="10"/>
<path d="M76.2119 51.2318L71.4317 24.7563C71.3341 24.2274 71.0317 23.7586 70.5901 23.4517C70.1486 23.1448 69.6036 23.0247 69.074 23.1176L56.1789 25.4483C55.6503 25.5458 55.1816 25.8481 54.8748 26.2894C54.5679 26.7308 54.4477 27.2754 54.5403 27.8049L59.3258 54.2782C59.4243 54.8078 59.728 55.2772 60.1707 55.5841C60.6135 55.891 61.1595 56.0106 61.69 55.917L74.5839 53.5884C75.1129 53.4913 75.5817 53.1882 75.8875 52.7458C76.1933 52.3034 76.3111 51.7577 76.2151 51.2285L76.2119 51.2318Z" fill="white" stroke="black" stroke-width="0.40225" stroke-miterlimit="10"/>
<path d="M56.3084 48.0155C56.4866 48.0511 56.6614 48.1018 56.8331 48.1515C57.8047 48.4321 57.4862 48.3609 58.4524 48.6416C59.5449 48.9568 60.4074 50.4088 59.5028 51.3717C58.3876 52.5516 57.1224 51.8759 55.8874 51.4452C55.2397 51.2228 54.6783 50.8903 54.4484 50.2005C54.1321 49.2375 54.7226 48.0414 55.8 47.9712C55.9706 47.9678 56.141 47.9826 56.3084 48.0155V48.0155Z" fill="#9C7452" stroke="black" stroke-width="0.40225" stroke-miterlimit="10"/>
<path d="M72.5395 52.5185L61.9299 54.4617C61.6604 54.5106 61.3826 54.4512 61.1567 54.2964C60.9309 54.1415 60.7754 53.9037 60.724 53.6347L55.8283 27.686C55.802 27.5574 55.802 27.4249 55.8283 27.2963C55.8542 27.1685 55.9059 27.0472 55.9801 26.9399C56.0543 26.8326 56.1496 26.7416 56.2601 26.6723C56.3718 26.6031 56.4963 26.5572 56.6261 26.5374L58.1645 26.2568C58.2392 26.2438 58.316 26.2574 58.3817 26.2952C58.4474 26.3331 58.4978 26.3929 58.5239 26.464C58.6491 26.8037 58.8897 27.0885 59.2037 27.2687C59.5177 27.4489 59.885 27.513 60.2414 27.4496L66.0061 26.4078C66.3599 26.3427 66.6799 26.156 66.9107 25.8801C67.1415 25.6041 67.2687 25.2562 67.2703 24.8965C67.2705 24.8175 67.2984 24.7411 67.3491 24.6806C67.4001 24.6229 67.4695 24.5847 67.5456 24.5726L68.7579 24.3492C68.9101 24.3214 69.0662 24.3239 69.2174 24.3567C69.3686 24.3895 69.5118 24.4519 69.6388 24.5403C69.7659 24.6281 69.8741 24.7404 69.9572 24.8707C70.0405 25.0005 70.0978 25.1453 70.1257 25.297L71.0972 30.8178" fill="white"/>
<path d="M72.5395 52.5185L61.9299 54.4617C61.6604 54.5106 61.3826 54.4512 61.1567 54.2964C60.9309 54.1415 60.7754 53.9037 60.724 53.6347L55.8283 27.686C55.802 27.5574 55.802 27.4249 55.8283 27.2963C55.8542 27.1685 55.9059 27.0472 55.9801 26.9399C56.0543 26.8326 56.1496 26.7416 56.2601 26.6723C56.3718 26.6031 56.4963 26.5572 56.6261 26.5374L58.1645 26.2568C58.2392 26.2438 58.316 26.2574 58.3817 26.2952C58.4474 26.3331 58.4978 26.3929 58.5239 26.464C58.6491 26.8037 58.8897 27.0885 59.2037 27.2687C59.5177 27.4489 59.885 27.513 60.2414 27.4496L66.0061 26.4078C66.3599 26.3427 66.6799 26.156 66.9107 25.8801C67.1415 25.6041 67.2687 25.2562 67.2703 24.8965C67.2705 24.8175 67.2984 24.7411 67.3491 24.6806C67.4001 24.6229 67.4695 24.5847 67.5456 24.5726L68.7579 24.3492C68.9101 24.3214 69.0662 24.3239 69.2174 24.3567C69.3686 24.3895 69.5118 24.4519 69.6388 24.5403C69.7659 24.6281 69.8741 24.7404 69.9572 24.8707C70.0405 25.0005 70.0978 25.1453 70.1257 25.297L71.0972 30.8178" stroke="black" stroke-width="0.40225" stroke-miterlimit="10"/>
<path d="M55.0162 40.4189C55.1943 40.4545 55.3681 40.5063 55.5397 40.5548C56.5113 40.8355 57.4829 41.1238 58.4545 41.4045C59.547 41.7218 60.4095 43.1739 59.5049 44.1368C58.3897 45.3146 55.8344 44.2868 54.5984 43.8496C53.9506 43.6262 53.3893 43.2936 53.1593 42.6049C52.843 41.6409 53.4335 40.4458 54.5109 40.3746C54.6805 40.368 54.8503 40.3828 55.0162 40.4189V40.4189Z" fill="#9C7452" stroke="black" stroke-width="0.40225" stroke-miterlimit="10"/>
<path d="M55.0162 43.986C55.1943 44.0216 55.3681 44.0723 55.5397 44.122C56.5113 44.4027 57.4829 44.691 58.4545 44.9695C59.547 45.2858 60.4095 46.7377 59.5049 47.7018C58.3897 48.8806 55.8344 47.8529 54.5984 47.4135C53.9506 47.1901 53.3893 46.8608 53.1593 46.171C52.843 45.2081 53.4335 44.0119 54.5109 43.9407C54.6804 43.9383 54.8498 43.9534 55.0162 43.986V43.986Z" fill="#9C7452" stroke="black" stroke-width="0.40225" stroke-miterlimit="10"/>
<path d="M85.7778 60.9068L85.3967 59.3253C85.361 58.9313 80.8399 47.9309 80.3455 46.5793C79.8511 45.2277 76.3512 38.2917 76.3512 38.2917C75.8633 37.2558 75.5423 36.1493 75.4002 35.0131C75.4002 35.0131 75.0925 32.7839 74.9997 31.414C74.964 30.8613 74.1782 30.4932 73.6611 30.6799C72.9788 30.9164 72.4034 31.3978 72.086 32.3683C71.9697 32.7379 71.9379 33.1291 71.9932 33.5127L72.914 45.2213C69.8071 52.8859 75.7823 56.4775 75.7823 56.4775" fill="#9C7452"/>
<path d="M85.7778 60.9068L85.3967 59.3253C85.361 58.9313 80.8399 47.9309 80.3455 46.5793C79.8511 45.2277 76.3512 38.2917 76.3512 38.2917C75.8633 37.2558 75.5423 36.1493 75.4002 35.0131C75.4002 35.0131 75.0925 32.7839 74.9997 31.414C74.964 30.8613 74.1782 30.4932 73.6611 30.6799C72.9788 30.9164 72.4034 31.3978 72.086 32.3683C71.9697 32.7379 71.9379 33.1291 71.9932 33.5127L72.914 45.2213C69.8071 52.8859 75.7823 56.4775 75.7823 56.4775" stroke="black" stroke-width="0.40225" stroke-miterlimit="10"/>
<path d="M66.6817 32.8865C66.5824 32.7359 66.4425 32.6164 66.278 32.5421C66.052 32.4441 65.7965 32.4388 65.5666 32.5272C65.3366 32.6157 65.1506 32.7907 65.0484 33.0149C65.0097 33.1067 64.9856 33.2039 64.9771 33.3031L63.6968 33.519C63.6816 33.4835 63.6624 33.4499 63.6396 33.4187C63.617 33.3895 63.5975 33.3539 63.5749 33.3248L63.9559 32.785C64.0906 32.8337 64.2347 32.8507 64.377 32.8346C64.5189 32.8188 64.655 32.7696 64.7742 32.6911C64.9284 32.5921 65.0498 32.4496 65.123 32.2817C65.1962 32.1138 65.218 31.9278 65.1855 31.7475C65.1618 31.6255 65.1153 31.509 65.0484 31.4043C64.9498 31.2505 64.8079 31.1295 64.6405 31.0565C64.4732 30.9834 64.2879 30.9618 64.1081 30.9941C63.9849 31.0164 63.8672 31.0626 63.7616 31.1301C63.6099 31.2285 63.4899 31.3687 63.4161 31.5338C63.3409 31.7032 63.3184 31.8912 63.3514 32.0736C63.3742 32.1967 63.4204 32.3143 63.4874 32.4201C63.5058 32.4471 63.5252 32.4741 63.5457 32.5L63.1647 33.0462C63.0171 32.9944 62.8588 32.9815 62.7048 33.0085C62.5818 33.0321 62.4646 33.0789 62.3593 33.1466C62.2085 33.2446 62.0894 33.3841 62.016 33.5483C61.9394 33.7172 61.9168 33.9057 61.9512 34.088C61.9776 34.238 62.0402 34.3791 62.1337 34.4993C62.2273 34.6197 62.3493 34.7151 62.4888 34.7767C62.6561 34.8587 62.8446 34.887 63.0286 34.8577C63.1789 34.8305 63.3203 34.767 63.4407 34.673C63.561 34.579 63.6567 34.4572 63.7195 34.3179C63.7615 34.2273 63.7857 34.1295 63.7908 34.0297L65.0776 33.8073C65.0924 33.8428 65.1113 33.8765 65.1337 33.9077C65.1524 33.9351 65.1718 33.961 65.192 33.9854L64.8131 34.5252C64.6654 34.4741 64.507 34.4619 64.3532 34.4896C64.2304 34.5123 64.1131 34.5584 64.0077 34.6256C63.8571 34.7246 63.738 34.8648 63.6645 35.0293C63.5889 35.1986 63.5663 35.3868 63.5997 35.5691C63.6201 35.69 63.6644 35.8057 63.7299 35.9093C63.7955 36.0129 63.8809 36.1024 63.9814 36.1728C64.0818 36.2431 64.1952 36.2928 64.315 36.3189C64.4348 36.345 64.5586 36.347 64.6792 36.3248C64.8024 36.302 64.92 36.2558 65.0257 36.1888C65.1772 36.0901 65.2971 35.9499 65.3712 35.785C65.4462 35.6156 65.4687 35.4276 65.436 35.2452C65.4124 35.1223 65.3655 35.005 65.2978 34.8998C65.2773 34.8706 65.2546 34.835 65.233 34.8058L65.6141 34.2661C65.7661 34.3209 65.9295 34.3365 66.0891 34.3114C66.2118 34.2871 66.3289 34.2403 66.4345 34.1733C66.5853 34.0751 66.7048 33.9356 66.7789 33.7716C66.8547 33.6024 66.8769 33.4141 66.8426 33.2319C66.8069 33.1092 66.7527 32.9928 66.6817 32.8865V32.8865ZM63.8491 31.8155C63.8679 31.7308 63.9106 31.6533 63.9721 31.5921C64.032 31.5308 64.1099 31.4903 64.1945 31.4766C64.2668 31.4642 64.341 31.4702 64.4104 31.4939C64.4778 31.5152 64.5393 31.5522 64.5896 31.6018C64.6409 31.6526 64.6781 31.7159 64.6976 31.7854C64.7163 31.8561 64.7163 31.9305 64.6976 32.0013C64.6778 32.0856 64.6353 32.1629 64.5745 32.2247C64.5229 32.2741 64.4601 32.3104 64.3916 32.3305C64.323 32.3506 64.2506 32.3539 64.1805 32.3402C64.0968 32.3206 64.0197 32.2792 63.957 32.2203C63.8995 32.1576 63.8603 32.0804 63.8436 31.9969C63.8318 31.9369 63.8336 31.8748 63.8491 31.8155V31.8155ZM63.2737 34.0232C63.2601 34.0814 63.2343 34.1362 63.1982 34.1838C63.162 34.2315 63.1162 34.2711 63.0638 34.2999C63.0113 34.3287 62.9535 34.3462 62.8938 34.3512C62.8342 34.3561 62.7742 34.3484 62.7177 34.3287C62.6506 34.3075 62.5895 34.2705 62.5396 34.2207C62.4813 34.1586 62.4419 34.081 62.4262 33.9972C62.4144 33.9399 62.4144 33.8808 62.4262 33.8235C62.4453 33.7436 62.4882 33.6713 62.5493 33.6162C62.6096 33.5556 62.6874 33.5151 62.7717 33.5007C62.8283 33.4888 62.8867 33.4888 62.9433 33.5007C62.9991 33.5124 63.0519 33.5352 63.0987 33.5678C63.1454 33.6003 63.1851 33.6421 63.2154 33.6904C63.2456 33.7386 63.2658 33.7925 63.2747 33.8488C63.2836 33.9051 63.281 33.9625 63.2672 34.0178L63.2737 34.0232ZM64.9135 35.4957C64.8937 35.576 64.8509 35.6488 64.7904 35.7051C64.7396 35.7564 64.6764 35.7936 64.6069 35.8131C64.5361 35.8316 64.4618 35.8316 64.391 35.8131C64.3071 35.7929 64.2302 35.7504 64.1686 35.69C64.11 35.6281 64.0696 35.5511 64.052 35.4676C64.0412 35.4102 64.0412 35.3513 64.052 35.2938C64.068 35.2129 64.1105 35.1395 64.1729 35.0854C64.234 35.0258 64.3114 34.9857 64.3953 34.97C64.4528 34.9603 64.5116 34.9603 64.5691 34.97C64.6532 34.9904 64.7304 35.0328 64.7926 35.093C64.8506 35.1554 64.8909 35.2322 64.9092 35.3155C64.9213 35.3748 64.9227 35.4359 64.9135 35.4957V35.4957ZM66.3169 33.4877C66.2997 33.5677 66.2578 33.6402 66.1971 33.695C66.1363 33.7558 66.0583 33.7965 65.9736 33.8116C65.9034 33.8221 65.8317 33.8162 65.7641 33.7943C65.697 33.7731 65.6359 33.7361 65.586 33.6864C65.5277 33.6237 65.4875 33.5466 65.4694 33.463C65.4597 33.4062 65.4597 33.3481 65.4694 33.2913C65.4886 33.2167 65.527 33.1485 65.5808 33.0933C65.6346 33.0382 65.7019 32.9982 65.776 32.9772C65.8468 32.9584 65.9212 32.9584 65.992 32.9772C66.0759 32.998 66.1529 33.0404 66.2154 33.1002C66.2735 33.1624 66.3134 33.2392 66.3309 33.3225C66.3394 33.3783 66.3365 33.4353 66.3223 33.49L66.3169 33.4877Z" fill="black"/>
<path d="M67.4644 40.9729L63.8955 41.6206C63.5777 41.6774 63.25 41.6224 62.9683 41.4648C62.6865 41.3072 62.4682 41.0568 62.3503 40.7562C62.2324 40.4557 62.2223 40.1236 62.3218 39.8165C62.4213 39.5094 62.6242 39.2462 62.8959 39.0719C63.0502 38.9726 63.2226 38.9046 63.4033 38.8721L66.9657 38.2244C67.3289 38.1587 67.7033 38.24 68.0066 38.4503C68.3098 38.6607 68.5171 38.9829 68.5828 39.3461C68.6486 39.7093 68.5673 40.0837 68.3569 40.3869C68.1466 40.6902 67.8244 40.8975 67.4612 40.9632L67.4644 40.9729Z" fill="#47FFB9"/>
<path d="M67.4648 40.9727L67.4356 40.8291L63.8678 41.4769C63.794 41.4899 63.7193 41.4972 63.6444 41.4985C63.3553 41.4975 63.0755 41.3959 62.853 41.2113C62.6249 41.0243 62.4716 40.7615 62.4212 40.4708C62.4061 40.3973 62.3985 40.3224 62.3986 40.2473C62.3999 39.9554 62.5035 39.6732 62.6915 39.4499C62.8795 39.2266 63.1399 39.0763 63.4273 39.0252L66.9952 38.3775C67.0688 38.3624 67.1436 38.3548 67.2187 38.3549C67.5079 38.3563 67.7876 38.4581 68.01 38.6431C68.238 38.8302 68.3913 39.0931 68.4418 39.3837C68.4565 39.4569 68.4637 39.5315 68.4634 39.6061C68.4623 39.8979 68.3588 40.18 68.171 40.4033C67.9832 40.6267 67.7229 40.777 67.4356 40.8281L67.4648 40.9717L67.4939 41.1163C67.7821 41.0645 68.0495 40.9315 68.2647 40.7331C68.4915 40.5236 68.6497 40.2504 68.7187 39.9495C68.7876 39.6485 68.7642 39.3338 68.6512 39.0464C68.5383 38.7591 68.3412 38.5125 68.0858 38.339C67.8304 38.1656 67.5285 38.0733 67.2197 38.0742C67.1287 38.074 67.0377 38.0809 66.9477 38.0948L63.3788 38.7425C63.0225 38.8046 62.7007 38.9936 62.473 39.2747C62.2462 39.5477 62.1217 39.8913 62.1211 40.2463C62.121 40.4475 62.1605 40.6469 62.2374 40.8328C62.3143 41.0188 62.4271 41.1878 62.5694 41.3301C62.7117 41.4725 62.8806 41.5855 63.0665 41.6625C63.2525 41.7396 63.4517 41.7792 63.653 41.7792C63.7425 41.7816 63.832 41.7769 63.9207 41.7652L67.4896 41.1175L67.4648 40.9727Z" fill="black"/>
<path d="M68.5565 39.3567C68.6159 39.6738 68.5635 40.0017 68.4081 40.2845C68.2527 40.5673 68.0041 40.7873 67.7045 40.9072C67.405 41.0271 67.0731 41.0394 66.7656 40.9419C66.458 40.8444 66.1938 40.6432 66.018 40.3726C65.8422 40.1021 65.7657 39.7789 65.8016 39.4583C65.8375 39.1377 65.9836 38.8394 66.2149 38.6144C66.4462 38.3894 66.7483 38.2517 67.0698 38.2246C67.3913 38.1976 67.7123 38.2829 67.9779 38.4661C68.1282 38.5691 68.2567 38.7008 68.356 38.8536C68.4553 39.0064 68.5234 39.1774 68.5565 39.3567V39.3567Z" fill="white"/>
<path d="M68.5584 39.3561L68.4137 39.3852C68.4277 39.4586 68.4353 39.533 68.4364 39.6077C68.4355 39.8997 68.332 40.1821 68.1439 40.4055C67.9558 40.6289 67.6952 40.779 67.4076 40.8296C67.3342 40.8436 67.2599 40.8512 67.1852 40.8523C66.8936 40.8502 66.6118 40.7465 66.3885 40.5589C66.1652 40.3713 66.0144 40.1116 65.9621 39.8246C65.9492 39.7508 65.9427 39.676 65.9427 39.6011C65.9437 39.3093 66.0472 39.0272 66.235 38.8038C66.4228 38.5805 66.6831 38.4303 66.9704 38.3792C67.0439 38.3641 67.1188 38.3565 67.1938 38.3565C67.4823 38.3584 67.7612 38.4603 67.983 38.6447C68.211 38.8319 68.3643 39.0946 68.4148 39.3852L68.5595 39.3561L68.702 39.3269C68.6374 38.9734 68.4507 38.6538 68.1745 38.4239C67.8982 38.194 67.55 38.0686 67.1906 38.0693C67.0988 38.0695 67.0071 38.0767 66.9164 38.091C66.5603 38.1531 66.2387 38.3417 66.0107 38.6221C65.8243 38.8457 65.7057 39.1179 65.6687 39.4066C65.6316 39.6954 65.6778 39.9888 65.8017 40.2522C65.9256 40.5157 66.1221 40.7383 66.3681 40.8939C66.6142 41.0496 66.8995 41.1317 67.1906 41.1308C67.2816 41.1308 67.3725 41.1243 67.4627 41.1114C67.8189 41.0485 68.1405 40.8592 68.3684 40.5782C68.5954 40.3053 68.7199 39.9616 68.7203 39.6066C68.7214 39.5147 68.7138 39.4229 68.6976 39.3324L68.5584 39.3561Z" fill="black"/>
<path d="M84.3262 62.0484C83.0308 62.2999 81.5885 62.0483 80.3881 61.5377C79.5968 61.2074 78.7774 60.632 77.9343 60.4733C77.0912 60.3147 76.124 60.6115 75.296 60.835C74.468 61.0584 73.6086 61.337 72.9328 60.7476C72.3499 60.2434 72.147 59.2664 71.9894 58.3726C71.8317 57.4787 71.6741 56.6129 71.5165 55.7342C71.44 55.398 71.4127 55.0526 71.4355 54.7086C71.4916 54.3672 71.6278 54.0438 71.8328 53.7651C72.3639 52.9975 73.111 52.543 73.8516 52.1458C74.4917 51.809 75.1599 51.498 75.8584 51.498C76.4372 51.536 77.0046 51.6771 77.5338 51.9148L80.3018 52.9727C80.6023 53.0633 80.8809 53.2151 81.12 53.4185C81.3176 53.6349 81.4957 53.8683 81.6522 54.1159C82.6584 55.5387 84.2194 56.2577 84.9599 57.9386C85.3388 58.7957 85.4997 59.9088 85.5623 60.8868C85.585 61.6198 84.9891 61.9275 84.3262 62.0484Z" fill="#9C7452"/>
<path d="M74.5842 52.9416L61.1202 55.3403C60.9561 55.37 60.7876 55.3667 60.6248 55.3306C60.3804 55.2757 60.1577 55.1498 59.9848 54.9686C59.8119 54.7875 59.6966 54.5592 59.6532 54.3126L54.8871 27.5499C54.8577 27.3856 54.8609 27.217 54.8966 27.054C54.9324 26.8909 54.9999 26.7366 55.0954 26.5996C55.1908 26.4627 55.3123 26.3459 55.4529 26.2559C55.5935 26.166 55.7504 26.1045 55.9148 26.0752L69.3701 23.6733C69.7019 23.6154 70.0431 23.6911 70.3194 23.8838C70.5956 24.0765 70.7844 24.3707 70.8447 24.7021L75.6173 51.4745C75.6743 51.806 75.5976 52.1465 75.404 52.4215C75.2103 52.6965 74.9155 52.8836 74.5842 52.9416V52.9416Z" fill="white" stroke="black" stroke-width="0.40225" stroke-miterlimit="10"/>
<path d="M56.1804 33.0774C55.5478 32.8345 54.0213 32.1587 53.3736 31.9979C53.1888 31.9433 52.9951 31.9261 52.8036 31.9472C52.6121 31.9679 52.4267 32.027 52.2585 32.1209C51.3107 32.7222 51.9573 34.0317 52.5035 34.6718C53.5453 35.8788 55.4863 37.1073 56.8735 37.877" fill="#9C7452"/>
<path d="M56.1804 33.0774C55.5478 32.8345 54.0213 32.1587 53.3736 31.9979C53.1888 31.9433 52.9951 31.9261 52.8036 31.9472C52.6121 31.9679 52.4267 32.027 52.2585 32.1209C51.3107 32.7222 51.9573 34.0317 52.5035 34.6718C53.5453 35.8788 55.4863 37.1073 56.8735 37.877" stroke="black" stroke-width="0.40225" stroke-miterlimit="10"/>
<path d="M73.9372 53.0566L63.6816 55.1347C63.6816 55.1347 65.8407 57.8335 70.5237 58.1326L72.2283 59.8501" fill="#9C7452"/>
<path d="M73.9372 53.0566L63.6816 55.1347C63.6816 55.1347 65.8407 57.8335 70.5237 58.1326L72.2283 59.8501" stroke="black" stroke-width="0.40225" stroke-miterlimit="10"/>
<path d="M76.2119 51.2318L71.4317 24.7563C71.3341 24.2274 71.0317 23.7586 70.5901 23.4517C70.1486 23.1448 69.6036 23.0247 69.074 23.1176L56.1789 25.4483C55.6503 25.5458 55.1816 25.8481 54.8748 26.2894C54.5679 26.7308 54.4477 27.2754 54.5403 27.8049L59.3258 54.2782C59.4243 54.8078 59.728 55.2772 60.1707 55.5841C60.6135 55.891 61.1595 56.0106 61.69 55.917L74.5839 53.5884C75.1129 53.4913 75.5817 53.1882 75.8875 52.7458C76.1933 52.3034 76.3111 51.7577 76.2151 51.2285L76.2119 51.2318Z" fill="white" stroke="black" stroke-width="0.40225" stroke-miterlimit="10"/>
<path d="M56.3084 48.0155C56.4866 48.0511 56.6614 48.1018 56.8331 48.1515C57.8047 48.4321 57.4862 48.3609 58.4524 48.6416C59.5449 48.9568 60.4074 50.4088 59.5028 51.3717C58.3876 52.5516 57.1224 51.8759 55.8874 51.4452C55.2397 51.2228 54.6783 50.8903 54.4484 50.2005C54.1321 49.2375 54.7226 48.0414 55.8 47.9712C55.9706 47.9678 56.141 47.9826 56.3084 48.0155V48.0155Z" fill="#9C7452" stroke="black" stroke-width="0.40225" stroke-miterlimit="10"/>
<path d="M72.5395 52.5185L61.9299 54.4617C61.6604 54.5106 61.3826 54.4512 61.1567 54.2964C60.9309 54.1415 60.7754 53.9037 60.724 53.6347L55.8283 27.686C55.802 27.5574 55.802 27.4249 55.8283 27.2963C55.8542 27.1685 55.9059 27.0472 55.9801 26.9399C56.0543 26.8326 56.1496 26.7416 56.2601 26.6723C56.3718 26.6031 56.4963 26.5572 56.6261 26.5374L58.1645 26.2568C58.2392 26.2438 58.316 26.2574 58.3817 26.2952C58.4474 26.3331 58.4978 26.3929 58.5239 26.464C58.6491 26.8037 58.8897 27.0885 59.2037 27.2687C59.5177 27.4489 59.885 27.513 60.2414 27.4496L66.0061 26.4078C66.3599 26.3427 66.6799 26.156 66.9107 25.8801C67.1415 25.6041 67.2687 25.2562 67.2703 24.8965C67.2705 24.8175 67.2984 24.7411 67.3491 24.6806C67.4001 24.6229 67.4695 24.5847 67.5456 24.5726L68.7579 24.3492C68.9101 24.3214 69.0662 24.3239 69.2174 24.3567C69.3686 24.3895 69.5118 24.4519 69.6388 24.5403C69.7659 24.6281 69.8741 24.7404 69.9572 24.8707C70.0405 25.0005 70.0978 25.1453 70.1257 25.297L71.0972 30.8178" fill="white"/>
<path d="M72.5395 52.5185L61.9299 54.4617C61.6604 54.5106 61.3826 54.4512 61.1567 54.2964C60.9309 54.1415 60.7754 53.9037 60.724 53.6347L55.8283 27.686C55.802 27.5574 55.802 27.4249 55.8283 27.2963C55.8542 27.1685 55.9059 27.0472 55.9801 26.9399C56.0543 26.8326 56.1496 26.7416 56.2601 26.6723C56.3718 26.6031 56.4963 26.5572 56.6261 26.5374L58.1645 26.2568C58.2392 26.2438 58.316 26.2574 58.3817 26.2952C58.4474 26.3331 58.4978 26.3929 58.5239 26.464C58.6491 26.8037 58.8897 27.0885 59.2037 27.2687C59.5177 27.4489 59.885 27.513 60.2414 27.4496L66.0061 26.4078C66.3599 26.3427 66.6799 26.156 66.9107 25.8801C67.1415 25.6041 67.2687 25.2562 67.2703 24.8965C67.2705 24.8175 67.2984 24.7411 67.3491 24.6806C67.4001 24.6229 67.4695 24.5847 67.5456 24.5726L68.7579 24.3492C68.9101 24.3214 69.0662 24.3239 69.2174 24.3567C69.3686 24.3895 69.5118 24.4519 69.6388 24.5403C69.7659 24.6281 69.8741 24.7404 69.9572 24.8707C70.0405 25.0005 70.0978 25.1453 70.1257 25.297L71.0972 30.8178" stroke="black" stroke-width="0.40225" stroke-miterlimit="10"/>
<path d="M55.0162 40.4189C55.1943 40.4545 55.3681 40.5063 55.5397 40.5548C56.5113 40.8355 57.4829 41.1238 58.4545 41.4045C59.547 41.7218 60.4095 43.1739 59.5049 44.1368C58.3897 45.3146 55.8344 44.2868 54.5984 43.8496C53.9506 43.6262 53.3893 43.2936 53.1593 42.6049C52.843 41.6409 53.4335 40.4458 54.5109 40.3746C54.6805 40.368 54.8503 40.3828 55.0162 40.4189V40.4189Z" fill="#9C7452" stroke="black" stroke-width="0.40225" stroke-miterlimit="10"/>
<path d="M55.0162 43.986C55.1943 44.0216 55.3681 44.0723 55.5397 44.122C56.5113 44.4027 57.4829 44.691 58.4545 44.9695C59.547 45.2858 60.4095 46.7377 59.5049 47.7018C58.3897 48.8806 55.8344 47.8529 54.5984 47.4135C53.9506 47.1901 53.3893 46.8608 53.1593 46.171C52.843 45.2081 53.4335 44.0119 54.5109 43.9407C54.6804 43.9383 54.8498 43.9534 55.0162 43.986V43.986Z" fill="#9C7452" stroke="black" stroke-width="0.40225" stroke-miterlimit="10"/>
<path d="M85.7778 60.9068L85.3967 59.3253C85.361 58.9313 80.8399 47.9309 80.3455 46.5793C79.8511 45.2277 76.3512 38.2917 76.3512 38.2917C75.8633 37.2558 75.5423 36.1493 75.4002 35.0131C75.4002 35.0131 75.0925 32.7839 74.9997 31.414C74.964 30.8613 74.1782 30.4932 73.6611 30.6799C72.9788 30.9164 72.4034 31.3978 72.086 32.3683C71.9697 32.7379 71.9379 33.1291 71.9932 33.5127L72.914 45.2213C69.8071 52.8859 75.7823 56.4775 75.7823 56.4775" fill="#9C7452"/>
<path d="M85.7778 60.9068L85.3967 59.3253C85.361 58.9313 80.8399 47.9309 80.3455 46.5793C79.8511 45.2277 76.3512 38.2917 76.3512 38.2917C75.8633 37.2558 75.5423 36.1493 75.4002 35.0131C75.4002 35.0131 75.0925 32.7839 74.9997 31.414C74.964 30.8613 74.1782 30.4932 73.6611 30.6799C72.9788 30.9164 72.4034 31.3978 72.086 32.3683C71.9697 32.7379 71.9379 33.1291 71.9932 33.5127L72.914 45.2213C69.8071 52.8859 75.7823 56.4775 75.7823 56.4775" stroke="black" stroke-width="0.40225" stroke-miterlimit="10"/>
<path d="M66.6817 32.8865C66.5824 32.7359 66.4425 32.6164 66.278 32.5421C66.052 32.4441 65.7965 32.4388 65.5666 32.5272C65.3366 32.6157 65.1506 32.7907 65.0484 33.0149C65.0097 33.1067 64.9856 33.2039 64.9771 33.3031L63.6968 33.519C63.6816 33.4835 63.6624 33.4499 63.6396 33.4187C63.617 33.3895 63.5975 33.3539 63.5749 33.3248L63.9559 32.785C64.0906 32.8337 64.2347 32.8507 64.377 32.8346C64.5189 32.8188 64.655 32.7696 64.7742 32.6911C64.9284 32.5921 65.0498 32.4496 65.123 32.2817C65.1962 32.1138 65.218 31.9278 65.1855 31.7475C65.1618 31.6255 65.1153 31.509 65.0484 31.4043C64.9498 31.2505 64.8079 31.1295 64.6405 31.0565C64.4732 30.9834 64.2879 30.9618 64.1081 30.9941C63.9849 31.0164 63.8672 31.0626 63.7616 31.1301C63.6099 31.2285 63.4899 31.3687 63.4161 31.5338C63.3409 31.7032 63.3184 31.8912 63.3514 32.0736C63.3742 32.1967 63.4204 32.3143 63.4874 32.4201C63.5058 32.4471 63.5252 32.4741 63.5457 32.5L63.1647 33.0462C63.0171 32.9944 62.8588 32.9815 62.7048 33.0085C62.5818 33.0321 62.4646 33.0789 62.3593 33.1466C62.2085 33.2446 62.0894 33.3841 62.016 33.5483C61.9394 33.7172 61.9168 33.9057 61.9512 34.088C61.9776 34.238 62.0402 34.3791 62.1337 34.4993C62.2273 34.6197 62.3493 34.7151 62.4888 34.7767C62.6561 34.8587 62.8446 34.887 63.0286 34.8577C63.1789 34.8305 63.3203 34.767 63.4407 34.673C63.561 34.579 63.6567 34.4572 63.7195 34.3179C63.7615 34.2273 63.7857 34.1295 63.7908 34.0297L65.0776 33.8073C65.0924 33.8428 65.1113 33.8765 65.1337 33.9077C65.1524 33.9351 65.1718 33.961 65.192 33.9854L64.8131 34.5252C64.6654 34.4741 64.507 34.4619 64.3532 34.4896C64.2304 34.5123 64.1131 34.5584 64.0077 34.6256C63.8571 34.7246 63.738 34.8648 63.6645 35.0293C63.5889 35.1986 63.5663 35.3868 63.5997 35.5691C63.6201 35.69 63.6644 35.8057 63.7299 35.9093C63.7955 36.0129 63.8809 36.1024 63.9814 36.1728C64.0818 36.2431 64.1952 36.2928 64.315 36.3189C64.4348 36.345 64.5586 36.347 64.6792 36.3248C64.8024 36.302 64.92 36.2558 65.0257 36.1888C65.1772 36.0901 65.2971 35.9499 65.3712 35.785C65.4462 35.6156 65.4687 35.4276 65.436 35.2452C65.4124 35.1223 65.3655 35.005 65.2978 34.8998C65.2773 34.8706 65.2546 34.835 65.233 34.8058L65.6141 34.2661C65.7661 34.3209 65.9295 34.3365 66.0891 34.3114C66.2118 34.2871 66.3289 34.2403 66.4345 34.1733C66.5853 34.0751 66.7048 33.9356 66.7789 33.7716C66.8547 33.6024 66.8769 33.4141 66.8426 33.2319C66.8069 33.1092 66.7527 32.9928 66.6817 32.8865V32.8865ZM63.8491 31.8155C63.8679 31.7308 63.9106 31.6533 63.9721 31.5921C64.032 31.5308 64.1099 31.4903 64.1945 31.4766C64.2668 31.4642 64.341 31.4702 64.4104 31.4939C64.4778 31.5152 64.5393 31.5522 64.5896 31.6018C64.6409 31.6526 64.6781 31.7159 64.6976 31.7854C64.7163 31.8561 64.7163 31.9305 64.6976 32.0013C64.6778 32.0856 64.6353 32.1629 64.5745 32.2247C64.5229 32.2741 64.4601 32.3104 64.3916 32.3305C64.323 32.3506 64.2506 32.3539 64.1805 32.3402C64.0968 32.3206 64.0197 32.2792 63.957 32.2203C63.8995 32.1576 63.8603 32.0804 63.8436 31.9969C63.8318 31.9369 63.8336 31.8748 63.8491 31.8155V31.8155ZM63.2737 34.0232C63.2601 34.0814 63.2343 34.1362 63.1982 34.1838C63.162 34.2315 63.1162 34.2711 63.0638 34.2999C63.0113 34.3287 62.9535 34.3462 62.8938 34.3512C62.8342 34.3561 62.7742 34.3484 62.7177 34.3287C62.6506 34.3075 62.5895 34.2705 62.5396 34.2207C62.4813 34.1586 62.4419 34.081 62.4262 33.9972C62.4144 33.9399 62.4144 33.8808 62.4262 33.8235C62.4453 33.7436 62.4882 33.6713 62.5493 33.6162C62.6096 33.5556 62.6874 33.5151 62.7717 33.5007C62.8283 33.4888 62.8867 33.4888 62.9433 33.5007C62.9991 33.5124 63.0519 33.5352 63.0987 33.5678C63.1454 33.6003 63.1851 33.6421 63.2154 33.6904C63.2456 33.7386 63.2658 33.7925 63.2747 33.8488C63.2836 33.9051 63.281 33.9625 63.2672 34.0178L63.2737 34.0232ZM64.9135 35.4957C64.8937 35.576 64.8509 35.6488 64.7904 35.7051C64.7396 35.7564 64.6764 35.7936 64.6069 35.8131C64.5361 35.8316 64.4618 35.8316 64.391 35.8131C64.3071 35.7929 64.2302 35.7504 64.1686 35.69C64.11 35.6281 64.0696 35.5511 64.052 35.4676C64.0412 35.4102 64.0412 35.3513 64.052 35.2938C64.068 35.2129 64.1105 35.1395 64.1729 35.0854C64.234 35.0258 64.3114 34.9857 64.3953 34.97C64.4528 34.9603 64.5116 34.9603 64.5691 34.97C64.6532 34.9904 64.7304 35.0328 64.7926 35.093C64.8506 35.1554 64.8909 35.2322 64.9092 35.3155C64.9213 35.3748 64.9227 35.4359 64.9135 35.4957V35.4957ZM66.3169 33.4877C66.2997 33.5677 66.2578 33.6402 66.1971 33.695C66.1363 33.7558 66.0583 33.7965 65.9736 33.8116C65.9034 33.8221 65.8317 33.8162 65.7641 33.7943C65.697 33.7731 65.6359 33.7361 65.586 33.6864C65.5277 33.6237 65.4875 33.5466 65.4694 33.463C65.4597 33.4062 65.4597 33.3481 65.4694 33.2913C65.4886 33.2167 65.527 33.1485 65.5808 33.0933C65.6346 33.0382 65.7019 32.9982 65.776 32.9772C65.8468 32.9584 65.9212 32.9584 65.992 32.9772C66.0759 32.998 66.1529 33.0404 66.2154 33.1002C66.2735 33.1624 66.3134 33.2392 66.3309 33.3225C66.3394 33.3783 66.3365 33.4353 66.3223 33.49L66.3169 33.4877Z" fill="black"/>
<path d="M67.4644 40.9729L63.8955 41.6206C63.5777 41.6774 63.25 41.6224 62.9683 41.4648C62.6865 41.3072 62.4682 41.0568 62.3503 40.7562C62.2324 40.4557 62.2223 40.1236 62.3218 39.8165C62.4213 39.5094 62.6242 39.2462 62.8959 39.0719C63.0502 38.9726 63.2226 38.9046 63.4033 38.8721L66.9657 38.2244C67.3289 38.1587 67.7033 38.24 68.0066 38.4503C68.3098 38.6607 68.5171 38.9829 68.5828 39.3461C68.6486 39.7093 68.5673 40.0837 68.3569 40.3869C68.1466 40.6902 67.8244 40.8975 67.4612 40.9632L67.4644 40.9729Z" fill="#47FFB9"/>
<path d="M67.4648 40.9727L67.4356 40.8291L63.8678 41.4769C63.794 41.4899 63.7193 41.4972 63.6444 41.4985C63.3553 41.4975 63.0755 41.3959 62.853 41.2113C62.6249 41.0243 62.4716 40.7615 62.4212 40.4708C62.4061 40.3973 62.3985 40.3224 62.3986 40.2473C62.3999 39.9554 62.5035 39.6732 62.6915 39.4499C62.8795 39.2266 63.1399 39.0763 63.4273 39.0252L66.9952 38.3775C67.0688 38.3624 67.1436 38.3548 67.2187 38.3549C67.5079 38.3563 67.7876 38.4581 68.01 38.6431C68.238 38.8302 68.3913 39.0931 68.4418 39.3837C68.4565 39.4569 68.4637 39.5315 68.4634 39.6061C68.4623 39.8979 68.3588 40.18 68.171 40.4033C67.9832 40.6267 67.7229 40.777 67.4356 40.8281L67.4648 40.9717L67.4939 41.1163C67.7821 41.0645 68.0495 40.9315 68.2647 40.7331C68.4915 40.5236 68.6497 40.2504 68.7187 39.9495C68.7876 39.6485 68.7642 39.3338 68.6512 39.0464C68.5383 38.7591 68.3412 38.5125 68.0858 38.339C67.8304 38.1656 67.5285 38.0733 67.2197 38.0742C67.1287 38.074 67.0377 38.0809 66.9477 38.0948L63.3788 38.7425C63.0225 38.8046 62.7007 38.9936 62.473 39.2747C62.2462 39.5477 62.1217 39.8913 62.1211 40.2463C62.121 40.4475 62.1605 40.6469 62.2374 40.8328C62.3143 41.0188 62.4271 41.1878 62.5694 41.3301C62.7117 41.4725 62.8806 41.5855 63.0665 41.6625C63.2525 41.7396 63.4517 41.7792 63.653 41.7792C63.7425 41.7816 63.832 41.7769 63.9207 41.7652L67.4896 41.1175L67.4648 40.9727Z" fill="black"/>
<path d="M68.5565 39.3567C68.6159 39.6738 68.5635 40.0017 68.4081 40.2845C68.2527 40.5673 68.0041 40.7873 67.7045 40.9072C67.405 41.0271 67.0731 41.0394 66.7656 40.9419C66.458 40.8444 66.1938 40.6432 66.018 40.3726C65.8422 40.1021 65.7657 39.7789 65.8016 39.4583C65.8375 39.1377 65.9836 38.8394 66.2149 38.6144C66.4462 38.3894 66.7483 38.2517 67.0698 38.2246C67.3913 38.1976 67.7123 38.2829 67.9779 38.4661C68.1282 38.5691 68.2567 38.7008 68.356 38.8536C68.4553 39.0064 68.5234 39.1774 68.5565 39.3567V39.3567Z" fill="white"/>
<path d="M68.5584 39.3561L68.4137 39.3852C68.4277 39.4586 68.4353 39.533 68.4364 39.6077C68.4355 39.8997 68.332 40.1821 68.1439 40.4055C67.9558 40.6289 67.6952 40.779 67.4076 40.8296C67.3342 40.8436 67.2599 40.8512 67.1852 40.8523C66.8936 40.8502 66.6118 40.7465 66.3885 40.5589C66.1652 40.3713 66.0144 40.1116 65.9621 39.8246C65.9492 39.7508 65.9427 39.676 65.9427 39.6011C65.9437 39.3093 66.0472 39.0272 66.235 38.8038C66.4228 38.5805 66.6831 38.4303 66.9704 38.3792C67.0439 38.3641 67.1188 38.3565 67.1938 38.3565C67.4823 38.3584 67.7612 38.4603 67.983 38.6447C68.211 38.8319 68.3643 39.0946 68.4148 39.3852L68.5595 39.3561L68.702 39.3269C68.6374 38.9734 68.4507 38.6538 68.1745 38.4239C67.8982 38.194 67.55 38.0686 67.1906 38.0693C67.0988 38.0695 67.0071 38.0767 66.9164 38.091C66.5603 38.1531 66.2387 38.3417 66.0107 38.6221C65.8243 38.8457 65.7057 39.1179 65.6687 39.4066C65.6316 39.6954 65.6778 39.9888 65.8017 40.2522C65.9256 40.5157 66.1221 40.7383 66.3681 40.8939C66.6142 41.0496 66.8995 41.1317 67.1906 41.1308C67.2816 41.1308 67.3725 41.1243 67.4627 41.1114C67.8189 41.0485 68.1405 40.8592 68.3684 40.5782C68.5954 40.3053 68.7199 39.9616 68.7203 39.6066C68.7214 39.5147 68.7138 39.4229 68.6976 39.3324L68.5584 39.3561Z" fill="black"/>
</svg>
