<svg width="80" height="80" viewBox="0 0 80 80" fill="none" xmlns="http://www.w3.org/2000/svg">
<path d="M74.6617 44H60.667C60.7844 43.406 61.133 42.8679 61.6513 42.4806C62.1696 42.0932 62.8244 41.8813 63.5006 41.8823H63.6109C64.0098 41.2503 64.6084 40.737 65.332 40.4063C66.0556 40.0757 66.8723 39.9423 67.6803 40.0229C68.4883 40.1034 69.2518 40.3943 69.8758 40.8592C70.4998 41.3242 70.9566 41.9427 71.1893 42.6376C71.485 42.3933 71.8543 42.2313 72.2517 42.1715C72.6492 42.1117 73.0575 42.1566 73.4268 42.3008C73.796 42.445 74.11 42.6823 74.3303 42.9834C74.5506 43.2845 74.6676 43.6364 74.667 43.9959L74.6617 44Z" fill="#C3C5FF" stroke="#C2C6FF" stroke-width="0.119458" stroke-linejoin="round"/>
<path d="M61.6856 58.7516C62.329 58.7516 62.9579 58.5608 63.4929 58.2033C64.0278 57.8459 64.4448 57.3379 64.691 56.7435C64.9372 56.149 65.0016 55.495 64.8761 54.864C64.7506 54.2329 64.4407 53.6533 63.9858 53.1984C63.5308 52.7435 62.9512 52.4336 62.3202 52.3081C61.6892 52.1826 61.0352 52.247 60.4408 52.4932C59.8464 52.7394 59.3383 53.1564 58.9809 53.6913C58.6235 54.2263 58.4326 54.8552 58.4326 55.4986C58.4325 55.9258 58.5166 56.3489 58.6801 56.7436C58.8435 57.1383 59.0831 57.4969 59.3852 57.799C59.6873 58.1011 60.0459 58.3407 60.4406 58.5041C60.8353 58.6676 61.2584 58.7517 61.6856 58.7516Z" fill="#C0C3F6"/>
<path d="M20.5511 27.7543C21.1945 27.7544 21.8236 27.5637 22.3586 27.2063C22.8937 26.8489 23.3107 26.3409 23.557 25.7465C23.8033 25.152 23.8678 24.4979 23.7423 23.8668C23.6168 23.2357 23.307 22.6561 22.852 22.2011C22.397 21.7461 21.8173 21.4363 21.1862 21.3108C20.5551 21.1853 19.9011 21.2497 19.3066 21.496C18.7122 21.7423 18.2042 22.1594 17.8468 22.6945C17.4894 23.2295 17.2987 23.8585 17.2988 24.502C17.2988 24.9291 17.3829 25.352 17.5464 25.7466C17.7098 26.1411 17.9494 26.4997 18.2514 26.8017C18.5534 27.1037 18.9119 27.3432 19.3065 27.5067C19.7011 27.6701 20.124 27.7543 20.5511 27.7543Z" fill="#C0C3F6"/>
<path d="M61.685 56.9141C61.9649 56.9141 62.2386 56.8311 62.4713 56.6756C62.7041 56.52 62.8856 56.299 62.9927 56.0403C63.0998 55.7817 63.1278 55.4971 63.0732 55.2225C63.0186 54.948 62.8838 54.6958 62.6858 54.4978C62.4879 54.2999 62.2357 54.1651 61.9611 54.1104C61.6865 54.0558 61.4019 54.0839 61.1433 54.191C60.8847 54.2981 60.6636 54.4795 60.5081 54.7123C60.3526 54.9451 60.2695 55.2187 60.2695 55.4987C60.2694 55.6846 60.306 55.8687 60.3771 56.0405C60.4482 56.2122 60.5525 56.3683 60.6839 56.4997C60.8154 56.6312 60.9715 56.7355 61.1432 56.8066C61.315 56.8777 61.4991 56.9142 61.685 56.9141Z" fill="#6A52DE"/>
<path d="M20.5504 25.9168C20.8304 25.9169 21.1042 25.834 21.3371 25.6785C21.57 25.5231 21.7515 25.302 21.8587 25.0434C21.9659 24.7847 21.994 24.5 21.9394 24.2254C21.8848 23.9508 21.75 23.6985 21.552 23.5005C21.354 23.3025 21.1017 23.1677 20.8271 23.1131C20.5525 23.0585 20.2678 23.0866 20.0092 23.1938C19.7505 23.301 19.5294 23.4826 19.374 23.7154C19.2185 23.9483 19.1356 24.2221 19.1357 24.5021C19.1357 24.8773 19.2848 25.2371 19.5501 25.5024C19.8154 25.7677 20.1752 25.9168 20.5504 25.9168Z" fill="#6A52DE"/>
<path d="M23.2168 26.5068L59.1535 53.5908" stroke="#C0C3F6" stroke-width="0.417942" stroke-linecap="round" stroke-linejoin="round"/>
<path d="M20.5511 58.7516C21.1945 58.7517 21.8235 58.561 22.3585 58.2037C22.8936 57.8463 23.3106 57.3383 23.5569 56.7439C23.8032 56.1495 23.8678 55.4955 23.7424 54.8644C23.6169 54.2333 23.3072 53.6536 22.8523 53.1986C22.3974 52.7436 21.8177 52.4337 21.1867 52.3082C20.5557 52.1826 19.9016 52.247 19.3071 52.4932C18.7127 52.7394 18.2046 53.1563 17.8471 53.6913C17.4896 54.2262 17.2988 54.8552 17.2988 55.4986C17.2988 56.3612 17.6415 57.1885 18.2514 57.7985C18.8613 58.4086 19.6884 58.7514 20.5511 58.7516Z" fill="#C0C3F6"/>
<path d="M61.6856 27.7543C62.329 27.7543 62.958 27.5635 63.4929 27.206C64.0279 26.8485 64.4449 26.3404 64.6911 25.746C64.9372 25.1515 65.0016 24.4974 64.876 23.8664C64.7504 23.2354 64.4406 22.6557 63.9856 22.2008C63.5306 21.7459 62.9509 21.4362 62.3198 21.3107C61.6887 21.1853 61.0347 21.2498 60.4403 21.4961C59.8459 21.7424 59.3379 22.1595 58.9806 22.6945C58.6232 23.2296 58.4325 23.8586 58.4326 24.502C58.4326 24.9291 58.5168 25.3521 58.6803 25.7467C58.8438 26.1414 59.0834 26.4999 59.3854 26.8019C59.6875 27.1039 60.0462 27.3435 60.4408 27.5069C60.8355 27.6703 61.2585 27.7543 61.6856 27.7543Z" fill="#C0C3F6"/>
<path d="M20.5504 56.9141C20.8304 56.9142 21.1042 56.8313 21.337 56.6759C21.5699 56.5205 21.7514 56.2995 21.8586 56.0408C21.9659 55.7822 21.994 55.4976 21.9395 55.223C21.885 54.9484 21.7502 54.6961 21.5522 54.4981C21.3543 54.3 21.1022 54.1652 20.8276 54.1105C20.553 54.0558 20.2683 54.0838 20.0097 54.1909C19.751 54.298 19.5299 54.4795 19.3743 54.7122C19.2187 54.945 19.1357 55.2187 19.1357 55.4987C19.1357 55.874 19.2848 56.2339 19.5501 56.4993C19.8154 56.7647 20.1752 56.9139 20.5504 56.9141Z" fill="#6A52DE"/>
<path d="M61.685 25.9168C61.965 25.9168 62.2386 25.8338 62.4714 25.6782C62.7042 25.5226 62.8856 25.3015 62.9928 25.0429C63.0999 24.7842 63.1278 24.4996 63.0732 24.225C63.0185 23.9504 62.8836 23.6982 62.6856 23.5003C62.4876 23.3023 62.2353 23.1676 61.9607 23.1131C61.6861 23.0585 61.4015 23.0866 61.1428 23.1939C60.8842 23.3011 60.6632 23.4827 60.5078 23.7155C60.3523 23.9484 60.2694 24.2221 60.2695 24.5021C60.2695 24.6879 60.3061 24.8719 60.3773 25.0436C60.4484 25.2153 60.5527 25.3713 60.6841 25.5027C60.8156 25.6341 60.9716 25.7383 61.1434 25.8093C61.3151 25.8804 61.4991 25.9169 61.685 25.9168Z" fill="#6A52DE"/>
<path d="M59.0231 26.5068L23.0801 53.5908" stroke="#C0C3F6" stroke-width="0.417942" stroke-linecap="round" stroke-linejoin="round"/>
<path d="M41.1194 67.9999C41.7628 68 42.3919 67.8093 42.9269 67.452C43.4619 67.0946 43.879 66.5866 44.1253 65.9922C44.3716 65.3978 44.4362 64.7437 44.3107 64.1127C44.1853 63.4816 43.8755 62.9019 43.4206 62.4469C42.9657 61.9919 42.3861 61.682 41.7551 61.5565C41.124 61.4309 40.4699 61.4953 39.8755 61.7415C39.281 61.9876 38.7729 62.4046 38.4155 62.9395C38.058 63.4745 37.8672 64.1035 37.8672 64.7469C37.8671 65.174 37.9511 65.597 38.1145 65.9917C38.2779 66.3863 38.5175 66.745 38.8195 67.047C39.1215 67.3491 39.4801 67.5887 39.8747 67.7522C40.2694 67.9157 40.6923 67.9999 41.1194 67.9999Z" fill="#C0C3F6"/>
<path d="M41.1194 18.506C41.7629 18.5061 42.3919 18.3154 42.927 17.958C43.462 17.6006 43.8791 17.0926 44.1254 16.4982C44.3717 15.9037 44.4362 15.2496 44.3107 14.6185C44.1852 13.9874 43.8753 13.4078 43.4204 12.9528C42.9654 12.4978 42.3857 12.188 41.7546 12.0625C41.1235 11.937 40.4694 12.0015 39.875 12.2478C39.2806 12.4941 38.7725 12.9111 38.4151 13.4462C38.0577 13.9812 37.867 14.6102 37.8672 15.2537C37.8672 16.1162 38.2098 16.9435 38.8197 17.5534C39.4297 18.1633 40.2569 18.506 41.1194 18.506Z" fill="#C0C3F6"/>
<path d="M41.1195 66.1624C41.3994 66.1624 41.6731 66.0794 41.9058 65.9239C42.1386 65.7683 42.3201 65.5473 42.4272 65.2886C42.5343 65.03 42.5623 64.7454 42.5077 64.4708C42.4531 64.1963 42.3183 63.9441 42.1204 63.7461C41.9224 63.5482 41.6702 63.4134 41.3957 63.3587C41.1211 63.3041 40.8365 63.3322 40.5779 63.4393C40.3192 63.5464 40.0981 63.7278 39.9426 63.9606C39.7871 64.1934 39.7041 64.467 39.7041 64.747C39.704 64.9329 39.7405 65.117 39.8116 65.2887C39.8827 65.4605 39.987 65.6166 40.1184 65.748C40.2499 65.8795 40.406 65.9837 40.5777 66.0548C40.7495 66.1259 40.9336 66.1625 41.1195 66.1624Z" fill="#6A52DE"/>
<path d="M41.1195 16.6685C41.3995 16.6685 41.6732 16.5855 41.906 16.4299C42.1388 16.2744 42.3201 16.0533 42.4273 15.7946C42.5344 15.5359 42.5623 15.2513 42.5077 14.9767C42.453 14.7021 42.3181 14.4499 42.1201 14.252C41.9221 14.054 41.6698 13.9193 41.3952 13.8648C41.1206 13.8102 40.836 13.8384 40.5773 13.9456C40.3187 14.0528 40.0977 14.2344 39.9423 14.4672C39.7868 14.7001 39.704 14.9738 39.7041 15.2538C39.7041 15.4396 39.7407 15.6236 39.8119 15.7953C39.883 15.967 39.9873 16.123 40.1187 16.2544C40.2502 16.3858 40.4062 16.49 40.5779 16.561C40.7496 16.6321 40.9336 16.6686 41.1195 16.6685Z" fill="#6A52DE"/>
<path d="M41.1191 18.5867V61.5748" stroke="#C0C3F6" stroke-width="0.417942" stroke-linecap="round" stroke-linejoin="round"/>
<path d="M25.6648 36.5799H7.89258C8.04094 35.7343 8.48278 34.9681 9.14035 34.4162C9.79792 33.8642 10.6291 33.5619 11.4876 33.5623H11.6269C12.1313 32.6585 12.8912 31.9236 13.8114 31.4499C14.7317 30.9761 15.7713 30.7845 16.8 30.899C17.8286 31.0135 18.8007 31.4292 19.5941 32.0938C20.3876 32.7584 20.9673 33.6424 21.2605 34.635C21.6359 34.2888 22.1042 34.0595 22.6079 33.9753C23.1117 33.8911 23.6291 33.9556 24.0968 34.161C24.5645 34.3663 24.962 34.7036 25.2409 35.1315C25.5198 35.5594 25.6679 36.0594 25.6669 36.5701L25.6648 36.5799Z" fill="#C0C3F6"/>
<path d="M25.6648 36.5799H7.89258C8.04094 35.7343 8.48278 34.9681 9.14035 34.4162C9.79792 33.8642 10.6291 33.5619 11.4876 33.5623H11.6269C12.1313 32.6585 12.8912 31.9236 13.8114 31.4499C14.7317 30.9761 15.7713 30.7845 16.8 30.899C17.8286 31.0135 18.8007 31.4292 19.5941 32.0938C20.3876 32.7584 20.9673 33.6424 21.2605 34.635C21.6359 34.2888 22.1042 34.0595 22.6079 33.9753C23.1117 33.8911 23.6291 33.9556 24.0968 34.161C24.5645 34.3663 24.962 34.7036 25.2409 35.1315C25.5198 35.5594 25.6679 36.0594 25.6669 36.5701L25.6648 36.5799Z" stroke="#C0C3F6" stroke-width="0.0438839" stroke-linejoin="round"/>
<path d="M20.7723 37.9584H3C3.14785 37.1132 3.58909 36.3471 4.246 35.7951C4.90292 35.243 5.73347 34.9403 6.59155 34.9402H6.73086C7.23663 34.0406 7.99603 33.3099 8.91438 32.839C9.83273 32.3682 10.8694 32.1782 11.895 32.2927C12.9206 32.4072 13.8899 32.8211 14.6818 33.4827C15.4738 34.1444 16.0534 35.0247 16.3484 36.0136C16.7235 35.6666 17.1917 35.4366 17.6956 35.3518C18.1996 35.2669 18.7172 35.331 19.1853 35.536C19.6534 35.7411 20.0515 36.0782 20.3308 36.5061C20.6101 36.9341 20.7584 37.4342 20.7577 37.9452L20.7723 37.9584Z" stroke="white" stroke-width="0.417942" stroke-linecap="round" stroke-linejoin="round"/>
<path d="M73.3652 46.9685H77.2215" stroke="white" stroke-width="0.417942" stroke-linecap="round" stroke-linejoin="round"/>
<path d="M58.1777 46.9685H73.2933" stroke="white" stroke-width="0.417942" stroke-linecap="round" stroke-linejoin="round"/>
<path d="M71.0838 45.0299H56.3096C56.4344 44.3279 56.802 43.6921 57.3482 43.2337C57.8943 42.7753 58.5841 42.5235 59.2971 42.5223H59.4149C59.8316 41.7685 60.4622 41.1552 61.2271 40.7595C61.9921 40.3638 62.8571 40.2036 63.713 40.2991C64.5689 40.3945 65.3773 40.7414 66.0363 41.2959C66.6953 41.8503 67.1753 42.5876 67.4157 43.4146C67.7289 43.1277 68.1187 42.9381 68.5377 42.8689C68.9567 42.7997 69.3868 42.8538 69.7755 43.0247C70.1643 43.1956 70.495 43.4759 70.7273 43.8315C70.9596 44.187 71.0834 44.6024 71.0838 45.0271V45.0299Z" stroke="white" stroke-width="0.417942" stroke-linecap="round" stroke-linejoin="round"/>
<path d="M54.9827 19.1156C55.1008 19.1156 55.2162 19.0805 55.3143 19.0149C55.4125 18.9494 55.489 18.8561 55.5342 18.747C55.5794 18.638 55.5912 18.5179 55.5682 18.4021C55.5452 18.2863 55.4883 18.18 55.4048 18.0965C55.3213 18.013 55.215 17.9561 55.0992 17.9331C54.9834 17.9101 54.8633 17.9219 54.7542 17.9671C54.6452 18.0123 54.5519 18.0888 54.4864 18.1869C54.4208 18.2851 54.3857 18.4005 54.3857 18.5186C54.3857 18.6769 54.4486 18.8288 54.5606 18.9407C54.6725 19.0527 54.8244 19.1156 54.9827 19.1156V19.1156Z" stroke="white" stroke-width="0.417942" stroke-linecap="round" stroke-linejoin="round"/>
<path d="M53.587 30.0984L53.6274 37.0027C53.6551 40.8993 52.4183 44.6997 50.1027 47.8337C47.8451 50.919 44.6787 53.2207 41.0473 54.4163C41.0167 54.426 40.9839 54.426 40.9533 54.4163C37.3097 53.2574 34.1187 50.99 31.8255 47.9305C29.4772 44.8196 28.2007 41.0314 28.1873 37.1337L28.1504 30.23C28.1504 30.1914 28.1648 30.1541 28.1908 30.1255C28.2158 30.0975 28.2503 30.0796 28.2876 30.0754C29.614 29.9317 30.8511 29.3378 31.7926 28.3926C32.7342 27.4474 33.3233 26.208 33.4617 24.881C33.4653 24.8442 33.4818 24.8099 33.5084 24.7842C33.5361 24.7586 33.5717 24.7431 33.6094 24.7403L48.0514 24.6665C48.0898 24.6669 48.1266 24.6812 48.1551 24.7069C48.1834 24.7321 48.2015 24.7668 48.206 24.8044C48.3597 26.1315 48.9645 27.3655 49.9191 28.3C50.8738 29.2345 52.1205 29.8128 53.4505 29.9381C53.4877 29.9429 53.522 29.9606 53.5473 29.9883C53.561 30.003 53.5716 30.0204 53.5784 30.0393C53.5852 30.0582 53.5881 30.0783 53.587 30.0984Z" fill="white" stroke="white" stroke-width="0.417942" stroke-linecap="round" stroke-linejoin="round"/>
<path d="M48.5068 46.3951C46.6384 48.9428 44.0202 50.8425 41.0186 51.8284C40.9938 51.8367 40.9668 51.8367 40.942 51.8284C37.9278 50.8723 35.2883 48.9968 33.3939 46.4648C31.4478 43.8986 30.3885 40.7694 30.3758 37.5487L30.3458 31.848C30.3449 31.8163 30.3556 31.7854 30.3758 31.7609C30.3982 31.7383 30.4276 31.724 30.4593 31.7205C31.5562 31.6038 32.5798 31.1142 33.3592 30.3337C34.1387 29.5531 34.6267 28.5288 34.7418 27.4317C34.7445 27.4004 34.7587 27.3712 34.7816 27.3496C34.8044 27.3281 34.8344 27.3156 34.8658 27.3147L40.2642 27.2876L46.8064 27.2611C46.822 27.2604 46.8374 27.2633 46.8517 27.2694C46.8663 27.2749 46.8796 27.2835 46.8907 27.2945C46.9145 27.315 46.9299 27.3435 46.9339 27.3746C47.0612 28.471 47.5602 29.4907 48.3479 30.2638C49.1356 31.037 50.1645 31.5169 51.263 31.6237C51.2959 31.6264 51.3268 31.6407 51.3501 31.6641C51.3698 31.69 51.3805 31.7215 51.3808 31.754L51.4107 37.4547C51.4358 40.6706 50.4168 43.8078 48.5068 46.3951Z" fill="#6A52DE"/>
<path d="M41.0205 51.8306C40.9955 51.8376 40.969 51.8376 40.9439 51.8306C37.9297 50.8745 35.2903 48.999 33.3959 46.467C31.4506 43.9004 30.3914 40.7714 30.3776 37.551L30.3477 31.8502C30.3468 31.8185 30.3574 31.7876 30.3776 31.7632C30.4001 31.7405 30.4296 31.7263 30.4612 31.7228C31.5581 31.606 32.5817 31.1165 33.3611 30.3359C34.1405 29.5554 34.6286 28.531 34.7437 27.434C34.7461 27.4025 34.7603 27.3732 34.7834 27.3518C34.806 27.3298 34.8362 27.3173 34.8677 27.317L40.2661 27.2898L40.7022 27.4291L41.0205 51.8306Z" fill="#6A52DE"/>
<path d="M52.0791 21.7644V23.012" stroke="white" stroke-width="0.417942" stroke-linecap="round" stroke-linejoin="round"/>
<path d="M52.7026 22.3887H51.4551" stroke="white" stroke-width="0.417942" stroke-linecap="round" stroke-linejoin="round"/>
<path d="M28.1057 60.0362C28.2238 60.0362 28.3392 60.0012 28.4374 59.9356C28.5356 59.87 28.6121 59.7768 28.6572 59.6677C28.7024 59.5586 28.7142 59.4386 28.6912 59.3228C28.6682 59.207 28.6113 59.1006 28.5279 59.0171C28.4444 58.9336 28.338 58.8768 28.2222 58.8538C28.1064 58.8307 27.9864 58.8425 27.8773 58.8877C27.7682 58.9329 27.675 59.0094 27.6094 59.1076C27.5438 59.2058 27.5088 59.3212 27.5088 59.4392C27.5088 59.5976 27.5717 59.7494 27.6836 59.8614C27.7956 59.9733 27.9474 60.0362 28.1057 60.0362V60.0362Z" stroke="white" stroke-width="0.417942" stroke-linecap="round" stroke-linejoin="round"/>
<path d="M32.6865 63.1916V61.9475" stroke="white" stroke-width="0.417942" stroke-linecap="round" stroke-linejoin="round"/>
<path d="M32.0625 62.571H33.31" stroke="white" stroke-width="0.417942" stroke-linecap="round" stroke-linejoin="round"/>
<path d="M18.6836 41.0232V42.0862" stroke="white" stroke-width="0.417942" stroke-linecap="round" stroke-linejoin="round"/>
<path d="M19.2127 41.5535H18.1504" stroke="white" stroke-width="0.417942" stroke-linecap="round" stroke-linejoin="round"/>
<path d="M46.245 38.2106C46.0894 37.8433 45.829 37.5299 45.4964 37.3097C45.1637 37.0894 44.7736 36.972 44.3747 36.9721C44.1032 36.9723 43.8343 37.0258 43.5834 37.1296C43.2218 37.2846 42.9125 37.5405 42.6925 37.8665C42.5719 38.0469 42.4816 38.2457 42.425 38.4551H39.5691C39.5487 38.3721 39.5212 38.291 39.4869 38.2127C39.4562 38.1363 39.4187 38.0629 39.3747 37.9933L40.3938 36.9742C40.7015 37.1502 41.05 37.2424 41.4045 37.2417C41.6756 37.2425 41.9439 37.1877 42.193 37.0808C42.5611 36.9261 42.8753 36.6661 43.0963 36.3335C43.3172 36.0009 43.4351 35.6105 43.435 35.2112C43.4347 34.8791 43.3528 34.5522 43.1968 34.259C43.0408 33.9659 42.8152 33.7154 42.5399 33.5297C42.2047 33.3027 41.8093 33.1814 41.4045 33.1814C41.138 33.1809 40.874 33.2329 40.6276 33.3346C40.3812 33.4363 40.1573 33.5856 39.9687 33.774C39.7801 33.9623 39.6307 34.1861 39.5287 34.4323C39.4268 34.6786 39.3744 34.9426 39.3747 35.2091C39.3738 35.481 39.4283 35.7503 39.5349 36.0004C39.5624 36.0649 39.5934 36.128 39.6276 36.1892L38.5945 37.2229C38.2943 37.0578 37.9571 36.9715 37.6144 36.9721C37.3429 36.9723 37.0741 37.0258 36.8232 37.1296C36.4556 37.2847 36.142 37.5449 35.9215 37.8774C35.7011 38.21 35.5837 38.6002 35.584 38.9991C35.5833 39.2713 35.638 39.5408 35.7449 39.7911C35.9002 40.1585 36.1604 40.472 36.4929 40.6923C36.8255 40.9126 37.2156 41.0299 37.6144 41.0297C37.9465 41.0294 38.2733 40.9476 38.5664 40.7915C38.8594 40.6355 39.1098 40.4099 39.2953 40.1346C39.4186 39.9563 39.5102 39.7581 39.5663 39.5487H42.4159C42.4383 39.6314 42.4664 39.7124 42.5002 39.7911C42.5279 39.8554 42.5588 39.9181 42.5929 39.9792L41.5599 41.0129C41.2597 40.8476 40.9224 40.7613 40.5798 40.7622C40.3132 40.7615 40.049 40.8135 39.8026 40.9152C39.5561 41.0168 39.3322 41.1661 39.1436 41.3545C38.9549 41.5428 38.8053 41.7666 38.7033 42.0129C38.6013 42.2593 38.549 42.5233 38.5492 42.7899C38.5486 43.0618 38.6034 43.3311 38.7102 43.5812C38.8644 43.943 39.1195 44.2527 39.4451 44.4735C39.7507 44.6783 40.1063 44.7964 40.4738 44.8151C40.8413 44.8338 41.207 44.7523 41.5318 44.5795C41.8567 44.4067 42.1286 44.149 42.3185 43.8338C42.5085 43.5187 42.6093 43.1579 42.6103 42.7899C42.6096 42.519 42.5548 42.2509 42.4493 42.0014C42.4159 41.9254 42.3797 41.8495 42.34 41.7792L43.3563 40.7622C43.6639 40.9385 44.0125 41.0307 44.367 41.0297C44.9052 41.0285 45.421 40.8143 45.8016 40.4337C46.1821 40.0532 46.3964 39.5373 46.3976 38.9991C46.3992 38.7288 46.3473 38.4608 46.245 38.2106ZM40.5477 34.8462C40.6186 34.6795 40.7359 34.5366 40.8855 34.4345C41.0146 34.3475 41.1634 34.294 41.3183 34.2788C41.4732 34.2636 41.6294 34.2872 41.773 34.3475C41.9427 34.4186 42.0875 34.5384 42.1893 34.6918C42.2911 34.8451 42.3452 35.0251 42.3449 35.2091C42.3445 35.4573 42.2459 35.6952 42.0706 35.8709C41.8953 36.0466 41.6576 36.1458 41.4094 36.1467C41.2559 36.1467 41.1048 36.109 40.9693 36.0368C40.8339 35.9647 40.7183 35.8603 40.6327 35.7329C40.5465 35.6036 40.4936 35.455 40.4788 35.3002C40.464 35.1455 40.4877 34.9896 40.5477 34.8462ZM38.481 39.3655C38.4101 39.5321 38.2929 39.6747 38.1432 39.7765C37.9886 39.8814 37.8061 39.9374 37.6193 39.9374C37.4948 39.938 37.3713 39.9143 37.2558 39.8678C37.0879 39.7962 36.9442 39.6777 36.842 39.5264C36.7561 39.397 36.7035 39.2483 36.6888 39.0936C36.6741 38.939 36.6977 38.7831 36.7577 38.6397C36.8284 38.4731 36.9457 38.3304 37.0956 38.2287C37.2244 38.1415 37.3729 38.0877 37.5278 38.0724C37.6826 38.0571 37.8388 38.0806 37.9823 38.141C38.152 38.2121 38.2969 38.3319 38.3987 38.4852C38.5005 38.6386 38.5545 38.8186 38.5541 39.0026C38.555 39.1272 38.5306 39.2507 38.4824 39.3655H38.481ZM41.4463 43.1556C41.3498 43.3841 41.1666 43.5649 40.9368 43.6584C40.7071 43.7519 40.4496 43.7505 40.221 43.6543C40.0537 43.5821 39.9103 43.464 39.8073 43.3137C39.7214 43.1841 39.6687 43.0353 39.654 42.8805C39.6393 42.7257 39.663 42.5697 39.723 42.4263C39.7945 42.2569 39.9144 42.1123 40.0677 42.0107C40.2209 41.9091 40.4008 41.855 40.5847 41.8551C40.7091 41.8531 40.8327 41.8768 40.9476 41.9247C41.1175 41.9956 41.2626 42.1153 41.3644 42.2687C41.4662 42.4221 41.5201 42.6023 41.5195 42.7864C41.5213 42.9131 41.4969 43.0388 41.4477 43.1556H41.4463ZM45.2363 39.3655C45.1647 39.5349 45.0448 39.6795 44.8916 39.7811C44.7383 39.8828 44.5586 39.9372 44.3747 39.9374C44.2504 39.938 44.1271 39.9143 44.0118 39.8678C43.8437 39.7966 43.6999 39.678 43.598 39.5264C43.4932 39.372 43.4381 39.1893 43.4399 39.0026C43.4386 38.8782 43.4623 38.7548 43.5096 38.6397C43.5803 38.4731 43.6976 38.3304 43.8474 38.2287C43.9763 38.1415 44.125 38.0877 44.28 38.0724C44.4349 38.0571 44.5913 38.0806 44.7348 38.141C44.9044 38.2124 45.049 38.3322 45.1507 38.4855C45.2525 38.6388 45.3067 38.8187 45.3067 39.0026C45.3084 39.127 45.2849 39.2505 45.2377 39.3655H45.2363Z" fill="white"/>
</svg>
