<svg width="150" height="112" viewBox="0 0 150 112" fill="none" xmlns="http://www.w3.org/2000/svg">
<path d="M117.873 93.5031C119.16 93.5031 120.418 93.1216 121.488 92.4067C122.558 91.6918 123.392 90.6757 123.884 89.4869C124.376 88.2981 124.505 86.99 124.254 85.7279C124.003 84.4659 123.383 83.3067 122.474 82.3968C121.564 81.4869 120.404 80.8673 119.142 80.6162C117.88 80.3652 116.572 80.494 115.383 80.9865C114.195 81.4789 113.179 82.3128 112.464 83.3827C111.749 84.4526 111.367 85.7104 111.367 86.9972C111.367 87.8516 111.535 88.6977 111.862 89.4871C112.189 90.2765 112.668 90.9938 113.272 91.598C113.877 92.2022 114.594 92.6814 115.383 93.0083C116.173 93.3352 117.019 93.5033 117.873 93.5031Z" fill="#C0C3F6"/>
<path d="M35.6041 31.5085C36.891 31.5088 38.1491 31.1274 39.2192 30.4126C40.2893 29.6979 41.1234 28.6818 41.616 27.4929C42.1085 26.3041 42.2375 24.9958 41.9866 23.7336C41.7356 22.4715 41.1159 21.3121 40.2059 20.4021C39.296 19.4922 38.1365 18.8725 36.8744 18.6215C35.6122 18.3705 34.3041 18.4995 33.1152 18.9921C31.9264 19.4847 30.9103 20.3188 30.1955 21.3889C29.4807 22.459 29.0993 23.7171 29.0996 25.0039C29.0996 25.8581 29.2678 26.704 29.5947 27.4931C29.9216 28.2823 30.4007 28.9994 31.0047 29.6034C31.6087 30.2074 32.3258 30.6865 33.115 31.0134C33.9041 31.3403 34.7499 31.5085 35.6041 31.5085Z" fill="#C0C3F6"/>
<path d="M117.87 89.828C118.43 89.828 118.977 89.662 119.443 89.3509C119.908 89.0398 120.271 88.5977 120.485 88.0804C120.7 87.5632 120.756 86.994 120.646 86.4448C120.537 85.8957 120.268 85.3913 119.872 84.9954C119.476 84.5995 118.971 84.3299 118.422 84.2207C117.873 84.1114 117.304 84.1675 116.787 84.3818C116.269 84.596 115.827 84.9588 115.516 85.4244C115.205 85.8899 115.039 86.4372 115.039 86.9971C115.039 87.3689 115.112 87.7371 115.254 88.0807C115.396 88.4242 115.605 88.7363 115.868 88.9992C116.131 89.2622 116.443 89.4707 116.786 89.6129C117.13 89.7551 117.498 89.8282 117.87 89.828Z" fill="#6A52DE"/>
<path d="M35.6009 27.8334C36.1609 27.8337 36.7084 27.6679 37.1742 27.3569C37.6399 27.046 38.0029 26.6038 38.2174 26.0865C38.4318 25.5692 38.4881 24.9999 38.3789 24.4506C38.2697 23.9014 38.0001 23.3968 37.6041 23.0008C37.2081 22.6048 36.7035 22.3352 36.1542 22.226C35.6049 22.1168 35.0357 22.173 34.5184 22.3874C34.001 22.6019 33.5589 22.9649 33.2479 23.4307C32.937 23.8964 32.7712 24.4439 32.7715 25.0039C32.7715 25.7544 33.0695 26.4741 33.6002 27.0047C34.1308 27.5353 34.8505 27.8334 35.6009 27.8334Z" fill="#6A52DE"/>
<path d="M40.9355 29.0137L112.809 83.1817" stroke="#C0C3F6" stroke-width="0.830659" stroke-linecap="round" stroke-linejoin="round"/>
<path d="M35.6041 93.5031C36.8909 93.5034 38.149 93.1221 39.219 92.4074C40.2891 91.6926 41.1232 90.6767 41.6158 89.4879C42.1085 88.2991 42.2376 86.9909 41.9867 85.7288C41.7358 84.4667 41.1163 83.3073 40.2065 82.3973C39.2967 81.4873 38.1374 80.8675 36.8753 80.6163C35.6133 80.3652 34.3051 80.4939 33.1162 80.9863C31.9273 81.4787 30.9111 82.3126 30.1962 83.3825C29.4812 84.4524 29.0996 85.7104 29.0996 86.9972C29.0996 88.7224 29.7849 90.377 31.0047 91.5971C32.2245 92.8172 33.8789 93.5028 35.6041 93.5031Z" fill="#C0C3F6"/>
<path d="M117.873 31.5085C119.16 31.5085 120.418 31.1269 121.488 30.412C122.558 29.697 123.392 28.6808 123.884 27.492C124.376 26.3031 124.505 24.9949 124.254 23.7328C124.003 22.4707 123.383 21.3115 122.473 20.4017C121.563 19.4918 120.404 18.8723 119.142 18.6214C117.879 18.3705 116.571 18.4996 115.383 18.9922C114.194 19.4849 113.178 20.319 112.463 21.389C111.748 22.4591 111.367 23.7171 111.367 25.0039C111.367 25.8583 111.536 26.7042 111.863 27.4934C112.19 28.2827 112.669 28.9998 113.273 29.6039C113.877 30.2079 114.594 30.687 115.384 31.0138C116.173 31.3406 117.019 31.5087 117.873 31.5085Z" fill="#C0C3F6"/>
<path d="M35.6009 89.828C36.1608 89.8282 36.7083 89.6625 37.174 89.3516C37.6397 89.0407 38.0028 88.5987 38.2172 88.0814C38.4317 87.5642 38.4881 86.9949 38.379 86.4457C38.2699 85.8965 38.0003 85.3919 37.6045 84.9959C37.2086 84.5999 36.7043 84.3301 36.1552 84.2208C35.606 84.1114 35.0367 84.1674 34.5193 84.3816C34.0019 84.5958 33.5597 84.9587 33.2486 85.4242C32.9375 85.8898 32.7715 86.4372 32.7715 86.9971C32.7715 87.7477 33.0696 88.4675 33.6002 88.9983C34.1307 89.5292 34.8503 89.8276 35.6009 89.828Z" fill="#6A52DE"/>
<path d="M117.87 27.8334C118.43 27.8334 118.977 27.6673 119.443 27.3562C119.908 27.0451 120.271 26.6029 120.485 26.0856C120.7 25.5682 120.756 24.9989 120.646 24.4498C120.537 23.9006 120.267 23.3962 119.871 23.0003C119.475 22.6045 118.971 22.335 118.421 22.2259C117.872 22.1168 117.303 22.1731 116.786 22.3876C116.268 22.6021 115.826 22.9651 115.516 23.4308C115.205 23.8965 115.039 24.444 115.039 25.0039C115.039 25.3756 115.112 25.7437 115.255 26.087C115.397 26.4304 115.605 26.7424 115.868 27.0052C116.131 27.2679 116.443 27.4763 116.787 27.6184C117.13 27.7605 117.498 27.8336 117.87 27.8334Z" fill="#6A52DE"/>
<path d="M112.546 29.0137L40.6602 83.1817" stroke="#C0C3F6" stroke-width="0.830659" stroke-linecap="round" stroke-linejoin="round"/>
<path d="M76.7389 112C78.0257 112 79.2837 111.619 80.3538 110.904C81.4239 110.189 82.258 109.173 82.7506 107.984C83.2432 106.796 83.3723 105.487 83.1215 104.225C82.8706 102.963 82.2511 101.804 81.3413 100.894C80.4314 99.9837 79.2722 99.3639 78.0101 99.1128C76.748 98.8616 75.4398 98.9904 74.2509 99.4828C73.0621 99.9752 72.0459 100.809 71.3309 101.879C70.616 102.949 70.2344 104.207 70.2344 105.494C70.2342 106.348 70.4022 107.194 70.729 107.983C71.0559 108.773 71.535 109.49 72.1391 110.094C72.7431 110.698 73.4602 111.177 74.2494 111.504C75.0387 111.831 75.8846 112 76.7389 112Z" fill="#C0C3F6"/>
<path d="M76.7389 13.0118C78.0257 13.0121 79.2838 12.6307 80.354 11.9159C81.4241 11.2011 82.2581 10.1851 82.7507 8.9962C83.2433 7.80734 83.3723 6.49908 83.1213 5.23692C82.8703 3.97476 82.2507 2.81539 81.3407 1.90543C80.4308 0.99547 79.2713 0.375812 78.0092 0.124823C76.747 -0.126167 75.4389 0.00279205 74.25 0.495385C73.0611 0.987979 72.045 1.82208 71.3302 2.89219C70.6155 3.9623 70.2341 5.22035 70.2344 6.50722C70.2344 8.23234 70.9196 9.8868 72.1395 11.1066C73.3593 12.3265 75.0137 13.0118 76.7389 13.0118Z" fill="#C0C3F6"/>
<path d="M76.739 108.325C77.2989 108.325 77.8462 108.159 78.3117 107.848C78.7772 107.537 79.1401 107.095 79.3544 106.577C79.5686 106.06 79.6247 105.491 79.5154 104.942C79.4062 104.393 79.1367 103.888 78.7408 103.492C78.3449 103.096 77.8405 102.827 77.2913 102.717C76.7422 102.608 76.173 102.664 75.6557 102.879C75.1385 103.093 74.6962 103.456 74.3852 103.921C74.0741 104.387 73.9082 104.934 73.9082 105.494C73.908 105.866 73.9811 106.234 74.1233 106.577C74.2655 106.921 74.474 107.233 74.7369 107.496C74.9998 107.759 75.3119 107.967 75.6555 108.11C75.999 108.252 76.3672 108.325 76.739 108.325Z" fill="#6A52DE"/>
<path d="M76.739 9.33696C77.2989 9.33696 77.8464 9.17089 78.312 8.85977C78.7775 8.54865 79.1403 8.10644 79.3545 7.58909C79.5687 7.07174 79.6247 6.50248 79.5153 5.95331C79.406 5.40414 79.1363 4.89973 78.7402 4.50388C78.3442 4.10803 77.8396 3.83853 77.2904 3.72946C76.7411 3.62039 76.1719 3.67664 75.6547 3.89112C75.1374 4.10559 74.6954 4.46866 74.3845 4.93437C74.0736 5.40009 73.9079 5.94754 73.9082 6.50749C73.9082 6.87917 73.9814 7.24723 74.1237 7.5906C74.266 7.93398 74.4745 8.24595 74.7374 8.50871C75.0003 8.77147 75.3123 8.97986 75.6557 9.12197C75.9992 9.26408 76.3673 9.33714 76.739 9.33696Z" fill="#6A52DE"/>
<path d="M76.7422 13.1734V99.1496" stroke="#C0C3F6" stroke-width="0.830659" stroke-linecap="round" stroke-linejoin="round"/>
<path d="M45.8296 49.1596H10.2852C10.5819 47.4684 11.4656 45.9361 12.7807 44.8322C14.0958 43.7283 15.7582 43.1236 17.4752 43.1245H17.7538C18.7626 41.3169 20.2824 39.8472 22.1229 38.8996C23.9634 37.952 26.0426 37.5688 28.0999 37.7979C30.1573 38.027 32.1013 38.8582 33.6883 40.1874C35.2752 41.5166 36.4345 43.2847 37.0209 45.27C37.7718 44.5774 38.7083 44.1188 39.7159 43.9504C40.7234 43.782 41.7583 43.9111 42.6936 44.3218C43.6289 44.7325 44.424 45.4071 44.9818 46.2629C45.5396 47.1187 45.8357 48.1186 45.8339 49.1401L45.8296 49.1596Z" fill="#C0C3F6"/>
<path d="M45.8296 49.1596H10.2852C10.5819 47.4684 11.4656 45.9361 12.7807 44.8322C14.0958 43.7283 15.7582 43.1236 17.4752 43.1245H17.7538C18.7626 41.3169 20.2824 39.8472 22.1229 38.8996C23.9634 37.952 26.0426 37.5688 28.0999 37.7979C30.1573 38.027 32.1013 38.8582 33.6883 40.1874C35.2752 41.5166 36.4345 43.2847 37.0209 45.27C37.7718 44.5774 38.7083 44.1188 39.7159 43.9504C40.7234 43.782 41.7583 43.9111 42.6936 44.3218C43.6289 44.7325 44.424 45.4071 44.9818 46.2629C45.5396 47.1187 45.8357 48.1186 45.8339 49.1401L45.8296 49.1596Z" stroke="#C0C3F6" stroke-width="0.0872192" stroke-linejoin="round"/>
<path d="M36.0466 51.9168H0.501953C0.797652 50.2263 1.68013 48.6942 2.99396 47.5901C4.30779 46.486 5.96889 45.8805 7.68505 45.8803H7.96368C8.97521 44.0812 10.494 42.6196 12.3307 41.678C14.1674 40.7364 16.2407 40.3564 18.292 40.5853C20.3432 40.8143 22.2817 41.642 23.8656 42.9654C25.4495 44.2888 26.6087 46.0493 27.1987 48.0271C27.9489 47.3332 28.8854 46.8731 29.8932 46.7035C30.9011 46.5338 31.9364 46.6619 32.8726 47.072C33.8087 47.482 34.6049 48.1563 35.1635 49.0122C35.7221 49.8681 36.0188 50.8683 36.0173 51.8903L36.0466 51.9168Z" stroke="white" stroke-width="0.830659" stroke-linecap="round" stroke-linejoin="round"/>
<path d="M141.23 69.937H148.943" stroke="white" stroke-width="0.830659" stroke-linecap="round" stroke-linejoin="round"/>
<path d="M110.855 69.937H141.087" stroke="white" stroke-width="0.830659" stroke-linecap="round" stroke-linejoin="round"/>
<path d="M136.67 66.0597H107.121C107.371 64.6557 108.106 63.3842 109.198 62.4674C110.291 61.5506 111.67 61.0469 113.096 61.0444H113.332C114.165 59.537 115.426 58.3103 116.956 57.5189C118.486 56.7276 120.216 56.4072 121.928 56.5981C123.64 56.789 125.257 57.4827 126.575 58.5917C127.893 59.7006 128.853 61.1751 129.333 62.8291C129.96 62.2553 130.739 61.8761 131.577 61.7377C132.415 61.5993 133.275 61.7076 134.053 62.0494C134.831 62.3912 135.492 62.9518 135.957 63.6629C136.421 64.374 136.669 65.2048 136.67 66.0542V66.0597Z" stroke="white" stroke-width="0.830659" stroke-linecap="round" stroke-linejoin="round"/>
<path d="M104.467 14.231C104.704 14.231 104.934 14.161 105.131 14.0298C105.327 13.8986 105.48 13.7121 105.57 13.494C105.661 13.2758 105.684 13.0357 105.638 12.8041C105.592 12.5725 105.479 12.3598 105.312 12.1928C105.145 12.0258 104.932 11.9121 104.7 11.8661C104.469 11.82 104.229 11.8437 104.01 11.934C103.792 12.0244 103.606 12.1774 103.475 12.3737C103.343 12.5701 103.273 12.8009 103.273 13.0371C103.273 13.3537 103.399 13.6574 103.623 13.8813C103.847 14.1052 104.151 14.231 104.467 14.231V14.231Z" stroke="white" stroke-width="0.830659" stroke-linecap="round" stroke-linejoin="round"/>
<path d="M101.676 36.1967L101.757 50.0055C101.812 57.7986 99.3386 65.3995 94.7074 71.6674C90.1921 77.838 83.8594 82.4414 76.5966 84.8326C76.5354 84.8521 76.4698 84.8521 76.4086 84.8326C69.1213 82.5148 62.7393 77.98 58.1529 71.8611C53.4564 65.6393 50.9033 58.0627 50.8765 50.2674L50.8027 36.46C50.8027 36.3827 50.8316 36.3082 50.8835 36.251C50.9336 36.195 51.0025 36.1593 51.0771 36.1507C53.7299 35.8634 56.2041 34.6756 58.0872 32.7851C59.9703 30.8947 61.1485 28.4159 61.4254 25.7621C61.4325 25.6885 61.4656 25.6198 61.5187 25.5684C61.5742 25.5171 61.6454 25.4862 61.7208 25.4807L90.6047 25.333C90.6815 25.3337 90.7552 25.3625 90.8122 25.4138C90.8688 25.4642 90.905 25.5336 90.914 25.6088C91.2214 28.2629 92.4309 30.7309 94.3402 32.5999C96.2495 34.469 98.7429 35.6256 101.403 35.8763C101.477 35.8857 101.546 35.9213 101.597 35.9766C101.624 36.0061 101.645 36.0408 101.659 36.0786C101.672 36.1164 101.678 36.1566 101.676 36.1967Z" fill="white" stroke="white" stroke-width="0.830659" stroke-linecap="round" stroke-linejoin="round"/>
<path d="M91.5155 68.7904C87.7787 73.8856 82.5423 77.685 76.5392 79.6568C76.4895 79.6735 76.4356 79.6735 76.3859 79.6568C70.3575 77.7447 65.0786 73.9936 61.2898 68.9297C57.3975 63.7973 55.2791 57.5388 55.2535 51.0975L55.1935 39.696C55.1917 39.6327 55.2131 39.5708 55.2535 39.5219C55.2983 39.4767 55.3572 39.4481 55.4205 39.4411C57.6143 39.2076 59.6616 38.2286 61.2204 36.6674C62.7793 35.1063 63.7553 33.0576 63.9856 30.8635C63.991 30.8009 64.0193 30.7425 64.0651 30.6993C64.1108 30.6562 64.1708 30.6313 64.2336 30.6295L75.0304 30.5752L88.1148 30.5222C88.1459 30.5209 88.1767 30.5266 88.2053 30.539C88.2345 30.5499 88.2612 30.567 88.2834 30.5891C88.3309 30.6301 88.3617 30.6871 88.3698 30.7493C88.6243 32.9421 89.6224 34.9814 91.1978 36.5277C92.7732 38.074 94.8309 39.0339 97.028 39.2475C97.0938 39.2529 97.1555 39.2815 97.2022 39.3283C97.2415 39.38 97.263 39.443 97.2635 39.508L97.3234 50.9094C97.3736 57.3412 95.3356 63.6157 91.5155 68.7904Z" fill="#6A52DE"/>
<path d="M76.5391 79.6612C76.489 79.6752 76.436 79.6752 76.3859 79.6612C70.3575 77.749 65.0786 73.9979 61.2898 68.934C57.3993 63.8007 55.2809 57.5428 55.2533 51.1018L55.1935 39.7004C55.1917 39.637 55.2129 39.5751 55.2533 39.5263C55.2982 39.481 55.3572 39.4525 55.4205 39.4455C57.6143 39.212 59.6614 38.2329 61.2203 36.6718C62.7791 35.1107 63.7552 33.062 63.9855 30.8679C63.9902 30.805 64.0186 30.7463 64.0649 30.7035C64.1101 30.6595 64.1704 30.6345 64.2335 30.6339L75.0303 30.5795L75.9024 30.8582L76.5391 79.6612Z" fill="#6A52DE"/>
<path d="M98.6582 19.5287V22.0238" stroke="white" stroke-width="0.830659" stroke-linecap="round" stroke-linejoin="round"/>
<path d="M99.9072 20.7774H97.4121" stroke="white" stroke-width="0.830659" stroke-linecap="round" stroke-linejoin="round"/>
<path d="M50.7114 96.0724C50.9475 96.0724 51.1784 96.0024 51.3748 95.8712C51.5711 95.74 51.7241 95.5535 51.8145 95.3354C51.9049 95.1172 51.9284 94.8772 51.8824 94.6456C51.8363 94.414 51.7227 94.2012 51.5557 94.0343C51.3888 93.8673 51.1759 93.7536 50.9443 93.7075C50.7127 93.6614 50.4727 93.6851 50.2546 93.7755C50.0364 93.8658 49.85 94.0188 49.7188 94.2152C49.5876 94.4115 49.5176 94.6423 49.5176 94.8785C49.5176 95.1951 49.6433 95.4988 49.8672 95.7227C50.0911 95.9466 50.3948 96.0724 50.7114 96.0724V96.0724Z" stroke="white" stroke-width="0.830659" stroke-linecap="round" stroke-linejoin="round"/>
<path d="M59.875 102.383V99.895" stroke="white" stroke-width="0.830659" stroke-linecap="round" stroke-linejoin="round"/>
<path d="M58.625 101.142H61.12" stroke="white" stroke-width="0.830659" stroke-linecap="round" stroke-linejoin="round"/>
<path d="M31.8672 58.0464V60.1724" stroke="white" stroke-width="0.830659" stroke-linecap="round" stroke-linejoin="round"/>
<path d="M32.9234 59.1069H30.7988" stroke="white" stroke-width="0.830659" stroke-linecap="round" stroke-linejoin="round"/>
<path d="M86.988 52.4213C86.6768 51.6866 86.156 51.0599 85.4908 50.6194C84.8255 50.1789 84.0453 49.9441 83.2475 49.9443C82.7044 49.9447 82.1667 50.0517 81.6648 50.2592C80.9417 50.5693 80.3231 51.081 79.883 51.7331C79.6419 52.0938 79.4612 52.4914 79.348 52.9103H73.6362C73.5955 52.7443 73.5405 52.5821 73.4718 52.4255C73.4105 52.2727 73.3354 52.1258 73.2475 51.9867L75.2856 49.9485C75.9011 50.3005 76.598 50.4849 77.307 50.4835C77.8492 50.485 78.3859 50.3755 78.8841 50.1617C79.6203 49.8522 80.2487 49.3323 80.6906 48.6671C81.1325 48.0019 81.3682 47.2211 81.3681 46.4225C81.3674 45.7583 81.2037 45.1044 80.8916 44.5181C80.5795 43.9318 80.1284 43.4309 79.5778 43.0594C78.9075 42.6055 78.1166 42.3629 77.307 42.3629C76.774 42.3618 76.246 42.4659 75.7532 42.6692C75.2605 42.8726 74.8126 43.1712 74.4355 43.548C74.0583 43.9247 73.7594 44.3722 73.5555 44.8647C73.3516 45.3573 73.2469 45.8852 73.2475 46.4183C73.2457 46.9621 73.3547 47.5006 73.5679 48.0009C73.6229 48.1299 73.6848 48.256 73.7532 48.3784L71.6871 50.4459C71.0867 50.1156 70.4122 49.943 69.7269 49.9443C69.1839 49.9447 68.6463 50.0517 68.1444 50.2592C67.4093 50.5695 66.782 51.0898 66.3411 51.7549C65.9002 52.42 65.6654 53.2004 65.666 53.9984C65.6646 54.5427 65.7741 55.0817 65.9878 55.5824C66.2985 56.3171 66.8188 56.944 67.4839 57.3846C68.149 57.8252 68.9292 58.0599 69.7269 58.0594C70.391 58.0588 71.0447 57.8952 71.6308 57.5831C72.2169 57.271 72.7176 56.8198 73.0887 56.2692C73.3352 55.9126 73.5184 55.5163 73.6306 55.0975H79.3299C79.3746 55.2629 79.4309 55.4249 79.4985 55.5824C79.5538 55.7108 79.6157 55.8364 79.6838 55.9585L77.6178 58.0259C77.0175 57.6952 76.3429 57.5226 75.6576 57.5244C75.1244 57.5231 74.5961 57.6271 74.1032 57.8304C73.6103 58.0337 73.1625 58.3322 72.7852 58.709C72.4079 59.0858 72.1086 59.5333 71.9047 60.0259C71.7007 60.5186 71.596 61.0466 71.5965 61.5798C71.5953 62.1237 71.7048 62.6622 71.9184 63.1624C72.2269 63.886 72.7371 64.5055 73.3882 64.947C73.9995 65.3567 74.7106 65.5929 75.4456 65.6302C76.1806 65.6676 76.912 65.5048 77.5617 65.1591C78.2115 64.8135 78.7553 64.2981 79.1351 63.6677C79.515 63.0374 79.7167 62.3158 79.7186 61.5798C79.7172 61.038 79.6077 60.5019 79.3967 60.0028C79.3299 59.8509 79.2575 59.6991 79.1781 59.5584L81.2107 57.5244C81.8259 57.877 82.523 58.0615 83.2321 58.0594C84.3085 58.0572 85.3401 57.6286 86.1012 56.8675C86.8623 56.1064 87.2909 55.0747 87.2931 53.9984C87.2963 53.4577 87.1926 52.9218 86.988 52.4213ZM75.5935 45.6925C75.7353 45.359 75.9697 45.0733 76.2691 44.8691C76.5273 44.6951 76.8248 44.5881 77.1347 44.5577C77.4445 44.5273 77.7569 44.5745 78.044 44.695C78.3834 44.8374 78.6731 45.077 78.8766 45.3836C79.0802 45.6903 79.1884 46.0502 79.1878 46.4183C79.187 46.9147 78.9898 47.3906 78.6392 47.7419C78.2886 48.0933 77.8132 48.2916 77.3168 48.2935C77.0099 48.2935 76.7076 48.2181 76.4367 48.0737C76.1658 47.9294 75.9346 47.7207 75.7634 47.4659C75.5911 47.2073 75.4853 46.91 75.4557 46.6005C75.426 46.2911 75.4734 45.9792 75.5935 45.6925ZM71.4601 54.7312C71.3183 55.0642 71.0838 55.3495 70.7845 55.5531C70.4753 55.7629 70.1103 55.875 69.7367 55.8749C69.4876 55.876 69.2407 55.8287 69.0096 55.7356C68.6738 55.5925 68.3864 55.3554 68.182 55.053C68.0102 54.794 67.905 54.4967 67.8756 54.1873C67.8462 53.878 67.8935 53.5662 68.0134 53.2795C68.1548 52.9462 68.3895 52.6608 68.6892 52.4575C68.9468 52.283 69.2439 52.1755 69.5536 52.1449C69.8633 52.1142 70.1757 52.1614 70.4626 52.282C70.8021 52.4242 71.0919 52.6638 71.2955 52.9705C71.499 53.2772 71.6071 53.6372 71.6063 54.0053C71.608 54.2545 71.5592 54.5014 71.4628 54.7312H71.4601ZM77.3907 62.3112C77.1977 62.7682 76.8311 63.1299 76.3717 63.3169C75.9123 63.5039 75.3973 63.501 74.9401 63.3087C74.6055 63.1643 74.3186 62.9281 74.1126 62.6275C73.9408 62.3683 73.8355 62.0707 73.8061 61.7611C73.7767 61.4516 73.8241 61.1395 73.944 60.8526C74.0871 60.5138 74.3269 60.2247 74.6334 60.0215C74.9399 59.8183 75.2996 59.71 75.6674 59.7102C75.9163 59.7063 76.1634 59.7537 76.3932 59.8495C76.733 59.9913 77.0232 60.2308 77.2268 60.5375C77.4304 60.8443 77.5383 61.2046 77.537 61.5729C77.5407 61.8262 77.4918 62.0777 77.3934 62.3112H77.3907ZM84.9707 54.7312C84.8274 55.0699 84.5876 55.359 84.2812 55.5624C83.9747 55.7657 83.6153 55.8744 83.2475 55.8749C82.9988 55.876 82.7523 55.8287 82.5216 55.7356C82.1854 55.5932 81.8978 55.356 81.6941 55.053C81.4845 54.744 81.3743 54.3786 81.3779 54.0053C81.3752 53.7565 81.4226 53.5096 81.5172 53.2795C81.6586 52.9462 81.8932 52.6608 82.1928 52.4575C82.4507 52.283 82.748 52.1755 83.058 52.1449C83.3679 52.1142 83.6806 52.1614 83.9677 52.282C84.3068 52.4248 84.5961 52.6645 84.7995 52.9711C85.003 53.2776 85.1115 53.6374 85.1115 54.0053C85.1149 54.2541 85.0679 54.501 84.9735 54.7312H84.9707Z" fill="white"/>
</svg>
