<svg width="30" height="30" viewBox="0 0 30 30" fill="none" xmlns="http://www.w3.org/2000/svg">
<path fill-rule="evenodd" clip-rule="evenodd" d="M26.6667 15C26.6667 21.4433 21.4433 26.6667 15 26.6667C8.55668 26.6667 3.33333 21.4433 3.33333 15C3.33333 8.55668 8.55668 3.33333 15 3.33333C21.4433 3.33333 26.6667 8.55668 26.6667 15ZM30 15C30 23.2843 23.2843 30 15 30C6.71573 30 0 23.2843 0 15C0 6.71573 6.71573 0 15 0C23.2843 0 30 6.71573 30 15ZM11.6667 13.3333C12.5871 13.3333 13.3333 12.5871 13.3333 11.6667C13.3333 10.7462 12.5871 10 11.6667 10C10.7462 10 10 10.7462 10 11.6667C10 12.5871 10.7462 13.3333 11.6667 13.3333ZM20.0001 11.6667C20.0001 12.5871 19.2539 13.3333 18.3335 13.3333C17.413 13.3333 16.6668 12.5871 16.6668 11.6667C16.6668 10.7462 17.413 10 18.3335 10C19.2539 10 20.0001 10.7462 20.0001 11.6667ZM11.1173 17.5L8.31908 17.5C7.1221 17.5001 7.4673 19.0123 7.91435 19.7618C8.75631 21.1733 11.2401 23.75 14.9656 23.75C18.6911 23.75 21.1749 21.1733 22.0168 19.7618C22.4639 19.0123 22.9911 17.5 21.6121 17.5L19.5001 17.5L15.4737 17.5C14.4718 17.5 14.4254 17.5 14.3883 17.5C14.3328 17.5 14.2984 17.5 11.1173 17.5Z" fill="#6D6D6E"/>
</svg>
