<svg width="32" height="32" viewBox="0 0 32 32" fill="none" xmlns="http://www.w3.org/2000/svg">
<g clip-path="url(#clip0_318_1495)">
<path d="M26.2673 15.0667L16.934 5.73337C16.4007 5.20004 15.6007 5.20004 15.0673 5.73337L5.73398 15.0667C5.20065 15.6 5.20065 16.4 5.73398 16.9334C6.26732 17.4667 7.06732 17.4667 7.60065 16.9334L8.00065 16.5334V22.6667C8.00065 24.9334 9.73398 26.6667 12.0007 26.6667H20.0007C22.2673 26.6667 24.0006 24.9334 24.0006 22.6667V16.5334L24.4007 16.9334C24.6673 17.2 24.934 17.3334 25.334 17.3334C25.734 17.3334 26.0006 17.2 26.2673 16.9334C26.8006 16.4 26.8006 15.6 26.2673 15.0667V15.0667ZM16.0007 20.6667C16.0007 20.2667 16.2673 20 16.6673 20C17.0673 20 17.334 20.2667 17.334 20.6667C17.334 21.0667 17.0673 21.3334 16.6673 21.3334C16.2673 21.3334 16.0007 21.0667 16.0007 20.6667ZM21.334 22.6667C21.334 23.4667 20.8007 24 20.0007 24H18.6673V17.3334C18.6673 16.5334 18.134 16 17.334 16H14.6673C13.8673 16 13.334 16.5334 13.334 17.3334V24H12.0007C11.2007 24 10.6673 23.4667 10.6673 22.6667V13.8667L16.0007 8.53337L21.334 13.8667V22.6667Z" fill="#00DDFF"/>
</g>
<defs>
<clipPath id="clip0_318_1495">
<rect width="32" height="32" fill="white"/>
</clipPath>
</defs>
</svg>
