<svg width="32" height="32" viewBox="0 0 32 32" fill="none" xmlns="http://www.w3.org/2000/svg">
<path d="M26.2673 15.0668L16.934 5.7335C16.4007 5.20016 15.6007 5.20016 15.0673 5.7335L5.73398 15.0668C5.20065 15.6002 5.20065 16.4002 5.73398 16.9335C6.26732 17.4668 7.06732 17.4668 7.60065 16.9335L8.00065 16.5335V22.6668C8.00065 24.9335 9.73398 26.6668 12.0007 26.6668H20.0007C22.2673 26.6668 24.0007 24.9335 24.0007 22.6668V16.5335L24.4007 16.9335C24.6673 17.2002 24.934 17.3335 25.334 17.3335C25.734 17.3335 26.0007 17.2002 26.2673 16.9335C26.8006 16.4002 26.8006 15.6002 26.2673 15.0668ZM16.0007 20.6668C16.0007 20.2668 16.2673 20.0002 16.6673 20.0002C17.0673 20.0002 17.334 20.2668 17.334 20.6668C17.334 21.0668 17.0673 21.3335 16.6673 21.3335C16.2673 21.3335 16.0007 21.0668 16.0007 20.6668ZM21.334 22.6668C21.334 23.4668 20.8007 24.0002 20.0007 24.0002H18.6673V17.3335C18.6673 16.5335 18.134 16.0002 17.334 16.0002H14.6673C13.8673 16.0002 13.334 16.5335 13.334 17.3335V24.0002H12.0007C11.2007 24.0002 10.6673 23.4668 10.6673 22.6668V13.8668L16.0007 8.5335L21.334 13.8668V22.6668Z" fill="white" fill-opacity="0.8"/>
</svg>
