<svg width="50" height="50" viewBox="0 0 50 50" fill="none" xmlns="http://www.w3.org/2000/svg">
<path d="M35.2673 24.0667L25.934 14.7334C25.4007 14.2 24.6007 14.2 24.0673 14.7334L14.734 24.0667C14.2007 24.6 14.2007 25.4 14.734 25.9334C15.2673 26.4667 16.0673 26.4667 16.6007 25.9334L17.0007 25.5334V31.6667C17.0007 33.9334 18.734 35.6667 21.0007 35.6667H29.0007C31.2673 35.6667 33.0007 33.9334 33.0007 31.6667V25.5334L33.4007 25.9334C33.6673 26.2 33.934 26.3334 34.334 26.3334C34.734 26.3334 35.0007 26.2 35.2673 25.9334C35.8006 25.4 35.8006 24.6 35.2673 24.0667ZM25.0007 29.6667C25.0007 29.2667 25.2673 29 25.6673 29C26.0673 29 26.334 29.2667 26.334 29.6667C26.334 30.0667 26.0673 30.3334 25.6673 30.3334C25.2673 30.3334 25.0007 30.0667 25.0007 29.6667ZM30.334 31.6667C30.334 32.4667 29.8007 33 29.0007 33H27.6673V26.3334C27.6673 25.5334 27.134 25 26.334 25H23.6673C22.8673 25 22.334 25.5334 22.334 26.3334V33H21.0007C20.2007 33 19.6673 32.4667 19.6673 31.6667V22.8667L25.0007 17.5334L30.334 22.8667V31.6667Z" fill="#00DDFF"/>
</svg>
