<svg width="32" height="32" viewBox="0 0 32 32" fill="none" xmlns="http://www.w3.org/2000/svg">
<path d="M23.5 6.6665H8.5C5.95 6.6665 4 8.68873 4 11.3332V20.6665C4 23.3109 5.95 25.3332 8.5 25.3332H23.5C26.05 25.3332 28 23.3109 28 20.6665V11.3332C28 8.68873 26.05 6.6665 23.5 6.6665ZM23.5 9.77762C23.65 9.77762 23.8 9.77762 23.95 9.93317H23.8L16 15.8443L8.2 9.93317H8.05C8.2 9.77762 8.35 9.77762 8.5 9.77762H23.5ZM25 20.6665C25 21.5998 24.4 22.2221 23.5 22.2221H8.5C7.6 22.2221 7 21.5998 7 20.6665V11.0221C7 11.1776 7.15 11.1776 7.3 11.1776L15.55 17.3998C15.7 17.5554 15.85 17.5554 16 17.5554C16.15 17.5554 16.3 17.5554 16.45 17.3998L24.7 11.1776C24.85 11.1776 24.85 11.0221 24.85 10.8665C25 11.0221 25 11.1776 25 11.3332V20.6665Z" fill="#3FE1B0"/>
</svg>
