<svg width="50" height="50" viewBox="0 0 50 50" fill="none" xmlns="http://www.w3.org/2000/svg">
<path d="M32.5 15.6667H17.5C14.95 15.6667 13 17.6889 13 20.3333V29.6667C13 32.3111 14.95 34.3333 17.5 34.3333H32.5C35.05 34.3333 37 32.3111 37 29.6667V20.3333C37 17.6889 35.05 15.6667 32.5 15.6667ZM32.5 18.7778C32.65 18.7778 32.8 18.7778 32.95 18.9333H32.8L25 24.8445L17.2 18.9333H17.05C17.2 18.7778 17.35 18.7778 17.5 18.7778H32.5ZM34 29.6667C34 30.6 33.4 31.2222 32.5 31.2222H17.5C16.6 31.2222 16 30.6 16 29.6667V20.0222C16 20.1778 16.15 20.1778 16.3 20.1778L24.55 26.4C24.7 26.5556 24.85 26.5556 25 26.5556C25.15 26.5556 25.3 26.5556 25.45 26.4L33.7 20.1778C33.85 20.1778 33.85 20.0222 33.85 19.8667C34 20.0222 34 20.1778 34 20.3333V29.6667Z" fill="#00DDFF"/>
</svg>
