<svg width="50" height="50" viewBox="0 0 50 50" fill="none" xmlns="http://www.w3.org/2000/svg">
<path fill-rule="evenodd" clip-rule="evenodd" d="M27.666 15.6667H17.5C14.95 15.6667 13 17.6889 13 20.3333V29.6667C13 32.3111 14.95 34.3333 17.5 34.3333H32.5C35.05 34.3333 37 32.3111 37 29.6667V21.7784C36.1832 22.1353 35.2811 22.3334 34.3327 22.3334C34.2211 22.3334 34.1102 22.3306 34 22.3252V29.6667C34 30.6 33.4 31.2222 32.5 31.2222H17.5C16.6 31.2222 16 30.6 16 29.6667V20.0222C16 20.1778 16.15 20.1778 16.3 20.1778L24.55 26.4C24.7 26.5556 24.85 26.5556 25 26.5556C25.15 26.5556 25.3 26.5556 25.45 26.4L31.6102 21.7539C31.1048 21.5276 30.6328 21.2402 30.2035 20.901L25 24.8445L17.2 18.9333H17.05C17.2 18.7778 17.35 18.7778 17.5 18.7778H28.4349C27.944 17.849 27.666 16.7903 27.666 15.6667C27.666 15.6667 27.666 15.6667 27.666 15.6667Z" fill="#00DDFF"/>
<path d="M39.6667 15.6666C39.6667 18.6121 37.2789 20.9999 34.3333 20.9999C31.3878 20.9999 29 18.6121 29 15.6666C29 12.7211 31.3878 10.3333 34.3333 10.3333C37.2789 10.3333 39.6667 12.7211 39.6667 15.6666Z" fill="#C50042"/>
</svg>
