<svg width="32" height="32" viewBox="0 0 32 32" fill="none" xmlns="http://www.w3.org/2000/svg">
<g clip-path="url(#clip0_318_1499)">
<path d="M23.5 6.66667H8.5C5.95 6.66667 4 8.68889 4 11.3333V20.6667C4 23.3111 5.95 25.3333 8.5 25.3333H23.5C26.05 25.3333 28 23.3111 28 20.6667V11.3333C28 8.68889 26.05 6.66667 23.5 6.66667ZM23.5 9.77778C23.65 9.77778 23.8 9.77778 23.95 9.93333H23.8L16 15.8444L8.2 9.93333H8.05C8.2 9.77778 8.35 9.77778 8.5 9.77778H23.5V9.77778ZM25 20.6667C25 21.6 24.4 22.2222 23.5 22.2222H8.5C7.6 22.2222 7 21.6 7 20.6667V11.0222C7 11.1778 7.15 11.1778 7.3 11.1778L15.55 17.4C15.7 17.5556 15.85 17.5556 16 17.5556C16.15 17.5556 16.3 17.5556 16.45 17.4L24.7 11.1778C24.85 11.1778 24.85 11.0222 24.85 10.8667C25 11.0222 25 11.1778 25 11.3333V20.6667V20.6667Z" fill="#00DDFF"/>
</g>
<defs>
<clipPath id="clip0_318_1499">
<rect width="32" height="32" fill="white"/>
</clipPath>
</defs>
</svg>
