<svg width="32" height="32" viewBox="0 0 32 32" fill="none" xmlns="http://www.w3.org/2000/svg">
<g clip-path="url(#clip0_318_1488)">
<path fill-rule="evenodd" clip-rule="evenodd" d="M18.666 6.66667L8.5 6.66667C5.95 6.66667 4 8.68889 4 11.3333V20.6667C4 23.3111 5.95 25.3333 8.5 25.3333H23.5C26.05 25.3333 28 23.3111 28 20.6667V12.7784C27.1832 13.1353 26.2811 13.3334 25.3327 13.3334C25.2211 13.3334 25.1102 13.3306 25 13.3252V20.6667C25 21.6 24.4 22.2222 23.5 22.2222H8.5C7.6 22.2222 7 21.6 7 20.6667V11.0222C7 11.1778 7.15 11.1778 7.3 11.1778L15.55 17.4C15.7 17.5556 15.85 17.5556 16 17.5556C16.15 17.5556 16.3 17.5556 16.45 17.4L22.6102 12.7539C22.1048 12.5276 21.6328 12.2402 21.2035 11.901L16 15.8444L8.2 9.93333H8.05C8.2 9.77778 8.35 9.77778 8.5 9.77778H19.4349C18.944 8.84902 18.666 7.79033 18.666 6.66671C18.666 6.66669 18.666 6.66668 18.666 6.66667Z" fill="white" fill-opacity="0.8"/>
<path d="M30.6667 6.66659C30.6667 9.61211 28.2789 11.9999 25.3333 11.9999C22.3878 11.9999 20 9.61211 20 6.66659C20 3.72107 22.3878 1.33325 25.3333 1.33325C28.2789 1.33325 30.6667 3.72107 30.6667 6.66659Z" fill="#C50042"/>
</g>
<defs>
<clipPath id="clip0_318_1488">
<rect width="32" height="32" fill="white"/>
</clipPath>
</defs>
</svg>
