<svg width="32" height="32" viewBox="0 0 32 32" fill="none" xmlns="http://www.w3.org/2000/svg">
<path fill-rule="evenodd" clip-rule="evenodd" d="M18.666 6.6665H8.5C5.95 6.6665 4 8.68873 4 11.3332V20.6665C4 23.3109 5.95 25.3332 8.5 25.3332H23.5C26.05 25.3332 28 23.3109 28 20.6665V12.7782C27.1832 13.1352 26.2811 13.3332 25.3327 13.3332C25.2211 13.3332 25.1102 13.3305 25 13.3251V20.6665C25 21.5998 24.4 22.2221 23.5 22.2221H8.5C7.6 22.2221 7 21.5998 7 20.6665V11.0221C7 11.1776 7.15 11.1776 7.3 11.1776L15.55 17.3998C15.7 17.5554 15.85 17.5554 16 17.5554C16.15 17.5554 16.3 17.5554 16.45 17.3998L22.6102 12.7538C22.1048 12.5274 21.6328 12.24 21.2035 11.9009L16 15.8443L8.2 9.93317H8.05C8.2 9.77762 8.35 9.77762 8.5 9.77762H19.4349C18.944 8.84886 18.666 7.79017 18.666 6.66654C18.666 6.66653 18.666 6.66652 18.666 6.6665Z" fill="white" fill-opacity="0.8"/>
<path d="M30.6667 6.66683C30.6667 9.61235 28.2789 12.0002 25.3333 12.0002C22.3878 12.0002 20 9.61235 20 6.66683C20 3.72131 22.3878 1.3335 25.3333 1.3335C28.2789 1.3335 30.6667 3.72131 30.6667 6.66683Z" fill="#E22850"/>
</svg>