<svg width="32" height="32" viewBox="0 0 32 32" fill="none" xmlns="http://www.w3.org/2000/svg">
<g clip-path="url(#clip0_318_1497)">
<path fill-rule="evenodd" clip-rule="evenodd" d="M22.5333 14.6667H25.3333C26.0697 14.6667 26.6667 15.2636 26.6667 16C26.6667 16.7364 26.0697 17.3333 25.3333 17.3333H22.5333C22.3612 18.1685 22.0293 18.9626 21.556 19.672L23.5427 21.6587C24.048 22.1818 24.0407 23.0134 23.5264 23.5278C23.0121 24.0421 22.1805 24.0493 21.6573 23.544L19.6707 21.5573C18.9616 22.03 18.168 22.3614 17.3333 22.5333V25.3333C17.3333 26.0697 16.7364 26.6667 16 26.6667C15.2636 26.6667 14.6667 26.0697 14.6667 25.3333V22.5333C13.8263 22.3607 13.0276 22.0265 12.3147 21.5493C12.3073 21.5579 12.3019 21.5677 12.2965 21.5774C12.2903 21.5887 12.284 21.6 12.2747 21.6093L10.3413 23.5427C10.0066 23.8893 9.51083 24.0283 9.04466 23.9063C8.57848 23.7842 8.21442 23.4202 8.0924 22.954C7.97038 22.4878 8.10939 21.9921 8.456 21.6573L10.3893 19.724C10.3982 19.7151 10.4088 19.7094 10.4196 19.7036C10.4298 19.6981 10.4402 19.6925 10.4493 19.684C9.97275 18.9714 9.63903 18.1731 9.46667 17.3333H6.66667C5.93029 17.3333 5.33333 16.7364 5.33333 16C5.33333 15.2636 5.93029 14.6667 6.66667 14.6667H9.46667C9.639 13.8319 9.97085 13.0383 10.444 12.3293L8.45733 10.3427C7.93635 9.82205 7.93605 8.97766 8.45667 8.45667C8.97729 7.93568 9.82168 7.93538 10.3427 8.456L12.3293 10.4427C13.0384 9.97002 13.832 9.63862 14.6667 9.46667V6.66667C14.6667 5.93029 15.2636 5.33333 16 5.33333C16.7364 5.33333 17.3333 5.93029 17.3333 6.66667V9.46667C18.1685 9.63887 18.9626 9.97072 19.672 10.444L21.6587 8.45733C22.1818 7.95204 23.0134 7.95926 23.5278 8.47358C24.0421 8.98789 24.0493 9.8195 23.544 10.3427L21.5573 12.3293C22.03 13.0384 22.3614 13.832 22.5333 14.6667ZM16 12C13.7909 12 12 13.7909 12 16C12 18.2091 13.7909 20 16 20C18.2091 20 20 18.2091 20 16C20 13.7909 18.2091 12 16 12Z" fill="#00DDFF"/>
</g>
<defs>
<clipPath id="clip0_318_1497">
<rect width="32" height="32" fill="white"/>
</clipPath>
</defs>
</svg>
