<svg width="32" height="32" viewBox="0 0 32 32" fill="none" xmlns="http://www.w3.org/2000/svg">
<path fill-rule="evenodd" clip-rule="evenodd" d="M22.534 14.6668H25.334C26.0704 14.6668 26.6673 15.2638 26.6673 16.0002C26.6673 16.7365 26.0704 17.3335 25.334 17.3335H22.534C22.3618 18.1687 22.03 18.9628 21.5567 19.6722L23.5433 21.6588C24.0486 22.182 24.0414 23.0136 23.5271 23.5279C23.0128 24.0422 22.1812 24.0495 21.658 23.5442L19.6713 21.5575C18.9622 22.0301 18.1686 22.3615 17.334 22.5335V25.3335C17.334 26.0699 16.737 26.6668 16.0007 26.6668C15.2643 26.6668 14.6673 26.0699 14.6673 25.3335V22.5335C13.827 22.3609 13.0282 22.0267 12.3153 21.5495C12.3079 21.5581 12.3025 21.5678 12.2972 21.5775C12.2909 21.5889 12.2847 21.6002 12.2753 21.6095L10.342 23.5428C10.0072 23.8894 9.51148 24.0284 9.04531 23.9064C8.57913 23.7844 8.21508 23.4203 8.09305 22.9542C7.97103 22.488 8.11004 21.9923 8.45665 21.6575L10.39 19.7242C10.3989 19.7153 10.4095 19.7096 10.4202 19.7038C10.4305 19.6982 10.4409 19.6926 10.45 19.6842C9.9734 18.9716 9.63968 18.1733 9.46732 17.3335H6.66732C5.93094 17.3335 5.33398 16.7365 5.33398 16.0002C5.33398 15.2638 5.93094 14.6668 6.66732 14.6668H9.46732C9.63965 13.8321 9.9715 13.0385 10.4447 12.3295L8.45798 10.3428C7.937 9.82221 7.9367 8.97782 8.45732 8.45683C8.97794 7.93584 9.82233 7.93554 10.3433 8.45616L12.33 10.4428C13.0391 9.97018 13.8327 9.63879 14.6673 9.46683V6.66683C14.6673 5.93045 15.2643 5.3335 16.0007 5.3335C16.737 5.3335 17.334 5.93045 17.334 6.66683V9.46683C18.1692 9.63903 18.9633 9.97088 19.6726 10.4442L21.6593 8.4575C22.1825 7.9522 23.0141 7.95943 23.5284 8.47374C24.0427 8.98805 24.0499 9.81966 23.5446 10.3428L21.558 12.3295C22.0307 13.0386 22.3621 13.8322 22.534 14.6668ZM16.0007 12.0002C13.7915 12.0002 12.0007 13.791 12.0007 16.0002C12.0007 18.2093 13.7915 20.0002 16.0007 20.0002C18.2098 20.0002 20.0007 18.2093 20.0007 16.0002C20.0007 13.791 18.2098 12.0002 16.0007 12.0002Z" fill="#3FE1B0"/>
</svg>
