<svg width="50" height="50" viewBox="0 0 50 50" fill="none" xmlns="http://www.w3.org/2000/svg">
<path fill-rule="evenodd" clip-rule="evenodd" d="M31.5333 23.6667H34.3333C35.0697 23.6667 35.6667 24.2636 35.6667 25C35.6667 25.7364 35.0697 26.3333 34.3333 26.3333H31.5333C31.3612 27.1685 31.0293 27.9626 30.556 28.672L32.5427 30.6587C33.048 31.1818 33.0407 32.0134 32.5264 32.5278C32.0121 33.0421 31.1805 33.0493 30.6573 32.544L28.6707 30.5573C27.9616 31.03 27.168 31.3614 26.3333 31.5333V34.3333C26.3333 35.0697 25.7364 35.6667 25 35.6667C24.2636 35.6667 23.6667 35.0697 23.6667 34.3333V31.5333C22.8263 31.3607 22.0275 31.0265 21.3147 30.5493C21.3073 30.5579 21.3019 30.5677 21.2965 30.5774C21.2902 30.5887 21.284 30.6 21.2747 30.6093L19.3413 32.5427C19.0066 32.8893 18.5108 33.0283 18.0447 32.9063C17.5785 32.7842 17.2144 32.4202 17.0924 31.954C16.9704 31.4878 17.1094 30.9921 17.456 30.6573L19.3893 28.724C19.3982 28.7151 19.4088 28.7094 19.4196 28.7036C19.4298 28.6981 19.4402 28.6925 19.4493 28.684C18.9727 27.9714 18.639 27.1731 18.4667 26.3333H15.6667C14.9303 26.3333 14.3333 25.7364 14.3333 25C14.3333 24.2636 14.9303 23.6667 15.6667 23.6667H18.4667C18.639 22.8319 18.9708 22.0383 19.444 21.3293L17.4573 19.3427C16.9363 18.822 16.936 17.9776 17.4567 17.4567C17.9773 16.9357 18.8217 16.9354 19.3427 17.456L21.3293 19.4427C22.0384 18.97 22.832 18.6386 23.6667 18.4667V15.6667C23.6667 14.9303 24.2636 14.3333 25 14.3333C25.7364 14.3333 26.3333 14.9303 26.3333 15.6667V18.4667C27.1685 18.6389 27.9626 18.9707 28.672 19.444L30.6587 17.4573C31.1818 16.952 32.0134 16.9593 32.5278 17.4736C33.0421 17.9879 33.0493 18.8195 32.544 19.3427L30.5573 21.3293C31.03 22.0384 31.3614 22.832 31.5333 23.6667ZM25 21C22.7909 21 21 22.7909 21 25C21 27.2091 22.7909 29 25 29C27.2091 29 29 27.2091 29 25C29 22.7909 27.2091 21 25 21Z" fill="#00DDFF"/>
</svg>
