<svg width="81" height="80" viewBox="0 0 81 80" fill="none" xmlns="http://www.w3.org/2000/svg">
<path fill-rule="evenodd" clip-rule="evenodd" d="M2.5 40C2.5 60.9868 19.5132 78 40.5 78C43.355 77.9969 46.1363 77.6793 48.8111 77.08C44.7865 74.6955 41.6266 71.0054 39.9148 66.5931C31.0252 66.3993 23.2834 61.7994 18.6135 54.9274C17.2463 52.9164 17.3739 50.2352 18.9699 48.3944C22.4467 44.382 26.7518 46.1832 31.4449 48.1468C34.2654 49.3269 37.2262 50.5657 40.2316 50.6363C41.0571 48.7371 42.1552 46.9837 43.4765 45.4255C42.5112 45.6055 41.5157 45.6995 40.4981 45.6995C31.578 45.6995 24.3481 38.4697 24.3481 29.5495C24.3481 20.6294 31.578 13.3995 40.4981 13.3995C49.4183 13.3995 56.6481 20.6294 56.6481 29.5495C56.6481 32.9907 55.5722 36.1802 53.7384 38.8002C55.5692 38.279 57.502 38 59.5 38C67.1947 38 73.9229 42.1385 77.58 48.3111C78.1793 45.6363 78.4969 42.855 78.5 40C78.5 19.0132 61.4868 2 40.5 2C19.5132 2 2.5 19.0132 2.5 40Z" fill="url(#paint0_radial_838_3329)"/>
<rect x="44.5" y="44" width="32" height="32" rx="16" fill="#FF4F5E"/>
<path d="M67.1929 64.0119L62.2399 54.1059C62.0739 53.7736 61.8185 53.4941 61.5025 53.2988C61.1866 53.1035 60.8224 53 60.4509 53C60.0795 53 59.7153 53.1035 59.3993 53.2988C59.0834 53.4941 58.828 53.7736 58.6619 54.1059L53.7089 64.0159C53.5575 64.3206 53.4863 64.659 53.5022 64.999C53.518 65.3389 53.6203 65.6692 53.7995 65.9586C53.9786 66.2479 54.2286 66.4868 54.5258 66.6526C54.823 66.8183 55.1576 66.9055 55.4979 66.9059H65.4029C65.7439 66.906 66.0792 66.819 66.3771 66.6531C66.6749 66.4872 66.9255 66.2479 67.1048 65.9579C67.2842 65.668 67.3864 65.337 67.4018 64.9964C67.4172 64.6557 67.3453 64.3169 67.1929 64.0119ZM59.4509 56.9059C59.4509 56.6406 59.5563 56.3863 59.7438 56.1988C59.9314 56.0112 60.1857 55.9059 60.4509 55.9059C60.7162 55.9059 60.9705 56.0112 61.158 56.1988C61.3456 56.3863 61.4509 56.6406 61.4509 56.9059V60.9059C61.4509 61.1711 61.3456 61.4254 61.158 61.613C60.9705 61.8005 60.7162 61.9059 60.4509 61.9059C60.1857 61.9059 59.9314 61.8005 59.7438 61.613C59.5563 61.4254 59.4509 61.1711 59.4509 60.9059V56.9059ZM60.4509 65.1559C60.2037 65.1559 59.962 65.0826 59.7565 64.9452C59.5509 64.8078 59.3907 64.6126 59.2961 64.3842C59.2015 64.1558 59.1767 63.9045 59.225 63.662C59.2732 63.4195 59.3922 63.1968 59.5671 63.022C59.7419 62.8472 59.9646 62.7281 60.2071 62.6799C60.4496 62.6317 60.7009 62.6564 60.9293 62.751C61.1577 62.8456 61.3529 63.0058 61.4903 63.2114C61.6276 63.417 61.7009 63.6586 61.7009 63.9059C61.7009 64.2374 61.5692 64.5553 61.3348 64.7897C61.1004 65.0242 60.7825 65.1559 60.4509 65.1559Z" fill="white"/>
<defs>
<radialGradient id="paint0_radial_838_3329" cx="0" cy="0" r="1" gradientUnits="userSpaceOnUse" gradientTransform="translate(78.5 2) rotate(-45) scale(107.48)">
<stop stop-color="#B833E1"/>
<stop offset="0.371" stop-color="#9059FF"/>
<stop offset="0.614" stop-color="#5B6DF8"/>
<stop offset="1" stop-color="#0090ED"/>
</radialGradient>
</defs>
</svg>
