<svg width="24" height="24" viewBox="0 0 24 24" fill="none" xmlns="http://www.w3.org/2000/svg">
<path fill-rule="evenodd" clip-rule="evenodd" d="M12 20C7.58172 20 4 16.4183 4 12C4 7.58172 7.58172 4 12 4C16.4183 4 20 7.58172 20 12C19.9951 16.4163 16.4163 19.9951 12 20ZM16.5324 13.7674C15.3474 12.3999 13.7066 14.24 11.9998 14.24C10.294 14.24 8.65207 12.3999 7.46711 13.7674C7.13111 14.1549 7.10423 14.7194 7.39207 15.1427C8.39671 16.6211 10.0767 17.6 11.9998 17.6C13.9228 17.6 15.6028 16.6211 16.6074 15.1427C16.8964 14.7194 16.8684 14.1549 16.5324 13.7674ZM12 13.2C13.8779 13.2 15.4 11.6779 15.4 9.79999C15.4 7.92206 13.8779 6.39999 12 6.39999C10.122 6.39999 8.59998 7.92206 8.59998 9.79999C8.59998 11.6779 10.122 13.2 12 13.2Z" fill="white"/>
</svg>
