<svg width="31" height="31" viewBox="0 0 31 31" fill="none" xmlns="http://www.w3.org/2000/svg">
<path fill-rule="evenodd" clip-rule="evenodd" d="M15.0323 30.4692C6.74808 30.4692 0.0323486 23.7535 0.0323486 15.4692C0.0323486 7.18497 6.74808 0.469238 15.0323 0.469238C23.3166 0.469238 30.0323 7.18497 30.0323 15.4692C30.0233 23.7497 23.3128 30.4601 15.0323 30.4692ZM23.5306 18.7831C21.3088 16.219 18.2323 19.6693 15.0319 19.6693C11.8336 19.6693 8.755 16.219 6.5332 18.7831C5.9032 19.5097 5.8528 20.5681 6.3925 21.3619C8.2762 24.1339 11.4262 25.9693 15.0319 25.9693C18.6376 25.9693 21.7876 24.1339 23.6713 21.3619C24.2131 20.5681 24.1606 19.5097 23.5306 18.7831V18.7831ZM15.0323 17.7193C18.5534 17.7193 21.4073 14.8654 21.4073 11.3443C21.4073 7.82315 18.5534 4.96928 15.0323 4.96928C11.5112 4.96928 8.65728 7.82315 8.65728 11.3443C8.65728 14.8654 11.5112 17.7193 15.0323 17.7193Z" fill="white" fill-opacity="0.8"/>
</svg>
