<svg width="81" height="80" viewBox="0 0 81 80" fill="none" xmlns="http://www.w3.org/2000/svg">
<path fill-rule="evenodd" clip-rule="evenodd" d="M40.5 78C19.5132 78 2.5 60.9868 2.5 40C2.5 19.0132 19.5132 2 40.5 2C61.4868 2 78.5 19.0132 78.5 40C78.477 60.9773 61.4773 77.977 40.5 78ZM62.0289 48.3951C56.4004 41.8993 48.6066 50.6401 40.4989 50.6401C32.3965 50.6401 24.5974 41.8993 18.9688 48.3951C17.3728 50.2358 17.2452 52.9171 18.6124 54.928C23.3844 61.9504 31.3644 66.6001 40.4989 66.6001C49.6333 66.6001 57.6133 61.9504 62.3854 54.928C63.7579 52.9171 63.6249 50.2358 62.0289 48.3951ZM40.4999 45.7C49.42 45.7 56.6499 38.4702 56.6499 29.55C56.6499 20.6298 49.42 13.4 40.4999 13.4C31.5797 13.4 24.3499 20.6298 24.3499 29.55C24.3499 38.4702 31.5797 45.7 40.4999 45.7Z" fill="url(#paint0_radial_762_12120)"/>
<defs>
<radialGradient id="paint0_radial_762_12120" cx="0" cy="0" r="1" gradientUnits="userSpaceOnUse" gradientTransform="translate(78.5 2) rotate(-45) scale(107.48)">
<stop stop-color="#B833E1"/>
<stop offset="0.371" stop-color="#9059FF"/>
<stop offset="0.614" stop-color="#5B6DF8"/>
<stop offset="1" stop-color="#0090ED"/>
</radialGradient>
</defs>
</svg>
