<svg width="184" height="184" viewBox="0 0 184 184" fill="none" xmlns="http://www.w3.org/2000/svg">
<g clip-path="url(#clip0_382_695)">
<path fill-rule="evenodd" clip-rule="evenodd" d="M4.6 92C4.6 140.27 43.7303 179.4 92 179.4C98.5664 179.393 104.963 178.662 111.116 177.284C101.859 171.8 94.5911 163.312 90.6539 153.164C70.208 152.718 52.4017 142.139 41.6611 126.333C38.5164 121.708 38.8101 115.541 42.4809 111.307C50.4775 102.079 60.379 106.221 71.1732 110.738C77.6605 113.452 84.4702 116.301 91.3826 116.464C93.2813 112.095 95.807 108.062 98.846 104.479C96.6257 104.893 94.336 105.109 91.9957 105.109C71.4793 105.109 54.8507 88.4804 54.8507 67.9639C54.8507 47.4475 71.4793 30.8189 91.9957 30.8189C112.512 30.8189 129.141 47.4475 129.141 67.9639C129.141 75.8785 126.666 83.2145 122.448 89.2405C126.659 88.0418 131.105 87.4 135.7 87.4C153.398 87.4 168.873 96.9186 177.284 111.116C178.662 104.963 179.393 98.5664 179.4 92C179.4 43.7303 140.27 4.6 92 4.6C43.7303 4.6 4.6 43.7303 4.6 92Z" fill="url(#paint0_radial_382_695)"/>
<rect x="101.2" y="101.2" width="73.6" height="73.6" rx="36.8" fill="#C50042"/>
<path d="M153.394 147.227L142.002 124.443C141.62 123.679 141.033 123.036 140.306 122.587C139.579 122.138 138.742 121.9 137.887 121.9C137.033 121.9 136.195 122.138 135.468 122.587C134.742 123.036 134.154 123.679 133.772 124.443L122.381 147.236C122.032 147.937 121.869 148.716 121.905 149.498C121.941 150.279 122.177 151.039 122.589 151.705C123.001 152.37 123.576 152.92 124.259 153.301C124.943 153.682 125.713 153.883 126.495 153.883H149.277C150.061 153.884 150.832 153.684 151.517 153.302C152.202 152.921 152.779 152.37 153.191 151.703C153.604 151.036 153.839 150.275 153.874 149.492C153.91 148.708 153.744 147.929 153.394 147.227V147.227ZM135.587 130.883C135.587 130.273 135.829 129.688 136.261 129.257C136.692 128.826 137.277 128.583 137.887 128.583C138.497 128.583 139.082 128.826 139.514 129.257C139.945 129.688 140.187 130.273 140.187 130.883V140.083C140.187 140.693 139.945 141.279 139.514 141.71C139.082 142.141 138.497 142.383 137.887 142.383C137.277 142.383 136.692 142.141 136.261 141.71C135.829 141.279 135.587 140.693 135.587 140.083V130.883ZM137.887 149.858C137.319 149.858 136.763 149.69 136.29 149.374C135.817 149.058 135.449 148.609 135.231 148.084C135.013 147.558 134.956 146.98 135.067 146.423C135.178 145.865 135.452 145.353 135.854 144.951C136.256 144.548 136.769 144.275 137.326 144.164C137.884 144.053 138.462 144.11 138.987 144.327C139.513 144.545 139.962 144.913 140.278 145.386C140.594 145.859 140.762 146.415 140.762 146.983C140.762 147.746 140.459 148.477 139.92 149.016C139.381 149.556 138.65 149.858 137.887 149.858V149.858Z" fill="white"/>
</g>
<defs>
<radialGradient id="paint0_radial_382_695" cx="0" cy="0" r="1" gradientUnits="userSpaceOnUse" gradientTransform="translate(179.4 4.6) rotate(-45) scale(247.205)">
<stop stop-color="#B833E1"/>
<stop offset="0.371" stop-color="#9059FF"/>
<stop offset="0.614" stop-color="#5B6DF8"/>
<stop offset="1" stop-color="#0090ED"/>
</radialGradient>
<clipPath id="clip0_382_695">
<rect width="184" height="184" fill="white"/>
</clipPath>
</defs>
</svg>
