<svg width="24" height="24" viewBox="0 0 24 24" fill="none" xmlns="http://www.w3.org/2000/svg">
<path fill-rule="evenodd" clip-rule="evenodd" d="M6.34578 6.34579C7.84555 4.84601 9.879 4.00239 12 4.00001C13.3503 3.99796 14.679 4.33821 15.8621 4.98899C17.0452 5.63977 18.044 6.57982 18.7652 7.72133C19.4864 8.86284 19.9065 10.1685 19.9862 11.5164C20.0659 12.8643 19.8027 14.2105 19.221 15.429C19.1647 15.5477 19.0855 15.654 18.9881 15.7421C18.8906 15.8302 18.7768 15.8982 18.653 15.9422C18.5293 15.9863 18.3981 16.0055 18.2669 15.9989C18.1357 15.9923 18.0072 15.9598 17.8885 15.9035C17.7699 15.8472 17.6635 15.768 17.5754 15.6706C17.4873 15.5731 17.4193 15.4593 17.3753 15.3355C17.3312 15.2118 17.312 15.0806 17.3186 14.9494C17.3252 14.8182 17.3577 14.6897 17.414 14.571C17.8025 13.7578 18.0027 12.8675 18 11.9663C17.9972 11.0651 17.7914 10.1761 17.3979 9.36528C17.0045 8.55448 16.4334 7.84274 15.7272 7.2829C15.0209 6.72306 14.1976 6.32951 13.3184 6.13147C12.4393 5.93343 11.5267 5.93599 10.6487 6.13897C9.7706 6.34194 8.94953 6.74011 8.24644 7.30391C7.54335 7.8677 6.9763 8.58264 6.58739 9.39564C6.19849 10.2086 5.99772 11.0988 6 12C5.99862 12.8893 6.19682 13.7675 6.58 14.57C6.64791 14.6894 6.6905 14.8215 6.70511 14.958C6.71973 15.0946 6.70606 15.2327 6.66495 15.3637C6.62385 15.4948 6.55619 15.616 6.4662 15.7197C6.37621 15.8234 6.26581 15.9075 6.14189 15.9668C6.01797 16.026 5.88318 16.059 5.74593 16.0638C5.60867 16.0687 5.4719 16.0452 5.34412 15.9948C5.21635 15.9444 5.10032 15.8683 5.00326 15.7711C4.90621 15.674 4.83021 15.5578 4.78 15.43C4.26608 14.3596 3.9995 13.1874 4 12C4.00238 9.87901 4.846 7.84556 6.34578 6.34579ZM15.3923 10.0117C15.5217 9.98299 15.6572 10.0068 15.769 10.078C15.8802 10.1497 15.9585 10.2626 15.9866 10.392C16.0147 10.5213 15.9904 10.6565 15.919 10.768L13.456 14.639C13.772 14.9647 13.9648 15.3902 14.0013 15.8426C14.0378 16.2949 13.9157 16.7458 13.656 17.118C13.5121 17.3308 13.3288 17.5141 13.116 17.658C12.8348 17.8482 12.5099 17.9636 12.1717 17.9935C11.8336 18.0234 11.4934 17.9668 11.1832 17.8289C10.873 17.691 10.603 17.4765 10.3986 17.2054C10.1943 16.9344 10.0622 16.6158 10.015 16.2796C9.96777 15.9435 10.0069 15.6008 10.1286 15.284C10.2504 14.9671 10.4508 14.6864 10.711 14.4684C10.9711 14.2504 11.2825 14.1021 11.6158 14.0377C11.9491 13.9732 12.2933 13.9947 12.616 14.1L15.079 10.231C15.1503 10.1192 15.263 10.0404 15.3923 10.0117Z" fill="#d5d3e0"/>
</svg>