<svg width="24" height="24" viewBox="0 0 24 24" fill="none" xmlns="http://www.w3.org/2000/svg">
<path d="M9.98771 17.9922C9.72252 17.9921 9.4682 17.8867 9.28071 17.6992L6.28071 14.6992C6.09855 14.5106 5.99776 14.258 6.00004 13.9958C6.00232 13.7336 6.10749 13.4828 6.29289 13.2974C6.4783 13.112 6.72911 13.0068 6.99131 13.0045C7.25351 13.0022 7.50611 13.103 7.69471 13.2852L9.85171 15.4422L16.1677 6.4192C16.3208 6.20464 16.5524 6.0592 16.8121 6.01449C17.0719 5.96979 17.3388 6.02944 17.5548 6.18047C17.7708 6.3315 17.9184 6.5617 17.9656 6.82101C18.0128 7.08032 17.9557 7.34777 17.8067 7.5652L10.8067 17.5652C10.7234 17.6856 10.6147 17.7863 10.4882 17.8601C10.3617 17.9339 10.2205 17.979 10.0747 17.9922C10.0457 17.9937 10.0167 17.9937 9.98771 17.9922Z" fill="#1CC4A0"/>
</svg>
