<svg width="24" height="24" viewBox="0 0 24 24" fill="none" xmlns="http://www.w3.org/2000/svg">
<path d="M10.854 14.854L12.854 12.854C12.9004 12.8075 12.9372 12.7523 12.9622 12.6915C12.9873 12.6308 13.0001 12.5657 13 12.5V8.5C13 8.3674 12.9473 8.24022 12.8536 8.14645C12.7598 8.05268 12.6326 8 12.5 8C12.3674 8 12.2402 8.05268 12.1464 8.14645C12.0527 8.24022 12 8.3674 12 8.5V12.293L10.146 14.146C10.0982 14.1921 10.0602 14.2473 10.0339 14.3083C10.0077 14.3693 9.99395 14.4349 9.99337 14.5013C9.9928 14.5677 10.0054 14.6335 10.0306 14.695C10.0557 14.7564 10.0929 14.8123 10.1398 14.8592C10.1867 14.9061 10.2426 14.9433 10.304 14.9684C10.3655 14.9936 10.4313 15.0062 10.4977 15.0056C10.5641 15.0051 10.6297 14.9913 10.6907 14.9651C10.7517 14.9389 10.8069 14.9008 10.853 14.853L10.854 14.854ZM12 4C10.5655 4.00678 9.1591 4.39862 7.92775 5.13461C6.69641 5.87061 5.68529 6.92374 5 8.184V5.5C5 5.3674 4.94732 5.24022 4.85355 5.14645C4.75979 5.05268 4.63261 5 4.5 5C4.36739 5 4.24021 5.05268 4.14645 5.14645C4.05268 5.24022 4 5.3674 4 5.5V10.5C4 10.6326 4.05268 10.7598 4.14645 10.8536C4.24021 10.9473 4.36739 11 4.5 11H9.5C9.63261 11 9.75979 10.9473 9.85355 10.8536C9.94732 10.7598 10 10.6326 10 10.5C10 10.3674 9.94732 10.2402 9.85355 10.1465C9.75979 10.0527 9.63261 10 9.5 10H6.344C6.36419 9.97271 6.38289 9.94433 6.4 9.915C6.89056 8.59633 7.82894 7.49199 9.05112 6.79499C10.2733 6.09799 11.7016 5.85266 13.0863 6.10188C14.471 6.35111 15.7241 7.07903 16.6266 8.15842C17.529 9.23782 18.0235 10.6 18.0235 12.007C18.0235 13.414 17.529 14.7762 16.6266 15.8556C15.7241 16.935 14.471 17.6629 13.0863 17.9121C11.7016 18.1613 10.2733 17.916 9.05112 17.219C7.82894 16.522 6.89056 15.4177 6.4 14.099C6.30319 13.8561 6.1151 13.6608 5.87602 13.5549C5.63695 13.449 5.36591 13.441 5.12099 13.5325C4.87606 13.6241 4.67673 13.8079 4.5657 14.0446C4.45468 14.2814 4.44078 14.5522 4.527 14.799C5.03963 16.1648 5.91637 17.3642 7.06216 18.2672C8.20795 19.1702 9.57906 19.7423 11.0269 19.9215C12.4747 20.1007 13.9439 19.8801 15.2752 19.2837C16.6066 18.6873 17.7493 17.7378 18.5794 16.5382C19.4096 15.3386 19.8955 13.9346 19.9845 12.4785C20.0735 11.0224 19.7622 9.56968 19.0843 8.27789C18.4065 6.98611 17.3879 5.90453 16.1391 5.15043C14.8903 4.39633 13.4588 3.99847 12 4Z" fill="#6D6D6E"/>
</svg>
