<svg width="16" height="16" viewBox="0 0 16 16" fill="none" xmlns="http://www.w3.org/2000/svg">
<path d="M9.22253 7.98947L13.7594 3.45261C13.9155 3.29095 14.0019 3.07443 14 2.84969C13.998 2.62495 13.9079 2.40997 13.7489 2.25105C13.59 2.09213 13.375 2.00199 13.1503 2.00003C12.9256 1.99808 12.709 2.08447 12.5474 2.24061L8.01053 6.77747L3.47368 2.24061C3.31202 2.08447 3.0955 1.99808 2.87076 2.00003C2.64602 2.00199 2.43104 2.09213 2.27212 2.25105C2.1132 2.40997 2.02305 2.62495 2.0211 2.84969C2.01914 3.07443 2.10554 3.29095 2.26168 3.45261L6.79853 7.98947L2.26168 12.5263C2.17981 12.6054 2.11451 12.7 2.06959 12.8045C2.02467 12.9091 2.00102 13.0216 2.00003 13.1354C1.99904 13.2492 2.02073 13.3621 2.06383 13.4674C2.10693 13.5728 2.17057 13.6685 2.25105 13.7489C2.33153 13.8294 2.42723 13.8931 2.53257 13.9362C2.63791 13.9793 2.75078 14.001 2.86459 14C2.9784 13.999 3.09088 13.9753 3.19545 13.9304C3.30003 13.8855 3.39461 13.8202 3.47368 13.7383L8.01053 9.20147L12.5474 13.7383C12.709 13.8945 12.9256 13.9809 13.1503 13.9789C13.375 13.9769 13.59 13.8868 13.7489 13.7279C13.9079 13.569 13.998 13.354 14 13.1292C14.0019 12.9045 13.9155 12.688 13.7594 12.5263L9.22253 7.98947Z" fill-opacity=".8" fill="white"/>
</svg>
