<svg width="24" height="24" viewBox="0 0 24 24" fill="none" xmlns="http://www.w3.org/2000/svg">
<path d="M18.707 12.293L15.707 9.293C15.5195 9.10545 15.2652 9.00006 15 9H14V8C13.9999 7.73481 13.8945 7.48049 13.707 7.293L10.707 4.293C10.5195 4.10545 10.2652 4.00006 10 4H7C6.46957 4 5.96086 4.21071 5.58579 4.58579C5.21071 4.96086 5 5.46957 5 6V13C5 13.5304 5.21071 14.0391 5.58579 14.4142C5.96086 14.7893 6.46957 15 7 15H10V18C10 18.5304 10.2107 19.0391 10.5858 19.4142C10.9609 19.7893 11.4696 20 12 20H17C17.5304 20 18.0391 19.7893 18.4142 19.4142C18.7893 19.0391 19 18.5304 19 18V13C18.9999 12.7348 18.8945 12.4805 18.707 12.293ZM16.586 13H15V11.414L16.586 13ZM11.586 8H10V6.414L11.586 8ZM10 11V13H7V6H9V8.5C9 8.63261 9.05268 8.75979 9.14645 8.85355C9.24021 8.94732 9.36739 9 9.5 9H12C11.4696 9 10.9609 9.21071 10.5858 9.58579C10.2107 9.96086 10 10.4696 10 11ZM12 18V11H14V13.5C14 13.6326 14.0527 13.7598 14.1464 13.8536C14.2402 13.9473 14.3674 14 14.5 14H17V18H12Z" fill="white" fill-opacity="0.8"/>
</svg>
