<svg width="80" height="80" viewBox="0 0 80 80" fill="none" xmlns="http://www.w3.org/2000/svg">
<path fill-rule="evenodd" clip-rule="evenodd" d="M17.8333 16.3333C16.0917 16.3333 14.6667 17.7583 14.6667 19.5V51.1667H38.1895C38.0645 52.0933 38 53.0391 38 54C38 56.3304 38.3796 58.5721 39.0803 60.6667H6.75C4.12167 60.6667 2 58.545 2 55.9167C2 53.2883 4.12167 51.1667 6.75 51.1667H8.33333V16.3333C8.33333 12.85 11.1833 10 14.6667 10H68.5C70.2417 10 71.6667 11.425 71.6667 13.1667C71.6667 14.9083 70.2417 16.3333 68.5 16.3333H17.8333ZM78 45.0441V25.8333C78 24.0917 76.575 22.6667 74.8333 22.6667H55.8333C54.0917 22.6667 52.6667 24.0917 52.6667 25.8333V33.9719C54.6651 33.3405 56.7928 33 59 33V29H71.6667V37.2487C74.3585 39.2874 76.5437 41.9599 78 45.0441Z" fill="url(#paint0_radial)"/>
<rect x="43" y="38" width="32" height="32" rx="16" fill="#FF4F5E"/>
<path d="M65.7418 57.106L60.7888 47.2C60.6227 46.8677 60.3674 46.5882 60.0514 46.3929C59.7354 46.1976 59.3712 46.0941 58.9998 46.0941C58.6283 46.0941 58.2642 46.1976 57.9482 46.3929C57.6322 46.5882 57.3768 46.8677 57.2108 47.2L52.2578 57.11C52.1063 57.4147 52.0352 57.7531 52.051 58.0931C52.0668 58.433 52.1692 58.7633 52.3483 59.0527C52.5274 59.342 52.7774 59.5809 53.0746 59.7467C53.3718 59.9124 53.7064 59.9996 54.0468 60H63.9518C64.2927 60.0001 64.6281 59.9131 64.9259 59.7472C65.2238 59.5813 65.4743 59.342 65.6536 59.052C65.833 58.7621 65.9352 58.4311 65.9507 58.0905C65.9661 57.7499 65.8942 57.411 65.7418 57.106ZM57.9998 50C57.9998 49.7348 58.1051 49.4804 58.2927 49.2929C58.4802 49.1053 58.7346 49 58.9998 49C59.265 49 59.5193 49.1053 59.7069 49.2929C59.8944 49.4804 59.9998 49.7348 59.9998 50V54C59.9998 54.2652 59.8944 54.5196 59.7069 54.7071C59.5193 54.8946 59.265 55 58.9998 55C58.7346 55 58.4802 54.8946 58.2927 54.7071C58.1051 54.5196 57.9998 54.2652 57.9998 54V50ZM58.9998 58.25C58.7525 58.25 58.5109 58.1767 58.3053 58.0393C58.0997 57.902 57.9395 57.7067 57.8449 57.4783C57.7503 57.2499 57.7256 56.9986 57.7738 56.7561C57.822 56.5136 57.9411 56.2909 58.1159 56.1161C58.2907 55.9413 58.5134 55.8222 58.7559 55.774C58.9984 55.7258 59.2497 55.7505 59.4781 55.8451C59.7065 55.9397 59.9018 56.1 60.0391 56.3055C60.1765 56.5111 60.2498 56.7528 60.2498 57C60.2498 57.3315 60.1181 57.6494 59.8837 57.8839C59.6492 58.1183 59.3313 58.25 58.9998 58.25Z" fill="white"/>
<defs>
<radialGradient id="paint0_radial" cx="0" cy="0" r="1" gradientUnits="userSpaceOnUse" gradientTransform="translate(78 10) rotate(-33.6901) scale(91.3406 84.3144)">
<stop stop-color="#B833E1"/>
<stop offset="0.371" stop-color="#9059FF"/>
<stop offset="0.614" stop-color="#5B6DF8"/>
<stop offset="1" stop-color="#0090ED"/>
</radialGradient>
</defs>
</svg>
