<svg width="24" height="24" viewBox="0 0 24 24" fill="none" xmlns="http://www.w3.org/2000/svg">
<path d="M11.293 16.707C11.4805 16.8945 11.7348 16.9998 12 16.9998C12.2652 16.9998 12.5195 16.8945 12.707 16.707L17.707 11.707C17.8892 11.5184 17.99 11.2658 17.9877 11.0036C17.9854 10.7414 17.8802 10.4906 17.6948 10.3052C17.5094 10.1198 17.2586 10.0146 16.9964 10.0123C16.7342 10.01 16.4816 10.1108 16.293 10.293L13 13.586V5C13 4.73478 12.8946 4.48043 12.7071 4.29289C12.5196 4.10536 12.2652 4 12 4C11.7348 4 11.4804 4.10536 11.2929 4.29289C11.1054 4.48043 11 4.73478 11 5V13.586L7.707 10.293C7.5184 10.1108 7.2658 10.01 7.0036 10.0123C6.7414 10.0146 6.49059 10.1198 6.30518 10.3052C6.11977 10.4906 6.0146 10.7414 6.01233 11.0036C6.01005 11.2658 6.11084 11.5184 6.293 11.707L11.293 16.707ZM17 18H7C6.73478 18 6.48043 18.1054 6.29289 18.2929C6.10536 18.4804 6 18.7348 6 19C6 19.2652 6.10536 19.5196 6.29289 19.7071C6.48043 19.8946 6.73478 20 7 20H17C17.2652 20 17.5196 19.8946 17.7071 19.7071C17.8946 19.5196 18 19.2652 18 19C18 18.7348 17.8946 18.4804 17.7071 18.2929C17.5196 18.1054 17.2652 18 17 18Z" fill="#FF298A"/>
</svg>
