<svg width="24" height="24" viewBox="0 0 24 24" fill="none" xmlns="http://www.w3.org/2000/svg">
<path d="M12 6.5C15.629 6.5 19.011 8.816 20.5 12.291V12.71C19.011 16.184 15.629 18.5 12 18.5C8.371 18.5 4.989 16.184 3.5 12.709V12.29C4.989 8.816 8.371 6.5 12 6.5ZM12 5C7.634 5 3.656 7.805 2 11.994V13.006C3.656 17.195 7.634 20 12 20C16.366 20 20.344 17.195 22 13.006V11.994C20.344 7.805 16.366 5 12 5Z" fill="#3D3D3D"/>
<path d="M12 10.5C13.103 10.5 14 11.397 14 12.5C14 13.603 13.103 14.5 12 14.5C10.897 14.5 10 13.603 10 12.5C10 11.397 10.897 10.5 12 10.5ZM12 9C10.07 9 8.5 10.57 8.5 12.5C8.5 14.43 10.07 16 12 16C13.93 16 15.5 14.43 15.5 12.5C15.5 10.57 13.93 9 12 9Z" fill="#3D3D3D"/>
</svg>
