<svg width="24" height="24" viewBox="0 0 24 24" fill="none" xmlns="http://www.w3.org/2000/svg">
<path d="M5.28 3.22C4.987 2.927 4.512 2.927 4.219 3.22C3.926 3.513 3.926 3.988 4.219 4.281L6.527 6.589C4.533 7.818 2.911 9.69 2 11.994V13.006C3.656 17.195 7.634 20 12 20C14.182 20 16.259 19.289 18.005 18.066L20.72 20.781C20.866 20.927 21.058 21.001 21.25 21.001C21.442 21.001 21.634 20.928 21.78 20.781C22.073 20.488 22.073 20.013 21.78 19.72L5.28 3.22ZM10.827 10.888L13.612 13.673C13.248 14.172 12.663 14.5 12 14.5C10.897 14.5 10 13.603 10 12.5C10 11.836 10.328 11.252 10.827 10.888ZM12 18.5C8.371 18.5 4.989 16.184 3.5 12.709V12.29C4.354 10.295 5.841 8.701 7.633 7.693L9.765 9.825C8.996 10.466 8.5 11.422 8.5 12.5C8.5 14.43 10.07 16 12 16C13.078 16 14.034 15.504 14.674 14.735L16.924 16.985C15.466 17.947 13.764 18.5 12 18.5Z" fill="#3D3D3D"/>
<path d="M12 5C11.158 5 10.331 5.107 9.532 5.305L10.82 6.593C11.209 6.539 11.602 6.5 12 6.5C15.629 6.5 19.011 8.816 20.5 12.291V12.71C20.152 13.522 19.693 14.263 19.159 14.933L20.233 16.007C20.959 15.12 21.562 14.113 22 13.006V11.994C20.344 7.805 16.366 5 12 5Z" fill="#3D3D3D"/>
</svg>
