<?xml version="1.0" encoding="utf-8"?>
<svg version="1.1" id="Layer_1" xmlns="http://www.w3.org/2000/svg" xmlns:xlink="http://www.w3.org/1999/xlink" x="0px" y="0px"
	 viewBox="0 0 80 80" style="enable-background:new 0 0 80 80;" xml:space="preserve">
<style type="text/css">
	.st0{fill-rule:evenodd;clip-rule:evenodd;fill:#231F20;}
</style>
<path class="st0" d="M38.5,25.6H27.8c2.5-8.4,7.1-14.1,12.2-14.1c0.1,0,0.2,0,0.3,0c1.8-3.6,4.6-6.5,8-8.6C45.6,2.3,42.8,2,40,2
	c-7.5,0-14.9,2.2-21.1,6.4c-6.2,4.2-11.1,10.1-14,17.1S1.3,40,2.7,47.4c1.5,7.4,5.1,14.1,10.4,19.5c5.3,5.3,12.1,8.9,19.5,10.4
	c7.4,1.5,15,0.7,22-2.2s12.9-7.7,17.1-14C75.8,54.9,78,47.5,78,40c0-2.8-0.3-5.6-0.9-8.3c-2,3.4-5,6.2-8.6,8c0,0.1,0,0.2,0,0.3
	c0,3.2-0.5,6.3-1.6,9.3h-8.6c0.4-2.4,0.6-4.9,0.7-7.3c-1.6,0-3.2-0.2-4.7-0.5c-0.1,2.6-0.3,5.3-0.8,7.8H26.6
	c-1.1-6.2-1.1-12.4,0-18.6h13.8C39.5,29.1,38.9,27.4,38.5,25.6z M27.8,54.4c2.5,8.4,7.1,14.1,12.2,14.1c5.1,0,9.7-5.7,12.2-14.1
	H27.8z M13.1,30.7c-1,3-1.6,6.1-1.6,9.3c0,3.2,0.5,6.3,1.6,9.3h8.6c-1-6.2-1-12.4,0-18.6H13.1z M22.8,25.6c1-4,2.7-7.8,5-11.3
	c-5.2,2.4-9.5,6.4-12.4,11.3H22.8z M22.8,54.4h-7.4h0c2.9,4.9,7.2,8.8,12.4,11.3C25.5,62.3,23.9,58.5,22.8,54.4z M52.2,65.7
	c5.1-2.4,9.5-6.4,12.4-11.3h-7.4C56.2,58.5,54.5,62.3,52.2,65.7z"/>
</svg>
