<svg width="80" height="80" viewBox="0 0 80 80" fill="none" xmlns="http://www.w3.org/2000/svg">
<rect x="43" y="37.9819" width="32" height="31.9318" rx="15.9659" fill="#3FE1B0"/>
<path fill-rule="evenodd" clip-rule="evenodd" d="M21 4.99976C2 4.99976 2 21.2855 2 26.714C2 51.1426 40 75.5712 40 75.5712C40 75.5712 42.6491 73.8682 46.5483 70.9119C41.3634 67.088 38 60.9368 38 54C38 42.402 47.402 33 59 33C65.2137 33 70.7971 35.6987 74.642 39.988C76.725 35.6635 78 31.1888 78 26.714C78 21.2855 78 4.99976 59 4.99976C40.1406 4.99976 40.001 26.3938 40 26.7105C39.999 26.3938 39.8594 4.99976 21 4.99976Z" fill="url(#paint0_linear)"/>
<path d="M57.0004 60.063C56.7352 60.0629 56.4809 59.9575 56.2934 59.77L53.2934 56.77C53.1112 56.5814 53.0105 56.3288 53.0127 56.0666C53.015 55.8044 53.1202 55.5536 53.3056 55.3682C53.491 55.1828 53.7418 55.0776 54.004 55.0753C54.2662 55.073 54.5188 55.1738 54.7074 55.356L56.8644 57.513L63.1804 48.49C63.3335 48.2754 63.5651 48.13 63.8248 48.0853C64.0846 48.0406 64.3515 48.1002 64.5675 48.2513C64.7835 48.4023 64.9311 48.6325 64.9783 48.8918C65.0255 49.1511 64.9684 49.4186 64.8194 49.636L57.8194 59.636C57.7361 59.7564 57.6274 59.8571 57.5009 59.9309C57.3744 60.0047 57.2332 60.0498 57.0874 60.063C57.0584 60.0645 57.0294 60.0645 57.0004 60.063Z" fill="white"/>
<defs>
<linearGradient id="paint0_linear" x1="78" y1="33.231" x2="2" y2="33.231" gradientUnits="userSpaceOnUse">
<stop offset="0" stop-color="#9D62FC"/>
<stop offset="0.89" stop-color="#FD3296"/>
</linearGradient>
</defs>
</svg>
