<svg width="24" height="24" viewBox="0 0 24 24" fill="none" xmlns="http://www.w3.org/2000/svg">
<path d="M17.0312 10.8396H16.4583V8.57143C16.4583 7.35901 15.9754 6.19625 15.1159 5.33894C14.2564 4.48163 13.0906 4 11.875 4C10.6594 4 9.49364 4.48163 8.63409 5.33894C7.77455 6.19625 7.29167 7.35901 7.29167 8.57143V10.8396H6.71875C6.26291 10.8396 5.82574 11.0202 5.50341 11.3417C5.18108 11.6632 5 12.0992 5 12.5539V18.2857C5 18.7404 5.18108 19.1764 5.50341 19.4979C5.82574 19.8194 6.26291 20 6.71875 20H17.0312C17.4871 20 17.9243 19.8194 18.2466 19.4979C18.5689 19.1764 18.75 18.7404 18.75 18.2857V12.5539C18.75 12.0992 18.5689 11.6632 18.2466 11.3417C17.9243 11.0202 17.4871 10.8396 17.0312 10.8396ZM9.58333 8.57143C9.58333 7.96522 9.82478 7.38384 10.2545 6.95518C10.6843 6.52653 11.2672 6.28571 11.875 6.28571C12.4828 6.28571 13.0657 6.52653 13.4955 6.95518C13.9252 7.38384 14.1667 7.96522 14.1667 8.57143V10.8396H9.58333V8.57143Z" fill="white"/>
</svg>
