<svg width="24" height="24" viewBox="0 0 24 24" fill="none" xmlns="http://www.w3.org/2000/svg">
<path d="M15 6.00251H13.95C13.8352 5.43736 13.5286 4.92927 13.0821 4.56432C12.6356 4.19937 12.0767 4 11.5 4C10.9233 4 10.3644 4.19937 9.91787 4.56432C9.47136 4.92927 9.16476 5.43736 9.05 6.00251H8C7.46957 6.00251 6.96086 6.21322 6.58579 6.58829C6.21071 6.96337 6 7.47207 6 8.00251V18.0025C6 18.5329 6.21071 19.0416 6.58579 19.4167C6.96086 19.7918 7.46957 20.0025 8 20.0025H15C15.5304 20.0025 16.0391 19.7918 16.4142 19.4167C16.7893 19.0416 17 18.5329 17 18.0025V8.00251C17 7.47207 16.7893 6.96337 16.4142 6.58829C16.0391 6.21322 15.5304 6.00251 15 6.00251ZM15 13.0025C15 13.2677 14.8946 13.5221 14.7071 13.7096C14.5196 13.8971 14.2652 14.0025 14 14.0025H9C8.73478 14.0025 8.48043 13.8971 8.29289 13.7096C8.10536 13.5221 8 13.2677 8 13.0025V9.00251H15V13.0025ZM15 8.00251H8V7.00251H9.05C9.28053 7.00255 9.504 6.92295 9.68258 6.77717C9.86116 6.63139 9.98389 6.42838 10.03 6.20251C10.0993 5.86396 10.2834 5.55973 10.5512 5.34125C10.8189 5.12278 11.1539 5.00345 11.4995 5.00345C11.8451 5.00345 12.1801 5.12278 12.4478 5.34125C12.7156 5.55973 12.8997 5.86396 12.969 6.20251C13.0151 6.42838 13.1378 6.63139 13.3164 6.77717C13.495 6.92295 13.7185 7.00255 13.949 7.00251H15V8.00251ZM11.5 6.00251C11.4011 6.00251 11.3044 6.03183 11.2222 6.08677C11.14 6.14171 11.0759 6.2198 11.0381 6.31116C11.0002 6.40253 10.9903 6.50306 11.0096 6.60005C11.0289 6.69704 11.0765 6.78613 11.1464 6.85606C11.2164 6.92599 11.3055 6.97361 11.4025 6.9929C11.4994 7.01219 11.6 7.00229 11.6913 6.96445C11.7827 6.9266 11.8608 6.86252 11.9157 6.78029C11.9707 6.69807 12 6.6014 12 6.50251C12 6.3699 11.9473 6.24272 11.8536 6.14895C11.7598 6.05518 11.6326 6.00251 11.5 6.00251ZM9.5 11.0025H13.5C13.6326 11.0025 13.7598 10.9498 13.8536 10.8561C13.9473 10.7623 14 10.6351 14 10.5025C14 10.3699 13.9473 10.2427 13.8536 10.149C13.7598 10.0552 13.6326 10.0025 13.5 10.0025H9.5C9.36739 10.0025 9.24021 10.0552 9.14645 10.149C9.05268 10.2427 9 10.3699 9 10.5025C9 10.6351 9.05268 10.7623 9.14645 10.8561C9.24021 10.9498 9.36739 11.0025 9.5 11.0025ZM9.5 13.0025H11.5C11.6326 13.0025 11.7598 12.9498 11.8536 12.8561C11.9473 12.7623 12 12.6351 12 12.5025C12 12.3699 11.9473 12.2427 11.8536 12.149C11.7598 12.0552 11.6326 12.0025 11.5 12.0025H9.5C9.36739 12.0025 9.24021 12.0552 9.14645 12.149C9.05268 12.2427 9 12.3699 9 12.5025C9 12.6351 9.05268 12.7623 9.14645 12.8561C9.24021 12.9498 9.36739 13.0025 9.5 13.0025Z" fill="white"/>
</svg>
