<svg width="184" height="184" viewBox="0 0 184 184" fill="none" xmlns="http://www.w3.org/2000/svg">
<g clip-path="url(#clip0_382_791)">
<path fill-rule="evenodd" clip-rule="evenodd" d="M152.868 14.8689C155.025 12.7122 157.95 11.5006 161 11.5006C164.05 11.5006 166.975 12.7122 169.132 14.8689C171.288 17.0255 172.5 19.9506 172.5 23.0005V69.0002C172.5 72.0501 171.288 74.9752 169.132 77.1318C166.975 79.2885 164.05 80.5001 161 80.5001H158.292C151.023 76.1198 142.506 73.6 133.4 73.6C125.023 73.6 117.143 75.7328 110.276 79.4849C109.019 78.9186 107.862 78.1255 106.868 77.1318C104.712 74.9752 103.5 72.0501 103.5 69.0002C103.5 65.9502 104.712 63.0252 106.868 60.8685C109.025 58.7119 111.95 57.5003 115 57.5003H137.62C132.354 50.3565 125.48 44.5523 117.555 40.5567C109.63 36.5612 100.875 34.4865 92 34.5004C79.1971 34.5141 66.7676 38.8148 56.694 46.7164C46.6204 54.6181 39.4831 65.6655 36.4205 78.0966C36.084 79.5918 35.4521 81.0047 34.5618 82.2522C33.6715 83.4997 32.5409 84.5567 31.2363 85.361C29.9317 86.1653 28.4795 86.7007 26.965 86.9358C25.4505 87.1709 23.9043 87.1008 22.4173 86.7299C20.9303 86.3589 19.5324 85.6944 18.3058 84.7755C17.0793 83.8565 16.0488 82.7017 15.2749 81.3789C14.501 80.056 13.9993 78.5918 13.7993 77.0723C13.5994 75.5528 13.7052 74.0087 14.1105 72.5307C17.4962 58.6007 24.5672 45.8382 34.5823 35.5812C44.5973 25.3242 57.1874 17.9505 71.0326 14.2331C84.8778 10.5158 99.4681 10.5917 113.274 14.453C127.08 18.3143 139.592 25.8187 149.5 36.1794V23.0005C149.5 19.9506 150.712 17.0255 152.868 14.8689ZM93.7374 149.471C93.1591 149.49 92.58 149.499 92 149.5C83.1246 149.513 74.3705 147.439 66.4453 143.443C58.5201 139.448 51.6463 133.643 46.3795 126.5H69C72.05 126.5 74.9751 125.288 77.1317 123.131C79.2884 120.975 80.5 118.05 80.5 115C80.5 111.95 79.2884 109.025 77.1317 106.868C74.9751 104.712 72.05 103.5 69 103.5H23C19.95 103.5 17.0249 104.712 14.8683 106.868C12.7116 109.025 11.5 111.95 11.5 115V160.999C11.5 164.049 12.7116 166.974 14.8683 169.131C17.0249 171.288 19.95 172.499 23 172.499C26.05 172.499 28.9751 171.288 31.1317 169.131C33.2884 166.974 34.5 164.049 34.5 160.999V147.821C44.4077 158.181 56.9203 165.686 70.7261 169.547C84.5319 173.408 99.1222 173.484 112.967 169.767C114.941 169.237 116.889 168.633 118.808 167.957C108.543 164.707 99.7615 158.121 93.7374 149.471Z" fill="url(#paint0_radial_382_791)"/>
<rect x="96.6" y="85.1" width="73.6" height="73.4431" rx="36.7216" fill="#00A49A"/>
<path d="M128.772 135.682C128.162 135.682 127.577 135.44 127.146 135.008L120.246 128.108C119.827 127.674 119.595 127.093 119.6 126.49C119.605 125.887 119.847 125.31 120.274 124.884C120.7 124.458 121.277 124.216 121.88 124.21C122.483 124.205 123.064 124.437 123.498 124.856L128.459 129.817L142.986 109.064C143.338 108.571 143.87 108.236 144.468 108.133C145.065 108.031 145.679 108.168 146.176 108.515C146.673 108.862 147.012 109.392 147.121 109.988C147.229 110.585 147.098 111.2 146.755 111.7L130.655 134.7C130.464 134.977 130.214 135.208 129.923 135.378C129.632 135.548 129.307 135.652 128.972 135.682C128.905 135.685 128.838 135.685 128.772 135.682V135.682Z" fill="white"/>
</g>
<defs>
<radialGradient id="paint0_radial_382_791" cx="0" cy="0" r="1" gradientUnits="userSpaceOnUse" gradientTransform="translate(172.5 11.5) rotate(135) scale(227.688)">
<stop stop-color="#9D62FC"/>
<stop offset="1" stop-color="#FD3296"/>
</radialGradient>
<clipPath id="clip0_382_791">
<rect width="184" height="184" fill="white"/>
</clipPath>
</defs>
</svg>
