<svg width="25" height="24" viewBox="0 0 25 24" fill="none" xmlns="http://www.w3.org/2000/svg">
<path d="M18.5 5.00005C18.2348 5.00005 17.9804 5.10541 17.7929 5.29295C17.6054 5.48048 17.5 5.73484 17.5 6.00005V7.14605C16.6385 6.24511 15.5504 5.59255 14.3499 5.25679C13.1494 4.92102 11.8807 4.91441 10.6767 5.23767C9.47282 5.56092 8.37803 6.20211 7.50715 7.09404C6.63628 7.98596 6.02141 9.09575 5.727 10.3071C5.69175 10.4356 5.68256 10.5699 5.69994 10.702C5.71733 10.8341 5.76095 10.9614 5.82825 11.0765C5.89554 11.1915 5.98515 11.2919 6.09181 11.3718C6.19847 11.4517 6.32002 11.5095 6.44933 11.5418C6.57864 11.574 6.71309 11.5801 6.84478 11.5597C6.97648 11.5392 7.10275 11.4927 7.2162 11.4227C7.32964 11.3528 7.42796 11.2609 7.50537 11.1524C7.58279 11.0439 7.63774 10.9211 7.667 10.7911C7.93331 9.71008 8.55395 8.74943 9.42991 8.06232C10.3059 7.37522 11.3867 7.00125 12.5 7.00005C13.2718 6.99885 14.033 7.17925 14.7221 7.52669C15.4113 7.87413 16.009 8.37885 16.467 9.00005H14.5C14.2348 9.00005 13.9804 9.10541 13.7929 9.29295C13.6054 9.48048 13.5 9.73484 13.5 10.0001C13.5 10.2653 13.6054 10.5196 13.7929 10.7072C13.9804 10.8947 14.2348 11.0001 14.5 11.0001H18.5C18.7652 11.0001 19.0196 10.8947 19.2071 10.7072C19.3946 10.5196 19.5 10.2653 19.5 10.0001V6.00005C19.5 5.73484 19.3946 5.48048 19.2071 5.29295C19.0196 5.10541 18.7652 5.00005 18.5 5.00005ZM18.546 12.4811C18.4186 12.4492 18.2861 12.4427 18.1561 12.462C18.0262 12.4814 17.9013 12.5261 17.7887 12.5937C17.676 12.6613 17.5778 12.7505 17.4996 12.856C17.4214 12.9616 17.3648 13.0816 17.333 13.2091C17.0667 14.29 16.446 15.2507 15.5701 15.9378C14.6941 16.6249 13.6133 16.9989 12.5 17.0001C11.7282 17.0013 10.967 16.8209 10.2779 16.4734C9.5887 16.126 8.99098 15.6213 8.533 15.0001H10.5C10.7652 15.0001 11.0196 14.8947 11.2071 14.7072C11.3946 14.5196 11.5 14.2653 11.5 14.0001C11.5 13.7348 11.3946 13.4805 11.2071 13.2929C11.0196 13.1054 10.7652 13.0001 10.5 13.0001H6.5C6.23478 13.0001 5.98043 13.1054 5.79289 13.2929C5.60536 13.4805 5.5 13.7348 5.5 14.0001V18.0001C5.5 18.2653 5.60536 18.5196 5.79289 18.7072C5.98043 18.8947 6.23478 19.0001 6.5 19.0001C6.76522 19.0001 7.01957 18.8947 7.20711 18.7072C7.39464 18.5196 7.5 18.2653 7.5 18.0001V16.8541C8.36154 17.755 9.4496 18.4076 10.6501 18.7433C11.8506 19.0791 13.1193 19.0857 14.3233 18.7624C15.5272 18.4392 16.622 17.798 17.4928 16.9061C18.3637 16.0142 18.9786 14.9044 19.273 13.6931C19.3371 13.4359 19.2966 13.1639 19.1603 12.9366C19.024 12.7094 18.803 12.5455 18.546 12.4811Z" fill="white"/>
</svg>
