<svg width="80" height="80" viewBox="0 0 80 80" fill="none" xmlns="http://www.w3.org/2000/svg">
<rect x="43" y="5" width="32" height="32" rx="16" fill="#FF4F5E"/>
<path fill-rule="evenodd" clip-rule="evenodd" d="M38.4944 25.5505H27.8068C30.3243 17.2 34.8938 11.5 40 11.5C40.0882 11.5 40.1762 11.5017 40.264 11.5051C42.0749 7.93887 44.874 4.95904 48.3009 2.92608C45.5972 2.31825 42.8148 2.00316 40 2C32.4843 2 25.1374 4.22866 18.8883 8.40415C12.6393 12.5796 7.76872 18.5144 4.89259 25.458C2.01646 32.4016 1.26394 40.0421 2.73018 47.4134C4.19641 54.7847 7.81556 61.5557 13.13 66.87C18.4444 72.1844 25.2153 75.8036 32.5866 77.2698C39.9579 78.7361 47.5984 77.9835 54.542 75.1074C61.4856 72.2313 67.4204 67.3607 71.5958 61.1117C75.7713 54.8626 78 47.5157 78 40C77.9968 37.1852 77.6818 34.4028 77.0739 31.6991C75.0416 35.1249 72.063 37.9234 68.4982 39.7343C68.4992 39.8228 68.4998 39.9114 68.5 40C68.4933 43.1673 67.9555 46.3111 66.9088 49.3005H58.259C58.6472 46.8835 58.8834 44.4452 58.9663 42C57.3373 41.9974 55.7518 41.8094 54.2298 41.4559C54.157 44.0865 53.8876 46.7087 53.4235 49.3005H26.5765C25.4725 43.1493 25.4725 36.8507 26.5765 30.6995H40.3694C39.5317 29.0938 38.8955 27.3663 38.4944 25.5505ZM27.8068 54.4495C30.3243 62.8 34.8938 68.5 40 68.5C45.1063 68.5 49.6758 62.8 52.198 54.4495H27.8068ZM13.0913 30.6995C12.0446 33.6889 11.5067 36.8327 11.5 40C11.5067 43.1673 12.0446 46.3111 13.0913 49.3005H21.741C20.7526 43.1395 20.7526 36.8604 21.741 30.6995H13.0913ZM22.8478 25.5505C23.8606 21.5329 25.5487 17.7166 27.84 14.2645C22.6866 16.7113 18.3813 20.6411 15.4758 25.5505H22.8478ZM22.8478 54.4495H15.49H15.4758C18.3813 59.3588 22.6866 63.2887 27.84 65.7355C25.5487 62.2834 23.8606 58.4671 22.8478 54.4495ZM52.1808 65.7256C57.3302 63.2805 61.6331 59.3544 64.5385 54.4495H57.1665C56.1547 58.4633 54.4688 62.2761 52.1808 65.7256Z" fill="url(#paint0_radial_551_290)"/>
<path fill-rule="evenodd" clip-rule="evenodd" d="M65.7193 14.308C65.3288 13.9176 64.6958 13.9176 64.3053 14.308L63.7683 14.845C63.6756 14.8116 63.5803 14.7859 63.4833 14.768L59.0123 14L54.5393 14.768C53.6547 14.9228 53.0101 15.692 53.0123 16.59C53.0123 17.615 53.0123 19.457 53.0923 20.296C53.1544 21.7388 53.5222 23.152 54.1713 24.442L52.3053 26.308C52.0454 26.5591 51.9411 26.9309 52.0326 27.2805C52.1241 27.6301 52.3972 27.9032 52.7468 27.9947C53.0964 28.0862 53.4682 27.982 53.7193 27.722L65.7193 15.722C66.1097 15.3315 66.1097 14.6985 65.7193 14.308ZM61.5253 24.397C60.9108 25.2199 60.0173 25.7905 59.0123 26.002C58.5114 25.8955 58.0338 25.6997 57.6023 25.424L56.1663 26.861C56.9717 27.4584 57.9097 27.8523 58.9003 28.009L59.0123 28.021L59.1243 28.009C60.7261 27.7519 62.165 26.8815 63.1363 25.582C64.2659 24.0472 64.8945 22.2012 64.9363 20.296C64.9793 19.778 64.9993 18.875 65.0123 18.015L63.0123 20.015C62.986 21.595 62.466 23.1273 61.5253 24.397ZM54.9991 18.3494C54.9892 19.1166 54.9819 19.6802 55.0123 20.015C55.0713 21.0218 55.2901 22.0129 55.6603 22.951L62.0603 16.551L59.0123 16.028L55.0123 16.715C55.0123 17.3325 55.0052 17.8792 54.9991 18.3494Z" fill="white"/>
<defs>
<radialGradient id="paint0_radial_551_290" cx="0" cy="0" r="1" gradientUnits="userSpaceOnUse" gradientTransform="translate(78 2) rotate(135) scale(107.48)">
<stop stop-color="#9D62FC"/>
<stop offset="1" stop-color="#FD3296"/>
</radialGradient>
</defs>
</svg>
