<svg width="24" height="24" viewBox="0 0 24 24" fill="none" xmlns="http://www.w3.org/2000/svg">
<path fill-rule="evenodd" clip-rule="evenodd" d="M12 19C15.866 19 19 15.866 19 12C19 8.13401 15.866 5 12 5C8.13401 5 5 8.13401 5 12C5 15.866 8.13401 19 12 19ZM12 21C16.9706 21 21 16.9706 21 12C21 7.02944 16.9706 3 12 3C7.02944 3 3 7.02944 3 12C3 16.9706 7.02944 21 12 21Z" fill="white"/>
<path d="M8.07957 13.907L8.07958 13.907C7.93062 13.7529 7.84817 13.5465 7.85003 13.3322C7.85189 13.1179 7.93792 12.913 8.08954 12.7615M8.07957 13.907L8.08954 12.7615M8.07957 13.907L8.08141 13.9088M8.07957 13.907L8.08141 13.9088M8.08954 12.7615C8.24116 12.6101 8.44623 12.5242 8.66058 12.5223C8.87493 12.5204 9.08146 12.6028 9.23568 12.7516M8.08954 12.7615L9.23568 12.7516M8.08141 13.9088L10.0844 15.9099C10.0844 15.9099 10.0845 15.9099 10.0845 15.9099C10.2369 16.0623 10.4433 16.1482 10.6587 16.1493C10.6819 16.1503 10.705 16.1502 10.7282 16.1491L10.7282 16.1492L10.7342 16.1487C10.8534 16.1378 10.9688 16.101 11.0722 16.0407C11.1755 15.9805 11.2643 15.8984 11.3324 15.8002C11.3325 15.8001 11.3326 15.7999 11.3327 15.7998L16.006 9.13013L16.0068 9.12888C16.1287 8.95123 16.1754 8.73268 16.1368 8.52077C16.0982 8.30886 15.9774 8.12078 15.8008 7.99741C15.6242 7.87404 15.406 7.82533 15.1936 7.86184C14.9813 7.89835 14.7919 8.01715 14.6667 8.19244L14.6659 8.19355L10.5514 14.066L9.23754 12.7534L9.23756 12.7534M8.08141 13.9088L9.23756 12.7534M9.23756 12.7534L9.23568 12.7516M9.23756 12.7534L9.23568 12.7516" fill="white" stroke="white" stroke-width="0.3"/>
</svg>
