<svg width="15" height="14" viewBox="0 0 15 14" fill="none" xmlns="http://www.w3.org/2000/svg">
<path d="M14.5007 11.0516L9.54768 1.14563C9.3816 0.81334 9.12626 0.533872 8.81028 0.338548C8.4943 0.143225 8.13016 0.0397644 7.75868 0.0397644C7.3872 0.0397644 7.02306 0.143225 6.70708 0.338548C6.39109 0.533872 6.13576 0.81334 5.96968 1.14563L1.01668 11.0556C0.865236 11.3604 0.794067 11.6988 0.809907 12.0387C0.825747 12.3787 0.928071 12.709 1.1072 12.9983C1.28632 13.2877 1.53632 13.5266 1.83354 13.6923C2.13076 13.8581 2.46536 13.9453 2.80568 13.9456H12.7107C13.0516 13.9458 13.387 13.8588 13.6848 13.6929C13.9827 13.527 14.2332 13.2877 14.4125 12.9977C14.5919 12.7077 14.6941 12.3767 14.7096 12.0361C14.725 11.6955 14.6531 11.3566 14.5007 11.0516V11.0516ZM6.75868 3.94563C6.75868 3.68041 6.86404 3.42606 7.05157 3.23852C7.23911 3.05099 7.49346 2.94563 7.75868 2.94563C8.0239 2.94563 8.27825 3.05099 8.46579 3.23852C8.65332 3.42606 8.75868 3.68041 8.75868 3.94563V7.94563C8.75868 8.21085 8.65332 8.4652 8.46579 8.65273C8.27825 8.84027 8.0239 8.94563 7.75868 8.94563C7.49346 8.94563 7.23911 8.84027 7.05157 8.65273C6.86404 8.4652 6.75868 8.21085 6.75868 7.94563V3.94563ZM7.75868 12.1956C7.51145 12.1956 7.26978 12.1223 7.06422 11.985C6.85865 11.8476 6.69844 11.6524 6.60383 11.424C6.50922 11.1956 6.48447 10.9442 6.5327 10.7018C6.58093 10.4593 6.69998 10.2366 6.8748 10.0617C7.04961 9.88693 7.27234 9.76788 7.51482 9.71965C7.75729 9.67141 8.00863 9.69617 8.23703 9.79078C8.46544 9.88539 8.66066 10.0456 8.79802 10.2512C8.93537 10.4567 9.00868 10.6984 9.00868 10.9456C9.00868 11.2771 8.87698 11.5951 8.64256 11.8295C8.40814 12.0639 8.0902 12.1956 7.75868 12.1956V12.1956Z" fill="#FF6A75"/>
</svg>
