<svg xmlns="http://www.w3.org/2000/svg" xmlns:xlink="http://www.w3.org/1999/xlink" viewBox="0 0 76 66.51"><defs><radialGradient id="a" cx="-264.66" cy="441.41" r="1" gradientTransform="matrix(-76, 66.51, 65.92, 75.33, -49133.13, -15642.93)" gradientUnits="userSpaceOnUse"><stop offset="0" stop-color="#e22850"/><stop offset="1" stop-color="#ffa436"/></radialGradient></defs><path d="M13.14,18.14A38,38,0,0,1,74.3,61.29a4.61,4.61,0,0,1-1.11,1.48,4.7,4.7,0,0,1-1.59,1,4.75,4.75,0,0,1-1.83.26,4.64,4.64,0,0,1-1.8-.45,4.76,4.76,0,0,1-1.49-1.11,4.68,4.68,0,0,1-1-1.59,4.7,4.7,0,0,1,.19-3.63A28.5,28.5,0,1,0,11.5,45a28.19,28.19,0,0,0,2.75,12.21,4.59,4.59,0,0,1,.6,1.84A4.86,4.86,0,0,1,14.66,61a4.79,4.79,0,0,1-.95,1.69,4.74,4.74,0,0,1-6.94.24A4.63,4.63,0,0,1,5.7,61.29,37.63,37.63,0,0,1,2,45,38.06,38.06,0,0,1,13.14,18.14Zm43,17.42a2.34,2.34,0,0,1,1.79.31,2.36,2.36,0,0,1,.71,3.28L46.92,57.53a9.29,9.29,0,0,1,.95,11.78,9.81,9.81,0,0,1-2.57,2.57,9.52,9.52,0,0,1-9.18.81,9.48,9.48,0,0,1-5.55-7.36A9.51,9.51,0,0,1,42.93,55L54.62,36.6A2.37,2.37,0,0,1,56.11,35.56Z" transform="translate(-2 -7)" fill-rule="evenodd" fill="url(#a)"/></svg>