<svg xmlns="http://www.w3.org/2000/svg" xmlns:xlink="http://www.w3.org/1999/xlink" viewBox="0 0 66.55 76"><defs><radialGradient id="a" cx="-271.12" cy="439.39" r="1" gradientTransform="matrix(-66.55, 76, 75.33, 65.97, -51077.12, -8380.58)" gradientUnits="userSpaceOnUse"><stop offset="0" stop-color="#9d62fc"/><stop offset="1" stop-color="#fd3296"/></radialGradient></defs><path d="M39.51,46.09c.33,2,.62,3.8.71,5.23a22.93,22.93,0,0,1-.28,4.75A87.83,87.83,0,0,0,56.46,57l.25-2.55c.95-9.65,4.2-12.22,4.88-17.6a27.87,27.87,0,0,0-1.06-11.76Zm-.34,14.6c-.32,1.73-.64,3.5-.84,5.36a8,8,0,0,0,1.39,6.74,8,8,0,0,0,6.11,3.14c5.87.76,8.45-4.64,9.24-7.77a42,42,0,0,0,1-6.41c-1,0-1.9,0-2.88,0A87.14,87.14,0,0,1,39.17,60.69Zm26-54.5a4.76,4.76,0,0,0-6.72,0l-32,32c0-.39,0-.79,0-1.18a119.37,119.37,0,0,0,2.05-18.76C27.24,8.76,23.11-.79,16.27.05,8.61,1,3.7,12,5,22.57,5.7,28,9,30.53,9.9,40.18l.25,2.54a95.68,95.68,0,0,0,12.09-.32l-5,5c-1.21.06-2.44.14-3.61.14s-2,0-3,0a46.1,46.1,0,0,0,.81,5.74l-10,9.95A4.56,4.56,0,0,0,.39,64.73,4.81,4.81,0,0,0,0,66.56,4.63,4.63,0,0,0,.35,68.4a5,5,0,0,0,1,1.56A4.79,4.79,0,0,0,3,71a4.63,4.63,0,0,0,1.84.35A4.81,4.81,0,0,0,6.62,71,4.7,4.7,0,0,0,8.17,69.9l57-57a4.76,4.76,0,0,0,0-6.72Z" transform="translate(0 0)" fill="url(#a)"/></svg>