<svg width="321" height="160" viewBox="0 0 321 160" fill="none" xmlns="http://www.w3.org/2000/svg">
<path d="M91.4806 70.513H57.7842C58.0684 68.9123 58.907 67.4628 60.1529 66.4185C61.3989 65.3742 62.9727 64.8019 64.5984 64.8017H64.8685C65.8284 63.0957 67.2693 61.71 69.0116 60.8176C70.7538 59.9251 72.7203 59.5653 74.6657 59.7831C76.6111 60.001 78.4492 60.7868 79.9509 62.0425C81.4526 63.2983 82.5513 64.9683 83.11 66.8444C83.8227 66.1872 84.7114 65.7518 85.6675 65.5916C86.6236 65.4313 87.6056 65.5531 88.4936 65.9421C89.3816 66.3311 90.137 66.9704 90.6675 67.7818C91.198 68.5933 91.4805 69.5417 91.4806 70.5111V70.513Z" fill="#C3C4FD"/>
<path d="M82.1964 73.1331H48.5C48.784 71.5322 49.6225 70.0824 50.8684 69.038C52.1144 67.9935 53.6883 67.421 55.3142 67.4208H55.5843C56.5448 65.7163 57.9856 64.3321 59.7272 63.4407C61.4688 62.5493 63.4343 62.1901 65.3786 62.4079C67.3229 62.6257 69.1602 63.4108 70.6614 64.6654C72.1627 65.9201 73.2615 67.5887 73.821 69.4635C74.5338 68.8067 75.4225 68.3718 76.3784 68.2118C77.3344 68.0518 78.3163 68.1737 79.2041 68.5626C80.0919 68.9515 80.8472 69.5905 81.3777 70.4016C81.9083 71.2128 82.1911 72.1609 82.1916 73.1301L82.1964 73.1331Z" stroke="white" stroke-width="0.406593" stroke-linecap="round" stroke-linejoin="round"/>
<path d="M264.968 113.952H267.119" stroke="white" stroke-width="0.406593" stroke-linecap="round" stroke-linejoin="round"/>
<path d="M266.048 115.023V112.871" stroke="white" stroke-width="0.406593" stroke-linecap="round" stroke-linejoin="round"/>
<path d="M74.5347 90.9081C74.7174 90.9083 74.8961 90.8542 75.0481 90.7529C75.2001 90.6515 75.3185 90.5075 75.3885 90.3387C75.4586 90.17 75.477 89.9843 75.4415 89.8051C75.406 89.6259 75.3181 89.4613 75.189 89.3321C75.0599 89.2029 74.8953 89.1148 74.7162 89.0791C74.537 89.0434 74.3514 89.0616 74.1826 89.1315C74.0138 89.2013 73.8695 89.3197 73.768 89.4716C73.6665 89.6234 73.6123 89.802 73.6123 89.9846C73.6123 90.2294 73.7095 90.4641 73.8825 90.6373C74.0554 90.8104 74.29 90.9078 74.5347 90.9081Z" stroke="white" stroke-width="0.406593" stroke-linecap="round" stroke-linejoin="round"/>
<path d="M64.2725 82.3821H66.4242" stroke="white" stroke-width="0.406593" stroke-linecap="round" stroke-linejoin="round"/>
<path d="M65.354 83.4542V81.3005" stroke="white" stroke-width="0.406593" stroke-linecap="round" stroke-linejoin="round"/>
<path d="M238.707 99.0774H268.185" stroke="white" stroke-width="0.406593" stroke-miterlimit="10"/>
<path d="M224.803 102.175H254.281" stroke="white" stroke-width="0.406593" stroke-miterlimit="10"/>
<path d="M261.319 99.0771H232.503C232.747 97.7084 233.465 96.4691 234.531 95.5764C235.597 94.6837 236.943 94.1946 238.333 94.1946C238.41 94.1946 238.486 94.1946 238.56 94.1946C239.381 92.7358 240.614 91.551 242.104 90.7877C243.594 90.0244 245.276 89.7165 246.939 89.9023C248.603 90.0881 250.176 90.7593 251.461 91.8325C252.745 92.9056 253.686 94.3332 254.166 95.9373C254.775 95.3761 255.535 95.0046 256.352 94.8681C257.169 94.7316 258.008 94.836 258.767 95.1686C259.525 95.5012 260.171 96.0476 260.624 96.741C261.077 97.4344 261.319 98.2448 261.319 99.0732V99.0771Z" stroke="white" stroke-width="0.406593" stroke-linecap="round" stroke-linejoin="round"/>
<path d="M262.115 71.4577H240.94C241.119 70.4516 241.646 69.5406 242.429 68.8845C243.212 68.2283 244.201 67.8689 245.223 67.8692C245.279 67.8692 245.335 67.8692 245.39 67.8692C245.995 66.7987 246.901 65.9293 247.995 65.3695C249.09 64.8097 250.325 64.5839 251.547 64.7204C252.769 64.8568 253.924 65.3494 254.868 66.1369C255.812 66.9244 256.504 67.972 256.858 69.1496C257.306 68.7372 257.864 68.4643 258.465 68.364C259.065 68.2638 259.682 68.3405 260.239 68.585C260.797 68.8295 261.271 69.2311 261.604 69.7407C261.937 70.2503 262.115 70.8459 262.115 71.4547V71.4577Z" fill="#A77FFA" stroke="#A77FFA" stroke-width="0.101648" stroke-miterlimit="10"/>
<path d="M62.2306 120.503H49.9966C50.1001 119.922 50.4048 119.396 50.8574 119.017C51.3099 118.638 51.8814 118.43 52.4716 118.43C52.5044 118.43 52.5363 118.43 52.5681 118.43C52.9168 117.811 53.4399 117.308 54.0725 116.984C54.705 116.66 55.4188 116.529 56.1251 116.608C56.8315 116.687 57.4989 116.971 58.0445 117.427C58.59 117.882 58.9895 118.488 59.1931 119.169C59.4519 118.931 59.7745 118.773 60.1214 118.716C60.4683 118.658 60.8245 118.702 61.1466 118.843C61.4687 118.984 61.7428 119.216 61.9353 119.511C62.1278 119.805 62.2304 120.149 62.2306 120.501V120.503Z" fill="#C3C4FD" stroke="#C3C4FD" stroke-width="0.101648" stroke-miterlimit="10"/>
<path d="M80.7098 111.761H60.3281C60.5004 110.793 61.0079 109.916 61.7618 109.284C62.5157 108.653 63.4677 108.307 64.4511 108.307C64.5052 108.307 64.5592 108.307 64.6122 108.307C65.1933 107.276 66.0651 106.438 67.1189 105.898C68.1727 105.359 69.362 105.141 70.5387 105.272C71.7154 105.403 72.8274 105.878 73.7363 106.637C74.6451 107.396 75.3106 108.405 75.6499 109.54C76.0809 109.142 76.6183 108.88 77.1964 108.783C77.7745 108.686 78.3682 108.76 78.905 108.996C79.4418 109.231 79.8983 109.618 80.2188 110.109C80.5393 110.599 80.7099 111.173 80.7098 111.759V111.761Z" fill="#C3C4FD"/>
<path d="M236.939 42.3193H94.3013V133.339H236.939V42.3193Z" fill="#6A45E3"/>
<path d="M86.2705 40.1542V30.5273H112.883V40.1542" fill="#C3C4FD"/>
<path d="M86.2705 40.1542V30.5273H112.883V40.1542" stroke="black" stroke-width="0.406593" stroke-linecap="round" stroke-linejoin="round"/>
<path d="M92.934 36.4962C93.175 36.496 93.4104 36.4244 93.6107 36.2904C93.811 36.1563 93.9671 35.9659 94.0592 35.7432C94.1512 35.5205 94.1753 35.2755 94.1281 35.0392C94.081 34.8029 93.9648 34.5857 93.7944 34.4154C93.6239 34.2451 93.4068 34.1291 93.1704 34.0822C92.934 34.0353 92.689 34.0594 92.4664 34.1516C92.2438 34.2439 92.0535 34.4002 91.9196 34.6006C91.7857 34.8009 91.7144 35.0365 91.7144 35.2775C91.7144 35.4376 91.7459 35.5962 91.8072 35.7441C91.8685 35.892 91.9583 36.0264 92.0716 36.1396C92.1848 36.2528 92.3193 36.3425 92.4672 36.4037C92.6152 36.4649 92.7738 36.4963 92.934 36.4962V36.4962Z" stroke="black" stroke-width="0.406593" stroke-linecap="round" stroke-linejoin="round"/>
<path d="M97.7318 36.4962C97.9727 36.4958 98.2082 36.4241 98.4083 36.2899C98.6085 36.1558 98.7644 35.9653 98.8563 35.7425C98.9483 35.5198 98.9722 35.2748 98.9249 35.0385C98.8777 34.8023 98.7615 34.5854 98.591 34.4151C98.4205 34.2449 98.2032 34.129 97.9669 34.0821C97.7305 34.0353 97.4857 34.0595 97.2631 34.1518C97.0405 34.2441 96.8503 34.4003 96.7165 34.6007C96.5826 34.801 96.5112 35.0366 96.5112 35.2775C96.5114 35.4377 96.543 35.5962 96.6044 35.7441C96.6658 35.8921 96.7558 36.0265 96.8691 36.1396C96.9825 36.2528 97.1169 36.3426 97.265 36.4037C97.413 36.4649 97.5716 36.4963 97.7318 36.4962Z" stroke="black" stroke-width="0.406593" stroke-linecap="round" stroke-linejoin="round"/>
<path d="M102.528 36.4962C102.769 36.4958 103.004 36.4241 103.204 36.2899C103.404 36.1558 103.56 35.9652 103.652 35.7425C103.744 35.5198 103.768 35.2748 103.721 35.0385C103.674 34.8023 103.557 34.5854 103.387 34.4151C103.216 34.2449 102.999 34.129 102.763 34.0821C102.526 34.0353 102.282 34.0595 102.059 34.1518C101.836 34.2441 101.646 34.4003 101.512 34.6007C101.379 34.801 101.307 35.0366 101.307 35.2775C101.307 35.4377 101.339 35.5963 101.4 35.7443C101.461 35.8923 101.551 36.0267 101.665 36.1399C101.778 36.2531 101.913 36.3429 102.061 36.404C102.209 36.4652 102.367 36.4964 102.528 36.4962V36.4962Z" stroke="black" stroke-width="0.406593" stroke-linecap="round" stroke-linejoin="round"/>
<path d="M233.958 40.1542H143.249V28.5966C143.249 28.0847 143.046 27.5939 142.684 27.232C142.322 26.8701 141.831 26.6667 141.319 26.6667H114.812C114.301 26.6667 113.81 26.8701 113.448 27.232C113.086 27.5939 112.883 28.0847 112.883 28.5966V40.1542H86.2705V129.55H233.063L233.958 40.1542Z" fill="white" stroke="black" stroke-width="0.406593" stroke-linecap="round" stroke-linejoin="round"/>
<path d="M170.944 26.6758H145.037C144.525 26.6758 144.034 26.8792 143.672 27.2411C143.31 27.603 143.107 28.0938 143.107 28.6056V40.1546H172.929V28.1686C172.929 27.3436 172.041 26.6758 170.944 26.6758Z" fill="white" stroke="black" stroke-width="0.406593" stroke-linecap="round" stroke-linejoin="round"/>
<path d="M231.972 26.6758H204.479C203.967 26.6758 203.477 26.8792 203.115 27.2411C202.753 27.603 202.549 28.0938 202.549 28.6056V40.1546H233.958V29.2666C233.958 27.8347 233.069 26.6758 231.972 26.6758Z" fill="white" stroke="black" stroke-width="0.406593" stroke-linecap="round" stroke-linejoin="round"/>
<path d="M200.562 26.6758H174.859C174.347 26.6758 173.856 26.8792 173.494 27.2411C173.133 27.603 172.929 28.0938 172.929 28.6056V40.1546H202.552V28.5371C202.549 27.5085 201.659 26.6758 200.562 26.6758Z" fill="white" stroke="black" stroke-width="0.406593" stroke-linecap="round" stroke-linejoin="round"/>
<path d="M226.015 46.1501H116.702C116.347 46.1501 116.059 46.4379 116.059 46.7928V52.6044C116.059 52.9593 116.347 53.247 116.702 53.247H226.015C226.37 53.247 226.657 52.9593 226.657 52.6044V46.7928C226.657 46.4379 226.37 46.1501 226.015 46.1501Z" fill="white" stroke="black" stroke-width="0.406593" stroke-linecap="round" stroke-linejoin="round"/>
<path d="M98.8791 48.0051H95.0677C94.5454 48.0051 94.1221 48.4285 94.1221 48.9507V52.7621C94.1221 53.2844 94.5454 53.7077 95.0677 53.7077H98.8791C99.4013 53.7077 99.8247 53.2844 99.8247 52.7621V48.9507C99.8247 48.4285 99.4013 48.0051 98.8791 48.0051Z" fill="#C3C4FD"/>
<path d="M110.049 48.0051H106.238C105.716 48.0051 105.292 48.4285 105.292 48.9507V52.7621C105.292 53.2844 105.716 53.7077 106.238 53.7077H110.049C110.572 53.7077 110.995 53.2844 110.995 52.7621V48.9507C110.995 48.4285 110.572 48.0051 110.049 48.0051Z" fill="#C3C4FD"/>
<path d="M97.818 46.8469H94.0066C93.4844 46.8469 93.061 47.2703 93.061 47.7925V51.6039C93.061 52.1262 93.4844 52.5495 94.0066 52.5495H97.818C98.3403 52.5495 98.7636 52.1262 98.7636 51.6039V47.7925C98.7636 47.2703 98.3403 46.8469 97.818 46.8469Z" stroke="black" stroke-width="0.406593" stroke-linecap="round" stroke-linejoin="round"/>
<path d="M108.988 46.8469H105.177C104.655 46.8469 104.231 47.2703 104.231 47.7925V51.6039C104.231 52.1262 104.655 52.5495 105.177 52.5495H108.988C109.511 52.5495 109.934 52.1262 109.934 51.6039V47.7925C109.934 47.2703 109.511 46.8469 108.988 46.8469Z" stroke="black" stroke-width="0.406593" stroke-linecap="round" stroke-linejoin="round"/>
<path d="M225.855 58.4597H93.5264C93.0831 58.4597 92.7236 58.8191 92.7236 59.2625V122.725C92.7236 123.169 93.0831 123.528 93.5264 123.528H225.855C226.299 123.528 226.658 123.169 226.658 122.725V59.2625C226.658 58.8191 226.299 58.4597 225.855 58.4597Z" fill="white" stroke="black" stroke-width="0.406593" stroke-linecap="round" stroke-linejoin="round"/>
<path d="M119.79 50.6617C120.532 50.6617 121.133 50.0607 121.133 49.3195C121.133 48.5782 120.532 47.9773 119.79 47.9773C119.049 47.9773 118.448 48.5782 118.448 49.3195C118.448 50.0607 119.049 50.6617 119.79 50.6617Z" fill="white" stroke="black" stroke-width="0.406593" stroke-miterlimit="10"/>
<path d="M120.699 50.3098L121.807 51.4185" stroke="black" stroke-width="0.406593" stroke-miterlimit="10" stroke-linecap="round"/>
<path d="M171.256 80.0047C170.903 79.1674 170.31 78.453 169.552 77.9509C168.795 77.4488 167.906 77.1815 166.997 77.1824C166.24 77.1786 165.493 77.3623 164.824 77.717C164.155 78.0717 163.584 78.5865 163.162 79.2155C162.887 79.6262 162.681 80.0788 162.552 80.5557H156.055C156.01 80.3668 155.947 80.1824 155.869 80.0047C155.799 79.8301 155.713 79.6624 155.612 79.5039L157.935 77.1824H157.941C158.642 77.5836 159.436 77.7935 160.244 77.7912C160.861 77.7927 161.472 77.6683 162.039 77.4255C162.878 77.073 163.594 76.4808 164.097 75.7231C164.6 74.9655 164.869 74.076 164.868 73.1664C164.867 71.9408 164.38 70.7657 163.512 69.8997C162.645 69.0337 161.469 68.5476 160.244 68.5484C159.636 68.547 159.035 68.6654 158.474 68.8969C157.912 69.1284 157.402 69.4684 156.973 69.8974C156.543 70.3264 156.202 70.836 155.97 71.397C155.738 71.9579 155.618 72.5593 155.619 73.1664C155.617 73.7858 155.742 74.399 155.985 74.9688C156.047 75.1161 156.118 75.2597 156.196 75.3992L153.842 77.7526C153.158 77.377 152.39 77.1808 151.61 77.1824C150.852 77.1786 150.106 77.3623 149.437 77.717C148.767 78.0717 148.196 78.5865 147.774 79.2155C147.261 79.9801 146.987 80.8797 146.985 81.8004C146.983 82.4198 147.108 83.033 147.351 83.6028C147.701 84.428 148.282 85.1342 149.025 85.6359C149.788 86.1525 150.688 86.4275 151.61 86.4252C152.366 86.4238 153.111 86.2371 153.778 85.8815C154.446 85.5259 155.016 85.0123 155.439 84.3854C155.72 83.9794 155.928 83.5279 156.055 83.0509H162.547C162.597 83.2395 162.662 83.4239 162.74 83.6028C162.803 83.7499 162.873 83.8935 162.951 84.0332L160.598 86.3866C159.914 86.0098 159.146 85.8133 158.365 85.8153C157.746 85.8159 157.134 85.9383 156.563 86.1753C155.725 86.5291 155.011 87.1218 154.509 87.8793C154.007 88.6369 153.74 89.5256 153.74 90.4344C153.739 91.0537 153.863 91.6669 154.106 92.2368C154.457 93.0609 155.039 93.7667 155.78 94.2699C156.476 94.7365 157.286 95.0054 158.123 95.0479C158.961 95.0904 159.793 94.9049 160.534 94.5113C161.274 94.1176 161.893 93.5304 162.325 92.8124C162.758 92.0944 162.988 91.2726 162.99 90.4344C162.988 89.8171 162.864 89.2063 162.624 88.6377C162.548 88.465 162.464 88.2913 162.374 88.1311L164.69 85.8153H164.697C165.397 86.2173 166.191 86.4276 166.999 86.4252C168.225 86.4234 169.4 85.9356 170.267 85.0687C171.134 84.2017 171.622 83.0265 171.624 81.8004C171.622 81.1834 171.497 80.5729 171.256 80.0047V80.0047ZM158.28 72.3395C158.442 71.9592 158.71 71.6338 159.052 71.4025C159.346 71.204 159.684 71.0819 160.037 71.0472C160.39 71.0125 160.746 71.0663 161.072 71.2038C161.459 71.3659 161.789 71.6388 162.02 71.9881C162.252 72.3373 162.375 72.7473 162.374 73.1664C162.373 73.7316 162.149 74.2735 161.75 74.6738C161.351 75.0741 160.81 75.3001 160.245 75.3027C159.895 75.3026 159.55 75.2166 159.242 75.0522C158.933 74.8878 158.669 74.6501 158.474 74.36C158.278 74.0651 158.158 73.7265 158.124 73.374C158.09 73.0215 158.144 72.6661 158.281 72.3395H158.28ZM153.571 82.6341C153.409 83.0139 153.141 83.339 152.799 83.571C152.447 83.8091 152.031 83.9365 151.606 83.9367C151.256 83.9367 150.911 83.8505 150.603 83.686C150.294 83.5214 150.03 83.2834 149.835 82.993C149.639 82.6981 149.519 82.3595 149.485 82.007C149.452 81.6545 149.506 81.2992 149.642 80.9725C149.804 80.5927 150.072 80.2677 150.414 80.0366C150.708 79.838 151.046 79.7158 151.399 79.6811C151.752 79.6464 152.108 79.7002 152.435 79.8377C152.821 79.9999 153.151 80.2727 153.383 80.622C153.614 80.9713 153.737 81.3813 153.736 81.8004C153.739 82.0876 153.683 82.3723 153.571 82.637V82.6341ZM160.326 91.2681C160.163 91.6479 159.895 91.9731 159.554 92.205C159.201 92.4429 158.785 92.5698 158.36 92.5697C158.076 92.569 157.795 92.5127 157.533 92.4037C157.151 92.2395 156.824 91.9701 156.59 91.627C156.374 91.3059 156.251 90.9324 156.231 90.5464C156.212 90.1604 156.298 89.7764 156.479 89.4353C156.661 89.0943 156.932 88.8089 157.263 88.6098C157.595 88.4107 157.974 88.3053 158.36 88.3048C158.645 88.303 158.926 88.3599 159.188 88.4718C159.574 88.6339 159.904 88.9068 160.136 89.256C160.368 89.6053 160.491 90.0153 160.49 90.4344C160.493 90.7215 160.437 91.0062 160.326 91.2709V91.2681ZM168.96 82.6341C168.797 83.0139 168.529 83.339 168.188 83.571C167.835 83.8091 167.42 83.9365 166.994 83.9367C166.644 83.9367 166.3 83.8505 165.991 83.686C165.682 83.5214 165.419 83.2834 165.223 82.993C165.027 82.6981 164.907 82.3595 164.874 82.007C164.84 81.6545 164.894 81.2992 165.03 80.9725C165.192 80.5927 165.46 80.2677 165.802 80.0366C166.096 79.838 166.435 79.7158 166.787 79.6811C167.14 79.6464 167.496 79.7002 167.823 79.8377C168.209 79.9999 168.539 80.2727 168.771 80.622C169.003 80.9713 169.126 81.3813 169.125 81.8004C169.127 82.0876 169.071 82.3723 168.96 82.637V82.6341Z" fill="black"/>
<path d="M132.433 35.9257L123.737 35.9344L123.439 31.2952L133.745 31.4196L132.433 35.9257Z" fill="#A77FFA"/>
<path d="M125.356 40.0781C126.037 40.0781 126.589 39.526 126.589 38.845C126.589 38.1639 126.037 37.6118 125.356 37.6118C124.675 37.6118 124.123 38.1639 124.123 38.845C124.123 39.526 124.675 40.0781 125.356 40.0781Z" fill="#A77FFA" stroke="black" stroke-width="0.406593" stroke-linecap="round" stroke-linejoin="round"/>
<path d="M131.318 40.0781C131.999 40.0781 132.551 39.526 132.551 38.845C132.551 38.1639 131.999 37.6118 131.318 37.6118C130.637 37.6118 130.085 38.1639 130.085 38.845C130.085 39.526 130.637 40.0781 131.318 40.0781Z" fill="#A77FFA" stroke="black" stroke-width="0.406593" stroke-linecap="round" stroke-linejoin="round"/>
<path d="M121.747 29.5569L123.268 29.6466L123.737 35.9349L132.433 35.9262L133.745 31.4201L123.44 31.2956" stroke="black" stroke-width="0.406593" stroke-linecap="round" stroke-linejoin="round"/>
<path d="M131.392 37.6135L125.114 37.5952C124.732 37.5738 124.375 37.4018 124.12 37.117C123.865 36.8322 123.734 36.4579 123.755 36.0764" stroke="black" stroke-width="0.406593" stroke-linecap="round" stroke-linejoin="round"/>
<path d="M129.974 33.3749C129.534 33.7159 128.984 33.8826 128.43 33.8429C128.339 33.8362 128.248 33.8243 128.159 33.8071C127.619 33.6995 127.137 33.3997 126.803 32.9634C126.468 32.5271 126.303 31.9841 126.339 31.4354C126.345 31.3438 126.356 31.2526 126.372 31.1623C126.481 30.6232 126.782 30.142 127.219 29.8082C127.656 29.4743 128.199 29.3106 128.748 29.3474C128.839 29.3521 128.93 29.363 129.019 29.3802C129.559 29.488 130.04 29.788 130.375 30.2245C130.71 30.6609 130.875 31.204 130.839 31.7529C130.833 31.8442 130.821 31.9351 130.803 32.025C130.698 32.5601 130.403 33.0394 129.974 33.3749V33.3749Z" fill="white" stroke="black" stroke-width="0.406593" stroke-miterlimit="10"/>
<path d="M129.58 31.1867C129.572 31.2353 129.546 31.2794 129.509 31.3112L128.453 32.2317C128.428 32.2538 128.398 32.2699 128.366 32.2786C128.334 32.2873 128.3 32.2885 128.268 32.2819C128.22 32.273 128.177 32.2478 128.145 32.2105V32.2105L127.685 31.6827C127.664 31.657 127.648 31.6269 127.639 31.5946C127.631 31.5623 127.629 31.5285 127.635 31.4955C127.644 31.4478 127.669 31.4047 127.706 31.373C127.728 31.3541 127.753 31.3396 127.78 31.3304C127.807 31.3212 127.836 31.3175 127.864 31.3194C127.893 31.3213 127.921 31.3287 127.946 31.3414C127.972 31.3541 127.995 31.3717 128.014 31.3933V31.3933L128.33 31.757L129.222 30.9793C129.256 30.9491 129.299 30.9304 129.345 30.9259C129.39 30.9213 129.436 30.9313 129.475 30.9541C129.515 30.9769 129.546 31.0114 129.565 31.053C129.584 31.0946 129.589 31.141 129.58 31.1858V31.1867Z" fill="#6A45E3"/>
<path d="M264.758 80.1901C264.941 80.1903 265.119 80.1364 265.271 80.0351C265.423 79.9339 265.541 79.7899 265.611 79.6214C265.681 79.4528 265.7 79.2673 265.664 79.0883C265.629 78.9093 265.541 78.7448 265.412 78.6157C265.283 78.4866 265.119 78.3987 264.94 78.363C264.761 78.3273 264.575 78.3455 264.407 78.4153C264.238 78.4851 264.094 78.6034 263.992 78.7551C263.891 78.9068 263.837 79.0852 263.837 79.2677C263.837 79.5122 263.934 79.7466 264.107 79.9196C264.28 80.0926 264.514 80.1899 264.758 80.1901V80.1901Z" stroke="white" stroke-width="0.406593" stroke-linecap="round" stroke-linejoin="round"/>
<path d="M271.015 68.9238H273.166" stroke="white" stroke-width="0.406593" stroke-linecap="round" stroke-linejoin="round"/>
<path d="M272.096 69.995V67.8472" stroke="white" stroke-width="0.406593" stroke-linecap="round" stroke-linejoin="round"/>
<path d="M59.5045 93.5395C59.5045 94.4697 59.2287 95.379 58.7119 96.1524C58.1952 96.9258 57.4606 97.5286 56.6013 97.8845C55.7419 98.2405 54.7963 98.3336 53.884 98.1522C52.9717 97.9707 52.1338 97.5228 51.4761 96.8651C50.8184 96.2074 50.3705 95.3693 50.189 94.4571C50.0075 93.5448 50.1007 92.5992 50.4566 91.7399C50.8126 90.8805 51.4153 90.146 52.1887 89.6292C52.9621 89.1125 53.8714 88.8367 54.8015 88.8367C56.0488 88.8367 57.2451 89.3321 58.1271 90.2141C59.009 91.0961 59.5045 92.2922 59.5045 93.5395Z" fill="white"/>
<path d="M50.5474 93.5395C50.5467 94.138 50.6725 94.7299 50.9167 95.2763C51.1608 95.8228 51.5177 96.3114 51.9639 96.7102V90.3689C51.5177 90.7677 51.1608 91.2563 50.9167 91.8028C50.6725 92.3492 50.5467 92.941 50.5474 93.5395V93.5395Z" fill="#EA3323"/>
<path d="M59.06 93.5393C59.0604 92.9401 58.9339 92.3477 58.689 91.8009C58.444 91.2541 58.086 90.7653 57.6387 90.3667V96.7129C58.0862 96.3142 58.4442 95.8253 58.6891 95.2783C58.9341 94.7313 59.0605 94.1386 59.06 93.5393Z" fill="#EA3323"/>
<path d="M57.6399 90.3669C56.8596 89.6685 55.8492 89.2825 54.8021 89.2825C53.7549 89.2825 52.7446 89.6685 51.9644 90.3669V96.7083C52.7444 97.407 53.7548 97.7933 54.8021 97.7933C55.8493 97.7933 56.8598 97.407 57.6399 96.7083V90.3669ZM54.9381 94.8054C54.9063 94.8054 54.8571 94.8585 54.8571 94.8962L54.8851 96.0145H54.6921L54.7567 94.9019C54.7531 94.88 54.7429 94.8598 54.7273 94.8439C54.7118 94.828 54.6917 94.8172 54.6699 94.8131C54.3042 94.8527 53.9751 94.9165 53.6085 94.9589L53.705 94.652C53.7119 94.6261 53.7112 94.5986 53.7028 94.5731C53.6944 94.5475 53.6788 94.525 53.6577 94.5082L52.5964 93.6398L52.8153 93.5357C52.9118 93.5038 52.8858 93.4469 52.852 93.3147L52.689 92.7242L53.3075 92.8544C53.3307 92.8588 53.3546 92.8546 53.3749 92.8425C53.3951 92.8304 53.4103 92.8113 53.4175 92.7888L53.4966 92.5099L53.9868 93.057C54.0553 93.1458 54.1971 93.1458 54.1537 92.9432L53.9434 91.8326L54.2231 91.9783C54.3032 92.0217 54.3824 92.0295 54.4258 91.9523L54.804 91.2295L55.19 91.9445C55.2354 92.0217 55.3125 92.0149 55.3926 91.9715L55.6725 91.8258L55.464 92.9364C55.4187 93.1381 55.5606 93.1381 55.631 93.0494L56.1192 92.5032L56.1984 92.7811C56.2055 92.8036 56.2206 92.8227 56.2408 92.8348C56.2611 92.8469 56.2851 92.8511 56.3083 92.8467L56.9268 92.7165L56.7637 93.307C56.73 93.4392 56.7039 93.4942 56.8004 93.528L57.0213 93.6322L55.96 94.5006C55.9384 94.5169 55.9222 94.5393 55.9134 94.565C55.9046 94.5906 55.9037 94.6182 55.9108 94.6443L56.0073 94.9512C55.6367 94.9087 55.3096 94.845 54.942 94.8054H54.9381Z" fill="white"/>
<path d="M55.9603 94.5006L57.0217 93.6321L56.8007 93.5279C56.7042 93.4942 56.7303 93.4392 56.764 93.307L56.9272 92.7164L56.3086 92.8467C56.2855 92.8511 56.2614 92.8469 56.2412 92.8348C56.2209 92.8227 56.2058 92.8036 56.1987 92.7811L56.1195 92.5032L55.6313 93.0493C55.5609 93.1381 55.419 93.138 55.4643 92.9364L55.6728 91.8258L55.3929 91.9715C55.3128 92.0149 55.2357 92.0217 55.1903 91.9445L54.8044 91.2295L54.4261 91.9522C54.3827 92.0294 54.3035 92.0217 54.2234 91.9782L53.9437 91.8326L54.154 92.9431C54.1974 93.1458 54.0576 93.1457 53.9871 93.057L53.4969 92.5099L53.4178 92.7888C53.4107 92.8113 53.3955 92.8304 53.3752 92.8425C53.3549 92.8546 53.331 92.8588 53.3078 92.8544L52.6893 92.7242L52.8523 93.3147C52.8861 93.4469 52.9141 93.5077 52.8157 93.5357L52.5967 93.6398L53.6581 94.5082C53.6791 94.5249 53.6947 94.5475 53.7031 94.573C53.7115 94.5986 53.7123 94.626 53.7053 94.652L53.6088 94.9589C53.9755 94.9164 54.3045 94.8527 54.6702 94.8131C54.692 94.8172 54.7121 94.828 54.7277 94.8438C54.7432 94.8597 54.7535 94.88 54.7571 94.9019L54.6924 96.0144H54.8854L54.8574 94.8961C54.8574 94.8585 54.9066 94.7996 54.9385 94.8054C55.3061 94.845 55.6332 94.9087 55.9999 94.9512L55.9034 94.6443C55.8971 94.6173 55.8992 94.5892 55.9094 94.5635C55.9196 94.5378 55.9373 94.5159 55.9603 94.5006V94.5006Z" fill="#EA3323"/>
<path d="M75.6496 46.5092C75.6496 47.439 75.3739 48.3479 74.8573 49.1209C74.3408 49.894 73.6065 50.4965 72.7475 50.8523C71.8885 51.2081 70.9434 51.3012 70.0315 51.1198C69.1196 50.9384 68.2818 50.4908 67.6244 49.8333C66.9669 49.1759 66.5193 48.3382 66.3379 47.4263C66.1565 46.5144 66.2496 45.5692 66.6054 44.7102C66.9612 43.8512 67.5638 43.1169 68.3369 42.6004C69.1099 42.0838 70.0188 41.8081 70.9486 41.8081C72.1954 41.8081 73.3911 42.3035 74.2727 43.1851C75.1543 44.0667 75.6496 45.2624 75.6496 46.5092Z" fill="white"/>
<path d="M75.1953 46.8359H66.7041C66.7189 47.0565 66.7512 47.2756 66.8006 47.4911H75.0833C75.1379 47.276 75.1754 47.0569 75.1953 46.8359V46.8359Z" fill="white"/>
<path d="M74.8787 48.1455H67.0186C67.1136 48.374 67.2289 48.5936 67.3631 48.8016H74.5342C74.6683 48.5936 74.7836 48.374 74.8787 48.1455V48.1455Z" fill="white"/>
<path d="M73.1621 44.8725H74.8787C74.7834 44.6441 74.6681 44.4245 74.5342 44.2163H73.1621V44.8725Z" fill="white"/>
<path d="M73.162 46.182H75.1883C75.172 45.9616 75.1381 45.7429 75.087 45.5278H73.1572L73.162 46.182Z" fill="white"/>
<path d="M74.0181 49.457H67.8794C68.1194 49.7069 68.3891 49.9266 68.6822 50.1113H73.2173C73.5096 49.9263 73.7785 49.7066 74.0181 49.457V49.457Z" fill="white"/>
<path d="M73.1621 43.5614H74.018C73.7781 43.3117 73.5089 43.0921 73.2162 42.9072H73.1621V43.5614Z" fill="white"/>
<path d="M73.2167 42.9071L73.1621 42.8721V42.9071H73.2167Z" fill="#A33138"/>
<path d="M73.1621 44.2167H74.5342C74.3841 43.9819 74.2112 43.7624 74.018 43.5615H73.1621V44.2167Z" fill="#A33138"/>
<path d="M73.1621 45.528H75.0919C75.0396 45.3042 74.969 45.085 74.8807 44.8728H73.1641L73.1621 45.528Z" fill="#A33138"/>
<path d="M73.1621 46.8364H75.1884C75.1971 46.7283 75.2029 46.6193 75.2029 46.5093C75.2029 46.3993 75.1971 46.2902 75.1884 46.1821H73.1621V46.8364Z" fill="#A33138"/>
<path d="M75.09 47.4873H66.8071C66.8596 47.7108 66.9303 47.9296 67.0185 48.1415H74.8786C74.9668 47.9296 75.0375 47.7108 75.09 47.4873V47.4873Z" fill="#A33138"/>
<path d="M74.5344 48.8015H67.3633C67.5134 49.0363 67.6863 49.2558 67.8795 49.4567H74.0182C74.2114 49.2558 74.3843 49.0363 74.5344 48.8015V48.8015Z" fill="#A33138"/>
<path d="M68.6816 50.1108C69.3602 50.5395 70.1465 50.7671 70.9492 50.7671C71.7518 50.7671 72.5381 50.5395 73.2167 50.1108H68.6816Z" fill="#A33138"/>
<path d="M72.6862 42.6254L72.6606 42.614V42.6254H72.6862Z" fill="#3B3C6B"/>
<path d="M69.3519 42.5664C69.3035 42.5858 69.255 42.6071 69.2075 42.6284H69.3325L69.3519 42.5664Z" fill="#3B3C6B"/>
<path d="M73.1617 46.182V42.8724C73.043 42.8 72.9195 42.7325 72.7931 42.6717L72.7043 42.7373L72.7623 42.9188L72.6078 42.8068L72.4544 42.9188L72.5133 42.7373L72.3599 42.6254H72.5529L72.5702 42.5713C71.5642 42.1591 70.4386 42.1467 69.4237 42.5367L69.4536 42.6254H69.6466L69.4932 42.7373L69.552 42.9188L69.3977 42.8068L69.2442 42.9188L69.3021 42.7373L69.1747 42.6408C68.3883 43.0041 67.7311 43.5981 67.2903 44.3439L67.3279 44.4597H67.5209L67.3655 44.5706L67.4253 44.751L67.271 44.6392L67.1156 44.751L67.1764 44.5706H67.1697C66.8613 45.1709 66.7007 45.8362 66.7017 46.5111C66.7017 46.6211 66.7017 46.7301 66.7152 46.8381H73.1713L73.1617 46.182ZM72.7892 45.66L72.6339 45.5481L72.4805 45.66L72.5393 45.4776L72.3841 45.3666H72.577L72.6358 45.1853L72.6947 45.3666H72.8877L72.7343 45.4776L72.7892 45.66ZM67.7361 45.8221L67.7949 45.6426L67.8529 45.8221H68.0458L67.8914 45.936L67.9494 46.1155L67.7969 46.0045L67.6415 46.1155L67.7023 45.936L67.547 45.8221H67.7361ZM68.2484 45.4776L68.0931 45.3666H68.286L68.3449 45.1853L68.4038 45.3666H68.5968L68.4433 45.4776L68.5022 45.66L68.3468 45.5481L68.1934 45.66L68.2484 45.4776ZM68.618 44.0062H68.811L68.8688 43.8248L68.9277 44.0062H69.1207L68.9653 44.1181L69.0242 44.2995L68.8708 44.1857L68.7164 44.2995L68.7762 44.1181L68.618 44.0062ZM69.69 44.0062H69.883L69.9418 43.8248L70.0007 44.0062H70.1937L70.0383 44.1181L70.0972 44.2995L69.9438 44.1857L69.7884 44.2995L69.8473 44.1181L69.69 44.0062ZM70.214 43.5449H70.4069L70.4658 43.3626L70.5266 43.5449H70.7196L70.5661 43.6559L70.625 43.8382L70.4696 43.7263L70.3162 43.8382L70.3751 43.6559L70.214 43.5449ZM71.2869 43.5449H71.4799L71.5387 43.3626L71.5976 43.5449H71.7906L71.6372 43.6559L71.6961 43.8382L71.5407 43.7263L71.3873 43.8382L71.4461 43.6559L71.2869 43.5449ZM71.0746 44.9083H71.2676L71.1142 45.0203L71.1721 45.2016L71.0196 45.0907L70.8643 45.2016L70.9231 45.0203L70.7697 44.9083H70.9627L71.0235 44.7289L71.0746 44.9083ZM71.1663 46.1155L71.0129 46.0045L70.8575 46.1155L70.9183 45.936L70.7629 45.8221H70.9559L71.0148 45.6426L71.0737 45.8221H71.2667L71.1113 45.936L71.1663 46.1155ZM70.0026 44.9083H70.1956L70.0422 45.0203L70.1011 45.2016L69.9457 45.0907L69.7923 45.2016L69.8512 45.0203L69.6977 44.9083H69.8907L69.9496 44.7289L70.0026 44.9083ZM70.0933 46.1155L69.9399 46.0045L69.7846 46.1155L69.8434 45.936L69.69 45.8221H69.883L69.9418 45.6426L70.0007 45.8221H70.1937L70.0383 45.936L70.0933 46.1155ZM69.5597 44.754L69.4063 44.642L69.2509 44.754L69.3117 44.5735L69.1564 44.4626H69.3494L69.4082 44.2802L69.4671 44.4626H69.6601L69.5047 44.5735L69.5597 44.754ZM70.4204 44.4645L70.4793 44.2822L70.5382 44.4645H70.7312L70.5758 44.5755L70.6347 44.7559L70.4812 44.644L70.3278 44.7559L70.3867 44.5755L70.2313 44.4645H70.4204ZM71.7048 44.754L71.5523 44.642L71.3969 44.754L71.4567 44.5735L71.3024 44.4626H71.4954L71.5542 44.2802L71.6121 44.4626H71.8051L71.6507 44.5735L71.7048 44.754ZM71.1663 44.2995L71.0129 44.1857L70.8575 44.2995L70.9183 44.1181L70.7629 44.0062H70.9559L71.0148 43.8248L71.0737 44.0062H71.2667L71.1113 44.1181L71.1663 44.2995ZM68.2716 44.4626L68.3295 44.2802L68.3884 44.4626H68.5813L68.426 44.5735L68.4867 44.754L68.3314 44.642L68.179 44.754L68.2368 44.5735L68.0825 44.4626H68.2716ZM68.867 44.7289L68.9258 44.9083H69.1187L68.9653 45.0203L69.0242 45.2016L68.8708 45.0907L68.7154 45.2016L68.7743 45.0203L68.6209 44.9083H68.8139L68.867 44.7289ZM69.0165 46.1155L68.8631 46.0045L68.7086 46.1155L68.7685 45.936L68.6141 45.8221H68.8071L68.865 45.6426L68.9239 45.8221H69.1168L68.9615 45.936L69.0165 46.1155ZM69.3176 45.4776L69.1642 45.3666H69.3571L69.4159 45.1853L69.4748 45.3666H69.6678L69.5144 45.4776L69.5733 45.66L69.4179 45.5481L69.2645 45.66L69.3176 45.4776ZM70.3905 45.4776L70.2352 45.3666H70.4281L70.487 45.1853L70.5449 45.3666H70.7379L70.5854 45.4776L70.6434 45.66L70.4889 45.5481L70.3355 45.66L70.3905 45.4776ZM71.4625 45.4776L71.3091 45.3666H71.5021L71.56 45.1853L71.6188 45.3666H71.8118L71.6584 45.4776L71.7173 45.66L71.5619 45.5481L71.4094 45.66L71.4625 45.4776ZM72.2344 46.1155L72.081 46.0045L71.9267 46.1155L71.9845 45.936L71.8321 45.8221H72.025L72.083 45.6426L72.1418 45.8221H72.3348L72.1795 45.936L72.2344 46.1155ZM72.1438 44.9083H72.3367L72.1833 45.0203L72.2421 45.2016L72.0887 45.0907L71.9344 45.2016L71.9922 45.0203L71.8398 44.9083H72.0328L72.0926 44.7289L72.1438 44.9083ZM72.7739 44.754L72.6204 44.642L72.467 44.754L72.5259 44.5735L72.3705 44.4626H72.5635L72.6224 44.2802L72.6813 44.4626H72.8742L72.7188 44.5735L72.7739 44.754ZM72.2344 44.2995L72.081 44.1857L71.9267 44.2995L71.9845 44.1181L71.8321 44.0062H72.025L72.083 43.8248L72.1418 44.0062H72.3348L72.1795 44.1181L72.2344 44.2995ZM72.5452 43.5449L72.604 43.3626L72.6638 43.5449H72.8568L72.7043 43.6559L72.7623 43.8382L72.6078 43.7263L72.4544 43.8382L72.5133 43.6559L72.3599 43.5449H72.5452ZM72.1274 43.0847H72.3204L72.165 43.1966L72.2239 43.378L72.0705 43.2661L71.9151 43.378L71.974 43.1966L71.8205 43.0847H72.0134L72.0723 42.9033L72.1274 43.0847ZM71.4722 42.6254L71.531 42.444L71.5899 42.6254H71.7829L71.6295 42.7373L71.6884 42.9188L71.533 42.8068L71.3796 42.9188L71.4384 42.7373L71.285 42.6254H71.4722ZM71.0544 43.0847H71.2474L71.092 43.1966L71.1509 43.378L70.9975 43.2661L70.8421 43.378L70.9029 43.1966L70.7476 43.0847H70.9406L70.9994 42.9033L71.0544 43.0847ZM70.3992 42.6254L70.4581 42.444L70.5189 42.6254H70.7119L70.5585 42.7373L70.6173 42.9188L70.462 42.8068L70.3085 42.9188L70.3674 42.7373L70.214 42.6254H70.3992ZM69.9225 42.9033L69.9814 43.0847H70.1744L70.019 43.1966L70.0779 43.378L69.9245 43.2661L69.77 43.378L69.828 43.1966L69.6755 43.0847H69.8685L69.9225 42.9033ZM69.3272 43.5449L69.3861 43.3626L69.4459 43.5449H69.6389L69.4855 43.6559L69.5443 43.8382L69.3899 43.7263L69.2365 43.8382L69.2944 43.6559L69.1419 43.5449H69.3272ZM68.7917 43.0847L68.8506 42.9033L68.9084 43.0847H69.1014L68.947 43.1966L69.0049 43.378L68.8524 43.2661L68.6972 43.378L68.7579 43.1966L68.6025 43.0847H68.7917ZM68.0651 43.5449H68.258L68.3169 43.3626L68.3758 43.5449H68.5688L68.4154 43.6559L68.4742 43.8382L68.3189 43.7263L68.1654 43.8382L68.2243 43.6559L68.0651 43.5449ZM67.5412 44.0062H67.7341L67.793 43.8248L67.8509 44.0062H68.0439L67.8895 44.1181L67.9474 44.2995L67.7949 44.1857L67.6396 44.2995L67.7004 44.1181L67.5412 44.0062ZM67.7949 44.7289L67.8529 44.9083H68.0458L67.8934 45.0203L67.9512 45.2016L67.7988 45.0907L67.6435 45.2016L67.7023 45.0203L67.5489 44.9083H67.7419L67.7949 44.7289ZM67.023 45.3666H67.216L67.2749 45.1853L67.3327 45.3666H67.5257L67.3732 45.4776L67.4312 45.66L67.2767 45.5481L67.1233 45.66L67.1813 45.4776L67.023 45.3666ZM67.4089 46.5757L67.2537 46.4619L67.1002 46.5757L67.1591 46.3943L67.0056 46.2824H67.1986L67.2575 46.101L67.3183 46.2824H67.5113L67.3578 46.3943L67.4089 46.5757ZM68.481 46.5757L68.3265 46.4619L68.1731 46.5757L68.2311 46.3943L68.0786 46.2824H68.2716L68.3304 46.101L68.3884 46.2824H68.5813L68.4289 46.3943L68.481 46.5757ZM69.554 46.5757L69.3986 46.4619L69.2452 46.5757L69.3041 46.3943L69.1506 46.2824H69.3436L69.4025 46.101L69.4632 46.2824H69.6562L69.5028 46.3943L69.554 46.5757ZM70.627 46.5757L70.4716 46.4619L70.3182 46.5757L70.377 46.3943L70.2217 46.2824H70.4147L70.4735 46.101L70.5324 46.2824H70.7253L70.5719 46.3943L70.627 46.5757ZM71.6989 46.5757L71.5446 46.4619L71.3912 46.5757L71.45 46.3943L71.2966 46.2824H71.4895L71.5484 46.101L71.6083 46.2824H71.8012L71.6488 46.3943L71.6989 46.5757ZM72.7719 46.5757L72.6165 46.4619L72.4641 46.5757L72.522 46.3943L72.3686 46.2824H72.5616L72.6194 46.101L72.6783 46.2824H72.8713L72.7179 46.3943L72.7719 46.5757Z" fill="#3B3C6B"/>
<path d="M69.2369 42.9185L69.3903 42.8065L69.5446 42.9185L69.4858 42.737L69.6392 42.6251H69.4463L69.4163 42.5364L69.3469 42.5633L69.3275 42.6251H69.2031L69.1636 42.6434L69.2909 42.7399L69.2369 42.9185Z" fill="white"/>
<path d="M70.3089 42.9188L70.4623 42.8069L70.6177 42.9188L70.5588 42.7374L70.7122 42.6255H70.5231L70.4623 42.4441L70.4035 42.6255H70.2144L70.3678 42.7374L70.3089 42.9188Z" fill="white"/>
<path d="M71.3817 42.9188L71.5351 42.8069L71.6904 42.9188L71.6316 42.7374L71.784 42.6255H71.5939L71.5351 42.4441L71.4762 42.6255H71.2871L71.4405 42.7374L71.3817 42.9188Z" fill="white"/>
<path d="M72.3599 42.6256L72.5133 42.7375L72.4544 42.919L72.6078 42.807L72.7622 42.919L72.7043 42.7375L72.793 42.6719C72.7593 42.6555 72.7246 42.6411 72.6899 42.6256H72.6676V42.614L72.5711 42.5715L72.5538 42.6256H72.3599Z" fill="white"/>
<path d="M68.7 43.3781L68.8544 43.2671L69.0078 43.3781L68.9499 43.1967L69.1043 43.0847H68.9133L68.8544 42.9033L68.7965 43.0847H68.6055L68.7599 43.1967L68.7 43.3781Z" fill="white"/>
<path d="M69.6768 43.0847L69.8302 43.1967L69.7713 43.3781L69.9267 43.2671L70.0801 43.3781L70.0212 43.1967L70.1766 43.0847H69.9855L69.9267 42.9033L69.8678 43.0847H69.6768Z" fill="white"/>
<path d="M70.9406 43.0847H70.7495L70.9049 43.1967L70.8441 43.3781L70.9994 43.2671L71.1528 43.3781L71.094 43.1967L71.2493 43.0847H71.0583L70.9994 42.9033L70.9406 43.0847Z" fill="white"/>
<path d="M72.0138 43.0847H71.8228L71.9752 43.1967L71.9173 43.3781L72.0717 43.2671L72.2251 43.3781L72.1672 43.1967L72.3216 43.0847H72.1306L72.0717 42.9033L72.0138 43.0847Z" fill="white"/>
<path d="M68.1639 43.8383L68.3173 43.7263L68.4717 43.8383L68.4138 43.6568L68.5663 43.5449H68.3752L68.3173 43.3625L68.2585 43.5449H68.0693L68.2228 43.6568L68.1639 43.8383Z" fill="white"/>
<path d="M69.2945 43.6568L69.2366 43.8383L69.3891 43.7263L69.5444 43.8383L69.4856 43.6568L69.639 43.5449H69.4499L69.3891 43.3625L69.3302 43.5449H69.1411L69.2945 43.6568Z" fill="white"/>
<path d="M70.3089 43.8383L70.4623 43.7263L70.6177 43.8383L70.5588 43.6568L70.7122 43.5449H70.5231L70.4623 43.3625L70.4035 43.5449H70.2144L70.3678 43.6568L70.3089 43.8383Z" fill="white"/>
<path d="M71.3817 43.8383L71.5351 43.7263L71.6904 43.8383L71.6316 43.6568L71.784 43.5449H71.5939L71.5351 43.3625L71.4762 43.5449H71.2871L71.4405 43.6568L71.3817 43.8383Z" fill="white"/>
<path d="M72.5123 43.6568L72.4544 43.8383L72.6069 43.7263L72.7622 43.8383L72.7034 43.6568L72.8568 43.5449H72.6677L72.6069 43.3625L72.549 43.5449H72.3599L72.5123 43.6568Z" fill="white"/>
<path d="M67.6395 44.2994L67.7939 44.1856L67.9473 44.2994L67.8884 44.118L68.0438 44.0061H67.8527L67.7939 43.8247L67.736 44.0061H67.5449L67.6993 44.118L67.6395 44.2994Z" fill="white"/>
<path d="M68.7122 44.2994L68.8676 44.1856L69.021 44.2994L68.9621 44.118L69.1175 44.0061H68.9264L68.8676 43.8247L68.8087 44.0061H68.6177L68.773 44.118L68.7122 44.2994Z" fill="white"/>
<path d="M69.785 44.2994L69.9403 44.1856L70.0938 44.2994L70.0349 44.118L70.1903 44.0061H69.9992L69.9403 43.8247L69.8815 44.0061H69.6904L69.8439 44.118L69.785 44.2994Z" fill="white"/>
<path d="M71.262 44.0061H71.071L71.0121 43.8247L70.9542 44.0061H70.7632L70.9185 44.118L70.8577 44.2994L71.0121 44.1856L71.1655 44.2994L71.1077 44.118L71.262 44.0061Z" fill="white"/>
<path d="M72.3348 44.0061H72.1437L72.0849 43.8247L72.026 44.0061H71.835L71.9884 44.118L71.9295 44.2994L72.0849 44.1856L72.2383 44.2994L72.1794 44.118L72.3348 44.0061Z" fill="white"/>
<path d="M67.1055 44.7538L67.2608 44.6419L67.4152 44.7538L67.3554 44.5734L67.5107 44.4625H67.3178L67.2801 44.3467C67.2367 44.419 67.1962 44.4933 67.1576 44.5686H67.1643L67.1055 44.7538Z" fill="white"/>
<path d="M68.18 44.7541L68.3334 44.6421L68.4888 44.7541L68.428 44.5736L68.5833 44.4627H68.3923L68.3334 44.2812L68.2745 44.4627H68.0835L68.2388 44.5736L68.18 44.7541Z" fill="white"/>
<path d="M69.465 44.4627L69.4062 44.2812L69.3473 44.4627H69.1562L69.3116 44.5736L69.2508 44.7541L69.4062 44.6421L69.5596 44.7541L69.5007 44.5736L69.6561 44.4627H69.465Z" fill="white"/>
<path d="M70.326 44.7541L70.4794 44.6421L70.6319 44.7541L70.574 44.5736L70.7283 44.4627H70.5373L70.4794 44.2812L70.4205 44.4627H70.2295L70.3848 44.5736L70.326 44.7541Z" fill="white"/>
<path d="M71.611 44.4627L71.5522 44.2812L71.4933 44.4627H71.3022L71.4576 44.5736L71.3968 44.7541L71.5522 44.6421L71.7056 44.7541L71.6467 44.5736L71.8021 44.4627H71.611Z" fill="white"/>
<path d="M72.6828 44.4627L72.6239 44.2812L72.5651 44.4627H72.374L72.5294 44.5736L72.4705 44.7541L72.6239 44.6421L72.7774 44.7541L72.7185 44.5736L72.8738 44.4627H72.6828Z" fill="white"/>
<path d="M67.1161 45.6598L67.2695 45.5479L67.4248 45.6598L67.366 45.4784L67.5194 45.3665H67.3283L67.2695 45.1851L67.2116 45.3665H67.0225L67.1749 45.4784L67.1161 45.6598Z" fill="white"/>
<path d="M68.4985 45.6598L68.4397 45.4784L68.5931 45.3665H68.402L68.3432 45.1851L68.2843 45.3665H68.0933L68.2486 45.4784L68.1898 45.6598L68.3432 45.5479L68.4985 45.6598Z" fill="white"/>
<path d="M69.5718 45.6598L69.5129 45.4784L69.6663 45.3665H69.4753L69.4164 45.1851L69.3576 45.3665H69.1685L69.3219 45.4784L69.263 45.6598L69.4164 45.5479L69.5718 45.6598Z" fill="white"/>
<path d="M70.6436 45.6598L70.5847 45.4784L70.7381 45.3665H70.5471L70.4882 45.1851L70.4303 45.3665H70.2393L70.3936 45.4784L70.3357 45.6598L70.4882 45.5479L70.6436 45.6598Z" fill="white"/>
<path d="M71.7173 45.6598L71.6584 45.4784L71.8119 45.3665H71.6208L71.5619 45.1851L71.5031 45.3665H71.314L71.4674 45.4784L71.4085 45.6598L71.5619 45.5479L71.7173 45.6598Z" fill="white"/>
<path d="M72.8836 45.3665H72.6926L72.6337 45.1851L72.5748 45.3665H72.3838L72.5391 45.4784L72.4803 45.6598L72.6337 45.5479L72.7891 45.6598L72.7302 45.4784L72.8836 45.3665Z" fill="white"/>
<path d="M67.3181 46.2825L67.2582 46.1011L67.1994 46.2825H67.0103L67.1637 46.3944L67.1048 46.5758L67.2582 46.462L67.4126 46.5758L67.3547 46.3944L67.5072 46.2825H67.3181Z" fill="white"/>
<path d="M68.3884 46.2825L68.3295 46.1011L68.2716 46.2825H68.0815L68.235 46.3944L68.1771 46.5758L68.3295 46.462L68.4849 46.5758L68.426 46.3944L68.5794 46.2825H68.3884Z" fill="white"/>
<path d="M69.4636 46.2825L69.4028 46.1011L69.3439 46.2825H69.1548L69.3082 46.3944L69.2493 46.5758L69.4028 46.462L69.5581 46.5758L69.4993 46.3944L69.6527 46.2825H69.4636Z" fill="white"/>
<path d="M70.5334 46.2825L70.4755 46.1011L70.4166 46.2825H70.2256L70.3809 46.3944L70.3221 46.5758L70.4755 46.462L70.6299 46.5758L70.572 46.3944L70.7254 46.2825H70.5334Z" fill="white"/>
<path d="M71.6081 46.2825L71.5473 46.1011L71.4894 46.2825H71.3003L71.4527 46.3944L71.3949 46.5758L71.5473 46.462L71.7027 46.5758L71.6438 46.3944L71.7972 46.2825H71.6081Z" fill="white"/>
<path d="M72.6789 46.2825L72.6201 46.1011L72.5612 46.2825H72.3721L72.5255 46.3944L72.4666 46.5758L72.6201 46.462L72.7754 46.5758L72.7165 46.3944L72.87 46.2825H72.6789Z" fill="white"/>
<path d="M67.5493 44.9082L67.7018 45.0202L67.6439 45.2016L67.7983 45.0906L67.9517 45.2016L67.8928 45.0202L68.0462 44.9082H67.8571L67.7983 44.7288L67.7384 44.9082H67.5493Z" fill="white"/>
<path d="M68.6211 44.9082L68.7745 45.0202L68.7157 45.2016L68.871 45.0906L69.0244 45.2016L68.9656 45.0202L69.119 44.9082H68.9299L68.871 44.7288L68.8102 44.9082H68.6211Z" fill="white"/>
<path d="M69.883 44.9082H69.6938L69.8473 45.0202L69.7884 45.2016L69.9418 45.0906L70.0972 45.2016L70.0383 45.0202L70.1917 44.9082H70.0026L69.9418 44.7288L69.883 44.9082Z" fill="white"/>
<path d="M70.9562 44.9082H70.7671L70.9195 45.0202L70.8617 45.2016L71.016 45.0906L71.1695 45.2016L71.1116 45.0202L71.264 44.9082H71.0749L71.016 44.7288L70.9562 44.9082Z" fill="white"/>
<path d="M72.0275 44.9082H71.8384L71.9918 45.0202L71.9329 45.2016L72.0883 45.0906L72.2417 45.2016L72.1828 45.0202L72.3363 44.9082H72.1471L72.0883 44.7288L72.0275 44.9082Z" fill="white"/>
<path d="M67.6395 46.1151L67.7939 46.0042L67.9473 46.1151L67.8884 45.9357L68.0438 45.8218H67.8527L67.7939 45.6423L67.736 45.8218H67.5449L67.6993 45.9357L67.6395 46.1151Z" fill="white"/>
<path d="M68.9264 45.8218L68.8676 45.6423L68.8087 45.8218H68.6177L68.773 45.9357L68.7122 46.1151L68.8676 46.0042L69.021 46.1151L68.9621 45.9357L69.1175 45.8218H68.9264Z" fill="white"/>
<path d="M69.9992 45.8218L69.9403 45.6423L69.8815 45.8218H69.6904L69.8439 45.9357L69.785 46.1151L69.9403 46.0042L70.0938 46.1151L70.0349 45.9357L70.1903 45.8218H69.9992Z" fill="white"/>
<path d="M71.071 45.8218L71.0121 45.6423L70.9542 45.8218H70.7632L70.9185 45.9357L70.8577 46.1151L71.0121 46.0042L71.1655 46.1151L71.1077 45.9357L71.262 45.8218H71.071Z" fill="white"/>
<path d="M72.1437 45.8218L72.0849 45.6423L72.026 45.8218H71.835L71.9884 45.9357L71.9295 46.1151L72.0849 46.0042L72.2383 46.1151L72.1794 45.9357L72.3348 45.8218H72.1437Z" fill="white"/>
<path d="M257.073 51.2101C257.073 52.1402 256.798 53.0494 256.281 53.8228C255.764 54.5962 255.029 55.1991 254.17 55.555C253.311 55.911 252.365 56.0041 251.453 55.8227C250.541 55.6412 249.703 55.1932 249.045 54.5355C248.387 53.8778 247.939 53.0398 247.758 52.1276C247.576 51.2153 247.67 50.2696 248.025 49.4103C248.381 48.5509 248.984 47.8164 249.758 47.2996C250.531 46.7829 251.44 46.5071 252.37 46.5071V46.5071C253.618 46.5071 254.814 47.0025 255.696 47.8845C256.578 48.7665 257.073 49.9628 257.073 51.2101V51.2101Z" fill="white"/>
<path d="M248.143 52.1924C248.403 53.247 249.048 54.1666 249.95 54.7707V52.1924H248.143Z" fill="#0067A2"/>
<path d="M251.724 55.4567C252.797 55.6177 253.891 55.3722 254.792 54.7683C255.693 54.1645 256.336 53.2457 256.595 52.1924H251.724V55.4567Z" fill="#0067A2"/>
<path d="M249.951 47.5369C249.46 47.8652 249.041 48.2901 248.719 48.7856C248.398 49.2811 248.181 49.8369 248.082 50.419H249.951V47.5369Z" fill="#0067A2"/>
<path d="M252.37 46.8025C252.154 46.8024 251.938 46.8185 251.724 46.8507V50.4209H256.658C256.485 49.4088 255.959 48.4905 255.175 47.8284C254.39 47.1662 253.396 46.8028 252.37 46.8025Z" fill="#0067A2"/>
<path d="M249.951 52.1924V54.7707C250.484 55.1283 251.09 55.3626 251.725 55.4567V52.1924H249.951Z" fill="#FED200"/>
<path d="M251.725 50.4188V46.8486C251.09 46.9427 250.484 47.1771 249.951 47.5347V50.4169L251.725 50.4188Z" fill="#FED200"/>
<path d="M249.95 50.4192H248.081C248.039 50.662 248.018 50.908 248.018 51.1545C248.018 51.5043 248.06 51.8528 248.143 52.1927H256.598C256.681 51.8529 256.723 51.5043 256.723 51.1545C256.723 50.908 256.702 50.6621 256.66 50.4192H249.953H249.95Z" fill="#FED200"/>
<path d="M254.616 117.593C254.616 118.523 254.34 119.433 253.823 120.206C253.306 120.979 252.572 121.582 251.712 121.938C250.853 122.293 249.907 122.386 248.995 122.205C248.083 122.023 247.245 121.575 246.588 120.918C245.93 120.26 245.482 119.422 245.301 118.51C245.119 117.597 245.213 116.652 245.569 115.792C245.925 114.933 246.527 114.199 247.301 113.682C248.074 113.165 248.983 112.889 249.913 112.889V112.889C250.531 112.889 251.143 113.011 251.713 113.248C252.284 113.484 252.802 113.83 253.239 114.267C253.676 114.704 254.022 115.223 254.259 115.793C254.495 116.364 254.616 116.976 254.616 117.593V117.593Z" fill="white"/>
<path d="M249.913 113.269C249.302 113.268 248.698 113.397 248.14 113.646V121.592C248.698 121.842 249.302 121.971 249.913 121.971C250.524 121.971 251.129 121.842 251.687 121.592V113.645C251.129 113.396 250.524 113.268 249.913 113.269V113.269Z" fill="white"/>
<path d="M245.563 117.62C245.563 118.46 245.806 119.283 246.264 119.988C246.721 120.693 247.373 121.251 248.14 121.593V113.646C247.373 113.989 246.721 114.546 246.264 115.252C245.806 115.957 245.563 116.779 245.563 117.62V117.62Z" fill="#0033A7"/>
<path d="M254.265 117.62C254.265 116.779 254.021 115.957 253.563 115.252C253.106 114.546 252.454 113.989 251.687 113.646V121.592C252.454 121.25 253.106 120.692 253.563 119.987C254.021 119.282 254.265 118.46 254.265 117.62V117.62Z" fill="#F43D45"/>
<path d="M163.335 112.473L153.413 112.41C152.19 112.402 151.019 111.909 150.159 111.038C149.3 110.167 148.821 108.99 148.829 107.766C148.837 106.543 149.33 105.372 150.201 104.512C151.072 103.653 152.249 103.174 153.472 103.182L163.393 103.244C164.617 103.252 165.788 103.746 166.648 104.617C167.507 105.488 167.986 106.664 167.978 107.888C167.97 109.112 167.477 110.282 166.606 111.142C165.735 112.002 164.558 112.481 163.335 112.473V112.473Z" fill="#3BFFB7" stroke="black" stroke-width="0.406593" stroke-miterlimit="10"/>
<path d="M168.423 111.077C170.224 109.275 170.224 106.354 168.423 104.553C166.621 102.751 163.7 102.751 161.899 104.553C160.097 106.354 160.097 109.275 161.899 111.077C163.7 112.879 166.621 112.878 168.423 111.077Z" fill="white" stroke="black" stroke-width="0.406593" stroke-miterlimit="10"/>
<path fill-rule="evenodd" clip-rule="evenodd" d="M191.736 38.1366C191.721 37.24 191.354 36.3852 190.714 35.7565C190.075 35.1278 189.214 34.7754 188.318 34.7754C187.421 34.7754 186.56 35.1278 185.921 35.7565C185.281 36.3852 184.914 37.24 184.899 38.1366H191.736Z" fill="#6A45E3" stroke="black" stroke-width="0.406593" stroke-linecap="round" stroke-linejoin="round"/>
<path d="M188.317 33.8109C189.476 33.8109 190.415 32.8717 190.415 31.7132C190.415 30.5547 189.476 29.6155 188.317 29.6155C187.159 29.6155 186.22 30.5547 186.22 31.7132C186.22 32.8717 187.159 33.8109 188.317 33.8109Z" fill="#6A45E3" stroke="black" stroke-width="0.406593" stroke-linecap="round" stroke-linejoin="round"/>
<path d="M162.539 31.5386H153.897C153.438 31.5386 153.065 31.911 153.065 32.3703V37.3048C153.065 37.7642 153.438 38.1366 153.897 38.1366H162.539C162.998 38.1366 163.371 37.7642 163.371 37.3048V32.3703C163.371 31.911 162.998 31.5386 162.539 31.5386Z" fill="#C3C4FD" stroke="black" stroke-width="0.406593" stroke-linecap="round" stroke-linejoin="round"/>
<path fill-rule="evenodd" clip-rule="evenodd" d="M156.377 31.3958V30.3026C156.377 30.1383 156.442 29.9807 156.558 29.8645C156.675 29.7483 156.832 29.6831 156.996 29.6831H159.441C159.606 29.6831 159.763 29.7483 159.88 29.8645C159.996 29.9807 160.061 30.1383 160.061 30.3026V31.3958" fill="white"/>
<path d="M156.377 31.3958V30.3026C156.377 30.1383 156.442 29.9807 156.558 29.8645C156.675 29.7483 156.832 29.6831 156.996 29.6831H159.441C159.606 29.6831 159.763 29.7483 159.88 29.8645C159.996 29.9807 160.061 30.1383 160.061 30.3026V31.3958" stroke="black" stroke-width="0.406593" stroke-linecap="round" stroke-linejoin="round"/>
<path d="M155.642 31.7163V37.9621" stroke="black" stroke-width="0.406593" stroke-linecap="round" stroke-linejoin="round"/>
<path d="M160.794 31.7163V37.9621" stroke="black" stroke-width="0.406593" stroke-linecap="round" stroke-linejoin="round"/>
<path d="M211.19 31.8726C211.062 31.7538 210.916 31.6561 210.757 31.5831C210.596 31.5069 210.419 31.4668 210.24 31.4654C209.964 31.4623 209.697 31.566 209.495 31.7549C209.398 31.8448 209.321 31.9537 209.268 32.0749C209.215 32.1961 209.188 32.327 209.188 32.4592C209.188 32.5915 209.215 32.7224 209.268 32.8436C209.321 32.9648 209.398 33.0737 209.495 33.1636C209.862 33.51 210.4 33.3672 210.833 33.5689C211.012 33.6606 211.163 33.7998 211.269 33.9713C211.375 34.1428 211.431 34.34 211.433 34.5415C211.433 34.7927 211.355 35.0376 211.209 35.242C210.815 35.7602 210.064 35.8286 209.514 35.5044C209.333 35.3947 209.171 35.2581 209.031 35.0992" stroke="black" stroke-width="0.406593" stroke-linecap="round" stroke-linejoin="round"/>
<path d="M210.23 31.4624V30.7927" stroke="black" stroke-width="0.406593" stroke-linecap="round" stroke-linejoin="round"/>
<path d="M210.23 36.372V35.7024" stroke="black" stroke-width="0.406593" stroke-linecap="round" stroke-linejoin="round"/>
<path d="M213.978 33.1638H216.703" stroke="black" stroke-width="0.406593" stroke-linecap="round" stroke-linejoin="round"/>
<path d="M217.357 31.6874C217.08 31.5216 216.764 31.4339 216.441 31.4336C215.355 31.4336 214.475 32.4246 214.475 33.6481C214.475 34.8716 215.355 35.8674 216.441 35.8674C216.706 35.8674 216.968 35.8079 217.207 35.6936" stroke="black" stroke-width="0.406593" stroke-linecap="round" stroke-linejoin="round"/>
<path d="M213.978 34.1274H216.314" stroke="black" stroke-width="0.406593" stroke-linecap="round" stroke-linejoin="round"/>
<path d="M222.79 31.4189L221.104 33.1037L219.419 31.4189" stroke="black" stroke-width="0.406593" stroke-linecap="round" stroke-linejoin="round"/>
<path d="M221.104 36.0109V33.3149" stroke="black" stroke-width="0.406593" stroke-linecap="round" stroke-linejoin="round"/>
<path d="M219.805 33.4836H222.402" stroke="black" stroke-width="0.406593" stroke-linecap="round" stroke-linejoin="round"/>
<path d="M219.805 34.6631H222.402" stroke="black" stroke-width="0.406593" stroke-linecap="round" stroke-linejoin="round"/>
<path d="M227.66 32.2804C227.638 31.9847 227.508 31.7075 227.294 31.5017C227.098 31.3207 226.84 31.2219 226.573 31.2257C226.432 31.2209 226.292 31.2452 226.162 31.297C226.031 31.3488 225.913 31.427 225.814 31.5268C225.72 31.6174 225.645 31.7261 225.594 31.8466C225.543 31.967 225.517 32.0965 225.518 32.2272C225.518 32.9027 225.818 33.4932 225.917 34.1436C226.024 34.8374 225.697 35.4337 225.224 35.919L225.24 35.9393C225.423 35.8728 225.617 35.8401 225.812 35.8428C226.342 35.8428 226.833 36.0521 227.356 36.1033C227.697 36.1361 228.009 36.0309 228.314 35.8843" stroke="black" stroke-width="0.406593" stroke-linecap="round" stroke-linejoin="round"/>
<path d="M224.769 33.7986H227.159" stroke="black" stroke-width="0.406593" stroke-linecap="round" stroke-linejoin="round"/>
</svg>
