<svg width="24" height="24" viewBox="0 0 24 24" fill="none" xmlns="http://www.w3.org/2000/svg">
<path d="M12 5.00001C9.879 5.00239 7.84555 5.84601 6.34578 7.34579C4.846 8.84556 4.00238 10.879 4 13C3.9995 14.1874 4.26608 15.3596 4.78 16.43C4.83021 16.5578 4.90621 16.674 5.00326 16.7711C5.10032 16.8683 5.21635 16.9444 5.34412 16.9948C5.47189 17.0452 5.60867 17.0687 5.74592 17.0638C5.88318 17.059 6.01797 17.026 6.14189 16.9668C6.26581 16.9075 6.37621 16.8234 6.4662 16.7197C6.55619 16.616 6.62385 16.4948 6.66495 16.3637C6.70605 16.2327 6.71972 16.0946 6.70511 15.958C6.69049 15.8215 6.64791 15.6894 6.58 15.57C6.19682 14.7675 5.99862 13.8893 6 13C5.99772 12.0988 6.19848 11.2086 6.58739 10.3956C6.97629 9.58264 7.54335 8.8677 8.24644 8.30391C8.94953 7.74011 9.7706 7.34194 10.6487 7.13897C11.5267 6.93599 12.4392 6.93343 13.3184 7.13147C14.1976 7.32951 15.0209 7.72306 15.7272 8.2829C16.4334 8.84274 17.0045 9.55449 17.3979 10.3653C17.7914 11.1761 17.9972 12.0651 18 12.9663C18.0027 13.8675 17.8025 14.7578 17.414 15.571C17.3577 15.6897 17.3252 15.8182 17.3186 15.9494C17.312 16.0806 17.3312 16.2118 17.3753 16.3355C17.4193 16.4593 17.4873 16.5731 17.5754 16.6706C17.6635 16.768 17.7698 16.8472 17.8885 16.9035C18.0071 16.9598 18.1357 16.9923 18.2669 16.9989C18.3981 17.0056 18.5293 16.9863 18.653 16.9422C18.7768 16.8982 18.8906 16.8302 18.9881 16.7421C19.0855 16.6541 19.1647 16.5477 19.221 16.429C19.8027 15.2105 20.0659 13.8643 19.9862 12.5164C19.9065 11.1685 19.4864 9.86284 18.7652 8.72133C18.044 7.57982 17.0452 6.63977 15.8621 5.98899C14.679 5.33821 13.3503 4.99796 12 5.00001Z" fill="#3D3D3D"/>
<path d="M15.7691 11.078C15.6573 11.0069 15.5218 10.983 15.3924 11.0117C15.263 11.0404 15.1503 11.1193 15.0791 11.231L12.6161 15.1C12.2934 14.9947 11.9492 14.9733 11.6159 15.0377C11.2826 15.1022 10.9712 15.2504 10.711 15.4684C10.4508 15.6865 10.2504 15.9671 10.1287 16.284C10.0069 16.6009 9.96783 16.9435 10.0151 17.2797C10.0623 17.6158 10.1943 17.9344 10.3987 18.2054C10.6031 18.4765 10.8731 18.6911 11.1833 18.8289C11.4935 18.9668 11.8336 19.0235 12.1718 18.9936C12.5099 18.9637 12.8349 18.8482 13.1161 18.658C13.3289 18.5142 13.5122 18.3308 13.6561 18.118C13.9158 17.7459 14.0379 17.2949 14.0014 16.8426C13.9649 16.3902 13.7721 15.9647 13.4561 15.639L15.9191 11.768C15.9905 11.6566 16.0148 11.5214 15.9867 11.392C15.9586 11.2627 15.8803 11.1497 15.7691 11.078Z" fill="#3D3D3D"/>
</svg>
