<svg width="24" height="24" viewBox="0 0 24 24" fill="none" xmlns="http://www.w3.org/2000/svg">
<path fill-rule="evenodd" clip-rule="evenodd" d="M5.77778 4C4.79594 4 4 4.79594 4 5.77778V9.33333C4 10.3152 4.79594 11.1111 5.77778 11.1111H9.33333C10.3152 11.1111 11.1111 10.3152 11.1111 9.33333V5.77778C11.1111 4.79594 10.3152 4 9.33333 4H5.77778ZM5.77778 12.8889C4.79594 12.8889 4 13.6848 4 14.6667V18.2222C4 19.2041 4.79594 20 5.77778 20H9.33333C10.3152 20 11.1111 19.2041 11.1111 18.2222V14.6667C11.1111 13.6848 10.3152 12.8889 9.33333 12.8889H5.77778ZM12.8889 14.6667C12.8889 13.6848 13.6848 12.8889 14.6667 12.8889H18.2222C19.2041 12.8889 20 13.6848 20 14.6667V18.2222C20 19.2041 19.2041 20 18.2222 20H14.6667C13.6848 20 12.8889 19.2041 12.8889 18.2222V14.6667ZM19.9208 4.62779C19.7639 4.24822 19.3939 4.00048 18.9833 4H13.9046C13.3436 4 12.8889 4.45481 12.8889 5.01584C12.8889 5.57688 13.3436 6.03169 13.9046 6.03169H16.5313L13.1865 9.37686C12.7899 9.77379 12.7901 10.4171 13.187 10.8138C13.5839 11.2104 14.2271 11.2102 14.6238 10.8133L17.9685 7.46809V10.0951C17.9685 10.6561 18.4233 11.1109 18.9843 11.1109C19.5452 11.1109 20 10.6561 20 10.0951V5.01584C19.9996 4.88262 19.9731 4.75076 19.9218 4.62779H19.9208Z" fill="#3D3D3D"/>
</svg>
