<svg width="24" height="24" viewBox="0 0 24 24" fill="none" xmlns="http://www.w3.org/2000/svg">
<path fill-rule="evenodd" clip-rule="evenodd" d="M12 2.70005C11.0059 2.70005 10.2 3.50594 10.2 4.50005C10.2 5.49416 11.0059 6.30005 12 6.30005C12.9942 6.30005 13.8 5.49416 13.8 4.50005C13.8 3.50594 12.9942 2.70005 12 2.70005ZM7.80005 4.50005C7.80005 2.18045 9.68045 0.300049 12 0.300049C14.3196 0.300049 16.2 2.18045 16.2 4.50005C16.2 6.81964 14.3196 8.70005 12 8.70005C11.2767 8.70005 10.5961 8.51721 10.0019 8.19522L8.19522 10.0019C8.33158 10.2536 8.44299 10.5207 8.52612 10.8H15.474C15.9903 9.06515 17.5974 7.80005 19.5 7.80005C21.8196 7.80005 23.7001 9.68045 23.7001 12C23.7001 14.3196 21.8196 16.2 19.5 16.2C18.7767 16.2 18.0961 16.0172 17.5019 15.6952L15.6952 17.5019C16.0172 18.0961 16.2 18.7767 16.2 19.5C16.2 21.8196 14.3196 23.7001 12 23.7001C9.68045 23.7001 7.80005 21.8196 7.80005 19.5C7.80005 17.1805 9.68045 15.3 12 15.3C12.7234 15.3 13.404 15.4829 13.9982 15.8049L15.8049 13.9982C15.6685 13.7465 15.5571 13.4794 15.474 13.2H8.52612C8.0098 14.9349 6.40266 16.2 4.50005 16.2C2.18045 16.2 0.300049 14.3196 0.300049 12C0.300049 9.68045 2.18045 7.80005 4.50005 7.80005C5.22336 7.80005 5.90396 7.98289 6.49816 8.30487L8.30487 6.49816C7.98289 5.90396 7.80005 5.22336 7.80005 4.50005ZM10.2 19.5C10.2 18.5059 11.0059 17.7 12 17.7C12.9942 17.7 13.8 18.5059 13.8 19.5C13.8 20.4942 12.9942 21.3 12 21.3C11.0059 21.3 10.2 20.4942 10.2 19.5ZM4.50005 10.2C3.50594 10.2 2.70005 11.0059 2.70005 12C2.70005 12.9942 3.50594 13.8 4.50005 13.8C5.49416 13.8 6.30005 12.9942 6.30005 12C6.30005 11.0059 5.49416 10.2 4.50005 10.2ZM17.7 12C17.7 11.0059 18.5059 10.2 19.5 10.2C20.4942 10.2 21.3 11.0059 21.3 12C21.3 12.9942 20.4942 13.8 19.5 13.8C18.5059 13.8 17.7 12.9942 17.7 12Z" fill="black"/>
</svg>
