<svg width="30" height="30" viewBox="0 0 30 30" fill="none" xmlns="http://www.w3.org/2000/svg">
<path fill-rule="evenodd" clip-rule="evenodd" d="M26.6667 15C26.6667 21.4433 21.4433 26.6667 15 26.6667C8.55668 26.6667 3.33333 21.4433 3.33333 15C3.33333 8.55668 8.55668 3.33333 15 3.33333C21.4433 3.33333 26.6667 8.55668 26.6667 15ZM30 15C30 23.2843 23.2843 30 15 30C6.71573 30 0 23.2843 0 15C0 6.71573 6.71573 0 15 0C23.2843 0 30 6.71573 30 15ZM11.6667 13.3333C12.5871 13.3333 13.3333 12.5871 13.3333 11.6667C13.3333 10.7462 12.5871 10 11.6667 10C10.7462 10 10 10.7462 10 11.6667C10 12.5871 10.7462 13.3333 11.6667 13.3333ZM20 11.6667C20 12.5871 19.2538 13.3333 18.3334 13.3333C17.4129 13.3333 16.6667 12.5871 16.6667 11.6667C16.6667 10.7462 17.4129 10 18.3334 10C19.2538 10 20 10.7462 20 11.6667ZM9.66663 21.6667L9.67182 21.6667H11.6666H14.9999L15.8546 21.6667L18.3333 21.6667H20.3333V21.6667H20.3335C21.0699 21.6667 21.6668 20.9205 21.6668 20C21.6668 19.0795 21.0699 18.3333 20.3335 18.3333L20.327 18.3334H14.9999H9.67299L9.66663 18.3333C8.93025 18.3333 8.33329 19.0795 8.33329 20C8.33329 20.9205 8.93025 21.6667 9.66663 21.6667Z" fill="#6D6D6E"/>
</svg>
