<svg width="30" height="30" viewBox="0 0 30 30" fill="none" xmlns="http://www.w3.org/2000/svg">
<path fill-rule="evenodd" clip-rule="evenodd" d="M26.6667 15C26.6667 21.4433 21.4433 26.6667 15 26.6667C8.55668 26.6667 3.33333 21.4433 3.33333 15C3.33333 8.55668 8.55668 3.33333 15 3.33333C21.4433 3.33333 26.6667 8.55668 26.6667 15ZM30 15C30 23.2843 23.2843 30 15 30C6.71573 30 0 23.2843 0 15C0 6.71573 6.71573 0 15 0C23.2843 0 30 6.71573 30 15ZM11.6667 13.3333C12.5871 13.3333 13.3333 12.5871 13.3333 11.6667C13.3333 10.7462 12.5871 10 11.6667 10C10.7462 10 10 10.7462 10 11.6667C10 12.5871 10.7462 13.3333 11.6667 13.3333ZM20.0001 11.6667C20.0001 12.5871 19.2539 13.3333 18.3335 13.3333C17.413 13.3333 16.6668 12.5871 16.6668 11.6667C16.6668 10.7462 17.413 10 18.3335 10C19.2539 10 20.0001 10.7462 20.0001 11.6667ZM9.72038 17.4088C9.20979 16.643 8.17501 16.436 7.40913 16.9466C6.64325 17.4572 6.43629 18.492 6.94688 19.2578C7.9085 20.7003 10.7453 23.3333 15.0003 23.3333C19.2553 23.3333 22.0921 20.7003 23.0537 19.2578C23.5643 18.492 23.3573 17.4572 22.5915 16.9466C21.8256 16.436 20.7908 16.643 20.2802 17.4088C19.7604 18.1886 17.8564 20 15.0003 20C12.1442 20 10.2402 18.1886 9.72038 17.4088Z" fill="#6D6D6E"/>
</svg>
