<svg width="30" height="30" viewBox="0 0 30 30" fill="none" xmlns="http://www.w3.org/2000/svg">
<path fill-rule="evenodd" clip-rule="evenodd" d="M26.6667 15C26.6667 21.4433 21.4433 26.6667 15 26.6667C8.55668 26.6667 3.33333 21.4433 3.33333 15C3.33333 8.55668 8.55668 3.33333 15 3.33333C21.4433 3.33333 26.6667 8.55668 26.6667 15ZM30 15C30 23.2843 23.2843 30 15 30C6.71573 30 0 23.2843 0 15C0 6.71573 6.71573 0 15 0C23.2843 0 30 6.71573 30 15ZM11.6667 13.3333C12.5871 13.3333 13.3333 12.5871 13.3333 11.6667C13.3333 10.7462 12.5871 10 11.6667 10C10.7462 10 10 10.7462 10 11.6667C10 12.5871 10.7462 13.3333 11.6667 13.3333ZM20.0001 11.6667C20.0001 12.5871 19.2539 13.3333 18.3335 13.3333C17.413 13.3333 16.6668 12.5871 16.6668 11.6667C16.6668 10.7462 17.413 10 18.3335 10C19.2539 10 20.0001 10.7462 20.0001 11.6667ZM19.7518 21.8041C20.2113 22.5221 21.1426 22.7161 21.8319 22.2374C22.5212 21.7588 22.7074 20.7887 22.2479 20.0707C21.3825 18.7184 18.8294 16.25 15 16.25C11.1706 16.25 8.61752 18.7184 7.75208 20.0707C7.29256 20.7887 7.47882 21.7588 8.16809 22.2374C8.85737 22.7161 9.78866 22.5221 10.2482 21.8041C10.716 21.073 12.4296 19.3749 15 19.3749C17.5704 19.3749 19.284 21.073 19.7518 21.8041Z" fill="#6D6D6E"/>
</svg>
