<svg width="30" height="30" viewBox="0 0 30 30" fill="none" xmlns="http://www.w3.org/2000/svg">
<path fill-rule="evenodd" clip-rule="evenodd" d="M26.6667 15C26.6667 21.4433 21.4433 26.6667 15 26.6667C8.55668 26.6667 3.33333 21.4433 3.33333 15C3.33333 8.55668 8.55668 3.33333 15 3.33333C21.4433 3.33333 26.6667 8.55668 26.6667 15ZM30 15C30 23.2843 23.2843 30 15 30C6.71573 30 0 23.2843 0 15C0 6.71573 6.71573 0 15 0C23.2843 0 30 6.71573 30 15ZM11.6667 13.3333C12.5871 13.3333 13.3333 12.5871 13.3333 11.6667C13.3333 10.7462 12.5871 10 11.6667 10C10.7462 10 10 10.7462 10 11.6667C10 12.5871 10.7462 13.3333 11.6667 13.3333ZM20.0001 11.6667C20.0001 12.5871 19.2539 13.3333 18.3335 13.3333C17.413 13.3333 16.6668 12.5871 16.6668 11.6667C16.6668 10.7462 17.413 10 18.3335 10C19.2539 10 20.0001 10.7462 20.0001 11.6667ZM18.8827 22.5L21.6809 22.5C22.8779 22.4999 22.5327 20.9877 22.0857 20.2382C21.2437 18.8267 18.7599 16.25 15.0344 16.25C11.3089 16.25 8.82514 18.8267 7.98318 20.2382C7.53613 20.9877 7.00887 22.5 8.38791 22.5L10.4999 22.5L14.5263 22.5C15.5282 22.5 15.5746 22.5 15.6117 22.5C15.6672 22.5 15.7016 22.5 18.8827 22.5Z" fill="#6D6D6E"/>
</svg>
