<svg width="321" height="160" viewBox="0 0 321 160" fill="none" xmlns="http://www.w3.org/2000/svg">
<path d="M240.095 79.0276H211.061C211.305 77.6483 212.028 76.3992 213.102 75.4997C214.176 74.6003 215.533 74.108 216.934 74.1091H217.16C217.986 72.6375 219.227 71.4417 220.729 70.6707C222.23 69.8998 223.925 69.5878 225.602 69.7738C227.279 69.9598 228.865 70.6355 230.16 71.7166C231.456 72.7977 232.405 74.2365 232.888 75.8533C233.502 75.2853 234.268 74.9089 235.092 74.7702C235.917 74.6316 236.764 74.7368 237.529 75.0729C238.294 75.4091 238.945 75.9613 239.401 76.6622C239.857 77.363 240.098 78.1817 240.095 79.0176V79.0276Z" fill="#AD79FF" stroke="#AD79FF" stroke-width="0.202122" stroke-miterlimit="10"/>
<path d="M188.894 92.6377C196.156 92.6377 203.254 90.4843 209.292 86.4499C215.33 82.4155 220.036 76.6814 222.815 69.9724C225.594 63.2634 226.321 55.8808 224.904 48.7586C223.488 41.6364 219.991 35.0942 214.856 29.9594C209.721 24.8246 203.179 21.3278 196.057 19.9111C188.935 18.4944 181.552 19.2214 174.843 22.0004C168.134 24.7793 162.4 29.4854 158.366 35.5233C154.331 41.5612 152.178 48.6599 152.178 55.9217C152.177 60.7434 153.127 65.5179 154.972 69.9726C156.817 74.4274 159.521 78.4752 162.931 81.8846C166.34 85.2941 170.388 87.9986 174.843 89.8437C179.298 91.6887 184.072 92.638 188.894 92.6377V92.6377Z" stroke="white" stroke-width="0.787487" stroke-miterlimit="10"/>
<path d="M188.893 87.7192C195.182 87.7192 201.33 85.8541 206.559 82.3602C211.788 78.8662 215.863 73.9002 218.27 68.09C220.677 62.2798 221.306 55.8864 220.079 49.7183C218.853 43.5502 215.824 37.8844 211.377 33.4374C206.93 28.9905 201.265 25.9622 195.096 24.7353C188.928 23.5084 182.535 24.138 176.725 26.5447C170.915 28.9514 165.948 33.0269 162.455 38.256C158.961 43.485 157.096 49.6328 157.096 55.9217C157.096 64.3549 160.446 72.4425 166.409 78.4057C172.372 84.3689 180.46 87.7192 188.893 87.7192Z" fill="#C3C5FF" stroke="#C2C6FF" stroke-width="0.202122" stroke-miterlimit="10"/>
<path d="M179.133 91.3422C170.442 82.9923 164.893 70.2194 164.893 55.9217C164.893 41.624 170.442 28.8538 179.133 20.5039" stroke="white" stroke-width="0.787487" stroke-miterlimit="10"/>
<path d="M198.652 20.4863C207.344 28.8337 212.893 41.6064 212.893 55.9041C212.893 70.2019 207.344 82.9723 198.652 91.3222" stroke="white" stroke-width="0.787487" stroke-miterlimit="10"/>
<path d="M152.178 55.9216H225.607" stroke="white" stroke-width="0.787487" stroke-miterlimit="10"/>
<path d="M188.893 19.1882V92.6378" stroke="white" stroke-width="0.787487" stroke-miterlimit="10"/>
<path d="M212.587 30.3985C213.402 30.399 214.198 30.1578 214.876 29.7055C215.554 29.2532 216.082 28.6102 216.394 27.8576C216.706 27.105 216.788 26.2767 216.63 25.4775C216.471 24.6784 216.079 23.9443 215.503 23.368C214.927 22.7918 214.193 22.3991 213.394 22.2399C212.595 22.0808 211.767 22.1624 211.014 22.474C210.261 22.7857 209.618 23.3136 209.165 23.991C208.712 24.6684 208.471 25.4648 208.471 26.2796C208.471 27.3715 208.904 28.4187 209.676 29.1911C210.448 29.9634 211.495 30.3979 212.587 30.3985Z" fill="#AD79FF" stroke="black" stroke-width="0.787487" stroke-miterlimit="10"/>
<path d="M212.587 60.0406C213.402 60.0411 214.198 59.7999 214.876 59.3476C215.554 58.8953 216.082 58.2523 216.394 57.4997C216.706 56.7471 216.788 55.9188 216.63 55.1196C216.471 54.3205 216.079 53.5864 215.503 53.0101C214.927 52.4339 214.193 52.0412 213.394 51.882C212.595 51.7229 211.767 51.8044 211.014 52.1161C210.261 52.4278 209.618 52.9557 209.165 53.6331C208.712 54.3105 208.471 55.1069 208.471 55.9217C208.471 57.0136 208.904 58.0608 209.676 58.8332C210.448 59.6055 211.495 60.0399 212.587 60.0406Z" fill="#6F4AE7" stroke="black" stroke-width="0.787487" stroke-miterlimit="10"/>
<path d="M261.445 95.877H218.383V103.619H261.445V95.877Z" fill="#AD79FF"/>
<path d="M224.998 109.375H246.233" stroke="white" stroke-width="0.787487" stroke-miterlimit="10" stroke-linecap="round"/>
<path d="M224.998 115.552H246.233" stroke="white" stroke-width="0.787487" stroke-miterlimit="10" stroke-linecap="round"/>
<path d="M224.998 121.709H246.233" stroke="white" stroke-width="0.787487" stroke-miterlimit="10" stroke-linecap="round"/>
<path d="M258.908 129.371H220.69C220.047 129.37 219.432 129.115 218.978 128.661C218.524 128.207 218.268 127.591 218.268 126.949V95.9915H261.33V126.949C261.33 127.591 261.074 128.207 260.62 128.661C260.166 129.115 259.55 129.37 258.908 129.371V129.371Z" stroke="white" stroke-width="0.787487" stroke-linejoin="round"/>
<path d="M218.268 103.674H261.33" stroke="white" stroke-width="0.787487" stroke-miterlimit="10"/>
<path d="M222.022 101.045C222.203 101.046 222.381 100.992 222.532 100.892C222.683 100.792 222.801 100.649 222.871 100.481C222.941 100.313 222.959 100.129 222.924 99.951C222.889 99.773 222.802 99.6094 222.674 99.4809C222.546 99.3524 222.382 99.2649 222.204 99.2293C222.026 99.1937 221.842 99.2115 221.674 99.2809C221.506 99.3502 221.363 99.4678 221.262 99.6186C221.161 99.7695 221.107 99.9469 221.107 100.128C221.107 100.249 221.131 100.368 221.176 100.479C221.222 100.59 221.289 100.691 221.374 100.777C221.459 100.862 221.56 100.929 221.671 100.975C221.782 101.022 221.902 101.045 222.022 101.045Z" fill="white"/>
<path d="M226.142 100.988C226.323 100.988 226.5 100.934 226.651 100.833C226.802 100.732 226.92 100.589 226.989 100.421C227.058 100.253 227.076 100.069 227.041 99.8909C227.005 99.7129 226.918 99.5496 226.789 99.4215C226.661 99.2934 226.497 99.2062 226.319 99.1711C226.141 99.136 225.956 99.1546 225.789 99.2244C225.621 99.2942 225.478 99.412 225.378 99.5631C225.277 99.7142 225.224 99.8917 225.225 100.073C225.225 100.316 225.322 100.549 225.494 100.72C225.666 100.891 225.899 100.988 226.142 100.988Z" fill="white"/>
<path d="M230.258 100.988C230.44 100.988 230.617 100.935 230.769 100.834C230.92 100.734 231.038 100.59 231.107 100.423C231.177 100.255 231.195 100.071 231.16 99.8926C231.125 99.7144 231.037 99.5508 230.909 99.4224C230.781 99.294 230.617 99.2066 230.439 99.1713C230.261 99.136 230.076 99.1544 229.909 99.2241C229.741 99.2938 229.598 99.4117 229.497 99.5628C229.397 99.714 229.343 99.8915 229.344 100.073C229.344 100.316 229.44 100.548 229.612 100.72C229.783 100.891 230.016 100.988 230.258 100.988Z" fill="white"/>
<path d="M259.022 136.864L253.057 121.841L268.077 127.822L263.674 129.957L268.498 134.779L265.757 137.123L260.858 132.015L259.022 136.864Z" fill="white" stroke="black" stroke-width="0.787487" stroke-linecap="round" stroke-linejoin="round"/>
<path d="M141.858 46.5577H99.1836C99.542 44.5296 100.604 42.693 102.184 41.3712C103.763 40.0494 105.758 39.3271 107.818 39.3316H108.161C109.375 37.1697 111.199 35.413 113.405 34.2809C115.61 33.1488 118.101 32.6914 120.565 32.9657C123.029 33.2399 125.358 34.2338 127.261 35.8232C129.164 37.4126 130.556 39.5273 131.265 41.9032C132.166 41.0643 133.292 40.5075 134.505 40.3018C135.719 40.096 136.966 40.2503 138.093 40.7454C139.219 41.2405 140.176 42.0548 140.845 43.0877C141.515 44.1207 141.866 45.327 141.858 46.5577Z" fill="#C3C5FF" stroke="#C2C6FF" stroke-width="0.202122" stroke-miterlimit="10"/>
<path d="M130.084 49.8791H87.4199C87.7789 47.8508 88.8417 46.0142 90.4215 44.6924C92.0012 43.3706 93.9966 42.6485 96.0564 42.653H96.4002C97.6142 40.4911 99.438 38.7347 101.644 37.6028C103.85 36.4709 106.34 36.0135 108.805 36.2881C111.269 36.5626 113.597 37.5569 115.5 39.1465C117.403 40.7362 118.795 42.851 119.504 45.227C120.405 44.3926 121.529 43.8397 122.74 43.6361C123.951 43.4325 125.195 43.5872 126.319 44.0811C127.443 44.5751 128.398 45.3868 129.067 46.4164C129.736 47.4461 130.089 48.6489 130.084 49.8767V49.8791Z" stroke="white" stroke-width="0.787487" stroke-miterlimit="10"/>
<path d="M197.148 11.5459C197.063 11.5428 196.982 11.5072 196.922 11.4466C196.862 11.386 196.827 11.3047 196.824 11.2193V8.32388C196.824 8.28134 196.833 8.23932 196.849 8.20002C196.865 8.16072 196.889 8.12498 196.919 8.0949C196.949 8.06482 196.985 8.0411 197.024 8.02482C197.063 8.00854 197.106 8 197.148 8C197.191 8 197.233 8.00854 197.272 8.02482C197.311 8.0411 197.347 8.06482 197.377 8.0949C197.407 8.12498 197.431 8.16072 197.447 8.20002C197.464 8.23932 197.472 8.28134 197.472 8.32388V11.2393C197.465 11.3213 197.429 11.3981 197.369 11.4546C197.309 11.5112 197.23 11.5437 197.148 11.5459Z" fill="white" stroke="white" stroke-width="0.401618" stroke-miterlimit="10"/>
<path d="M198.919 9.77163C198.916 9.85675 198.881 9.93772 198.821 9.99794C198.761 10.0582 198.68 10.093 198.595 10.0955H195.679C195.593 10.0955 195.511 10.0614 195.45 10.0006C195.39 9.93986 195.355 9.85755 195.355 9.77163C195.355 9.68572 195.39 9.6034 195.45 9.54265C195.511 9.48191 195.593 9.44775 195.679 9.44775H198.597C198.682 9.45088 198.762 9.48591 198.822 9.54606C198.882 9.60621 198.916 9.68693 198.919 9.77163Z" fill="white" stroke="white" stroke-width="0.401618" stroke-miterlimit="10"/>
<path d="M56.2732 120.393C56.188 120.391 56.1071 120.356 56.0469 120.296C55.9867 120.235 55.9517 120.154 55.9492 120.069V117.152C55.9492 117.066 55.9834 116.983 56.0441 116.923C56.1049 116.862 56.1872 116.828 56.2732 116.828C56.3591 116.828 56.4415 116.862 56.5022 116.923C56.5629 116.983 56.5971 117.066 56.5971 117.152V120.064C56.5981 120.108 56.5904 120.15 56.5746 120.19C56.5587 120.23 56.535 120.267 56.5048 120.298C56.4745 120.328 56.4385 120.352 56.3987 120.369C56.3589 120.385 56.3162 120.394 56.2732 120.393Z" fill="white" stroke="white" stroke-width="0.401618" stroke-miterlimit="10"/>
<path d="M58.0458 118.619C58.0433 118.704 58.0083 118.785 57.9481 118.846C57.8879 118.906 57.807 118.941 57.7219 118.943H54.8239C54.738 118.943 54.6556 118.909 54.5949 118.848C54.5341 118.788 54.5 118.705 54.5 118.619C54.5 118.533 54.5341 118.451 54.5949 118.39C54.6556 118.329 54.738 118.295 54.8239 118.295H57.7418C57.7833 118.296 57.8244 118.304 57.8625 118.321C57.9006 118.338 57.9348 118.362 57.9633 118.392C57.9917 118.422 58.0137 118.458 58.0279 118.497C58.0421 118.536 58.0482 118.578 58.0458 118.619Z" fill="white" stroke="white" stroke-width="0.401618" stroke-miterlimit="10"/>
<path d="M254.851 83.8493C255.127 83.8498 255.397 83.7683 255.626 83.6155C255.856 83.4626 256.034 83.2452 256.14 82.9906C256.246 82.736 256.274 82.4556 256.22 82.1851C256.166 81.9147 256.034 81.6664 255.839 81.4714C255.644 81.2765 255.395 81.1438 255.125 81.0901C254.855 81.0365 254.574 81.0642 254.32 81.1699C254.065 81.2757 253.847 81.4547 253.695 81.6841C253.542 81.9136 253.46 82.1832 253.461 82.4589C253.461 82.8277 253.607 83.1812 253.868 83.442C254.129 83.7027 254.483 83.8493 254.851 83.8493Z" fill="white" stroke="white" stroke-width="0.787487" stroke-miterlimit="10"/>
<path d="M137.424 27.8046C137.699 27.8051 137.969 27.7237 138.198 27.5708C138.428 27.4179 138.607 27.2005 138.712 26.9459C138.818 26.6913 138.846 26.4109 138.792 26.1405C138.739 25.87 138.606 25.6217 138.411 25.4268C138.216 25.2318 137.968 25.0991 137.697 25.0455C137.427 24.9918 137.147 25.0195 136.892 25.1253C136.637 25.231 136.42 25.41 136.267 25.6394C136.114 25.8689 136.033 26.1385 136.033 26.4142C136.033 26.783 136.18 27.1365 136.44 27.3973C136.701 27.658 137.055 27.8046 137.424 27.8046Z" stroke="white" stroke-width="0.787487" stroke-miterlimit="10"/>
<path d="M99.5269 81.6766L71.3924 90.3503C70.9942 90.4735 70.5756 90.5168 70.1606 90.478C69.7455 90.4392 69.3422 90.3191 68.9738 90.1242C68.6053 89.9293 68.2788 89.6636 68.0132 89.3424C67.7475 89.0212 67.5478 88.6507 67.4255 88.2522L62.6613 72.7734C62.5381 72.3755 62.4945 71.9573 62.5332 71.5426C62.5719 71.1279 62.692 70.7248 62.8866 70.3566C63.0813 69.9883 63.3467 69.6619 63.6676 69.3964C63.9885 69.1308 64.3587 68.9312 64.7569 68.809L92.8938 60.1552C93.2917 60.0316 93.7101 59.9877 94.1249 60.0262C94.5398 60.0647 94.9429 60.1849 95.3112 60.3796C95.6796 60.5743 96.0058 60.8398 96.2713 61.1609C96.5368 61.482 96.7362 61.8524 96.8582 62.2508L101.625 77.7294C101.749 78.1263 101.793 78.5438 101.754 78.9578C101.716 79.3717 101.595 79.774 101.4 80.1411C101.205 80.5082 100.939 80.8329 100.617 81.0965C100.296 81.36 99.9252 81.5573 99.5269 81.6766Z" fill="#6A52DD" stroke="black" stroke-width="0.787487" stroke-miterlimit="10"/>
<path d="M90.0523 90.1412L60.8289 93.7244C59.9951 93.8243 59.1557 93.5895 58.4948 93.0715C57.8338 92.5535 57.4052 91.7945 57.303 90.961L55.3096 74.8892C55.2097 74.055 55.4449 73.2151 55.9634 72.5541C56.4819 71.8931 57.2415 71.4649 58.0755 71.3632L87.2989 67.7801C88.1326 67.6802 88.972 67.915 89.633 68.433C90.2939 68.951 90.7225 69.7099 90.8247 70.5434L92.8057 86.6328C92.8561 87.0441 92.8248 87.4613 92.7136 87.8605C92.6024 88.2596 92.4135 88.6329 92.1577 88.9589C91.9019 89.2848 91.5842 89.557 91.2229 89.7599C90.8616 89.9628 90.4638 90.0925 90.0523 90.1412Z" fill="#AD79FF" stroke="white" stroke-width="0.787487" stroke-miterlimit="10"/>
<path d="M84.2834 87.9557C84.8204 87.7774 85.2925 87.4439 85.6399 86.9972C85.9873 86.5506 86.1945 86.0111 86.2352 85.4467C86.2758 84.8823 86.1482 84.3184 85.8684 83.8266C85.5887 83.3347 85.1693 82.9371 84.6634 82.6836C84.1575 82.4301 83.5878 82.3322 83.0263 82.4025C82.4649 82.4729 81.9369 82.7083 81.5092 83.0788C81.0815 83.4492 80.7733 83.9381 80.6235 84.4838C80.4737 85.0295 80.4892 85.6074 80.6679 86.1443C80.7861 86.5008 80.9735 86.8305 81.2193 87.1145C81.4651 87.3985 81.7644 87.6313 82.1002 87.7995C82.436 87.9677 82.8016 88.0681 83.1762 88.0949C83.5508 88.1217 83.9271 88.0744 84.2834 87.9557V87.9557Z" stroke="white" stroke-width="0.787487" stroke-miterlimit="10"/>
<path d="M87.6672 87.4994C88.1966 87.2997 88.6549 86.9474 88.9841 86.4871C89.3133 86.0269 89.4986 85.4796 89.5165 84.914C89.5345 84.3484 89.3843 83.7901 89.085 83.3099C88.7856 82.8297 88.3506 82.449 87.8349 82.2161C87.3192 81.9832 86.746 81.9086 86.1878 82.0015C85.6296 82.0944 85.1115 82.3507 84.6991 82.7381C84.2866 83.1255 83.9983 83.6264 83.8706 84.1776C83.743 84.7289 83.7817 85.3057 83.9818 85.835C84.1144 86.1864 84.3149 86.5082 84.5719 86.7821C84.8288 87.0559 85.1373 87.2765 85.4795 87.431C85.8218 87.5856 86.1912 87.6711 86.5665 87.6829C86.9419 87.6947 87.3159 87.6323 87.6672 87.4994V87.4994Z" stroke="white" stroke-width="0.787487" stroke-miterlimit="10"/>
<path d="M90.805 70.2817L55.2949 74.6448L55.7659 78.487L91.276 74.1216L90.805 70.2817Z" fill="#AD79FF" stroke="white" stroke-width="0.787487" stroke-miterlimit="10"/>
<path d="M206.962 153.085C203.531 153.753 199.701 153.085 196.517 151.732C194.421 150.855 192.246 149.33 190.016 148.911C187.711 148.49 185.211 149.273 183.021 149.863C180.903 150.436 178.536 151.199 176.749 149.634C175.205 148.301 174.671 145.707 174.258 143.345C173.844 140.983 173.418 138.673 173.012 136.348C172.857 135.451 172.688 134.519 172.8 133.622C172.948 132.72 173.307 131.866 173.849 131.13C175.259 129.09 177.243 127.891 179.206 126.842C180.903 125.945 182.675 125.125 184.506 125.125C186.001 125.125 187.496 125.678 188.947 126.231C191.386 127.166 193.845 128.098 196.287 129.032C197.05 129.319 197.812 129.623 198.46 130.233C198.993 130.749 199.412 131.454 199.87 132.082C202.539 135.857 206.675 137.763 208.639 142.223C209.636 144.493 210.069 147.456 210.241 150.04C210.298 151.941 208.716 152.761 206.962 153.085Z" fill="#9C7452"/>
<path d="M181.134 128.932L145.429 135.299C144.55 135.455 143.645 135.255 142.912 134.744C142.179 134.233 141.68 133.452 141.522 132.573L128.884 61.5578C128.728 60.6782 128.927 59.7725 129.438 59.0398C129.949 58.3071 130.731 57.8073 131.61 57.6506L167.295 51.2917C168.174 51.1358 169.08 51.3354 169.812 51.8465C170.545 52.3576 171.045 53.1386 171.202 54.0178L183.86 125.033C183.937 125.468 183.928 125.914 183.833 126.346C183.738 126.777 183.559 127.186 183.306 127.548C183.052 127.91 182.73 128.219 182.358 128.457C181.985 128.694 181.569 128.856 181.134 128.932Z" fill="white" stroke="black" stroke-width="0.787487" stroke-miterlimit="10"/>
<path d="M132.315 76.2619C130.638 75.6141 126.584 73.8225 124.862 73.384C123.865 73.1348 122.764 73.1746 121.907 73.7079C119.39 75.3101 121.104 78.7786 122.554 80.4755C125.318 83.6774 130.466 86.9367 134.144 88.9774" fill="#9C7452"/>
<path d="M132.315 76.2619C130.638 75.6141 126.584 73.8225 124.862 73.384C123.865 73.1348 122.764 73.1746 121.907 73.7079C119.39 75.3101 121.104 78.7786 122.554 80.4755C125.318 83.6774 130.466 86.9367 134.144 88.9774" stroke="black" stroke-width="0.787487" stroke-miterlimit="10"/>
<path d="M179.419 129.237L152.234 134.746C152.234 134.746 157.965 141.915 170.384 142.697L174.902 147.252" fill="#9C7452"/>
<path d="M179.419 129.237L152.234 134.746C152.234 134.746 157.965 141.915 170.384 142.697L174.902 147.252" stroke="black" stroke-width="0.787487" stroke-miterlimit="10"/>
<path d="M185.443 124.395L172.757 54.1874C172.498 52.7848 171.695 51.5412 170.524 50.7274C169.353 49.9135 167.907 49.5952 166.503 49.8416L132.316 56.0263C130.913 56.2848 129.67 57.0868 128.856 58.2577C128.042 59.4286 127.724 60.8735 127.97 62.2781L140.678 132.486C140.936 133.888 141.738 135.132 142.909 135.946C144.08 136.76 145.525 137.078 146.93 136.832L181.129 130.657C182.531 130.397 183.771 129.591 184.58 128.418C185.388 127.244 185.699 125.797 185.443 124.395Z" fill="white" stroke="black" stroke-width="0.787487" stroke-miterlimit="10"/>
<path d="M132.661 115.893C133.137 115.99 133.593 116.122 134.051 116.257C136.625 117.005 135.795 116.808 138.359 117.553C141.257 118.39 143.545 122.242 141.143 124.796C138.207 127.924 134.833 126.129 131.554 124.986C129.837 124.395 128.352 123.518 127.742 121.689C126.902 119.135 128.467 115.958 131.325 115.779C131.773 115.772 132.22 115.81 132.661 115.893Z" fill="#9C7452" stroke="black" stroke-width="0.787487" stroke-miterlimit="10"/>
<path d="M175.7 127.809L147.563 132.974C146.849 133.103 146.112 132.946 145.512 132.535C144.913 132.125 144.499 131.495 144.362 130.781L131.392 61.9663C131.324 61.6251 131.325 61.2735 131.397 60.9329C131.468 60.5922 131.608 60.2697 131.807 59.9846C132.007 59.6995 132.262 59.4579 132.558 59.2743C132.853 59.0907 133.183 58.9689 133.527 58.9163L137.606 58.1688C137.805 58.1339 138.01 58.1703 138.184 58.2715C138.359 58.3727 138.492 58.5324 138.561 58.7222C138.893 59.6223 139.532 60.3767 140.364 60.854C141.197 61.3313 142.171 61.501 143.116 61.3334L158.403 58.5701C159.341 58.3973 160.189 57.903 160.801 57.1721C161.414 56.4412 161.753 55.5194 161.759 54.5657C161.761 54.3606 161.834 54.1627 161.966 54.0061C162.099 53.8495 162.282 53.7442 162.484 53.7087L165.706 53.1181C166.109 53.0452 166.522 53.0525 166.923 53.1395C167.323 53.2266 167.702 53.3917 168.038 53.6255C168.374 53.8592 168.661 54.1572 168.882 54.502C169.103 54.8468 169.254 55.2315 169.326 55.6347L171.9 70.2738" fill="white"/>
<path d="M175.7 127.809L147.563 132.974C146.849 133.103 146.112 132.946 145.512 132.535C144.913 132.125 144.499 131.495 144.362 130.781L131.392 61.9663C131.324 61.6251 131.325 61.2735 131.397 60.9329C131.468 60.5922 131.608 60.2697 131.807 59.9846C132.007 59.6995 132.262 59.4579 132.558 59.2743C132.853 59.0907 133.183 58.9689 133.527 58.9163L137.606 58.1688C137.805 58.1339 138.01 58.1703 138.184 58.2715C138.359 58.3727 138.492 58.5324 138.561 58.7222C138.893 59.6223 139.532 60.3767 140.364 60.854C141.197 61.3313 142.171 61.501 143.116 61.3334L158.403 58.5701C159.341 58.3973 160.189 57.903 160.801 57.1721C161.414 56.4412 161.753 55.5194 161.759 54.5657C161.761 54.3606 161.834 54.1627 161.966 54.0061C162.099 53.8495 162.282 53.7442 162.484 53.7087L165.706 53.1181C166.109 53.0452 166.522 53.0525 166.923 53.1395C167.323 53.2266 167.702 53.3917 168.038 53.6255C168.374 53.8592 168.661 54.1572 168.882 54.502C169.103 54.8468 169.254 55.2315 169.326 55.6347L171.9 70.2738" stroke="black" stroke-width="0.787487" stroke-miterlimit="10"/>
<path d="M129.227 95.7252C129.703 95.8224 130.159 95.9544 130.618 96.089C133.192 96.8365 135.766 97.584 138.357 98.3315C141.255 99.1713 143.542 103.021 141.14 105.575C138.205 108.702 131.4 105.976 128.121 104.813C126.404 104.222 124.919 103.345 124.308 101.516C123.469 98.9618 125.031 95.7849 127.892 95.6055C128.34 95.5895 128.789 95.6298 129.227 95.7252Z" fill="#9C7452" stroke="black" stroke-width="0.787487" stroke-miterlimit="10"/>
<path d="M129.227 105.181C129.703 105.276 130.159 105.411 130.618 105.543C133.192 106.29 135.766 107.05 138.357 107.785C141.255 108.625 143.542 112.475 141.14 115.029C138.205 118.156 131.4 115.43 128.121 114.267C126.404 113.676 124.919 112.799 124.308 110.967C123.469 108.413 125.031 105.236 127.892 105.06C128.34 105.052 128.788 105.093 129.227 105.181Z" fill="#9C7452" stroke="black" stroke-width="0.787487" stroke-miterlimit="10"/>
<path d="M210.814 150.055L209.803 145.862C209.708 144.813 197.718 115.647 196.402 112.063C195.086 108.48 185.805 90.0836 185.805 90.0836C184.449 87.375 183.726 84.3526 183.288 81.3899C183.288 81.3899 182.468 75.462 182.219 71.839C182.124 70.3713 180.046 69.3996 178.656 69.8954C176.844 70.5258 175.319 71.8016 174.48 74.3806C174.168 75.3587 174.083 76.3948 174.23 77.4106L176.67 108.465C168.435 128.786 184.277 138.317 184.277 138.317" fill="#9C7452"/>
<path d="M210.814 150.055L209.803 145.862C209.708 144.813 197.718 115.647 196.402 112.063C195.086 108.48 185.805 90.0836 185.805 90.0836C184.449 87.375 183.726 84.3526 183.288 81.3899C183.288 81.3899 182.468 75.462 182.219 71.839C182.124 70.3713 180.046 69.3996 178.656 69.8954C176.844 70.5258 175.319 71.8016 174.48 74.3806C174.168 75.3587 174.083 76.3948 174.23 77.4106L176.67 108.465C168.435 128.786 184.277 138.317 184.277 138.317" stroke="black" stroke-width="0.787487" stroke-miterlimit="10"/>
<path d="M160.165 75.7491C159.905 75.3477 159.535 75.0301 159.099 74.8346C158.65 74.6328 158.151 74.5727 157.668 74.6626C157.343 74.7225 157.032 74.8453 156.754 75.0239C156.439 75.2211 156.175 75.4891 155.983 75.8068C155.791 76.1244 155.676 76.4827 155.647 76.8529L152.234 77.4459C152.196 77.3504 152.145 77.2606 152.082 77.1792C152.024 77.1019 151.967 77.0072 151.91 76.93L152.921 75.4999C153.324 75.6443 153.757 75.6837 154.18 75.6145C154.505 75.5546 154.816 75.4318 155.094 75.2532C155.496 74.993 155.814 74.6216 156.009 74.1842C156.209 73.7367 156.269 73.2387 156.181 72.7563C156.12 72.4303 155.998 72.119 155.819 71.8394C155.558 71.4382 155.187 71.1208 154.75 70.925C154.302 70.7256 153.803 70.6656 153.32 70.7529C152.995 70.8137 152.684 70.9372 152.406 71.1167C152.005 71.3771 151.687 71.7474 151.491 72.1832C151.292 72.632 151.232 73.1304 151.319 73.6136C151.38 73.9391 151.504 74.2497 151.683 74.528C151.726 74.6028 151.777 74.6729 151.835 74.7373L150.823 76.1876C150.433 76.0502 150.013 76.0166 149.605 76.0902C149.279 76.1515 148.967 76.2752 148.688 76.4543C148.287 76.7147 147.97 77.0847 147.774 77.5206C147.574 77.9693 147.514 78.4677 147.602 78.9509C147.662 79.2764 147.786 79.587 147.965 79.8654C148.225 80.2672 148.595 80.5849 149.032 80.7798C149.48 80.9816 149.979 81.0417 150.462 80.9519C150.788 80.8919 151.098 80.7691 151.377 80.5905C151.778 80.3307 152.096 79.9603 152.291 79.524C152.404 79.2837 152.469 79.0241 152.483 78.7592L155.894 78.1686C155.934 78.2631 155.985 78.3524 156.046 78.435C156.092 78.5097 156.144 78.5806 156.201 78.647L155.189 80.0946C154.798 79.9568 154.378 79.9242 153.971 79.9999C153.644 80.0598 153.333 80.1826 153.054 80.3613C152.652 80.6224 152.335 80.9935 152.139 81.4303C151.939 81.878 151.88 82.3755 151.967 82.8579C152.028 83.1841 152.152 83.4956 152.331 83.775C152.591 84.1758 152.962 84.4933 153.397 84.6895C153.846 84.8889 154.344 84.9486 154.828 84.8613C155.153 84.8005 155.464 84.677 155.742 84.4975C156.144 84.2383 156.462 83.8679 156.657 83.4312C156.857 82.9828 156.917 82.4841 156.829 82.0009C156.769 81.6755 156.646 81.3649 156.467 81.0864C156.41 81.0092 156.353 80.9145 156.295 80.8372L157.292 79.4093C157.649 79.5414 158.032 79.5877 158.409 79.5444C158.787 79.5011 159.15 79.3694 159.467 79.1602C159.868 78.8997 160.186 78.5295 160.382 78.0936C160.581 77.6449 160.641 77.1468 160.554 76.6635C160.47 76.3411 160.339 76.0329 160.165 75.7491ZM152.655 72.9084C152.71 72.6918 152.821 72.4939 152.979 72.3353C153.139 72.1754 153.346 72.0692 153.569 72.0314C153.722 72.0082 153.878 72.0147 154.028 72.0511C154.243 72.1082 154.439 72.22 154.598 72.3752C154.807 72.5954 154.921 72.8891 154.914 73.1926C154.907 73.4961 154.78 73.7846 154.561 73.9949C154.4 74.1543 154.194 74.2603 153.971 74.2988C153.818 74.3214 153.662 74.3154 153.512 74.2813C153.297 74.2226 153.1 74.1113 152.939 73.9574C152.787 73.7902 152.682 73.5856 152.635 73.3644C152.612 73.2126 152.618 73.0576 152.655 72.9084ZM151.13 78.7592C151.08 78.972 150.967 79.1647 150.806 79.3123C150.644 79.4725 150.437 79.5793 150.213 79.6186C150.061 79.6394 149.907 79.6326 149.757 79.5987C149.542 79.54 149.345 79.4287 149.184 79.2748C149.031 79.1091 148.926 78.9049 148.88 78.6842C148.857 78.5315 148.863 78.3758 148.9 78.2258C148.955 78.0108 149.07 77.8159 149.232 77.6641C149.394 77.5123 149.596 77.41 149.814 77.3687C149.966 77.3455 150.121 77.3523 150.27 77.3887C150.486 77.4462 150.683 77.5577 150.843 77.7126C150.996 77.8783 151.101 78.0824 151.147 78.3031C151.17 78.4549 151.164 78.6096 151.13 78.7592ZM155.476 82.6686C155.42 82.8836 155.305 83.0784 155.143 83.2302C154.981 83.382 154.779 83.4846 154.561 83.5259C154.408 83.5491 154.253 83.5423 154.103 83.5059C153.888 83.4488 153.691 83.3373 153.532 83.182C153.378 83.0166 153.272 82.8124 153.225 82.5915C153.205 82.4395 153.211 82.285 153.245 82.1354C153.29 81.9207 153.404 81.7264 153.569 81.5821C153.73 81.4223 153.936 81.3155 154.16 81.2757C154.313 81.255 154.468 81.2618 154.618 81.2957C154.833 81.3538 155.029 81.4652 155.189 81.6196C155.343 81.785 155.449 81.9892 155.495 82.2101C155.516 82.3629 155.509 82.5182 155.476 82.6686ZM159.213 77.3313C159.158 77.5462 159.043 77.7411 158.881 77.8929C158.719 78.0447 158.517 78.1473 158.299 78.1885C158.147 78.2118 157.992 78.205 157.843 78.1686C157.627 78.111 157.43 77.9993 157.27 77.8445C157.117 77.6787 157.012 77.4749 156.966 77.2541C156.943 77.1024 156.949 76.9477 156.983 76.7981C157.034 76.5857 157.147 76.393 157.307 76.2448C157.469 76.0845 157.676 75.9777 157.9 75.9384C158.052 75.9176 158.206 75.9244 158.356 75.9584C158.571 76.017 158.768 76.1283 158.929 76.2822C159.082 76.448 159.187 76.6521 159.233 76.8728C159.256 77.0256 159.249 77.1815 159.211 77.3313H159.213Z" fill="black"/>
<path d="M162.242 97.1926L152.786 98.9093C152.309 98.9957 151.82 98.9874 151.346 98.8847C150.873 98.782 150.424 98.5871 150.025 98.3109C149.627 98.0348 149.287 97.6829 149.025 97.2753C148.762 96.8677 148.583 96.4124 148.497 95.9355C148.41 95.4586 148.419 94.9694 148.521 94.4957C148.624 94.022 148.819 93.5732 149.095 93.1748C149.371 92.7765 149.723 92.4363 150.131 92.174C150.538 91.9117 150.994 91.7324 151.471 91.646L160.927 89.9317C161.408 89.8349 161.903 89.8349 162.384 89.9319C162.865 90.0289 163.322 90.2208 163.728 90.4964C164.134 90.772 164.48 91.1257 164.748 91.537C165.015 91.9482 165.198 92.4086 165.286 92.8914C165.373 93.3741 165.364 93.8695 165.257 94.3485C165.151 94.8274 164.95 95.2805 164.667 95.681C164.384 96.0815 164.023 96.4213 163.607 96.6808C163.191 96.9404 162.727 97.1144 162.242 97.1926Z" fill="#47FFB9"/>
<path d="M162.244 97.1929L162.167 96.8116L152.713 98.5285C152.518 98.5652 152.321 98.5842 152.122 98.5857C151.349 98.5815 150.602 98.3065 150.01 97.8085C149.418 97.3105 149.019 96.6212 148.883 95.8599C148.793 95.3875 148.809 94.9008 148.931 94.4356C149.053 93.9705 149.278 93.5385 149.588 93.1713C150.086 92.5689 150.782 92.1634 151.552 92.0276L161.021 90.313C161.215 90.275 161.413 90.256 161.611 90.2558C162.384 90.2601 163.132 90.5351 163.724 91.0331C164.315 91.531 164.714 92.2204 164.85 92.9817C164.888 93.1763 164.908 93.374 164.908 93.5723C164.905 94.3382 164.635 95.0794 164.145 95.6679C163.649 96.2725 162.952 96.6784 162.182 96.8116L162.259 97.1929L162.334 97.5742C163.27 97.4019 164.116 96.9072 164.725 96.1762C165.335 95.4452 165.669 94.524 165.67 93.5723C165.672 93.3294 165.653 93.0868 165.613 92.8471C165.447 91.9029 164.946 91.0502 164.203 90.4452C163.475 89.8395 162.558 89.5087 161.611 89.5108C161.368 89.5105 161.126 89.5297 160.886 89.5682L151.43 91.2849C150.486 91.4498 149.633 91.9508 149.03 92.6953C148.423 93.4222 148.092 94.3397 148.096 95.2866C148.094 95.5295 148.113 95.7721 148.153 96.0117C148.325 96.9477 148.82 97.7938 149.551 98.4032C150.282 99.0127 151.203 99.3472 152.155 99.3483C152.398 99.3486 152.64 99.3294 152.88 99.2909L162.334 97.5742L162.244 97.1929Z" fill="black"/>
<path d="M165.142 92.9043C165.272 93.6224 165.186 94.3631 164.896 95.0325C164.605 95.7019 164.122 96.2699 163.509 96.6651C162.895 97.0602 162.178 97.2645 161.448 97.2522C160.719 97.2399 160.009 97.0116 159.409 96.5959C158.809 96.1803 158.346 95.5963 158.078 94.9174C157.81 94.2386 157.749 93.4954 157.904 92.7821C158.058 92.0688 158.42 91.4173 158.945 90.9099C159.47 90.4025 160.133 90.0622 160.851 89.9317C161.814 89.7581 162.807 89.9735 163.611 90.5308C164.415 91.0881 164.966 91.9416 165.142 92.9043Z" fill="white"/>
<path d="M165.14 92.9043L164.759 92.9815C164.849 93.4534 164.832 93.9397 164.71 94.4045C164.588 94.8693 164.364 95.3008 164.053 95.6676C163.557 96.2712 162.86 96.6769 162.09 96.8113C161.895 96.8492 161.698 96.8685 161.499 96.8688C160.675 96.8656 159.882 96.5545 159.275 95.9964C158.668 95.4383 158.292 94.6736 158.22 93.8524C158.148 93.0312 158.386 92.2128 158.887 91.5579C159.388 90.9031 160.115 90.4589 160.926 90.3128C161.121 90.2749 161.319 90.2559 161.517 90.2556C162.29 90.2598 163.038 90.5348 163.629 91.0328C164.221 91.5308 164.62 92.2202 164.756 92.9815L165.137 92.9043L165.519 92.8272C165.347 91.8908 164.852 91.0444 164.12 90.4352C163.388 89.826 162.466 89.4925 161.514 89.493C161.271 89.4916 161.029 89.5109 160.789 89.5504C159.845 89.7144 158.992 90.2156 158.39 90.9608C157.783 91.6877 157.452 92.6052 157.455 93.5521C157.454 93.795 157.473 94.0376 157.512 94.2772C157.685 95.2132 158.179 96.0593 158.91 96.6687C159.641 97.2782 160.563 97.6127 161.514 97.6138C161.757 97.6141 162 97.5949 162.239 97.5564C163.184 97.3904 164.036 96.8897 164.641 96.146C165.247 95.4175 165.578 94.4995 165.576 93.5521C165.576 93.3092 165.557 93.067 165.519 92.8272L165.14 92.9043Z" fill="black"/>
<path d="M206.962 153.085C203.531 153.753 199.701 153.085 196.517 151.732C194.421 150.855 192.246 149.33 190.016 148.911C187.711 148.49 185.211 149.273 183.021 149.863C180.903 150.436 178.536 151.199 176.749 149.634C175.205 148.301 174.671 145.707 174.258 143.345C173.844 140.983 173.418 138.673 173.012 136.348C172.857 135.451 172.688 134.519 172.8 133.622C172.948 132.72 173.307 131.866 173.849 131.13C175.259 129.09 177.243 127.891 179.206 126.842C180.903 125.945 182.675 125.125 184.506 125.125C186.001 125.125 187.496 125.678 188.947 126.231C191.386 127.166 193.845 128.098 196.287 129.032C197.05 129.319 197.812 129.623 198.46 130.233C198.993 130.749 199.412 131.454 199.87 132.082C202.539 135.857 206.675 137.763 208.639 142.223C209.636 144.493 210.069 147.456 210.241 150.04C210.298 151.941 208.716 152.761 206.962 153.085Z" fill="#9C7452"/>
<path d="M181.134 128.932L145.429 135.299C144.55 135.455 143.645 135.255 142.912 134.744C142.179 134.233 141.68 133.452 141.522 132.573L128.884 61.5578C128.728 60.6782 128.927 59.7725 129.438 59.0398C129.949 58.3071 130.731 57.8073 131.61 57.6506L167.295 51.2917C168.174 51.1358 169.08 51.3354 169.812 51.8465C170.545 52.3576 171.045 53.1386 171.202 54.0178L183.86 125.033C183.937 125.468 183.928 125.914 183.833 126.346C183.738 126.777 183.559 127.186 183.306 127.548C183.052 127.91 182.73 128.219 182.358 128.457C181.985 128.694 181.569 128.856 181.134 128.932Z" fill="white" stroke="black" stroke-width="0.787487" stroke-miterlimit="10"/>
<path d="M132.315 76.2619C130.638 75.6141 126.584 73.8225 124.862 73.384C123.865 73.1348 122.764 73.1746 121.907 73.7079C119.39 75.3101 121.104 78.7786 122.554 80.4755C125.318 83.6774 130.466 86.9367 134.144 88.9774" fill="#9C7452"/>
<path d="M132.315 76.2619C130.638 75.6141 126.584 73.8225 124.862 73.384C123.865 73.1348 122.764 73.1746 121.907 73.7079C119.39 75.3101 121.104 78.7786 122.554 80.4755C125.318 83.6774 130.466 86.9367 134.144 88.9774" stroke="black" stroke-width="0.787487" stroke-miterlimit="10"/>
<path d="M179.419 129.237L152.234 134.746C152.234 134.746 157.965 141.915 170.384 142.697L174.902 147.252" fill="#9C7452"/>
<path d="M179.419 129.237L152.234 134.746C152.234 134.746 157.965 141.915 170.384 142.697L174.902 147.252" stroke="black" stroke-width="0.787487" stroke-miterlimit="10"/>
<path d="M185.443 124.395L172.757 54.1874C172.498 52.7848 171.695 51.5412 170.524 50.7274C169.353 49.9135 167.907 49.5952 166.503 49.8416L132.316 56.0263C130.913 56.2848 129.67 57.0868 128.856 58.2577C128.042 59.4286 127.724 60.8735 127.97 62.2781L140.678 132.486C140.936 133.888 141.738 135.132 142.909 135.946C144.08 136.76 145.525 137.078 146.93 136.832L181.129 130.657C182.531 130.397 183.771 129.591 184.58 128.418C185.388 127.244 185.699 125.797 185.443 124.395Z" fill="white" stroke="black" stroke-width="0.787487" stroke-miterlimit="10"/>
<path d="M132.661 115.893C133.137 115.99 133.593 116.122 134.051 116.257C136.625 117.005 135.795 116.808 138.359 117.553C141.257 118.39 143.545 122.242 141.143 124.796C138.207 127.924 134.833 126.129 131.554 124.986C129.837 124.395 128.352 123.518 127.742 121.689C126.902 119.135 128.467 115.958 131.325 115.779C131.773 115.772 132.22 115.81 132.661 115.893Z" fill="#9C7452" stroke="black" stroke-width="0.787487" stroke-miterlimit="10"/>
<path d="M175.7 127.809L147.563 132.974C146.849 133.103 146.112 132.946 145.512 132.535C144.913 132.125 144.499 131.495 144.362 130.781L131.392 61.9663C131.324 61.6251 131.325 61.2735 131.397 60.9329C131.468 60.5922 131.608 60.2697 131.807 59.9846C132.007 59.6995 132.262 59.4579 132.558 59.2743C132.853 59.0907 133.183 58.9689 133.527 58.9163L137.606 58.1688C137.805 58.1339 138.01 58.1703 138.184 58.2715C138.359 58.3727 138.492 58.5324 138.561 58.7222C138.893 59.6223 139.532 60.3767 140.364 60.854C141.197 61.3313 142.171 61.501 143.116 61.3334L158.403 58.5701C159.341 58.3973 160.189 57.903 160.801 57.1721C161.414 56.4412 161.753 55.5194 161.759 54.5657C161.761 54.3606 161.834 54.1627 161.966 54.0061C162.099 53.8495 162.282 53.7442 162.484 53.7087L165.706 53.1181C166.109 53.0452 166.522 53.0525 166.923 53.1395C167.323 53.2266 167.702 53.3917 168.038 53.6255C168.374 53.8592 168.661 54.1572 168.882 54.502C169.103 54.8468 169.254 55.2315 169.326 55.6347L171.9 70.2738" fill="white"/>
<path d="M175.7 127.809L147.563 132.974C146.849 133.103 146.112 132.946 145.512 132.535C144.913 132.125 144.499 131.495 144.362 130.781L131.392 61.9663C131.324 61.6251 131.325 61.2735 131.397 60.9329C131.468 60.5922 131.608 60.2697 131.807 59.9846C132.007 59.6995 132.262 59.4579 132.558 59.2743C132.853 59.0907 133.183 58.9689 133.527 58.9163L137.606 58.1688C137.805 58.1339 138.01 58.1703 138.184 58.2715C138.359 58.3727 138.492 58.5324 138.561 58.7222C138.893 59.6223 139.532 60.3767 140.364 60.854C141.197 61.3313 142.171 61.501 143.116 61.3334L158.403 58.5701C159.341 58.3973 160.189 57.903 160.801 57.1721C161.414 56.4412 161.753 55.5194 161.759 54.5657C161.761 54.3606 161.834 54.1627 161.966 54.0061C162.099 53.8495 162.282 53.7442 162.484 53.7087L165.706 53.1181C166.109 53.0452 166.522 53.0525 166.923 53.1395C167.323 53.2266 167.702 53.3917 168.038 53.6255C168.374 53.8592 168.661 54.1572 168.882 54.502C169.103 54.8468 169.254 55.2315 169.326 55.6347L171.9 70.2738" stroke="black" stroke-width="0.787487" stroke-miterlimit="10"/>
<path d="M129.227 95.7252C129.703 95.8224 130.159 95.9544 130.618 96.089C133.192 96.8365 135.766 97.584 138.357 98.3315C141.255 99.1713 143.542 103.021 141.14 105.575C138.205 108.702 131.4 105.976 128.121 104.813C126.404 104.222 124.919 103.345 124.308 101.516C123.469 98.9618 125.031 95.7849 127.892 95.6055C128.34 95.5895 128.789 95.6298 129.227 95.7252Z" fill="#9C7452" stroke="black" stroke-width="0.787487" stroke-miterlimit="10"/>
<path d="M129.227 105.181C129.703 105.276 130.159 105.411 130.618 105.543C133.192 106.29 135.766 107.05 138.357 107.785C141.255 108.625 143.542 112.475 141.14 115.029C138.205 118.156 131.4 115.43 128.121 114.267C126.404 113.676 124.919 112.799 124.308 110.967C123.469 108.413 125.031 105.236 127.892 105.06C128.34 105.052 128.788 105.093 129.227 105.181Z" fill="#9C7452" stroke="black" stroke-width="0.787487" stroke-miterlimit="10"/>
<path d="M210.814 150.055L209.803 145.862C209.708 144.813 197.718 115.647 196.402 112.063C195.086 108.48 185.805 90.0836 185.805 90.0836C184.449 87.375 183.726 84.3526 183.288 81.3899C183.288 81.3899 182.468 75.462 182.219 71.839C182.124 70.3713 180.046 69.3996 178.656 69.8954C176.844 70.5258 175.319 71.8016 174.48 74.3806C174.168 75.3587 174.083 76.3948 174.23 77.4106L176.67 108.465C168.435 128.786 184.277 138.317 184.277 138.317" fill="#9C7452"/>
<path d="M210.814 150.055L209.803 145.862C209.708 144.813 197.718 115.647 196.402 112.063C195.086 108.48 185.805 90.0836 185.805 90.0836C184.449 87.375 183.726 84.3526 183.288 81.3899C183.288 81.3899 182.468 75.462 182.219 71.839C182.124 70.3713 180.046 69.3996 178.656 69.8954C176.844 70.5258 175.319 71.8016 174.48 74.3806C174.168 75.3587 174.083 76.3948 174.23 77.4106L176.67 108.465C168.435 128.786 184.277 138.317 184.277 138.317" stroke="black" stroke-width="0.787487" stroke-miterlimit="10"/>
<path d="M160.165 75.7491C159.905 75.3477 159.535 75.0301 159.099 74.8346C158.65 74.6328 158.151 74.5727 157.668 74.6626C157.343 74.7225 157.032 74.8453 156.754 75.0239C156.439 75.2211 156.175 75.4891 155.983 75.8068C155.791 76.1244 155.676 76.4827 155.647 76.8529L152.234 77.4459C152.196 77.3504 152.145 77.2606 152.082 77.1792C152.024 77.1019 151.967 77.0072 151.91 76.93L152.921 75.4999C153.324 75.6443 153.757 75.6837 154.18 75.6145C154.505 75.5546 154.816 75.4318 155.094 75.2532C155.496 74.993 155.814 74.6216 156.009 74.1842C156.209 73.7367 156.269 73.2387 156.181 72.7563C156.12 72.4303 155.998 72.119 155.819 71.8394C155.558 71.4382 155.187 71.1208 154.75 70.925C154.302 70.7256 153.803 70.6656 153.32 70.7529C152.995 70.8137 152.684 70.9372 152.406 71.1167C152.005 71.3771 151.687 71.7474 151.491 72.1832C151.292 72.632 151.232 73.1304 151.319 73.6136C151.38 73.9391 151.504 74.2497 151.683 74.528C151.726 74.6028 151.777 74.6729 151.835 74.7373L150.823 76.1876C150.433 76.0502 150.013 76.0166 149.605 76.0902C149.279 76.1515 148.967 76.2752 148.688 76.4543C148.287 76.7147 147.97 77.0847 147.774 77.5206C147.574 77.9693 147.514 78.4677 147.602 78.9509C147.662 79.2764 147.786 79.587 147.965 79.8654C148.225 80.2672 148.595 80.5849 149.032 80.7798C149.48 80.9816 149.979 81.0417 150.462 80.9519C150.788 80.8919 151.098 80.7691 151.377 80.5905C151.778 80.3307 152.096 79.9603 152.291 79.524C152.404 79.2837 152.469 79.0241 152.483 78.7592L155.894 78.1686C155.934 78.2631 155.985 78.3524 156.046 78.435C156.092 78.5097 156.144 78.5806 156.201 78.647L155.189 80.0946C154.798 79.9568 154.378 79.9242 153.971 79.9999C153.644 80.0598 153.333 80.1826 153.054 80.3613C152.652 80.6224 152.335 80.9935 152.139 81.4303C151.939 81.878 151.88 82.3755 151.967 82.8579C152.028 83.1841 152.152 83.4956 152.331 83.775C152.591 84.1758 152.962 84.4933 153.397 84.6895C153.846 84.8889 154.344 84.9486 154.828 84.8613C155.153 84.8005 155.464 84.677 155.742 84.4975C156.144 84.2383 156.462 83.8679 156.657 83.4312C156.857 82.9828 156.917 82.4841 156.829 82.0009C156.769 81.6755 156.646 81.3649 156.467 81.0864C156.41 81.0092 156.353 80.9145 156.295 80.8372L157.292 79.4093C157.649 79.5414 158.032 79.5877 158.409 79.5444C158.787 79.5011 159.15 79.3694 159.467 79.1602C159.868 78.8997 160.186 78.5295 160.382 78.0936C160.581 77.6449 160.641 77.1468 160.554 76.6635C160.47 76.3411 160.339 76.0329 160.165 75.7491ZM152.655 72.9084C152.71 72.6918 152.821 72.4939 152.979 72.3353C153.139 72.1754 153.346 72.0692 153.569 72.0314C153.722 72.0082 153.878 72.0147 154.028 72.0511C154.243 72.1082 154.439 72.22 154.598 72.3752C154.807 72.5954 154.921 72.8891 154.914 73.1926C154.907 73.4961 154.78 73.7846 154.561 73.9949C154.4 74.1543 154.194 74.2603 153.971 74.2988C153.818 74.3214 153.662 74.3154 153.512 74.2813C153.297 74.2226 153.1 74.1113 152.939 73.9574C152.787 73.7902 152.682 73.5856 152.635 73.3644C152.612 73.2126 152.618 73.0576 152.655 72.9084ZM151.13 78.7592C151.08 78.972 150.967 79.1647 150.806 79.3123C150.644 79.4725 150.437 79.5793 150.213 79.6186C150.061 79.6394 149.907 79.6326 149.757 79.5987C149.542 79.54 149.345 79.4287 149.184 79.2748C149.031 79.1091 148.926 78.9049 148.88 78.6842C148.857 78.5315 148.863 78.3758 148.9 78.2258C148.955 78.0108 149.07 77.8159 149.232 77.6641C149.394 77.5123 149.596 77.41 149.814 77.3687C149.966 77.3455 150.121 77.3523 150.27 77.3887C150.486 77.4462 150.683 77.5577 150.843 77.7126C150.996 77.8783 151.101 78.0824 151.147 78.3031C151.17 78.4549 151.164 78.6096 151.13 78.7592ZM155.476 82.6686C155.42 82.8836 155.305 83.0784 155.143 83.2302C154.981 83.382 154.779 83.4846 154.561 83.5259C154.408 83.5491 154.253 83.5423 154.103 83.5059C153.888 83.4488 153.691 83.3373 153.532 83.182C153.378 83.0166 153.272 82.8124 153.225 82.5915C153.205 82.4395 153.211 82.285 153.245 82.1354C153.29 81.9207 153.404 81.7264 153.569 81.5821C153.73 81.4223 153.936 81.3155 154.16 81.2757C154.313 81.255 154.468 81.2618 154.618 81.2957C154.833 81.3538 155.029 81.4652 155.189 81.6196C155.343 81.785 155.449 81.9892 155.495 82.2101C155.516 82.3629 155.509 82.5182 155.476 82.6686ZM159.213 77.3313C159.158 77.5462 159.043 77.7411 158.881 77.8929C158.719 78.0447 158.517 78.1473 158.299 78.1885C158.147 78.2118 157.992 78.205 157.843 78.1686C157.627 78.111 157.43 77.9993 157.27 77.8445C157.117 77.6787 157.012 77.4749 156.966 77.2541C156.943 77.1024 156.949 76.9477 156.983 76.7981C157.034 76.5857 157.147 76.393 157.307 76.2448C157.469 76.0845 157.676 75.9777 157.9 75.9384C158.052 75.9176 158.206 75.9244 158.356 75.9584C158.571 76.017 158.768 76.1283 158.929 76.2822C159.082 76.448 159.187 76.6521 159.233 76.8728C159.256 77.0256 159.249 77.1815 159.211 77.3313H159.213Z" fill="black"/>
<path d="M162.242 97.1926L152.786 98.9093C152.309 98.9957 151.82 98.9874 151.346 98.8847C150.873 98.782 150.424 98.5871 150.025 98.3109C149.627 98.0348 149.287 97.6829 149.025 97.2753C148.762 96.8677 148.583 96.4124 148.497 95.9355C148.41 95.4586 148.419 94.9694 148.521 94.4957C148.624 94.022 148.819 93.5732 149.095 93.1748C149.371 92.7765 149.723 92.4363 150.131 92.174C150.538 91.9117 150.994 91.7324 151.471 91.646L160.927 89.9317C161.408 89.8349 161.903 89.8349 162.384 89.9319C162.865 90.0289 163.322 90.2208 163.728 90.4964C164.134 90.772 164.48 91.1257 164.748 91.537C165.015 91.9482 165.198 92.4086 165.286 92.8914C165.373 93.3741 165.364 93.8695 165.257 94.3485C165.151 94.8274 164.95 95.2805 164.667 95.681C164.384 96.0815 164.023 96.4213 163.607 96.6808C163.191 96.9404 162.727 97.1144 162.242 97.1926Z" fill="#47FFB9"/>
<path d="M162.244 97.1929L162.167 96.8116L152.713 98.5285C152.518 98.5652 152.321 98.5842 152.122 98.5857C151.349 98.5815 150.602 98.3065 150.01 97.8085C149.418 97.3105 149.019 96.6212 148.883 95.8599C148.793 95.3875 148.809 94.9008 148.931 94.4356C149.053 93.9705 149.278 93.5385 149.588 93.1713C150.086 92.5689 150.782 92.1634 151.552 92.0276L161.021 90.313C161.215 90.275 161.413 90.256 161.611 90.2558C162.384 90.2601 163.132 90.5351 163.724 91.0331C164.315 91.531 164.714 92.2204 164.85 92.9817C164.888 93.1763 164.908 93.374 164.908 93.5723C164.905 94.3382 164.635 95.0794 164.145 95.6679C163.649 96.2725 162.952 96.6784 162.182 96.8116L162.259 97.1929L162.334 97.5742C163.27 97.4019 164.116 96.9072 164.725 96.1762C165.335 95.4452 165.669 94.524 165.67 93.5723C165.672 93.3294 165.653 93.0868 165.613 92.8471C165.447 91.9029 164.946 91.0502 164.203 90.4452C163.475 89.8395 162.558 89.5087 161.611 89.5108C161.368 89.5105 161.126 89.5297 160.886 89.5682L151.43 91.2849C150.486 91.4498 149.633 91.9508 149.03 92.6953C148.423 93.4222 148.092 94.3397 148.096 95.2866C148.094 95.5295 148.113 95.7721 148.153 96.0117C148.325 96.9477 148.82 97.7938 149.551 98.4032C150.282 99.0127 151.203 99.3472 152.155 99.3483C152.398 99.3486 152.64 99.3294 152.88 99.2909L162.334 97.5742L162.244 97.1929Z" fill="black"/>
<path d="M165.142 92.9043C165.272 93.6224 165.186 94.3631 164.896 95.0325C164.605 95.7019 164.122 96.2699 163.509 96.6651C162.895 97.0602 162.178 97.2645 161.448 97.2522C160.719 97.2399 160.009 97.0116 159.409 96.5959C158.809 96.1803 158.346 95.5963 158.078 94.9174C157.81 94.2386 157.749 93.4954 157.904 92.7821C158.058 92.0688 158.42 91.4173 158.945 90.9099C159.47 90.4025 160.133 90.0622 160.851 89.9317C161.814 89.7581 162.807 89.9735 163.611 90.5308C164.415 91.0881 164.966 91.9416 165.142 92.9043Z" fill="white"/>
<path d="M165.14 92.9043L164.759 92.9815C164.849 93.4534 164.832 93.9397 164.71 94.4045C164.588 94.8693 164.364 95.3008 164.053 95.6676C163.557 96.2712 162.86 96.6769 162.09 96.8113C161.895 96.8492 161.698 96.8685 161.499 96.8688C160.675 96.8656 159.882 96.5545 159.275 95.9964C158.668 95.4383 158.292 94.6736 158.22 93.8524C158.148 93.0312 158.386 92.2128 158.887 91.5579C159.388 90.9031 160.115 90.4589 160.926 90.3128C161.121 90.2749 161.319 90.2559 161.517 90.2556C162.29 90.2598 163.038 90.5348 163.629 91.0328C164.221 91.5308 164.62 92.2202 164.756 92.9815L165.137 92.9043L165.519 92.8272C165.347 91.8908 164.852 91.0444 164.12 90.4352C163.388 89.826 162.466 89.4925 161.514 89.493C161.271 89.4916 161.029 89.5109 160.789 89.5504C159.845 89.7144 158.992 90.2156 158.39 90.9608C157.783 91.6877 157.452 92.6052 157.455 93.5521C157.454 93.795 157.473 94.0376 157.512 94.2772C157.685 95.2132 158.179 96.0593 158.91 96.6687C159.641 97.2782 160.563 97.6127 161.514 97.6138C161.757 97.6141 162 97.5949 162.239 97.5564C163.184 97.3904 164.036 96.8897 164.641 96.146C165.247 95.4175 165.578 94.4995 165.576 93.5521C165.576 93.3092 165.557 93.067 165.519 92.8272L165.14 92.9043Z" fill="black"/>
<path d="M181.571 26.262C181.613 28.2076 181.061 30.1198 179.989 31.7438L179.914 31.8584L173.109 42.0199C172.983 42.2049 172.814 42.3564 172.616 42.4611C172.418 42.5657 172.198 42.6202 171.974 42.6202C171.75 42.6202 171.53 42.5657 171.332 42.4611C171.134 42.3564 170.965 42.2049 170.839 42.0199L164.034 31.856L163.957 31.7414C163.14 30.499 162.622 29.0835 162.445 27.6069C162.268 26.1302 162.437 24.6327 162.938 23.2324C163.439 21.8321 164.258 20.5675 165.332 19.5381C166.405 18.5087 167.703 17.7428 169.123 17.3009C170.543 16.8589 172.046 16.7529 173.514 16.9913C174.982 17.2298 176.375 17.8063 177.582 18.675C178.789 19.5437 179.778 20.681 180.47 21.9973C181.162 23.3135 181.539 24.7727 181.571 26.2595V26.262Z" fill="#6F4AE7" stroke="black" stroke-width="0.787487" stroke-linecap="round" stroke-linejoin="round"/>
<path d="M175.498 27.371C175.675 26.6772 175.642 25.9465 175.404 25.2712C175.166 24.5959 174.733 24.0064 174.16 23.5771C173.587 23.1478 172.9 22.8981 172.185 22.8595C171.47 22.8209 170.759 22.9952 170.144 23.3603C169.528 23.7254 169.034 24.2651 168.724 24.9108C168.415 25.5566 168.304 26.2794 168.406 26.9882C168.507 27.697 168.817 28.3598 169.295 28.8928C169.773 29.4257 170.398 29.8049 171.092 29.9824C171.553 30.1003 172.032 30.1263 172.503 30.0589C172.974 29.9914 173.427 29.8317 173.836 29.5892C174.245 29.3467 174.602 29.0262 174.887 28.6456C175.172 28.2649 175.38 27.8317 175.498 27.371Z" fill="white" stroke="black" stroke-width="0.787487" stroke-miterlimit="10"/>
<path d="M85.5132 139.722L83.0538 140.312C82.2738 140.495 81.4532 140.362 80.7711 139.942C80.089 139.522 79.6009 138.849 79.4133 138.07L77.6218 130.56C77.4385 129.781 77.57 128.962 77.9877 128.281C78.4053 127.599 79.0753 127.109 79.8519 126.919L82.3113 126.329L85.5132 139.722Z" stroke="black" stroke-width="0.787487" stroke-linejoin="round"/>
<path d="M111.477 114.196C111.773 114.122 112.028 113.935 112.188 113.675C112.348 113.416 112.4 113.104 112.334 112.806L112.297 112.614C111.775 110.332 110.807 108.175 109.448 106.268C108.089 104.361 106.366 102.742 104.379 101.505C102.391 100.267 100.178 99.4345 97.8679 99.0556C95.5573 98.6768 93.1946 98.7589 90.916 99.2973C88.6373 99.8356 86.4877 100.819 84.591 102.192C82.6943 103.565 81.088 105.3 79.8647 107.296C78.6414 109.293 77.8253 111.511 77.4633 113.825C77.1014 116.138 77.2008 118.5 77.7558 120.775L77.7932 120.964C77.8682 121.26 78.0552 121.515 78.3146 121.675C78.574 121.835 78.8856 121.889 79.1836 121.824L80.2725 121.555C80.5676 121.479 80.8219 121.292 80.9818 121.033C81.1417 120.773 81.1947 120.462 81.1296 120.164L81.0923 119.972C80.5506 117.673 80.5857 115.275 81.1945 112.993C81.8033 110.71 82.9668 108.613 84.5816 106.889C86.1964 105.165 88.2125 103.866 90.4503 103.109C92.6881 102.352 95.0783 102.16 97.4083 102.55C100.151 103.018 102.701 104.269 104.749 106.153C106.856 108.08 108.333 110.599 108.985 113.379L109.022 113.571C109.097 113.867 109.285 114.122 109.545 114.282C109.805 114.442 110.117 114.495 110.415 114.428L111.477 114.196Z" fill="#C3C5FF" stroke="white" stroke-width="0.787487" stroke-linecap="round" stroke-linejoin="round"/>
<path d="M90.3001 140.995L88.202 141.494C87.9204 141.561 87.6284 141.571 87.3427 141.525C87.0569 141.479 86.7831 141.377 86.537 141.224C86.2909 141.072 86.0773 140.873 85.9085 140.637C85.7397 140.402 85.619 140.136 85.5533 139.854L82.314 126.184C82.2467 125.903 82.2358 125.611 82.2819 125.325C82.328 125.039 82.4302 124.765 82.5826 124.519C82.735 124.273 82.9346 124.059 83.1699 123.89C83.4052 123.722 83.6715 123.601 83.9536 123.536L86.0516 123.037C86.3333 122.97 86.6254 122.959 86.9113 123.005C87.1971 123.051 87.471 123.153 87.7172 123.306C87.9634 123.458 88.177 123.658 88.3458 123.893C88.5145 124.128 88.635 124.395 88.7004 124.677L91.9397 138.344C92.0729 138.913 91.9751 139.512 91.6678 140.009C91.3604 140.506 90.8686 140.86 90.3001 140.995Z" stroke="black" stroke-width="0.787487" stroke-linejoin="round"/>
<path d="M85.5132 139.722L83.0538 140.312C82.2738 140.495 81.4532 140.362 80.7711 139.942C80.089 139.522 79.6009 138.849 79.4133 138.07L77.6218 130.56C77.4385 129.781 77.57 128.962 77.9877 128.281C78.4053 127.599 79.0753 127.109 79.8519 126.919L82.3113 126.329L85.5132 139.722Z" stroke="white" stroke-width="0.787487" stroke-linejoin="round"/>
<path d="M90.3001 140.995L88.202 141.494C87.9204 141.561 87.6284 141.571 87.3427 141.525C87.0569 141.479 86.7831 141.377 86.537 141.224C86.2909 141.072 86.0773 140.873 85.9085 140.637C85.7397 140.402 85.619 140.136 85.5533 139.854L82.314 126.184C82.2467 125.903 82.2358 125.611 82.2819 125.325C82.328 125.039 82.4302 124.765 82.5826 124.519C82.735 124.273 82.9346 124.059 83.1699 123.89C83.4052 123.722 83.6715 123.601 83.9536 123.536L86.0516 123.037C86.3333 122.97 86.6254 122.959 86.9113 123.005C87.1971 123.051 87.471 123.153 87.7172 123.306C87.9634 123.458 88.177 123.658 88.3458 123.893C88.5145 124.128 88.635 124.395 88.7004 124.677L91.9397 138.344C92.0729 138.913 91.9751 139.512 91.6678 140.009C91.3604 140.506 90.8686 140.86 90.3001 140.995Z" stroke="white" stroke-width="0.787487" stroke-linejoin="round"/>
<path d="M113.803 133.022L116.262 132.431C116.651 132.344 117.018 132.179 117.342 131.948C117.666 131.716 117.94 131.422 118.149 131.083C118.358 130.744 118.497 130.366 118.558 129.973C118.619 129.579 118.601 129.177 118.505 128.791L116.713 121.281C116.625 120.892 116.461 120.525 116.229 120.201C115.998 119.877 115.704 119.602 115.365 119.393C115.026 119.184 114.648 119.046 114.255 118.985C113.861 118.924 113.459 118.942 113.073 119.038L110.613 119.629L113.803 133.022Z" stroke="white" stroke-width="0.787487" stroke-linejoin="round"/>
<path d="M110.106 136.291L112.204 135.793C112.773 135.658 113.264 135.304 113.572 134.807C113.879 134.311 113.977 133.712 113.844 133.144L110.605 119.476C110.538 119.195 110.417 118.929 110.248 118.694C110.079 118.46 109.866 118.26 109.62 118.108C109.374 117.956 109.1 117.854 108.815 117.807C108.529 117.761 108.237 117.771 107.956 117.837L105.858 118.335C105.289 118.47 104.798 118.824 104.49 119.321C104.183 119.817 104.085 120.415 104.218 120.984L107.458 134.651C107.521 134.934 107.64 135.202 107.809 135.438C107.977 135.675 108.191 135.875 108.437 136.028C108.684 136.18 108.959 136.282 109.245 136.327C109.532 136.373 109.825 136.36 110.106 136.291V136.291Z" stroke="white" stroke-width="0.787487" stroke-linejoin="round"/>
<path d="M79.7383 121.956L80.8247 126.588" stroke="white" stroke-width="0.787487" stroke-linecap="round" stroke-linejoin="round"/>
<path d="M110.982 114.541L112.069 119.173" stroke="white" stroke-width="0.787487" stroke-linecap="round" stroke-linejoin="round"/>
<path d="M89.6699 116.696C90.1742 115.876 90.835 115.163 91.6148 114.599C92.3945 114.034 93.2779 113.629 94.2143 113.406C95.1508 113.182 96.1221 113.146 97.0726 113.298C98.0231 113.451 98.9343 113.789 99.7541 114.294" stroke="white" stroke-width="0.787487" stroke-linecap="round" stroke-linejoin="round"/>
<path d="M92.0547 118.143C92.6863 117.116 93.6998 116.382 94.8725 116.102C96.0452 115.821 97.2812 116.018 98.309 116.648" stroke="white" stroke-width="0.787487" stroke-linecap="round" stroke-linejoin="round"/>
<path d="M94.3027 119.534C94.4336 119.322 94.6052 119.138 94.8076 118.992C95.0099 118.847 95.2391 118.742 95.4818 118.686C95.7246 118.629 95.9761 118.621 96.2219 118.663C96.4677 118.704 96.703 118.793 96.9141 118.926" stroke="white" stroke-width="0.787487" stroke-linecap="round" stroke-linejoin="round"/>
<path d="M239.787 60.013C239.711 60.0111 239.639 59.9802 239.586 59.9269C239.533 59.8736 239.502 59.8018 239.5 59.7264V57.1551C239.5 57.0791 239.53 57.0061 239.584 56.9524C239.638 56.8986 239.711 56.8684 239.787 56.8684C239.863 56.8684 239.935 56.8986 239.989 56.9524C240.043 57.0061 240.073 57.0791 240.073 57.1551V59.7264C240.074 59.7642 240.067 59.8018 240.053 59.8369C240.039 59.8719 240.017 59.9038 239.991 59.9305C239.964 59.9573 239.932 59.9784 239.897 59.9926C239.862 60.0068 239.824 60.0137 239.787 60.013Z" fill="white" stroke="white" stroke-width="0.401618" stroke-miterlimit="10"/>
<path d="M241.371 58.4583C241.369 58.5337 241.338 58.6055 241.285 58.6588C241.232 58.7121 241.16 58.743 241.085 58.7449H238.513C238.437 58.7449 238.364 58.7147 238.31 58.661C238.257 58.6072 238.227 58.5343 238.227 58.4583C238.227 58.3823 238.257 58.3096 238.31 58.2558C238.364 58.2021 238.437 58.1719 238.513 58.1719H241.085C241.16 58.1738 241.232 58.2044 241.285 58.2578C241.338 58.3111 241.369 58.3829 241.371 58.4583Z" fill="white" stroke="white" stroke-width="0.401618" stroke-miterlimit="10"/>
</svg>
