<svg width="24" height="24" viewBox="0 0 24 24" fill="none" xmlns="http://www.w3.org/2000/svg">
<path d="M4.91667 4H19.0833C19.8625 4 20.5 4.65455 20.5 5.45455V18.5455C20.5 19.3455 19.8625 20 19.0833 20H4.91667C4.1375 20 3.5 19.3455 3.5 18.5455V5.45455C3.5 4.65455 4.1375 4 4.91667 4Z" fill="#3D3D3D"/>
<path d="M12.0001 5.45453H18.3751C18.8001 5.45453 19.0834 5.74544 19.0834 6.1818V17.8182C19.0834 18.2545 18.8001 18.5454 18.3751 18.5454H12.0001V5.45453ZM7.39595 12.3636L9.30845 9.67271C9.45011 9.45453 9.73345 9.45453 9.87511 9.59998L10.3709 9.96362C10.5126 10.1091 10.5126 10.3273 10.3709 10.4727L7.60845 14.1818C7.46678 14.3273 7.25428 14.4 7.04178 14.2545L5.48345 12.6545C5.34178 12.5091 5.34178 12.2909 5.48345 12.1454L6.05011 11.5636C6.19178 11.4182 6.40428 11.4182 6.54595 11.5636L7.39595 12.3636Z" fill="#F9F9FA"/>
<path d="M14.1251 9.81818L13.4167 10.5454L14.8334 12L13.4167 13.4545L14.1251 14.1818L15.5417 12.7273L16.9584 14.1818L17.6667 13.4545L16.2501 12L17.6667 10.5454L16.9584 9.81818L15.5417 11.28L14.1251 9.81818Z" fill="#3D3D3D"/>
</svg>
