<svg width="14" height="15" viewBox="0 0 14 15" fill="none" xmlns="http://www.w3.org/2000/svg">
<path d="M1 13.6155C0.998668 13.7787 1.02983 13.9406 1.09168 14.0916C1.15352 14.2426 1.24481 14.3799 1.36022 14.4953C1.47563 14.6107 1.61286 14.702 1.7639 14.7638C1.91495 14.8257 2.07679 14.8568 2.24 14.8555H6V8.8555H1V13.6155ZM8 8.8555V14.8555H11.76C11.9232 14.8568 12.0851 14.8257 12.2361 14.7638C12.3871 14.702 12.5244 14.6107 12.6398 14.4953C12.7552 14.3799 12.8465 14.2426 12.9083 14.0916C12.9702 13.9406 13.0013 13.7787 13 13.6155V8.8555H8ZM0 4.8555V7.8555H6V3.8555H1C0.734784 3.8555 0.48043 3.96086 0.292893 4.14839C0.105357 4.33593 0 4.59028 0 4.8555ZM13 3.8555H8V7.8555H14V4.8555C14 4.59028 13.8946 4.33593 13.7071 4.14839C13.5196 3.96086 13.2652 3.8555 13 3.8555ZM9.05 0.2655C8.8844 0.142106 8.69252 0.0586563 8.48934 0.021668C8.28617 -0.0153203 8.07719 -0.00484652 7.87873 0.0522715C7.68027 0.10939 7.49769 0.211606 7.34526 0.35094C7.19283 0.490274 7.07467 0.662955 7 0.8555C6.92209 0.671991 6.80451 0.508015 6.6557 0.375351C6.50689 0.242687 6.33054 0.144628 6.13932 0.0882202C5.94811 0.0318119 5.74677 0.0184539 5.54978 0.0491059C5.35279 0.079758 5.16503 0.153659 5 0.2655C4.2 0.9355 3.91 2.3355 7 3.8555C10.09 2.3355 9.8 0.9355 9.05 0.2655Z" fill="#3D3D3D"/>
</svg>
