<svg width="241" height="141" viewBox="0 0 241 141" fill="none" xmlns="http://www.w3.org/2000/svg">
<path d="M116.959 132.37V133.274C116.965 133.317 116.986 133.357 117.018 133.386C117.051 133.414 117.093 133.43 117.137 133.43C117.18 133.43 117.222 133.414 117.255 133.386C117.287 133.357 117.308 133.317 117.314 133.274V132.37C117.314 132.326 117.297 132.283 117.267 132.25C117.237 132.217 117.196 132.196 117.151 132.192C117.107 132.188 117.062 132.201 117.027 132.228C116.991 132.255 116.967 132.294 116.959 132.338V132.37Z" fill="white"/>
<path d="M116.684 132.999H117.591C117.638 132.994 117.681 132.971 117.711 132.935C117.742 132.899 117.756 132.852 117.752 132.805C117.748 132.764 117.729 132.725 117.7 132.696C117.67 132.667 117.632 132.648 117.591 132.644H116.684C116.637 132.64 116.591 132.655 116.556 132.686C116.52 132.716 116.498 132.759 116.493 132.805C116.491 132.829 116.493 132.852 116.5 132.874C116.507 132.897 116.518 132.918 116.533 132.936C116.548 132.954 116.567 132.969 116.587 132.98C116.608 132.99 116.631 132.997 116.655 132.999H116.684Z" fill="white"/>
<path fill-rule="evenodd" clip-rule="evenodd" d="M210.323 11.6885C210.538 11.6885 210.749 11.7524 210.927 11.8718C211.106 11.9913 211.246 12.1609 211.328 12.3596C211.41 12.5582 211.432 12.7768 211.39 12.9877C211.348 13.1985 211.244 13.3923 211.092 13.5443C210.94 13.6963 210.746 13.7999 210.536 13.8418C210.325 13.8838 210.106 13.8621 209.907 13.7799C209.709 13.6976 209.539 13.5584 209.42 13.3796C209.3 13.2008 209.236 12.9906 209.236 12.7756C209.236 12.4873 209.351 12.2108 209.555 12.007C209.759 11.8031 210.035 11.6885 210.323 11.6885V11.6885Z" fill="#6A45E3"/>
<path fill-rule="evenodd" clip-rule="evenodd" d="M218.612 3.6029C217.56 2.46667 216.284 1.55991 214.865 0.939961C213.446 0.32001 211.914 0 210.365 0C208.816 0 207.284 0.32001 205.865 0.939961C204.446 1.55991 203.17 2.46667 202.118 3.6029C202.003 3.73143 201.944 3.89957 201.952 4.07144C201.96 4.24332 202.035 4.40503 202.161 4.5222C202.287 4.63937 202.454 4.70275 202.626 4.69837C202.798 4.694 202.961 4.62239 203.081 4.49896C204.011 3.49553 205.138 2.69483 206.391 2.14734C207.644 1.59984 208.997 1.31727 210.365 1.31727C211.733 1.31727 213.086 1.59984 214.339 2.14734C215.592 2.69483 216.719 3.49553 217.648 4.49896C217.71 4.56575 217.784 4.61891 217.867 4.65533C217.95 4.69176 218.04 4.71056 218.13 4.71042C218.297 4.711 218.457 4.64661 218.577 4.5311C218.64 4.47258 218.692 4.40206 218.728 4.32365C218.764 4.24524 218.784 4.16059 218.788 4.07431C218.791 3.98803 218.777 3.90189 218.747 3.82096C218.717 3.74004 218.671 3.66606 218.612 3.6029V3.6029Z" fill="#6A45E3"/>
<path fill-rule="evenodd" clip-rule="evenodd" d="M216.198 6.32083C215.446 5.53176 214.541 4.90337 213.539 4.47419C212.537 4.045 211.458 3.82373 210.368 3.82373C209.277 3.82373 208.199 4.045 207.196 4.47419C206.194 4.90337 205.289 5.53176 204.537 6.32083C204.413 6.44478 204.344 6.61275 204.344 6.78794C204.344 6.96312 204.413 7.1311 204.537 7.25505C204.598 7.31617 204.67 7.36456 204.75 7.39765C204.83 7.43074 204.915 7.44786 205.001 7.44786C205.088 7.44786 205.173 7.43074 205.253 7.39765C205.332 7.36456 205.405 7.31617 205.466 7.25505C206.095 6.58879 206.854 6.05806 207.696 5.69533C208.538 5.3326 209.445 5.14559 210.362 5.14559C211.279 5.14559 212.186 5.3326 213.028 5.69533C213.87 6.05806 214.629 6.58879 215.258 7.25505C215.381 7.37895 215.549 7.44874 215.723 7.4493C215.898 7.44985 216.066 7.38104 216.19 7.25792C216.314 7.1348 216.383 6.96748 216.384 6.79281C216.384 6.61815 216.316 6.45046 216.193 6.32656L216.198 6.32083Z" fill="#6A45E3"/>
<path fill-rule="evenodd" clip-rule="evenodd" d="M213.555 9.04388C212.701 8.19614 211.556 7.70475 210.353 7.66895H210.323C209.12 7.70416 207.975 8.19565 207.121 9.04388C207.06 9.10501 207.011 9.17773 206.978 9.25764C206.945 9.33755 206.928 9.42306 206.928 9.50956C206.928 9.59606 206.945 9.68186 206.978 9.76177C207.011 9.84167 207.06 9.91411 207.121 9.97524C207.245 10.0972 207.411 10.1658 207.585 10.1658C207.759 10.1658 207.925 10.0972 208.049 9.97524C208.657 9.37087 209.47 9.01573 210.326 8.97932H210.376C211.233 9.01573 212.045 9.37087 212.653 9.97524C212.781 10.0622 212.936 10.1013 213.09 10.0854C213.244 10.0695 213.388 9.99984 213.496 9.88859C213.603 9.77733 213.668 9.63162 213.679 9.47714C213.69 9.32265 213.646 9.16919 213.555 9.04388Z" fill="#6A45E3"/>
<path d="M104.822 51.2118L142.63 43.7461L141.998 59.6236L109.964 67.6269L104.822 51.2118Z" fill="#6A4CE0"/>
<path d="M36.2032 58.3867H0.40242C0.294304 58.3992 0.194571 58.4509 0.122168 58.5322C0.0497644 58.6134 0.00976562 58.7186 0.00976562 58.8274C0.00976562 58.9363 0.0497644 59.0411 0.122168 59.1224C0.194571 59.2037 0.294304 59.2556 0.40242 59.2681H36.2032C36.3113 59.2556 36.411 59.2037 36.4834 59.1224C36.5558 59.0411 36.5958 58.9363 36.5958 58.8274C36.5958 58.7186 36.5558 58.6134 36.4834 58.5322C36.411 58.4509 36.3113 58.3992 36.2032 58.3867Z" fill="white"/>
<path d="M14.5079 53.8057H24.3828C24.4949 53.8077 24.6036 53.7673 24.687 53.6924C24.7704 53.6175 24.8224 53.5137 24.8325 53.402C24.8425 53.2904 24.8099 53.1791 24.7412 53.0904C24.6725 53.0018 24.5728 52.9424 24.4621 52.9243H14.5079C14.3998 52.9368 14.3 52.9888 14.2276 53.0701C14.1552 53.1513 14.1152 53.2562 14.1152 53.365C14.1152 53.4739 14.1552 53.579 14.2276 53.6603C14.3 53.7415 14.3998 53.7932 14.5079 53.8057Z" fill="white"/>
<path d="M28.4571 53.8057H37.4507C37.5086 53.8109 37.5669 53.8047 37.6224 53.7873C37.6779 53.7699 37.7294 53.7415 37.7739 53.7041C37.8184 53.6667 37.855 53.6209 37.8818 53.5693C37.9085 53.5176 37.9247 53.4614 37.9295 53.4034C37.9393 53.2863 37.9026 53.17 37.8272 53.0798C37.7519 52.9896 37.644 52.9326 37.527 52.9214H28.4571C28.349 52.9339 28.2493 52.9859 28.1769 53.0671C28.1045 53.1484 28.0645 53.2533 28.0645 53.3621C28.0645 53.4709 28.1045 53.5761 28.1769 53.6573C28.2493 53.7386 28.349 53.7903 28.4571 53.8028" fill="white"/>
<path d="M231.748 34.3706L168.444 50.8357L147.666 82.7023H110.399L100.635 97.4956H85.4278L72.08 70.4269L58.5765 97.4956H13.75" stroke="white" stroke-width="0.440527" stroke-linecap="round" stroke-linejoin="round"/>
<path d="M52.8172 63.252C57.8637 63.252 61.9546 59.161 61.9546 54.1145C61.9546 49.068 57.8637 44.9771 52.8172 44.9771C47.7707 44.9771 43.6797 49.068 43.6797 54.1145C43.6797 59.161 47.7707 63.252 52.8172 63.252Z" fill="#C3C5FF" stroke="white" stroke-width="0.440527" stroke-miterlimit="10"/>
<path d="M55.2916 55.9715C55.2933 56.4821 55.1328 56.98 54.8332 57.3935C54.5411 57.8008 54.1308 58.1085 53.658 58.2749L53.3083 58.3986V59.9293C53.3085 59.9899 53.2966 60.0498 53.2734 60.1058C53.2502 60.1617 53.2161 60.2125 53.1731 60.2552C53.1084 60.3203 53.0258 60.3648 52.9358 60.3829C52.8458 60.4011 52.7525 60.392 52.6676 60.3571C52.5827 60.3222 52.51 60.2631 52.4588 60.187C52.4076 60.1108 52.3801 60.0211 52.3799 59.9293V58.4043L52.0214 58.2867C51.4039 58.0604 50.8595 57.6704 50.4466 57.1585C50.3781 57.0757 50.3397 56.9721 50.3379 56.8647C50.3378 56.7974 50.3525 56.7311 50.3809 56.6701C50.4094 56.6092 50.4508 56.5551 50.5024 56.512C50.5849 56.4426 50.6885 56.4033 50.7963 56.4004C50.8644 56.4014 50.9316 56.4169 50.9934 56.4458C51.0552 56.4746 51.1102 56.5163 51.1547 56.568C51.3719 56.8348 51.6333 57.0623 51.9274 57.2408C52.2037 57.4067 52.5189 57.4967 52.8412 57.5022C53.2425 57.5014 53.6272 57.3419 53.9113 57.0583C54.1954 56.7748 54.3556 56.3906 54.3572 55.9893C54.3556 55.5879 54.1954 55.2034 53.9113 54.9199C53.6272 54.6364 53.2425 54.4768 52.8412 54.476C52.5203 54.476 52.2026 54.4127 51.9061 54.2898C51.6097 54.1669 51.3404 53.9869 51.1137 53.7599C50.8869 53.5328 50.7071 53.2634 50.5846 52.9668C50.462 52.6702 50.3992 52.3523 50.3996 52.0314C50.3974 51.5208 50.558 51.0227 50.8579 50.6094C51.151 50.203 51.561 49.8956 52.0332 49.728L52.3828 49.6046V48.0739C52.3826 48.0129 52.3944 47.9525 52.4176 47.896C52.4408 47.8395 52.4749 47.7881 52.5179 47.7448C52.6054 47.658 52.7238 47.6094 52.847 47.6094C52.9703 47.6094 53.0886 47.658 53.1761 47.7448C53.262 47.8329 53.3105 47.9509 53.3113 48.0739V49.59L53.6727 49.7105C54.146 49.874 54.5753 50.1443 54.9272 50.5007C54.9721 50.5435 55.0077 50.5951 55.032 50.6522C55.0562 50.7093 55.0686 50.7709 55.0683 50.833C55.069 50.9534 55.0226 51.0693 54.9389 51.156C54.8958 51.2013 54.8438 51.2371 54.7861 51.2613C54.7285 51.2856 54.6665 51.2977 54.604 51.2969C54.5447 51.2977 54.4858 51.2867 54.4309 51.2645C54.3759 51.2423 54.3259 51.2095 54.2837 51.1678C54.0861 50.9729 53.8591 50.8104 53.611 50.6861C53.3733 50.5683 53.1123 50.5048 52.847 50.5007C52.4457 50.5023 52.0613 50.6628 51.7777 50.9469C51.4942 51.2309 51.3347 51.6155 51.3339 52.0168C51.3339 52.4184 51.4932 52.8037 51.7769 53.0879C52.0606 53.3721 52.4455 53.5321 52.847 53.5329C53.4946 53.5329 54.1156 53.79 54.5735 54.2479C55.0313 54.7058 55.2886 55.3271 55.2886 55.9746L55.2916 55.9715Z" fill="black"/>
<path d="M101.235 119.631V121.981C101.247 122.094 101.301 122.198 101.386 122.273C101.47 122.349 101.58 122.391 101.693 122.391C101.806 122.391 101.916 122.349 102 122.273C102.085 122.198 102.139 122.094 102.151 121.981V119.631C102.161 119.509 102.122 119.388 102.044 119.295C101.965 119.201 101.853 119.143 101.731 119.132C101.671 119.126 101.611 119.133 101.553 119.151C101.496 119.169 101.443 119.198 101.396 119.237C101.35 119.276 101.312 119.323 101.285 119.377C101.257 119.43 101.24 119.489 101.235 119.549C101.232 119.576 101.232 119.604 101.235 119.631" fill="white"/>
<path d="M100.52 121.262H102.871C102.984 121.249 103.087 121.195 103.163 121.111C103.238 121.026 103.28 120.917 103.28 120.803C103.28 120.69 103.238 120.581 103.163 120.496C103.087 120.412 102.984 120.358 102.871 120.345H100.52C100.458 120.335 100.394 120.338 100.333 120.354C100.272 120.37 100.214 120.398 100.164 120.437C100.114 120.476 100.073 120.524 100.043 120.58C100.012 120.635 99.9938 120.696 99.9882 120.759C99.9825 120.822 99.9899 120.886 100.01 120.946C100.03 121.006 100.062 121.061 100.104 121.108C100.146 121.156 100.198 121.193 100.255 121.22C100.313 121.246 100.375 121.261 100.438 121.262C100.465 121.265 100.493 121.265 100.52 121.262" fill="white"/>
<path d="M191.995 28.9848L193.373 37.0528C194.161 41.6068 193.451 46.2935 191.349 50.4094C189.298 54.454 186.037 57.7587 182.02 59.8641C181.984 59.8755 181.947 59.8825 181.909 59.8848C177.423 59.2305 173.253 57.1928 169.98 54.0556C166.637 50.8666 164.416 46.6804 163.651 42.1239L162.276 34.0559C162.268 34.0113 162.277 33.9653 162.302 33.9271C162.326 33.8889 162.365 33.8614 162.409 33.8502C163.935 33.4277 165.27 32.494 166.19 31.2051C167.111 29.9162 167.561 28.3504 167.465 26.7695C167.461 26.7248 167.474 26.6802 167.501 26.6444C167.528 26.6086 167.568 26.5841 167.612 26.5755L184.468 23.7052C184.513 23.6985 184.559 23.7084 184.598 23.7333C184.636 23.7582 184.664 23.7963 184.676 23.8403C185.115 25.3613 186.061 26.6863 187.357 27.595C188.654 28.5037 190.222 28.9413 191.801 28.8351C191.846 28.8327 191.89 28.8466 191.926 28.8741C191.961 28.9016 191.986 28.9408 191.995 28.9848Z" fill="white" stroke="white" stroke-width="0.440527" stroke-linecap="round" stroke-linejoin="round"/>
<path d="M189.505 31.5885L190.613 38.1051C191.251 41.7824 190.677 45.5674 188.979 48.8909C187.323 52.1581 184.69 54.8281 181.446 56.5299C181.418 56.5426 181.388 56.5497 181.358 56.5506C177.734 56.0228 174.365 54.3798 171.718 51.8496C169.014 49.2747 167.218 45.892 166.6 42.2096L165.492 35.6812C165.486 35.6444 165.494 35.6067 165.514 35.5753C165.534 35.544 165.565 35.5211 165.601 35.5108C166.834 35.169 167.912 34.414 168.655 33.372C169.398 32.3301 169.761 31.0645 169.682 29.7872C169.678 29.7507 169.688 29.7142 169.71 29.6851C169.733 29.656 169.766 29.6368 169.802 29.6317L183.42 27.3016C183.457 27.2959 183.495 27.304 183.526 27.324C183.558 27.344 183.58 27.3746 183.591 27.4104C183.942 28.639 184.705 29.7098 185.751 30.444C186.797 31.1782 188.063 31.5315 189.338 31.4445C189.376 31.4501 189.413 31.4666 189.442 31.4921C189.472 31.5176 189.494 31.5511 189.505 31.5885V31.5885Z" fill="#6A4CE0"/>
<path d="M184.909 38.1312C184.896 38.158 184.878 38.1821 184.856 38.2018L179.344 46.5254C179.127 46.8534 178.788 47.0816 178.403 47.1604C178.017 47.2391 177.616 47.1619 177.287 46.9455L173.706 44.5715C173.379 44.353 173.152 44.0146 173.073 43.6295C172.995 43.2445 173.071 42.8439 173.286 42.5148L173.312 42.4795C173.418 42.3153 173.556 42.1741 173.717 42.0638C173.879 41.9535 174.061 41.8765 174.252 41.8374C174.444 41.7983 174.641 41.7975 174.833 41.8357C175.025 41.8738 175.207 41.95 175.369 42.0595L177.569 43.5078C177.588 43.5207 177.61 43.5297 177.632 43.534C177.655 43.5382 177.678 43.5378 177.7 43.5328C177.722 43.5279 177.743 43.5184 177.762 43.505C177.78 43.4916 177.796 43.4747 177.807 43.4551L182.367 36.568C182.47 36.401 182.605 36.2559 182.765 36.1411C182.924 36.0263 183.104 35.9442 183.295 35.8992C183.486 35.8542 183.684 35.8472 183.878 35.8788C184.072 35.9104 184.257 35.98 184.424 36.0834C184.756 36.2941 184.992 36.6262 185.083 37.0087C185.174 37.3913 185.111 37.794 184.909 38.1312V38.1312Z" fill="white"/>
<path d="M117.13 79.1736C119.275 79.1736 121.014 77.4346 121.014 75.2894C121.014 73.1443 119.275 71.4053 117.13 71.4053C114.985 71.4053 113.246 73.1443 113.246 75.2894C113.246 77.4346 114.985 79.1736 117.13 79.1736Z" stroke="white" stroke-width="0.440527" stroke-linecap="round" stroke-linejoin="round"/>
<path d="M138.757 75.1218C140.902 75.1218 142.641 73.3828 142.641 71.2377C142.641 69.0925 140.902 67.3535 138.757 67.3535C136.612 67.3535 134.873 69.0925 134.873 71.2377C134.873 73.3828 136.612 75.1218 138.757 75.1218Z" stroke="white" stroke-width="0.440527" stroke-linecap="round" stroke-linejoin="round"/>
<path d="M97.832 44.8332L102.545 43.9518L109.963 67.6269L141.997 59.6236L142.629 43.7461L104.822 51.2118" stroke="white" stroke-width="0.440527" stroke-linecap="round" stroke-linejoin="round"/>
<path d="M138.047 67.4214L115.444 71.6549C114.858 71.767 114.256 71.7628 113.673 71.642C113.089 71.5213 112.535 71.2865 112.042 70.9514C111.548 70.6163 111.126 70.1873 110.799 69.6889C110.472 69.1906 110.246 68.6328 110.135 68.0472" stroke="white" stroke-width="0.440527" stroke-linecap="round" stroke-linejoin="round"/>
<path d="M130.866 53.0393C129.666 54.4125 128.002 55.2952 126.192 55.5188C125.894 55.5546 125.595 55.5743 125.296 55.5777C123.486 55.571 121.741 54.907 120.385 53.7092C119.029 52.5114 118.154 50.8615 117.924 49.0668C117.882 48.768 117.86 48.4668 117.859 48.165C117.867 46.3549 118.532 44.609 119.731 43.2529C120.93 41.8967 122.581 41.0225 124.376 40.7931C124.673 40.7524 124.972 40.7309 125.272 40.7285C127.081 40.7364 128.826 41.4008 130.182 42.5984C131.538 43.7959 132.413 45.4452 132.644 47.2394C132.683 47.5384 132.702 47.8399 132.7 48.1415C132.7 49.9419 132.049 51.6816 130.866 53.0393V53.0393Z" fill="white" stroke="white" stroke-width="0.440527" stroke-miterlimit="10"/>
<path d="M128.212 46.2226C128.216 46.3836 128.163 46.5408 128.062 46.6661L125.235 50.3035C125.17 50.3916 125.084 50.463 124.986 50.5115C124.887 50.56 124.778 50.5844 124.668 50.5826C124.509 50.5858 124.354 50.5328 124.231 50.4329V50.4329L122.409 49.0166C122.321 48.9488 122.249 48.8623 122.198 48.7633C122.147 48.6642 122.119 48.5549 122.115 48.4436C122.115 48.2837 122.169 48.1285 122.268 48.0029V48.0029C122.385 47.8531 122.556 47.7558 122.744 47.7321C122.933 47.7084 123.123 47.7604 123.273 47.8767V47.8767L124.524 48.8493L126.913 45.7758C127.005 45.658 127.132 45.5719 127.275 45.5294C127.419 45.4868 127.572 45.4898 127.713 45.5383C127.855 45.5867 127.978 45.6781 128.065 45.7996C128.152 45.9212 128.199 46.0669 128.2 46.2165L128.212 46.2226Z" fill="black"/>
<path d="M189.863 106.072V76.9844H213.835V106.104L189.863 106.072Z" fill="#C0C3F6"/>
<path d="M189.863 106.072H190.237V77.3576H213.468V105.734L189.863 105.702V106.072V106.442L213.835 106.474C213.934 106.474 214.029 106.434 214.098 106.364C214.168 106.294 214.208 106.2 214.209 106.101V76.9903C214.209 76.8939 214.172 76.801 214.105 76.7318C214.038 76.6625 213.946 76.6225 213.85 76.6202H189.875C189.828 76.6194 189.781 76.628 189.736 76.6454C189.692 76.6629 189.652 76.6887 189.618 76.7217C189.584 76.7548 189.557 76.7944 189.538 76.8379C189.519 76.8815 189.509 76.9282 189.508 76.9757V106.063C189.507 106.111 189.516 106.159 189.534 106.204C189.552 106.249 189.579 106.29 189.613 106.324C189.646 106.359 189.687 106.386 189.731 106.405C189.776 106.424 189.824 106.433 189.872 106.433V106.433L189.863 106.072Z" fill="white"/>
<path d="M189.861 76.9849H189.494V105.032L186.321 101.859L186.124 76.9936C186.124 76.9455 186.114 76.8979 186.096 76.8535C186.077 76.8091 186.05 76.7689 186.016 76.735C185.982 76.7012 185.942 76.6743 185.897 76.6561C185.853 76.638 185.805 76.6291 185.757 76.6295V76.6295C185.659 76.6295 185.566 76.6682 185.497 76.737C185.428 76.8059 185.389 76.8993 185.389 76.9967L185.586 101.859L182.434 104.976V77.358H189.855V76.9849V76.6206H182.072C181.976 76.621 181.883 76.659 181.814 76.7264C181.745 76.7964 181.706 76.8899 181.705 76.9878V105.878C181.704 105.952 181.726 106.024 181.766 106.085C181.807 106.146 181.865 106.194 181.933 106.222C182.001 106.249 182.076 106.256 182.148 106.241C182.22 106.226 182.286 106.19 182.337 106.137L186.209 102.267C186.279 102.197 186.318 102.102 186.318 102.003L186.118 76.9849C186.118 76.9369 186.109 76.889 186.09 76.8446C186.072 76.8002 186.044 76.76 186.01 76.7261C185.976 76.6923 185.936 76.6657 185.891 76.6475C185.847 76.6294 185.799 76.6202 185.751 76.6206V76.6206C185.653 76.6206 185.56 76.6593 185.491 76.7282C185.422 76.797 185.384 76.8904 185.384 76.9878L185.58 102.003C185.582 102.101 185.622 102.195 185.692 102.264L189.611 106.187C189.663 106.238 189.729 106.273 189.801 106.287C189.873 106.3 189.947 106.292 190.014 106.263C190.083 106.237 190.142 106.191 190.183 106.131C190.225 106.07 190.247 105.998 190.246 105.925V76.9849C190.246 76.9365 190.237 76.8885 190.218 76.8438C190.199 76.799 190.172 76.7583 190.137 76.7241C190.103 76.69 190.062 76.6629 190.017 76.6447C189.972 76.6264 189.924 76.6173 189.876 76.6177L189.861 76.9849Z" fill="white"/>
<path d="M206.766 76.8466V73.0655C206.734 71.7444 206.187 70.4879 205.242 69.5648C204.296 68.6417 203.027 68.125 201.705 68.125C200.384 68.125 199.115 68.6417 198.169 69.5648C197.224 70.4879 196.676 71.7444 196.645 73.0655V76.8466C196.645 76.9448 196.684 77.0392 196.753 77.1086C196.822 77.178 196.917 77.217 197.015 77.217C197.113 77.217 197.207 77.178 197.276 77.1086C197.346 77.0392 197.385 76.9448 197.385 76.8466V73.0655C197.414 71.9384 197.883 70.8672 198.69 70.0804C199.498 69.2936 200.581 68.8532 201.708 68.8532C202.836 68.8532 203.919 69.2936 204.726 70.0804C205.534 70.8672 206.002 71.9384 206.032 73.0655V76.8466C206.032 76.9448 206.071 77.0392 206.14 77.1086C206.21 77.178 206.304 77.217 206.402 77.217C206.5 77.217 206.594 77.178 206.664 77.1086C206.733 77.0392 206.772 76.9448 206.772 76.8466H206.766Z" fill="white"/>
<path d="M202.074 76.8465V73.0654C202.074 71.7228 201.541 70.4351 200.591 69.4857C199.642 68.5364 198.354 68.0029 197.012 68.0029C195.669 68.0029 194.381 68.5364 193.432 69.4857C192.483 70.4351 191.949 71.7228 191.949 73.0654V76.8465C191.957 76.9394 192 77.026 192.069 77.0889C192.138 77.1519 192.228 77.1868 192.321 77.1868C192.414 77.1868 192.504 77.1519 192.573 77.0889C192.642 77.026 192.684 76.9394 192.693 76.8465V73.0654C192.722 71.9383 193.19 70.8671 193.998 70.0803C194.806 69.2934 195.888 68.8531 197.016 68.8531C198.144 68.8531 199.226 69.2934 200.034 70.0803C200.842 70.8671 201.31 71.9383 201.339 73.0654V76.8465C201.339 76.9447 201.378 77.039 201.448 77.1084C201.517 77.1779 201.611 77.2169 201.71 77.2169C201.808 77.2169 201.902 77.1779 201.971 77.1084C202.041 77.039 202.08 76.9447 202.08 76.8465H202.074Z" fill="white"/>
<path d="M213.675 97.3867H201.267L198.291 115.503H229.45L226.467 97.3867H214.06H213.675Z" fill="#6A4CE0"/>
<path d="M213.676 97.3867V97.0226H201.269C201.181 97.0234 201.096 97.055 201.029 97.1119C200.962 97.1688 200.917 97.2473 200.902 97.3339L197.925 115.441C197.918 115.494 197.922 115.547 197.937 115.597C197.952 115.648 197.977 115.695 198.01 115.735C198.046 115.778 198.091 115.812 198.142 115.834C198.193 115.857 198.249 115.867 198.304 115.865H229.448C229.504 115.866 229.559 115.856 229.61 115.833C229.661 115.811 229.706 115.777 229.742 115.735C229.775 115.694 229.799 115.647 229.813 115.597C229.826 115.546 229.829 115.493 229.821 115.441L226.845 97.3282C226.83 97.2413 226.785 97.1623 226.718 97.1053C226.651 97.0483 226.566 97.0168 226.478 97.0166H213.673V97.7572H226.152L229.007 115.133H198.727L201.583 97.7572H213.688L213.676 97.3867Z" fill="white"/>
<path d="M219.508 97.1194V93.0385C219.475 91.6161 218.887 90.2632 217.869 89.2689C216.852 88.2746 215.485 87.7178 214.062 87.7178C212.64 87.7178 211.273 88.2746 210.256 89.2689C209.238 90.2632 208.65 91.6161 208.617 93.0385V97.1194C208.608 97.2176 208.639 97.3153 208.702 97.3908C208.766 97.4663 208.856 97.5134 208.954 97.522C209.053 97.5305 209.15 97.4998 209.226 97.4364C209.301 97.3731 209.348 97.2824 209.357 97.1842V93.0385C209.357 91.7917 209.852 90.5961 210.734 89.7145C211.616 88.8329 212.811 88.3375 214.058 88.3375C215.305 88.3375 216.501 88.8329 217.382 89.7145C218.264 90.5961 218.759 91.7917 218.759 93.0385V97.1194C218.75 97.2176 218.781 97.3153 218.845 97.3908C218.908 97.4663 218.999 97.5134 219.097 97.522C219.195 97.5305 219.293 97.4998 219.368 97.4364C219.444 97.3731 219.491 97.2824 219.499 97.1842C219.502 97.1628 219.502 97.1408 219.499 97.1194H219.508Z" fill="white"/>
<path d="M225.602 95.8972V95.5267H202.361C202.263 95.5269 202.169 95.566 202.1 95.6355C202.065 95.6695 202.037 95.7102 202.018 95.7551C201.999 95.8 201.989 95.8483 201.988 95.8972V97.3103C201.988 97.4084 202.027 97.5025 202.097 97.5719C202.166 97.6414 202.26 97.6804 202.359 97.6804H225.602C225.699 97.6788 225.792 97.6392 225.86 97.5699C225.928 97.5007 225.966 97.4074 225.966 97.3103V95.8911C225.964 95.7929 225.924 95.6995 225.854 95.6297C225.785 95.5608 225.691 95.5218 225.593 95.521V95.8911H225.223V96.9401H202.74V96.2613H225.602V95.8911V95.8972Z" fill="white"/>
<path d="M172.46 106.518H199.769C199.847 106.518 199.922 106.487 199.977 106.432C200.032 106.377 200.063 106.302 200.063 106.224C200.063 106.147 200.032 106.072 199.977 106.017C199.922 105.962 199.847 105.931 199.769 105.931H172.46C172.382 105.931 172.307 105.962 172.252 106.017C172.197 106.072 172.166 106.147 172.166 106.224C172.166 106.302 172.197 106.377 172.252 106.432C172.307 106.487 172.382 106.518 172.46 106.518Z" fill="white"/>
<path d="M188.216 115.926H232.358C232.457 115.935 232.555 115.903 232.63 115.84C232.706 115.777 232.754 115.687 232.764 115.588C232.772 115.49 232.741 115.393 232.678 115.317C232.614 115.242 232.524 115.195 232.426 115.186C232.404 115.183 232.381 115.183 232.358 115.186H188.216C188.168 115.182 188.119 115.187 188.072 115.202C188.026 115.216 187.983 115.24 187.945 115.271C187.908 115.303 187.877 115.341 187.855 115.385C187.832 115.428 187.818 115.475 187.814 115.524C187.81 115.572 187.815 115.621 187.83 115.668C187.844 115.714 187.868 115.758 187.899 115.795C187.931 115.832 187.969 115.863 188.013 115.886C188.056 115.908 188.103 115.922 188.152 115.926H188.216Z" fill="white"/>
<path d="M232.453 36.2244C232.072 36.225 231.699 36.1126 231.383 35.9013C231.066 35.6901 230.819 35.3897 230.673 35.038C230.527 34.6862 230.488 34.2989 230.562 33.9253C230.636 33.5517 230.82 33.2084 231.089 32.9391C231.358 32.6698 231.702 32.4865 232.075 32.4123C232.449 32.3382 232.836 32.3765 233.188 32.5225C233.539 32.6685 233.84 32.9157 234.051 33.2326C234.262 33.5496 234.375 33.922 234.374 34.3029C234.374 34.8123 234.171 35.3007 233.811 35.6609C233.45 36.0211 232.962 36.2236 232.453 36.2244V36.2244Z" fill="#C0C3F6"/>
<path d="M232.454 32.8189C232.744 32.8189 233.029 32.9051 233.27 33.0665C233.512 33.228 233.7 33.4575 233.811 33.7259C233.922 33.9943 233.952 34.2896 233.895 34.5746C233.838 34.8596 233.698 35.1212 233.493 35.3266C233.287 35.5321 233.026 35.6722 232.741 35.7289C232.456 35.7856 232.16 35.7563 231.892 35.6451C231.623 35.5339 231.394 35.3459 231.233 35.1043C231.071 34.8627 230.985 34.5785 230.985 34.288C230.989 33.8995 231.145 33.528 231.419 33.2533C231.694 32.9787 232.066 32.8228 232.454 32.8189V32.8189ZM232.454 31.9375C231.989 31.9375 231.535 32.0755 231.148 32.3337C230.762 32.592 230.46 32.959 230.283 33.3885C230.105 33.818 230.058 34.2905 230.149 34.7465C230.239 35.2024 230.463 35.6214 230.792 35.9501C231.121 36.2788 231.539 36.5027 231.995 36.5934C232.451 36.6841 232.924 36.6376 233.353 36.4597C233.783 36.2818 234.15 35.9803 234.408 35.5938C234.667 35.2072 234.804 34.7529 234.804 34.288C234.804 33.6646 234.557 33.0666 234.116 32.6258C233.675 32.185 233.077 31.9375 232.454 31.9375Z" fill="white"/>
<path d="M147.41 104.565L147.512 104.218L142.553 102.749C142.484 102.728 142.41 102.729 142.341 102.75C142.272 102.772 142.211 102.813 142.165 102.869L137.226 108.951C137.195 108.989 137.173 109.033 137.162 109.081L131.794 127.126C131.767 127.219 131.778 127.318 131.823 127.402C131.869 127.487 131.946 127.55 132.038 127.579L139.873 129.909L140.035 129.956L147.874 132.288C147.922 132.305 147.973 132.311 148.024 132.306C148.074 132.302 148.123 132.287 148.168 132.262C148.25 132.215 148.312 132.138 148.341 132.048L153.709 114.002C153.724 113.956 153.729 113.908 153.724 113.861L152.913 106.063C152.906 105.992 152.877 105.924 152.832 105.869C152.786 105.813 152.726 105.773 152.657 105.752L147.695 104.283L147.533 104.236L147.43 104.582L147.324 104.929L147.489 104.979L152.216 106.389L152.986 113.866L147.739 131.495L140.25 129.268L140.088 129.218L132.599 126.991L137.846 109.363L142.591 103.521L147.316 104.932L147.421 104.585" fill="white"/>
<path d="M147.428 110.491C147.337 110.799 147.158 111.073 146.911 111.279C146.665 111.484 146.363 111.612 146.044 111.646C145.725 111.68 145.403 111.619 145.119 111.47C144.835 111.321 144.601 111.091 144.447 110.809C144.294 110.527 144.228 110.206 144.257 109.887C144.286 109.567 144.409 109.263 144.611 109.014C144.812 108.764 145.084 108.58 145.39 108.485C145.696 108.39 146.024 108.387 146.332 108.478V108.478C146.743 108.601 147.089 108.882 147.293 109.259C147.498 109.636 147.545 110.079 147.425 110.491" fill="#F9F9FA"/>
<path d="M147.429 110.491L147.076 110.391C146.999 110.652 146.839 110.881 146.621 111.043C146.404 111.202 146.143 111.287 145.875 111.287C145.752 111.287 145.631 111.27 145.513 111.237C145.222 111.153 144.971 110.965 144.807 110.71C144.642 110.455 144.576 110.149 144.62 109.848C144.663 109.548 144.814 109.274 145.044 109.076C145.274 108.878 145.568 108.77 145.872 108.772C145.993 108.772 146.114 108.79 146.23 108.825C146.494 108.901 146.725 109.063 146.885 109.286C147.001 109.443 147.079 109.624 147.112 109.816C147.145 110.008 147.133 110.205 147.076 110.391L147.429 110.491L147.776 110.596C147.828 110.413 147.855 110.223 147.858 110.032C147.854 109.509 147.644 109.009 147.274 108.639C146.904 108.269 146.404 108.059 145.88 108.055C145.405 108.053 144.944 108.223 144.583 108.533C144.222 108.843 143.985 109.273 143.916 109.743C143.846 110.214 143.949 110.694 144.204 111.095C144.46 111.496 144.852 111.792 145.307 111.928C145.499 111.982 145.696 112.01 145.895 112.01C146.323 112.01 146.739 111.872 147.082 111.616C147.424 111.361 147.675 111.001 147.796 110.591L147.449 110.485" fill="white"/>
<path d="M103.178 107.109L79.6083 114.366C78.9966 114.553 78.3356 114.491 77.77 114.192C77.2045 113.893 76.7805 113.382 76.5909 112.771V112.771L72.5451 99.6317C72.358 99.02 72.4212 98.3591 72.7208 97.794C73.0205 97.2288 73.5321 96.8054 74.1434 96.617V96.617L97.7069 89.357C98.0106 89.264 98.3296 89.2317 98.6457 89.262C98.9619 89.2923 99.2689 89.3845 99.5494 89.5334C99.8299 89.6824 100.078 89.8853 100.28 90.1302C100.482 90.3752 100.634 90.6575 100.727 90.9612V90.9612L104.767 104.092C104.861 104.394 104.894 104.712 104.864 105.027C104.835 105.343 104.744 105.649 104.596 105.929C104.448 106.209 104.246 106.457 104.002 106.659C103.759 106.861 103.477 107.013 103.175 107.106L103.178 107.109Z" fill="#6A52DE"/>
<path d="M103.176 107.109L103.07 106.762L79.4979 114.019C79.3029 114.08 79.0998 114.111 78.8955 114.11C78.4571 114.109 78.0306 113.968 77.678 113.708C77.3255 113.447 77.0655 113.081 76.9358 112.662L72.8901 99.5374C72.8314 99.341 72.8017 99.1372 72.8019 98.9323C72.8022 98.4996 72.939 98.0779 73.1927 97.7275C73.4559 97.3664 73.8307 97.1022 74.2592 96.9754L97.8198 89.7183C98.0101 89.6587 98.2081 89.6279 98.4075 89.627C98.8458 89.6281 99.2724 89.7693 99.625 90.0299C99.9775 90.2905 100.238 90.6569 100.367 91.0757L104.413 104.215C104.571 104.734 104.517 105.295 104.264 105.775C104.01 106.255 103.577 106.615 103.058 106.777V106.777L103.164 107.124L103.27 107.473C103.836 107.299 104.332 106.949 104.685 106.473C105.038 105.997 105.23 105.421 105.233 104.829C105.231 104.552 105.19 104.277 105.109 104.012L101.063 90.8729C100.956 90.5243 100.782 90.2001 100.549 89.9191C100.317 89.6381 100.032 89.406 99.7093 89.2354C99.387 89.0648 99.0343 88.9593 98.6712 88.9252C98.3082 88.8911 97.942 88.929 97.5936 89.0366L74.0242 96.2908C73.458 96.4646 72.9623 96.815 72.6097 97.2908C72.257 97.7666 72.066 98.3429 72.0645 98.9351C72.0647 99.2128 72.1053 99.4889 72.185 99.7549L76.2248 112.894C76.4404 113.597 76.9259 114.185 77.5748 114.53C78.2237 114.875 78.9831 114.948 79.6859 114.733V114.733L103.252 107.479L103.176 107.109Z" fill="white"/>
<path d="M93.1085 95.6723L68.6334 98.6818C67.3095 98.8446 66.3683 100.05 66.5311 101.374L68.2088 115.018C68.3716 116.342 69.5768 117.283 70.9006 117.12L95.3757 114.111C96.6996 113.948 97.6408 112.743 97.478 111.419L95.8003 97.7746C95.6375 96.4507 94.4323 95.5095 93.1085 95.6723Z" fill="#A77FFA"/>
<path d="M95.3771 114.11L95.336 113.749L70.8705 116.758C70.7868 116.769 70.7023 116.775 70.6178 116.775C70.1143 116.779 69.6269 116.598 69.2478 116.267C68.8688 115.936 68.6244 115.476 68.5611 114.977L66.8835 101.327C66.8776 101.242 66.8776 101.158 66.8835 101.074C66.8799 100.579 67.0552 100.099 67.3771 99.7224C67.709 99.3432 68.1695 99.1003 68.6699 99.0406L93.1471 96.0291C93.2323 96.0291 93.3175 96.0291 93.3998 96.0291C93.8997 96.0309 94.3818 96.2149 94.756 96.5464C95.1301 96.8779 95.3708 97.3344 95.4329 97.8304L97.1106 111.475C97.1165 111.559 97.1165 111.643 97.1106 111.728C97.1088 112.227 96.9254 112.709 96.5946 113.083C96.2637 113.457 95.808 113.698 95.3125 113.761L95.3536 114.122L95.4007 114.481C96.0727 114.398 96.6913 114.072 97.14 113.565C97.5887 113.058 97.8363 112.405 97.8363 111.728C97.8377 111.613 97.8319 111.498 97.8187 111.384L96.1411 97.7391C96.0573 97.0671 95.731 96.4489 95.2236 96.0004C94.7161 95.5519 94.0624 95.304 93.3851 95.3035C93.2712 95.3019 93.1574 95.308 93.0443 95.3212L68.5817 98.321C67.8492 98.4135 67.1833 98.7925 66.73 99.3752C66.2767 99.9579 66.0731 100.697 66.1637 101.43L67.8413 115.074C67.9237 115.747 68.2494 116.367 68.757 116.816C69.2646 117.266 69.9191 117.515 70.5972 117.516C70.7112 117.515 70.8251 117.507 70.9381 117.492L95.4124 114.483L95.3771 114.11Z" fill="white"/>
<path d="M92.0073 109.821L91.6459 109.865C91.6576 109.947 91.6634 110.029 91.6634 110.112C91.6618 110.6 91.4816 111.07 91.1569 111.434C90.8321 111.799 90.3852 112.031 89.9006 112.089C89.8197 112.099 89.7383 112.105 89.6568 112.107C89.1708 112.106 88.7018 111.928 88.3377 111.606C87.9736 111.284 87.7396 110.841 87.6794 110.358C87.6736 110.277 87.6736 110.196 87.6794 110.115C87.6754 109.628 87.8513 109.157 88.1735 108.792C88.4956 108.427 88.9412 108.194 89.4247 108.137C89.5068 108.131 89.5893 108.131 89.6715 108.137C90.1581 108.134 90.6287 108.31 90.9936 108.632C91.3584 108.954 91.5917 109.399 91.6488 109.882L92.0102 109.835L92.3686 109.791C92.2768 109.106 91.9219 108.483 91.3791 108.055C90.8363 107.627 90.1481 107.427 89.4602 107.497C88.7724 107.567 88.1388 107.902 87.6936 108.431C87.2484 108.96 87.0265 109.641 87.0749 110.331C87.1233 111.021 87.4382 111.665 87.953 112.126C88.4677 112.588 89.1418 112.831 89.8327 112.805C90.5237 112.778 91.1772 112.484 91.6548 111.984C92.1325 111.484 92.397 110.818 92.3922 110.126C92.3902 110.014 92.3823 109.903 92.3686 109.791L92.0073 109.821Z" fill="white"/>
<path d="M94.7185 109.471L94.3571 109.518C94.363 109.599 94.363 109.681 94.3571 109.762C94.3599 110.248 94.1834 110.719 93.8615 111.084C93.5397 111.448 93.0949 111.682 92.6119 111.739C92.5302 111.751 92.4477 111.757 92.3651 111.757C91.8796 111.756 91.4109 111.579 91.0469 111.258C90.6829 110.936 90.4485 110.494 90.3878 110.012C90.376 109.93 90.3701 109.847 90.3701 109.765C90.3713 109.279 90.5495 108.81 90.8712 108.446C91.193 108.082 91.6363 107.848 92.1183 107.788C92.1995 107.783 92.2809 107.783 92.3622 107.788C92.849 107.785 93.3198 107.962 93.6845 108.284C94.0493 108.607 94.2824 109.052 94.3395 109.536L94.7009 109.489L95.0593 109.445C94.979 108.787 94.661 108.182 94.1652 107.743C93.6694 107.305 93.0302 107.062 92.368 107.062C92.2639 107.063 92.1599 107.07 92.0566 107.082C91.3996 107.163 90.7948 107.482 90.356 107.977C89.9172 108.473 89.6746 109.112 89.6738 109.774C89.6763 110.159 89.7596 110.54 89.9185 110.891C90.0774 111.243 90.3084 111.557 90.5964 111.813C91.0096 112.176 91.5234 112.405 92.0696 112.469C92.6159 112.534 93.1688 112.431 93.6553 112.174C94.1417 111.917 94.5386 111.519 94.7935 111.031C95.0485 110.544 95.1494 109.991 95.0828 109.445L94.7185 109.471Z" fill="white"/>
<path d="M95.8005 97.7736L66.5312 101.373L66.9203 104.536L96.1896 100.937L95.8005 97.7736Z" fill="#A77FFA"/>
<path d="M96.1896 100.936L96.1484 100.578L67.2376 104.13L66.9379 101.688L95.4874 98.1771L95.8311 100.98L96.1896 100.936L96.1484 100.578L96.1896 100.936L96.5509 100.892L96.119 97.3691L66.127 101.056L66.6029 104.938L96.5921 101.253L96.5509 100.892L96.1896 100.936Z" fill="white"/>
<path d="M97.4249 111.81C99.8637 112.426 102.189 113.426 104.315 114.771C106.457 116.126 108.506 117.622 110.449 119.249C115.388 123.256 120.589 128.454 126.239 132.664C128.993 134.765 131.981 136.54 135.144 137.953C138.24 139.33 141.584 140.059 144.972 140.095C147.041 140.092 149.1 139.806 151.092 139.246C153.476 138.617 155.641 137.347 157.353 135.573C158.931 133.878 159.898 131.774 159.898 129.488C159.898 127.696 159.31 125.801 157.991 123.926C155.934 120.974 153.155 118.958 150.137 117.372C147.12 115.785 143.844 114.63 140.721 113.39C137.286 112.024 133.79 110.711 130.808 108.587C129.74 107.827 128.789 106.915 127.984 105.881C127.567 105.352 127.219 104.774 126.947 104.159C126.694 103.605 126.558 103.005 126.547 102.396C126.546 101.993 126.625 101.593 126.779 101.221C126.961 100.791 127.225 100.399 127.555 100.069C128.161 99.495 128.888 99.0643 129.682 98.8084C131.339 98.2438 133.08 97.9657 134.83 97.9858C137.492 97.9632 140.123 98.5556 142.519 99.7166C143.639 100.272 144.658 101.012 145.533 101.905C146.388 102.782 147.039 103.835 147.443 104.99L148.131 104.755C147.694 103.5 146.987 102.355 146.059 101.403C144.628 99.972 142.881 98.8965 140.959 98.2621C138.988 97.5894 136.918 97.249 134.836 97.2545C133.001 97.2391 131.176 97.5372 129.441 98.1359C128.544 98.4289 127.723 98.9198 127.041 99.5725C126.647 99.9692 126.332 100.437 126.112 100.95C125.92 101.416 125.82 101.915 125.819 102.419C125.83 103.123 125.986 103.817 126.277 104.459C126.736 105.461 127.356 106.381 128.113 107.182C128.795 107.929 129.552 108.602 130.373 109.192C133.461 111.372 137.013 112.7 140.442 114.063C143.576 115.309 146.829 116.461 149.782 118.018C152.735 119.575 155.399 121.514 157.383 124.347C158.62 126.11 159.146 127.855 159.146 129.491C159.146 131.568 158.264 133.493 156.795 135.074C155.173 136.757 153.12 137.962 150.86 138.558C148.93 139.102 146.934 139.38 144.928 139.384C141.645 139.345 138.404 138.634 135.406 137.298C130.843 135.344 126.574 132.212 122.516 128.804C118.459 125.396 114.604 121.723 110.87 118.691C108.902 117.046 106.826 115.535 104.656 114.169C102.466 112.784 100.07 111.755 97.5571 111.122L97.3867 111.827" fill="white"/>
<path d="M152.097 119.343L148.463 131.563L150.47 132.15L153.86 120.609C153.294 120.158 152.706 119.736 152.097 119.343V119.343ZM153.484 111.742L153.704 113.852C153.71 113.899 153.705 113.947 153.69 113.993L152.315 118.617C152.923 119.005 153.516 119.419 154.078 119.863L155.417 115.309L153.472 111.742" fill="#C5C8FB"/>
<path d="M139.545 113.693L135.402 127.72L144.872 130.514L147.76 131.363L151.447 118.932C150.907 118.605 150.353 118.294 149.787 117.998C146.834 116.444 143.573 115.292 140.447 114.043L139.533 113.682L139.545 113.693ZM147.04 107.218L145.492 108.064C145.803 108.005 146.124 108.023 146.426 108.117C146.836 108.238 147.195 108.489 147.449 108.832C147.704 109.175 147.841 109.591 147.839 110.018C147.838 110.209 147.811 110.399 147.757 110.582L147.41 110.476L147.757 110.582C147.636 110.992 147.385 111.352 147.043 111.608C146.7 111.863 146.284 112.001 145.856 112.001C145.596 112.002 145.339 111.952 145.099 111.854C144.858 111.756 144.64 111.611 144.455 111.428C144.271 111.245 144.124 111.028 144.024 110.789C143.923 110.549 143.871 110.292 143.87 110.032C143.867 109.834 143.895 109.635 143.952 109.445C144.041 109.145 144.2 108.871 144.416 108.646L140.353 110.855L139.727 112.974L140.7 113.359C143.823 114.598 147.096 115.756 150.102 117.342C150.622 117.636 151.133 117.907 151.635 118.204L152.949 113.828L152.555 110.062L151.762 108.608L151.327 108.478L147.46 107.35L147.025 107.224" fill="#C0C3F6"/>
<path d="M151.458 118.929L147.762 131.36L148.461 131.566L152.095 119.349C151.887 119.208 151.672 119.055 151.458 118.947V118.929ZM152.586 110.094L152.974 113.846L151.664 118.221C151.878 118.347 152.092 118.479 152.304 118.615L153.679 113.99C153.694 113.945 153.699 113.897 153.694 113.849L153.473 111.74L152.571 110.085" fill="white"/>
<path d="M145.871 108.763C145.6 108.764 145.336 108.851 145.119 109.014C144.902 109.177 144.743 109.405 144.666 109.665C144.631 109.781 144.613 109.902 144.613 110.024C144.614 110.294 144.702 110.558 144.864 110.775C145.025 110.991 145.253 111.151 145.512 111.228C145.63 111.262 145.751 111.28 145.874 111.281C146.142 111.278 146.403 111.192 146.62 111.034C146.839 110.872 146.999 110.643 147.075 110.382V110.382C147.123 110.224 147.139 110.058 147.122 109.893C147.105 109.729 147.056 109.57 146.978 109.424C146.9 109.279 146.794 109.15 146.666 109.046C146.538 108.941 146.39 108.863 146.232 108.816V108.816C146.116 108.781 145.995 108.763 145.874 108.763" fill="#C0C3F6"/>
<path d="M145.873 111.29C145.751 111.29 145.63 111.273 145.512 111.24C145.221 111.155 144.97 110.968 144.805 110.713C144.641 110.458 144.575 110.152 144.619 109.852C144.662 109.551 144.813 109.277 145.043 109.079C145.273 108.881 145.567 108.773 145.871 108.775C145.992 108.775 146.113 108.793 146.229 108.828C146.493 108.904 146.724 109.067 146.884 109.289C147 109.446 147.078 109.627 147.111 109.819C147.144 110.011 147.132 110.208 147.075 110.394V110.394C146.998 110.655 146.838 110.884 146.62 111.046C146.403 111.204 146.142 111.29 145.873 111.29V111.29ZM145.873 108.058C145.75 108.059 145.627 108.069 145.506 108.091L144.434 108.678C144.202 108.925 144.036 109.227 143.954 109.555C143.872 109.884 143.875 110.228 143.963 110.555C144.052 110.882 144.222 111.181 144.459 111.423C144.696 111.665 144.99 111.843 145.315 111.939C145.506 111.995 145.704 112.023 145.903 112.022C146.326 112.021 146.737 111.887 147.078 111.637C147.424 111.378 147.679 111.016 147.804 110.603L147.457 110.497L147.804 110.603C147.856 110.419 147.884 110.229 147.886 110.038C147.882 109.515 147.673 109.015 147.303 108.645C146.933 108.275 146.432 108.065 145.909 108.061" fill="white"/>
<path d="M139.751 113L139.545 113.699L140.459 114.06C143.594 115.306 146.846 116.458 149.799 118.015C150.365 118.311 150.918 118.623 151.459 118.95C151.673 119.079 151.888 119.211 152.096 119.352C152.705 119.744 153.294 120.166 153.859 120.618L154.083 119.872C153.518 119.428 152.907 119.023 152.32 118.623C152.108 118.491 151.894 118.359 151.679 118.233C151.177 117.939 150.666 117.645 150.146 117.372C147.125 115.785 143.849 114.628 140.744 113.388L139.771 113" fill="white"/>
<path d="M153.447 111.366L153.483 111.742L155.428 115.309L154.088 119.863L154.208 119.957L155.583 115.292L153.447 111.366" fill="#C5C9FB"/>
<path d="M139.409 113.64L135.252 127.767L140.082 129.206L140.244 129.256L147.73 131.483L147.768 131.357L144.883 130.517L135.422 127.728L139.553 113.705L139.418 113.649L139.409 113.64ZM147.057 107.094L140.276 110.787L139.639 112.953L139.774 113.006L140.4 110.887L144.454 108.675C144.741 108.372 145.116 108.166 145.526 108.087L147.075 107.241L147.51 107.368L151.376 108.499L151.811 108.625L152.604 110.079L152.566 109.703L151.911 108.501L148.409 107.47L147.057 107.074" fill="#C0C4F6"/>
<path d="M135.252 127.77V127.817L140.981 129.512L148.432 131.704L148.476 131.566L147.777 131.36L147.742 131.487L140.253 129.259L140.091 129.21L135.267 127.776L135.252 127.77ZM152.557 109.718L152.596 110.094L153.498 111.748L153.462 111.372L152.557 109.718" fill="white"/>
<path d="M139.616 112.941L139.41 113.636L139.545 113.692L139.751 112.994L139.616 112.941" fill="white"/>
<path d="M153.865 120.609L150.475 132.15L148.465 131.563L148.424 131.701L150.572 132.335L153.994 120.712L153.871 120.613" fill="#C5C9FB"/>
<path d="M145.501 108.079C145.092 108.159 144.718 108.364 144.43 108.666L145.501 108.079Z" fill="white"/>
<path d="M154.088 119.863L153.865 120.609L153.988 120.708L154.209 119.957L154.088 119.863" fill="white"/>
<path d="M112.634 110.229H112.27C112.269 110.342 112.234 110.451 112.171 110.544C112.107 110.637 112.018 110.708 111.913 110.75C111.809 110.792 111.694 110.801 111.584 110.778C111.475 110.754 111.374 110.699 111.296 110.618C111.218 110.537 111.165 110.435 111.145 110.325C111.125 110.214 111.138 110.1 111.183 109.997C111.228 109.894 111.303 109.806 111.397 109.746C111.492 109.685 111.602 109.654 111.715 109.657C111.859 109.657 111.998 109.715 112.1 109.818C112.208 109.928 112.269 110.075 112.27 110.229H112.996C112.996 109.97 112.919 109.717 112.775 109.501C112.631 109.286 112.426 109.118 112.187 109.019C111.947 108.92 111.684 108.894 111.43 108.944C111.176 108.995 110.942 109.12 110.759 109.303C110.576 109.486 110.451 109.719 110.4 109.974C110.35 110.228 110.376 110.491 110.475 110.731C110.574 110.97 110.742 111.175 110.957 111.319C111.173 111.463 111.426 111.54 111.685 111.54V111.54C111.856 111.541 112.025 111.509 112.183 111.446C112.341 111.382 112.485 111.287 112.607 111.168C112.729 111.048 112.826 110.906 112.892 110.749C112.959 110.592 112.994 110.423 112.996 110.253V110.229H112.634Z" fill="white"/>
<path d="M142.093 88.9869V90.8467C142.085 90.9431 142.116 91.0386 142.178 91.1127C142.24 91.1868 142.329 91.2336 142.425 91.2433C142.521 91.2514 142.617 91.2212 142.69 91.1589C142.764 91.0967 142.81 91.0075 142.819 90.9113C142.822 90.8898 142.822 90.8682 142.819 90.8467V88.9869C142.815 88.9394 142.801 88.8932 142.779 88.8509C142.757 88.8086 142.727 88.771 142.69 88.7404C142.654 88.7098 142.611 88.6869 142.566 88.6727C142.52 88.6585 142.472 88.6534 142.425 88.6578C142.34 88.6656 142.26 88.7028 142.2 88.7628C142.139 88.8229 142.101 88.902 142.093 88.9869" fill="white"/>
<path d="M141.525 90.2823H143.387C143.435 90.2778 143.481 90.2641 143.524 90.2418C143.566 90.2195 143.604 90.1888 143.634 90.152C143.665 90.1152 143.688 90.0729 143.702 90.0272C143.716 89.9815 143.721 89.9334 143.717 89.8857C143.71 89.8007 143.673 89.7208 143.613 89.6605C143.552 89.6002 143.472 89.5634 143.387 89.5566H141.525C141.429 89.5649 141.339 89.6108 141.277 89.6846C141.215 89.7584 141.185 89.8541 141.193 89.9503C141.201 90.0355 141.239 90.115 141.299 90.1755C141.36 90.2361 141.44 90.2738 141.525 90.2823" fill="white"/>
<path d="M239.998 32.8044C240.025 33.9585 239.682 35.0911 239.019 36.0363L238.972 36.1037L234.747 42.0918C234.615 42.27 234.421 42.3918 234.203 42.4332C233.986 42.4746 233.76 42.4324 233.572 42.315C233.479 42.2572 233.398 42.1814 233.334 42.0918L229.106 36.1037L229.062 36.0363C227.252 33.4302 228.016 29.9251 230.763 28.2121C233.51 26.4992 237.206 27.2191 239.013 29.8252C239.627 30.7003 239.969 31.7362 239.998 32.8044Z" fill="#A77FFA" stroke="white" stroke-width="0.440527" stroke-miterlimit="10"/>
<path d="M235.792 35.0376C235.791 35.3657 235.682 35.6845 235.483 35.9454C235.283 36.2071 235.009 36.4026 234.696 36.5066L234.461 36.5861V37.5613C234.461 37.6009 234.452 37.6401 234.437 37.6764C234.421 37.7128 234.398 37.7458 234.37 37.7731C234.309 37.8278 234.23 37.858 234.148 37.858C234.066 37.858 233.987 37.8278 233.926 37.7731C233.897 37.7458 233.875 37.7128 233.859 37.6764C233.843 37.6401 233.835 37.6009 233.835 37.5613V36.5861L233.594 36.5098C233.183 36.3679 232.818 36.118 232.536 35.7867C232.488 35.7351 232.461 35.6667 232.463 35.5959C232.463 35.5525 232.473 35.5097 232.492 35.4705C232.511 35.4314 232.538 35.3969 232.572 35.3695C232.628 35.3253 232.697 35.3007 232.769 35.2992C232.814 35.2999 232.858 35.3095 232.9 35.3276C232.941 35.3458 232.978 35.372 233.009 35.4048C233.158 35.5759 233.333 35.7209 233.529 35.8338C233.717 35.9413 233.93 35.9991 234.146 36.0013C234.416 36.002 234.674 35.8964 234.866 35.7075C234.961 35.6206 235.036 35.5149 235.088 35.3974C235.139 35.2798 235.166 35.1528 235.166 35.0244C235.166 34.896 235.139 34.7689 235.088 34.6514C235.036 34.5338 234.961 34.4282 234.866 34.3412C234.673 34.1547 234.415 34.0495 234.146 34.0474C233.71 34.0521 233.289 33.888 232.971 33.5892C232.82 33.4478 232.7 33.277 232.617 33.0876C232.534 32.8982 232.491 32.6941 232.489 32.4874C232.488 32.1588 232.596 31.8392 232.798 31.5796C232.998 31.317 233.272 31.1206 233.585 31.0155L233.82 30.936V29.9607C233.821 29.9212 233.829 29.882 233.844 29.8457C233.86 29.8093 233.883 29.7763 233.911 29.749C233.972 29.6943 234.051 29.6641 234.133 29.6641C234.215 29.6641 234.294 29.6943 234.355 29.749C234.384 29.7763 234.407 29.8093 234.422 29.8457C234.438 29.882 234.446 29.9212 234.446 29.9607V30.936L234.687 31.0123C235.003 31.1163 235.292 31.2891 235.533 31.5179C235.563 31.5453 235.586 31.5782 235.602 31.6151C235.619 31.652 235.627 31.6919 235.627 31.7322C235.626 31.8083 235.596 31.8811 235.542 31.9351C235.482 31.9923 235.403 32.0243 235.32 32.0243C235.238 32.0243 235.158 31.9923 235.098 31.9351C234.964 31.8134 234.812 31.7142 234.646 31.6413C234.486 31.5648 234.312 31.5237 234.135 31.5207C233.865 31.5218 233.606 31.6271 233.412 31.8146C233.318 31.902 233.244 32.0078 233.192 32.1253C233.141 32.2428 233.115 32.3696 233.115 32.4977C233.115 32.6259 233.141 32.7526 233.192 32.8701C233.244 32.9877 233.318 33.0935 233.412 33.1809C233.606 33.3684 233.865 33.4736 234.135 33.4747C234.566 33.4723 234.982 33.6363 235.295 33.9329C235.45 34.0729 235.573 34.2432 235.659 34.4333C235.744 34.6234 235.79 34.8292 235.792 35.0376Z" fill="black"/>
<path d="M20.27 94.249C20.2975 95.4032 19.9547 96.5358 19.2917 97.481L19.2446 97.5455L15.0197 103.536C14.8877 103.715 14.6935 103.837 14.4757 103.878C14.2579 103.919 14.0325 103.877 13.8444 103.76C13.7519 103.702 13.6719 103.626 13.6093 103.536L9.38146 97.5455L9.33734 97.481C7.52748 94.8749 8.29139 91.3698 11.0385 89.654C13.7856 87.9381 17.4818 88.6638 19.2887 91.2699C19.9018 92.1448 20.2431 93.1811 20.27 94.249Z" fill="#A77FFA" stroke="white" stroke-width="0.440527" stroke-miterlimit="10"/>
<path d="M16.0652 96.4644C16.0692 96.7911 15.966 97.11 15.7714 97.3723C15.5712 97.6348 15.2969 97.8313 14.9839 97.9364L14.7489 98.0158V98.9911C14.7484 99.0302 14.74 99.0689 14.7244 99.1047C14.7087 99.1405 14.6861 99.1727 14.6578 99.1997C14.5978 99.2563 14.5184 99.2881 14.4359 99.2881C14.3535 99.2881 14.2741 99.2563 14.2142 99.1997C14.1859 99.1727 14.1632 99.1405 14.1476 99.1047C14.1319 99.0689 14.1236 99.0302 14.1231 98.9911V98.0127L13.8821 97.9364C13.4708 97.7968 13.1052 97.5479 12.8244 97.2165C12.7768 97.1641 12.7497 97.0965 12.748 97.0257C12.7487 96.982 12.759 96.9391 12.7783 96.9C12.7976 96.8609 12.8254 96.8263 12.8597 96.7993C12.9152 96.7538 12.9848 96.7291 13.0566 96.729C13.1019 96.7284 13.1469 96.7374 13.1885 96.7557C13.23 96.7739 13.2672 96.8007 13.2974 96.8346C13.4456 97.0056 13.6214 97.1506 13.8175 97.2635C14.0061 97.3697 14.2181 97.4273 14.4345 97.4311C14.7035 97.4305 14.9617 97.3251 15.1543 97.1373C15.2488 97.0503 15.3242 96.9447 15.3758 96.8271C15.4273 96.7095 15.454 96.5825 15.454 96.4541C15.454 96.3257 15.4273 96.1987 15.3758 96.0811C15.3242 95.9635 15.2488 95.8579 15.1543 95.771C14.9616 95.5834 14.7035 95.478 14.4345 95.4771C13.9987 95.4826 13.5776 95.3195 13.2593 95.0218C13.1077 94.8804 12.9867 94.7094 12.9038 94.5194C12.821 94.3294 12.7779 94.1244 12.7774 93.9171C12.7758 93.5885 12.8844 93.2689 13.0859 93.0093C13.2862 92.7476 13.5606 92.5521 13.8734 92.4481L14.1084 92.3686V91.3902C14.1089 91.3511 14.1172 91.3127 14.1329 91.2769C14.1485 91.241 14.1712 91.2086 14.1994 91.1816C14.2604 91.1269 14.3394 91.0967 14.4213 91.0967C14.5032 91.0967 14.5822 91.1269 14.6431 91.1816C14.6714 91.2086 14.694 91.241 14.7097 91.2769C14.7253 91.3127 14.7337 91.3511 14.7342 91.3902V92.3686L14.9751 92.4452C15.291 92.5492 15.58 92.7217 15.8213 92.9505C15.8513 92.9769 15.8753 93.0095 15.8915 93.046C15.9077 93.0826 15.9159 93.122 15.9153 93.162C15.915 93.239 15.8844 93.313 15.8301 93.3677C15.7695 93.4264 15.6883 93.459 15.6039 93.4586C15.5236 93.4594 15.4461 93.4303 15.3865 93.3766C15.2533 93.2499 15.1005 93.1458 14.934 93.0681C14.774 92.9926 14.5996 92.9524 14.4227 92.9505C14.1529 92.9515 13.894 93.0568 13.7 93.2443C13.6063 93.3317 13.5316 93.4375 13.4805 93.555C13.4294 93.6726 13.4031 93.7993 13.4031 93.9275C13.4031 94.0556 13.4294 94.1824 13.4805 94.2999C13.5316 94.4174 13.6063 94.5232 13.7 94.6106C13.8945 94.7973 14.1531 94.9025 14.4227 94.9044C14.859 94.8998 15.2801 95.0639 15.598 95.3627C15.7464 95.5051 15.8644 95.6762 15.9447 95.8656C16.025 96.055 16.066 96.2587 16.0652 96.4644V96.4644Z" fill="black"/>
</svg>
