<svg width="343" height="242" viewBox="0 0 343 242" fill="none" xmlns="http://www.w3.org/2000/svg">
<path d="M171.818 183.966C207.164 183.966 235.817 154.982 235.817 119.227C235.817 83.4731 207.164 54.4886 171.818 54.4886C136.473 54.4886 107.82 83.4731 107.82 119.227C107.82 154.982 136.473 183.966 171.818 183.966Z" fill="#C6CAFA" stroke="#C6CBFA" stroke-linecap="round" stroke-linejoin="round"/>
<path d="M171.818 192.07C211.588 192.07 243.828 159.457 243.828 119.228C243.828 78.9981 211.588 46.3856 171.818 46.3856C132.049 46.3856 99.809 78.9981 99.809 119.228C99.809 159.457 132.049 192.07 171.818 192.07Z" stroke="black" stroke-linecap="round" stroke-linejoin="round"/>
<path d="M152.69 189.493C135.653 172.931 124.772 147.61 124.772 119.234C124.772 90.8573 135.653 65.5323 152.69 48.9636" stroke="black" stroke-linecap="round" stroke-linejoin="round"/>
<path d="M190.945 48.9573C207.976 65.526 218.863 90.8447 218.863 119.223C218.863 147.601 207.976 172.924 190.945 189.493" stroke="black" stroke-linecap="round" stroke-linejoin="round"/>
<path d="M241.283 138.577C224.906 155.799 199.877 166.818 171.823 166.818C143.769 166.818 118.735 155.799 102.358 138.577" stroke="black" stroke-linecap="round" stroke-linejoin="round"/>
<path d="M102.343 99.8798C118.721 82.6518 143.752 71.6395 171.804 71.6395C199.856 71.6395 224.891 82.6518 241.271 99.8798" stroke="black" stroke-linecap="round" stroke-linejoin="round"/>
<path d="M99.807 119.228H243.828" stroke="black" stroke-linecap="round" stroke-linejoin="round"/>
<path d="M171.818 46.3854V192.071" stroke="black" stroke-linecap="round" stroke-linejoin="round"/>
<path d="M225.632 32.5008C226.212 31.9138 226.212 30.9622 225.632 30.3752C225.052 29.7883 224.111 29.7883 223.531 30.3752C222.95 30.9622 222.95 31.9138 223.531 32.5008C224.111 33.0877 225.052 33.0877 225.632 32.5008Z" stroke="black" stroke-linecap="round" stroke-linejoin="round"/>
<path d="M252.582 148.494C252.713 147.673 252.161 146.899 251.349 146.766C250.537 146.633 249.772 147.192 249.641 148.013C249.509 148.835 250.061 149.609 250.874 149.741C251.686 149.874 252.451 149.316 252.582 148.494Z" stroke="black" stroke-linecap="round" stroke-linejoin="round"/>
<path d="M87.5153 116.284C88.0955 115.697 88.0955 114.745 87.5153 114.159C86.935 113.572 85.9943 113.572 85.414 114.159C84.8338 114.745 84.8338 115.697 85.414 116.284C85.9943 116.871 86.935 116.871 87.5153 116.284Z" stroke="black" stroke-linecap="round" stroke-linejoin="round"/>
<path d="M235.41 54.5562V57.7372" stroke="black" stroke-linecap="round" stroke-linejoin="round"/>
<path d="M233.837 56.1465H236.982" stroke="black" stroke-linecap="round" stroke-linejoin="round"/>
<path d="M90.183 158.673V161.852" stroke="black" stroke-linecap="round" stroke-linejoin="round"/>
<path d="M88.6104 160.261H91.753" stroke="black" stroke-linecap="round" stroke-linejoin="round"/>
<path d="M218.281 68.5938C222.732 68.5938 226.34 64.9443 226.34 60.4424C226.34 55.9404 222.732 52.2909 218.281 52.2909C213.831 52.2909 210.223 55.9404 210.223 60.4424C210.223 64.9443 213.831 68.5938 218.281 68.5938Z" fill="#A883F8" stroke="black" stroke-linecap="round" stroke-linejoin="round"/>
<path d="M218.281 127.383C222.732 127.383 226.34 123.734 226.34 119.232C226.34 114.73 222.732 111.08 218.281 111.08C213.831 111.08 210.223 114.73 210.223 119.232C210.223 123.734 213.831 127.383 218.281 127.383Z" fill="#6A57DC" stroke="black" stroke-linecap="round" stroke-linejoin="round"/>
<path d="M120.924 178.156C125.374 178.156 128.982 174.507 128.982 170.005C128.982 165.503 125.374 161.853 120.924 161.853C116.474 161.853 112.866 165.503 112.866 170.005C112.866 174.507 116.474 178.156 120.924 178.156Z" fill="#6A57DC" stroke="black" stroke-linecap="round" stroke-linejoin="round"/>
<path d="M272.915 191.946H229.166C229.536 189.844 230.625 187.941 232.242 186.57C233.86 185.199 235.902 184.448 238.013 184.448C238.128 184.448 238.244 184.448 238.356 184.448C239.603 182.206 241.475 180.386 243.738 179.214C246.001 178.041 248.556 177.569 251.082 177.855C253.609 178.141 255.997 179.173 257.948 180.822C259.899 182.472 261.326 184.666 262.053 187.131C262.978 186.268 264.131 185.697 265.372 185.486C266.612 185.276 267.886 185.436 269.039 185.947C270.191 186.457 271.171 187.297 271.859 188.362C272.548 189.427 272.914 190.671 272.915 191.944V191.946Z" fill="#A883F8"/>
<path d="M261.082 195.365H206.855C207.313 192.76 208.663 190.402 210.668 188.702C212.672 187.003 215.204 186.072 217.82 186.071C217.963 186.071 218.108 186.071 218.248 186.071C219.794 183.294 222.112 181.038 224.916 179.585C227.72 178.132 230.885 177.545 234.016 177.899C237.147 178.252 240.105 179.53 242.524 181.573C244.942 183.615 246.712 186.333 247.614 189.386C248.761 188.318 250.191 187.611 251.729 187.351C253.267 187.091 254.846 187.29 256.274 187.923C257.702 188.556 258.917 189.597 259.77 190.917C260.623 192.237 261.078 193.78 261.078 195.357L261.082 195.365Z" stroke="black" stroke-linecap="round" stroke-linejoin="round"/>
<path d="M218.528 195.365H274.003" stroke="black" stroke-linecap="round" stroke-linejoin="round"/>
<path d="M192.362 201.26H247.837" stroke="black" stroke-linecap="round" stroke-linejoin="round"/>
<path d="M148.552 39.7999H104.804C105.173 37.6983 106.262 35.7953 107.88 34.4244C109.497 33.0534 111.54 32.3018 113.65 32.3014C113.766 32.3014 113.882 32.3014 113.994 32.3014C115.241 30.0602 117.113 28.2398 119.376 27.0674C121.639 25.895 124.193 25.4224 126.72 25.7085C129.247 25.9946 131.634 27.0267 133.585 28.6762C135.536 30.3258 136.964 32.5196 137.69 34.9844C138.615 34.1219 139.769 33.5506 141.009 33.3404C142.25 33.1302 143.524 33.2901 144.676 33.8007C145.828 34.3113 146.809 35.1505 147.497 36.2155C148.185 37.2806 148.552 38.5254 148.552 39.7979V39.7999Z" fill="#A883F8"/>
<path d="M68 49.1146H123.475" stroke="black" stroke-linecap="round" stroke-linejoin="round"/>
<path d="M136.72 43.2197H82.4926C82.9507 40.6148 84.3004 38.256 86.3052 36.5567C88.31 34.8574 90.842 33.926 93.4576 33.9256C93.6004 33.9256 93.7452 33.9256 93.8859 33.9256C95.4311 31.1484 97.7501 28.8926 100.554 27.4394C103.358 25.9861 106.522 25.3997 109.653 25.7531C112.784 26.1066 115.743 27.3843 118.161 29.427C120.579 31.4697 122.35 34.1871 123.252 37.2406C124.399 36.1723 125.828 35.4651 127.366 35.2053C128.904 34.9455 130.483 35.1443 131.911 35.7776C133.339 36.4108 134.554 37.451 135.407 38.7711C136.261 40.0913 136.715 41.6342 136.716 43.2113L136.72 43.2197Z" stroke="black" stroke-linecap="round" stroke-linejoin="round"/>
<path d="M126.404 113.397C131.854 113.397 136.271 108.929 136.271 103.417C136.271 97.9047 131.854 93.4363 126.404 93.4363C120.955 93.4363 116.538 97.9047 116.538 103.417C116.538 108.929 120.955 113.397 126.404 113.397Z" fill="black" stroke="black" stroke-linecap="round" stroke-linejoin="round"/>
<path d="M126.404 113.06C131.67 113.06 135.938 108.743 135.938 103.417C135.938 98.0908 131.67 93.7732 126.404 93.7732C121.139 93.7732 116.871 98.0908 116.871 103.417C116.871 108.743 121.139 113.06 126.404 113.06Z" fill="#EFEFEF"/>
<path d="M135.94 103.417C135.941 101.602 135.435 99.8248 134.482 98.2881C133.529 96.7513 132.166 95.5179 130.551 94.7295V112.1C132.165 111.312 133.528 110.079 134.481 108.543C135.434 107.007 135.94 105.23 135.94 103.417Z" fill="#D50A2E"/>
<path d="M116.871 103.417C116.869 105.23 117.373 107.007 118.325 108.544C119.276 110.08 120.637 111.314 122.25 112.104V94.734C120.637 95.5236 119.277 96.757 118.326 98.2928C117.374 99.8286 116.87 101.605 116.871 103.417Z" fill="#D50A2E"/>
<path d="M128.064 104.675L129.721 103.836L128.893 103.417V102.578L127.234 103.417L128.064 101.741H127.234L126.406 100.483L125.577 101.741H124.747L125.577 103.417L123.918 102.578V103.417L123.088 103.836L124.747 104.675L124.333 105.514H125.991V106.772H126.82V105.514H128.477L128.064 104.675Z" fill="#D50A2E"/>
<path d="M84.9313 147.7C90.3804 147.7 94.7978 143.231 94.7978 137.719C94.7978 132.207 90.3804 127.739 84.9313 127.739C79.4822 127.739 75.0648 132.207 75.0648 137.719C75.0648 143.231 79.4822 147.7 84.9313 147.7Z" fill="black" stroke="black" stroke-linecap="round" stroke-linejoin="round"/>
<path d="M94.4648 137.72C94.4279 140.253 93.4072 142.67 91.6232 144.448C89.8391 146.226 87.435 147.223 84.9304 147.223C82.4258 147.223 80.0217 146.226 78.2377 144.448C76.4536 142.67 75.4329 140.253 75.396 137.72L84.9314 128.074C86.1836 128.074 87.4234 128.323 88.5802 128.808C89.737 129.293 90.788 130.004 91.6733 130.899C92.5586 131.795 93.2608 132.858 93.7397 134.029C94.2187 135.199 94.4651 136.453 94.4648 137.72Z" fill="#0B55B0"/>
<path d="M84.9065 137.718H84.9302V137.692L84.9065 137.718Z" fill="#EFEFEF"/>
<path d="M84.9313 133.105V128.082C82.4027 128.082 79.9779 129.099 78.1901 130.908C76.4023 132.717 75.3979 135.17 75.3979 137.728H80.3633V134.886L83.1645 137.719H84.8982L84.9231 137.692V135.938L82.1301 133.105H84.9313Z" fill="#EFEFEF"/>
<path d="M80.221 129.332C78.7281 130.193 77.4913 131.444 76.6398 132.954V137.719H79.1224V131.847H84.9318V129.336L80.221 129.332Z" fill="#D50A2E"/>
<path d="M84.9314 136.533L81.5446 133.105H80.3716L84.9231 137.709L84.9314 136.533Z" fill="#D50A2E"/>
<path d="M91.9076 135.231L92.1145 135.872H92.7807L92.2407 136.267L92.4476 136.908L91.9076 136.512L91.3697 136.908L91.5745 136.267L91.0366 135.872H91.7028L91.9076 135.231Z" fill="#D50A2E"/>
<path d="M89.5283 139.844L89.8366 140.804H90.8359L90.0269 141.399L90.3352 142.359L89.5283 141.765L88.7194 142.359L89.0277 141.399L88.2188 140.804H89.218L89.5283 139.844Z" fill="#D50A2E"/>
<path d="M89.6178 132.295L89.8743 133.097H90.7081L90.0336 133.591L90.2922 134.393L89.6178 133.897L88.9433 134.393L89.2019 133.591L88.5275 133.097H89.3612L89.6178 132.295Z" fill="#D50A2E"/>
<path d="M87.3272 135.202L87.6354 136.163H88.6347L87.8258 136.757L88.134 137.72L87.3272 137.126L86.5182 137.72L86.8265 136.757L86.0197 136.163H87.0189L87.3272 135.202Z" fill="#D50A2E"/>
<path d="M148.277 129.258C153.726 129.258 158.143 124.789 158.143 119.277C158.143 113.765 153.726 109.297 148.277 109.297C142.828 109.297 138.41 113.765 138.41 119.277C138.41 124.789 142.828 129.258 148.277 129.258Z" fill="black" stroke="black" stroke-linecap="round" stroke-linejoin="round"/>
<path d="M148.277 128.921C153.542 128.921 157.81 124.603 157.81 119.277C157.81 113.951 153.542 109.634 148.277 109.634C143.012 109.634 138.744 113.951 138.744 119.277C138.744 124.603 143.012 128.921 148.277 128.921Z" fill="#EFEFEF"/>
<path d="M147.859 119.278H157.81C157.81 118.43 157.7 117.585 157.483 116.766H147.859V119.278Z" fill="#D50A2E"/>
<path d="M147.859 114.245H156.408C155.824 113.285 155.08 112.435 154.208 111.733H147.859V114.245Z" fill="#D50A2E"/>
<path d="M148.272 128.922C150.428 128.926 152.522 128.188 154.208 126.828H142.341C144.026 128.187 146.118 128.926 148.272 128.922Z" fill="#D50A2E"/>
<path d="M140.142 124.308H156.411C156.885 123.527 157.246 122.681 157.483 121.797H139.07C139.306 122.682 139.667 123.528 140.142 124.308Z" fill="#D50A2E"/>
<path d="M143.158 111.139H144.027L143.218 111.733L143.529 112.694L142.72 112.099L141.911 112.687L142.178 111.85C141.465 112.454 140.842 113.159 140.328 113.943H140.618L140.103 114.322C140.024 114.458 139.945 114.594 139.873 114.74L140.119 115.504L139.66 115.167C139.546 115.412 139.443 115.661 139.347 115.917L139.618 116.754H140.618L139.79 117.352L140.1 118.313L139.3 117.71L138.816 118.066C138.767 118.465 138.742 118.867 138.741 119.269H148.273V109.632C146.46 109.63 144.686 110.152 143.158 111.139ZM143.529 118.313L142.72 117.71L141.911 118.304L142.221 117.344L141.412 116.749H142.411L142.72 115.789L143.028 116.749H144.027L143.218 117.344L143.529 118.313ZM143.218 114.546L143.529 115.506L142.72 114.914L141.911 115.506L142.221 114.546L141.412 113.943H142.411L142.72 112.982L143.028 113.943H144.027L143.218 114.546ZM146.942 118.313L146.14 117.71L145.331 118.304L145.641 117.344L144.832 116.749H145.831L146.14 115.789L146.448 116.749H147.445L146.636 117.344L146.942 118.313ZM146.632 114.546L146.942 115.506L146.133 114.914L145.324 115.506L145.635 114.546L144.832 113.943H145.831L146.14 112.982L146.448 113.943H147.445L146.632 114.546ZM146.632 111.737L146.942 112.698L146.133 112.103L145.331 112.687L145.641 111.727L144.832 111.132H145.831L146.14 110.172L146.448 111.132H147.445L146.632 111.737Z" fill="#0B55B0"/>
<path d="M193.171 155.038C198.62 155.038 203.038 150.569 203.038 145.057C203.038 139.545 198.62 135.076 193.171 135.076C187.722 135.076 183.305 139.545 183.305 145.057C183.305 150.569 187.722 155.038 193.171 155.038Z" fill="black" stroke="black" stroke-linecap="round" stroke-linejoin="round"/>
<path d="M193.17 154.699C198.436 154.699 202.704 150.382 202.704 145.056C202.704 139.73 198.436 135.412 193.17 135.412C187.905 135.412 183.637 139.73 183.637 145.056C183.637 150.382 187.905 154.699 193.17 154.699Z" fill="#EFEFEF"/>
<path d="M183.637 145.056C183.618 143.778 183.851 142.508 184.322 141.322C184.792 140.135 185.492 139.055 186.379 138.144C187.266 137.233 188.323 136.51 189.489 136.017C190.655 135.523 191.907 135.269 193.171 135.269C194.435 135.269 195.686 135.523 196.852 136.017C198.018 136.51 199.076 137.233 199.963 138.144C200.85 139.055 201.55 140.135 202.02 141.322C202.491 142.508 202.724 143.778 202.705 145.056" fill="#D50A2E"/>
<path d="M189.443 140.444C189.442 139.775 189.667 139.126 190.081 138.605C190.495 138.083 191.073 137.72 191.719 137.577C191.515 137.531 191.307 137.508 191.098 137.508C190.696 137.516 190.301 137.609 189.936 137.78C189.572 137.951 189.246 138.197 188.981 138.502C188.716 138.807 188.516 139.165 188.394 139.552C188.273 139.94 188.233 140.348 188.276 140.753C188.319 141.157 188.445 141.547 188.645 141.899C188.846 142.252 189.117 142.558 189.441 142.798C189.764 143.039 190.134 143.209 190.526 143.297C190.919 143.386 191.325 143.39 191.719 143.311C191.073 143.168 190.495 142.805 190.081 142.284C189.667 141.762 189.442 141.113 189.443 140.444Z" fill="#EFEFEF"/>
<path d="M193.171 137.717L193.378 138.358H194.044L193.504 138.753L193.711 139.396L193.171 138.998L192.633 139.396L192.838 138.753L192.3 138.358H192.966L193.171 137.717Z" fill="#EFEFEF"/>
<path d="M191.558 138.975L191.763 139.615H192.429L191.889 140.013L192.096 140.654L191.558 140.258L191.018 140.654L191.225 140.013L190.685 139.615H191.351L191.558 138.975Z" fill="#EFEFEF"/>
<path d="M194.787 138.975L194.994 139.615H195.658L195.12 140.013L195.327 140.654L194.787 140.258L194.249 140.654L194.454 140.013L193.916 139.615H194.582L194.787 138.975Z" fill="#EFEFEF"/>
<path d="M194.166 140.863L194.371 141.503H195.037L194.497 141.899L194.704 142.54L194.166 142.144L193.626 142.54L193.833 141.899L193.293 141.503H193.96L194.166 140.863Z" fill="#EFEFEF"/>
<path d="M192.178 140.863L192.385 141.503H193.049L192.511 141.899L192.716 142.54L192.178 142.144L191.64 142.54L191.845 141.899L191.307 141.503H191.973L192.178 140.863Z" fill="#EFEFEF"/>
<path d="M171.806 96.7383C177.255 96.7383 181.673 92.2698 181.673 86.7577C181.673 81.2456 177.255 76.7771 171.806 76.7771C166.357 76.7771 161.94 81.2456 161.94 86.7577C161.94 92.2698 166.357 96.7383 171.806 96.7383Z" fill="black" stroke="black" stroke-linecap="round" stroke-linejoin="round"/>
<path d="M171.806 96.4013C177.071 96.4013 181.34 92.0837 181.34 86.7577C181.34 81.4316 177.071 77.114 171.806 77.114C166.541 77.114 162.273 81.4316 162.273 86.7577C162.273 92.0837 166.541 96.4013 171.806 96.4013Z" fill="#EFEFEF"/>
<path d="M164.242 80.8877C163.483 81.8838 162.926 83.0217 162.602 84.2362H167.567L164.242 80.8877Z" fill="#0B55B0"/>
<path d="M181.013 84.2426C180.688 83.0284 180.129 81.8907 179.37 80.8942L176.06 84.2426H181.013Z" fill="#0B55B0"/>
<path d="M162.602 89.2753C162.927 90.4891 163.485 91.6267 164.242 92.6237L167.553 89.2753H162.602Z" fill="#0B55B0"/>
<path d="M177.612 79.1089C176.627 78.3413 175.502 77.7767 174.302 77.4473V82.47L177.612 79.1089Z" fill="#0B55B0"/>
<path d="M166.003 94.409C166.988 95.1769 168.113 95.7415 169.313 96.0707V91.048L166.003 94.409Z" fill="#0B55B0"/>
<path d="M169.319 77.4473C168.119 77.7764 166.994 78.341 166.009 79.109L169.319 82.4574V77.4473Z" fill="#0B55B0"/>
<path d="M174.293 96.071C175.493 95.7415 176.618 95.177 177.603 94.4093L174.293 91.0608V96.0835V96.071Z" fill="#0B55B0"/>
<path d="M176.054 89.2753L179.364 92.6237C180.122 91.6269 180.68 90.4893 181.006 89.2753H176.054Z" fill="#0B55B0"/>
<path d="M181.261 85.5001H173.049V77.1959C172.225 77.0874 171.391 77.0874 170.567 77.1959V85.5001H162.353C162.246 86.3337 162.246 87.1778 162.353 88.0114H170.563V96.322C171.387 96.4304 172.221 96.4304 173.045 96.322V88.0156H181.257C181.364 87.182 181.364 86.3379 181.257 85.5043L181.261 85.5001Z" fill="#D50A2E"/>
<path d="M174.293 89.2757L178.548 93.5785C178.745 93.3818 178.931 93.1746 179.109 92.9507L175.466 89.2673L174.293 89.2757Z" fill="#D50A2E"/>
<path d="M169.319 89.2753L165.066 93.5781C165.26 93.7769 165.465 93.9653 165.676 94.1452L169.319 90.4598V89.2753Z" fill="#D50A2E"/>
<path d="M169.319 84.2425L165.066 79.9397C164.869 80.1364 164.683 80.3436 164.505 80.5675L168.146 84.2509L169.319 84.2425Z" fill="#D50A2E"/>
<path d="M174.293 84.2422L178.549 79.9395C178.342 79.7406 178.149 79.5523 177.928 79.3723L174.285 83.0556L174.293 84.2422Z" fill="#D50A2E"/>
<path d="M259.245 104.911C264.51 104.911 268.778 100.593 268.778 95.2674C268.778 89.9414 264.51 85.6238 259.245 85.6238C253.98 85.6238 249.711 89.9414 249.711 95.2674C249.711 100.593 253.98 104.911 259.245 104.911Z" fill="#EFEFEF"/>
<path d="M259.245 105.248C264.694 105.248 269.112 100.779 269.112 95.267C269.112 89.7548 264.694 85.2864 259.245 85.2864C253.796 85.2864 249.379 89.7548 249.379 95.267C249.379 100.779 253.796 105.248 259.245 105.248Z" fill="black" stroke="black" stroke-linecap="round" stroke-linejoin="round"/>
<path d="M258.832 95.2675H268.781C268.78 94.4194 268.67 93.575 268.452 92.7561H258.832V95.2675Z" fill="#D50A2E"/>
<path d="M258.832 90.2362H267.38C266.797 89.2757 266.053 88.4258 265.181 87.7249H258.832V90.2362Z" fill="#D50A2E"/>
<path d="M259.245 104.914C261.401 104.918 263.494 104.18 265.18 102.82H253.311C254.997 104.179 257.089 104.918 259.245 104.914Z" fill="#D50A2E"/>
<path d="M251.11 100.298H267.38C267.855 99.518 268.216 98.6721 268.452 97.787H250.039C250.275 98.6718 250.636 99.5176 251.11 100.298Z" fill="#D50A2E"/>
<path d="M259.245 95.2674V85.6238C256.716 85.6238 254.292 86.6398 252.504 88.4483C250.716 90.2569 249.711 92.7098 249.711 95.2674H259.245Z" fill="#0B55B0"/>
<path d="M256.061 93.878C255.702 93.8786 255.347 93.7961 255.024 93.6368C254.701 93.4776 254.418 93.2458 254.197 92.9592C253.976 92.6726 253.823 92.3387 253.749 91.983C253.675 91.6274 253.683 91.2593 253.771 90.907C253.859 90.5547 254.026 90.2274 254.258 89.9501C254.49 89.6728 254.782 89.4528 255.111 89.307C255.44 89.1611 255.798 89.0933 256.157 89.1086C256.516 89.1239 256.866 89.2219 257.182 89.3952C256.774 88.993 256.258 88.7213 255.698 88.6143C255.138 88.5073 254.56 88.5697 254.035 88.7936C253.51 89.0175 253.062 89.3931 252.747 89.8733C252.432 90.3535 252.264 90.917 252.264 91.4933C252.264 92.0696 252.432 92.6331 252.747 93.1133C253.062 93.5935 253.51 93.9691 254.035 94.193C254.56 94.4169 255.138 94.4793 255.698 94.3723C256.258 94.2652 256.774 93.9936 257.182 93.5913C256.838 93.7809 256.453 93.8795 256.061 93.878Z" fill="#FDD853"/>
<path d="M256.715 89.8156L257.135 90.7008L258.08 90.4811L257.656 91.3642L258.418 91.9732L257.47 92.1888L257.472 93.1703L256.715 92.5571L255.96 93.1703L255.962 92.1888L255.014 91.9732L255.776 91.3642L255.352 90.4811L256.297 90.7008L256.715 89.8156Z" fill="#FDD853"/>
</svg>
