<svg width="343" height="242" fill="none" xmlns="http://www.w3.org/2000/svg"><path d="M254.359 155.098C257.712 155.098 260.43 152.401 260.43 149.074C260.43 145.747 257.712 143.05 254.359 143.05C251.006 143.05 248.288 145.747 248.288 149.074C248.288 152.401 251.006 155.098 254.359 155.098Z" fill="#A77FFA"/><path d="M266.165 147.25C266.113 147.206 266.052 147.174 265.987 147.154C265.922 147.134 265.854 147.128 265.786 147.135C265.766 147.138 265.746 147.142 265.727 147.148L260.581 148.357L260.437 147.748C260.081 146.259 259.19 144.95 257.931 144.068C256.671 143.186 255.13 142.791 253.597 142.958C253.343 142.988 253.091 143.033 252.842 143.091C252.033 143.279 251.271 143.624 250.597 144.106C249.923 144.587 249.352 145.197 248.917 145.898C248.481 146.6 248.19 147.38 248.06 148.194C247.93 149.007 247.963 149.839 248.158 150.64L248.307 151.25L244.022 152.258L242.702 148.316C242.664 148.206 242.59 148.111 242.492 148.047C242.394 147.985 242.276 147.959 242.161 147.972L242.106 147.983L239.85 148.512C239.727 148.541 239.62 148.616 239.55 148.72C239.478 148.82 239.446 148.943 239.46 149.066C239.458 149.086 239.458 149.107 239.46 149.128C239.49 149.25 239.565 149.356 239.67 149.426C239.771 149.498 239.895 149.529 240.018 149.515H240.083L241.882 149.099L242.062 149.64C242.306 150.363 246.15 161.786 246.666 163.317C246.691 163.394 246.71 163.448 246.719 163.471C246.727 163.494 246.719 163.471 246.719 163.483C247.063 164.412 247.763 165.168 248.666 165.587L249.233 165.849L248.97 166.416C248.755 166.874 248.669 167.382 248.723 167.886C248.808 168.618 249.175 169.289 249.747 169.76C250.034 170.002 250.369 170.183 250.73 170.29C251.091 170.398 251.471 170.43 251.845 170.384C251.966 170.371 252.086 170.351 252.204 170.324C252.889 170.165 253.489 169.755 253.883 169.177C254.267 168.618 254.438 167.942 254.363 167.269C254.313 166.834 254.16 166.417 253.916 166.051L253.425 165.308L261.249 163.465L261.146 164.35C261.122 164.564 261.122 164.78 261.146 164.993C261.212 165.543 261.441 166.062 261.804 166.483C262.166 166.904 262.646 167.21 263.184 167.361C263.721 167.512 264.291 167.501 264.823 167.332C265.354 167.162 265.823 166.839 266.17 166.405C266.517 165.972 266.727 165.445 266.774 164.893C266.82 164.341 266.701 163.788 266.431 163.303C266.161 162.818 265.752 162.423 265.257 162.168C264.761 161.913 264.2 161.809 263.645 161.87C263.531 161.882 263.419 161.902 263.307 161.928L250.886 164.835C250.777 164.858 250.676 164.877 250.559 164.889C250.08 164.942 249.595 164.87 249.153 164.679C248.711 164.489 248.328 164.186 248.041 163.802L247.529 163.084L265.886 157.618C265.99 157.587 266.081 157.524 266.147 157.438C266.212 157.353 266.248 157.248 266.249 157.141L266.367 147.654C266.369 147.632 266.369 147.611 266.367 147.589C266.359 147.522 266.336 147.457 266.302 147.398C266.267 147.34 266.221 147.29 266.165 147.25ZM262.468 163.617C262.668 163.333 262.947 163.113 263.271 162.983C263.595 162.854 263.949 162.819 264.292 162.886C264.635 162.952 264.951 163.115 265.202 163.356C265.454 163.596 265.629 163.904 265.708 164.242C265.724 164.31 265.737 164.38 265.746 164.45C265.793 164.885 265.679 165.322 265.425 165.68C265.172 166.037 264.795 166.292 264.367 166.395C264.298 166.411 264.228 166.424 264.157 166.432C263.719 166.479 263.278 166.366 262.918 166.114C262.557 165.862 262.301 165.489 262.197 165.064C262.181 164.995 262.168 164.926 262.159 164.856C262.106 164.419 262.216 163.979 262.468 163.617ZM250.059 166.532C250.313 166.171 250.693 165.915 251.125 165.814C251.195 165.799 251.268 165.787 251.335 165.779C251.774 165.729 252.216 165.84 252.577 166.092C252.938 166.345 253.192 166.72 253.293 167.146C253.311 167.215 253.324 167.285 253.333 167.355C253.382 167.789 253.269 168.226 253.017 168.584C252.764 168.942 252.389 169.196 251.961 169.3C251.889 169.314 251.816 169.327 251.751 169.335C251.313 169.383 250.872 169.27 250.511 169.018C250.15 168.766 249.895 168.393 249.793 167.967C249.777 167.898 249.764 167.829 249.755 167.759C249.706 167.328 249.814 166.895 250.059 166.536V166.532ZM249.969 146.175C250.708 145.118 251.816 144.369 253.079 144.074C253.286 144.025 253.497 143.988 253.709 143.964C254.992 143.823 256.283 144.153 257.338 144.89C258.394 145.627 259.142 146.722 259.442 147.968C259.49 148.174 259.527 148.383 259.551 148.593C259.691 149.865 259.359 151.145 258.617 152.192C257.874 153.238 256.772 153.98 255.517 154.278C255.31 154.326 255.1 154.362 254.888 154.386C253.606 154.526 252.317 154.197 251.263 153.46C250.208 152.723 249.461 151.63 249.161 150.386C249.111 150.18 249.074 149.971 249.05 149.761C248.907 148.496 249.234 147.223 249.969 146.18V146.175ZM265.227 156.298V156.755L247.338 162.082L244.356 153.226L248.752 152.185L248.993 152.555C249.63 153.536 250.529 154.321 251.59 154.823C252.652 155.324 253.833 155.523 255.001 155.396C256.578 155.227 258.032 154.472 259.07 153.282C259.915 152.313 260.442 151.112 260.581 149.838L260.629 149.397L265.339 148.293L265.227 156.298Z" fill="#000"/><path d="M256.231 147.608C256.245 147.721 256.219 147.835 256.158 147.931L254.437 150.7C254.397 150.766 254.341 150.821 254.276 150.863 254.211 150.904 254.136 150.929 254.059 150.938 253.946 150.952 253.831 150.926 253.734 150.865L252.339 150.009C252.272 149.969 252.216 149.914 252.174 149.848 252.132 149.783 252.106 149.709 252.097 149.632 252.084 149.52 252.11 149.407 252.171 149.311 252.212 149.246 252.267 149.191 252.333 149.149 252.399 149.108 252.473 149.083 252.551 149.074 252.663 149.061 252.778 149.087 252.874 149.147L253.835 149.734 255.293 147.398C255.333 147.332 255.388 147.276 255.454 147.235 255.52 147.194 255.594 147.168 255.671 147.16 255.785 147.147 255.9 147.172 255.996 147.233 256.062 147.274 256.118 147.328 256.158 147.393 256.199 147.458 256.224 147.532 256.231 147.608zM262.287 92.4818C262.266 93.4698 262.068 94.4464 261.703 95.3658 261.291 96.4295 260.772 97.4488 260.153 98.4082 258.855 100.462 257.082 102.573 255.141 104.605 251.259 108.67 246.701 112.439 243.956 114.765 243.174 115.429 242.538 115.977 242.116 116.373 239.008 119.275 235.923 122.259 233.036 125.37 232.966 125.447 232.897 125.522 232.826 125.597 232.616 125.805 232.427 126.028 232.232 126.245 231.972 126.529 231.714 126.817 231.46 127.107 231.411 127.159 231.363 127.213 231.317 127.267 231.107 127.503 230.897 127.738 230.687 127.973 230.451 128.251 230.215 128.529 229.98 128.806L229.84 128.973C229.644 129.206 229.449 129.437 229.258 129.672 229.134 129.822 229.011 129.97 228.891 130.12 228.771 130.27 228.616 130.457 228.471 130.628 228.213 130.952 227.958 131.276 227.707 131.601 227.609 131.726 227.512 131.853 227.418 131.977 226.931 132.612 226.458 133.254 225.997 133.904 225.8 134.181 225.607 134.459 225.418 134.737L225.118 135.176 225.091 135.218C224.988 135.37 224.881 135.52 224.789 135.671 224.579 135.982 224.369 136.296 224.18 136.609 224.069 136.784 223.959 136.959 223.851 137.135 223.76 137.279 223.672 137.423 223.586 137.569 223.5 137.714 223.435 137.816 223.359 137.943L223.12 138.36C222.99 138.581 222.864 138.801 222.738 139.026 222.675 139.134 222.615 139.245 222.553 139.355 222.465 139.513 222.377 139.674 222.291 139.834 222.178 140.043 222.069 140.251 221.96 140.459 221.851 140.667 221.731 140.902 221.618 141.125 221.504 141.348 221.408 141.542 221.311 141.75 221.28 141.815 221.248 141.877 221.219 141.94 221.167 142.048 221.116 142.148 221.066 142.264 221.028 142.341 220.992 142.418 220.957 142.496 220.921 142.572 220.891 142.637 220.858 142.704 220.824 142.77 220.82 142.791 220.799 142.835 220.699 143.057 220.6 143.28 220.503 143.503L220.465 143.591C220.436 143.657 220.407 143.724 220.379 143.799V141.721L220.543 141.381C220.627 141.206 220.711 141.034 220.799 140.861L220.955 140.553C221.041 140.382 221.129 140.211 221.219 140.043 221.259 139.967 221.299 139.892 221.337 139.817 221.445 139.609 221.546 139.401 221.666 139.207 221.785 139.014 221.911 138.762 222.037 138.539 222.163 138.316 222.289 138.098 222.419 137.877 222.516 137.712 222.612 137.548 222.711 137.383 222.908 137.054 223.107 136.729 223.311 136.405L223.619 135.919C223.756 135.711 223.897 135.488 224.039 135.274L224.405 134.726 224.467 134.635C224.61 134.426 224.755 134.218 224.902 134.01L225.345 133.385C225.643 132.969 225.946 132.552 226.255 132.136 226.535 131.764 226.815 131.393 227.095 131.024L227.189 130.903 227.67 130.293C227.993 129.886 228.32 129.483 228.652 129.083 228.818 128.875 228.983 128.681 229.151 128.484L229.435 128.148C229.613 127.94 229.793 127.732 229.974 127.523 230.293 127.153 230.616 126.785 230.943 126.42 231.155 126.18 231.369 125.942 231.586 125.708 231.81 125.458 232.039 125.21 232.268 124.962 232.444 124.771 232.622 124.579 232.802 124.387 232.874 124.314 232.941 124.242 233.012 124.167 235.74 121.272 238.624 118.492 241.516 115.787 242.099 115.242 243.022 114.463 244.166 113.497 245.31 112.531 246.688 111.348 248.157 110.069 251.059 107.52 254.321 104.468 256.885 101.413 258.595 99.3765 259.993 97.3379 260.769 95.4701 261.192 94.5273 261.426 93.5114 261.458 92.4798 261.462 91.9045 261.355 91.3342 261.141 90.7992 260.908 90.2447 260.564 89.7431 260.129 89.3252 259.591 88.8278 258.935 88.4739 258.222 88.2963 257.335 88.0657 256.419 87.9576 255.502 87.9758 252.917 87.9758 249.781 88.6443 246.932 89.4749 244.581 90.1648 242.27 90.9796 240.007 91.9156 237.73 92.8629 235.375 93.8605 233.029 94.939L232.819 95.035 232.79 95.0495C232.492 95.1868 232.194 95.3242 231.896 95.466 230.975 95.899 230.056 96.3469 229.147 96.8088 228.843 96.9631 228.541 97.1173 228.241 97.2753 227.94 97.4336 227.651 97.5837 227.359 97.7417L227.328 97.7607C227.034 97.9176 226.741 98.077 226.448 98.2395 225.414 98.8144 224.398 99.4119 223.41 100.035L223.017 100.282C222.413 100.67 221.82 101.067 221.238 101.474L220.818 101.771C220.677 101.873 220.537 101.98 220.398 102.077V101.047C220.468 100.994 220.537 100.944 220.608 100.897L220.818 100.749C220.959 100.651 221.097 100.555 221.238 100.462L221.506 100.282 222.039 99.9283C223.454 98.9975 224.927 98.1252 226.434 97.2983L226.904 97.0422 227.323 96.8154C227.617 96.6598 227.911 96.5063 228.205 96.3551L229.044 95.9386C229.357 95.7803 229.674 95.6219 229.988 95.4681 230.933 95.0057 231.877 94.5558 232.836 94.1207L233.046 94.025C235.292 93.0027 237.533 92.0529 239.698 91.1514 241.99 90.2033 244.331 89.3782 246.711 88.6794 249.605 87.8467 252.797 87.149 255.525 87.1469 256.516 87.1304 257.505 87.2495 258.463 87.5011 259.312 87.7166 260.092 88.1428 260.729 88.74 261.238 89.2233 261.641 89.8058 261.913 90.4508 262.185 91.0956 262.32 91.7892 262.31 92.488L262.287 92.4818zM244.723 157.018L242.157 157.118C240.457 157.187 238.873 157.922 237.576 159.173 236.279 160.425 235.282 162.191 234.787 164.292 234.461 165.729 233.867 167.094 233.037 168.315 232.969 168.413 232.898 168.511 232.827 168.609 232.747 168.717 232.665 168.817 232.581 168.923 232.413 169.136 232.237 169.337 232.053 169.529 231.96 169.625 231.868 169.72 231.773 169.812 230.351 171.187 228.565 172.026 226.638 172.103L221.243 172.311 220.404 172.344V171.512L221.243 171.478 226.605 171.27C228.305 171.203 229.891 170.468 231.188 169.216 231.633 168.786 232.031 168.309 232.376 167.797 232.42 167.736 232.46 167.676 232.497 167.615 232.615 167.439 232.726 167.256 232.831 167.066 232.905 166.937 232.974 166.808 233.041 166.676 233.456 165.858 233.77 164.993 233.975 164.1 234.501 161.858 235.57 159.948 236.994 158.574 238.359 157.202 240.19 156.385 242.13 156.283L244.696 156.181 244.723 157.018z" fill="#000"/><path d="M232.826 167.072V168.611C232.746 168.719 232.665 168.819 232.581 168.926C232.411 169.135 232.235 169.337 232.052 169.531C231.959 169.627 231.867 169.723 231.773 169.815C230.35 171.189 228.564 172.028 226.637 172.105L221.242 172.314L220.403 172.347V171.514L221.242 171.48L226.604 171.272C228.304 171.206 229.89 170.47 231.187 169.219C231.632 168.788 232.03 168.312 232.375 167.799C232.419 167.739 232.459 167.678 232.497 167.618C232.611 167.444 232.721 167.263 232.826 167.072Z" fill="#000"/><path d="M127.927 43.1031H80.5318C80.0091 43.1031 79.5853 43.5236 79.5853 44.0423V74.9836C79.5853 75.5023 80.0091 75.923 80.5318 75.923H127.927C128.449 75.923 128.873 75.5023 128.873 74.9836V44.0423C128.873 43.5236 128.449 43.1031 127.927 43.1031zM79.9103 48.5717H129.196" stroke="#000" stroke-miterlimit="10"/><path d="M101.311 54.3641H121.415M101.311 60.1556H121.415M101.311 65.9468H121.415" stroke="#000" stroke-miterlimit="10" stroke-linecap="round"/><path d="M96.2906 61.8036C97.0309 58.6907 95.0882 55.572 91.9513 54.837C88.8144 54.1024 85.6712 56.0305 84.9308 59.1431C84.1904 62.256 86.1332 65.3747 89.2701 66.1093C92.407 66.8443 95.5502 64.9162 96.2906 61.8036Z" fill="#A77FFA" stroke="#000" stroke-miterlimit="10"/><path d="M89.5859 63.008V57.998L92.9372 60.503L89.5859 63.008Z" stroke="#000" stroke-linejoin="round"/><path d="M137.757 92.8273V93.827C137.619 93.7333 137.478 93.6418 137.337 93.5564C137.197 93.471 137.058 93.3836 136.918 93.3023C135.842 92.6879 134.695 92.2063 133.501 91.8676C130.897 91.1137 128.058 90.9409 125.107 90.9409C122.711 90.9409 120.243 91.0555 117.779 91.0555C116.047 91.0679 114.316 90.9812 112.594 90.7949C110.325 90.5347 108.439 89.9516 106.867 89.1085C105.379 88.3137 104.077 87.2149 103.048 85.8848C101.052 83.3257 100.066 80.0834 99.4194 76.7123L100.244 76.556C100.718 79.0404 101.382 81.4183 102.473 83.4569C103.564 85.4954 105.071 87.2053 107.268 88.3753C108.737 89.1626 110.512 89.7185 112.692 89.9684C114.383 90.1478 116.082 90.2304 117.782 90.2163C120.22 90.2163 122.685 90.1017 125.109 90.1017C128.089 90.1017 131.008 90.2745 133.736 91.0617C134.839 91.3764 135.906 91.8056 136.918 92.3423C137.058 92.4173 137.199 92.4941 137.337 92.5753C137.476 92.6566 137.619 92.7399 137.757 92.8273Z" fill="#000"/><path d="M225.391 71.1052H156.357C152.142 71.1052 148.725 74.4958 148.725 78.6784V181.949C148.725 186.131 152.142 189.522 156.357 189.522H225.391C229.606 189.522 233.023 186.131 233.023 181.949V78.6784C233.023 74.4958 229.606 71.1052 225.391 71.1052Z" fill="#C5C8FB"/><path d="M213.597 62.8436H144.563C140.731 62.8436 137.625 65.926 137.625 69.7283V172.999C137.625 176.801 140.731 179.883 144.563 179.883H213.597C217.429 179.883 220.535 176.801 220.535 172.999V69.7283C220.535 65.926 217.429 62.8436 213.597 62.8436Z" fill="#fff" stroke="#000"/><path d="M241.51 79.5235C242.265 79.5235 242.878 78.9156 242.878 78.1659 242.878 77.4158 242.265 76.8079 241.51 76.8079 240.754 76.8079 240.142 77.4158 240.142 78.1659 240.142 78.9156 240.754 79.5235 241.51 79.5235zM120.426 34.9613C121.181 34.9613 121.794 34.3535 121.794 33.6037 121.794 32.8538 121.181 32.246 120.426 32.246 119.67 32.246 119.057 32.8538 119.057 33.6037 119.057 34.3535 119.67 34.9613 120.426 34.9613zM98.8111 158.028C99.5667 158.028 100.179 157.42 100.179 156.67 100.179 155.92 99.5667 155.312 98.8111 155.312 98.0554 155.312 97.4429 155.92 97.4429 156.67 97.4429 157.42 98.0554 158.028 98.8111 158.028z" stroke="#000" stroke-miterlimit="10"/><path d="M110.972 97.467V100.135M109.627 98.7997H112.315M265.422 128.702V131.369M264.077 130.034H266.765M137.426 46.0681V48.9438M135.976 47.5077H138.874" stroke="#000" stroke-miterlimit="10" stroke-linecap="round"/><path d="M198.314 96.6358C197.739 95.2847 196.775 94.1315 195.543 93.3205C194.312 92.5095 192.867 92.0764 191.389 92.0754C190.155 92.0699 188.939 92.367 187.849 92.9405C186.76 93.5136 185.829 94.3453 185.141 95.3615C184.694 96.0245 184.36 96.7563 184.151 97.527H173.562C173.488 97.2217 173.387 96.9236 173.26 96.6358C173.145 96.3546 173.004 96.084 172.84 95.8279L176.618 92.0795C177.762 92.7277 179.058 93.0661 180.376 93.0603C181.386 93.0644 182.386 92.8634 183.314 92.4689C184.679 91.8988 185.844 90.9418 186.663 89.7178C187.483 88.4933 187.92 87.0565 187.92 85.5869C187.919 84.3649 187.615 83.1618 187.037 82.0833C186.458 81.0049 185.621 80.0833 184.6 79.4004C183.353 78.5649 181.881 78.1209 180.376 78.126C179.387 78.1236 178.408 78.315 177.494 78.6892C176.581 79.0634 175.75 79.6124 175.051 80.3057C174.351 80.9987 173.796 81.8221 173.418 82.7284C173.04 83.6345 172.846 84.6059 172.846 85.5869C172.843 86.5887 173.046 87.5804 173.44 88.5023C173.543 88.7394 173.659 88.9708 173.787 89.1956L169.959 92.9938C168.842 92.3866 167.589 92.0706 166.316 92.0754C165.328 92.0733 164.348 92.2647 163.435 92.6386C162.52 93.0128 161.69 93.5622 160.991 94.2551C160.291 94.9484 159.736 95.7718 159.358 96.6778C158.98 97.5842 158.786 98.5556 158.787 99.5363C158.784 100.538 158.985 101.53 159.38 102.452C159.952 103.785 160.899 104.926 162.108 105.738C163.351 106.57 164.817 107.014 166.316 107.01C167.547 107.008 168.76 106.707 169.847 106.132C170.934 105.557 171.862 104.727 172.551 103.714C173.007 103.058 173.347 102.329 173.554 101.558H184.132C184.214 101.863 184.318 102.161 184.445 102.45C184.547 102.687 184.662 102.918 184.789 103.143L180.957 106.945C179.844 106.337 178.593 106.019 177.323 106.023C176.334 106.02 175.354 106.211 174.44 106.585C173.525 106.958 172.694 107.507 171.995 108.201C171.295 108.894 170.74 109.718 170.362 110.624C169.984 111.531 169.79 112.503 169.791 113.484C169.789 114.486 169.991 115.477 170.387 116.399C170.96 117.731 171.907 118.871 173.115 119.683C174.249 120.438 175.568 120.874 176.931 120.943C178.295 121.012 179.651 120.713 180.856 120.076C182.062 119.44 183.07 118.491 183.774 117.33C184.479 116.169 184.852 114.841 184.854 113.486C184.852 112.49 184.65 111.503 184.258 110.585C184.134 110.304 183.998 110.025 183.851 109.765L187.628 106.017H187.639C188.781 106.665 190.073 107.004 191.389 107.002C193.384 106.995 195.296 106.206 196.706 104.805C198.117 103.405 198.912 101.508 198.918 99.5281C198.911 98.5339 198.706 97.5508 198.314 96.6358ZM177.186 84.2479C177.451 83.6345 177.888 83.1095 178.445 82.7363C178.924 82.4155 179.475 82.2179 180.049 82.1615C180.624 82.1054 181.203 82.1918 181.736 82.4135C182.365 82.6754 182.902 83.1164 183.279 83.6806C183.657 84.2451 183.857 84.9078 183.855 85.5849C183.859 86.0475 183.767 86.5061 183.585 86.9322C183.322 87.5474 182.884 88.0733 182.325 88.4458C181.751 88.8351 181.071 89.0417 180.376 89.0372C179.806 89.0369 179.245 88.8974 178.743 88.6317C178.24 88.3659 177.811 87.9818 177.493 87.5129C177.175 87.0355 176.982 86.4878 176.928 85.9184C176.875 85.3491 176.964 84.7752 177.186 84.2479ZM169.52 100.882C169.277 101.455 168.882 101.952 168.377 102.32C167.872 102.689 167.276 102.915 166.652 102.974C166.028 103.034 165.4 102.925 164.834 102.659C164.267 102.392 163.784 101.979 163.435 101.463C163.118 100.985 162.925 100.438 162.871 99.8692C162.818 99.3002 162.906 98.7267 163.128 98.1997C163.394 97.5869 163.831 97.0623 164.387 96.6878C164.866 96.367 165.417 96.1697 165.992 96.1133C166.566 96.0568 167.145 96.1436 167.678 96.3653C168.307 96.6269 168.845 97.0678 169.222 97.6324C169.599 98.1966 169.799 98.8592 169.797 99.5363C169.799 99.9997 169.704 100.458 169.52 100.884V100.882ZM180.519 114.833C180.254 115.448 179.817 115.973 179.259 116.347C178.686 116.732 178.01 116.937 177.318 116.936C176.856 116.936 176.398 116.845 175.971 116.668C175.35 116.405 174.817 115.971 174.435 115.419C174.019 114.802 173.814 114.07 173.851 113.329C173.888 112.589 174.164 111.88 174.639 111.307C175.114 110.735 175.762 110.33 176.487 110.151C177.213 109.974 177.976 110.032 178.666 110.319C179.287 110.58 179.82 111.014 180.199 111.568C180.519 112.044 180.714 112.591 180.769 113.16C180.824 113.73 180.736 114.304 180.514 114.831L180.519 114.833ZM194.579 100.882C194.314 101.496 193.877 102.021 193.319 102.396C192.746 102.78 192.07 102.985 191.379 102.985C190.809 102.985 190.248 102.847 189.745 102.581C189.242 102.316 188.813 101.932 188.495 101.463C188.176 100.986 187.981 100.439 187.927 99.8699C187.873 99.3005 187.961 98.7267 188.185 98.1997C188.449 97.5859 188.886 97.061 189.443 96.6878C189.922 96.367 190.473 96.1697 191.048 96.1133C191.622 96.0568 192.202 96.1436 192.734 96.3653C193.363 96.6276 193.9 97.0685 194.278 97.6327C194.655 98.1969 194.856 98.8592 194.856 99.5363C194.856 99.9997 194.76 100.458 194.577 100.884L194.579 100.882Z" fill="#000"/><path d="M129.993 116.2H107.097V138.919H129.993V116.2Z" fill="#A77FFA"/><path d="M125.935 113.425H103.884V135.307H125.935V113.425Z" stroke="#000" stroke-miterlimit="10"/><path d="M111.602 124.731L114.542 127.648L118.953 121.813" stroke="#000" stroke-linecap="round" stroke-linejoin="round"/><path d="M190.344 141.824H167.47C162.487 141.824 158.447 145.833 158.447 150.779C158.447 155.724 162.487 159.732 167.47 159.732H190.344C195.328 159.732 199.368 155.724 199.368 150.779C199.368 145.833 195.328 141.824 190.344 141.824Z" fill="#49FFBA" stroke="#000"/><path d="M190.607 159.525C195.533 159.525 199.526 155.562 199.526 150.674C199.526 145.787 195.533 141.824 190.607 141.824C185.682 141.824 181.688 145.787 181.688 150.674C181.688 155.562 185.682 159.525 190.607 159.525Z" fill="#fff" stroke="#000"/><path d="M96.494 211.177H145.939M73.1733 216.333H122.618" stroke="#000" stroke-miterlimit="10"/><path d="M146.831 207.238H102.456C102.831 205.146 103.935 203.253 105.576 201.889C107.217 200.525 109.289 199.777 111.429 199.777C111.547 199.777 111.664 199.777 111.777 199.777C113.043 197.546 114.941 195.735 117.237 194.569C119.532 193.402 122.123 192.932 124.686 193.217C127.249 193.501 129.671 194.528 131.65 196.169C133.629 197.811 135.077 199.994 135.814 202.446C136.752 201.588 137.921 201.019 139.18 200.81C140.438 200.601 141.731 200.761 142.899 201.268C144.068 201.776 145.062 202.611 145.761 203.671C146.459 204.731 146.831 205.969 146.831 207.236V207.238Z" fill="#A883F8"/><path d="M134.422 211.178H86.0891C86.499 208.901 87.7031 206.839 89.4906 205.354C91.2781 203.87 93.535 203.056 95.866 203.057C95.994 203.057 96.1221 203.057 96.248 203.057C97.6258 200.629 99.6931 198.657 102.192 197.387C104.691 196.117 107.512 195.605 110.303 195.914C113.093 196.223 115.73 197.34 117.885 199.126C120.041 200.912 121.618 203.288 122.423 205.957C123.444 205.023 124.719 204.403 126.089 204.176C127.46 203.948 128.868 204.122 130.141 204.675C131.414 205.229 132.497 206.138 133.257 207.293C134.017 208.447 134.422 209.797 134.422 211.176V211.178Z" stroke="#000" stroke-linecap="round" stroke-linejoin="round"/><path d="M246.9 38.4033H205.965C206.647 34.5648 210.091 31.6686 214.253 31.6686 214.36 31.6686 214.468 31.6686 214.575 31.6686 216.656 28.0744 220.603 25.6666 225.123 25.6666 230.612 25.6666 235.24 29.2259 236.711 34.0763 237.787 33.0993 239.223 32.506 240.801 32.506 244.173 32.506 246.9 35.1581 246.9 38.4033zM269.449 48.7299H244.125C244.554 46.255 246.7 44.3625 249.24 44.3625 249.311 44.3625 249.383 44.3625 249.454 44.3625 250.742 42.0333 253.174 40.4683 256 40.4683 259.398 40.4683 262.259 42.7611 263.189 45.9275 263.869 45.3088 264.763 44.9084 265.729 44.9084 267.768 44.9448 269.449 46.6554 269.449 48.7299z" fill="#C5C8FB"/></svg>