<?xml version="1.0" encoding="utf-8"?>
<!-- Generator: Adobe Illustrator 24.1.3, SVG Export Plug-In . SVG Version: 6.00 Build 0)  -->
<svg version="1.1" id="Layer_1" xmlns="http://www.w3.org/2000/svg" xmlns:xlink="http://www.w3.org/1999/xlink" x="0px" y="0px"
	 viewBox="0 0 343 242" enable-background="new 0 0 343 242" xml:space="preserve">
<path fill="#C6CAFA" stroke="#C6CBFA" stroke-linecap="round" stroke-linejoin="round" d="M171.8,184c35.3,0,64-29,64-64.7
	c0-35.8-28.7-64.7-64-64.7c-35.3,0-64,29-64,64.7C107.8,155,136.5,184,171.8,184z"/>
<path fill="none" stroke="#000000" stroke-linecap="round" stroke-linejoin="round" d="M171.8,192.1c39.8,0,72-32.6,72-72.8
	c0-40.2-32.2-72.8-72-72.8c-39.8,0-72,32.6-72,72.8C99.8,159.5,132,192.1,171.8,192.1z"/>
<path fill="none" stroke="#000000" stroke-linecap="round" stroke-linejoin="round" d="M152.7,189.5c-17-16.6-27.9-41.9-27.9-70.3
	c0-28.4,10.9-53.7,27.9-70.3"/>
<path fill="none" stroke="#000000" stroke-linecap="round" stroke-linejoin="round" d="M190.9,49c17,16.6,27.9,41.9,27.9,70.3
	c0,28.4-10.9,53.7-27.9,70.3"/>
<path fill="none" stroke="#000000" stroke-linecap="round" stroke-linejoin="round" d="M241.3,138.6c-16.4,17.2-41.4,28.2-69.5,28.2
	s-53.1-11-69.5-28.2"/>
<path fill="none" stroke="#000000" stroke-linecap="round" stroke-linejoin="round" d="M102.3,99.9c16.4-17.2,41.4-28.2,69.5-28.2
	s53.1,11,69.5,28.2"/>
<path fill="none" stroke="#000000" stroke-linecap="round" stroke-linejoin="round" d="M99.8,119.2h144"/>
<path fill="none" stroke="#000000" stroke-linecap="round" stroke-linejoin="round" d="M171.8,46.4v145.7"/>
<path fill="none" stroke="#000000" stroke-linecap="round" stroke-linejoin="round" d="M225.6,32.5c0.6-0.6,0.6-1.5,0-2.1
	c-0.6-0.6-1.5-0.6-2.1,0c-0.6,0.6-0.6,1.5,0,2.1C224.1,33.1,225.1,33.1,225.6,32.5z"/>
<path fill="none" stroke="#000000" stroke-linecap="round" stroke-linejoin="round" d="M252.6,148.5c0.1-0.8-0.4-1.6-1.2-1.7
	c-0.8-0.1-1.6,0.4-1.7,1.2c-0.1,0.8,0.4,1.6,1.2,1.7C251.7,149.9,252.4,149.3,252.6,148.5z"/>
<path fill="none" stroke="#000000" stroke-linecap="round" stroke-linejoin="round" d="M87.5,116.3c0.6-0.6,0.6-1.5,0-2.1
	c-0.6-0.6-1.5-0.6-2.1,0c-0.6,0.6-0.6,1.5,0,2.1C86,116.9,86.9,116.9,87.5,116.3z"/>
<path fill="none" stroke="#000000" stroke-linecap="round" stroke-linejoin="round" d="M235.4,54.6v3.2"/>
<path fill="none" stroke="#000000" stroke-linecap="round" stroke-linejoin="round" d="M233.8,56.1h3.1"/>
<path fill="none" stroke="#000000" stroke-linecap="round" stroke-linejoin="round" d="M90.2,158.7v3.2"/>
<path fill="none" stroke="#000000" stroke-linecap="round" stroke-linejoin="round" d="M88.6,160.3h3.1"/>
<path fill="#A883F8" stroke="#000000" stroke-linecap="round" stroke-linejoin="round" d="M218.3,68.6c4.5,0,8.1-3.6,8.1-8.2
	s-3.6-8.2-8.1-8.2c-4.5,0-8.1,3.6-8.1,8.2S213.8,68.6,218.3,68.6z"/>
<path fill="#6A57DC" stroke="#000000" stroke-linecap="round" stroke-linejoin="round" d="M218.3,127.4c4.5,0,8.1-3.6,8.1-8.2
	s-3.6-8.2-8.1-8.2c-4.5,0-8.1,3.6-8.1,8.2S213.8,127.4,218.3,127.4z"/>
<path fill="#6A57DC" stroke="#000000" stroke-linecap="round" stroke-linejoin="round" d="M120.9,178.2c4.4,0,8.1-3.6,8.1-8.2
	s-3.6-8.2-8.1-8.2c-4.5,0-8.1,3.6-8.1,8.2S116.5,178.2,120.9,178.2z"/>
<path fill="#A883F8" d="M272.9,191.9h-43.7c0.4-2.1,1.5-4,3.1-5.4c1.6-1.4,3.7-2.1,5.8-2.1c0.1,0,0.2,0,0.3,0
	c1.2-2.2,3.1-4.1,5.4-5.2c2.3-1.2,4.8-1.6,7.3-1.4c2.5,0.3,4.9,1.3,6.9,3c2,1.6,3.4,3.8,4.1,6.3c0.9-0.9,2.1-1.4,3.3-1.6
	c1.2-0.2,2.5-0.1,3.7,0.5c1.2,0.5,2.1,1.3,2.8,2.4C272.5,189.4,272.9,190.7,272.9,191.9L272.9,191.9z"/>
<path fill="none" stroke="#000000" stroke-linecap="round" stroke-linejoin="round" d="M261.1,195.4h-54.2c0.5-2.6,1.8-5,3.8-6.7
	c2-1.7,4.5-2.6,7.2-2.6c0.1,0,0.3,0,0.4,0c1.5-2.8,3.9-5,6.7-6.5c2.8-1.5,6-2,9.1-1.7c3.1,0.4,6.1,1.6,8.5,3.7
	c2.4,2,4.2,4.8,5.1,7.8c1.1-1.1,2.6-1.8,4.1-2c1.5-0.3,3.1-0.1,4.5,0.6c1.4,0.6,2.6,1.7,3.5,3C260.6,192.2,261.1,193.8,261.1,195.4
	L261.1,195.4z"/>
<path fill="none" stroke="#000000" stroke-linecap="round" stroke-linejoin="round" d="M218.5,195.4H274"/>
<path fill="none" stroke="#000000" stroke-linecap="round" stroke-linejoin="round" d="M192.4,201.3h55.5"/>
<path fill="#A883F8" d="M148.6,39.8h-43.7c0.4-2.1,1.5-4,3.1-5.4c1.6-1.4,3.7-2.1,5.8-2.1c0.1,0,0.2,0,0.3,0
	c1.2-2.2,3.1-4.1,5.4-5.2c2.3-1.2,4.8-1.6,7.3-1.4c2.5,0.3,4.9,1.3,6.9,3c2,1.6,3.4,3.8,4.1,6.3c0.9-0.9,2.1-1.4,3.3-1.6
	c1.2-0.2,2.5-0.1,3.7,0.5c1.2,0.5,2.1,1.3,2.8,2.4C148.2,37.3,148.6,38.5,148.6,39.8L148.6,39.8z"/>
<path fill="none" stroke="#000000" stroke-linecap="round" stroke-linejoin="round" d="M68,49.1h55.5"/>
<path fill="none" stroke="#000000" stroke-linecap="round" stroke-linejoin="round" d="M136.7,43.2H82.5c0.5-2.6,1.8-5,3.8-6.7
	c2-1.7,4.5-2.6,7.2-2.6c0.1,0,0.3,0,0.4,0c1.5-2.8,3.9-5,6.7-6.5c2.8-1.5,6-2,9.1-1.7s6.1,1.6,8.5,3.7c2.4,2,4.2,4.8,5.1,7.8
	c1.1-1.1,2.6-1.8,4.1-2c1.5-0.3,3.1-0.1,4.5,0.6c1.4,0.6,2.6,1.7,3.5,3C136.3,40.1,136.7,41.6,136.7,43.2L136.7,43.2z"/>
<path stroke="#000000" stroke-linecap="round" stroke-linejoin="round" d="M126.4,113.4c5.4,0,9.9-4.5,9.9-10c0-5.5-4.4-10-9.9-10
	c-5.4,0-9.9,4.5-9.9,10C116.5,108.9,121,113.4,126.4,113.4z"/>
<path fill="#EFEFEF" d="M126.4,113.1c5.3,0,9.5-4.3,9.5-9.6c0-5.3-4.3-9.6-9.5-9.6c-5.3,0-9.5,4.3-9.5,9.6
	C116.9,108.7,121.1,113.1,126.4,113.1z"/>
<path fill="#D50A2E" d="M135.9,103.4c0-1.8-0.5-3.6-1.5-5.1c-1-1.5-2.3-2.8-3.9-3.6v17.4c1.6-0.8,3-2,3.9-3.6
	C135.4,107,135.9,105.2,135.9,103.4z"/>
<path fill="#D50A2E" d="M116.9,103.4c0,1.8,0.5,3.6,1.5,5.1c1,1.5,2.3,2.8,3.9,3.6V94.7c-1.6,0.8-3,2-3.9,3.6
	C117.4,99.8,116.9,101.6,116.9,103.4z"/>
<path fill="#D50A2E" d="M128.1,104.7l1.7-0.8l-0.8-0.4v-0.8l-1.7,0.8l0.8-1.7h-0.8l-0.8-1.3l-0.8,1.3h-0.8l0.8,1.7l-1.7-0.8v0.8
	l-0.8,0.4l1.7,0.8l-0.4,0.8h1.7v1.3h0.8v-1.3h1.7L128.1,104.7z"/>
<path stroke="#000000" stroke-linecap="round" stroke-linejoin="round" d="M84.9,147.7c5.4,0,9.9-4.5,9.9-10c0-5.5-4.4-10-9.9-10
	c-5.4,0-9.9,4.5-9.9,10C75.1,143.2,79.5,147.7,84.9,147.7z"/>
<path fill="#0B55B0" d="M94.5,137.7c0,2.5-1.1,5-2.8,6.7c-1.8,1.8-4.2,2.8-6.7,2.8s-4.9-1-6.7-2.8c-1.8-1.8-2.8-4.2-2.8-6.7l9.5-9.6
	c1.3,0,2.5,0.2,3.6,0.7s2.2,1.2,3.1,2.1s1.6,2,2.1,3.1C94.2,135.2,94.5,136.5,94.5,137.7L94.5,137.7z"/>
<path fill="#EFEFEF" d="M84.9,137.7L84.9,137.7L84.9,137.7L84.9,137.7z"/>
<path fill="#EFEFEF" d="M84.9,133.1v-5c-2.5,0-5,1-6.7,2.8c-1.8,1.8-2.8,4.3-2.8,6.8h5v-2.8l2.8,2.8h1.7l0,0v-1.8l-2.8-2.8H84.9z"/>
<path fill="#D50A2E" d="M80.2,129.3c-1.5,0.9-2.7,2.1-3.6,3.6v4.8h2.5v-5.9h5.8v-2.5L80.2,129.3z"/>
<path fill="#D50A2E" d="M84.9,136.5l-3.4-3.4h-1.2l4.6,4.6L84.9,136.5z"/>
<path fill="#D50A2E" d="M91.9,135.2l0.2,0.6h0.7l-0.5,0.4l0.2,0.6l-0.5-0.4l-0.5,0.4l0.2-0.6l-0.5-0.4h0.7L91.9,135.2z"/>
<path fill="#D50A2E" d="M89.5,139.8l0.3,1h1l-0.8,0.6l0.3,1l-0.8-0.6l-0.8,0.6l0.3-1l-0.8-0.6h1L89.5,139.8z"/>
<path fill="#D50A2E" d="M89.6,132.3l0.3,0.8h0.8l-0.7,0.5l0.3,0.8l-0.7-0.5l-0.7,0.5l0.3-0.8l-0.7-0.5h0.8L89.6,132.3z"/>
<path fill="#D50A2E" d="M87.3,135.2l0.3,1h1l-0.8,0.6l0.3,1l-0.8-0.6l-0.8,0.6l0.3-1l-0.8-0.6h1L87.3,135.2z"/>
<path stroke="#000000" stroke-linecap="round" stroke-linejoin="round" d="M148.3,129.3c5.4,0,9.9-4.5,9.9-10c0-5.5-4.4-10-9.9-10
	c-5.4,0-9.9,4.5-9.9,10C138.4,124.8,142.8,129.3,148.3,129.3z"/>
<path fill="#EFEFEF" d="M148.3,128.9c5.3,0,9.5-4.3,9.5-9.6c0-5.3-4.3-9.6-9.5-9.6c-5.3,0-9.5,4.3-9.5,9.6
	C138.7,124.6,143,128.9,148.3,128.9z"/>
<path fill="#D50A2E" d="M147.9,119.3h10c0-0.8-0.1-1.7-0.3-2.5h-9.6V119.3z"/>
<path fill="#D50A2E" d="M147.9,114.2h8.5c-0.6-1-1.3-1.8-2.2-2.5h-6.3V114.2z"/>
<path fill="#D50A2E" d="M148.3,128.9c2.2,0,4.2-0.7,5.9-2.1h-11.9C144,128.2,146.1,128.9,148.3,128.9L148.3,128.9z"/>
<path fill="#D50A2E" d="M140.1,124.3h16.3c0.5-0.8,0.8-1.6,1.1-2.5h-18.4C139.3,122.7,139.7,123.5,140.1,124.3L140.1,124.3z"/>
<path fill="#0B55B0" d="M143.2,111.1h0.9l-0.8,0.6l0.3,1l-0.8-0.6l-0.8,0.6l0.3-0.8c-0.7,0.6-1.3,1.3-1.8,2.1h0.3l-0.5,0.4
	c-0.1,0.1-0.2,0.3-0.2,0.4l0.2,0.8l-0.5-0.3c-0.1,0.2-0.2,0.5-0.3,0.8l0.3,0.8h1l-0.8,0.6l0.3,1l-0.8-0.6l-0.5,0.4
	c0,0.4-0.1,0.8-0.1,1.2h9.5v-9.6C146.5,109.6,144.7,110.2,143.2,111.1L143.2,111.1z M143.5,118.3l-0.8-0.6l-0.8,0.6l0.3-1l-0.8-0.6
	h1l0.3-1l0.3,1h1l-0.8,0.6L143.5,118.3z M143.2,114.5l0.3,1l-0.8-0.6l-0.8,0.6l0.3-1l-0.8-0.6h1l0.3-1l0.3,1h1L143.2,114.5z
	 M146.9,118.3l-0.8-0.6l-0.8,0.6l0.3-1l-0.8-0.6h1l0.3-1l0.3,1h1l-0.8,0.6L146.9,118.3z M146.6,114.5l0.3,1l-0.8-0.6l-0.8,0.6l0.3-1
	l-0.8-0.6h1l0.3-1l0.3,1h1L146.6,114.5z M146.6,111.7l0.3,1l-0.8-0.6l-0.8,0.6l0.3-1l-0.8-0.6h1l0.3-1l0.3,1h1L146.6,111.7z"/>
<path stroke="#000000" stroke-linecap="round" stroke-linejoin="round" d="M193.2,155c5.4,0,9.9-4.5,9.9-10c0-5.5-4.4-10-9.9-10
	c-5.4,0-9.9,4.5-9.9,10C183.3,150.6,187.7,155,193.2,155z"/>
<path fill="#EFEFEF" d="M193.2,154.7c5.3,0,9.5-4.3,9.5-9.6s-4.3-9.6-9.5-9.6c-5.3,0-9.5,4.3-9.5,9.6S187.9,154.7,193.2,154.7z"/>
<path fill="#D50A2E" d="M183.6,145.1c0-1.3,0.2-2.5,0.7-3.7c0.5-1.2,1.2-2.3,2.1-3.2c0.9-0.9,1.9-1.6,3.1-2.1s2.4-0.7,3.7-0.7
	c1.3,0,2.5,0.3,3.7,0.7s2.2,1.2,3.1,2.1c0.9,0.9,1.6,2,2.1,3.2c0.5,1.2,0.7,2.5,0.7,3.7"/>
<path fill="#EFEFEF" d="M189.4,140.4c0-0.7,0.2-1.3,0.6-1.8c0.4-0.5,1-0.9,1.6-1c-0.2,0-0.4-0.1-0.6-0.1c-0.4,0-0.8,0.1-1.2,0.3
	c-0.4,0.2-0.7,0.4-1,0.7c-0.3,0.3-0.5,0.7-0.6,1.1c-0.1,0.4-0.2,0.8-0.1,1.2c0,0.4,0.2,0.8,0.4,1.1c0.2,0.4,0.5,0.7,0.8,0.9
	c0.3,0.2,0.7,0.4,1.1,0.5c0.4,0.1,0.8,0.1,1.2,0c-0.6-0.1-1.2-0.5-1.6-1C189.7,141.8,189.4,141.1,189.4,140.4L189.4,140.4z"/>
<path fill="#EFEFEF" d="M193.2,137.7l0.2,0.6h0.7l-0.5,0.4l0.2,0.6l-0.5-0.4l-0.5,0.4l0.2-0.6l-0.5-0.4h0.7L193.2,137.7z"/>
<path fill="#EFEFEF" d="M191.6,139l0.2,0.6h0.7l-0.5,0.4l0.2,0.6l-0.5-0.4l-0.5,0.4l0.2-0.6l-0.5-0.4h0.7L191.6,139z"/>
<path fill="#EFEFEF" d="M194.8,139l0.2,0.6h0.7l-0.5,0.4l0.2,0.6l-0.5-0.4l-0.5,0.4l0.2-0.6l-0.5-0.4h0.7L194.8,139z"/>
<path fill="#EFEFEF" d="M194.2,140.9l0.2,0.6h0.7l-0.5,0.4l0.2,0.6l-0.5-0.4l-0.5,0.4l0.2-0.6l-0.5-0.4h0.7L194.2,140.9z"/>
<path fill="#EFEFEF" d="M192.2,140.9l0.2,0.6h0.7l-0.5,0.4l0.2,0.6l-0.5-0.4l-0.5,0.4l0.2-0.6l-0.5-0.4h0.7L192.2,140.9z"/>
<path stroke="#000000" stroke-linecap="round" stroke-linejoin="round" d="M171.8,96.7c5.4,0,9.9-4.5,9.9-10c0-5.5-4.4-10-9.9-10
	s-9.9,4.5-9.9,10C161.9,92.3,166.4,96.7,171.8,96.7z"/>
<path fill="#EFEFEF" d="M171.8,96.4c5.3,0,9.5-4.3,9.5-9.6c0-5.3-4.3-9.6-9.5-9.6s-9.5,4.3-9.5,9.6
	C162.3,92.1,166.5,96.4,171.8,96.4z"/>
<path fill="#0B55B0" d="M164.2,80.9c-0.8,1-1.3,2.1-1.6,3.3h5L164.2,80.9z"/>
<path fill="#0B55B0" d="M181,84.2c-0.3-1.2-0.9-2.4-1.6-3.3l-3.3,3.3H181z"/>
<path fill="#0B55B0" d="M162.6,89.3c0.3,1.2,0.9,2.4,1.6,3.3l3.3-3.3H162.6z"/>
<path fill="#0B55B0" d="M177.6,79.1c-1-0.8-2.1-1.3-3.3-1.7v5L177.6,79.1z"/>
<path fill="#0B55B0" d="M166,94.4c1,0.8,2.1,1.3,3.3,1.7v-5L166,94.4z"/>
<path fill="#0B55B0" d="M169.3,77.4c-1.2,0.3-2.3,0.9-3.3,1.7l3.3,3.3V77.4z"/>
<path fill="#0B55B0" d="M174.3,96.1c1.2-0.3,2.3-0.9,3.3-1.7l-3.3-3.3V96.1L174.3,96.1z"/>
<path fill="#0B55B0" d="M176.1,89.3l3.3,3.3c0.8-1,1.3-2.1,1.6-3.3H176.1z"/>
<path fill="#D50A2E" d="M181.3,85.5H173v-8.3c-0.8-0.1-1.7-0.1-2.5,0v8.3h-8.2c-0.1,0.8-0.1,1.7,0,2.5h8.2v8.3
	c0.8,0.1,1.7,0.1,2.5,0V88h8.2C181.4,87.2,181.4,86.3,181.3,85.5L181.3,85.5z"/>
<path fill="#D50A2E" d="M174.3,89.3l4.3,4.3c0.2-0.2,0.4-0.4,0.6-0.6l-3.6-3.7L174.3,89.3z"/>
<path fill="#D50A2E" d="M169.3,89.3l-4.3,4.3c0.2,0.2,0.4,0.4,0.6,0.6l3.6-3.7V89.3L169.3,89.3z"/>
<path fill="#D50A2E" d="M169.3,84.2l-4.3-4.3c-0.2,0.2-0.4,0.4-0.6,0.6l3.6,3.7L169.3,84.2z"/>
<path fill="#D50A2E" d="M174.3,84.2l4.3-4.3c-0.2-0.2-0.4-0.4-0.6-0.6l-3.6,3.7L174.3,84.2z"/>
<path fill="#EFEFEF" d="M259.2,104.9c5.3,0,9.5-4.3,9.5-9.6c0-5.3-4.3-9.6-9.5-9.6c-5.3,0-9.5,4.3-9.5,9.6
	C249.7,100.6,254,104.9,259.2,104.9z"/>
<path stroke="#000000" stroke-linecap="round" stroke-linejoin="round" d="M259.2,105.2c5.4,0,9.9-4.5,9.9-10c0-5.5-4.4-10-9.9-10
	c-5.4,0-9.9,4.5-9.9,10C249.4,100.8,253.8,105.2,259.2,105.2z"/>
<path fill="#D50A2E" d="M258.8,95.3h9.9c0-0.8-0.1-1.7-0.3-2.5h-9.6V95.3z"/>
<path fill="#D50A2E" d="M258.8,90.2h8.5c-0.6-1-1.3-1.8-2.2-2.5h-6.3V90.2z"/>
<path fill="#D50A2E" d="M259.2,104.9c2.2,0,4.2-0.7,5.9-2.1h-11.9C255,104.2,257.1,104.9,259.2,104.9L259.2,104.9z"/>
<path fill="#D50A2E" d="M251.1,100.3h16.3c0.5-0.8,0.8-1.6,1.1-2.5H250C250.3,98.7,250.6,99.5,251.1,100.3L251.1,100.3z"/>
<path fill="#0B55B0" d="M259.2,95.3v-9.6c-2.5,0-5,1-6.7,2.8c-1.8,1.8-2.8,4.3-2.8,6.8H259.2z"/>
<path fill="#FDD853" d="M256.1,93.9c-0.4,0-0.7-0.1-1-0.2c-0.3-0.2-0.6-0.4-0.8-0.7c-0.2-0.3-0.4-0.6-0.4-1c-0.1-0.4-0.1-0.7,0-1.1
	c0.1-0.4,0.3-0.7,0.5-1c0.2-0.3,0.5-0.5,0.9-0.6c0.3-0.1,0.7-0.2,1-0.2c0.4,0,0.7,0.1,1,0.3c-0.4-0.4-0.9-0.7-1.5-0.8
	c-0.6-0.1-1.1,0-1.7,0.2c-0.5,0.2-1,0.6-1.3,1.1c-0.3,0.5-0.5,1-0.5,1.6c0,0.6,0.2,1.1,0.5,1.6c0.3,0.5,0.8,0.9,1.3,1.1
	c0.5,0.2,1.1,0.3,1.7,0.2c0.6-0.1,1.1-0.4,1.5-0.8C256.8,93.8,256.5,93.9,256.1,93.9L256.1,93.9z"/>
<path fill="#FDD853" d="M256.7,89.8l0.4,0.9l0.9-0.2l-0.4,0.9l0.8,0.6l-0.9,0.2l0,1l-0.8-0.6l-0.8,0.6l0-1L255,92l0.8-0.6l-0.4-0.9
	l0.9,0.2L256.7,89.8z"/>
</svg>
