<?xml version="1.0" encoding="utf-8"?>
<!-- Generator: Adobe Illustrator 24.1.3, SVG Export Plug-In . SVG Version: 6.00 Build 0)  -->
<svg version="1.1" id="Layer_1" xmlns="http://www.w3.org/2000/svg" xmlns:xlink="http://www.w3.org/1999/xlink" x="0px" y="0px"
	 viewBox="0 0 343 242" enable-background="new 0 0 343 242" xml:space="preserve">
<path fill="#C3C5FF" d="M191,123.6h-56.2c-1,0-1.9,0.8-1.9,1.8v42.5c0,1,0.8,1.8,1.9,1.8H191c1,0,1.9-0.8,1.9-1.8v-42.5
	C192.9,124.4,192.1,123.6,191,123.6z"/>
<path fill-rule="evenodd" clip-rule="evenodd" fill="#C2C6FF" d="M134.9,123.7c-1,0-1.8,0.8-1.8,1.7v42.5c0,1,0.8,1.7,1.8,1.7H191
	c1,0,1.8-0.8,1.8-1.7v-42.5c0-1-0.8-1.7-1.8-1.7H134.9z M132.9,125.4c0-1.1,0.9-1.9,2-1.9H191c1.1,0,2,0.9,2,1.9v42.5
	c0,1.1-0.9,1.9-2,1.9h-56.2c-1.1,0-2-0.9-2-1.9V125.4z"/>
<path d="M157.9,61.2c0,0-0.1,0-0.1,0c0,0-0.1,0-0.1-0.1c0,0-0.1-0.1-0.1-0.1c0,0,0-0.1,0-0.1v-3.1c0-0.1,0-0.2,0.1-0.2
	c0.1-0.1,0.1-0.1,0.2-0.1c0.1,0,0.2,0,0.2,0.1c0.1,0.1,0.1,0.1,0.1,0.2v3.1c0,0,0,0.1,0,0.1c0,0,0,0.1-0.1,0.1c0,0-0.1,0.1-0.1,0.1
	C158,61.1,158,61.2,157.9,61.2z"/>
<path fill-rule="evenodd" clip-rule="evenodd" d="M157.9,57.6c0,0-0.1,0-0.1,0c0,0,0,0.1,0,0.1v3.1c0,0,0,0,0,0.1c0,0,0,0,0,0
	c0,0,0,0,0,0c0,0,0,0,0.1,0c0,0,0,0,0.1,0c0,0,0,0,0,0c0,0,0,0,0,0s0,0,0-0.1v0v-3.1c0,0,0-0.1,0-0.1C158,57.6,158,57.6,157.9,57.6z
	 M157.6,57.4c0.1-0.1,0.2-0.1,0.4-0.1s0.3,0.1,0.4,0.1c0.1,0.1,0.2,0.2,0.2,0.4l0,0v3.1"/>
<path d="M159.8,59.3c0,0,0,0.1,0,0.1c0,0,0,0.1-0.1,0.1s-0.1,0.1-0.1,0.1c0,0-0.1,0-0.1,0h-3.1c-0.1,0-0.2,0-0.2-0.1
	c-0.1-0.1-0.1-0.1-0.1-0.2c0-0.1,0-0.2,0.1-0.2c0.1-0.1,0.1-0.1,0.2-0.1h3.1c0.1,0,0.2,0,0.2,0.1C159.8,59.1,159.8,59.2,159.8,59.3z
	"/>
<path fill-rule="evenodd" clip-rule="evenodd" d="M156.4,58.7h3.1c0.1,0,0.3,0.1,0.4,0.2c0.1,0.1,0.2,0.2,0.2,0.4 M156.4,59.1
	C156.4,59.1,156.3,59.2,156.4,59.1c-0.1,0.1-0.1,0.1-0.1,0.1c0,0,0,0.1,0,0.1c0,0,0.1,0,0.1,0h3.1c0,0,0,0,0.1,0c0,0,0,0,0,0
	c0,0,0,0,0,0c0,0,0,0,0-0.1v0c0,0,0-0.1,0-0.1c0,0-0.1,0-0.1,0H156.4z"/>
<path fill-rule="evenodd" clip-rule="evenodd" d="M178.3,178.3c-0.6,0-1.1,0.5-1.1,1.1c0,0.6,0.5,1.1,1.1,1.1c0.6,0,1.1-0.5,1.1-1.1
	C179.4,178.8,178.9,178.3,178.3,178.3z M176.4,179.4c0-1.1,0.9-1.9,1.9-1.9c1.1,0,1.9,0.9,1.9,1.9s-0.9,1.9-1.9,1.9
	C177.2,181.3,176.4,180.4,176.4,179.4z"/>
<path fill-rule="evenodd" clip-rule="evenodd" d="M123.3,150.9c-0.6,0-1.1,0.5-1.1,1.1c0,0.6,0.5,1.1,1.1,1.1c0.6,0,1.1-0.5,1.1-1.1
	C124.4,151.4,123.9,150.9,123.3,150.9z M121.4,152c0-1.1,0.9-1.9,1.9-1.9c1.1,0,1.9,0.9,1.9,1.9c0,1.1-0.9,1.9-1.9,1.9
	C122.2,153.9,121.4,153,121.4,152z"/>
<path fill="#C3C5FF" d="M250.8,78.2H140.7v19.6h110.1V78.2z"/>
<path fill-rule="evenodd" clip-rule="evenodd" fill="#C2C6FF" d="M140.6,78.2C140.6,78.1,140.7,78.1,140.6,78.2l110.2-0.1
	c0.1,0,0.1,0,0.1,0.1v19.6c0,0.1,0,0.1-0.1,0.1H140.7c-0.1,0-0.1,0-0.1-0.1V78.2z M140.8,78.3v19.4h109.9V78.3H140.8z"/>
<path fill="#FFFFFF" d="M250.8,98.4H140.7v64.3h110.1V98.4z"/>
<path fill-rule="evenodd" clip-rule="evenodd" d="M140,78.5c0-0.2,0.2-0.4,0.4-0.4h110.1c0.2,0,0.4,0.2,0.4,0.4V162
	c0,0.2,0,0.4-0.1,0.6c-0.1,0.2-0.2,0.4-0.3,0.5c-0.1,0.1-0.3,0.3-0.5,0.3c-0.2,0.1-0.4,0.1-0.6,0.1H141.6c-0.2,0-0.4,0-0.6-0.1
	c-0.2-0.1-0.4-0.2-0.5-0.3c-0.1-0.1-0.3-0.3-0.3-0.5c-0.1-0.2-0.1-0.4-0.1-0.6V78.5z M140.8,78.9V162c0,0.1,0,0.2,0.1,0.3
	c0,0.1,0.1,0.2,0.2,0.2c0.1,0.1,0.2,0.1,0.2,0.2c0.1,0,0.2,0.1,0.3,0.1h107.8c0.1,0,0.2,0,0.3-0.1c0.1,0,0.2-0.1,0.2-0.2
	c0.1-0.1,0.1-0.2,0.2-0.2c0-0.1,0.1-0.2,0.1-0.3V78.9H140.8z"/>
<path fill-rule="evenodd" clip-rule="evenodd" d="M250.5,98.3H140.4v-0.8h110.1V98.3z"/>
<path fill-rule="evenodd" clip-rule="evenodd" d="M150.1,87c-1.1,0-2,0.9-2,1.9s0.9,1.9,2,1.9c1.1,0,2-0.9,2-1.9S151.1,87,150.1,87z
	 M147.3,89c0-1.5,1.2-2.7,2.7-2.7c1.5,0,2.7,1.2,2.7,2.7c0,1.5-1.2,2.7-2.7,2.7C148.6,91.7,147.3,90.5,147.3,89z"/>
<path fill-rule="evenodd" clip-rule="evenodd" d="M160.6,86.9c-1.1,0-2,0.9-2,1.9s0.9,1.9,2,1.9c1.1,0,2-0.9,2-1.9
	S161.7,86.9,160.6,86.9z M157.9,88.8c0-1.5,1.2-2.7,2.7-2.7c1.5,0,2.7,1.2,2.7,2.7s-1.2,2.7-2.7,2.7
	C159.1,91.5,157.9,90.3,157.9,88.8z"/>
<path fill-rule="evenodd" clip-rule="evenodd" d="M171.1,86.9c-1.1,0-2,0.9-2,1.9s0.9,1.9,2,1.9s2-0.9,2-1.9S172.2,86.9,171.1,86.9z
	 M168.4,88.8c0-1.5,1.2-2.7,2.7-2.7s2.7,1.2,2.7,2.7s-1.2,2.7-2.7,2.7S168.4,90.3,168.4,88.8z"/>
<path fill="#FFFFFF" d="M221.6,140.1v-9.4c0-3.4,1.4-6.8,3.8-9.2c2.5-2.4,5.8-3.8,9.3-3.8c3.5,0,6.8,1.4,9.3,3.8
	c2.5,2.4,3.8,5.8,3.8,9.2v9.4h7.4v-8.8c0-5.4-2.2-10.6-6-14.4c-3.9-3.8-9.1-6-14.5-6c-5.5,0-10.7,2.1-14.5,6c-3.9,3.8-6,9-6,14.4
	v8.8H221.6z"/>
<path fill-rule="evenodd" clip-rule="evenodd" d="M219.9,116.6c3.9-3.9,9.3-6.1,14.8-6.1c5.6,0,10.9,2.2,14.8,6.1
	c3.9,3.9,6.1,9.2,6.1,14.7v8.8c0,0.2-0.2,0.4-0.4,0.4h-7.4c-0.2,0-0.4-0.2-0.4-0.4v-9.4c0-3.3-1.3-6.6-3.7-8.9
	c-2.4-2.4-5.6-3.7-9-3.7c-3.4,0-6.6,1.3-9,3.7c-2.4,2.4-3.7,5.6-3.7,8.9v9.4c0,0.2-0.2,0.4-0.4,0.4h-7.4c-0.2,0-0.4-0.2-0.4-0.4
	v-8.8C213.8,125.8,216,120.5,219.9,116.6z M234.7,111.3c-5.4,0-10.5,2.1-14.3,5.9s-5.9,8.8-5.9,14.1v8.4h6.7v-9c0-3.6,1.4-7,4-9.5
	c2.5-2.5,6-3.9,9.6-3.9c3.6,0,7,1.4,9.6,3.9c2.5,2.5,4,5.9,4,9.5v9h6.7v-8.4c0-5.3-2.1-10.4-5.9-14.1
	C245.2,113.4,240.1,111.3,234.7,111.3z"/>
<path fill="#AD79FF" d="M256.2,140.3h-43c-1.8,0-3.3,1.5-3.3,3.3v31c0,1.8,1.5,3.3,3.3,3.3h43c1.8,0,3.3-1.5,3.3-3.3v-31
	C259.5,141.7,258,140.3,256.2,140.3z"/>
<path fill-rule="evenodd" clip-rule="evenodd" d="M213.2,140.7c-1.6,0-2.9,1.3-2.9,2.9v31c0,1.6,1.3,2.9,2.9,2.9h43
	c1.6,0,2.9-1.3,2.9-2.9v-31c0-1.6-1.3-2.9-2.9-2.9H213.2z M209.5,143.5c0-2,1.7-3.7,3.7-3.7h43c2,0,3.7,1.6,3.7,3.7v31
	c0,2-1.7,3.7-3.7,3.7h-43c-2,0-3.7-1.6-3.7-3.7V143.5z"/>
<path fill="#FFFFFF" d="M240.1,156.2c0,0.9-0.2,1.8-0.7,2.6c-0.4,0.8-1.1,1.5-1.8,1.9v3.8c0,0.8-0.3,1.5-0.8,2
	c-0.5,0.5-1.3,0.8-2,0.8c-0.8,0-1.5-0.3-2-0.8c-0.5-0.5-0.8-1.3-0.8-2v-3.8c-0.8-0.5-1.4-1.2-1.9-2c-0.4-0.8-0.7-1.7-0.6-2.7
	c0-0.9,0.3-1.8,0.8-2.6c0.5-0.8,1.2-1.4,2-1.9c0.8-0.4,1.7-0.7,2.7-0.7c0.9,0,1.8,0.3,2.7,0.7c0.8,0.5,1.5,1.1,1.9,1.9
	C239.8,154.3,240.1,155.2,240.1,156.2z"/>
<path fill-rule="evenodd" clip-rule="evenodd" d="M234.8,151.2c-0.9,0-1.7,0.2-2.5,0.6c-0.8,0.4-1.4,1-1.8,1.8
	c-0.5,0.7-0.7,1.6-0.7,2.4c0,0.9,0.2,1.7,0.6,2.5s1,1.4,1.7,1.9c0.1,0.1,0.2,0.2,0.2,0.3v3.8c0,0.6,0.3,1.3,0.7,1.7
	c0.5,0.5,1.1,0.7,1.7,0.7c0.7,0,1.3-0.3,1.7-0.7c0.5-0.5,0.7-1.1,0.7-1.7v-3.8c0-0.1,0.1-0.3,0.2-0.3c0.7-0.4,1.3-1.1,1.7-1.8
	c0.4-0.7,0.6-1.6,0.6-2.4l0.4,0h-0.4c0-0.9-0.2-1.7-0.7-2.4c-0.4-0.7-1-1.4-1.8-1.8C236.5,151.5,235.7,151.3,234.8,151.2z
	 M240.5,156.2c0-1-0.3-2-0.8-2.8c-0.5-0.9-1.2-1.6-2.1-2.1c-0.9-0.5-1.8-0.8-2.8-0.8c-1,0-2,0.2-2.9,0.7c-0.9,0.5-1.6,1.2-2.1,2
	c-0.5,0.8-0.8,1.8-0.8,2.8c0,1,0.2,2,0.7,2.9c0.4,0.8,1.1,1.5,1.8,2v3.6c0,0.9,0.3,1.7,1,2.3c0.6,0.6,1.4,0.9,2.3,0.9
	c0.9,0,1.7-0.3,2.3-0.9c0.6-0.6,1-1.4,1-2.3v-3.6c0.7-0.5,1.4-1.2,1.8-2C240.2,158.1,240.5,157.1,240.5,156.2"/>
<path fill="#6F4AE7" d="M176.3,122.8c-0.3-0.5-0.8-0.9-1.4-1.1c-0.6-0.2-1.2-0.1-1.7,0.2l-5,2.9v-5.8c0-0.6-0.3-1.2-0.7-1.6
	c-0.4-0.4-1-0.6-1.6-0.6c-0.6,0-1.2,0.2-1.6,0.6c-0.4,0.4-0.7,1-0.7,1.6v5.8l-5-2.9c-0.3-0.1-0.5-0.2-0.8-0.3c-0.3,0-0.6,0-0.9,0.1
	c-0.3,0.1-0.6,0.2-0.8,0.4c-0.2,0.2-0.4,0.4-0.6,0.7c-0.1,0.3-0.2,0.5-0.3,0.8c0,0.3,0,0.6,0.1,0.9s0.2,0.6,0.4,0.8
	c0.2,0.2,0.4,0.4,0.7,0.6l5,2.9l-5,2.9c-0.3,0.1-0.5,0.3-0.7,0.6c-0.2,0.2-0.3,0.5-0.4,0.8c-0.1,0.3-0.1,0.6-0.1,0.9
	c0,0.3,0.1,0.6,0.3,0.8c0.2,0.3,0.4,0.5,0.6,0.7c0.2,0.2,0.5,0.3,0.8,0.4s0.6,0.1,0.9,0.1c0.3,0,0.6-0.1,0.8-0.3l5-2.9v5.8
	c0,0.3,0,0.6,0.2,0.9c0.1,0.3,0.3,0.5,0.5,0.8c0.2,0.2,0.5,0.4,0.8,0.5c0.3,0.1,0.6,0.2,0.9,0.2c0.3,0,0.6-0.1,0.9-0.2
	c0.3-0.1,0.5-0.3,0.8-0.5c0.2-0.2,0.4-0.5,0.5-0.8c0.1-0.3,0.2-0.6,0.2-0.9v-5.8l5,2.9c0.5,0.3,1.1,0.4,1.7,0.2s1.1-0.5,1.4-1.1
	c0.3-0.5,0.4-1.1,0.2-1.7c-0.1-0.6-0.5-1.1-1-1.4l-5-2.9l5-2.9c0.3-0.2,0.5-0.3,0.7-0.6c0.2-0.2,0.3-0.5,0.4-0.8
	c0.1-0.3,0.1-0.6,0.1-0.9C176.5,123.4,176.4,123.1,176.3,122.8z"/>
<path fill="#6F4AE7" d="M205.6,122.8c-0.3-0.5-0.8-0.9-1.4-1.1s-1.2-0.1-1.7,0.2l-5,2.9v-5.8c0-0.6-0.3-1.2-0.7-1.6
	c-0.4-0.4-1-0.6-1.6-0.6c-0.6,0-1.2,0.2-1.6,0.6c-0.4,0.4-0.7,1-0.7,1.6v5.8l-5-2.9c-0.3-0.2-0.6-0.3-0.9-0.3c-0.3,0-0.6,0-0.9,0
	c-0.3,0.1-0.6,0.2-0.8,0.4c-0.2,0.2-0.4,0.4-0.6,0.7c-0.2,0.3-0.3,0.6-0.3,0.9c0,0.3,0,0.6,0.1,0.9c0.1,0.3,0.2,0.6,0.4,0.8
	c0.2,0.2,0.4,0.4,0.7,0.6l5,2.9l-5,2.9c-0.5,0.3-0.9,0.8-1,1.4c-0.1,0.6-0.1,1.2,0.2,1.7c0.3,0.5,0.8,0.9,1.4,1.1
	c0.6,0.2,1.2,0.1,1.7-0.2l5-2.9v5.8c0,0.3,0,0.6,0.2,0.9c0.1,0.3,0.3,0.5,0.5,0.8c0.2,0.2,0.5,0.4,0.8,0.5c0.3,0.1,0.6,0.2,0.9,0.2
	c0.3,0,0.6-0.1,0.9-0.2c0.3-0.1,0.5-0.3,0.8-0.5c0.2-0.2,0.4-0.5,0.5-0.8c0.1-0.3,0.2-0.6,0.2-0.9v-5.8l5,2.9
	c0.5,0.3,1.1,0.4,1.7,0.2c0.6-0.2,1.1-0.5,1.4-1.1c0.3-0.5,0.4-1.1,0.2-1.7c-0.1-0.6-0.5-1.1-1-1.4l-5-2.9l5-2.9
	c0.5-0.3,0.9-0.8,1.1-1.4C206,124,205.9,123.4,205.6,122.8z"/>
<path fill-rule="evenodd" clip-rule="evenodd" d="M267.2,154.2c0.1-0.2,0.4-0.2,0.6,0l6.2,5.6c0.2,0.1,0.2,0.4,0,0.5
	c-0.1,0.2-0.4,0.2-0.6,0l-6.2-5.6C267.1,154.6,267.1,154.3,267.2,154.2z"/>
<path fill-rule="evenodd" clip-rule="evenodd" d="M271.7,145.7c0-0.2,0.3-0.3,0.5-0.3l8.2,1.8c0.2,0,0.3,0.3,0.3,0.5
	c0,0.2-0.3,0.3-0.5,0.3l-8.2-1.8C271.8,146.1,271.7,145.9,271.7,145.7z"/>
<path fill-rule="evenodd" clip-rule="evenodd" d="M280.1,133.3c0.1,0.2-0.1,0.4-0.3,0.5l-8,2.5c-0.2,0.1-0.4-0.1-0.5-0.3
	c-0.1-0.2,0.1-0.4,0.3-0.5l8-2.5C279.8,133,280,133.1,280.1,133.3z"/>
<path fill-rule="evenodd" clip-rule="evenodd" d="M272.4,121.2c0.2,0.1,0.2,0.4,0,0.5l-5.7,6.1c-0.1,0.2-0.4,0.2-0.6,0
	c-0.2-0.1-0.2-0.4,0-0.5l5.7-6.1C272,121.1,272.2,121.1,272.4,121.2z"/>
<path fill="#C3C5FF" d="M284.3,59.6H216c1.1-6.5,6.9-11.4,13.8-11.4c0.2,0,0.4,0,0.5,0C233.9,42.1,240.4,38,248,38
	c9.2,0,16.9,6,19.3,14.3c1.8-1.7,4.2-2.7,6.8-2.7C279.8,49.6,284.3,54.1,284.3,59.6z"/>
<path fill="#C3C5FF" d="M322,76.4h-42.4c0.7-4,4.3-7.1,8.6-7.1c0.1,0,0.2,0,0.4,0c2.2-3.8,6.2-6.3,10.9-6.3c5.7,0,10.5,3.7,12,8.9
	c1.1-1,2.6-1.7,4.2-1.7C319.2,70.3,322,73.1,322,76.4z"/>
<path fill="#A883F8" d="M137.5,196.5H46.9c1.5-8.6,9.2-15.2,18.3-15.2c0.2,0,0.5,0,0.7,0c4.6-8.1,13.3-13.5,23.3-13.5
	c12.1,0,22.4,8,25.7,18.9c2.4-2.2,5.6-3.5,9.1-3.5C131.4,183.2,137.5,189.2,137.5,196.5z"/>
<path d="M113.3,204.3H21l0.2-1c1.7-9.2,9.7-15.8,19.1-15.8c0.1,0,0.2,0,0.2,0c5-8.3,14-13.5,23.8-13.5c11.7,0,22.3,7.5,26.1,18.3
	c2.5-1.9,5.5-2.9,8.7-2.9c7.9,0,14.2,6.3,14.2,14L113.3,204.3L113.3,204.3z M22.9,202.6h88.7c-0.4-6.5-5.9-11.6-12.6-11.6
	c-3.2,0-6.2,1.2-8.5,3.3l-1,0.8l-0.4-1.2c-3.2-10.8-13.5-18.3-24.9-18.3c-9.4,0-18,5-22.7,13.1l-0.2,0.5h-0.5c-0.2,0-0.5,0-0.7,0
	C31.9,189.1,24.8,194.7,22.9,202.6z"/>
<path fill="#FFFFFF" d="M116.6,56.5l3.5,18.7c2,10.5,0.5,21.4-4.2,31c-4.6,9.5-12.1,17.3-21.4,22.3c-0.1,0-0.2,0.1-0.3,0
	c-10.5-1.3-20.3-5.9-28.1-13c-7.9-7.3-13.3-16.9-15.3-27.4l-3.5-18.7c0-0.1,0-0.2,0.1-0.3c0.1-0.1,0.1-0.2,0.2-0.2
	c3.5-1,6.6-3.3,8.7-6.3c2.1-3,3.1-6.7,2.8-10.3c0-0.1,0-0.2,0.1-0.3c0.1-0.1,0.2-0.1,0.3-0.2l39.2-7.3c0.1,0,0.2,0,0.3,0.1
	c0.1,0.1,0.2,0.1,0.2,0.2c1.1,3.5,3.3,6.6,6.4,8.6c3.1,2.1,6.7,3,10.4,2.7c0.1,0,0.2,0,0.3,0.1C116.5,56.3,116.5,56.4,116.6,56.5z"
	/>
<path fill-rule="evenodd" clip-rule="evenodd" d="M98.7,45.3L60,52.5c0.3,3.7-0.8,7.4-2.9,10.5c-2.1,3.1-5.3,5.3-8.9,6.4l3.5,18.3
	c1.9,10.3,7.2,19.7,15,26.8l0,0c7.6,7,17.2,11.4,27.5,12.8c9.1-4.9,16.5-12.5,21-21.8l0,0c4.7-9.4,6.1-20.1,4.1-30.4v0l-3.5-18.3
	c-3.8,0.3-7.5-0.7-10.6-2.8C102.1,51.9,99.8,48.9,98.7,45.3z M116.4,56.5l0.6-0.1c-0.1-0.2-0.2-0.4-0.4-0.6
	c-0.2-0.1-0.4-0.2-0.7-0.2l0,0c-3.5,0.3-7.1-0.6-10-2.6c-2.9-2-5.1-4.9-6.1-8.2c-0.1-0.2-0.2-0.4-0.4-0.6c-0.2-0.1-0.5-0.2-0.7-0.1
	c0,0,0,0,0,0l-39,7.3c0,0,0,0,0,0c-0.2,0.1-0.5,0.2-0.6,0.4c-0.1,0.2-0.2,0.4-0.2,0.7c0.3,3.5-0.7,7-2.7,9.8c-2,2.9-5,5-8.4,6
	c-0.2,0.1-0.5,0.2-0.6,0.4c-0.1,0.2-0.2,0.5-0.1,0.7c0,0,0,0,0,0l3.5,18.5c0,0,0,0,0,0c2,10.6,7.4,20.2,15.4,27.5
	c7.8,7.2,17.7,11.7,28.2,13.1c0,0,0,0,0,0c0.2,0,0.4,0,0.6-0.1c0,0,0,0,0,0c9.4-5,16.9-12.8,21.5-22.3c4.8-9.6,6.3-20.6,4.2-31.1
	L117,56.4L116.4,56.5z M48.2,69.2C48.2,69.2,48.2,69.2,48.2,69.2L48.2,69.2z"/>
<path fill="#6F4AE7" d="M110.5,102.9c-3.8,7.7-10,14-17.6,18.1c-0.1,0-0.1,0-0.2,0c-8.7-1.1-16.8-4.8-23.2-10.6
	c-6.5-5.9-11-13.7-12.6-22.3L54,73c0-0.1,0-0.2,0-0.2c0-0.1,0.1-0.1,0.2-0.1c2.9-0.8,5.5-2.7,7.2-5.1c1.7-2.5,2.5-5.4,2.3-8.4
	c0-0.1,0-0.2,0.1-0.2c0.1-0.1,0.1-0.1,0.2-0.1L78.7,56l17.7-3.3c0.1,0,0.2,0,0.2,0c0.1,0,0.1,0.1,0.2,0.2c0.9,2.9,2.7,5.3,5.3,7
	c2.5,1.7,5.6,2.5,8.6,2.2c0.1,0,0.2,0,0.2,0.1c0.1,0.1,0.1,0.1,0.1,0.2l2.9,15.2C115.7,86.2,114.4,95.1,110.5,102.9z"/>
<path fill="#5D42D1" d="M93.5,121c-0.1,0-0.1,0-0.2,0c-8.8-1.1-17-4.8-23.5-10.6c-6.7-5.9-11.1-13.7-12.8-22.3L54,73
	c0-0.1,0-0.2,0-0.2c0-0.1,0.1-0.1,0.2-0.1c3-0.8,5.5-2.6,7.3-5.1c1.8-2.5,2.6-5.4,2.4-8.4c0-0.1,0-0.2,0.1-0.2
	c0.1-0.1,0.1-0.1,0.2-0.1L79.1,56l1.3,0.2L93.5,121z"/>
<path fill="#FFFFFF" d="M99.3,78.8c0,0.1-0.1,0.1-0.1,0.2L87.7,96.2c-0.2,0.3-0.5,0.6-0.9,0.9c-0.3,0.2-0.7,0.4-1.1,0.5
	c-0.4,0.1-0.8,0.1-1.2,0s-0.8-0.2-1.2-0.4l-7.8-4.7c-0.7-0.4-1.2-1.1-1.4-1.9c-0.2-0.8,0-1.6,0.4-2.3l0.1-0.1
	c0.2-0.3,0.5-0.6,0.9-0.9c0.3-0.2,0.7-0.4,1.1-0.5c0.4-0.1,0.8-0.1,1.2,0c0.4,0.1,0.8,0.2,1.2,0.4l4.8,2.9c0.1,0.1,0.2,0.1,0.3,0.1
	c0.1,0,0.2-0.1,0.2-0.2l9.5-14.2c0.2-0.4,0.5-0.7,0.8-0.9c0.3-0.2,0.7-0.4,1.1-0.5c0.4-0.1,0.8-0.1,1.3-0.1s0.8,0.2,1.2,0.4
	c0.4,0.2,0.7,0.5,0.9,0.8c0.3,0.3,0.4,0.7,0.5,1.1c0.1,0.4,0.1,0.8,0,1.2C99.7,78.1,99.5,78.5,99.3,78.8L99.3,78.8z"/>
<path fill-rule="evenodd" clip-rule="evenodd" fill="#FFFFFF" d="M96.5,74.7c-0.3,0-0.6,0-0.9,0.1c-0.3,0.1-0.6,0.2-0.8,0.4
	c-0.2,0.2-0.4,0.4-0.6,0.7c0,0,0,0,0,0l-9.2,14.4l-0.7-0.5l0.7,0.5c-0.2,0.3-0.5,0.5-0.8,0.5c-0.3,0.1-0.7,0-0.9-0.2l-4.6-2.9
	c-0.2-0.2-0.5-0.3-0.8-0.3c-0.3-0.1-0.6,0-0.9,0c-0.3,0.1-0.6,0.2-0.8,0.3c-0.2,0.2-0.4,0.4-0.6,0.6c0,0,0,0,0,0l0,0.1
	c-0.3,0.5-0.4,1.1-0.3,1.7c0.1,0.6,0.5,1.1,1,1.4c0,0,0,0,0,0l7.5,4.8c0.2,0.2,0.5,0.3,0.8,0.3c0.3,0.1,0.6,0,0.9,0
	c0.3-0.1,0.6-0.2,0.8-0.3c0.2-0.2,0.4-0.4,0.6-0.6L98,78.2c0,0,0,0,0,0c0,0,0,0,0.1-0.1c0,0,0,0,0,0c0.1-0.2,0.2-0.5,0.3-0.8
	c0-0.3,0-0.6,0-0.9s-0.2-0.6-0.4-0.8c-0.2-0.2-0.4-0.4-0.7-0.6C97.1,74.8,96.8,74.7,96.5,74.7z M99.5,79.2L88.4,96.6
	c-0.3,0.4-0.6,0.8-1.1,1.1c-0.4,0.3-0.9,0.5-1.4,0.6c-0.5,0.1-1,0.1-1.5,0c-0.5-0.1-1-0.3-1.4-0.6 M82.9,97.8L75.4,93
	c-0.9-0.6-1.5-1.5-1.7-2.5c-0.2-1,0-2.1,0.5-3c0,0,0,0,0,0l0-0.1c0.3-0.4,0.6-0.8,1.1-1.1c0.4-0.3,0.9-0.5,1.4-0.6
	c0.5-0.1,1-0.1,1.5,0c0.5,0.1,1,0.3,1.4,0.6c0,0,0,0,0,0l4.2,2.7l8.9-14c0.3-0.5,0.6-0.9,1-1.2c0.4-0.3,0.9-0.6,1.4-0.7
	c0.5-0.1,1-0.2,1.6-0.1c0.5,0.1,1,0.3,1.5,0.5c0.5,0.3,0.8,0.6,1.2,1.1c0.3,0.4,0.5,0.9,0.7,1.4c0.1,0.5,0.1,1.1,0.1,1.6
	c-0.1,0.5-0.3,1-0.6,1.5c0,0,0,0,0,0c0,0-0.1,0.1-0.1,0.1"/>
</svg>
