<?xml version="1.0" encoding="utf-8"?>
<!-- Generator: Adobe Illustrator 24.1.3, SVG Export Plug-In . SVG Version: 6.00 Build 0)  -->
<svg version="1.1" id="Layer_1" xmlns="http://www.w3.org/2000/svg" xmlns:xlink="http://www.w3.org/1999/xlink" x="0px" y="0px"
	 viewBox="0 0 343 242" enable-background="new 0 0 343 242" xml:space="preserve">
<path fill="#A77FFA" d="M254.4,155.1c3.4,0,6.1-2.7,6.1-6c0-3.3-2.7-6-6.1-6c-3.4,0-6.1,2.7-6.1,6
	C248.3,152.4,251,155.1,254.4,155.1z"/>
<path d="M266.2,147.2c-0.1,0-0.1-0.1-0.2-0.1c-0.1,0-0.1,0-0.2,0c0,0,0,0-0.1,0l-5.1,1.2l-0.1-0.6c-0.4-1.5-1.2-2.8-2.5-3.7
	c-1.3-0.9-2.8-1.3-4.3-1.1c-0.3,0-0.5,0.1-0.8,0.1c-0.8,0.2-1.6,0.5-2.2,1c-0.7,0.5-1.2,1.1-1.7,1.8c-0.4,0.7-0.7,1.5-0.9,2.3
	c-0.1,0.8-0.1,1.6,0.1,2.4l0.1,0.6l-4.3,1l-1.3-3.9c0-0.1-0.1-0.2-0.2-0.3c-0.1-0.1-0.2-0.1-0.3-0.1l-0.1,0l-2.3,0.5
	c-0.1,0-0.2,0.1-0.3,0.2c-0.1,0.1-0.1,0.2-0.1,0.3c0,0,0,0,0,0.1c0,0.1,0.1,0.2,0.2,0.3c0.1,0.1,0.2,0.1,0.3,0.1h0.1l1.8-0.4
	l0.2,0.5c0.2,0.7,4.1,12.1,4.6,13.7c0,0.1,0,0.1,0.1,0.2c0,0,0,0,0,0c0.3,0.9,1,1.7,1.9,2.1l0.6,0.3l-0.3,0.6
	c-0.2,0.5-0.3,1-0.2,1.5c0.1,0.7,0.5,1.4,1,1.9c0.3,0.2,0.6,0.4,1,0.5c0.4,0.1,0.7,0.1,1.1,0.1c0.1,0,0.2,0,0.4-0.1
	c0.7-0.2,1.3-0.6,1.7-1.1c0.4-0.6,0.6-1.2,0.5-1.9c-0.1-0.4-0.2-0.9-0.4-1.2l-0.5-0.7l7.8-1.8l-0.1,0.9c0,0.2,0,0.4,0,0.6
	c0.1,0.6,0.3,1.1,0.7,1.5c0.4,0.4,0.8,0.7,1.4,0.9c0.5,0.2,1.1,0.1,1.6,0c0.5-0.2,1-0.5,1.3-0.9c0.3-0.4,0.6-1,0.6-1.5
	c0-0.6-0.1-1.1-0.3-1.6s-0.7-0.9-1.2-1.1c-0.5-0.3-1.1-0.4-1.6-0.3c-0.1,0-0.2,0-0.3,0.1l-12.4,2.9c-0.1,0-0.2,0-0.3,0.1
	c-0.5,0.1-1,0-1.4-0.2c-0.4-0.2-0.8-0.5-1.1-0.9l-0.5-0.7l18.4-5.5c0.1,0,0.2-0.1,0.3-0.2c0.1-0.1,0.1-0.2,0.1-0.3l0.1-9.5
	c0,0,0,0,0-0.1c0-0.1,0-0.1-0.1-0.2C266.3,147.3,266.2,147.3,266.2,147.2z M262.5,163.6c0.2-0.3,0.5-0.5,0.8-0.6s0.7-0.2,1-0.1
	c0.3,0.1,0.7,0.2,0.9,0.5c0.3,0.2,0.4,0.5,0.5,0.9c0,0.1,0,0.1,0,0.2c0,0.4-0.1,0.9-0.3,1.2c-0.3,0.4-0.6,0.6-1.1,0.7
	c-0.1,0-0.1,0-0.2,0c-0.4,0-0.9-0.1-1.2-0.3c-0.4-0.3-0.6-0.6-0.7-1.1c0-0.1,0-0.1,0-0.2C262.1,164.4,262.2,164,262.5,163.6z
	 M250.1,166.5c0.3-0.4,0.6-0.6,1.1-0.7c0.1,0,0.1,0,0.2,0c0.4-0.1,0.9,0.1,1.2,0.3c0.4,0.3,0.6,0.6,0.7,1.1c0,0.1,0,0.1,0,0.2
	c0,0.4-0.1,0.9-0.3,1.2c-0.3,0.4-0.6,0.6-1.1,0.7c-0.1,0-0.1,0-0.2,0c-0.4,0-0.9-0.1-1.2-0.3c-0.4-0.3-0.6-0.6-0.7-1.1
	c0-0.1,0-0.1,0-0.2C249.7,167.3,249.8,166.9,250.1,166.5L250.1,166.5z M250,146.2c0.7-1.1,1.8-1.8,3.1-2.1c0.2,0,0.4-0.1,0.6-0.1
	c1.3-0.1,2.6,0.2,3.6,0.9c1.1,0.7,1.8,1.8,2.1,3.1c0,0.2,0.1,0.4,0.1,0.6c0.1,1.3-0.2,2.6-0.9,3.6c-0.7,1-1.8,1.8-3.1,2.1
	c-0.2,0-0.4,0.1-0.6,0.1c-1.3,0.1-2.6-0.2-3.6-0.9c-1.1-0.7-1.8-1.8-2.1-3.1c-0.1-0.2-0.1-0.4-0.1-0.6
	C248.9,148.5,249.2,147.2,250,146.2L250,146.2z M265.2,156.3v0.5l-17.9,5.3l-3-8.9l4.4-1l0.2,0.4c0.6,1,1.5,1.8,2.6,2.3
	c1.1,0.5,2.2,0.7,3.4,0.6c1.6-0.2,3-0.9,4.1-2.1c0.8-1,1.4-2.2,1.5-3.4l0-0.4l4.7-1.1L265.2,156.3z"/>
<path d="M256.2,147.6c0,0.1,0,0.2-0.1,0.3l-1.7,2.8c0,0.1-0.1,0.1-0.2,0.2c-0.1,0-0.1,0.1-0.2,0.1c-0.1,0-0.2,0-0.3-0.1l-1.4-0.9
	c-0.1,0-0.1-0.1-0.2-0.2c0-0.1-0.1-0.1-0.1-0.2c0-0.1,0-0.2,0.1-0.3c0-0.1,0.1-0.1,0.2-0.2c0.1,0,0.1-0.1,0.2-0.1
	c0.1,0,0.2,0,0.3,0.1l1,0.6l1.5-2.3c0-0.1,0.1-0.1,0.2-0.2c0.1,0,0.1-0.1,0.2-0.1c0.1,0,0.2,0,0.3,0.1c0.1,0,0.1,0.1,0.2,0.2
	C256.2,147.5,256.2,147.5,256.2,147.6z"/>
<path d="M262.3,92.5c0,1-0.2,2-0.6,2.9c-0.4,1.1-0.9,2.1-1.5,3c-1.3,2.1-3.1,4.2-5,6.2c-3.9,4.1-8.4,7.8-11.2,10.2
	c-0.8,0.7-1.4,1.2-1.8,1.6c-3.1,2.9-6.2,5.9-9.1,9c-0.1,0.1-0.1,0.2-0.2,0.2c-0.2,0.2-0.4,0.4-0.6,0.6c-0.3,0.3-0.5,0.6-0.8,0.9
	c0,0.1-0.1,0.1-0.1,0.2c-0.2,0.2-0.4,0.5-0.6,0.7c-0.2,0.3-0.5,0.6-0.7,0.8l-0.1,0.2c-0.2,0.2-0.4,0.5-0.6,0.7
	c-0.1,0.1-0.2,0.3-0.4,0.4c-0.1,0.2-0.3,0.3-0.4,0.5c-0.3,0.3-0.5,0.6-0.8,1c-0.1,0.1-0.2,0.3-0.3,0.4c-0.5,0.6-1,1.3-1.4,1.9
	c-0.2,0.3-0.4,0.6-0.6,0.8l-0.3,0.4l0,0c-0.1,0.2-0.2,0.3-0.3,0.5c-0.2,0.3-0.4,0.6-0.6,0.9c-0.1,0.2-0.2,0.4-0.3,0.5
	c-0.1,0.1-0.2,0.3-0.3,0.4s-0.2,0.2-0.2,0.4l-0.2,0.4c-0.1,0.2-0.3,0.4-0.4,0.7c-0.1,0.1-0.1,0.2-0.2,0.3c-0.1,0.2-0.2,0.3-0.3,0.5
	c-0.1,0.2-0.2,0.4-0.3,0.6c-0.1,0.2-0.2,0.4-0.3,0.7c-0.1,0.2-0.2,0.4-0.3,0.6c0,0.1-0.1,0.1-0.1,0.2c-0.1,0.1-0.1,0.2-0.2,0.3
	c0,0.1-0.1,0.2-0.1,0.2c0,0.1-0.1,0.1-0.1,0.2c0,0.1,0,0.1-0.1,0.1c-0.1,0.2-0.2,0.4-0.3,0.7l0,0.1c0,0.1-0.1,0.1-0.1,0.2v-2.1
	l0.2-0.3c0.1-0.2,0.2-0.3,0.3-0.5l0.2-0.3c0.1-0.2,0.2-0.3,0.3-0.5c0-0.1,0.1-0.1,0.1-0.2c0.1-0.2,0.2-0.4,0.3-0.6
	c0.1-0.2,0.2-0.4,0.4-0.7c0.1-0.2,0.3-0.4,0.4-0.7c0.1-0.2,0.2-0.3,0.3-0.5c0.2-0.3,0.4-0.7,0.6-1l0.3-0.5c0.1-0.2,0.3-0.4,0.4-0.6
	l0.4-0.5l0.1-0.1c0.1-0.2,0.3-0.4,0.4-0.6l0.4-0.6c0.3-0.4,0.6-0.8,0.9-1.2c0.3-0.4,0.6-0.7,0.8-1.1l0.1-0.1l0.5-0.6
	c0.3-0.4,0.7-0.8,1-1.2c0.2-0.2,0.3-0.4,0.5-0.6l0.3-0.3c0.2-0.2,0.4-0.4,0.5-0.6c0.3-0.4,0.6-0.7,1-1.1c0.2-0.2,0.4-0.5,0.6-0.7
	c0.2-0.2,0.5-0.5,0.7-0.7c0.2-0.2,0.4-0.4,0.5-0.6c0.1-0.1,0.1-0.1,0.2-0.2c2.7-2.9,5.6-5.7,8.5-8.4c0.6-0.5,1.5-1.3,2.6-2.3
	c1.1-1,2.5-2.1,4-3.4c2.9-2.6,6.2-5.6,8.7-8.7c1.7-2,3.1-4.1,3.9-5.9c0.4-0.9,0.7-2,0.7-3c0-0.6-0.1-1.1-0.3-1.7
	c-0.2-0.6-0.6-1.1-1-1.5c-0.5-0.5-1.2-0.9-1.9-1c-0.9-0.2-1.8-0.3-2.7-0.3c-2.6,0-5.7,0.7-8.6,1.5c-2.4,0.7-4.7,1.5-6.9,2.4
	c-2.3,0.9-4.6,1.9-7,3l-0.2,0.1l0,0c-0.3,0.1-0.6,0.3-0.9,0.4c-0.9,0.4-1.8,0.9-2.7,1.3c-0.3,0.2-0.6,0.3-0.9,0.5
	c-0.3,0.2-0.6,0.3-0.9,0.5l0,0c-0.3,0.2-0.6,0.3-0.9,0.5c-1,0.6-2.1,1.2-3,1.8l-0.4,0.2c-0.6,0.4-1.2,0.8-1.8,1.2l-0.4,0.3
	c-0.1,0.1-0.3,0.2-0.4,0.3v-1c0.1-0.1,0.1-0.1,0.2-0.1l0.2-0.1c0.1-0.1,0.3-0.2,0.4-0.3l0.3-0.2l0.5-0.4c1.4-0.9,2.9-1.8,4.4-2.6
	l0.5-0.3l0.4-0.2c0.3-0.2,0.6-0.3,0.9-0.5l0.8-0.4c0.3-0.2,0.6-0.3,0.9-0.5c0.9-0.5,1.9-0.9,2.8-1.3L233,94c2.2-1,4.5-2,6.7-2.9
	c2.3-0.9,4.6-1.8,7-2.5c2.9-0.8,6.1-1.5,8.8-1.5c1,0,2,0.1,2.9,0.4c0.8,0.2,1.6,0.6,2.3,1.2c0.5,0.5,0.9,1.1,1.2,1.7
	C262.2,91.1,262.3,91.8,262.3,92.5L262.3,92.5z"/>
<path d="M244.7,157l-2.6,0.1c-1.7,0.1-3.3,0.8-4.6,2.1c-1.3,1.3-2.3,3-2.8,5.1c-0.3,1.4-0.9,2.8-1.8,4c-0.1,0.1-0.1,0.2-0.2,0.3
	c-0.1,0.1-0.2,0.2-0.2,0.3c-0.2,0.2-0.3,0.4-0.5,0.6c-0.1,0.1-0.2,0.2-0.3,0.3c-1.4,1.4-3.2,2.2-5.1,2.3l-5.4,0.2l-0.8,0v-0.8l0.8,0
	l5.4-0.2c1.7-0.1,3.3-0.8,4.6-2.1c0.4-0.4,0.8-0.9,1.2-1.4c0-0.1,0.1-0.1,0.1-0.2c0.1-0.2,0.2-0.4,0.3-0.6c0.1-0.1,0.1-0.3,0.2-0.4
	c0.4-0.8,0.7-1.7,0.9-2.6c0.5-2.2,1.6-4.2,3-5.5c1.4-1.4,3.2-2.2,5.1-2.3l2.6-0.1L244.7,157z"/>
<path d="M232.8,167.1v1.5c-0.1,0.1-0.2,0.2-0.2,0.3c-0.2,0.2-0.3,0.4-0.5,0.6c-0.1,0.1-0.2,0.2-0.3,0.3c-1.4,1.4-3.2,2.2-5.1,2.3
	l-5.4,0.2l-0.8,0v-0.8l0.8,0l5.4-0.2c1.7-0.1,3.3-0.8,4.6-2.1c0.4-0.4,0.8-0.9,1.2-1.4c0-0.1,0.1-0.1,0.1-0.2
	C232.6,167.4,232.7,167.3,232.8,167.1z"/>
<path fill="none" stroke="#000000" stroke-miterlimit="10" d="M127.9,43.1H80.5c-0.5,0-0.9,0.4-0.9,0.9V75c0,0.5,0.4,0.9,0.9,0.9
	h47.4c0.5,0,0.9-0.4,0.9-0.9V44C128.9,43.5,128.4,43.1,127.9,43.1z"/>
<path fill="none" stroke="#000000" stroke-miterlimit="10" d="M79.9,48.6h49.3"/>
<path fill="none" stroke="#000000" stroke-linecap="round" stroke-miterlimit="10" d="M101.3,54.4h20.1"/>
<path fill="none" stroke="#000000" stroke-linecap="round" stroke-miterlimit="10" d="M101.3,60.2h20.1"/>
<path fill="none" stroke="#000000" stroke-linecap="round" stroke-miterlimit="10" d="M101.3,65.9h20.1"/>
<path fill="#A77FFA" stroke="#000000" stroke-miterlimit="10" d="M96.3,61.8c0.7-3.1-1.2-6.2-4.3-7c-3.1-0.7-6.3,1.2-7,4.3
	c-0.7,3.1,1.2,6.2,4.3,7C92.4,66.8,95.6,64.9,96.3,61.8z"/>
<path fill="none" stroke="#000000" stroke-linejoin="round" d="M89.6,63v-5l3.4,2.5L89.6,63z"/>
<path d="M137.8,92.8v1c-0.1-0.1-0.3-0.2-0.4-0.3c-0.1-0.1-0.3-0.2-0.4-0.3c-1.1-0.6-2.2-1.1-3.4-1.4c-2.6-0.8-5.4-0.9-8.4-0.9
	c-2.4,0-4.9,0.1-7.3,0.1c-1.7,0-3.5-0.1-5.2-0.3c-2.3-0.3-4.2-0.8-5.7-1.7c-1.5-0.8-2.8-1.9-3.8-3.2c-2-2.6-3-5.8-3.6-9.2l0.8-0.2
	c0.5,2.5,1.1,4.9,2.2,6.9c1.1,2,2.6,3.7,4.8,4.9c1.5,0.8,3.2,1.3,5.4,1.6c1.7,0.2,3.4,0.3,5.1,0.2c2.4,0,4.9-0.1,7.3-0.1
	c3,0,5.9,0.2,8.6,1c1.1,0.3,2.2,0.7,3.2,1.3c0.1,0.1,0.3,0.2,0.4,0.2C137.5,92.7,137.6,92.7,137.8,92.8z"/>
<path fill="#C5C8FB" d="M225.4,71.1h-69c-4.2,0-7.6,3.4-7.6,7.6v103.3c0,4.2,3.4,7.6,7.6,7.6h69c4.2,0,7.6-3.4,7.6-7.6V78.7
	C233,74.5,229.6,71.1,225.4,71.1z"/>
<path fill="#FFFFFF" stroke="#000000" d="M213.6,62.8h-69c-3.8,0-6.9,3.1-6.9,6.9V173c0,3.8,3.1,6.9,6.9,6.9h69
	c3.8,0,6.9-3.1,6.9-6.9V69.7C220.5,65.9,217.4,62.8,213.6,62.8z"/>
<path fill="none" stroke="#000000" stroke-miterlimit="10" d="M241.5,79.5c0.8,0,1.4-0.6,1.4-1.4c0-0.8-0.6-1.4-1.4-1.4
	c-0.8,0-1.4,0.6-1.4,1.4C240.1,78.9,240.8,79.5,241.5,79.5z"/>
<path fill="none" stroke="#000000" stroke-miterlimit="10" d="M120.4,35c0.8,0,1.4-0.6,1.4-1.4c0-0.7-0.6-1.4-1.4-1.4
	c-0.8,0-1.4,0.6-1.4,1.4C119.1,34.4,119.7,35,120.4,35z"/>
<path fill="none" stroke="#000000" stroke-miterlimit="10" d="M98.8,158c0.8,0,1.4-0.6,1.4-1.4c0-0.8-0.6-1.4-1.4-1.4
	c-0.8,0-1.4,0.6-1.4,1.4C97.4,157.4,98.1,158,98.8,158z"/>
<path fill="none" stroke="#000000" stroke-linecap="round" stroke-miterlimit="10" d="M111,97.5v2.7"/>
<path fill="none" stroke="#000000" stroke-linecap="round" stroke-miterlimit="10" d="M109.6,98.8h2.7"/>
<path fill="none" stroke="#000000" stroke-linecap="round" stroke-miterlimit="10" d="M265.4,128.7v2.7"/>
<path fill="none" stroke="#000000" stroke-linecap="round" stroke-miterlimit="10" d="M264.1,130h2.7"/>
<path fill="none" stroke="#000000" stroke-linecap="round" stroke-miterlimit="10" d="M137.4,46.1v2.9"/>
<path fill="none" stroke="#000000" stroke-linecap="round" stroke-miterlimit="10" d="M136,47.5h2.9"/>
<path d="M198.3,96.6c-0.6-1.4-1.5-2.5-2.8-3.3c-1.2-0.8-2.7-1.2-4.2-1.2c-1.2,0-2.5,0.3-3.5,0.9c-1.1,0.6-2,1.4-2.7,2.4
	c-0.4,0.7-0.8,1.4-1,2.2h-10.6c-0.1-0.3-0.2-0.6-0.3-0.9c-0.1-0.3-0.3-0.6-0.4-0.8l3.8-3.7c1.1,0.6,2.4,1,3.8,1c1,0,2-0.2,2.9-0.6
	c1.4-0.6,2.5-1.5,3.3-2.8c0.8-1.2,1.3-2.7,1.3-4.1c0-1.2-0.3-2.4-0.9-3.5c-0.6-1.1-1.4-2-2.4-2.7c-1.2-0.8-2.7-1.3-4.2-1.3
	c-1,0-2,0.2-2.9,0.6c-0.9,0.4-1.7,0.9-2.4,1.6c-0.7,0.7-1.3,1.5-1.6,2.4c-0.4,0.9-0.6,1.9-0.6,2.9c0,1,0.2,2,0.6,2.9
	c0.1,0.2,0.2,0.5,0.3,0.7L170,93c-1.1-0.6-2.4-0.9-3.6-0.9c-1,0-2,0.2-2.9,0.6c-0.9,0.4-1.7,0.9-2.4,1.6c-0.7,0.7-1.3,1.5-1.6,2.4
	c-0.4,0.9-0.6,1.9-0.6,2.9c0,1,0.2,2,0.6,2.9c0.6,1.3,1.5,2.5,2.7,3.3c1.2,0.8,2.7,1.3,4.2,1.3c1.2,0,2.4-0.3,3.5-0.9
	c1.1-0.6,2-1.4,2.7-2.4c0.5-0.7,0.8-1.4,1-2.2h10.6c0.1,0.3,0.2,0.6,0.3,0.9c0.1,0.2,0.2,0.5,0.3,0.7l-3.8,3.8
	c-1.1-0.6-2.4-0.9-3.6-0.9c-1,0-2,0.2-2.9,0.6c-0.9,0.4-1.7,0.9-2.4,1.6c-0.7,0.7-1.3,1.5-1.6,2.4c-0.4,0.9-0.6,1.9-0.6,2.9
	c0,1,0.2,2,0.6,2.9c0.6,1.3,1.5,2.5,2.7,3.3c1.1,0.8,2.5,1.2,3.8,1.3c1.4,0.1,2.7-0.2,3.9-0.9c1.2-0.6,2.2-1.6,2.9-2.7
	c0.7-1.2,1.1-2.5,1.1-3.8c0-1-0.2-2-0.6-2.9c-0.1-0.3-0.3-0.6-0.4-0.8l3.8-3.7h0c1.1,0.6,2.4,1,3.8,1c2,0,3.9-0.8,5.3-2.2
	c1.4-1.4,2.2-3.3,2.2-5.3C198.9,98.5,198.7,97.6,198.3,96.6z M177.2,84.2c0.3-0.6,0.7-1.1,1.3-1.5c0.5-0.3,1-0.5,1.6-0.6
	c0.6-0.1,1.2,0,1.7,0.3c0.6,0.3,1.2,0.7,1.5,1.3c0.4,0.6,0.6,1.2,0.6,1.9c0,0.5-0.1,0.9-0.3,1.3c-0.3,0.6-0.7,1.1-1.3,1.5
	c-0.6,0.4-1.3,0.6-1.9,0.6c-0.6,0-1.1-0.1-1.6-0.4c-0.5-0.3-0.9-0.6-1.2-1.1c-0.3-0.5-0.5-1-0.6-1.6C176.9,85.3,177,84.8,177.2,84.2
	z M169.5,100.9c-0.2,0.6-0.6,1.1-1.1,1.4c-0.5,0.4-1.1,0.6-1.7,0.7c-0.6,0.1-1.3,0-1.8-0.3c-0.6-0.3-1.1-0.7-1.4-1.2
	c-0.3-0.5-0.5-1-0.6-1.6c-0.1-0.6,0-1.1,0.3-1.7c0.3-0.6,0.7-1.1,1.3-1.5c0.5-0.3,1-0.5,1.6-0.6c0.6-0.1,1.2,0,1.7,0.3
	c0.6,0.3,1.2,0.7,1.5,1.3c0.4,0.6,0.6,1.2,0.6,1.9C169.8,100,169.7,100.5,169.5,100.9L169.5,100.9z M180.5,114.8
	c-0.3,0.6-0.7,1.1-1.3,1.5c-0.6,0.4-1.2,0.6-1.9,0.6c-0.5,0-0.9-0.1-1.3-0.3c-0.6-0.3-1.2-0.7-1.5-1.2c-0.4-0.6-0.6-1.3-0.6-2.1
	c0-0.7,0.3-1.4,0.8-2c0.5-0.6,1.1-1,1.8-1.2c0.7-0.2,1.5-0.1,2.2,0.2c0.6,0.3,1.2,0.7,1.5,1.2c0.3,0.5,0.5,1,0.6,1.6
	C180.8,113.7,180.7,114.3,180.5,114.8L180.5,114.8z M194.6,100.9c-0.3,0.6-0.7,1.1-1.3,1.5c-0.6,0.4-1.2,0.6-1.9,0.6
	c-0.6,0-1.1-0.1-1.6-0.4c-0.5-0.3-0.9-0.6-1.2-1.1c-0.3-0.5-0.5-1-0.6-1.6c-0.1-0.6,0-1.1,0.3-1.7c0.3-0.6,0.7-1.1,1.3-1.5
	c0.5-0.3,1-0.5,1.6-0.6c0.6-0.1,1.2,0,1.7,0.3c0.6,0.3,1.2,0.7,1.5,1.3c0.4,0.6,0.6,1.2,0.6,1.9C194.9,100,194.8,100.5,194.6,100.9
	L194.6,100.9z"/>
<path fill="#A77FFA" d="M130,116.2h-22.9v22.7H130V116.2z"/>
<path fill="none" stroke="#000000" stroke-miterlimit="10" d="M125.9,113.4h-22.1v21.9h22.1V113.4z"/>
<path fill="none" stroke="#000000" stroke-linecap="round" stroke-linejoin="round" d="M111.6,124.7l2.9,2.9l4.4-5.8"/>
<path fill="#49FFBA" stroke="#000000" d="M190.3,141.8h-22.9c-5,0-9,4-9,9c0,4.9,4,9,9,9h22.9c5,0,9-4,9-9
	C199.4,145.8,195.3,141.8,190.3,141.8z"/>
<path fill="#FFFFFF" stroke="#000000" d="M190.6,159.5c4.9,0,8.9-4,8.9-8.9c0-4.9-4-8.8-8.9-8.8c-4.9,0-8.9,4-8.9,8.8
	C181.7,155.6,185.7,159.5,190.6,159.5z"/>
<path fill="none" stroke="#000000" stroke-miterlimit="10" d="M96.5,211.2h49.4"/>
<path fill="none" stroke="#000000" stroke-miterlimit="10" d="M73.2,216.3h49.4"/>
<path fill="#A883F8" d="M146.8,207.2h-44.4c0.4-2.1,1.5-4,3.1-5.3c1.6-1.4,3.7-2.1,5.9-2.1c0.1,0,0.2,0,0.3,0c1.3-2.2,3.2-4,5.5-5.2
	c2.3-1.2,4.9-1.6,7.4-1.4c2.6,0.3,5,1.3,7,3c2,1.6,3.4,3.8,4.2,6.3c0.9-0.9,2.1-1.4,3.4-1.6c1.3-0.2,2.6,0,3.7,0.5
	c1.2,0.5,2.2,1.3,2.9,2.4C146.5,204.7,146.8,206,146.8,207.2L146.8,207.2z"/>
<path fill="none" stroke="#000000" stroke-linecap="round" stroke-linejoin="round" d="M134.4,211.2H86.1c0.4-2.3,1.6-4.3,3.4-5.8
	c1.8-1.5,4-2.3,6.4-2.3c0.1,0,0.3,0,0.4,0c1.4-2.4,3.4-4.4,5.9-5.7c2.5-1.3,5.3-1.8,8.1-1.5c2.8,0.3,5.4,1.4,7.6,3.2
	c2.2,1.8,3.7,4.2,4.5,6.8c1-0.9,2.3-1.6,3.7-1.8c1.4-0.2,2.8-0.1,4.1,0.5c1.3,0.6,2.4,1.5,3.1,2.6
	C134,208.4,134.4,209.8,134.4,211.2L134.4,211.2z"/>
<path fill="#C5C8FB" d="M246.9,38.4H206c0.7-3.8,4.1-6.7,8.3-6.7c0.1,0,0.2,0,0.3,0c2.1-3.6,6-6,10.5-6c5.5,0,10.1,3.6,11.6,8.4
	c1.1-1,2.5-1.6,4.1-1.6C244.2,32.5,246.9,35.2,246.9,38.4z"/>
<path fill="#C5C8FB" d="M269.4,48.7h-25.3c0.4-2.5,2.6-4.4,5.1-4.4c0.1,0,0.1,0,0.2,0c1.3-2.3,3.7-3.9,6.5-3.9
	c3.4,0,6.3,2.3,7.2,5.5c0.7-0.6,1.6-1,2.5-1C267.8,44.9,269.4,46.7,269.4,48.7z"/>
</svg>
