<?xml version="1.0" encoding="utf-8"?>
<!-- Generator: Adobe Illustrator 24.1.3, SVG Export Plug-In . SVG Version: 6.00 Build 0)  -->
<svg version="1.1" id="Layer_1" xmlns="http://www.w3.org/2000/svg" xmlns:xlink="http://www.w3.org/1999/xlink" x="0px" y="0px"
	 viewBox="0 0 343 242" enable-background="new 0 0 343 242" xml:space="preserve">
<path d="M232.7,167.4v1.5c-0.1,0.1-0.2,0.2-0.2,0.3c-0.2,0.2-0.3,0.4-0.5,0.6c-0.1,0.1-0.2,0.2-0.3,0.3c-1.4,1.4-3.2,2.2-5.1,2.3
	l-5.4,0.2l-0.8,0v-0.8l0.8,0l5.4-0.2c1.7-0.1,3.3-0.8,4.6-2.1c0.4-0.4,0.8-0.9,1.2-1.4c0-0.1,0.1-0.1,0.1-0.2
	C232.4,167.8,232.5,167.6,232.7,167.4z"/>
<path fill="#C5C8FB" d="M225.2,71.4h-69c-4.2,0-7.6,3.4-7.6,7.6v103.3c0,4.2,3.4,7.6,7.6,7.6h69c4.2,0,7.6-3.4,7.6-7.6V79
	C232.9,74.8,229.4,71.4,225.2,71.4z"/>
<path fill="#FFFFFF" stroke="#000000" d="M213.4,63.2h-69c-3.8,0-6.9,3.1-6.9,6.9v103.3c0,3.8,3.1,6.9,6.9,6.9h69
	c3.8,0,6.9-3.1,6.9-6.9V70.1C220.4,66.3,217.3,63.2,213.4,63.2z"/>
<path fill="none" stroke="#000000" stroke-miterlimit="10" d="M241.3,79.9c0.8,0,1.4-0.6,1.4-1.4c0-0.8-0.6-1.4-1.4-1.4
	c-0.8,0-1.4,0.6-1.4,1.4C240,79.2,240.6,79.9,241.3,79.9z"/>
<path fill="none" stroke="#000000" stroke-miterlimit="10" d="M120.3,35.3c0.8,0,1.4-0.6,1.4-1.4c0-0.7-0.6-1.4-1.4-1.4
	c-0.8,0-1.4,0.6-1.4,1.4C118.9,34.7,119.5,35.3,120.3,35.3z"/>
<path fill="none" stroke="#000000" stroke-miterlimit="10" d="M98.6,158.4c0.8,0,1.4-0.6,1.4-1.4s-0.6-1.4-1.4-1.4
	c-0.8,0-1.4,0.6-1.4,1.4S97.9,158.4,98.6,158.4z"/>
<path fill="none" stroke="#000000" stroke-linecap="round" stroke-miterlimit="10" d="M110.8,97.8v2.7"/>
<path fill="none" stroke="#000000" stroke-linecap="round" stroke-miterlimit="10" d="M109.5,99.1h2.7"/>
<path fill="none" stroke="#000000" stroke-linecap="round" stroke-miterlimit="10" d="M265.2,129v2.7"/>
<path fill="none" stroke="#000000" stroke-linecap="round" stroke-miterlimit="10" d="M263.9,130.4h2.7"/>
<path fill="none" stroke="#000000" stroke-linecap="round" stroke-miterlimit="10" d="M137.3,46.4v2.9"/>
<path fill="none" stroke="#000000" stroke-linecap="round" stroke-miterlimit="10" d="M135.8,47.8h2.9"/>
<path d="M198.1,97c-0.6-1.4-1.5-2.5-2.8-3.3c-1.2-0.8-2.7-1.2-4.2-1.2c-1.2,0-2.4,0.3-3.5,0.9c-1.1,0.6-2,1.4-2.7,2.4
	c-0.4,0.7-0.8,1.4-1,2.2h-10.6c-0.1-0.3-0.2-0.6-0.3-0.9c-0.1-0.3-0.3-0.6-0.4-0.8l3.8-3.7c1.1,0.6,2.4,1,3.8,1c1,0,2-0.2,2.9-0.6
	c1.4-0.6,2.5-1.5,3.3-2.8c0.8-1.2,1.3-2.7,1.3-4.1c0-1.2-0.3-2.4-0.9-3.5c-0.6-1.1-1.4-2-2.4-2.7c-1.2-0.8-2.7-1.3-4.2-1.3
	c-1,0-2,0.2-2.9,0.6s-1.7,0.9-2.4,1.6c-0.7,0.7-1.3,1.5-1.6,2.4c-0.4,0.9-0.6,1.9-0.6,2.9c0,1,0.2,2,0.6,2.9
	c0.1,0.2,0.2,0.5,0.3,0.7l-3.8,3.8c-1.1-0.6-2.4-0.9-3.6-0.9c-1,0-2,0.2-2.9,0.6c-0.9,0.4-1.7,0.9-2.4,1.6c-0.7,0.7-1.3,1.5-1.6,2.4
	c-0.4,0.9-0.6,1.9-0.6,2.9c0,1,0.2,2,0.6,2.9c0.6,1.3,1.5,2.5,2.7,3.3c1.2,0.8,2.7,1.3,4.2,1.3c1.2,0,2.4-0.3,3.5-0.9
	c1.1-0.6,2-1.4,2.7-2.4c0.5-0.7,0.8-1.4,1-2.2H184c0.1,0.3,0.2,0.6,0.3,0.9c0.1,0.2,0.2,0.5,0.3,0.7l-3.8,3.8
	c-1.1-0.6-2.4-0.9-3.6-0.9c-1,0-2,0.2-2.9,0.6c-0.9,0.4-1.7,0.9-2.4,1.6c-0.7,0.7-1.3,1.5-1.6,2.4c-0.4,0.9-0.6,1.9-0.6,2.9
	c0,1,0.2,2,0.6,2.9c0.6,1.3,1.5,2.5,2.7,3.3c1.1,0.8,2.5,1.2,3.8,1.3c1.4,0.1,2.7-0.2,3.9-0.9c1.2-0.6,2.2-1.6,2.9-2.7
	c0.7-1.2,1.1-2.5,1.1-3.8c0-1-0.2-2-0.6-2.9c-0.1-0.3-0.3-0.6-0.4-0.8l3.8-3.7h0c1.1,0.6,2.4,1,3.8,1c2,0,3.9-0.8,5.3-2.2
	c1.4-1.4,2.2-3.3,2.2-5.3C198.7,98.9,198.5,97.9,198.1,97z M177,84.6c0.3-0.6,0.7-1.1,1.3-1.5c0.5-0.3,1-0.5,1.6-0.6
	c0.6-0.1,1.2,0,1.7,0.3c0.6,0.3,1.2,0.7,1.5,1.3c0.4,0.6,0.6,1.2,0.6,1.9c0,0.5-0.1,0.9-0.3,1.3c-0.3,0.6-0.7,1.1-1.3,1.5
	c-0.6,0.4-1.3,0.6-1.9,0.6c-0.6,0-1.1-0.1-1.6-0.4c-0.5-0.3-0.9-0.6-1.2-1.1c-0.3-0.5-0.5-1-0.6-1.6C176.7,85.7,176.8,85.1,177,84.6
	z M169.3,101.2c-0.2,0.6-0.6,1.1-1.1,1.4c-0.5,0.4-1.1,0.6-1.7,0.7c-0.6,0.1-1.3,0-1.8-0.3c-0.6-0.3-1.1-0.7-1.4-1.2
	c-0.3-0.5-0.5-1-0.6-1.6c-0.1-0.6,0-1.1,0.3-1.7c0.3-0.6,0.7-1.1,1.3-1.5c0.5-0.3,1-0.5,1.6-0.6c0.6-0.1,1.2,0,1.7,0.3
	c0.6,0.3,1.2,0.7,1.5,1.3c0.4,0.6,0.6,1.2,0.6,1.9C169.6,100.3,169.5,100.8,169.3,101.2L169.3,101.2z M180.3,115.2
	c-0.3,0.6-0.7,1.1-1.3,1.5c-0.6,0.4-1.2,0.6-1.9,0.6c-0.5,0-0.9-0.1-1.3-0.3c-0.6-0.3-1.2-0.7-1.5-1.2c-0.4-0.6-0.6-1.3-0.6-2.1
	c0-0.7,0.3-1.5,0.8-2c0.5-0.6,1.1-1,1.8-1.2c0.7-0.2,1.5-0.1,2.2,0.2c0.6,0.3,1.2,0.7,1.5,1.2c0.3,0.5,0.5,1,0.6,1.6
	C180.7,114.1,180.6,114.6,180.3,115.2L180.3,115.2z M194.4,101.2c-0.3,0.6-0.7,1.1-1.3,1.5c-0.6,0.4-1.2,0.6-1.9,0.6
	c-0.6,0-1.1-0.1-1.6-0.4c-0.5-0.3-0.9-0.7-1.2-1.1c-0.3-0.5-0.5-1-0.6-1.6c-0.1-0.6,0-1.1,0.3-1.7c0.3-0.6,0.7-1.1,1.3-1.5
	c0.5-0.3,1-0.5,1.6-0.6c0.6-0.1,1.2,0,1.7,0.3c0.6,0.3,1.2,0.7,1.5,1.3c0.4,0.6,0.6,1.2,0.6,1.9
	C194.7,100.3,194.6,100.8,194.4,101.2L194.4,101.2z"/>
<path fill="#C4C4C4" stroke="#000000" d="M190.2,142.2h-22.9c-5,0-9,4-9,9c0,4.9,4,9,9,9h22.9c5,0,9-4,9-9
	C199.2,146.2,195.2,142.2,190.2,142.2z"/>
<path fill="#FFFFFF" stroke="#000000" d="M167.4,159.9c4.9,0,8.9-4,8.9-8.9c0-4.9-4-8.8-8.9-8.8c-4.9,0-8.9,4-8.9,8.8
	C158.5,155.9,162.5,159.9,167.4,159.9z"/>
<path fill="none" stroke="#000000" stroke-miterlimit="10" d="M96.3,211.5h49.4"/>
<path fill="none" stroke="#000000" stroke-miterlimit="10" d="M73,216.7h49.4"/>
<path fill="#A883F8" d="M146.7,207.6h-44.4c0.4-2.1,1.5-4,3.1-5.3c1.6-1.4,3.7-2.1,5.9-2.1c0.1,0,0.2,0,0.3,0c1.3-2.2,3.2-4,5.5-5.2
	c2.3-1.2,4.9-1.6,7.4-1.4c2.6,0.3,5,1.3,7,3c2,1.6,3.4,3.8,4.2,6.3c0.9-0.9,2.1-1.4,3.4-1.6c1.3-0.2,2.6-0.1,3.7,0.5
	c1.2,0.5,2.2,1.3,2.9,2.4C146.3,205.1,146.7,206.3,146.7,207.6L146.7,207.6z"/>
<path fill="none" stroke="#000000" stroke-linecap="round" stroke-linejoin="round" d="M134.2,211.5H85.9c0.4-2.3,1.6-4.3,3.4-5.8
	c1.8-1.5,4-2.3,6.4-2.3c0.1,0,0.3,0,0.4,0c1.4-2.4,3.4-4.4,5.9-5.7c2.5-1.3,5.3-1.8,8.1-1.5c2.8,0.3,5.4,1.4,7.6,3.2
	c2.2,1.8,3.7,4.2,4.5,6.8c1-0.9,2.3-1.6,3.7-1.8s2.8-0.1,4.1,0.5c1.3,0.6,2.4,1.5,3.1,2.6C133.8,208.8,134.2,210.1,134.2,211.5
	L134.2,211.5z"/>
<path fill="#C5C8FB" d="M246.7,38.7h-40.9c0.7-3.8,4.1-6.7,8.3-6.7c0.1,0,0.2,0,0.3,0c2.1-3.6,6-6,10.5-6c5.5,0,10.1,3.6,11.6,8.4
	c1.1-1,2.5-1.6,4.1-1.6C244,32.8,246.7,35.5,246.7,38.7z"/>
<path fill="#C5C8FB" d="M269.3,49.1H244c0.4-2.5,2.6-4.4,5.1-4.4c0.1,0,0.1,0,0.2,0c1.3-2.3,3.7-3.9,6.5-3.9c3.4,0,6.3,2.3,7.2,5.5
	c0.7-0.6,1.6-1,2.5-1C267.6,45.3,269.3,47,269.3,49.1z"/>
</svg>
