<svg width="343" height="242" viewBox="0 0 343 242" fill="none" xmlns="http://www.w3.org/2000/svg">
<path d="M191.028 123.587H134.851C133.826 123.587 132.995 124.411 132.995 125.427V167.888C132.995 168.904 133.826 169.728 134.851 169.728H191.028C192.053 169.728 192.884 168.904 192.884 167.888V125.427C192.884 124.411 192.053 123.587 191.028 123.587Z" fill="#C3C5FF"/>
<path fill-rule="evenodd" clip-rule="evenodd" d="M134.852 123.684C133.88 123.684 133.093 124.465 133.093 125.428V167.889C133.093 168.851 133.88 169.632 134.852 169.632H191.028C191.999 169.632 192.787 168.851 192.787 167.889V125.428C192.787 124.465 191.999 123.684 191.028 123.684H134.852ZM132.897 125.428C132.897 124.358 133.772 123.49 134.852 123.49H191.028C192.107 123.49 192.982 124.358 192.982 125.428V167.889C192.982 168.958 192.107 169.826 191.028 169.826H134.852C133.772 169.826 132.897 168.958 132.897 167.889V125.428Z" fill="#C2C6FF"/>
<path d="M157.924 61.1582C157.879 61.1582 157.834 61.1494 157.793 61.1323C157.751 61.1152 157.713 61.09 157.681 61.0584C157.649 61.0267 157.624 60.9891 157.606 60.9478C157.589 60.9064 157.58 60.8621 157.58 60.8173V57.7335C157.587 57.6477 157.626 57.5676 157.689 57.5092C157.753 57.4507 157.836 57.4182 157.923 57.4182C158.01 57.4182 158.093 57.4507 158.157 57.5092C158.221 57.5676 158.26 57.6477 158.266 57.7335V60.8173C158.266 60.862 158.258 60.9063 158.241 60.9476C158.224 60.989 158.198 61.0266 158.167 61.0583C158.135 61.09 158.097 61.1151 158.055 61.1323C158.014 61.1494 157.969 61.1582 157.924 61.1582Z" fill="black"/>
<path fill-rule="evenodd" clip-rule="evenodd" d="M157.923 57.6118C157.886 57.6118 157.85 57.6258 157.822 57.6511C157.796 57.675 157.78 57.7073 157.776 57.7421V60.8172C157.776 60.8365 157.779 60.8556 157.787 60.8735C157.794 60.8914 157.805 60.9076 157.819 60.9213C157.833 60.9349 157.849 60.9458 157.867 60.9532C157.885 60.9606 157.905 60.9644 157.924 60.9644C157.943 60.9644 157.963 60.9606 157.98 60.9533C157.998 60.9459 158.014 60.9351 158.028 60.9215C158.042 60.908 158.052 60.8918 158.06 60.8741C158.067 60.8564 158.071 60.8374 158.071 60.8183L158.071 60.8172V57.7421C158.067 57.7073 158.05 57.675 158.024 57.6511C157.997 57.6258 157.961 57.6118 157.923 57.6118ZM157.556 57.367C157.656 57.2753 157.787 57.2244 157.923 57.2244C158.059 57.2244 158.19 57.2753 158.29 57.367C158.39 57.4587 158.451 57.5843 158.461 57.7187L158.462 57.726V60.8167" fill="black"/>
<path d="M159.829 59.2748C159.829 59.3195 159.821 59.3638 159.804 59.4051C159.787 59.4465 159.761 59.4841 159.73 59.5157C159.698 59.5474 159.66 59.5726 159.618 59.5897C159.577 59.6069 159.532 59.6157 159.487 59.6157H156.376C156.29 59.6092 156.209 59.5706 156.15 59.5076C156.091 59.4445 156.058 59.3617 156.058 59.2758C156.058 59.1898 156.091 59.107 156.15 59.0439C156.209 58.9809 156.29 58.9423 156.376 58.9358H159.487C159.578 58.9358 159.665 58.9715 159.729 59.0351C159.793 59.0987 159.829 59.1849 159.829 59.2748Z" fill="black"/>
<path fill-rule="evenodd" clip-rule="evenodd" d="M156.369 58.7419H159.488C159.63 58.7419 159.767 58.7981 159.868 58.898C159.968 58.9978 160.025 59.133 160.025 59.2741M156.386 59.1294C156.351 59.1334 156.318 59.1497 156.294 59.1755C156.268 59.2027 156.254 59.2385 156.254 59.2756C156.254 59.3127 156.268 59.3485 156.294 59.3757C156.318 59.4015 156.351 59.4179 156.386 59.4219H159.488C159.507 59.4219 159.526 59.4181 159.544 59.4107C159.562 59.4034 159.578 59.3926 159.592 59.379C159.605 59.3654 159.616 59.3493 159.623 59.3316C159.631 59.3139 159.634 59.2949 159.634 59.2758L159.634 59.2746C159.634 59.2361 159.619 59.1992 159.591 59.1719C159.564 59.1447 159.527 59.1294 159.488 59.1294H156.386Z" fill="black"/>
<path fill-rule="evenodd" clip-rule="evenodd" d="M178.278 178.256C177.649 178.256 177.139 178.761 177.139 179.385C177.139 180.009 177.649 180.514 178.278 180.514C178.907 180.514 179.417 180.009 179.417 179.385C179.417 178.761 178.907 178.256 178.278 178.256ZM176.357 179.385C176.357 178.333 177.217 177.481 178.278 177.481C179.339 177.481 180.199 178.333 180.199 179.385C180.199 180.437 179.339 181.289 178.278 181.289C177.217 181.289 176.357 180.437 176.357 179.385Z" fill="black"/>
<path fill-rule="evenodd" clip-rule="evenodd" d="M123.302 150.867C122.673 150.867 122.163 151.373 122.163 151.996C122.163 152.62 122.673 153.126 123.302 153.126C123.931 153.126 124.441 152.62 124.441 151.996C124.441 151.373 123.931 150.867 123.302 150.867ZM121.381 151.996C121.381 150.945 122.241 150.092 123.302 150.092C124.363 150.092 125.223 150.945 125.223 151.996C125.223 153.048 124.363 153.9 123.302 153.9C122.241 153.9 121.381 153.048 121.381 151.996Z" fill="black"/>
<path d="M250.813 78.1987H140.731V97.8292H250.813V78.1987Z" fill="#C3C5FF"/>
<path fill-rule="evenodd" clip-rule="evenodd" d="M140.634 78.1987C140.634 78.1452 140.678 78.1018 140.732 78.1018H250.814C250.867 78.1018 250.911 78.1452 250.911 78.1987V97.8291C250.911 97.8826 250.867 97.926 250.814 97.926H140.732C140.678 97.926 140.634 97.8826 140.634 97.8291V78.1987ZM140.829 78.2955V97.7323H250.716V78.2955H140.829Z" fill="#C2C6FF"/>
<path d="M250.813 98.395H140.731V162.652H250.813V98.395Z" fill="white"/>
<path fill-rule="evenodd" clip-rule="evenodd" d="M140.049 78.4875C140.049 78.2736 140.224 78.1001 140.44 78.1001H250.526C250.742 78.1001 250.917 78.2736 250.917 78.4875V161.951C250.917 162.15 250.877 162.347 250.8 162.531C250.723 162.715 250.61 162.883 250.468 163.023C250.326 163.164 250.158 163.276 249.972 163.352C249.786 163.428 249.587 163.468 249.386 163.468H141.579C141.378 163.468 141.179 163.428 140.994 163.352C140.808 163.276 140.639 163.164 140.497 163.023C140.355 162.883 140.242 162.715 140.166 162.531C140.089 162.347 140.049 162.15 140.049 161.951V78.4875ZM140.831 78.8749V161.951C140.831 162.048 140.85 162.145 140.888 162.235C140.925 162.325 140.98 162.407 141.05 162.476C141.119 162.544 141.202 162.599 141.293 162.636C141.384 162.674 141.481 162.693 141.579 162.693H249.386C249.485 162.693 249.582 162.674 249.673 162.636C249.764 162.599 249.846 162.544 249.916 162.476C249.985 162.407 250.04 162.325 250.078 162.235C250.116 162.145 250.135 162.048 250.135 161.951V78.8749H140.831Z" fill="black"/>
<path fill-rule="evenodd" clip-rule="evenodd" d="M250.526 98.3306H140.44V97.5558H250.526V98.3306Z" fill="black"/>
<path fill-rule="evenodd" clip-rule="evenodd" d="M150.07 87.0126C148.99 87.0126 148.114 87.8808 148.114 88.9517C148.114 90.0226 148.99 90.8907 150.07 90.8907C151.15 90.8907 152.026 90.0226 152.026 88.9517C152.026 87.8808 151.15 87.0126 150.07 87.0126ZM147.332 88.9517C147.332 87.4528 148.558 86.2378 150.07 86.2378C151.582 86.2378 152.808 87.4528 152.808 88.9517C152.808 90.4505 151.582 91.6655 150.07 91.6655C148.558 91.6655 147.332 90.4505 147.332 88.9517Z" fill="black"/>
<path fill-rule="evenodd" clip-rule="evenodd" d="M160.59 86.8693C159.51 86.8693 158.634 87.7375 158.634 88.8083C158.634 89.8792 159.51 90.7474 160.59 90.7474C161.67 90.7474 162.546 89.8792 162.546 88.8083C162.546 87.7375 161.67 86.8693 160.59 86.8693ZM157.852 88.8083C157.852 87.3095 159.078 86.0945 160.59 86.0945C162.102 86.0945 163.328 87.3095 163.328 88.8083C163.328 90.3072 162.102 91.5222 160.59 91.5222C159.078 91.5222 157.852 90.3072 157.852 88.8083Z" fill="black"/>
<path fill-rule="evenodd" clip-rule="evenodd" d="M171.11 86.8693C170.03 86.8693 169.154 87.7375 169.154 88.8083C169.154 89.8792 170.03 90.7474 171.11 90.7474C172.19 90.7474 173.066 89.8792 173.066 88.8083C173.066 87.7375 172.19 86.8693 171.11 86.8693ZM168.372 88.8083C168.372 87.3095 169.598 86.0945 171.11 86.0945C172.622 86.0945 173.848 87.3095 173.848 88.8083C173.848 90.3072 172.622 91.5222 171.11 91.5222C169.598 91.5222 168.372 90.3072 168.372 88.8083Z" fill="black"/>
<path d="M221.593 140.062V130.7C221.593 127.249 222.976 123.939 225.437 121.499C227.899 119.059 231.238 117.688 234.719 117.688C238.2 117.688 241.539 119.059 244.001 121.499C246.462 123.939 247.845 127.249 247.845 130.7V140.062H255.287V131.296C255.287 125.889 253.12 120.704 249.263 116.88C245.405 113.057 240.174 110.909 234.719 110.909C229.264 110.909 224.033 113.057 220.176 116.88C216.318 120.704 214.151 125.889 214.151 131.296V140.062H221.593Z" fill="white"/>
<path fill-rule="evenodd" clip-rule="evenodd" d="M219.899 116.606C223.83 112.709 229.161 110.521 234.719 110.521C240.278 110.521 245.609 112.709 249.539 116.606C253.469 120.502 255.678 125.786 255.678 131.296V140.061C255.678 140.275 255.503 140.449 255.287 140.449H247.845C247.629 140.449 247.454 140.275 247.454 140.061V130.699C247.454 127.351 246.113 124.14 243.724 121.773C241.336 119.405 238.097 118.075 234.719 118.075C231.342 118.075 228.102 119.405 225.714 121.773C223.326 124.14 221.984 127.351 221.984 130.699V140.061C221.984 140.275 221.809 140.449 221.593 140.449H214.152C213.936 140.449 213.761 140.275 213.761 140.061V131.296C213.761 125.786 215.969 120.502 219.899 116.606ZM234.719 111.295C229.368 111.295 224.236 113.403 220.452 117.153C216.668 120.904 214.543 125.991 214.543 131.296V139.674H221.202V130.699C221.202 127.146 222.626 123.738 225.161 121.225C227.696 118.712 231.134 117.3 234.719 117.3C238.304 117.3 241.742 118.712 244.277 121.225C246.812 123.738 248.236 127.146 248.236 130.699V139.674H254.896V131.296C254.896 125.991 252.77 120.904 248.986 117.153C245.202 113.403 240.07 111.295 234.719 111.295Z" fill="black"/>
<path d="M256.214 140.267H213.223C211.395 140.267 209.914 141.735 209.914 143.546V174.588C209.914 176.399 211.395 177.868 213.223 177.868H256.214C258.041 177.868 259.523 176.399 259.523 174.588V143.546C259.523 141.735 258.041 140.267 256.214 140.267Z" fill="#AD79FF"/>
<path fill-rule="evenodd" clip-rule="evenodd" d="M213.222 140.654C211.611 140.654 210.305 141.949 210.305 143.546V174.588C210.305 176.185 211.611 177.48 213.222 177.48H256.214C257.825 177.48 259.132 176.185 259.132 174.588V143.546C259.132 141.949 257.825 140.654 256.214 140.654H213.222ZM209.523 143.546C209.523 141.521 211.179 139.879 213.222 139.879H256.214C258.257 139.879 259.913 141.521 259.913 143.546V174.588C259.913 176.613 258.257 178.255 256.214 178.255H213.222C211.179 178.255 209.523 176.613 209.523 174.588V143.546Z" fill="black"/>
<path d="M240.087 156.173C240.087 157.072 239.858 157.956 239.42 158.744C238.981 159.531 238.349 160.195 237.582 160.675V164.448C237.582 165.201 237.28 165.922 236.743 166.455C236.206 166.987 235.478 167.286 234.719 167.286C233.959 167.286 233.231 166.987 232.694 166.455C232.157 165.922 231.856 165.201 231.856 164.448V160.675C231.066 160.181 230.42 159.492 229.981 158.675C229.542 157.859 229.326 156.943 229.353 156.018C229.38 155.093 229.65 154.191 230.136 153.402C230.623 152.612 231.308 151.961 232.125 151.514C232.943 151.067 233.863 150.839 234.797 150.853C235.73 150.866 236.644 151.121 237.448 151.591C238.251 152.061 238.918 152.731 239.38 153.535C239.843 154.338 240.087 155.247 240.087 156.173Z" fill="white"/>
<path fill-rule="evenodd" clip-rule="evenodd" d="M234.791 151.24C233.925 151.228 233.072 151.439 232.314 151.854C231.556 152.268 230.921 152.871 230.47 153.604C230.019 154.336 229.769 155.172 229.743 156.03C229.718 156.887 229.919 157.737 230.326 158.494C230.733 159.251 231.332 159.89 232.064 160.347C232.178 160.418 232.246 160.542 232.246 160.675V164.448C232.246 165.098 232.507 165.721 232.971 166.181C233.434 166.641 234.063 166.899 234.719 166.899C235.374 166.899 236.003 166.641 236.466 166.181C236.93 165.721 237.191 165.098 237.191 164.448V160.675C237.191 160.542 237.259 160.418 237.373 160.347C238.085 159.903 238.671 159.287 239.077 158.557C239.483 157.827 239.696 157.007 239.696 156.173L240.087 156.173L239.696 156.173C239.696 155.315 239.47 154.472 239.041 153.727C238.612 152.982 237.994 152.361 237.249 151.925C236.503 151.489 235.656 151.253 234.791 151.24ZM240.477 156.173C240.477 155.18 240.216 154.205 239.72 153.343C239.223 152.481 238.508 151.762 237.646 151.258C236.784 150.753 235.803 150.48 234.802 150.466C233.801 150.451 232.813 150.696 231.936 151.175C231.06 151.655 230.324 152.353 229.803 153.2C229.281 154.047 228.991 155.015 228.962 156.007C228.933 156.999 229.165 157.982 229.636 158.858C230.073 159.67 230.7 160.365 231.465 160.884V164.448C231.465 165.304 231.808 166.124 232.418 166.729C233.028 167.334 233.856 167.674 234.719 167.674C235.581 167.674 236.409 167.334 237.019 166.729C237.629 166.124 237.972 165.304 237.972 164.448V160.884C238.714 160.381 239.327 159.713 239.762 158.931C240.232 158.087 240.478 157.138 240.477 156.173" fill="black"/>
<path d="M176.276 122.844C175.973 122.323 175.473 121.943 174.886 121.787C174.3 121.631 173.676 121.713 173.15 122.013L168.122 124.892V119.135C168.104 118.544 167.855 117.983 167.427 117.571C167 117.159 166.427 116.929 165.83 116.929C165.234 116.929 164.661 117.159 164.233 117.571C163.806 117.983 163.556 118.544 163.539 119.135V124.892L158.511 122.013C158.25 121.864 157.963 121.767 157.664 121.728C157.366 121.69 157.063 121.709 156.772 121.787C156.482 121.864 156.209 121.997 155.971 122.179C155.732 122.36 155.532 122.587 155.381 122.845C155.231 123.103 155.133 123.389 155.094 123.684C155.055 123.98 155.075 124.28 155.153 124.569C155.231 124.857 155.365 125.127 155.548 125.363C155.732 125.6 155.96 125.798 156.221 125.947L161.247 128.826L156.219 131.704C155.958 131.854 155.73 132.052 155.547 132.289C155.363 132.526 155.229 132.796 155.151 133.084C155.073 133.372 155.054 133.673 155.093 133.968C155.132 134.264 155.23 134.549 155.38 134.808C155.531 135.066 155.731 135.292 155.97 135.474C156.209 135.655 156.481 135.789 156.772 135.866C157.063 135.943 157.366 135.963 157.664 135.924C157.963 135.885 158.25 135.788 158.511 135.639L163.541 132.76V138.515C163.532 138.819 163.585 139.122 163.696 139.405C163.807 139.688 163.974 139.947 164.188 140.165C164.402 140.383 164.657 140.556 164.94 140.674C165.222 140.793 165.526 140.854 165.832 140.854C166.139 140.854 166.442 140.793 166.725 140.674C167.007 140.556 167.263 140.383 167.477 140.165C167.69 139.947 167.858 139.688 167.969 139.405C168.08 139.122 168.132 138.819 168.124 138.515V132.76L173.152 135.639C173.677 135.924 174.294 135.994 174.871 135.834C175.448 135.674 175.938 135.296 176.238 134.782C176.537 134.268 176.622 133.658 176.474 133.083C176.325 132.508 175.956 132.013 175.444 131.704L170.414 128.826L175.444 125.947C175.704 125.798 175.932 125.599 176.115 125.362C176.297 125.125 176.431 124.855 176.509 124.567C176.586 124.278 176.605 123.978 176.565 123.682C176.525 123.387 176.427 123.102 176.276 122.844Z" fill="#6F4AE7"/>
<path d="M205.606 122.844C205.302 122.323 204.802 121.943 204.216 121.787C203.63 121.631 203.005 121.713 202.479 122.013L197.451 124.892V119.135C197.434 118.544 197.185 117.983 196.757 117.571C196.329 117.159 195.756 116.929 195.16 116.929C194.563 116.929 193.991 117.159 193.563 117.571C193.135 117.983 192.886 118.544 192.869 119.135V124.892L187.839 122.013C187.578 121.856 187.288 121.752 186.986 121.707C186.684 121.662 186.376 121.678 186.08 121.753C185.784 121.828 185.506 121.961 185.263 122.144C185.019 122.327 184.815 122.556 184.662 122.818C184.51 123.08 184.411 123.37 184.373 123.67C184.335 123.971 184.358 124.276 184.44 124.567C184.522 124.859 184.663 125.131 184.853 125.368C185.043 125.605 185.278 125.802 185.546 125.947L190.576 128.826L185.546 131.704C185.035 132.013 184.665 132.508 184.517 133.083C184.368 133.658 184.453 134.268 184.752 134.782C185.052 135.296 185.543 135.674 186.119 135.834C186.696 135.994 187.313 135.924 187.839 135.639L192.869 132.76V138.515C192.86 138.819 192.912 139.122 193.023 139.405C193.134 139.688 193.302 139.947 193.515 140.165C193.729 140.383 193.985 140.556 194.267 140.674C194.55 140.793 194.853 140.854 195.16 140.854C195.466 140.854 195.77 140.793 196.052 140.674C196.335 140.556 196.591 140.383 196.804 140.165C197.018 139.947 197.185 139.688 197.296 139.405C197.407 139.122 197.46 138.819 197.451 138.515V132.76L202.479 135.639C203.004 135.924 203.621 135.994 204.198 135.834C204.775 135.674 205.266 135.296 205.565 134.782C205.865 134.268 205.949 133.658 205.801 133.083C205.653 132.508 205.283 132.013 204.771 131.704L199.743 128.826L204.765 125.947C205.292 125.646 205.676 125.15 205.834 124.568C205.991 123.986 205.909 123.366 205.606 122.844Z" fill="#6F4AE7"/>
<path fill-rule="evenodd" clip-rule="evenodd" d="M267.213 154.189C267.359 154.032 267.606 154.022 267.765 154.167L273.928 159.808C274.087 159.953 274.097 160.199 273.95 160.356C273.804 160.513 273.557 160.523 273.398 160.378L267.235 154.737C267.076 154.592 267.066 154.347 267.213 154.189Z" fill="black"/>
<path fill-rule="evenodd" clip-rule="evenodd" d="M271.736 145.656C271.784 145.447 271.993 145.316 272.203 145.364L280.387 147.196C280.598 147.243 280.73 147.451 280.683 147.659C280.635 147.868 280.426 147.999 280.215 147.952L272.031 146.119C271.821 146.072 271.688 145.865 271.736 145.656Z" fill="black"/>
<path fill-rule="evenodd" clip-rule="evenodd" d="M280.108 133.325C280.172 133.53 280.057 133.747 279.851 133.81L271.839 136.28C271.633 136.344 271.414 136.229 271.35 136.025C271.286 135.821 271.401 135.604 271.607 135.54L279.619 133.07C279.825 133.007 280.044 133.121 280.108 133.325Z" fill="black"/>
<path fill-rule="evenodd" clip-rule="evenodd" d="M272.379 121.198C272.538 121.344 272.547 121.589 272.401 121.746L266.71 127.853C266.564 128.011 266.317 128.02 266.158 127.875C266 127.73 265.99 127.485 266.136 127.328L271.827 121.22C271.973 121.063 272.22 121.053 272.379 121.198Z" fill="black"/>
<path d="M284.305 59.6237H216.035C217.172 53.107 222.916 48.1898 229.856 48.1898C230.036 48.1898 230.215 48.1898 230.395 48.1898C233.865 42.0878 240.447 38 247.986 38C257.14 38 264.859 44.0428 267.312 52.2776C269.107 50.6188 271.5 49.6116 274.133 49.6116C279.757 49.6116 284.305 54.1141 284.305 59.6237Z" fill="#C3C5FF"/>
<path d="M322 76.4483H279.638C280.356 72.4198 283.946 69.3391 288.194 69.3391C288.314 69.3391 288.434 69.3391 288.553 69.3391C290.707 65.5476 294.776 63.0001 299.503 63.0001C305.187 63.0001 309.974 66.7324 311.529 71.8866C312.666 70.8795 314.162 70.2278 315.777 70.2278C319.188 70.287 322 73.0714 322 76.4483Z" fill="#C3C5FF"/>
<path d="M137.466 196.48H46.9001C48.437 187.857 56.0648 181.262 65.2295 181.262C65.4572 181.262 65.6849 181.262 65.9695 181.262C70.5804 173.202 79.2897 167.735 89.3083 167.735C101.433 167.735 111.679 175.739 114.981 186.673C117.372 184.475 120.559 183.179 124.089 183.179C131.432 183.179 137.466 189.153 137.466 196.48Z" fill="#A883F8"/>
<path d="M113.309 204.258H21L21.1707 203.302C22.8211 194.142 30.8455 187.511 40.2926 187.511C40.3495 187.511 40.4633 187.511 40.5203 187.511C45.4715 179.193 54.5202 174.023 64.3088 174.023C76.0323 174.023 86.5607 181.498 90.3737 192.344C92.8778 190.433 95.894 189.421 99.0241 189.421C106.878 189.421 113.252 195.716 113.252 203.471V204.258H113.309ZM22.935 202.628H111.658C111.26 196.165 105.74 190.995 99.081 190.995C95.894 190.995 92.8778 192.175 90.5444 194.311L89.577 195.154L89.1786 193.917C85.9347 183.127 75.6908 175.597 64.2519 175.597C54.8617 175.597 46.2113 180.598 41.6016 188.691L41.3739 189.14H40.8617C40.6341 189.14 40.4064 189.14 40.1788 189.14C31.9268 189.084 24.813 194.704 22.935 202.628Z" fill="black"/>
<path d="M116.559 56.4642L120.09 75.1146C122.102 85.6369 120.624 96.5235 115.879 106.141C111.263 115.603 103.781 123.392 94.4822 128.416C94.4042 128.455 94.3166 128.472 94.2295 128.463C83.7381 127.129 73.9292 122.57 66.1757 115.424C58.2429 108.171 52.8916 98.5583 50.9245 88.0283L47.396 69.3779C47.3762 69.2744 47.396 69.1674 47.4517 69.0778C47.5074 68.9882 47.5948 68.9226 47.6968 68.8938C51.2405 67.8533 54.3181 65.6376 56.4163 62.6161C58.5145 59.5946 59.5065 55.9501 59.2269 52.2901C59.2157 52.1871 59.2433 52.0837 59.3044 51.9998C59.3656 51.9159 59.4559 51.8575 59.5578 51.8359L98.8018 44.5096C98.906 44.4892 99.0141 44.5087 99.1045 44.5641C99.1949 44.6195 99.2608 44.7067 99.2892 44.8084C100.365 48.3229 102.622 51.3645 105.684 53.4254C108.745 55.4863 112.425 56.4419 116.111 56.1325C116.213 56.1251 116.315 56.1545 116.397 56.2154C116.479 56.2763 116.537 56.3646 116.559 56.4642Z" fill="white"/>
<path fill-rule="evenodd" clip-rule="evenodd" d="M98.6855 45.3006L59.9582 52.4998C60.2096 56.2121 59.1845 59.9011 57.0469 62.9662C54.9108 66.0292 51.7911 68.2865 48.1962 69.3736L51.6782 87.7004C53.612 98.0075 58.8724 107.417 66.6705 114.517L66.6722 114.518C74.2809 121.501 83.9027 125.961 94.1956 127.277C103.315 122.357 110.652 114.742 115.182 105.496L115.184 105.494C119.848 96.0798 121.301 85.4237 119.323 75.124L119.323 75.123L115.841 56.8088C112.091 57.086 108.355 56.102 105.241 54.014C102.123 51.9239 99.8129 48.8522 98.6855 45.3006ZM116.398 56.5347L116.982 56.407C116.929 56.1695 116.791 55.9587 116.594 55.8134C116.397 55.6681 116.153 55.5979 115.908 55.6156L115.901 55.6161C112.371 55.9112 108.845 54.9997 105.912 53.0338C102.981 51.0689 100.82 48.1696 99.7883 44.8195C99.7185 44.5786 99.5603 44.372 99.3445 44.2403C99.1271 44.1075 98.8671 44.0605 98.6163 44.1086C98.6153 44.1088 98.6142 44.109 98.6131 44.1092L59.5695 51.3671C59.5647 51.368 59.56 51.369 59.5553 51.37C59.3089 51.4219 59.0907 51.5624 58.943 51.7643C58.7975 51.9631 58.7306 52.2075 58.7545 52.4515C59.0203 55.9402 58.0699 59.4138 56.0614 62.2938C54.0518 65.1754 51.1044 67.2887 47.7105 68.2815C47.4669 68.351 47.258 68.5077 47.1247 68.7213C46.9909 68.9356 46.943 69.1917 46.9904 69.4392C46.9905 69.4396 46.9905 69.4399 46.9906 69.4402L50.5011 87.9164C50.5011 87.9166 50.5011 87.9168 50.5012 87.917C52.4822 98.4754 57.8708 108.114 65.8589 115.387C73.6652 122.551 83.5407 127.121 94.1033 128.459C94.1097 128.46 94.1161 128.46 94.1225 128.461C94.3224 128.48 94.5236 128.442 94.7026 128.352C94.7074 128.349 94.7121 128.347 94.7168 128.344C104.079 123.308 111.612 115.499 116.259 106.014C121.038 96.3699 122.525 85.4539 120.5 74.9031L116.986 56.4253L116.398 56.5347ZM48.1668 69.2189C48.1668 69.2193 48.1669 69.2198 48.167 69.2202L48.1668 69.2189Z" fill="black"/>
<path d="M110.541 102.893C106.734 110.591 100.565 116.928 92.8987 121.016C92.8352 121.049 92.7629 121.063 92.6914 121.055C84.035 119.977 75.9397 116.271 69.5403 110.456C62.9916 104.553 58.5753 96.7246 56.9556 88.1494L54.0452 72.9731C54.0291 72.8887 54.0457 72.8015 54.0919 72.7285C54.138 72.6555 54.2102 72.6021 54.2944 72.5786C57.2161 71.7315 59.7532 69.9285 61.483 67.4701C63.2129 65.0117 64.0308 62.0464 63.8006 59.0686C63.793 58.9839 63.8177 58.8995 63.8698 58.8315C63.9219 58.7636 63.9978 58.717 64.0829 58.7006L78.7311 56.0009L96.4518 52.739C96.5375 52.7238 96.6258 52.74 96.7 52.7845C96.7742 52.829 96.8292 52.8987 96.8543 52.9804C97.7423 55.8378 99.603 58.3105 102.126 59.9858C104.649 61.6611 107.682 62.4378 110.719 62.1863C110.808 62.1786 110.897 62.2049 110.968 62.2596C111.038 62.3144 111.084 62.3935 111.097 62.4807L114.007 77.657C115.666 86.215 114.45 95.0697 110.541 102.893Z" fill="#6F4AE7"/>
<path d="M93.5297 121.017C93.4652 121.05 93.3917 121.063 93.3191 121.055C84.5221 119.977 76.2953 116.273 69.792 110.46C63.1381 104.559 58.6502 96.736 57.0029 88.1655L54.0452 72.9936C54.0289 72.9093 54.0458 72.8221 54.0927 72.7491C54.1396 72.6762 54.213 72.6227 54.2986 72.5992C57.2677 71.7524 59.846 69.9499 61.6039 67.4922C63.3618 65.0346 64.1931 62.0702 63.9591 59.0932C63.9514 59.0086 63.9765 58.9242 64.0294 58.8563C64.0824 58.7884 64.1595 58.7417 64.246 58.7253L79.132 56.0265L80.4018 56.1854L93.5297 121.017Z" fill="#5D42D1"/>
<path d="M99.2696 78.8284C99.2365 78.8801 99.2034 78.9318 99.1672 78.9807L87.663 96.1842C87.4367 96.5228 87.1427 96.8155 86.7978 97.0456C86.453 97.2757 86.064 97.4386 85.6532 97.525C85.2424 97.6115 84.8178 97.6198 84.4036 97.5495C83.9895 97.4792 83.5938 97.3316 83.2394 97.1152L75.4726 92.3826C74.7566 91.9461 74.2514 91.256 74.068 90.4639C73.8846 89.6719 74.0381 88.8427 74.4946 88.1586L74.5488 88.081C74.7748 87.7425 75.0685 87.4499 75.4131 87.2199C75.7577 86.9898 76.1464 86.8269 76.5569 86.7405C76.9675 86.654 77.3919 86.6457 77.8058 86.7159C78.2198 86.7862 78.6151 86.9337 78.9693 87.15L83.7209 90.0436C83.8051 90.0956 83.9076 90.1137 84.0057 90.0938C84.1038 90.0738 84.1897 90.0176 84.2445 89.9373L93.7687 75.6934C93.9787 75.3377 94.2612 75.0258 94.5994 74.7759C94.9377 74.5261 95.3248 74.3434 95.7381 74.2387C96.1515 74.1339 96.5826 74.1092 97.006 74.166C97.4295 74.2228 97.8368 74.3599 98.2039 74.5693C98.571 74.7787 98.8905 75.0562 99.1436 75.3853C99.3967 75.7144 99.5782 76.0886 99.6775 76.4858C99.7769 76.883 99.7919 77.2951 99.7219 77.6979C99.6518 78.1007 99.498 78.4861 99.2696 78.8313V78.8284Z" fill="white"/>
<path fill-rule="evenodd" clip-rule="evenodd" d="M96.5269 74.67C96.2335 74.6286 95.9348 74.6466 95.6484 74.7229C95.362 74.7991 95.0937 74.9321 94.8593 75.1139C94.6249 75.2958 94.4292 75.5228 94.2837 75.7817C94.2758 75.7956 94.2677 75.8093 94.2591 75.8228L85.0713 90.2554L84.3373 89.7854L85.0669 90.2623C84.8882 90.5372 84.6082 90.73 84.2881 90.7983C83.9691 90.8663 83.6363 90.8052 83.3621 90.6284L78.7792 87.697C78.534 87.5397 78.2602 87.4324 77.9736 87.3813C77.687 87.3302 77.3931 87.3362 77.1089 87.3991C76.8246 87.462 76.5554 87.5805 76.3168 87.7478C76.0782 87.9151 75.8749 88.1279 75.7183 88.3741C75.7152 88.3791 75.7119 88.3841 75.7087 88.389L75.6618 88.4595C75.3489 88.9561 75.2441 89.5566 75.3706 90.1304C75.4977 90.7068 75.8477 91.2091 76.3437 91.5268C76.3438 91.5268 76.3437 91.5267 76.3437 91.5268L83.8368 96.3225C84.0823 96.48 84.3563 96.5873 84.6432 96.6385C84.9301 96.6896 85.2243 96.6836 85.5088 96.6207C85.7934 96.5578 86.0628 96.4392 86.3016 96.2719C86.5405 96.1045 86.7442 95.8915 86.9009 95.6452L97.9989 78.2134C98.0062 78.2021 98.0137 78.1908 98.0214 78.1798C98.0369 78.1579 98.054 78.1304 98.0885 78.0737C98.0984 78.0575 98.1088 78.0417 98.1196 78.0262C98.2646 77.7852 98.3628 77.5186 98.4088 77.2406C98.4574 76.9474 98.4469 76.6475 98.3781 76.3584C98.3093 76.0693 98.1835 75.797 98.0081 75.5574C97.8328 75.3179 97.6114 75.1159 97.357 74.9635C97.1026 74.8111 96.8204 74.7113 96.5269 74.67ZM99.4574 79.1685L88.3691 96.5851C88.0892 97.0249 87.7256 97.4051 87.2992 97.7039C86.8727 98.0028 86.3917 98.2144 85.8837 98.3267C85.3757 98.439 84.8506 98.4498 84.3384 98.3584C83.8264 98.2672 83.3374 98.0756 82.8992 97.7948M82.8986 97.7944L75.4068 92.9994C74.5215 92.4325 73.8967 91.5361 73.6699 90.5075C73.4432 89.4789 73.6329 88.4021 74.1974 87.5137C74.2006 87.5086 74.2039 87.5036 74.2072 87.4986L74.2548 87.4269C74.5337 86.9905 74.8952 86.6131 75.3189 86.316C75.7451 86.0172 76.2259 85.8055 76.7337 85.6932C77.2416 85.5808 77.7665 85.57 78.2785 85.6613C78.7904 85.7526 79.2794 85.9442 79.7175 86.2252C79.7175 86.2252 79.7174 86.2251 79.7175 86.2252L83.8768 88.8856L92.779 74.9016C93.0373 74.4488 93.3821 74.0514 93.7936 73.7321C94.2118 73.4077 94.6905 73.1704 95.2015 73.0344C95.7126 72.8983 96.2456 72.8662 96.7691 72.94C97.2927 73.0137 97.7963 73.1918 98.2502 73.4638C98.7041 73.7357 99.0992 74.0961 99.4121 74.5235C99.725 74.951 99.9495 75.4369 100.072 75.9527C100.195 76.4685 100.214 77.0037 100.127 77.5269C100.04 78.05 99.8503 78.5504 99.5678 78.9987C99.5607 79.01 99.5534 79.0211 99.5458 79.0319C99.5214 79.0716 99.4911 79.1196 99.4574 79.1685" fill="white"/>
</svg>
