<svg width="24" height="24" viewBox="0 0 24 24" fill="none" xmlns="http://www.w3.org/2000/svg">
<path d="M7.5 16.5C7.5 16.9125 7.8375 17.25 8.25 17.25H9V19.875C9 20.4975 9.5025 21 10.125 21C10.7475 21 11.25 20.4975 11.25 19.875V17.25H12.75V19.875C12.75 20.4975 13.2525 21 13.875 21C14.4975 21 15 20.4975 15 19.875V17.25H15.75C16.1625 17.25 16.5 16.9125 16.5 16.5V9H7.5V16.5ZM5.625 9C5.0025 9 4.5 9.5025 4.5 10.125V15.375C4.5 15.9975 5.0025 16.5 5.625 16.5C6.2475 16.5 6.75 15.9975 6.75 15.375V10.125C6.75 9.5025 6.2475 9 5.625 9ZM18.375 9C17.7525 9 17.25 9.5025 17.25 10.125V15.375C17.25 15.9975 17.7525 16.5 18.375 16.5C18.9975 16.5 19.5 15.9975 19.5 15.375V10.125C19.5 9.5025 18.9975 9 18.375 9ZM14.6475 4.62L15.6225 3.645C15.7725 3.495 15.7725 3.2625 15.6225 3.1125C15.4725 2.9625 15.24 2.9625 15.09 3.1125L13.98 4.2225C13.3875 3.9225 12.7125 3.75 12 3.75C11.28 3.75 10.605 3.9225 10.005 4.2225L8.8875 3.1125C8.7375 2.9625 8.505 2.9625 8.355 3.1125C8.205 3.2625 8.205 3.495 8.355 3.645L9.3375 4.6275C8.2275 5.445 7.5 6.7575 7.5 8.25H16.5C16.5 6.7575 15.7725 5.4375 14.6475 4.62ZM10.5 6.75H9.75V6H10.5V6.75ZM14.25 6.75H13.5V6H14.25V6.75Z" fill="#BC8DFF"/>
</svg>
