<svg width="81" height="80" viewBox="0 0 81 80" fill="none" xmlns="http://www.w3.org/2000/svg">
<path fill-rule="evenodd" clip-rule="evenodd" d="M40.1818 2C34.7529 2 30.2276 5.86893 29.2127 11H23.5C17.9772 11 14.5 15.4772 14.5 21V69C14.5 74.5228 17.9772 78 23.5 78H50.5441C46.4956 76.0883 43.1564 72.9208 41.0292 69H24.5C23.9477 69 23.5 68.5523 23.5 68V45V26H57.5V38.094C58.1583 38.0318 58.8254 38 59.5 38C61.9544 38 64.3105 38.4211 66.5 39.1949V21C66.5 15.4772 63.0228 11 57.5 11H51.7873C50.7724 5.86893 46.2471 2 40.8182 2H40.1818ZM40.0776 51H31C29.6193 51 28.5 52.1193 28.5 53.5C28.5 54.8807 29.6193 56 31 56H38.7127C38.9623 54.2549 39.4264 52.5791 40.0776 51ZM57.5 17H49.8182C47.7095 17 46 15.2905 46 13.1818C46 10.32 43.68 8 40.8182 8H40.1818C37.32 8 35 10.32 35 13.1818C35 15.2905 33.2905 17 31.1818 17H23.5V21H57.5V17ZM31 31C29.6193 31 28.5 32.1193 28.5 33.5C28.5 34.8807 29.6193 36 31 36H50C51.3807 36 52.5 34.8807 52.5 33.5C52.5 32.1193 51.3807 31 50 31H31ZM31 41C29.6193 41 28.5 42.1193 28.5 43.5C28.5 44.8807 29.6193 46 31 46H41C42.3807 46 43.5 44.8807 43.5 43.5C43.5 42.1193 42.3807 41 41 41H31ZM38.5 15C38.5 13.8954 39.3954 13 40.5 13C41.6046 13 42.5 13.8954 42.5 15C42.5 16.1046 41.6046 17 40.5 17C39.3954 17 38.5 16.1046 38.5 15Z" fill="url(#paint0_radial)"/>
<rect x="43.5" y="43" width="32" height="32" rx="16" fill="#FFA436"/>
<g clip-path="url(#clip0)">
<path d="M67.3454 57.0641C67.2829 56.8775 67.1716 56.7111 67.023 56.5821C66.8744 56.4532 66.6939 56.3665 66.5004 56.3311L62.4114 55.6001L60.4854 51.7351C60.3941 51.552 60.2537 51.398 60.0798 51.2904C59.9059 51.1828 59.7054 51.1257 59.5009 51.1257C59.2963 51.1257 59.0959 51.1828 58.922 51.2904C58.7481 51.398 58.6076 51.552 58.5164 51.7351L56.5894 55.6001L52.5084 56.3291C52.3132 56.3632 52.1308 56.4493 51.9806 56.5785C51.8303 56.7077 51.7177 56.8751 51.6547 57.0629C51.5917 57.2508 51.5807 57.4522 51.6227 57.6458C51.6647 57.8395 51.7582 58.0182 51.8934 58.1631L54.8204 61.3101L54.2114 65.6701C54.1833 65.8704 54.211 66.0746 54.2914 66.2602C54.3718 66.4458 54.5019 66.6056 54.6673 66.7221C54.8326 66.8386 55.0269 66.9072 55.2288 66.9204C55.4306 66.9336 55.6322 66.891 55.8114 66.7971L59.5004 64.8731L63.1904 66.8001C63.3695 66.894 63.5711 66.9366 63.773 66.9234C63.9748 66.9102 64.1691 66.8416 64.3345 66.7251C64.4998 66.6086 64.6299 66.4488 64.7103 66.2632C64.7907 66.0776 64.8184 65.8734 64.7904 65.6731L64.1804 61.3101L67.1064 58.1641C67.2416 58.0192 67.3352 57.8406 67.3772 57.6469C67.4193 57.4533 67.4083 57.2519 67.3454 57.0641Z" fill="white"/>
</g>
<defs>
<radialGradient id="paint0_radial" cx="0" cy="0" r="1" gradientUnits="userSpaceOnUse" gradientTransform="translate(66.5 2) rotate(-55.6197) scale(92.0869 85.832)">
<stop stop-color="#B833E1"/>
<stop offset="0.371" stop-color="#9059FF"/>
<stop offset="0.614" stop-color="#5B6DF8"/>
<stop offset="1" stop-color="#0090ED"/>
</radialGradient>
<clipPath id="clip0">
<rect width="16" height="16" fill="white" transform="translate(51.5 51)"/>
</clipPath>
</defs>
</svg>
