<svg width="24" height="24" viewBox="0 0 24 24" fill="none" xmlns="http://www.w3.org/2000/svg">
<path d="M19.5005 16.2057C18.911 17.9157 17.1462 20.9436 15.3281 20.9766C14.1221 20.9998 13.7343 20.2618 12.3558 20.2618C10.978 20.2618 10.5467 20.9541 9.40666 20.9991C7.4776 21.0733 4.5 16.6287 4.5 12.7526C4.5 9.1922 6.98108 7.42739 9.14865 7.39514C10.3112 7.37414 11.4092 8.17892 12.118 8.17892C12.8298 8.17892 14.1633 7.21139 15.5651 7.35314C16.1516 7.37789 17.7994 7.5894 18.857 9.13595C16.0511 10.9675 16.4884 14.7979 19.5005 16.2057ZM15.5839 3C13.4643 3.0855 11.7347 5.30932 11.9762 7.14838C13.9353 7.30064 15.8149 5.10457 15.5839 3Z" fill="#6D6D6E"/>
</svg>
