<svg width="117" height="80" viewBox="0 0 117 80" fill="none" xmlns="http://www.w3.org/2000/svg">
<path fill-rule="evenodd" clip-rule="evenodd" d="M111.181 79.914V80H76.0745V79.985C75.8985 79.995 75.7211 80 75.5426 80C70.5485 80 66.5 76.0535 66.5 71.1852C66.5 66.3169 70.5485 62.3704 75.5426 62.3704C75.7211 62.3704 75.8985 62.3754 76.0745 62.3854L76.0745 62.3704C76.0745 56.643 80.8374 52 86.7128 52C91.5864 52 95.6946 55.1947 96.9538 59.5531C97.7632 59.3611 98.6087 59.2593 99.4787 59.2593C104.625 59.2593 108.919 62.822 109.904 67.5556H111.181V67.6416C114.2 68.1353 116.5 70.6947 116.5 73.7778C116.5 76.8609 114.2 79.4203 111.181 79.914Z" fill="url(#paint0_linear_128_6672)"/>
<path fill-rule="evenodd" clip-rule="evenodd" d="M5.81915 27.914C2.80031 27.4203 0.5 24.8609 0.5 21.7778C0.5 18.6947 2.80031 16.1353 5.81915 15.6416V15.5556H7.09578C8.08146 10.822 12.3746 7.25926 17.5213 7.25926C18.3913 7.25926 19.2368 7.36106 20.0462 7.5531C21.3054 3.19473 25.4136 0 30.2872 0C36.1626 0 40.9255 4.64297 40.9255 10.3704C40.9255 10.3754 40.9255 10.3804 40.9255 10.3854C41.1015 10.3754 41.2789 10.3704 41.4574 10.3704C46.4515 10.3704 50.5 14.3169 50.5 19.1852C50.5 24.0535 46.4515 28 41.4574 28C41.2789 28 41.1015 27.995 40.9255 27.985V28H5.81915V27.914Z" fill="url(#paint1_linear_128_6672)"/>
<path fill-rule="evenodd" clip-rule="evenodd" d="M34.75 11H82.25C90.325 11 96.5 17.3917 96.5 25.75V50.0441C94.5077 45.8249 91.1514 42.3761 87 40.2666V25.75C87 25.2583 87 24.7667 86.525 24.275C86.525 24.7667 86.525 25.2583 86.05 25.2583L59.925 44.925C59.45 45.4167 58.975 45.4167 58.5 45.4167C58.025 45.4167 57.55 45.4167 57.075 44.925L30.95 25.2583C30.475 25.2583 30 25.2583 30 24.7667V55.25C30 58.2 31.9 60.1667 34.75 60.1667H56.5319C56.7286 63.7593 57.8283 67.1114 59.608 70H34.75C26.675 70 20.5 63.6083 20.5 55.25V25.75C20.5 17.3917 26.675 11 34.75 11ZM83.675 21.325C83.2 20.8333 82.725 20.8333 82.25 20.8333H34.75C34.275 20.8333 33.8 20.8333 33.325 21.325H33.8L58.5 40.0083L83.2 21.325H83.675Z" fill="url(#paint2_radial_128_6672)"/>
<rect x="62.5" y="44" width="32" height="31.9318" rx="15.9659" fill="#3FE1B0"/>
<path d="M76.4877 66.0098C76.2225 66.0097 75.9682 65.9043 75.7807 65.7168L72.7807 62.7168C72.5986 62.5282 72.4978 62.2756 72.5 62.0134C72.5023 61.7512 72.6075 61.5004 72.7929 61.315C72.9783 61.1295 73.2291 61.0244 73.4913 61.0221C73.7535 61.0198 74.0061 61.1206 74.1947 61.3028L76.3517 63.4598L82.6677 54.4368C82.8208 54.2222 83.0524 54.0768 83.3121 54.0321C83.5719 53.9874 83.8388 54.047 84.0548 54.198C84.2708 54.3491 84.4184 54.5793 84.4656 54.8386C84.5128 55.0979 84.4557 55.3653 84.3067 55.5828L77.3067 65.5828C77.2234 65.7032 77.1147 65.8039 76.9882 65.8776C76.8617 65.9514 76.7205 65.9965 76.5747 66.0098C76.5457 66.0112 76.5167 66.0112 76.4877 66.0098Z" fill="white"/>
<defs>
<linearGradient id="paint0_linear_128_6672" x1="115.9" y1="86.7479" x2="125.154" y2="54.4819" gradientUnits="userSpaceOnUse">
<stop stop-color="white" stop-opacity="0.01"/>
<stop offset="1" stop-opacity="0.15"/>
</linearGradient>
<linearGradient id="paint1_linear_128_6672" x1="49.4564" y1="20.8721" x2="40.6391" y2="-10.6182" gradientUnits="userSpaceOnUse">
<stop stop-color="white" stop-opacity="0.01"/>
<stop offset="1" stop-opacity="0.15"/>
</linearGradient>
<radialGradient id="paint2_radial_128_6672" cx="0" cy="0" r="1" gradientUnits="userSpaceOnUse" gradientTransform="translate(96.5 11) rotate(142.177) scale(96.2133 93.2096)">
<stop stop-color="#9D62FC"/>
<stop offset="1" stop-color="#FD3296"/>
</radialGradient>
</defs>
</svg>
