<svg width="80" height="80" viewBox="0 0 80 80" fill="none" xmlns="http://www.w3.org/2000/svg">
<path fill-rule="evenodd" clip-rule="evenodd" d="M44.0581 44.1039L34.5577 53.6146L34.553 53.6098C34.3339 53.8369 34.0718 54.0181 33.782 54.1427C33.4923 54.2673 33.1806 54.3329 32.8653 54.3356C32.5499 54.3383 32.2371 54.2782 31.9452 54.1586C31.6534 54.0391 31.3882 53.8625 31.1652 53.6393C30.9422 53.416 30.7658 53.1506 30.6464 52.8584C30.527 52.5662 30.4669 52.2531 30.4696 51.9374C30.4724 51.6217 30.5379 51.3097 30.6623 51.0196C30.7868 50.7295 30.9678 50.4671 31.1946 50.2478L40.0014 41.4361V23.3991C40.0014 22.7685 40.2517 22.1637 40.6971 21.7178C41.1425 21.2719 41.7466 21.0214 42.3765 21.0214C43.0065 21.0214 43.6106 21.2719 44.056 21.7178C44.5014 22.1637 44.7516 22.7685 44.7516 23.3991V42.4205C44.7522 42.7329 44.6912 43.0424 44.5722 43.3313C44.4532 43.6201 44.2785 43.8827 44.0581 44.1039ZM20.6575 7.39549C26.5066 3.89559 33.1872 2.03222 40.0014 2.00002C46.9312 1.99274 53.7307 3.88466 59.6628 7.47068C65.595 11.0567 70.4333 16.2 73.6533 22.3429C76.8733 28.4858 78.3521 35.3939 77.9293 42.3183C77.8056 44.3435 77.5207 46.3476 77.0807 48.3123C75.0701 44.9182 72.1309 42.1389 68.613 40.3245C68.6137 40.2417 68.6141 40.1589 68.6141 40.0761C68.6141 33.3855 66.2654 26.9077 61.9785 21.7747C57.6916 16.6418 51.7392 13.1803 45.1615 11.9952C38.5839 10.8101 31.7994 11.9767 25.9937 15.2912C20.1881 18.6056 15.7307 23.8572 13.4004 30.1279C13.3191 30.2674 13.2303 30.4023 13.1344 30.5321H28.126C28.7559 30.5321 29.36 30.7826 29.8054 31.2285C30.2509 31.6744 30.5011 32.2792 30.5011 32.9098C30.5011 33.5404 30.2509 34.1452 29.8054 34.5911C29.36 35.037 28.7559 35.2875 28.126 35.2875H4.37509C3.74518 35.2875 3.14106 35.037 2.69565 34.5911C2.25023 34.1452 2 33.5404 2 32.9098V9.13304C2 8.50245 2.25023 7.89767 2.69565 7.45177C3.14106 7.00587 3.74518 6.75537 4.37509 6.75537C5.005 6.75537 5.60912 7.00587 6.05453 7.45177C6.49995 7.89767 6.75018 8.50245 6.75018 9.13304V21.8964C10.0054 15.9034 14.8084 10.8954 20.6575 7.39549ZM40.3216 68.6075C35.3278 68.6441 30.3812 67.3659 25.9937 64.861C20.1881 61.5466 15.7307 56.295 13.4004 50.0243C12.9406 48.8693 12.0471 47.9405 10.9114 47.437C9.7758 46.9335 8.48834 46.8953 7.3249 47.3306C6.16147 47.7659 5.21461 48.64 4.6872 49.7657C4.15979 50.8915 4.0938 52.1792 4.50335 53.353C6.93843 59.8479 11.1031 65.5516 16.5458 69.8456C21.9885 74.1396 28.5016 76.8601 35.3789 77.7122C39.7153 78.2495 44.0923 78.031 48.32 77.0852C44.9206 75.0734 42.1374 72.1304 40.3216 68.6075Z" fill="url(#paint0_radial_90_4010)"/>
<rect x="44" y="44" width="32" height="31.9318" rx="15.9659" fill="#E22850"/>
<path d="M66.6929 64.0119L61.7399 54.1059C61.5739 53.7736 61.3185 53.4941 61.0025 53.2988C60.6866 53.1035 60.3224 53 59.9509 53C59.5795 53 59.2153 53.1035 58.8993 53.2988C58.5834 53.4941 58.328 53.7736 58.1619 54.1059L53.2089 64.0159C53.0575 64.3206 52.9863 64.659 53.0022 64.999C53.018 65.3389 53.1203 65.6692 53.2995 65.9586C53.4786 66.2479 53.7286 66.4868 54.0258 66.6526C54.323 66.8183 54.6576 66.9055 54.9979 66.9059H64.9029C65.2439 66.906 65.5792 66.819 65.8771 66.6531C66.1749 66.4872 66.4255 66.2479 66.6048 65.9579C66.7842 65.668 66.8864 65.337 66.9018 64.9964C66.9172 64.6557 66.8453 64.3169 66.6929 64.0119ZM58.9509 56.9059C58.9509 56.6406 59.0563 56.3863 59.2438 56.1988C59.4314 56.0112 59.6857 55.9059 59.9509 55.9059C60.2162 55.9059 60.4705 56.0112 60.658 56.1988C60.8456 56.3863 60.9509 56.6406 60.9509 56.9059V60.9059C60.9509 61.1711 60.8456 61.4254 60.658 61.613C60.4705 61.8005 60.2162 61.9059 59.9509 61.9059C59.6857 61.9059 59.4314 61.8005 59.2438 61.613C59.0563 61.4254 58.9509 61.1711 58.9509 60.9059V56.9059ZM59.9509 65.1559C59.7037 65.1559 59.462 65.0826 59.2565 64.9452C59.0509 64.8078 58.8907 64.6126 58.7961 64.3842C58.7015 64.1558 58.6767 63.9045 58.725 63.662C58.7732 63.4195 58.8922 63.1968 59.0671 63.022C59.2419 62.8472 59.4646 62.7281 59.7071 62.6799C59.9496 62.6317 60.2009 62.6564 60.4293 62.751C60.6577 62.8456 60.8529 63.0058 60.9903 63.2114C61.1276 63.417 61.2009 63.6586 61.2009 63.9059C61.2009 64.2374 61.0692 64.5553 60.8348 64.7897C60.6004 65.0242 60.2825 65.1559 59.9509 65.1559Z" fill="white"/>
<defs>
<radialGradient id="paint0_radial_90_4010" cx="0" cy="0" r="1" gradientUnits="userSpaceOnUse" gradientTransform="translate(78 2) rotate(-45) scale(107.48)">
<stop stop-color="#B833E1"/>
<stop offset="0.371" stop-color="#9059FF"/>
<stop offset="0.614" stop-color="#5B6DF8"/>
<stop offset="1" stop-color="#0090ED"/>
</radialGradient>
</defs>
</svg>
