<svg xmlns="http://www.w3.org/2000/svg" viewBox="0 0 16 16"><path d="M8,16a8,8,0,1,1,5.65-2.35A8,8,0,0,1,8,16ZM8,2A6,6,0,0,0,2.46,5.7a5.9,5.9,0,0,0-.34,3.47,6,6,0,0,0,4.71,4.71,5.9,5.9,0,0,0,3.47-.34A6,6,0,0,0,8,2Z" transform="translate(0 0)" style="fill:#ffffff"/><path d="M8,6.31A1.19,1.19,0,1,0,6.81,5.12,1.19,1.19,0,0,0,8,6.31Z" transform="translate(0 0)" style="fill:#ffffff"/><path d="M8,7.07a1,1,0,0,0-.71.29A1,1,0,0,0,7,8.07v3a1,1,0,0,0,2,0v-3a1,1,0,0,0-.29-.71A1,1,0,0,0,8,7.07Z" transform="translate(0 0)" style="fill:#ffffff"/></svg>
