<svg width="320" height="160" viewBox="0 0 320 160" fill="none" xmlns="http://www.w3.org/2000/svg">
<path d="M215.494 126.243C212.243 126.874 208.638 126.243 205.625 124.972C203.653 124.141 201.593 122.709 199.486 122.32C197.312 121.92 194.953 122.655 192.876 123.216C190.883 123.754 188.641 124.471 186.946 122.994C185.491 121.739 184.979 119.306 184.578 117.089C184.176 114.872 183.78 112.698 183.382 110.505C183.229 109.662 183.074 108.792 183.187 107.94C183.306 107.044 187.632 108.032 188.099 107.363C189.437 105.439 187.378 102.541 189.231 101.569C190.834 100.727 192.502 99.9565 194.229 99.9565C195.657 99.9565 197.049 100.48 198.42 101.001L205.349 103.632C206.07 103.905 206.79 104.186 207.399 104.756C207.91 105.234 208.299 105.894 208.73 106.496C211.251 110.044 215.161 111.84 217.014 116.03C217.959 118.166 218.372 120.935 218.528 123.377C218.644 125.155 217.14 125.922 215.494 126.243Z" fill="#9E7455"/>
<path d="M143.257 53.238C141.667 52.6322 139.575 51.7075 137.925 51.3097C136.992 51.0857 135.944 51.1108 135.137 51.6233C132.764 53.1269 134.379 56.3938 135.758 57.9924C138.364 61.012 141.77 63.3274 145.238 65.2449" fill="#9E7455"/>
<path d="M143.257 53.238C141.667 52.6322 139.575 51.7075 137.925 51.3097C136.992 51.0857 135.944 51.1108 135.137 51.6233C132.764 53.1269 134.379 56.3938 135.758 57.9924C138.364 61.012 141.77 63.3274 145.238 65.2449" stroke="black" stroke-width="0.557043" stroke-miterlimit="10"/>
<path d="M190.543 104.713L164.866 109.893C164.866 109.893 169.188 115.731 180.93 116.473L185.194 120.763" fill="#9E7455"/>
<path d="M190.543 104.713L164.866 109.893C164.866 109.893 169.188 115.731 180.93 116.473L185.194 120.763" stroke="black" stroke-width="0.557043" stroke-miterlimit="10"/>
<path d="M195.149 99.2568L183.175 33.2615C182.935 31.9409 182.178 30.7692 181.07 30.0041C179.962 29.2389 178.594 28.9428 177.266 29.1809L144.967 34.9873C143.64 35.2259 142.462 35.9794 141.693 37.0821C140.924 38.1848 140.627 39.5463 140.867 40.8671L152.846 106.861C153.086 108.182 153.843 109.354 154.951 110.119C156.059 110.885 157.427 111.181 158.755 110.943L191.054 105.137C192.381 104.897 193.557 104.143 194.325 103.04C195.093 101.938 195.389 100.577 195.149 99.2568Z" fill="white" stroke="black" stroke-width="0.557043" stroke-miterlimit="10"/>
<path d="M145.275 91.2717C145.721 91.3577 146.161 91.4849 146.597 91.6104C149.031 92.3165 148.234 92.1301 150.668 92.8362C153.402 93.6265 155.57 97.2465 153.301 99.6461C150.519 102.587 147.34 100.901 144.236 99.8253C142.615 99.2644 141.203 98.4454 140.634 96.7232C139.834 94.3164 141.316 91.3272 144.014 91.1677C144.437 91.1496 144.861 91.1845 145.275 91.2717Z" fill="#9E7455" stroke="black" stroke-width="0.557043" stroke-miterlimit="10"/>
<path d="M185.947 102.476L159.362 107.329C158.687 107.452 157.99 107.304 157.424 106.917C156.858 106.53 156.469 105.936 156.342 105.265L144.085 40.5702C144.022 40.2495 144.025 39.9194 144.093 39.5997C144.162 39.2801 144.294 38.9774 144.482 38.7098C144.671 38.4421 144.912 38.215 145.19 38.042C145.469 37.869 145.78 37.7537 146.104 37.7029V37.7029L149.947 37.0147C150.133 36.9806 150.326 37.0129 150.49 37.106C150.655 37.1991 150.782 37.347 150.848 37.5237C151.16 38.3695 151.763 39.0786 152.549 39.5263C153.335 39.974 154.255 40.1317 155.146 39.9717L169.59 37.3749C170.477 37.2159 171.28 36.7521 171.859 36.0644C172.438 35.3767 172.756 34.5086 172.757 33.6115V33.6115C172.757 33.4185 172.825 33.2316 172.95 33.0835C173.074 32.9354 173.247 32.8356 173.438 32.8015L176.482 32.2531C176.862 32.1824 177.253 32.1875 177.632 32.2681C178.01 32.3487 178.369 32.5032 178.687 32.7227C179.006 32.9422 179.277 33.2223 179.486 33.5468C179.694 33.8713 179.836 34.2338 179.903 34.6133L182.344 48.3855" stroke="black" stroke-width="0.557043" stroke-miterlimit="10"/>
<path d="M142.04 72.3053C142.485 72.3913 142.926 72.5185 143.362 72.644L150.664 74.7586C153.398 75.5507 155.566 79.169 153.297 81.5686C150.515 84.5094 144.113 81.927 140.999 80.8517C139.378 80.2908 137.966 79.47 137.397 77.7496C136.597 75.3429 138.078 72.3537 140.776 72.1942C141.2 72.1791 141.625 72.2164 142.04 72.3053Z" fill="#9E7455" stroke="black" stroke-width="0.557043" stroke-miterlimit="10"/>
<path d="M142.04 81.2041C142.485 81.2901 142.926 81.4173 143.362 81.5428L150.664 83.6574C153.398 84.4495 155.566 88.0677 153.297 90.4673C150.515 93.4082 144.113 90.8347 140.999 89.7505C139.378 89.1896 137.966 88.3706 137.397 86.6484C136.597 84.2416 138.078 81.2524 140.776 81.0929C141.2 81.077 141.625 81.1143 142.04 81.2041Z" fill="#9E7455" stroke="black" stroke-width="0.557043" stroke-miterlimit="10"/>
<path d="M219.031 123.425L218.081 119.48C218 118.49 206.734 91.0515 205.501 87.674C204.268 84.2966 195.541 66.9892 195.541 66.9892C194.272 64.4468 193.595 61.6083 193.178 58.8188C193.178 58.8188 192.419 53.2382 192.193 49.847C192.101 48.4615 190.142 47.5464 188.825 48.0039C187.109 48.5983 185.667 49.7884 184.872 52.2076C184.581 53.1236 184.5 54.0927 184.635 55.0439L186.888 84.2604C179.065 103.329 194.013 112.338 194.013 112.338" fill="#9E7455"/>
<path d="M219.031 123.425L218.081 119.48C218 118.49 206.734 91.0515 205.501 87.674C204.268 84.2966 195.541 66.9892 195.541 66.9892C194.272 64.4468 193.595 61.6083 193.178 58.8188C193.178 58.8188 192.419 53.2382 192.193 49.847C192.101 48.4615 190.142 47.5464 188.825 48.0039C187.109 48.5983 185.667 49.7884 184.872 52.2076C184.581 53.1236 184.5 54.0927 184.635 55.0439L186.888 84.2604C179.065 103.329 194.013 112.338 194.013 112.338" stroke="black" stroke-width="0.557043" stroke-miterlimit="10"/>
<path d="M173.234 73.683L164.294 75.2959C163.84 75.3866 163.372 75.3863 162.918 75.2951C162.464 75.2038 162.033 75.0235 161.65 74.7645C161.266 74.5055 160.939 74.1732 160.686 73.7868C160.433 73.4005 160.261 72.9679 160.178 72.5144C160.095 72.0608 160.104 71.5954 160.204 71.1453C160.304 70.6952 160.493 70.2694 160.76 69.8929C161.027 69.5163 161.367 69.1966 161.76 68.9522C162.153 68.7079 162.591 68.5439 163.048 68.4698L171.988 66.8569V66.8892C171.127 67.001 170.341 67.4343 169.789 68.1012C169.237 68.7682 168.961 69.6189 169.016 70.481C169.071 71.3432 169.453 72.1523 170.085 72.7445C170.717 73.3367 171.552 73.6677 172.42 73.6704C172.686 73.6706 172.95 73.6393 173.209 73.5773L173.234 73.683Z" fill="#54FFBD"/>
<path d="M173.235 73.6831L173.17 73.3246L164.23 74.9375C164.045 74.9724 163.856 74.9898 163.667 74.9895C162.935 74.9876 162.228 74.731 161.666 74.2642C161.105 73.7974 160.726 73.1499 160.594 72.434C160.561 72.2489 160.544 72.0612 160.544 71.8731C160.545 71.145 160.802 70.4402 161.272 69.8816C161.741 69.3229 162.392 68.9458 163.112 68.8158L172.054 67.2029C172.502 67.1218 172.962 67.1392 173.403 67.2537C173.844 67.3682 174.254 67.5772 174.605 67.866C175.173 68.3336 175.556 68.9863 175.686 69.7082C175.767 70.1542 175.75 70.6126 175.635 71.0512C175.52 71.4898 175.31 71.8981 175.02 72.2476C174.55 72.8131 173.894 73.1942 173.168 73.3229L173.233 73.6813L173.298 74.0397C174.184 73.8798 174.986 73.4155 175.563 72.7277C176.14 72.04 176.456 71.1724 176.457 70.2763C176.457 70.0456 176.436 69.8153 176.396 69.5881C176.234 68.7069 175.767 67.9099 175.076 67.3356C174.385 66.7614 173.514 66.4462 172.614 66.4448C172.382 66.4448 172.15 66.4652 171.922 66.5058L162.981 68.1186C162.095 68.2795 161.294 68.7441 160.717 69.4317C160.14 70.1192 159.823 70.9862 159.822 71.882C159.821 72.1128 159.843 72.3432 159.885 72.5702C160.046 73.4518 160.513 74.2492 161.204 74.8238C161.895 75.3984 162.766 75.7139 163.667 75.7153C163.899 75.7147 164.13 75.6937 164.358 75.6526L173.3 74.0397L173.235 73.6831Z" fill="black"/>
<path d="M175.965 69.6632L175.605 69.726C175.639 69.911 175.657 70.0987 175.657 70.2869C175.657 71.015 175.399 71.7197 174.93 72.2784C174.461 72.837 173.809 73.2142 173.089 73.3442C172.903 73.3775 172.715 73.3943 172.526 73.3944C171.931 73.3941 171.349 73.2251 170.847 72.9071C170.345 72.5892 169.945 72.1356 169.693 71.5994C169.442 71.0633 169.349 70.4668 169.425 69.8799C169.502 69.293 169.745 68.74 170.127 68.2858C170.508 67.8316 171.011 67.495 171.578 67.3154C172.145 67.1358 172.751 67.1207 173.326 67.2719C173.901 67.423 174.421 67.7342 174.825 68.1688C175.228 68.6035 175.499 69.1436 175.605 69.726L175.965 69.6632L176.326 69.5987C176.164 68.7172 175.698 67.9197 175.007 67.3451C174.316 66.7705 173.444 66.455 172.544 66.4536C172.312 66.4543 172.08 66.4753 171.852 66.5163C170.966 66.6762 170.165 67.1406 169.587 67.8283C169.01 68.5161 168.694 69.3836 168.693 70.2797C168.693 70.5104 168.714 70.7407 168.755 70.9679C168.916 71.8491 169.383 72.6461 170.074 73.2204C170.765 73.7946 171.636 74.1098 172.536 74.1112C172.768 74.1112 173 74.0908 173.228 74.0503C174.114 73.8891 174.915 73.4245 175.492 72.7371C176.069 72.0496 176.386 71.1828 176.389 70.2869C176.388 70.0561 176.367 69.8258 176.326 69.5987L175.965 69.6632Z" fill="black"/>
<path fill-rule="evenodd" clip-rule="evenodd" d="M162.655 49.0911C163.094 47.7617 164.854 47.4775 165.691 48.6006L172.957 58.3404C173.736 59.3848 173.121 60.8805 171.831 61.0792L160.785 62.7812C159.506 62.9783 158.469 61.7586 158.874 60.5329L162.655 49.0911ZM166.876 59.3195C166.955 59.8299 166.604 60.3077 166.092 60.3865C165.581 60.4654 165.101 60.1156 165.022 59.6052C164.943 59.0947 165.294 58.617 165.806 58.5381C166.318 58.4593 166.797 58.8091 166.876 59.3195ZM164.708 51.4526C164.196 51.5315 163.845 52.0092 163.924 52.5196L164.497 56.2164C164.576 56.7268 165.055 57.0766 165.567 56.9978C166.079 56.9189 166.43 56.4412 166.351 55.9307L165.778 52.234C165.699 51.7236 165.22 51.3737 164.708 51.4526Z" fill="white"/>
<path d="M165.584 57.1079L165.567 56.9978L165.584 57.1079C166.157 57.0197 166.55 56.4852 166.461 55.9137L165.888 52.2169C165.8 51.6454 165.263 51.2543 164.691 51.3425C164.118 51.4307 163.726 51.9651 163.814 52.5367L164.387 56.2335C164.476 56.8049 165.012 57.1961 165.584 57.1079ZM166.109 60.4967L166.092 60.3865L166.109 60.4967C166.682 60.4084 167.075 59.874 166.986 59.3025C166.898 58.731 166.361 58.3398 165.789 58.428C165.217 58.5162 164.824 59.0507 164.912 59.6222C165.001 60.1937 165.537 60.5848 166.109 60.4967ZM162.761 49.1261C163.172 47.8825 164.818 47.6161 165.602 48.6672L172.868 58.407C173.596 59.3837 173.022 60.7831 171.814 60.9691L160.768 62.6711C159.57 62.8556 158.601 61.7139 158.98 60.5679L162.761 49.1261Z" fill="#D50A2E" stroke="black" stroke-width="0.222817"/>
<path d="M125.544 109.249H57.4648C58.6202 102.721 64.3541 97.7297 71.2434 97.7297C71.4145 97.7297 71.5857 97.7297 71.7996 97.7297C75.2656 91.6287 81.8126 87.4902 89.3437 87.4902C98.458 87.4902 106.16 93.5486 108.642 101.826C110.439 100.162 112.836 99.1803 115.489 99.1803C121.009 99.1803 125.544 103.703 125.544 109.249Z" fill="#A883F8"/>
<path d="M107.39 115.136H38.0005L38.1288 114.413C39.3695 107.479 45.4015 102.459 52.503 102.459C52.5458 102.459 52.6314 102.459 52.6741 102.459C56.396 96.1632 63.1981 92.2495 70.5563 92.2495C79.369 92.2495 87.2834 97.9073 90.1497 106.118C92.032 104.671 94.2994 103.905 96.6523 103.905C102.556 103.905 107.347 108.67 107.347 114.54V115.136H107.39ZM39.455 113.902H106.15C105.85 109.01 101.7 105.097 96.6951 105.097C94.2994 105.097 92.032 105.99 90.278 107.606L89.5508 108.245L89.2513 107.309C86.8128 99.141 79.1124 93.4406 70.5135 93.4406C63.4548 93.4406 56.9522 97.2267 53.487 103.352L53.3158 103.693H52.9308C52.7597 103.693 52.5886 103.693 52.4175 103.693C46.2143 103.65 40.8668 107.904 39.455 113.902Z" fill="white"/>
<path d="M254.989 43.3592H206.834C207.636 38.7304 211.688 35.2378 216.584 35.2378C216.71 35.2378 216.837 35.2378 216.963 35.2378C219.411 30.9035 224.054 28 229.372 28C235.829 28 241.273 32.2922 243.003 38.1413C244.27 36.9631 245.958 36.2477 247.815 36.2477C251.782 36.2477 254.989 39.4458 254.989 43.3592Z" fill="#A883F8"/>
<path d="M281.587 55.3105H251.706C252.213 52.449 254.745 50.2609 257.741 50.2609C257.826 50.2609 257.91 50.2609 257.994 50.2609C259.514 47.5677 262.384 45.7583 265.718 45.7583C269.727 45.7583 273.104 48.4094 274.201 52.0703C275.003 51.355 276.058 50.8921 277.197 50.8921C279.603 50.9342 281.587 52.9119 281.587 55.3105Z" fill="#A883F8"/>
<path fill-rule="evenodd" clip-rule="evenodd" d="M84.167 36.2037C83.7231 36.2037 83.3634 36.5628 83.3634 37.0058C83.3634 37.4489 83.7231 37.808 84.167 37.808C84.6108 37.808 84.9706 37.4489 84.9706 37.0058C84.9706 36.5628 84.6108 36.2037 84.167 36.2037ZM82.812 37.0058C82.812 36.2589 83.4186 35.6533 84.167 35.6533C84.9153 35.6533 85.5219 36.2589 85.5219 37.0058C85.5219 37.7528 84.9153 38.3584 84.167 38.3584C83.4186 38.3584 82.812 37.7528 82.812 37.0058Z" fill="white"/>
<path fill-rule="evenodd" clip-rule="evenodd" d="M277.27 127.041C276.826 127.041 276.466 127.4 276.466 127.843C276.466 128.286 276.826 128.645 277.27 128.645C277.713 128.645 278.073 128.286 278.073 127.843C278.073 127.4 277.713 127.041 277.27 127.041ZM275.915 127.843C275.915 127.096 276.521 126.491 277.27 126.491C278.018 126.491 278.625 127.096 278.625 127.843C278.625 128.59 278.018 129.196 277.27 129.196C276.521 129.196 275.915 128.59 275.915 127.843Z" fill="white"/>
<path fill-rule="evenodd" clip-rule="evenodd" d="M197.793 31.5133C197.35 31.5133 196.99 31.8724 196.99 32.3154C196.99 32.7584 197.35 33.1176 197.793 33.1176C198.237 33.1176 198.597 32.7584 198.597 32.3154C198.597 31.8724 198.237 31.5133 197.793 31.5133ZM196.438 32.3154C196.438 31.5684 197.045 30.9629 197.793 30.9629C198.542 30.9629 199.148 31.5684 199.148 32.3154C199.148 33.0624 198.542 33.6679 197.793 33.6679C197.045 33.6679 196.438 33.0624 196.438 32.3154Z" fill="white"/>
<path d="M251.486 98.4295C251.454 98.4295 251.423 98.4232 251.393 98.411C251.364 98.3989 251.337 98.381 251.315 98.3586C251.292 98.3361 251.274 98.3094 251.262 98.28C251.25 98.2506 251.244 98.2191 251.244 98.1873V95.9969C251.248 95.936 251.276 95.8791 251.321 95.8375C251.365 95.796 251.424 95.7729 251.486 95.7729C251.547 95.7729 251.606 95.796 251.651 95.8375C251.695 95.8791 251.723 95.936 251.728 95.9969V98.1873C251.728 98.2191 251.722 98.2505 251.71 98.2799C251.698 98.3093 251.68 98.336 251.657 98.3585C251.635 98.381 251.608 98.3988 251.579 98.411C251.55 98.4232 251.518 98.4295 251.486 98.4295Z" fill="white"/>
<path d="M137.098 132C137.066 132 137.034 131.994 137.005 131.981C136.975 131.969 136.949 131.951 136.926 131.929C136.904 131.906 136.886 131.88 136.873 131.85C136.861 131.821 136.855 131.789 136.855 131.758V129.567C136.86 129.506 136.887 129.449 136.932 129.408C136.977 129.366 137.036 129.343 137.097 129.343C137.158 129.343 137.217 129.366 137.262 129.408C137.307 129.449 137.334 129.506 137.339 129.567V131.758C137.339 131.789 137.333 131.821 137.321 131.85C137.309 131.88 137.291 131.906 137.269 131.929C137.246 131.951 137.22 131.969 137.19 131.981C137.161 131.994 137.129 132 137.098 132Z" fill="white"/>
<path d="M97.4926 76.9539C97.4607 76.9539 97.4292 76.9477 97.3998 76.9355C97.3703 76.9233 97.3436 76.9055 97.3211 76.883C97.2985 76.8605 97.2807 76.8338 97.2685 76.8044C97.2563 76.775 97.25 76.7436 97.25 76.7118V74.5213C97.2546 74.4604 97.2821 74.4035 97.327 74.362C97.3718 74.3204 97.4307 74.2974 97.4919 74.2974C97.5531 74.2974 97.612 74.3204 97.6569 74.362C97.7017 74.4035 97.7292 74.4604 97.7338 74.5213V76.7118C97.734 76.7435 97.7279 76.7749 97.7159 76.8043C97.7038 76.8337 97.6861 76.8604 97.6637 76.8829C97.6413 76.9054 97.6146 76.9233 97.5852 76.9355C97.5559 76.9476 97.5244 76.9539 97.4926 76.9539Z" fill="white"/>
<path d="M252.825 97.0919C252.825 97.1236 252.819 97.1551 252.807 97.1845C252.795 97.2138 252.777 97.2405 252.754 97.2631C252.732 97.2856 252.705 97.3034 252.676 97.3156C252.647 97.3278 252.615 97.3341 252.583 97.3341H250.389C250.328 97.3295 250.271 97.302 250.229 97.2572C250.188 97.2125 250.165 97.1536 250.165 97.0926C250.165 97.0315 250.188 96.9727 250.229 96.9279C250.271 96.8831 250.328 96.8557 250.389 96.8511H252.583C252.647 96.8511 252.709 96.8764 252.754 96.9216C252.799 96.9668 252.825 97.028 252.825 97.0919Z" fill="white"/>
<path d="M138.445 130.663C138.445 130.695 138.439 130.726 138.427 130.756C138.415 130.785 138.397 130.812 138.374 130.834C138.352 130.857 138.325 130.875 138.296 130.887C138.267 130.899 138.235 130.905 138.203 130.905H136.009C135.948 130.901 135.891 130.873 135.849 130.829C135.808 130.784 135.785 130.725 135.785 130.664C135.785 130.603 135.808 130.544 135.849 130.499C135.891 130.454 135.948 130.427 136.009 130.422H138.203C138.267 130.422 138.329 130.448 138.374 130.493C138.419 130.538 138.445 130.599 138.445 130.663Z" fill="white"/>
<path d="M98.8396 75.6172C98.8398 75.649 98.8337 75.6804 98.8216 75.7098C98.8096 75.7392 98.7918 75.7659 98.7694 75.7884C98.747 75.8109 98.7204 75.8287 98.691 75.8409C98.6616 75.8531 98.6302 75.8594 98.5984 75.8594H96.404C96.343 75.8548 96.286 75.8273 96.2444 75.7826C96.2028 75.7378 96.1797 75.679 96.1797 75.6179C96.1797 75.5569 96.2028 75.498 96.2444 75.4533C96.286 75.4085 96.343 75.3811 96.404 75.3765H98.5984C98.6624 75.3765 98.7237 75.4018 98.7689 75.447C98.8142 75.4921 98.8396 75.5534 98.8396 75.6172Z" fill="white"/>
</svg>
