<svg width="296" height="169" viewBox="0 0 296 169" fill="none" xmlns="http://www.w3.org/2000/svg">
<path d="M185.7 131.414C182.565 132.023 179.089 131.414 176.184 130.186C174.282 129.383 172.296 127.999 170.264 127.623C168.168 127.237 165.894 127.947 163.892 128.489C161.969 129.009 159.807 129.701 158.173 128.275C156.77 127.062 156.277 124.711 155.89 122.569C155.503 120.427 155.121 118.327 154.737 116.207C154.589 115.394 154.44 114.552 154.549 113.73C154.664 112.864 158.835 113.818 159.285 113.172C160.575 111.312 158.59 108.513 160.377 107.574C161.922 106.76 163.53 106.016 165.196 106.016C166.573 106.016 167.915 106.521 169.236 107.025L175.918 109.567C176.613 109.83 177.307 110.102 177.894 110.653C178.387 111.115 178.763 111.752 179.178 112.334C181.609 115.762 185.378 117.497 187.165 121.546C188.077 123.61 188.474 126.285 188.626 128.645C188.737 130.363 187.287 131.104 185.7 131.414Z" fill="#9E7455"/>
<path d="M116.047 60.8763C114.514 60.291 112.496 59.3975 110.905 59.0131C110.006 58.7967 108.995 58.8209 108.217 59.3162C105.929 60.7689 107.486 63.9255 108.816 65.47C111.329 68.3877 114.613 70.6248 117.957 72.4776" fill="#9E7455"/>
<path d="M116.047 60.8763C114.514 60.291 112.496 59.3975 110.905 59.0131C110.006 58.7967 108.995 58.8209 108.217 59.3162C105.929 60.7689 107.486 63.9255 108.816 65.47C111.329 68.3877 114.613 70.6248 117.957 72.4776" stroke="black" stroke-miterlimit="10"/>
<path d="M161.648 110.611L136.89 115.615C136.89 115.615 141.057 121.257 152.379 121.973L156.491 126.119" fill="#9E7455"/>
<path d="M161.648 110.611L136.89 115.615C136.89 115.615 141.057 121.257 152.379 121.973L156.491 126.119" stroke="black" stroke-miterlimit="10"/>
<path d="M166.09 105.339L154.544 41.5731C154.313 40.2971 153.582 39.165 152.514 38.4257C151.446 37.6864 150.127 37.4003 148.847 37.6303L117.704 43.2405C116.424 43.4711 115.288 44.1991 114.547 45.2646C113.805 46.33 113.519 47.6455 113.75 48.9217L125.301 112.685C125.532 113.962 126.262 115.094 127.33 115.834C128.399 116.574 129.718 116.86 130.998 116.63L162.141 111.02C163.42 110.788 164.554 110.059 165.295 108.994C166.035 107.929 166.321 106.614 166.09 105.339Z" fill="white" stroke="black" stroke-miterlimit="10"/>
<path d="M118.001 97.623C118.431 97.7061 118.855 97.829 119.275 97.9503C121.623 98.6325 120.854 98.4524 123.201 99.1346C125.837 99.8982 127.928 103.396 125.74 105.714C123.057 108.556 119.992 106.927 116.999 105.888C115.436 105.346 114.074 104.554 113.526 102.89C112.755 100.565 114.184 97.6767 116.785 97.5226C117.193 97.505 117.601 97.5388 118.001 97.623Z" fill="#9E7455" stroke="black" stroke-miterlimit="10"/>
<path d="M157.217 108.449L131.583 113.138C130.932 113.257 130.26 113.113 129.714 112.74C129.168 112.366 128.793 111.792 128.671 111.143L116.853 48.6344C116.792 48.3245 116.795 48.0056 116.861 47.6968C116.927 47.3879 117.054 47.0954 117.236 46.8369C117.418 46.5783 117.65 46.3588 117.918 46.1917C118.187 46.0245 118.487 45.9131 118.799 45.864V45.864L122.505 45.1991C122.685 45.1661 122.87 45.1973 123.029 45.2873C123.188 45.3772 123.31 45.5201 123.373 45.6908C123.675 46.5081 124.256 47.1932 125.014 47.6258C125.772 48.0584 126.659 48.2107 127.518 48.0561L141.444 45.5471C142.3 45.3935 143.074 44.9454 143.632 44.2809C144.191 43.6164 144.497 42.7777 144.499 41.9109V41.9109C144.499 41.7244 144.564 41.5438 144.684 41.4007C144.804 41.2576 144.971 41.1612 145.155 41.1282L148.09 40.5984C148.457 40.53 148.834 40.535 149.199 40.6128C149.564 40.6907 149.91 40.84 150.217 41.0521C150.524 41.2642 150.785 41.5348 150.986 41.8484C151.188 42.1619 151.325 42.5122 151.389 42.8788L153.742 56.1857" stroke="black" stroke-miterlimit="10"/>
<path d="M114.884 79.2982C115.313 79.3814 115.738 79.5043 116.158 79.6255L123.2 81.6687C125.835 82.434 127.926 85.93 125.738 88.2485C123.055 91.09 116.882 88.5948 113.88 87.5559C112.317 87.014 110.956 86.2209 110.407 84.5586C109.636 82.2332 111.063 79.345 113.665 79.1909C114.074 79.1763 114.483 79.2124 114.884 79.2982Z" fill="#9E7455" stroke="black" stroke-miterlimit="10"/>
<path d="M114.884 87.8952C115.313 87.9784 115.738 88.1013 116.158 88.2225L123.2 90.2657C125.835 91.0311 127.926 94.527 125.738 96.8455C123.055 99.687 116.882 97.2005 113.88 96.1529C112.317 95.611 110.956 94.8197 110.407 93.1556C109.636 90.8302 111.063 87.942 113.665 87.7879C114.074 87.7725 114.483 87.8085 114.884 87.8952Z" fill="#9E7455" stroke="black" stroke-miterlimit="10"/>
<path d="M189.109 128.69L188.193 124.879C188.115 123.923 177.251 97.4109 176.063 94.1476C174.874 90.8843 166.46 74.1617 166.46 74.1617C165.236 71.7051 164.583 68.9626 164.181 66.2673C164.181 66.2673 163.449 60.8753 163.232 57.5987C163.143 56.26 161.254 55.3758 159.984 55.8178C158.329 56.3922 156.939 57.542 156.173 59.8795C155.892 60.7645 155.814 61.7009 155.944 62.62L158.116 90.8493C150.573 109.274 164.986 117.978 164.986 117.978" fill="#9E7455"/>
<path d="M189.109 128.69L188.193 124.879C188.115 123.923 177.251 97.4109 176.063 94.1476C174.874 90.8843 166.46 74.1617 166.46 74.1617C165.236 71.7051 164.583 68.9626 164.181 66.2673C164.181 66.2673 163.449 60.8753 163.232 57.5987C163.143 56.26 161.254 55.3758 159.984 55.8178C158.329 56.3922 156.939 57.542 156.173 59.8795C155.892 60.7645 155.814 61.7009 155.944 62.62L158.116 90.8493C150.573 109.274 164.986 117.978 164.986 117.978" stroke="black" stroke-miterlimit="10"/>
<path d="M144.957 80.6296L136.338 82.188C135.9 82.2756 135.449 82.2753 135.011 82.1872C134.573 82.099 134.157 81.9248 133.788 81.6746C133.418 81.4244 133.102 81.1032 132.859 80.7299C132.615 80.3567 132.448 79.9387 132.368 79.5005C132.289 79.0622 132.297 78.6125 132.394 78.1777C132.49 77.7428 132.672 77.3314 132.93 76.9676C133.188 76.6037 133.515 76.2947 133.894 76.0587C134.273 75.8226 134.695 75.6641 135.136 75.5926L143.756 74.0342V74.0653C142.926 74.1734 142.168 74.592 141.636 75.2364C141.104 75.8808 140.837 76.7028 140.89 77.5358C140.943 78.3688 141.312 79.1506 141.921 79.7228C142.531 80.295 143.335 80.6148 144.172 80.6175C144.429 80.6176 144.684 80.5874 144.933 80.5274L144.957 80.6296Z" fill="#54FFBD"/>
<path d="M144.957 80.6297L144.895 80.2834L136.275 81.8417C136.096 81.8754 135.914 81.8923 135.731 81.892C135.026 81.8901 134.344 81.6422 133.803 81.1912C133.262 80.7402 132.896 80.1145 132.769 79.4228C132.737 79.2439 132.721 79.0625 132.72 78.8808C132.721 78.1773 132.97 77.4964 133.422 76.9566C133.875 76.4169 134.503 76.0524 135.197 75.9268L143.818 74.3684C144.25 74.2901 144.694 74.3069 145.119 74.4175C145.544 74.5282 145.94 74.7301 146.279 75.0091C146.826 75.461 147.195 76.0916 147.321 76.7891C147.399 77.2201 147.382 77.6629 147.271 78.0867C147.16 78.5105 146.958 78.905 146.678 79.2427C146.225 79.7891 145.593 80.1573 144.893 80.2816L144.956 80.6279L145.018 80.9742C145.872 80.8197 146.645 80.3711 147.202 79.7066C147.758 79.0421 148.063 78.2038 148.064 77.338C148.064 77.1151 148.044 76.8926 148.005 76.6731C147.849 75.8216 147.399 75.0516 146.732 74.4967C146.066 73.9418 145.226 73.6373 144.358 73.636C144.135 73.636 143.911 73.6557 143.691 73.6949L135.07 75.2532C134.216 75.4087 133.444 75.8576 132.887 76.5219C132.331 77.1862 132.025 78.0239 132.024 78.8895C132.024 79.1125 132.044 79.3351 132.085 79.5544C132.24 80.4062 132.69 81.1767 133.357 81.7319C134.023 82.2871 134.863 82.5918 135.731 82.5932C135.955 82.5927 136.178 82.5724 136.398 82.5326L145.02 80.9742L144.957 80.6297Z" fill="black"/>
<path d="M147.59 76.746L147.242 76.8066C147.275 76.9854 147.292 77.1667 147.293 77.3485C147.292 78.052 147.044 78.7329 146.591 79.2727C146.139 79.8125 145.511 80.1769 144.817 80.3025C144.637 80.3347 144.455 80.351 144.273 80.351C143.7 80.3507 143.138 80.1874 142.654 79.8803C142.171 79.5731 141.785 79.1348 141.542 78.6167C141.299 78.0987 141.21 77.5223 141.284 76.9553C141.358 76.3882 141.592 75.854 141.96 75.4151C142.327 74.9762 142.813 74.651 143.359 74.4775C143.906 74.304 144.491 74.2894 145.045 74.4354C145.599 74.5814 146.101 74.8821 146.49 75.302C146.879 75.722 147.14 76.2439 147.242 76.8066L147.59 76.746L147.937 76.6836C147.781 75.8318 147.331 75.0613 146.665 74.5061C145.999 73.951 145.159 73.6462 144.29 73.6448C144.067 73.6454 143.844 73.6657 143.624 73.7054C142.769 73.8599 141.996 74.3085 141.44 74.973C140.883 75.6375 140.578 76.4758 140.578 77.3416C140.578 77.5645 140.598 77.787 140.637 78.0065C140.793 78.858 141.243 79.6281 141.909 80.1829C142.575 80.7378 143.416 81.0423 144.284 81.0436C144.507 81.0436 144.73 81.0239 144.95 80.9848C145.804 80.829 146.577 80.3801 147.133 79.7159C147.69 79.0517 147.996 78.2141 147.998 77.3485C147.997 77.1255 147.977 76.903 147.937 76.6836L147.59 76.746Z" fill="black"/>
<path fill-rule="evenodd" clip-rule="evenodd" d="M134.755 56.8683C135.179 55.5838 136.875 55.3092 137.683 56.3943L144.688 65.8051C145.44 66.8141 144.847 68.2593 143.603 68.4514L132.952 70.0958C131.718 70.2863 130.719 69.1078 131.11 67.9235L134.755 56.8683ZM138.825 66.7511C138.902 67.2443 138.563 67.7059 138.07 67.7821C137.576 67.8583 137.114 67.5203 137.038 67.0271C136.962 66.5339 137.3 66.0723 137.793 65.9961C138.287 65.9199 138.749 66.2579 138.825 66.7511ZM136.735 59.15C136.241 59.2262 135.903 59.6878 135.979 60.181L136.531 63.7528C136.608 64.246 137.07 64.584 137.563 64.5078C138.057 64.4316 138.395 63.97 138.319 63.4768L137.766 59.905C137.69 59.4118 137.228 59.0738 136.735 59.15Z" fill="white"/>
<path d="M137.641 64.7663L137.641 64.7663C137.013 64.8777 136.414 64.4598 136.303 63.8324L135.67 60.2739L135.67 60.2738L135.916 60.2301L137.641 64.7663ZM137.641 64.7663C138.269 64.6549 138.687 64.0562 138.576 63.4287M137.641 64.7663L138.576 63.4287M138.576 63.4287L137.943 59.8702L137.943 59.8702L137.697 59.9139L138.576 63.4287ZM138.576 63.4287L138.576 63.4287L138.33 63.4725C138.417 63.9638 138.089 64.4329 137.597 64.5202L138.576 63.4287ZM136.882 67.0944L137.129 67.0507L136.883 67.0944C136.994 67.7219 137.593 68.1398 138.221 68.0284C138.848 67.917 139.267 67.3182 139.156 66.6908C139.044 66.0633 138.445 65.6454 137.817 65.7568C137.19 65.8682 136.771 66.4669 136.882 67.0944ZM144.553 65.8105L144.75 65.6568L144.553 65.8106C145.21 66.6537 144.735 67.8936 143.68 68.0807L133.069 69.9644L133.111 70.2023L133.069 69.9644C132.024 70.15 131.152 69.1669 131.461 68.1531L131.222 68.0802L131.461 68.1531L134.857 57.0187C135.192 55.9188 136.63 55.6526 137.337 56.5599L144.553 65.8105Z" fill="#D50A2E" stroke="black" stroke-width="0.5"/>
<path d="M98.9771 114.993H33.3341C34.4481 108.686 39.9768 103.863 46.6195 103.863C46.7845 103.863 46.9496 103.863 47.1559 103.863C50.4978 97.9681 56.8105 93.9695 64.072 93.9695C72.8602 93.9695 80.2868 99.8232 82.6798 107.82C84.4127 106.213 86.7232 105.265 89.2813 105.265C94.6037 105.265 98.9771 109.634 98.9771 114.993Z" fill="#A883F8"/>
<path d="M81.4676 120.682H14.5613L14.685 119.983C15.8813 113.283 21.6974 108.433 28.5448 108.433C28.586 108.433 28.6685 108.433 28.7098 108.433C32.2985 102.35 38.8571 98.5686 45.952 98.5686C54.4493 98.5686 62.0804 104.035 64.8441 111.968C66.6591 110.571 68.8453 109.831 71.114 109.831C76.8064 109.831 81.4263 114.434 81.4263 120.106V120.682H81.4676ZM15.9638 119.49H80.2713C79.9826 114.763 75.9814 110.982 71.1553 110.982C68.8453 110.982 66.6591 111.845 64.9679 113.407L64.2666 114.023L63.9779 113.119C61.6267 105.227 54.2018 99.7195 45.9107 99.7195C39.1046 99.7195 32.8347 103.378 29.4935 109.296L29.3285 109.625H28.9573C28.7923 109.625 28.6273 109.625 28.4623 109.625C22.4811 109.584 17.325 113.694 15.9638 119.49Z" fill="white"/>
<path d="M223.793 51.331H177.361C178.135 46.8586 182.041 43.4839 186.762 43.4839C186.884 43.4839 187.006 43.4839 187.128 43.4839C189.488 39.2961 193.964 36.4907 199.092 36.4907C205.318 36.4907 210.567 40.6379 212.236 46.2894C213.457 45.1509 215.084 44.4597 216.875 44.4597C220.7 44.4597 223.793 47.5498 223.793 51.331Z" fill="#A883F8"/>
<path d="M249.43 62.8776H220.619C221.107 60.1129 223.549 57.9986 226.438 57.9986C226.519 57.9986 226.601 57.9986 226.682 57.9986C228.147 55.3965 230.914 53.6482 234.129 53.6482C237.995 53.6482 241.25 56.2097 242.308 59.7469C243.082 59.0558 244.099 58.6085 245.198 58.6085C247.517 58.6492 249.43 60.5601 249.43 62.8776Z" fill="#A883F8"/>
<path fill-rule="evenodd" clip-rule="evenodd" d="M59.0742 44.416C58.6462 44.416 58.2993 44.763 58.2993 45.1911C58.2993 45.6191 58.6462 45.9662 59.0742 45.9662C59.5021 45.9662 59.849 45.6191 59.849 45.1911C59.849 44.763 59.5021 44.416 59.0742 44.416ZM57.7677 45.1911C57.7677 44.4694 58.3526 43.8843 59.0742 43.8843C59.7957 43.8843 60.3806 44.4694 60.3806 45.1911C60.3806 45.9128 59.7957 46.4979 59.0742 46.4979C58.3526 46.4979 57.7677 45.9128 57.7677 45.1911Z" fill="white"/>
<path fill-rule="evenodd" clip-rule="evenodd" d="M245.268 132.185C244.84 132.185 244.493 132.532 244.493 132.96C244.493 133.388 244.84 133.735 245.268 133.735C245.696 133.735 246.043 133.388 246.043 132.96C246.043 132.532 245.696 132.185 245.268 132.185ZM243.961 132.96C243.961 132.238 244.546 131.653 245.268 131.653C245.989 131.653 246.574 132.238 246.574 132.96C246.574 133.681 245.989 134.266 245.268 134.266C244.546 134.266 243.961 133.681 243.961 132.96Z" fill="white"/>
<path fill-rule="evenodd" clip-rule="evenodd" d="M168.642 39.8846C168.214 39.8846 167.867 40.2316 167.867 40.6596C167.867 41.0876 168.214 41.4347 168.642 41.4347C169.07 41.4347 169.417 41.0876 169.417 40.6596C169.417 40.2316 169.07 39.8846 168.642 39.8846ZM167.335 40.6596C167.335 39.9379 167.92 39.3528 168.642 39.3528C169.363 39.3528 169.948 39.9379 169.948 40.6596C169.948 41.3813 169.363 41.9664 168.642 41.9664C167.92 41.9664 167.335 41.3813 167.335 40.6596Z" fill="white"/>
<path d="M220.404 104.54C220.374 104.54 220.343 104.534 220.315 104.522C220.287 104.51 220.261 104.493 220.239 104.471C220.217 104.45 220.2 104.424 220.188 104.395C220.177 104.367 220.171 104.337 220.171 104.306V102.189C220.175 102.131 220.201 102.076 220.245 102.036C220.288 101.995 220.345 101.973 220.404 101.973C220.463 101.973 220.52 101.995 220.563 102.036C220.606 102.076 220.633 102.131 220.637 102.189V104.306C220.637 104.337 220.631 104.367 220.62 104.395C220.608 104.424 220.591 104.45 220.569 104.471C220.548 104.493 220.522 104.51 220.494 104.522C220.465 104.534 220.435 104.54 220.404 104.54Z" fill="white"/>
<path d="M110.121 136.976C110.09 136.976 110.059 136.97 110.031 136.958C110.003 136.947 109.977 136.929 109.955 136.908C109.933 136.886 109.916 136.86 109.904 136.832C109.893 136.803 109.887 136.773 109.887 136.742V134.626C109.891 134.567 109.918 134.512 109.961 134.472C110.004 134.432 110.061 134.409 110.12 134.409C110.179 134.409 110.236 134.432 110.279 134.472C110.322 134.512 110.349 134.567 110.353 134.626V136.742C110.353 136.773 110.347 136.803 110.336 136.832C110.324 136.86 110.307 136.886 110.285 136.908C110.264 136.929 110.238 136.947 110.21 136.958C110.182 136.97 110.151 136.976 110.121 136.976Z" fill="white"/>
<path d="M71.927 83.7902C71.8963 83.7902 71.8659 83.7841 71.8375 83.7724C71.8091 83.7606 71.7833 83.7434 71.7616 83.7216C71.7399 83.6999 71.7227 83.6741 71.7109 83.6457C71.6992 83.6173 71.6931 83.5869 71.6931 83.5562V81.4397C71.6976 81.3809 71.7241 81.3259 71.7673 81.2858C71.8106 81.2457 71.8674 81.2234 71.9264 81.2234C71.9854 81.2234 72.0422 81.2457 72.0854 81.2858C72.1287 81.3259 72.1552 81.3809 72.1596 81.4397V83.5562C72.1598 83.5869 72.1539 83.6172 72.1423 83.6456C72.1307 83.674 72.1136 83.6998 72.092 83.7216C72.0704 83.7433 72.0447 83.7606 72.0164 83.7723C71.988 83.7841 71.9577 83.7902 71.927 83.7902Z" fill="white"/>
<path fill-rule="evenodd" clip-rule="evenodd" d="M220.404 102.106C220.378 102.106 220.354 102.116 220.335 102.133C220.318 102.149 220.306 102.172 220.304 102.195V104.306C220.304 104.319 220.306 104.332 220.311 104.344C220.316 104.357 220.324 104.368 220.333 104.377C220.343 104.387 220.354 104.394 220.366 104.399C220.378 104.404 220.391 104.407 220.405 104.407C220.418 104.407 220.431 104.404 220.443 104.399C220.455 104.394 220.466 104.387 220.475 104.377C220.484 104.368 220.492 104.357 220.497 104.345C220.502 104.333 220.504 104.32 220.504 104.307L220.504 104.306V102.195C220.501 102.172 220.49 102.149 220.473 102.133C220.454 102.116 220.429 102.106 220.404 102.106ZM220.154 101.938C220.222 101.875 220.311 101.84 220.404 101.84C220.496 101.84 220.585 101.875 220.653 101.938C220.721 102.001 220.763 102.087 220.77 102.179L220.77 102.184V104.305" fill="white"/>
<path fill-rule="evenodd" clip-rule="evenodd" d="M110.12 134.542C110.094 134.542 110.07 134.552 110.051 134.569C110.034 134.586 110.022 134.608 110.02 134.632V136.742C110.02 136.755 110.022 136.768 110.027 136.781C110.032 136.793 110.04 136.804 110.049 136.814C110.059 136.823 110.07 136.83 110.082 136.835C110.094 136.84 110.107 136.843 110.121 136.843C110.134 136.843 110.147 136.841 110.159 136.835C110.171 136.83 110.182 136.823 110.191 136.814C110.201 136.804 110.208 136.793 110.213 136.781C110.218 136.769 110.22 136.756 110.22 136.743L110.22 136.742V134.632C110.218 134.608 110.206 134.586 110.189 134.569C110.17 134.552 110.145 134.542 110.12 134.542ZM109.871 134.374C109.938 134.311 110.027 134.276 110.12 134.276C110.212 134.276 110.302 134.311 110.369 134.374C110.437 134.437 110.479 134.523 110.486 134.616L110.486 134.621V136.742" fill="white"/>
<path fill-rule="evenodd" clip-rule="evenodd" d="M71.9264 81.3565C71.901 81.3565 71.8764 81.3661 71.8577 81.3834C71.84 81.3998 71.8288 81.422 71.8261 81.4459V83.5563C71.8261 83.5696 71.8287 83.5827 71.8338 83.595C71.8388 83.6072 71.8463 83.6184 71.8557 83.6277C71.865 83.6371 71.8762 83.6446 71.8884 83.6497C71.9007 83.6547 71.9138 83.6573 71.9271 83.6573C71.9402 83.6573 71.9532 83.6547 71.9654 83.6497C71.9775 83.6447 71.9885 83.6373 71.9978 83.6279C72.007 83.6186 72.0144 83.6076 72.0193 83.5954C72.0243 83.5832 72.0268 83.5702 72.0268 83.5571L72.0268 83.5563V81.4459C72.024 81.422 72.0128 81.3998 71.9951 81.3834C71.9764 81.3661 71.9519 81.3565 71.9264 81.3565ZM71.677 81.1885C71.7448 81.1255 71.8339 81.0906 71.9264 81.0906C72.0189 81.0906 72.108 81.1255 72.1758 81.1885C72.2437 81.2514 72.2852 81.3376 72.2922 81.4299L72.2926 81.4349V83.556" fill="white"/>
<path d="M221.7 103.248C221.7 103.278 221.695 103.309 221.683 103.337C221.671 103.365 221.654 103.391 221.633 103.413C221.611 103.435 221.585 103.452 221.557 103.464C221.529 103.475 221.498 103.482 221.468 103.482H219.352C219.293 103.477 219.238 103.451 219.198 103.407C219.158 103.364 219.135 103.307 219.135 103.248C219.135 103.189 219.158 103.132 219.198 103.089C219.238 103.046 219.293 103.019 219.352 103.015H221.468C221.529 103.015 221.588 103.039 221.632 103.083C221.676 103.127 221.7 103.186 221.7 103.248Z" fill="white"/>
<path d="M111.416 135.684C111.417 135.714 111.411 135.745 111.399 135.773C111.387 135.802 111.37 135.827 111.349 135.849C111.327 135.871 111.301 135.888 111.273 135.9C111.245 135.912 111.214 135.918 111.184 135.918H109.068C109.009 135.913 108.954 135.887 108.914 135.844C108.874 135.8 108.852 135.744 108.852 135.684C108.852 135.625 108.874 135.569 108.914 135.525C108.954 135.482 109.009 135.456 109.068 135.451H111.184C111.245 135.451 111.305 135.476 111.348 135.519C111.392 135.563 111.416 135.622 111.416 135.684Z" fill="white"/>
<path d="M73.2228 82.498C73.223 82.5287 73.2171 82.5591 73.2055 82.5875C73.1939 82.6158 73.1768 82.6416 73.1552 82.6634C73.1335 82.6851 73.1078 82.7024 73.0795 82.7142C73.0512 82.7259 73.0209 82.732 72.9902 82.732H70.8744C70.8156 82.7275 70.7606 82.701 70.7205 82.6578C70.6804 82.6145 70.6581 82.5577 70.6581 82.4987C70.6581 82.4397 70.6804 82.3829 70.7205 82.3396C70.7606 82.2963 70.8156 82.2698 70.8744 82.2654H72.9902C73.0519 82.2654 73.1111 82.2899 73.1547 82.3335C73.1983 82.3771 73.2228 82.4363 73.2228 82.498Z" fill="white"/>
<path fill-rule="evenodd" clip-rule="evenodd" d="M219.347 102.882H221.468C221.565 102.882 221.658 102.92 221.726 102.989C221.795 103.057 221.833 103.15 221.833 103.247M219.358 103.148C219.334 103.15 219.312 103.162 219.295 103.179C219.278 103.198 219.268 103.223 219.268 103.248C219.268 103.274 219.278 103.298 219.295 103.317C219.312 103.335 219.334 103.346 219.358 103.348H221.468C221.481 103.348 221.494 103.346 221.506 103.341C221.518 103.336 221.529 103.328 221.538 103.319C221.548 103.31 221.555 103.299 221.56 103.287C221.565 103.274 221.567 103.261 221.567 103.248L221.567 103.247C221.567 103.221 221.557 103.196 221.538 103.177C221.519 103.158 221.494 103.148 221.468 103.148H219.358Z" fill="white"/>
<path fill-rule="evenodd" clip-rule="evenodd" d="M109.063 135.318H111.184C111.281 135.318 111.374 135.357 111.442 135.425C111.511 135.494 111.549 135.587 111.549 135.683M109.074 135.584C109.05 135.587 109.028 135.598 109.011 135.616C108.994 135.634 108.984 135.659 108.984 135.684C108.984 135.71 108.994 135.734 109.011 135.753C109.028 135.771 109.05 135.782 109.074 135.785H111.184C111.197 135.785 111.21 135.782 111.222 135.777C111.234 135.772 111.245 135.765 111.254 135.755C111.264 135.746 111.271 135.735 111.276 135.723C111.281 135.711 111.283 135.698 111.283 135.684L111.283 135.684C111.283 135.657 111.273 135.632 111.254 135.613C111.236 135.595 111.21 135.584 111.184 135.584H109.074Z" fill="white"/>
<path fill-rule="evenodd" clip-rule="evenodd" d="M70.8693 82.1323H72.9902C73.0871 82.1323 73.1801 82.1708 73.2486 82.2394C73.3171 82.3079 73.3556 82.4007 73.3557 82.4976M70.8804 82.3982C70.8565 82.401 70.8343 82.4122 70.8179 82.4299C70.8006 82.4486 70.791 82.4731 70.791 82.4986C70.791 82.5241 70.8006 82.5486 70.8179 82.5673C70.8343 82.585 70.8565 82.5962 70.8804 82.599H72.9902C73.0033 82.599 73.0163 82.5964 73.0285 82.5913C73.0406 82.5863 73.0516 82.5789 73.0609 82.5695C73.0701 82.5602 73.0775 82.5492 73.0825 82.537C73.0874 82.5248 73.0899 82.5118 73.0899 82.4987L73.0899 82.4979C73.0899 82.4715 73.0794 82.4461 73.0607 82.4274C73.042 82.4087 73.0166 82.3982 72.9902 82.3982H70.8804Z" fill="white"/>
</svg>
