<svg width="117" height="80" viewBox="0 0 117 80" fill="none" xmlns="http://www.w3.org/2000/svg">
<path fill-rule="evenodd" clip-rule="evenodd" d="M111.181 79.914V80H76.0745V79.985C75.8985 79.995 75.7211 80 75.5426 80C70.5485 80 66.5 76.0535 66.5 71.1852C66.5 66.3169 70.5485 62.3704 75.5426 62.3704C75.7211 62.3704 75.8985 62.3754 76.0745 62.3854L76.0745 62.3704C76.0745 56.643 80.8374 52 86.7128 52C91.5864 52 95.6946 55.1947 96.9538 59.5531C97.7632 59.3611 98.6087 59.2593 99.4787 59.2593C104.625 59.2593 108.919 62.822 109.904 67.5556H111.181V67.6416C114.2 68.1353 116.5 70.6947 116.5 73.7778C116.5 76.8609 114.2 79.4203 111.181 79.914Z" fill="url(#paint0_linear_104_4389)"/>
<path fill-rule="evenodd" clip-rule="evenodd" d="M5.81915 27.914C2.80031 27.4203 0.5 24.8609 0.5 21.7778C0.5 18.6947 2.80031 16.1353 5.81915 15.6416V15.5556H7.09578C8.08146 10.822 12.3746 7.25926 17.5213 7.25926C18.3913 7.25926 19.2368 7.36106 20.0462 7.5531C21.3054 3.19473 25.4136 0 30.2872 0C36.1626 0 40.9255 4.64297 40.9255 10.3704C40.9255 10.3754 40.9255 10.3804 40.9255 10.3854C41.1015 10.3754 41.2789 10.3704 41.4574 10.3704C46.4515 10.3704 50.5 14.3169 50.5 19.1852C50.5 24.0535 46.4515 28 41.4574 28C41.2789 28 41.1015 27.995 40.9255 27.985V28H5.81915V27.914Z" fill="url(#paint1_linear_104_4389)"/>
<path fill-rule="evenodd" clip-rule="evenodd" d="M78 2H40C37.4804 2 35.0641 3.00089 33.2825 4.78249C31.5009 6.56408 30.5 8.98044 30.5 11.5V25H24.5C23.3954 25 22.5 25.8954 22.5 27V39C22.5 40.1046 23.3954 41 24.5 41H30.5V68.5C30.5 71.0196 31.5009 73.4359 33.2825 75.2175C35.0641 76.9991 37.4804 78 40 78H78C80.5196 78 82.9359 76.9991 84.7175 75.2175C86.4991 73.4359 87.5 71.0196 87.5 68.5V41H92.5C93.6046 41 94.5 40.1046 94.5 39V27C94.5 25.8954 93.6046 25 92.5 25H87.5V11.5C87.5 8.98044 86.4991 6.56408 84.7175 4.78249C82.9359 3.00089 80.5196 2 78 2ZM40 61.375V41H78V61.375C78 62.0049 77.7498 62.609 77.3044 63.0544C76.859 63.4998 76.2549 63.75 75.625 63.75H42.375C41.7451 63.75 41.141 63.4998 40.6956 63.0544C40.2502 62.609 40 62.0049 40 61.375ZM40 25H78V13.875C78 13.2451 77.7498 12.641 77.3044 12.1956C76.859 11.7502 76.2549 11.5 75.625 11.5H42.375C41.7451 11.5 41.141 11.7502 40.6956 12.1956C40.2502 12.641 40 13.2451 40 13.875V25ZM63.75 73.25H54.25V68.5H63.75V73.25ZM34.4531 33.7748L34.3061 36.3636H35.8594L35.7187 33.7748L37.892 35.2003L38.6719 33.8452L36.3452 32.6818L38.6719 31.5185L37.892 30.1633L35.7187 31.5888L35.8594 29H34.3061L34.4531 31.5888L32.2798 30.1633L31.5 31.5185L33.8203 32.6818L31.5 33.8452L32.2798 35.2003L34.4531 33.7748ZM46.2065 33.7748L46.0595 36.3636H47.6128L47.4722 33.7748L49.6455 35.2003L50.4253 33.8452L48.0986 32.6818L50.4253 31.5185L49.6455 30.1633L47.4722 31.5888L47.6128 29H46.0595L46.2065 31.5888L44.0333 30.1633L43.2534 31.5185L45.5737 32.6818L43.2534 33.8452L44.0333 35.2003L46.2065 33.7748ZM57.96 33.7748L57.813 36.3636H59.3662L59.2256 33.7748L61.3989 35.2003L62.1787 33.8452L59.852 32.6818L62.1787 31.5185L61.3989 30.1633L59.2256 31.5888L59.3662 29H57.813L57.96 31.5888L55.7867 30.1633L55.0069 31.5185L57.3272 32.6818L55.0069 33.8452L55.7867 35.2003L57.96 33.7748ZM69.7134 33.7748L69.5664 36.3636H71.1197L70.979 33.7748L73.1523 35.2003L73.9322 33.8452L71.6055 32.6818L73.9322 31.5185L73.1523 30.1633L70.979 31.5888L71.1197 29H69.5664L69.7134 31.5888L67.5401 30.1633L66.7603 31.5185L69.0806 32.6818L66.7603 33.8452L67.5401 35.2003L69.7134 33.7748ZM81.4669 33.7748L81.3198 36.3636H82.8731L82.7325 33.7748L84.9058 35.2003L85.6856 33.8452L83.3589 32.6818L85.6856 31.5185L84.9058 30.1633L82.7325 31.5888L82.8731 29H81.3198L81.4669 31.5888L79.2936 30.1633L78.5137 31.5185L80.834 32.6818L78.5137 33.8452L79.2936 35.2003L81.4669 33.7748Z" fill="url(#paint2_radial_104_4389)"/>
<defs>
<linearGradient id="paint0_linear_104_4389" x1="115.9" y1="86.7479" x2="125.154" y2="54.4819" gradientUnits="userSpaceOnUse">
<stop stop-color="white" stop-opacity="0.01"/>
<stop offset="1" stop-opacity="0.15"/>
</linearGradient>
<linearGradient id="paint1_linear_104_4389" x1="49.4564" y1="20.8721" x2="40.6391" y2="-10.6182" gradientUnits="userSpaceOnUse">
<stop stop-color="white" stop-opacity="0.01"/>
<stop offset="1" stop-opacity="0.15"/>
</linearGradient>
<radialGradient id="paint2_radial_104_4389" cx="0" cy="0" r="1" gradientUnits="userSpaceOnUse" gradientTransform="translate(94.5 2) rotate(133.452) scale(104.69 104.537)">
<stop stop-color="#9D62FC"/>
<stop offset="1" stop-color="#FD3296"/>
</radialGradient>
</defs>
</svg>
