<svg width="151" height="104" viewBox="0 0 151 104" fill="none" xmlns="http://www.w3.org/2000/svg">
<path fill-rule="evenodd" clip-rule="evenodd" d="M143.885 47.9882V48.1H98.2466V48.0805C98.0178 48.0935 97.7873 48.1 97.5551 48.1C91.0628 48.1 85.7998 42.9695 85.7998 36.6408C85.7998 30.312 91.0628 25.1815 97.5551 25.1815C97.7873 25.1815 98.0178 25.1881 98.2466 25.201L98.2466 25.1815C98.2466 17.7359 104.438 11.7 112.076 11.7C118.412 11.7 123.753 15.8532 125.39 21.519C126.442 21.2694 127.541 21.137 128.672 21.137C135.363 21.137 140.944 25.7686 142.225 31.9222H143.885V32.0341C147.809 32.6759 150.8 36.0031 150.8 40.0111C150.8 44.0192 147.809 47.3463 143.885 47.9882Z" fill="url(#paint0_linear_1061_2560)"/>
<path fill-rule="evenodd" clip-rule="evenodd" d="M6.91489 92.1882C2.9904 91.5463 0 88.2191 0 84.2111C0 80.2031 2.9904 76.8759 6.91489 76.2341V76.1222H8.57452C9.8559 69.9686 15.4369 65.337 22.1277 65.337C23.2586 65.337 24.3579 65.4694 25.4101 65.719C27.047 60.0531 32.3877 55.9 38.7234 55.9C46.3614 55.9 52.5532 61.9359 52.5532 69.3815C52.5532 69.388 52.5532 69.3945 52.5532 69.401C52.782 69.388 53.0125 69.3815 53.2447 69.3815C59.737 69.3815 65 74.512 65 80.8407C65 87.1695 59.737 92.3 53.2447 92.3C53.0125 92.3 52.782 92.2934 52.5532 92.2805V92.3H6.91489V92.1882V92.1882Z" fill="url(#paint1_linear_1061_2560)"/>
<path fill-rule="evenodd" clip-rule="evenodd" d="M103.255 44.8347H106.793C109.608 44.8347 112.307 45.9499 114.298 47.9351C116.288 49.9203 117.406 52.6129 117.406 55.4204V55.5854C112.696 51.72 106.669 49.4 100.1 49.4C85.0226 49.4 72.8 61.6226 72.8 76.7C72.8 87.6129 79.2032 97.0303 88.4574 101.4H43.1133C40.2985 101.4 37.5989 100.285 35.6086 98.2995C33.6182 96.3143 32.5 93.6218 32.5 90.8143V55.4204C32.5 52.6129 33.6182 49.9203 35.6086 47.9351C37.5989 45.9499 40.2985 44.8347 43.1133 44.8347H46.651V30.8286C46.651 23.3419 49.6329 16.1618 54.9405 10.868C60.2482 5.57408 67.4469 2.60001 74.9531 2.60001C82.4593 2.60001 89.6581 5.57408 94.9657 10.868C100.273 16.1618 103.255 23.3419 103.255 30.8286V44.8347ZM64.9468 20.8483C62.293 23.4952 60.8021 27.0852 60.8021 30.8286V44.8347H89.1042V30.8286C89.1042 27.0852 87.6133 23.4952 84.9594 20.8483C82.3056 18.2013 78.7062 16.7143 74.9531 16.7143C71.2 16.7143 67.6007 18.2013 64.9468 20.8483Z" fill="url(#paint2_radial_1061_2560)"/>
<rect x="80.6001" y="55.9" width="41.6" height="41.6" rx="20.8" fill="#0060DF"/>
<path d="M102.7 67.6003L102.7 82.6621L108.281 77.0812C108.791 76.5885 109.602 76.5956 110.103 77.097C110.605 77.5985 110.612 78.4093 110.119 78.9194L102.319 86.7194C101.811 87.2269 100.988 87.2269 100.481 86.7194L92.6808 78.9194C92.1881 78.4093 92.1951 77.5985 92.6966 77.097C93.1981 76.5956 94.0089 76.5885 94.519 77.0812L100.1 82.6621L100.1 67.6003C100.1 66.8823 100.682 66.3003 101.4 66.3003C102.118 66.3003 102.7 66.8823 102.7 67.6003Z" fill="white"/>
<defs>
<linearGradient id="paint0_linear_1061_2560" x1="150.02" y1="56.8723" x2="162.05" y2="14.9265" gradientUnits="userSpaceOnUse">
<stop stop-color="white" stop-opacity="0.01"/>
<stop offset="1" stop-opacity="0.15"/>
</linearGradient>
<linearGradient id="paint1_linear_1061_2560" x1="63.6433" y1="83.0337" x2="52.1809" y2="42.0964" gradientUnits="userSpaceOnUse">
<stop stop-color="white" stop-opacity="0.01"/>
<stop offset="1" stop-opacity="0.15"/>
</linearGradient>
<radialGradient id="paint2_radial_1061_2560" cx="0" cy="0" r="1" gradientUnits="userSpaceOnUse" gradientTransform="translate(117.406 2.60001) rotate(130.675) scale(130.271 128.789)">
<stop stop-color="#0060DF"/>
<stop offset="1" stop-color="#3FE1B0"/>
</radialGradient>
</defs>
</svg>
