<svg width="116" height="80" viewBox="0 0 116 80" fill="none" xmlns="http://www.w3.org/2000/svg">
<path fill-rule="evenodd" clip-rule="evenodd" d="M110.681 36.914V37H75.5745V36.985C75.3985 36.995 75.2211 37 75.0426 37C70.0485 37 66 33.0535 66 28.1852C66 23.3169 70.0485 19.3704 75.0426 19.3704C75.2211 19.3704 75.3985 19.3754 75.5745 19.3854L75.5745 19.3704C75.5745 13.643 80.3374 9 86.2128 9C91.0864 9 95.1946 12.1947 96.4538 16.5531C97.2632 16.3611 98.1087 16.2593 98.9787 16.2593C104.125 16.2593 108.419 19.822 109.404 24.5556H110.681V24.6416C113.7 25.1353 116 27.6947 116 30.7778C116 33.8609 113.7 36.4203 110.681 36.914Z" fill="url(#paint0_linear_385_2331)"/>
<path fill-rule="evenodd" clip-rule="evenodd" d="M5.31915 70.914C2.30031 70.4203 0 67.8609 0 64.7778C0 61.6947 2.30031 59.1353 5.31915 58.6416V58.5556H6.59578C7.58146 53.822 11.8746 50.2593 17.0213 50.2593C17.8913 50.2593 18.7368 50.3611 19.5462 50.5531C20.8054 46.1947 24.9136 43 29.7872 43C35.6626 43 40.4255 47.643 40.4255 53.3704C40.4255 53.3754 40.4255 53.3804 40.4255 53.3854C40.6015 53.3754 40.7789 53.3704 40.9574 53.3704C45.9515 53.3704 50 57.3169 50 62.1852C50 67.0535 45.9515 71 40.9574 71C40.7789 71 40.6015 70.995 40.4255 70.985V71H5.31915V70.914V70.914Z" fill="url(#paint1_linear_385_2331)"/>
<path fill-rule="evenodd" clip-rule="evenodd" d="M35.8333 16.3333C34.0917 16.3333 32.6667 17.7583 32.6667 19.5V51.1667H56.1895C56.0645 52.0933 56 53.0391 56 54C56 56.3304 56.3796 58.5721 57.0803 60.6667H24.75C22.1217 60.6667 20 58.545 20 55.9167C20 53.2883 22.1217 51.1667 24.75 51.1667H26.3333V16.3333C26.3333 12.85 29.1833 10 32.6667 10H86.5C88.2417 10 89.6667 11.425 89.6667 13.1667C89.6667 14.9083 88.2417 16.3333 86.5 16.3333H35.8333ZM96 45.0441V25.8333C96 24.0917 94.575 22.6667 92.8333 22.6667H73.8333C72.0917 22.6667 70.6667 24.0917 70.6667 25.8333V33.9719C72.6651 33.3405 74.7928 33 77 33V29H89.6667V37.2487C92.3585 39.2874 94.5437 41.9599 96 45.0441Z" fill="url(#paint2_radial_385_2331)"/>
<rect x="61" y="38" width="32" height="32" rx="16" fill="#C50042"/>
<path d="M83.6929 58.0119L78.7399 48.1059C78.5739 47.7736 78.3185 47.4941 78.0025 47.2988C77.6866 47.1035 77.3224 47 76.9509 47C76.5795 47 76.2153 47.1035 75.8993 47.2988C75.5834 47.4941 75.328 47.7736 75.1619 48.1059L70.2089 58.0159C70.0575 58.3206 69.9863 58.659 70.0022 58.999C70.018 59.3389 70.1203 59.6692 70.2995 59.9586C70.4786 60.2479 70.7286 60.4868 71.0258 60.6526C71.323 60.8183 71.6576 60.9055 71.9979 60.9059H81.9029C82.2439 60.906 82.5792 60.819 82.8771 60.6531C83.1749 60.4872 83.4255 60.2479 83.6048 59.9579C83.7842 59.668 83.8864 59.337 83.9018 58.9964C83.9172 58.6557 83.8453 58.3169 83.6929 58.0119V58.0119ZM75.9509 50.9059C75.9509 50.6406 76.0563 50.3863 76.2438 50.1988C76.4314 50.0112 76.6857 49.9059 76.9509 49.9059C77.2162 49.9059 77.4705 50.0112 77.658 50.1988C77.8456 50.3863 77.9509 50.6406 77.9509 50.9059V54.9059C77.9509 55.1711 77.8456 55.4254 77.658 55.613C77.4705 55.8005 77.2162 55.9059 76.9509 55.9059C76.6857 55.9059 76.4314 55.8005 76.2438 55.613C76.0563 55.4254 75.9509 55.1711 75.9509 54.9059V50.9059ZM76.9509 59.1559C76.7037 59.1559 76.462 59.0826 76.2565 58.9452C76.0509 58.8078 75.8907 58.6126 75.7961 58.3842C75.7015 58.1558 75.6767 57.9045 75.725 57.662C75.7732 57.4195 75.8922 57.1968 76.0671 57.022C76.2419 56.8472 76.4646 56.7281 76.7071 56.6799C76.9496 56.6317 77.2009 56.6564 77.4293 56.751C77.6577 56.8456 77.8529 57.0058 77.9903 57.2114C78.1276 57.417 78.2009 57.6586 78.2009 57.9059C78.2009 58.2374 78.0692 58.5553 77.8348 58.7897C77.6004 59.0242 77.2825 59.1559 76.9509 59.1559V59.1559Z" fill="white"/>
<defs>
<linearGradient id="paint0_linear_385_2331" x1="115.4" y1="43.7479" x2="124.654" y2="11.4819" gradientUnits="userSpaceOnUse">
<stop stop-opacity="0.01"/>
<stop offset="1" stop-opacity="0.15"/>
</linearGradient>
<linearGradient id="paint1_linear_385_2331" x1="48.9564" y1="63.8721" x2="40.1391" y2="32.3818" gradientUnits="userSpaceOnUse">
<stop stop-opacity="0.01"/>
<stop offset="1" stop-opacity="0.15"/>
</linearGradient>
<radialGradient id="paint2_radial_385_2331" cx="0" cy="0" r="1" gradientUnits="userSpaceOnUse" gradientTransform="translate(96 10) rotate(-33.6901) scale(91.3406 84.3144)">
<stop stop-color="#B833E1"/>
<stop offset="0.371" stop-color="#9059FF"/>
<stop offset="0.614" stop-color="#5B6DF8"/>
<stop offset="1" stop-color="#0090ED"/>
</radialGradient>
</defs>
</svg>
