<svg width="24" height="24" viewBox="0 0 24 24" fill="none" xmlns="http://www.w3.org/2000/svg">
<path d="M6 8.25C6 7.8375 6.3375 7.5 6.75 7.5H18.75C19.1625 7.5 19.5 7.1625 19.5 6.75C19.5 6.3375 19.1625 6 18.75 6H6C5.175 6 4.5 6.675 4.5 7.5V15.75H4.125C3.5025 15.75 3 16.2525 3 16.875C3 17.4975 3.5025 18 4.125 18H13.5V15.75H6V8.25ZM20.25 9H15.75C15.3375 9 15 9.3375 15 9.75V17.25C15 17.6625 15.3375 18 15.75 18H20.25C20.6625 18 21 17.6625 21 17.25V9.75C21 9.3375 20.6625 9 20.25 9ZM19.5 15.75H16.5V10.5H19.5V15.75Z" fill="#3D3D3D"/>
</svg>
