<svg width="184" height="184" viewBox="0 0 184 184" fill="none" xmlns="http://www.w3.org/2000/svg">
<g clip-path="url(#clip0_382_709)">
<path fill-rule="evenodd" clip-rule="evenodd" d="M41.0167 37.5667C37.0108 37.5667 33.7333 40.8442 33.7333 44.85V117.683H87.8359C87.5484 119.815 87.4 121.99 87.4 124.2C87.4 129.56 88.273 134.716 89.8847 139.533H15.525C9.47983 139.533 4.6 134.654 4.6 128.608C4.6 122.563 9.47983 117.683 15.525 117.683H19.1667V37.5667C19.1667 29.555 25.7217 23 33.7333 23H157.55C161.556 23 164.833 26.2775 164.833 30.2833C164.833 34.2892 161.556 37.5667 157.55 37.5667H41.0167ZM179.4 103.601V59.4167C179.4 55.4108 176.122 52.1333 172.117 52.1333H128.417C124.411 52.1333 121.133 55.4108 121.133 59.4167V78.1353C125.73 76.6832 130.623 75.9 135.7 75.9L135.7 66.7H164.833V85.6721C171.024 90.3609 176.05 96.5078 179.4 103.601Z" fill="url(#paint0_radial_382_709)"/>
<rect x="98.9" y="87.4" width="73.6" height="73.6" rx="36.8" fill="#C50042"/>
<path d="M151.094 133.427L139.702 110.643C139.32 109.879 138.733 109.236 138.006 108.787C137.279 108.338 136.442 108.1 135.587 108.1C134.733 108.1 133.895 108.338 133.168 108.787C132.442 109.236 131.854 109.879 131.472 110.643L120.081 133.436C119.732 134.137 119.569 134.916 119.605 135.698C119.641 136.479 119.877 137.239 120.289 137.905C120.701 138.57 121.276 139.12 121.959 139.501C122.643 139.882 123.413 140.083 124.195 140.083H146.977C147.761 140.084 148.532 139.884 149.217 139.502C149.902 139.121 150.479 138.57 150.891 137.903C151.304 137.236 151.539 136.475 151.574 135.692C151.61 134.908 151.444 134.129 151.094 133.427V133.427ZM133.287 117.083C133.287 116.473 133.529 115.888 133.961 115.457C134.392 115.026 134.977 114.783 135.587 114.783C136.197 114.783 136.782 115.026 137.214 115.457C137.645 115.888 137.887 116.473 137.887 117.083V126.283C137.887 126.893 137.645 127.479 137.214 127.91C136.782 128.341 136.197 128.583 135.587 128.583C134.977 128.583 134.392 128.341 133.961 127.91C133.529 127.479 133.287 126.893 133.287 126.283V117.083ZM135.587 136.058C135.019 136.058 134.463 135.89 133.99 135.574C133.517 135.258 133.149 134.809 132.931 134.284C132.713 133.758 132.656 133.18 132.767 132.623C132.878 132.065 133.152 131.553 133.554 131.151C133.956 130.748 134.469 130.475 135.026 130.364C135.584 130.253 136.162 130.31 136.687 130.527C137.213 130.745 137.662 131.113 137.978 131.586C138.294 132.059 138.462 132.615 138.462 133.183C138.462 133.946 138.159 134.677 137.62 135.216C137.081 135.756 136.35 136.058 135.587 136.058V136.058Z" fill="white"/>
</g>
<defs>
<radialGradient id="paint0_radial_382_709" cx="0" cy="0" r="1" gradientUnits="userSpaceOnUse" gradientTransform="translate(179.4 23) rotate(-33.6901) scale(210.083 193.923)">
<stop stop-color="#B833E1"/>
<stop offset="0.371" stop-color="#9059FF"/>
<stop offset="0.614" stop-color="#5B6DF8"/>
<stop offset="1" stop-color="#0090ED"/>
</radialGradient>
<clipPath id="clip0_382_709">
<rect width="184" height="184" fill="white"/>
</clipPath>
</defs>
</svg>
