<svg width="120" height="120" viewBox="0 0 120 120" fill="none" xmlns="http://www.w3.org/2000/svg">
<path d="M59.3676 92.3824C77.5368 92.3824 92.2658 77.4761 92.2658 59.0882C92.2658 40.7004 77.5368 25.7941 59.3676 25.7941C41.1984 25.7941 26.4694 40.7004 26.4694 59.0882C26.4694 77.4761 41.1984 92.3824 59.3676 92.3824Z" fill="#C6CAFA" stroke="#C6CBFA" stroke-width="0.639182" stroke-linecap="round" stroke-linejoin="round"/>
<path d="M59.3662 96.5499C79.8096 96.5499 96.3822 79.7778 96.3822 59.0883C96.3822 38.3988 79.8096 21.6267 59.3662 21.6267C38.9228 21.6267 22.3501 38.3988 22.3501 59.0883C22.3501 79.7778 38.9228 96.5499 59.3662 96.5499Z" stroke="white" stroke-width="0.639182" stroke-linecap="round" stroke-linejoin="round"/>
<path d="M49.5329 95.2251C40.7751 86.7073 35.1821 73.6851 35.1821 59.0916C35.1821 44.4981 40.7751 31.4738 49.5329 22.9528" stroke="white" stroke-width="0.639182" stroke-linecap="round" stroke-linejoin="round"/>
<path d="M69.198 22.9495C77.9527 31.4705 83.5488 44.4916 83.5488 59.0862C83.5488 73.6808 77.9527 86.704 69.198 95.225" stroke="white" stroke-width="0.639182" stroke-linecap="round" stroke-linejoin="round"/>
<path d="M95.0745 69.04C86.6558 77.8969 73.7897 83.5636 59.3686 83.5636C44.9476 83.5636 32.0793 77.8969 23.6606 69.04" stroke="white" stroke-width="0.639182" stroke-linecap="round" stroke-linejoin="round"/>
<path d="M23.6531 49.1379C32.0717 40.2779 44.939 34.6144 59.3589 34.6144C73.7789 34.6144 86.6482 40.2779 95.0679 49.1379" stroke="white" stroke-width="0.639182" stroke-linecap="round" stroke-linejoin="round"/>
<path d="M22.3491 59.0883H96.3823" stroke="white" stroke-width="0.639182" stroke-linecap="round" stroke-linejoin="round"/>
<path d="M59.3657 21.6267V96.551" stroke="white" stroke-width="0.639182" stroke-linecap="round" stroke-linejoin="round"/>
<path d="M87.0294 14.4859C87.3276 14.1841 87.3276 13.6948 87.0294 13.393C86.7312 13.0912 86.2477 13.0912 85.9495 13.393C85.6513 13.6948 85.6513 14.1841 85.9495 14.4859C86.2477 14.7877 86.7312 14.7877 87.0294 14.4859Z" stroke="white" stroke-width="0.639182" stroke-linecap="round" stroke-linejoin="round"/>
<path d="M100.884 74.1398C100.951 73.7173 100.668 73.3194 100.25 73.2511C99.8326 73.1829 99.4394 73.47 99.3719 73.8925C99.3045 74.3151 99.5882 74.7129 100.006 74.7812C100.423 74.8495 100.816 74.5624 100.884 74.1398Z" stroke="white" stroke-width="0.639182" stroke-linecap="round" stroke-linejoin="round"/>
<path d="M16.0313 57.5746C16.3295 57.2728 16.3295 56.7835 16.0313 56.4818C15.7331 56.18 15.2496 56.18 14.9514 56.4818C14.6532 56.7835 14.6532 57.2728 14.9514 57.5746C15.2496 57.8764 15.7331 57.8764 16.0313 57.5746Z" stroke="white" stroke-width="0.639182" stroke-linecap="round" stroke-linejoin="round"/>
<path d="M92.0552 25.8284V27.4643" stroke="white" stroke-width="0.639182" stroke-linecap="round" stroke-linejoin="round"/>
<path d="M91.2466 26.6465H92.8631" stroke="white" stroke-width="0.639182" stroke-linecap="round" stroke-linejoin="round"/>
<path d="M17.4034 79.3743V81.0092" stroke="white" stroke-width="0.639182" stroke-linecap="round" stroke-linejoin="round"/>
<path d="M16.5948 80.1913H18.2103" stroke="white" stroke-width="0.639182" stroke-linecap="round" stroke-linejoin="round"/>
<path d="M83.2512 33.0483C85.5389 33.0483 87.3935 31.1714 87.3935 28.8561C87.3935 26.5408 85.5389 24.6639 83.2512 24.6639C80.9635 24.6639 79.1089 26.5408 79.1089 28.8561C79.1089 31.1714 80.9635 33.0483 83.2512 33.0483Z" fill="#A883F8" stroke="black" stroke-width="0.639182" stroke-linecap="round" stroke-linejoin="round"/>
<path d="M83.2512 63.2827C85.5389 63.2827 87.3935 61.4058 87.3935 59.0905C87.3935 56.7752 85.5389 54.8983 83.2512 54.8983C80.9635 54.8983 79.1089 56.7752 79.1089 59.0905C79.1089 61.4058 80.9635 63.2827 83.2512 63.2827Z" fill="#6A57DC" stroke="black" stroke-width="0.639182" stroke-linecap="round" stroke-linejoin="round"/>
<path d="M33.2055 89.395C35.4933 89.395 37.3479 87.5181 37.3479 85.2028C37.3479 82.8875 35.4933 81.0106 33.2055 81.0106C30.9178 81.0106 29.0632 82.8875 29.0632 85.2028C29.0632 87.5181 30.9178 89.395 33.2055 89.395Z" fill="#6A57DC" stroke="black" stroke-width="0.639182" stroke-linecap="round" stroke-linejoin="round"/>
<path d="M111.335 96.4863H88.8464C89.0365 95.4055 89.5962 94.4268 90.4277 93.7218C91.2591 93.0167 92.3092 92.6302 93.3939 92.63C93.4535 92.63 93.5131 92.63 93.5705 92.63C94.2117 91.4773 95.1739 90.5412 96.3372 89.9382C97.5005 89.3353 98.8135 89.0922 100.112 89.2393C101.411 89.3865 102.639 89.9173 103.642 90.7656C104.644 91.6139 105.378 92.7422 105.752 94.0098C106.227 93.5662 106.82 93.2724 107.458 93.1643C108.095 93.0562 108.751 93.1384 109.343 93.401C109.935 93.6636 110.439 94.0952 110.793 94.6429C111.147 95.1907 111.335 95.8309 111.335 96.4853V96.4863Z" fill="#A883F8"/>
<path d="M105.254 98.2449H77.3783C77.6138 96.9052 78.3076 95.6921 79.3382 94.8182C80.3687 93.9443 81.6703 93.4653 83.0148 93.4651C83.0882 93.4651 83.1627 93.4651 83.235 93.4651C84.0293 92.0368 85.2213 90.8767 86.6626 90.1293C88.1039 89.3819 89.7306 89.0803 91.3401 89.2621C92.9495 89.4439 94.4706 90.101 95.7136 91.1515C96.9566 92.2021 97.8666 93.5996 98.3303 95.1699C98.9199 94.6205 99.6549 94.2568 100.445 94.1232C101.236 93.9896 102.048 94.0919 102.782 94.4175C103.516 94.7432 104.14 95.2781 104.579 95.9571C105.017 96.636 105.251 97.4295 105.252 98.2406L105.254 98.2449Z" stroke="white" stroke-width="0.639182" stroke-linecap="round" stroke-linejoin="round"/>
<path d="M83.3784 98.2446H111.895" stroke="white" stroke-width="0.639182" stroke-linecap="round" stroke-linejoin="round"/>
<path d="M69.9288 101.277H98.4455" stroke="white" stroke-width="0.639182" stroke-linecap="round" stroke-linejoin="round"/>
<path d="M47.4081 18.2398H24.9194C25.1095 17.1589 25.6692 16.1803 26.5007 15.4752C27.3321 14.7701 28.3822 14.3836 29.4669 14.3834C29.5265 14.3834 29.5861 14.3834 29.6435 14.3834C30.2846 13.2307 31.2469 12.2946 32.4102 11.6916C33.5735 11.0887 34.8865 10.8456 36.1854 10.9927C37.4843 11.1399 38.7117 11.6707 39.7145 12.519C40.7174 13.3673 41.4513 14.4956 41.8248 15.7632C42.3002 15.3196 42.893 15.0258 43.5307 14.9177C44.1685 14.8096 44.8235 14.8919 45.4158 15.1545C46.0081 15.4171 46.5119 15.8486 46.8657 16.3963C47.2196 16.9441 47.4081 17.5843 47.4081 18.2387V18.2398Z" fill="#A883F8"/>
<path d="M6 23.0305H34.5166" stroke="white" stroke-width="0.639182" stroke-linecap="round" stroke-linejoin="round"/>
<path d="M41.3253 19.9986H13.45C13.6854 18.6589 14.3793 17.4458 15.4098 16.5719C16.4404 15.698 17.742 15.2189 19.0865 15.2187C19.1599 15.2187 19.2343 15.2187 19.3066 15.2187C20.1009 13.7905 21.293 12.6303 22.7343 11.883C24.1755 11.1356 25.8023 10.834 27.4117 11.0158C29.0212 11.1975 30.5422 11.8546 31.7852 12.9052C33.0282 13.9557 33.9383 15.3532 34.4019 16.9236C34.9915 16.3742 35.7265 16.0105 36.517 15.8769C37.3076 15.7432 38.1195 15.8455 38.8535 16.1712C39.5875 16.4969 40.212 17.0318 40.6506 17.7107C41.0891 18.3896 41.3228 19.1831 41.3231 19.9943L41.3253 19.9986Z" stroke="white" stroke-width="0.639182" stroke-linecap="round" stroke-linejoin="round"/>
<path d="M36.023 56.0897C38.8241 56.0897 41.0948 53.7917 41.0948 50.9569C41.0948 48.122 38.8241 45.824 36.023 45.824C33.2219 45.824 30.9512 48.122 30.9512 50.9569C30.9512 53.7917 33.2219 56.0897 36.023 56.0897Z" fill="white" stroke="black" stroke-width="0.639182" stroke-linecap="round" stroke-linejoin="round"/>
<path d="M36.023 55.9163C38.7296 55.9163 40.9236 53.6959 40.9236 50.9568C40.9236 48.2177 38.7296 45.9972 36.023 45.9972C33.3165 45.9972 31.1224 48.2177 31.1224 50.9568C31.1224 53.6959 33.3165 55.9163 36.023 55.9163Z" fill="#EFEFEF"/>
<path d="M40.9248 50.9567C40.9252 50.0237 40.6654 49.1094 40.1753 48.3191C39.6852 47.5288 38.9848 46.8945 38.1544 46.489V55.4223C38.9844 55.017 39.6847 54.383 40.1747 53.5931C40.6648 52.8032 40.9248 51.8894 40.9248 50.9567Z" fill="#D50A2E"/>
<path d="M31.1224 50.9568C31.1216 51.8892 31.3806 52.8031 31.8697 53.5933C32.3588 54.3836 33.0582 55.0183 33.8875 55.4245V46.4912C33.0585 46.8973 32.3593 47.5316 31.8703 48.3215C31.3812 49.1113 31.122 50.0247 31.1224 50.9568Z" fill="#D50A2E"/>
<path d="M36.8756 51.6038L37.7275 51.1722L37.3021 50.957V50.5254L36.4491 50.957L36.8756 50.0949H36.4491L36.0237 49.448L35.5973 50.0949H35.1708L35.5973 50.957L34.7443 50.5254V50.957L34.3179 51.1722L35.1708 51.6038L34.9581 52.0354H35.81V52.6823H36.2364V52.0354H37.0883L36.8756 51.6038Z" fill="#D50A2E"/>
<path d="M14.7026 73.7313C17.5036 73.7313 19.7744 71.4332 19.7744 68.5984C19.7744 65.7636 17.5036 63.4656 14.7026 63.4656C11.9015 63.4656 9.63074 65.7636 9.63074 68.5984C9.63074 71.4332 11.9015 73.7313 14.7026 73.7313Z" fill="white" stroke="black" stroke-width="0.639182" stroke-linecap="round" stroke-linejoin="round"/>
<path d="M19.6035 68.5983C19.5845 69.9012 19.0598 71.1442 18.1428 72.0587C17.2257 72.9733 15.9899 73.4859 14.7024 73.4859C13.4149 73.4859 12.1791 72.9733 11.262 72.0587C10.3449 71.1442 9.82023 69.9012 9.80127 68.5983L14.7029 63.6377C15.3466 63.6377 15.9839 63.766 16.5785 64.0153C17.1732 64.2646 17.7135 64.63 18.1685 65.0907C18.6236 65.5514 18.9846 66.0982 19.2308 66.7001C19.477 67.3019 19.6037 67.947 19.6035 68.5983V68.5983Z" fill="#0B55B0"/>
<path d="M14.6902 68.599H14.7036V68.5845L14.6902 68.599Z" fill="#EFEFEF"/>
<path d="M14.7026 66.2252V63.6421C13.4028 63.6424 12.1563 64.1651 11.2373 65.0954C10.3183 66.0257 9.802 67.2873 9.802 68.6028H12.3544V67.1411L13.7944 68.5984H14.6856L14.6983 68.5845V67.6825L13.2626 66.2252H14.7026Z" fill="#EFEFEF"/>
<path d="M12.2817 64.2848C11.5143 64.7278 10.8785 65.3712 10.4408 66.1479V68.5986H11.717V65.5785H14.7033V64.2869L12.2817 64.2848Z" fill="#D50A2E"/>
<path d="M14.7023 67.9883L12.9614 66.2253H12.3584L14.6981 68.5932L14.7023 67.9883Z" fill="#D50A2E"/>
<path d="M18.2889 67.3188L18.3953 67.6482H18.7377L18.4601 67.8516L18.5665 68.181L18.2889 67.9775L18.0124 68.181L18.1177 67.8516L17.8412 67.6482H18.1836L18.2889 67.3188Z" fill="#D50A2E"/>
<path d="M17.0663 69.6908L17.2247 70.1848H17.7384L17.3226 70.4905L17.481 70.9845L17.0663 70.6788L16.6504 70.9845L16.8089 70.4905L16.3931 70.1848H16.9067L17.0663 69.6908Z" fill="#D50A2E"/>
<path d="M17.1125 65.809L17.2443 66.2212H17.6729L17.3262 66.4752L17.4592 66.8874L17.1125 66.6323L16.7658 66.8874L16.8987 66.4752L16.552 66.2212H16.9806L17.1125 65.809Z" fill="#D50A2E"/>
<path d="M15.9355 67.3038L16.094 67.7978H16.6077L16.1918 68.1035L16.3503 68.5986L15.9355 68.2929L15.5197 68.5986L15.6782 68.1035L15.2634 67.7978H15.7771L15.9355 67.3038Z" fill="#D50A2E"/>
<path d="M47.2659 64.2469C50.067 64.2469 52.3377 61.9489 52.3377 59.1141C52.3377 56.2793 50.067 53.9812 47.2659 53.9812C44.4648 53.9812 42.1941 56.2793 42.1941 59.1141C42.1941 61.9489 44.4648 64.2469 47.2659 64.2469Z" fill="white" stroke="black" stroke-width="0.639182" stroke-linecap="round" stroke-linejoin="round"/>
<path d="M47.2658 64.0736C49.9724 64.0736 52.1664 61.8531 52.1664 59.114C52.1664 56.3749 49.9724 54.1544 47.2658 54.1544C44.5593 54.1544 42.3652 56.3749 42.3652 59.114C42.3652 61.8531 44.5593 64.0736 47.2658 64.0736Z" fill="#EFEFEF"/>
<path d="M47.0519 59.1143H52.1673C52.1673 58.6782 52.1108 58.244 51.9993 57.8228H47.0519V59.1143Z" fill="#D50A2E"/>
<path d="M47.0519 56.5256H51.4463C51.1462 56.032 50.7637 55.595 50.3158 55.234H47.0519V56.5256Z" fill="#D50A2E"/>
<path d="M47.2632 64.0736C48.3714 64.0756 49.4474 63.6961 50.3144 62.9973H44.2141C45.0803 63.6959 46.1556 64.0755 47.2632 64.0736V64.0736Z" fill="#D50A2E"/>
<path d="M43.0843 61.7016H51.4477C51.6911 61.2998 51.8766 60.8649 51.9986 60.41H42.5334C42.6549 60.865 42.8405 61.3 43.0843 61.7016V61.7016Z" fill="#D50A2E"/>
<path d="M44.6351 54.9283H45.0817L44.6659 55.2339L44.8254 55.728L44.4096 55.4223L43.9938 55.7247L44.131 55.2942C43.7644 55.6047 43.4442 55.9672 43.1802 56.3705H43.3291L43.0643 56.5653C43.0239 56.6353 42.9835 56.7052 42.9462 56.7806L43.0728 57.1734L42.8367 57.0001C42.7782 57.1261 42.725 57.2541 42.6761 57.3855L42.8154 57.816H43.3291L42.9037 58.1238L43.0632 58.6178L42.6516 58.3078L42.4028 58.4908C42.3776 58.6961 42.3648 58.9028 42.3645 59.1097H47.264V54.1533C46.3326 54.1521 45.4202 54.4211 44.6351 54.9283V54.9283ZM44.8254 58.6178L44.4096 58.3078L43.9938 58.6135L44.1533 58.1195L43.7375 57.8138H44.2511L44.4096 57.3198L44.5681 57.8138H45.0817L44.6659 58.1195L44.8254 58.6178ZM44.6659 56.6805L44.8254 57.1745L44.4096 56.8699L43.9938 57.1745L44.1533 56.6805L43.7375 56.3705H44.2511L44.4096 55.8765L44.5681 56.3705H45.0817L44.6659 56.6805ZM46.5802 58.6178L46.1676 58.3078L45.7517 58.6135L45.9113 58.1195L45.4954 57.8138H46.0091L46.1676 57.3198L46.326 57.8138H46.8386L46.4228 58.1195L46.5802 58.6178ZM46.4207 56.6805L46.5802 57.1745L46.1644 56.8699L45.7486 57.1745L45.9081 56.6805L45.4954 56.3705H46.0091L46.1676 55.8765L46.326 56.3705H46.8386L46.4207 56.6805ZM46.4207 55.2361L46.5802 55.7301L46.1644 55.4244L45.7517 55.7247L45.9113 55.2307L45.4954 54.925H46.0091L46.1676 54.431L46.326 54.925H46.8386L46.4207 55.2361Z" fill="#0B55B0"/>
<path d="M70.3438 77.505C73.1449 77.505 75.4156 75.2069 75.4156 72.3721C75.4156 69.5373 73.1449 67.2393 70.3438 67.2393C67.5427 67.2393 65.272 69.5373 65.272 72.3721C65.272 75.2069 67.5427 77.505 70.3438 77.505Z" fill="white" stroke="black" stroke-width="0.639182" stroke-linecap="round" stroke-linejoin="round"/>
<path d="M70.3437 77.3316C73.0503 77.3316 75.2443 75.1111 75.2443 72.372C75.2443 69.633 73.0503 67.4125 70.3437 67.4125C67.6372 67.4125 65.4431 69.633 65.4431 72.372C65.4431 75.1111 67.6372 77.3316 70.3437 77.3316Z" fill="#EFEFEF"/>
<path d="M65.4436 72.3722C65.4341 71.7147 65.5538 71.0618 65.7958 70.4515C66.0378 69.8413 66.3973 69.2858 66.8533 68.8174C67.3094 68.349 67.8529 67.977 68.4523 67.7231C69.0517 67.4692 69.695 67.3385 70.3448 67.3385C70.9945 67.3385 71.6378 67.4692 72.2372 67.7231C72.8366 67.977 73.3801 68.349 73.8362 68.8174C74.2922 69.2858 74.6517 69.8413 74.8937 70.4515C75.1358 71.0618 75.2554 71.7147 75.2459 72.3722" fill="#D50A2E"/>
<path d="M68.4277 69.9999C68.4271 69.6559 68.5428 69.3221 68.7556 69.0538C68.9684 68.7856 69.2655 68.5991 69.5975 68.5254C69.4928 68.5016 69.3858 68.4896 69.2785 68.4899C69.072 68.494 68.8686 68.5416 68.6812 68.6296C68.4939 68.7176 68.3266 68.8441 68.1902 69.001C68.0538 69.1579 67.9511 69.3419 67.8887 69.5411C67.8263 69.7404 67.8055 69.9506 67.8277 70.1585C67.8499 70.3663 67.9146 70.5671 68.0177 70.7483C68.1208 70.9294 68.26 71.0869 68.4264 71.2107C68.5929 71.3344 68.7829 71.4218 68.9846 71.4672C69.1862 71.5126 69.3949 71.5151 69.5975 71.4744C69.2655 71.4007 68.9684 71.2142 68.7556 70.946C68.5428 70.6778 68.4271 70.3439 68.4277 69.9999V69.9999Z" fill="#EFEFEF"/>
<path d="M70.3427 68.5975L70.4491 68.9269H70.7915L70.514 69.1303L70.6203 69.4607L70.3427 69.2562L70.0662 69.4607L70.1715 69.1303L69.895 68.9269H70.2375L70.3427 68.5975Z" fill="#EFEFEF"/>
<path d="M69.5138 69.2443L69.6191 69.5736H69.9615L69.6839 69.7781L69.7903 70.1075L69.5138 69.904L69.2362 70.1075L69.3425 69.7781L69.0649 69.5736H69.4074L69.5138 69.2443Z" fill="#EFEFEF"/>
<path d="M71.175 69.2443L71.2814 69.5736H71.6227L71.3462 69.7781L71.4526 70.1075L71.175 69.904L70.8985 70.1075L71.0038 69.7781L70.7273 69.5736H71.0697L71.175 69.2443Z" fill="#EFEFEF"/>
<path d="M70.855 70.2151L70.9603 70.5444H71.3028L71.0252 70.7478L71.1316 71.0772L70.855 70.8738L70.5775 71.0772L70.6838 70.7478L70.4062 70.5444H70.7487L70.855 70.2151Z" fill="#EFEFEF"/>
<path d="M69.8337 70.2151L69.9401 70.5444H70.2815L70.0049 70.7478L70.1102 71.0772L69.8337 70.8738L69.5572 71.0772L69.6625 70.7478L69.386 70.5444H69.7284L69.8337 70.2151Z" fill="#EFEFEF"/>
<path d="M59.3604 47.5226C62.1615 47.5226 64.4322 45.2245 64.4322 42.3897C64.4322 39.5549 62.1615 37.2568 59.3604 37.2568C56.5593 37.2568 54.2886 39.5549 54.2886 42.3897C54.2886 45.2245 56.5593 47.5226 59.3604 47.5226Z" fill="white" stroke="black" stroke-width="0.639182" stroke-linecap="round" stroke-linejoin="round"/>
<path d="M59.3603 47.3492C62.0668 47.3492 64.2609 45.1287 64.2609 42.3896C64.2609 39.6505 62.0668 37.4301 59.3603 37.4301C56.6538 37.4301 54.4597 39.6505 54.4597 42.3896C54.4597 45.1287 56.6538 47.3492 59.3603 47.3492Z" fill="#EFEFEF"/>
<path d="M55.4729 39.3706C55.0826 39.8829 54.796 40.4681 54.6295 41.0927H57.1819L55.4729 39.3706Z" fill="#0B55B0"/>
<path d="M64.0929 41.096C63.9256 40.4715 63.6387 39.8864 63.2485 39.3739L61.5469 41.096H64.0929Z" fill="#0B55B0"/>
<path d="M54.6295 43.6846C54.7968 44.3088 55.0833 44.8939 55.4729 45.4066L57.1745 43.6846H54.6295Z" fill="#0B55B0"/>
<path d="M62.345 38.456C61.8386 38.0612 61.2604 37.7709 60.6434 37.6014V40.1846L62.345 38.456Z" fill="#0B55B0"/>
<path d="M56.3774 46.3246C56.8838 46.7195 57.462 47.0099 58.079 47.1792V44.5961L56.3774 46.3246Z" fill="#0B55B0"/>
<path d="M58.082 37.6014C57.4649 37.7707 56.8868 38.0611 56.3804 38.456L58.082 40.1781V37.6014Z" fill="#0B55B0"/>
<path d="M60.6389 47.1793C61.2559 47.0099 61.8341 46.7196 62.3405 46.3247L60.6389 44.6027V47.1858V47.1793Z" fill="#0B55B0"/>
<path d="M61.5437 43.6846L63.2453 45.4066C63.6352 44.894 63.9221 44.3089 64.0897 43.6846H61.5437Z" fill="#0B55B0"/>
<path d="M64.2204 41.7426H59.9993V37.4719C59.5757 37.4161 59.1468 37.4161 58.7231 37.4719V41.7426H54.5011C54.4459 42.1714 54.4459 42.6055 54.5011 43.0342H58.721V47.3082C59.1446 47.364 59.5736 47.364 59.9972 47.3082V43.0363H64.2182C64.2734 42.6076 64.2734 42.1735 64.2182 41.7448L64.2204 41.7426Z" fill="#D50A2E"/>
<path d="M60.6389 43.6845L62.8265 45.8974C62.9276 45.7962 63.0233 45.6896 63.1147 45.5745L61.2419 43.6802L60.6389 43.6845Z" fill="#D50A2E"/>
<path d="M58.0824 43.6846L55.8959 45.8974C55.9958 45.9997 56.1011 46.0966 56.2096 46.1891L58.0824 44.2938V43.6846V43.6846Z" fill="#D50A2E"/>
<path d="M58.0827 41.0961L55.8961 38.8832C55.7951 38.9844 55.6994 39.0909 55.6079 39.2061L57.4797 41.1004L58.0827 41.0961Z" fill="#D50A2E"/>
<path d="M60.6395 41.0958L62.8271 38.883C62.7208 38.7807 62.6219 38.6839 62.5081 38.5913L60.6353 40.4856L60.6395 41.0958Z" fill="#D50A2E"/>
<path d="M104.309 51.7254C107.016 51.7254 109.21 49.505 109.21 46.7659C109.21 44.0268 107.016 41.8063 104.309 41.8063C101.603 41.8063 99.4087 44.0268 99.4087 46.7659C99.4087 49.505 101.603 51.7254 104.309 51.7254Z" fill="#EFEFEF"/>
<path d="M104.309 51.8988C107.11 51.8988 109.381 49.6007 109.381 46.7659C109.381 43.9311 107.11 41.6331 104.309 41.6331C101.508 41.6331 99.2373 43.9311 99.2373 46.7659C99.2373 49.6007 101.508 51.8988 104.309 51.8988Z" fill="white" stroke="white" stroke-width="0.639182" stroke-linecap="round" stroke-linejoin="round"/>
<path d="M104.096 46.7662H109.21C109.21 46.33 109.153 45.8958 109.041 45.4746H104.096V46.7662Z" fill="#D50A2E"/>
<path d="M104.096 44.1785H108.49C108.191 43.6845 107.808 43.2474 107.36 42.887H104.096V44.1785Z" fill="#D50A2E"/>
<path d="M104.309 51.7266C105.417 51.7289 106.493 51.3493 107.36 50.6503H101.259C102.125 51.3492 103.201 51.7288 104.309 51.7266V51.7266Z" fill="#D50A2E"/>
<path d="M100.128 49.3531H108.491C108.735 48.9518 108.921 48.5167 109.042 48.0615H99.5768C99.6982 48.5166 99.8838 48.9515 100.128 49.3531V49.3531Z" fill="#D50A2E"/>
<path d="M104.309 46.7659V41.8063C103.01 41.8063 101.763 42.3288 100.844 43.2589C99.925 44.189 99.4087 45.4505 99.4087 46.7659H104.309Z" fill="#0B55B0"/>
<path d="M102.673 46.0513C102.488 46.0515 102.306 46.0091 102.14 45.9272C101.974 45.8453 101.828 45.7261 101.715 45.5787C101.601 45.4313 101.522 45.2596 101.484 45.0767C101.446 44.8938 101.45 44.7045 101.495 44.5233C101.541 44.3421 101.626 44.1738 101.746 44.0312C101.865 43.8885 102.015 43.7754 102.184 43.7004C102.353 43.6254 102.537 43.5905 102.722 43.5984C102.906 43.6063 103.087 43.6567 103.249 43.7458C103.039 43.5389 102.774 43.3992 102.486 43.3442C102.198 43.2892 101.901 43.3212 101.631 43.4364C101.361 43.5516 101.131 43.7447 100.969 43.9917C100.807 44.2386 100.721 44.5284 100.721 44.8248C100.721 45.1212 100.807 45.411 100.969 45.658C101.131 45.9049 101.361 46.0981 101.631 46.2132C101.901 46.3284 102.198 46.3605 102.486 46.3054C102.774 46.2504 103.039 46.1107 103.249 45.9038C103.072 46.0013 102.874 46.052 102.673 46.0513V46.0513Z" fill="#FDD853"/>
<path d="M103.009 43.9622L103.225 44.4174L103.711 44.3044L103.493 44.7586L103.884 45.0718L103.397 45.1827L103.398 45.6875L103.009 45.3721L102.621 45.6875L102.622 45.1827L102.135 45.0718L102.526 44.7586L102.308 44.3044L102.794 44.4174L103.009 43.9622Z" fill="#FDD853"/>
</svg>
