<svg width="184" height="184" viewBox="0 0 184 184" fill="none" xmlns="http://www.w3.org/2000/svg">
<g clip-path="url(#clip0_367_1681)">
<path d="M68.6267 49.563H26.4219C26.7757 47.5583 27.8247 45.7425 29.3846 44.4346C30.9445 43.1267 32.9155 42.4105 34.9511 42.4117H35.2849C36.4864 40.2709 38.2921 38.5315 40.4764 37.411C42.6608 36.2905 45.1268 35.8386 47.5665 36.1116C50.0062 36.3846 52.3114 37.3704 54.194 38.946C56.0767 40.5216 57.4533 42.617 58.1519 44.9704C59.0427 44.1371 60.1581 43.583 61.3604 43.3766C62.5626 43.1702 63.799 43.3206 64.9167 43.8091C66.0344 44.2977 66.9845 45.103 67.6496 46.1255C68.3146 47.1481 68.6656 48.3431 68.659 49.563H68.6267Z" fill="#6A52DE"/>
<path d="M53.5441 52.6261H11.3394C11.6932 50.6214 12.7423 48.8056 14.3022 47.4977C15.8621 46.1898 17.8329 45.4735 19.8686 45.4748H20.2025C21.404 43.3339 23.2096 41.5946 25.3939 40.4741C27.5782 39.3537 30.0444 38.9017 32.4841 39.1747C34.9239 39.4477 37.229 40.4335 39.1117 42.0091C40.9943 43.5847 42.3709 45.6801 43.0695 48.0335C43.9601 47.2 45.0755 46.6457 46.2777 46.4392C47.4799 46.2327 48.7163 46.383 49.834 46.8716C50.9517 47.3602 51.9017 48.1657 52.5666 49.1884C53.2315 50.2111 53.582 51.4062 53.575 52.6261H53.5441Z" stroke="black" stroke-width="0.383621" stroke-linecap="round" stroke-linejoin="round"/>
<path d="M86.0394 138.072C114.045 138.072 136.748 115.369 136.748 87.3632C136.748 59.3574 114.045 36.6543 86.0394 36.6543C58.0337 36.6543 35.3305 59.3574 35.3305 87.3632C35.3305 115.369 58.0337 138.072 86.0394 138.072Z" fill="white" stroke="black" stroke-width="0.383621" stroke-miterlimit="10"/>
<g style="mix-blend-mode:multiply">
<path d="M86.0401 131.277C110.293 131.277 129.954 111.616 129.954 87.3634C129.954 63.1106 110.293 43.4498 86.0401 43.4498C61.7874 43.4498 42.1266 63.1106 42.1266 87.3634C42.1266 111.616 61.7874 131.277 86.0401 131.277Z" fill="#C3C4FD"/>
<path d="M86.0401 131.277C110.293 131.277 129.954 111.616 129.954 87.3634C129.954 63.1106 110.293 43.4498 86.0401 43.4498C61.7874 43.4498 42.1266 63.1106 42.1266 87.3634C42.1266 111.616 61.7874 131.277 86.0401 131.277Z" stroke="#C3C4FD" stroke-width="0.0959053" stroke-miterlimit="10"/>
</g>
<path d="M72.57 136.281C60.5777 124.748 52.9118 107.122 52.9118 87.3678C52.9118 67.6139 60.5777 49.9835 72.57 38.4514" stroke="black" stroke-width="0.383621" stroke-miterlimit="10"/>
<path d="M99.5177 38.4469C111.51 49.979 119.177 67.605 119.177 87.3604C119.177 107.116 111.503 124.745 99.5177 136.277" stroke="black" stroke-width="0.383621" stroke-miterlimit="10"/>
<path d="M35.3305 87.3632H136.748" stroke="black" stroke-width="0.383621" stroke-miterlimit="10"/>
<path d="M86.0394 36.6557V138.072" stroke="black" stroke-width="0.383621" stroke-miterlimit="10"/>
<path d="M147.638 143.078H113.677C113.965 141.464 114.811 140.004 116.068 138.952C117.325 137.9 118.912 137.323 120.55 137.324H120.817C121.785 135.606 123.238 134.212 124.993 133.314C126.748 132.416 128.729 132.054 130.688 132.274C132.648 132.493 134.499 133.284 136.013 134.548C137.526 135.812 138.634 137.493 139.198 139.382C139.918 138.727 140.813 138.294 141.774 138.137C142.735 137.98 143.721 138.105 144.613 138.498C145.504 138.89 146.262 139.533 146.795 140.348C147.328 141.164 147.612 142.116 147.614 143.09L147.638 143.078Z" fill="#C0C3F6"/>
<path d="M147.636 143.078V142.979H113.675V143.072H113.769C114.054 141.478 114.892 140.035 116.135 138.998C117.378 137.96 118.947 137.394 120.566 137.399H120.827C120.844 137.399 120.861 137.394 120.877 137.385C120.892 137.377 120.905 137.364 120.913 137.349C121.879 135.656 123.32 134.284 125.057 133.401C126.795 132.519 128.753 132.165 130.689 132.384C132.625 132.604 134.455 133.386 135.951 134.634C137.448 135.882 138.546 137.542 139.108 139.407C139.111 139.422 139.118 139.436 139.129 139.447C139.141 139.458 139.155 139.465 139.17 139.469C139.183 139.478 139.198 139.483 139.213 139.482C139.228 139.483 139.243 139.478 139.255 139.469C139.962 138.825 140.841 138.399 141.784 138.243C142.728 138.088 143.697 138.209 144.573 138.593C145.449 138.977 146.194 139.607 146.72 140.407C147.245 141.206 147.527 142.141 147.532 143.097H147.717C147.714 142.104 147.423 141.133 146.878 140.303C146.334 139.473 145.56 138.818 144.65 138.419C143.741 138.021 142.735 137.895 141.756 138.057C140.776 138.219 139.864 138.662 139.132 139.332L139.195 139.402H139.286C138.711 137.501 137.59 135.811 136.063 134.541C134.535 133.271 132.669 132.477 130.695 132.258C128.721 132.039 126.726 132.404 124.957 133.308C123.189 134.211 121.724 135.615 120.746 137.343L120.832 137.385V137.293H120.56C118.902 137.294 117.298 137.878 116.027 138.944C114.757 140.009 113.903 141.488 113.614 143.121C113.608 143.134 113.605 143.148 113.605 143.162C113.605 143.176 113.608 143.189 113.614 143.202C113.634 143.221 113.66 143.232 113.688 143.232H147.63C147.652 143.241 147.676 143.241 147.698 143.232C147.715 143.213 147.726 143.19 147.73 143.165L147.636 143.078Z" fill="#C0C3F6"/>
<path d="M34.9475 128.568C35.2093 128.568 35.4651 128.49 35.6828 128.345C35.9004 128.2 36.07 127.993 36.1702 127.751C36.2704 127.509 36.2967 127.243 36.2456 126.986C36.1945 126.73 36.0685 126.494 35.8834 126.309C35.6983 126.124 35.4625 125.998 35.2057 125.946C34.949 125.895 34.6828 125.922 34.441 126.022C34.1992 126.122 33.9925 126.292 33.847 126.509C33.7016 126.727 33.624 126.983 33.624 127.245C33.624 127.596 33.7634 127.932 34.0116 128.18C34.2598 128.429 34.5965 128.568 34.9475 128.568Z" stroke="black" stroke-width="0.383621" stroke-miterlimit="10"/>
<path d="M8.2235 43.6556C8.48526 43.6556 8.74112 43.578 8.95877 43.4326C9.17642 43.2871 9.346 43.0804 9.44618 42.8386C9.54635 42.5968 9.57249 42.3306 9.52143 42.0739C9.47036 41.8172 9.34434 41.5814 9.15925 41.3963C8.97415 41.2112 8.73844 41.0851 8.4817 41.034C8.22497 40.983 7.95883 41.0092 7.71699 41.1094C7.47515 41.2095 7.26845 41.3792 7.12303 41.5968C6.9776 41.8145 6.9 42.0704 6.9 42.3321C6.9 42.6831 7.0394 43.0197 7.2876 43.2679C7.5358 43.5161 7.87248 43.6556 8.2235 43.6556V43.6556Z" stroke="black" stroke-width="0.383621" stroke-miterlimit="10"/>
<path d="M150.987 115.446C151.249 115.446 151.505 115.369 151.722 115.223C151.94 115.078 152.109 114.871 152.21 114.629C152.31 114.388 152.336 114.121 152.285 113.865C152.234 113.608 152.108 113.372 151.923 113.187C151.738 113.002 151.502 112.876 151.245 112.825C150.988 112.774 150.722 112.8 150.48 112.9C150.239 113 150.032 113.17 149.886 113.388C149.741 113.605 149.663 113.861 149.663 114.123C149.663 114.474 149.803 114.811 150.051 115.059C150.299 115.307 150.636 115.446 150.987 115.446V115.446Z" stroke="black" stroke-width="0.383621" stroke-miterlimit="10"/>
<path d="M18.3208 102.375V99.3894" stroke="black" stroke-width="0.383621" stroke-linecap="round" stroke-linejoin="round"/>
<path d="M16.8255 100.885H19.8108" stroke="black" stroke-width="0.383621" stroke-linecap="round" stroke-linejoin="round"/>
<path d="M25.8295 74.9767V71.9915" stroke="black" stroke-width="0.383621" stroke-linecap="round" stroke-linejoin="round"/>
<path d="M24.3409 73.4812H27.3261" stroke="black" stroke-width="0.383621" stroke-linecap="round" stroke-linejoin="round"/>
<path d="M147.267 61.8124V58.8272" stroke="black" stroke-width="0.383621" stroke-linecap="round" stroke-linejoin="round"/>
<path d="M145.771 60.3228H148.757" stroke="black" stroke-width="0.383621" stroke-linecap="round" stroke-linejoin="round"/>
<path fill-rule="evenodd" clip-rule="evenodd" d="M103.936 58.8934V53.9495H95.2849V34.5H122.106V53.9612H110.86L103.936 58.8934Z" fill="#6A52DE" stroke="black" stroke-width="0.383621" stroke-miterlimit="10"/>
<path d="M104.896 112.343V107.566H100.822V91.4969H123.572V107.566H107.954L104.896 112.343Z" fill="white" stroke="black" stroke-width="0.383621" stroke-linejoin="round"/>
<path d="M108.693 99.241C108.693 99.5226 108.609 99.7977 108.451 100.031C108.294 100.265 108.072 100.447 107.811 100.554C107.617 100.635 107.407 100.672 107.197 100.662C106.987 100.651 106.782 100.595 106.596 100.496C106.411 100.396 106.25 100.257 106.124 100.088C105.999 99.9187 105.914 99.7239 105.873 99.5174C105.817 99.2421 105.845 98.9564 105.952 98.6969C106.061 98.4376 106.244 98.2157 106.477 98.0587C106.691 97.917 106.939 97.8358 107.195 97.8235C107.451 97.8112 107.705 97.8684 107.931 97.989C108.157 98.1096 108.346 98.289 108.479 98.5084C108.611 98.7278 108.682 98.9789 108.683 99.2351L108.693 99.241Z" stroke="black" stroke-width="0.383621"/>
<path d="M113.459 99.2409C113.46 99.5946 113.329 99.936 113.092 100.198C112.854 100.461 112.528 100.626 112.176 100.661C111.824 100.696 111.471 100.599 111.187 100.388C110.902 100.178 110.707 99.8693 110.637 99.5224C110.568 99.1754 110.63 98.8151 110.811 98.5115C110.993 98.2078 111.281 97.9826 111.62 97.8797C111.958 97.7767 112.323 97.8033 112.643 97.9543C112.963 98.1053 113.215 98.37 113.351 98.6968C113.423 98.8691 113.46 99.0541 113.459 99.2409V99.2409Z" stroke="black" stroke-width="0.383621"/>
<path d="M118.515 99.2409C118.514 99.5225 118.43 99.7976 118.273 100.031C118.116 100.265 117.893 100.447 117.633 100.554C117.439 100.635 117.229 100.672 117.019 100.662C116.809 100.651 116.603 100.595 116.418 100.495C116.232 100.396 116.071 100.257 115.946 100.088C115.821 99.9186 115.735 99.7238 115.695 99.5173C115.639 99.2419 115.667 98.956 115.775 98.6968C115.901 98.3926 116.128 98.1414 116.418 97.9862C116.708 97.8309 117.043 97.781 117.366 97.8453C117.689 97.9095 117.979 98.0838 118.188 98.3383C118.396 98.5928 118.51 98.9119 118.509 99.2409H118.515Z" stroke="black" stroke-width="0.383621"/>
<path fill-rule="evenodd" clip-rule="evenodd" d="M59.5952 96.9938V92.2234H67.97V74.5768H42.0177V92.2234H52.8997L59.5952 96.9938Z" fill="#A77FFA" stroke="black" stroke-width="0.383621" stroke-miterlimit="10"/>
<path d="M63.9031 80.8383H46.0859" stroke="white" stroke-width="0.383051" stroke-linecap="round" stroke-linejoin="round"/>
<path d="M63.9032 86.284H52.7916" stroke="white" stroke-width="0.383051" stroke-linecap="round" stroke-linejoin="round"/>
<path d="M49.8622 86.284H46.0859" stroke="white" stroke-width="0.383051" stroke-linecap="round" stroke-linejoin="round"/>
<path d="M135.36 146.153H177.1" stroke="black" stroke-width="0.383621" stroke-miterlimit="10"/>
<path d="M115.672 150.538H157.412" stroke="black" stroke-width="0.383621" stroke-miterlimit="10"/>
<path d="M167.379 146.153H126.574C126.919 144.215 127.936 142.461 129.445 141.197C130.954 139.933 132.86 139.241 134.828 139.241C134.936 139.241 135.045 139.241 135.15 139.249C136.313 137.183 138.058 135.505 140.168 134.424C142.278 133.343 144.659 132.907 147.015 133.17C149.37 133.433 151.597 134.384 153.416 135.903C155.236 137.422 156.568 139.444 157.247 141.715C158.11 140.92 159.186 140.394 160.343 140.201C161.5 140.007 162.688 140.155 163.763 140.626C164.837 141.097 165.751 141.871 166.393 142.853C167.035 143.835 167.377 144.983 167.377 146.156L167.379 146.153Z" stroke="black" stroke-width="0.383621" stroke-linecap="round" stroke-linejoin="round"/>
<path d="M103.368 44.7198C103.367 45.1516 103.238 45.5734 102.997 45.9318C102.756 46.2902 102.414 46.5692 102.015 46.7333C101.717 46.8574 101.395 46.9137 101.073 46.8981C100.751 46.8825 100.436 46.7955 100.152 46.6434C99.8673 46.4912 99.6204 46.2777 99.4286 46.0183C99.2368 45.759 99.1052 45.4602 99.043 45.1437C98.9577 44.7215 98.9999 44.2835 99.1646 43.8855C99.3319 43.4878 99.6117 43.1477 99.9696 42.9069C100.297 42.6897 100.677 42.5651 101.07 42.5463C101.462 42.5275 101.852 42.6151 102.199 42.8C102.545 42.9849 102.836 43.2601 103.039 43.5965C103.242 43.9328 103.35 44.3179 103.352 44.7107L103.368 44.7198Z" stroke="black" stroke-width="0.383621"/>
<path d="M110.676 44.7194C110.676 45.2619 110.475 45.7853 110.111 46.1877C109.748 46.5902 109.247 46.8429 108.707 46.8967C108.168 46.9505 107.627 46.8017 107.191 46.479C106.755 46.1564 106.454 45.683 106.348 45.1511C106.242 44.6191 106.337 44.0666 106.615 43.601C106.894 43.1355 107.336 42.7902 107.855 42.6323C108.374 42.4743 108.933 42.5151 109.423 42.7467C109.914 42.9783 110.301 43.3841 110.509 43.8851C110.619 44.1494 110.676 44.433 110.676 44.7194V44.7194Z" stroke="black" stroke-width="0.383621"/>
<path d="M118.428 44.7195C118.427 45.1513 118.298 45.5731 118.057 45.9315C117.816 46.2899 117.474 46.5689 117.075 46.733C116.777 46.8571 116.455 46.9134 116.133 46.8978C115.811 46.8822 115.496 46.7952 115.212 46.6431C114.927 46.4909 114.68 46.2774 114.488 46.0181C114.297 45.7587 114.165 45.4599 114.103 45.1434C114.017 44.721 114.06 44.2827 114.227 43.8852C114.419 43.4188 114.768 43.0337 115.212 42.7955C115.657 42.5574 116.171 42.4811 116.666 42.5795C117.16 42.678 117.606 42.9453 117.925 43.3355C118.245 43.7258 118.42 44.215 118.419 44.7195H118.428Z" stroke="black" stroke-width="0.383621"/>
</g>
<defs>
<clipPath id="clip0_367_1681">
<rect width="184" height="184" fill="white"/>
</clipPath>
</defs>
</svg>
