<svg width="120" height="120" viewBox="0 0 120 120" fill="none" xmlns="http://www.w3.org/2000/svg">
<path d="M59.3676 92.3824C77.5368 92.3824 92.2658 77.4761 92.2658 59.0882C92.2658 40.7004 77.5368 25.7941 59.3676 25.7941C41.1984 25.7941 26.4694 40.7004 26.4694 59.0882C26.4694 77.4761 41.1984 92.3824 59.3676 92.3824Z" fill="#C6CAFA" stroke="#C6CBFA" stroke-width="0.639182" stroke-linecap="round" stroke-linejoin="round"/>
<path d="M59.3661 96.5499C79.8095 96.5499 96.3821 79.7778 96.3821 59.0883C96.3821 38.3988 79.8095 21.6267 59.3661 21.6267C38.9226 21.6267 22.35 38.3988 22.35 59.0883C22.35 79.7778 38.9226 96.5499 59.3661 96.5499Z" stroke="black" stroke-width="0.639182" stroke-linecap="round" stroke-linejoin="round"/>
<path d="M49.5329 95.2252C40.775 86.7074 35.1821 73.6853 35.1821 59.0917C35.1821 44.4982 40.775 31.4739 49.5329 22.9529" stroke="black" stroke-width="0.639182" stroke-linecap="round" stroke-linejoin="round"/>
<path d="M69.1979 22.9496C77.9526 31.4706 83.5488 44.4917 83.5488 59.0863C83.5488 73.6809 77.9526 86.7041 69.1979 95.2251" stroke="black" stroke-width="0.639182" stroke-linecap="round" stroke-linejoin="round"/>
<path d="M95.0746 69.04C86.6559 77.8968 73.7897 83.5636 59.3687 83.5636C44.9477 83.5636 32.0794 77.8968 23.6607 69.04" stroke="black" stroke-width="0.639182" stroke-linecap="round" stroke-linejoin="round"/>
<path d="M23.653 49.1381C32.0717 40.278 44.9389 34.6145 59.3588 34.6145C73.7788 34.6145 86.6482 40.278 95.0679 49.1381" stroke="black" stroke-width="0.639182" stroke-linecap="round" stroke-linejoin="round"/>
<path d="M22.3491 59.0886H96.3823" stroke="black" stroke-width="0.639182" stroke-linecap="round" stroke-linejoin="round"/>
<path d="M59.3657 21.6268V96.5511" stroke="black" stroke-width="0.639182" stroke-linecap="round" stroke-linejoin="round"/>
<path d="M87.0294 14.4861C87.3276 14.1843 87.3276 13.695 87.0294 13.3932C86.7312 13.0914 86.2477 13.0914 85.9495 13.3932C85.6513 13.695 85.6513 14.1843 85.9495 14.4861C86.2477 14.7879 86.7312 14.7879 87.0294 14.4861Z" stroke="black" stroke-width="0.639182" stroke-linecap="round" stroke-linejoin="round"/>
<path d="M100.884 74.1398C100.951 73.7173 100.668 73.3194 100.25 73.2511C99.8326 73.1829 99.4394 73.47 99.3719 73.8925C99.3045 74.3151 99.5882 74.7129 100.006 74.7812C100.423 74.8495 100.816 74.5624 100.884 74.1398Z" stroke="black" stroke-width="0.639182" stroke-linecap="round" stroke-linejoin="round"/>
<path d="M16.0313 57.5746C16.3295 57.2728 16.3295 56.7835 16.0313 56.4818C15.7331 56.18 15.2496 56.18 14.9514 56.4818C14.6532 56.7835 14.6532 57.2728 14.9514 57.5746C15.2496 57.8764 15.7331 57.8764 16.0313 57.5746Z" stroke="black" stroke-width="0.639182" stroke-linecap="round" stroke-linejoin="round"/>
<path d="M92.0552 25.8287V27.4647" stroke="black" stroke-width="0.639182" stroke-linecap="round" stroke-linejoin="round"/>
<path d="M91.2466 26.6469H92.8631" stroke="black" stroke-width="0.639182" stroke-linecap="round" stroke-linejoin="round"/>
<path d="M17.4034 79.3744V81.0093" stroke="black" stroke-width="0.639182" stroke-linecap="round" stroke-linejoin="round"/>
<path d="M16.5948 80.1912H18.2103" stroke="black" stroke-width="0.639182" stroke-linecap="round" stroke-linejoin="round"/>
<path d="M83.2512 33.0483C85.5389 33.0483 87.3935 31.1714 87.3935 28.8561C87.3935 26.5408 85.5389 24.6639 83.2512 24.6639C80.9635 24.6639 79.1089 26.5408 79.1089 28.8561C79.1089 31.1714 80.9635 33.0483 83.2512 33.0483Z" fill="#A883F8" stroke="black" stroke-width="0.639182" stroke-linecap="round" stroke-linejoin="round"/>
<path d="M83.2512 63.2829C85.5389 63.2829 87.3935 61.406 87.3935 59.0907C87.3935 56.7754 85.5389 54.8985 83.2512 54.8985C80.9635 54.8985 79.1089 56.7754 79.1089 59.0907C79.1089 61.406 80.9635 63.2829 83.2512 63.2829Z" fill="#6A57DC" stroke="black" stroke-width="0.639182" stroke-linecap="round" stroke-linejoin="round"/>
<path d="M33.2055 89.3948C35.4933 89.3948 37.3479 87.5179 37.3479 85.2027C37.3479 82.8874 35.4933 81.0105 33.2055 81.0105C30.9178 81.0105 29.0632 82.8874 29.0632 85.2027C29.0632 87.5179 30.9178 89.3948 33.2055 89.3948Z" fill="#6A57DC" stroke="black" stroke-width="0.639182" stroke-linecap="round" stroke-linejoin="round"/>
<path d="M111.335 96.4867H88.8465C89.0365 95.4059 89.5963 94.4272 90.4277 93.7221C91.2592 93.0171 92.3093 92.6305 93.394 92.6303C93.4536 92.6303 93.5131 92.6303 93.5706 92.6303C94.2117 91.4777 95.1739 90.5415 96.3373 89.9386C97.5006 89.3356 98.8136 89.0926 100.112 89.2397C101.411 89.3868 102.639 89.9176 103.642 90.766C104.644 91.6143 105.378 92.7426 105.752 94.0102C106.227 93.5666 106.82 93.2728 107.458 93.1646C108.096 93.0565 108.751 93.1388 109.343 93.4014C109.935 93.664 110.439 94.0956 110.793 94.6433C111.147 95.191 111.335 95.8312 111.335 96.4856V96.4867Z" fill="#A883F8"/>
<path d="M105.254 98.2455H77.3783C77.6138 96.9058 78.3076 95.6928 79.3382 94.8188C80.3687 93.9449 81.6703 93.4659 83.0148 93.4657C83.0882 93.4657 83.1627 93.4657 83.235 93.4657C84.0293 92.0374 85.2213 90.8773 86.6626 90.1299C88.1039 89.3825 89.7306 89.0809 91.3401 89.2627C92.9495 89.4445 94.4706 90.1016 95.7136 91.1521C96.9566 92.2027 97.8666 93.6002 98.3303 95.1705C98.9199 94.6211 99.6549 94.2574 100.445 94.1238C101.236 93.9902 102.048 94.0925 102.782 94.4181C103.516 94.7438 104.14 95.2788 104.579 95.9577C105.017 96.6366 105.251 97.4301 105.252 98.2412L105.254 98.2455Z" stroke="black" stroke-width="0.639182" stroke-linecap="round" stroke-linejoin="round"/>
<path d="M83.3785 98.2452H111.895" stroke="black" stroke-width="0.639182" stroke-linecap="round" stroke-linejoin="round"/>
<path d="M69.9288 101.277H98.4455" stroke="black" stroke-width="0.639182" stroke-linecap="round" stroke-linejoin="round"/>
<path d="M47.4081 18.2399H24.9194C25.1094 17.1591 25.6692 16.1804 26.5006 15.4753C27.3321 14.7702 28.3821 14.3837 29.4669 14.3835C29.5264 14.3835 29.586 14.3835 29.6434 14.3835C30.2846 13.2309 31.2468 12.2947 32.4102 11.6917C33.5735 11.0888 34.8865 10.8457 36.1854 10.9929C37.4843 11.14 38.7117 11.6708 39.7145 12.5191C40.7173 13.3675 41.4512 14.4957 41.8247 15.7633C42.3001 15.3197 42.8929 15.0259 43.5307 14.9178C44.1684 14.8097 44.8234 14.892 45.4157 15.1546C46.008 15.4172 46.5118 15.8487 46.8657 16.3965C47.2195 16.9442 47.408 17.5844 47.4081 18.2388V18.2399Z" fill="#A883F8"/>
<path d="M6 23.0304H34.5166" stroke="black" stroke-width="0.639182" stroke-linecap="round" stroke-linejoin="round"/>
<path d="M41.3253 19.9986H13.45C13.6855 18.659 14.3793 17.4459 15.4099 16.5719C16.4404 15.698 17.742 15.219 19.0865 15.2188C19.1599 15.2188 19.2344 15.2188 19.3067 15.2188C20.101 13.7905 21.2931 12.6304 22.7343 11.883C24.1756 11.1356 25.8023 10.834 27.4118 11.0158C29.0212 11.1976 30.5423 11.8547 31.7853 12.9052C33.0283 13.9558 33.9383 15.3533 34.402 16.9236C34.9916 16.3742 35.7266 16.0105 36.5171 15.8769C37.3076 15.7433 38.1195 15.8456 38.8536 16.1712C39.5876 16.4969 40.212 17.0319 40.6506 17.7108C41.0892 18.3897 41.3229 19.1832 41.3232 19.9943L41.3253 19.9986Z" stroke="black" stroke-width="0.639182" stroke-linecap="round" stroke-linejoin="round"/>
<path d="M36.023 56.0899C38.8241 56.0899 41.0949 53.7918 41.0949 50.957C41.0949 48.1222 38.8241 45.8242 36.023 45.8242C33.222 45.8242 30.9512 48.1222 30.9512 50.957C30.9512 53.7918 33.222 56.0899 36.023 56.0899Z" fill="black" stroke="black" stroke-width="0.639182" stroke-linecap="round" stroke-linejoin="round"/>
<path d="M36.0231 55.9166C38.7296 55.9166 40.9237 53.6962 40.9237 50.9571C40.9237 48.218 38.7296 45.9975 36.0231 45.9975C33.3166 45.9975 31.1225 48.218 31.1225 50.9571C31.1225 53.6962 33.3166 55.9166 36.0231 55.9166Z" fill="#EFEFEF"/>
<path d="M40.9249 50.9568C40.9252 50.0238 40.6654 49.1096 40.1754 48.3193C39.6853 47.5289 38.9848 46.8946 38.1545 46.4891V55.4224C38.9845 55.0171 39.6847 54.3831 40.1748 53.5932C40.6648 52.8033 40.9248 51.8895 40.9249 50.9568Z" fill="#D50A2E"/>
<path d="M31.1225 50.9569C31.1217 51.8894 31.3807 52.8032 31.8698 53.5934C32.3589 54.3837 33.0582 55.0184 33.8876 55.4246V46.4913C33.0586 46.8974 32.3594 47.5317 31.8703 48.3216C31.3813 49.1114 31.1221 50.0248 31.1225 50.9569Z" fill="#D50A2E"/>
<path d="M36.8756 51.6038L37.7275 51.1722L37.3021 50.9569V50.5253L36.4491 50.9569L36.8756 50.0948H36.4491L36.0237 49.4479L35.5973 50.0948H35.1708L35.5973 50.9569L34.7443 50.5253V50.9569L34.3179 51.1722L35.1708 51.6038L34.9581 52.0354H35.81V52.6822H36.2364V52.0354H37.0883L36.8756 51.6038Z" fill="#D50A2E"/>
<path d="M14.7026 73.7314C17.5037 73.7314 19.7744 71.4333 19.7744 68.5985C19.7744 65.7637 17.5037 63.4656 14.7026 63.4656C11.9015 63.4656 9.6308 65.7637 9.6308 68.5985C9.6308 71.4333 11.9015 73.7314 14.7026 73.7314Z" fill="black" stroke="black" stroke-width="0.639182" stroke-linecap="round" stroke-linejoin="round"/>
<path d="M19.6035 68.5987C19.5845 69.9015 19.0598 71.1445 18.1427 72.059C17.2256 72.9736 15.9898 73.4862 14.7023 73.4862C13.4148 73.4862 12.179 72.9736 11.262 72.059C10.3449 71.1445 9.82017 69.9015 9.80121 68.5987L14.7029 63.638C15.3465 63.638 15.9838 63.7663 16.5785 64.0156C17.1731 64.2649 17.7134 64.6304 18.1685 65.091C18.6236 65.5517 18.9845 66.0985 19.2307 66.7004C19.4769 67.3022 19.6036 67.9473 19.6035 68.5987V68.5987Z" fill="#0B55B0"/>
<path d="M14.6901 68.5991H14.7035V68.5846L14.6901 68.5991Z" fill="#EFEFEF"/>
<path d="M14.7025 66.2253V63.6422C13.4027 63.6425 12.1562 64.1653 11.2372 65.0955C10.3182 66.0258 9.80194 67.2874 9.80194 68.6029H12.3543V67.1413L13.7943 68.5986H14.6855L14.6983 68.5846V67.6826L13.2626 66.2253H14.7025Z" fill="#EFEFEF"/>
<path d="M12.2817 64.2849C11.5143 64.7279 10.8785 65.3713 10.4408 66.148V68.5987H11.717V65.5786H14.7033V64.2871L12.2817 64.2849Z" fill="#D50A2E"/>
<path d="M14.7024 67.9882L12.9615 66.2253H12.3585L14.6981 68.5931L14.7024 67.9882Z" fill="#D50A2E"/>
<path d="M18.2889 67.3188L18.3953 67.6481H18.7377L18.4601 67.8515L18.5665 68.1809L18.2889 67.9775L18.0124 68.1809L18.1177 67.8515L17.8412 67.6481H18.1836L18.2889 67.3188Z" fill="#D50A2E"/>
<path d="M17.0662 69.6911L17.2247 70.1851H17.7383L17.3225 70.4908L17.481 70.9848L17.0662 70.6791L16.6504 70.9848L16.8088 70.4908L16.393 70.1851H16.9067L17.0662 69.6911Z" fill="#D50A2E"/>
<path d="M17.1124 65.8089L17.2443 66.2211H17.6729L17.3262 66.4751L17.4591 66.8873L17.1124 66.6323L16.7657 66.8873L16.8986 66.4751L16.5519 66.2211H16.9805L17.1124 65.8089Z" fill="#D50A2E"/>
<path d="M15.9355 67.304L16.094 67.798H16.6077L16.1918 68.1036L16.3503 68.5987L15.9355 68.2931L15.5197 68.5987L15.6782 68.1036L15.2634 67.798H15.7771L15.9355 67.304Z" fill="#D50A2E"/>
<path d="M47.2659 64.247C50.067 64.247 52.3377 61.949 52.3377 59.1142C52.3377 56.2794 50.067 53.9813 47.2659 53.9813C44.4648 53.9813 42.1941 56.2794 42.1941 59.1142C42.1941 61.949 44.4648 64.247 47.2659 64.247Z" fill="black" stroke="black" stroke-width="0.639182" stroke-linecap="round" stroke-linejoin="round"/>
<path d="M47.2659 64.0737C49.9724 64.0737 52.1665 61.8532 52.1665 59.1141C52.1665 56.375 49.9724 54.1545 47.2659 54.1545C44.5594 54.1545 42.3653 56.375 42.3653 59.1141C42.3653 61.8532 44.5594 64.0737 47.2659 64.0737Z" fill="#EFEFEF"/>
<path d="M47.0519 59.1142H52.1673C52.1673 58.6781 52.1108 58.2439 51.9993 57.8227H47.0519V59.1142Z" fill="#D50A2E"/>
<path d="M47.0519 56.5259H51.4463C51.1462 56.0323 50.7637 55.5953 50.3158 55.2343H47.0519V56.5259Z" fill="#D50A2E"/>
<path d="M47.2632 64.0737C48.3714 64.0757 49.4474 63.6962 50.3144 62.9974H44.2141C45.0803 63.696 46.1556 64.0756 47.2632 64.0737V64.0737Z" fill="#D50A2E"/>
<path d="M43.0843 61.7017H51.4476C51.6911 61.2999 51.8766 60.865 51.9985 60.4102H42.5334C42.6549 60.8652 42.8404 61.3001 43.0843 61.7017V61.7017Z" fill="#D50A2E"/>
<path d="M44.6351 54.9284H45.0818L44.666 55.2341L44.8255 55.7281L44.4097 55.4224L43.9938 55.7248L44.131 55.2943C43.7645 55.6048 43.4442 55.9673 43.1803 56.3706H43.3292L43.0643 56.5654C43.0239 56.6354 42.9835 56.7054 42.9463 56.7807L43.0729 57.1735L42.8368 57.0003C42.7783 57.1262 42.7251 57.2543 42.6762 57.3856L42.8155 57.8161H43.3292L42.9038 58.1239L43.0633 58.6179L42.6517 58.308L42.4029 58.4909C42.3777 58.6963 42.3649 58.9029 42.3646 59.1098H47.2641V54.1534C46.3326 54.1523 45.4203 54.4212 44.6351 54.9284V54.9284ZM44.8255 58.6179L44.4097 58.308L43.9938 58.6136L44.1534 58.1196L43.7375 57.8139H44.2512L44.4097 57.3199L44.5681 57.8139H45.0818L44.666 58.1196L44.8255 58.6179ZM44.666 56.6806L44.8255 57.1746L44.4097 56.87L43.9938 57.1746L44.1534 56.6806L43.7375 56.3706H44.2512L44.4097 55.8766L44.5681 56.3706H45.0818L44.666 56.6806ZM46.5803 58.6179L46.1676 58.308L45.7518 58.6136L45.9113 58.1196L45.4955 57.8139H46.0092L46.1676 57.3199L46.3261 57.8139H46.8387L46.4229 58.1196L46.5803 58.6179ZM46.4207 56.6806L46.5803 57.1746L46.1644 56.87L45.7486 57.1746L45.9081 56.6806L45.4955 56.3706H46.0092L46.1676 55.8766L46.3261 56.3706H46.8387L46.4207 56.6806ZM46.4207 55.2362L46.5803 55.7302L46.1644 55.4246L45.7518 55.7248L45.9113 55.2308L45.4955 54.9252H46.0092L46.1676 54.4311L46.3261 54.9252H46.8387L46.4207 55.2362Z" fill="#0B55B0"/>
<path d="M70.3438 77.5048C73.1449 77.5048 75.4156 75.2067 75.4156 72.3719C75.4156 69.5371 73.1449 67.2391 70.3438 67.2391C67.5427 67.2391 65.272 69.5371 65.272 72.3719C65.272 75.2067 67.5427 77.5048 70.3438 77.5048Z" fill="black" stroke="black" stroke-width="0.639182" stroke-linecap="round" stroke-linejoin="round"/>
<path d="M70.3438 77.3315C73.0503 77.3315 75.2444 75.111 75.2444 72.3719C75.2444 69.6328 73.0503 67.4124 70.3438 67.4124C67.6373 67.4124 65.4432 69.6328 65.4432 72.3719C65.4432 75.111 67.6373 77.3315 70.3438 77.3315Z" fill="#EFEFEF"/>
<path d="M65.4437 72.3719C65.4341 71.7144 65.5538 71.0615 65.7958 70.4512C66.0379 69.841 66.3973 69.2855 66.8534 68.8171C67.3095 68.3487 67.853 67.9767 68.4524 67.7228C69.0518 67.4689 69.6951 67.3382 70.3448 67.3382C70.9946 67.3382 71.6379 67.4689 72.2373 67.7228C72.8367 67.9767 73.3802 68.3487 73.8362 68.8171C74.2923 69.2855 74.6518 69.841 74.8938 70.4512C75.1358 71.0615 75.2555 71.7144 75.2459 72.3719" fill="#D50A2E"/>
<path d="M68.4277 69.9998C68.4271 69.6558 68.5428 69.3219 68.7557 69.0537C68.9685 68.7855 69.2656 68.599 69.5976 68.5253C69.4929 68.5014 69.3859 68.4895 69.2785 68.4897C69.072 68.4939 68.8686 68.5415 68.6813 68.6295C68.4939 68.7175 68.3267 68.844 68.1903 69.0009C68.0538 69.1578 67.9511 69.3418 67.8887 69.541C67.8263 69.7403 67.8056 69.9505 67.8278 70.1583C67.85 70.3662 67.9147 70.567 68.0178 70.7482C68.1208 70.9293 68.26 71.0868 68.4265 71.2105C68.5929 71.3343 68.783 71.4217 68.9846 71.4671C69.1862 71.5125 69.395 71.515 69.5976 71.4743C69.2656 71.4006 68.9685 71.2141 68.7557 70.9459C68.5428 70.6777 68.4271 70.3438 68.4277 69.9998V69.9998Z" fill="#EFEFEF"/>
<path d="M70.3427 68.5974L70.4491 68.9268H70.7915L70.514 69.1302L70.6203 69.4606L70.3427 69.2561L70.0662 69.4606L70.1715 69.1302L69.895 68.9268H70.2375L70.3427 68.5974Z" fill="#EFEFEF"/>
<path d="M69.5138 69.2441L69.6191 69.5735H69.9616L69.684 69.778L69.7903 70.1074L69.5138 69.9039L69.2362 70.1074L69.3426 69.778L69.065 69.5735H69.4075L69.5138 69.2441Z" fill="#EFEFEF"/>
<path d="M71.175 69.2441L71.2813 69.5735H71.6227L71.3462 69.778L71.4525 70.1074L71.175 69.9039L70.8984 70.1074L71.0037 69.778L70.7272 69.5735H71.0697L71.175 69.2441Z" fill="#EFEFEF"/>
<path d="M70.855 70.2151L70.9603 70.5444H71.3028L71.0252 70.7478L71.1316 71.0772L70.855 70.8738L70.5775 71.0772L70.6838 70.7478L70.4062 70.5444H70.7487L70.855 70.2151Z" fill="#EFEFEF"/>
<path d="M69.8337 70.2151L69.9401 70.5444H70.2815L70.0049 70.7478L70.1102 71.0772L69.8337 70.8738L69.5572 71.0772L69.6625 70.7478L69.386 70.5444H69.7284L69.8337 70.2151Z" fill="#EFEFEF"/>
<path d="M59.3604 47.5226C62.1615 47.5226 64.4322 45.2245 64.4322 42.3897C64.4322 39.5549 62.1615 37.2568 59.3604 37.2568C56.5593 37.2568 54.2886 39.5549 54.2886 42.3897C54.2886 45.2245 56.5593 47.5226 59.3604 47.5226Z" fill="black" stroke="black" stroke-width="0.639182" stroke-linecap="round" stroke-linejoin="round"/>
<path d="M59.3604 47.3492C62.0669 47.3492 64.261 45.1287 64.261 42.3896C64.261 39.6505 62.0669 37.4301 59.3604 37.4301C56.6538 37.4301 54.4598 39.6505 54.4598 42.3896C54.4598 45.1287 56.6538 47.3492 59.3604 47.3492Z" fill="#EFEFEF"/>
<path d="M55.4729 39.3706C55.0826 39.8829 54.796 40.4681 54.6295 41.0927H57.1819L55.4729 39.3706Z" fill="#0B55B0"/>
<path d="M64.0929 41.096C63.9256 40.4715 63.6387 39.8864 63.2485 39.3739L61.5469 41.096H64.0929Z" fill="#0B55B0"/>
<path d="M54.6295 43.6846C54.7968 44.3088 55.0833 44.8939 55.4729 45.4066L57.1745 43.6846H54.6295Z" fill="#0B55B0"/>
<path d="M62.345 38.4558C61.8386 38.061 61.2604 37.7707 60.6434 37.6013V40.1844L62.345 38.4558Z" fill="#0B55B0"/>
<path d="M56.3774 46.3248C56.8838 46.7197 57.462 47.0101 58.079 47.1794V44.5963L56.3774 46.3248Z" fill="#0B55B0"/>
<path d="M58.082 37.6013C57.4649 37.7705 56.8868 38.0609 56.3804 38.4558L58.082 40.1779V37.6013Z" fill="#0B55B0"/>
<path d="M60.6389 47.1791C61.2559 47.0097 61.834 46.7194 62.3405 46.3246L60.6389 44.6025V47.1856V47.1791Z" fill="#0B55B0"/>
<path d="M61.5438 43.6846L63.2453 45.4066C63.6353 44.894 63.9222 44.3089 64.0898 43.6846H61.5438Z" fill="#0B55B0"/>
<path d="M64.2204 41.7428H59.9994V37.4721C59.5758 37.4163 59.1468 37.4163 58.7232 37.4721V41.7428H54.5011C54.446 42.1715 54.446 42.6057 54.5011 43.0344H58.7211V47.3084C59.1447 47.3641 59.5737 47.3641 59.9973 47.3084V43.0365H64.2183C64.2734 42.6078 64.2734 42.1737 64.2183 41.745L64.2204 41.7428Z" fill="#D50A2E"/>
<path d="M60.6389 43.6843L62.8265 45.8972C62.9275 45.796 63.0232 45.6894 63.1147 45.5743L61.2419 43.68L60.6389 43.6843Z" fill="#D50A2E"/>
<path d="M58.0824 43.6846L55.8959 45.8974C55.9958 45.9997 56.1011 46.0966 56.2096 46.1891L58.0824 44.2938V43.6846V43.6846Z" fill="#D50A2E"/>
<path d="M58.0826 41.0961L55.8961 38.8832C55.795 38.9844 55.6993 39.0909 55.6078 39.2061L57.4796 41.1004L58.0826 41.0961Z" fill="#D50A2E"/>
<path d="M60.6395 41.096L62.8271 38.8832C62.7207 38.7809 62.6218 38.6841 62.508 38.5915L60.6352 40.4858L60.6395 41.096Z" fill="#D50A2E"/>
<path d="M104.309 51.7255C107.016 51.7255 109.21 49.505 109.21 46.7659C109.21 44.0268 107.016 41.8063 104.309 41.8063C101.603 41.8063 99.4087 44.0268 99.4087 46.7659C99.4087 49.505 101.603 51.7255 104.309 51.7255Z" fill="#EFEFEF"/>
<path d="M104.309 51.8986C107.11 51.8986 109.381 49.6005 109.381 46.7657C109.381 43.9309 107.11 41.6329 104.309 41.6329C101.508 41.6329 99.2373 43.9309 99.2373 46.7657C99.2373 49.6005 101.508 51.8986 104.309 51.8986Z" fill="black" stroke="black" stroke-width="0.639182" stroke-linecap="round" stroke-linejoin="round"/>
<path d="M104.096 46.766H109.21C109.21 46.3299 109.153 45.8956 109.041 45.4745H104.096V46.766Z" fill="#D50A2E"/>
<path d="M104.096 44.1784H108.49C108.191 43.6844 107.808 43.2473 107.36 42.8868H104.096V44.1784Z" fill="#D50A2E"/>
<path d="M104.309 51.7264C105.417 51.7288 106.493 51.3492 107.36 50.6501H101.259C102.125 51.349 103.201 51.7286 104.309 51.7264V51.7264Z" fill="#D50A2E"/>
<path d="M100.128 49.3531H108.491C108.735 48.9518 108.921 48.5168 109.042 48.0616H99.5768C99.6982 48.5166 99.8838 48.9516 100.128 49.3531V49.3531Z" fill="#D50A2E"/>
<path d="M104.309 46.7659V41.8063C103.01 41.8063 101.763 42.3289 100.844 43.259C99.925 44.1891 99.4087 45.4506 99.4087 46.7659H104.309Z" fill="#0B55B0"/>
<path d="M102.673 46.0511C102.488 46.0514 102.306 46.009 102.14 45.9271C101.974 45.8452 101.828 45.726 101.715 45.5786C101.601 45.4312 101.522 45.2595 101.484 45.0766C101.446 44.8936 101.45 44.7044 101.495 44.5232C101.541 44.342 101.626 44.1736 101.746 44.031C101.865 43.8884 102.015 43.7753 102.184 43.7003C102.353 43.6253 102.537 43.5904 102.722 43.5983C102.906 43.6061 103.087 43.6566 103.249 43.7457C103.039 43.5388 102.774 43.3991 102.486 43.3441C102.198 43.289 101.901 43.3211 101.631 43.4363C101.361 43.5514 101.131 43.7446 100.969 43.9915C100.807 44.2385 100.721 44.5283 100.721 44.8247C100.721 45.1211 100.807 45.4109 100.969 45.6578C101.131 45.9048 101.361 46.0979 101.631 46.2131C101.901 46.3283 102.198 46.3603 102.486 46.3053C102.774 46.2503 103.039 46.1106 103.249 45.9037C103.072 46.0012 102.874 46.0519 102.673 46.0511V46.0511Z" fill="#FDD853"/>
<path d="M103.009 43.962L103.225 44.4173L103.711 44.3043L103.493 44.7585L103.884 45.0717L103.397 45.1826L103.398 45.6873L103.009 45.372L102.621 45.6873L102.622 45.1826L102.135 45.0717L102.526 44.7585L102.308 44.3043L102.794 44.4173L103.009 43.962Z" fill="#FDD853"/>
</svg>
