<svg width="184" height="184" viewBox="0 0 184 184" fill="none" xmlns="http://www.w3.org/2000/svg">
<g clip-path="url(#clip0_367_1674)">
<path d="M68.6262 49.563H26.4214C26.7752 47.5583 27.8241 45.7425 29.384 44.4346C30.9439 43.1267 32.9149 42.4105 34.9506 42.4117H35.2843C36.4858 40.2709 38.2916 38.5315 40.4759 37.411C42.6602 36.2905 45.1263 35.8386 47.566 36.1116C50.0057 36.3846 52.3109 37.3704 54.1935 38.946C56.0762 40.5216 57.4528 42.617 58.1514 44.9704C59.0422 44.1371 60.1576 43.583 61.3599 43.3766C62.5621 43.1702 63.7985 43.3206 64.9162 43.8091C66.0339 44.2977 66.984 45.103 67.6491 46.1256C68.3141 47.1481 68.6651 48.3432 68.6585 49.563H68.6262Z" fill="#6A52DE"/>
<path d="M53.5459 52.6261H11.3411C11.6949 50.6214 12.744 48.8056 14.3039 47.4977C15.8638 46.1898 17.8346 45.4735 19.8703 45.4748H20.2042C21.4057 43.3339 23.2113 41.5946 25.3956 40.4741C27.5799 39.3537 30.0461 38.9017 32.4858 39.1747C34.9256 39.4477 37.2307 40.4335 39.1134 42.0091C40.996 43.5847 42.3726 45.6801 43.0712 48.0336C43.9618 47.2 45.0772 46.6457 46.2794 46.4392C47.4817 46.2327 48.7181 46.383 49.8358 46.8717C50.9535 47.3603 51.9035 48.1657 52.5683 49.1884C53.2332 50.2111 53.5838 51.4063 53.5768 52.6261H53.5459Z" stroke="white" stroke-width="0.383622" stroke-linecap="round" stroke-linejoin="round"/>
<path d="M86.0395 138.073C114.045 138.073 136.748 115.369 136.748 87.3636C136.748 59.3577 114.045 36.6546 86.0395 36.6546C58.0337 36.6546 35.3305 59.3577 35.3305 87.3636C35.3305 115.369 58.0337 138.073 86.0395 138.073Z" stroke="white" stroke-width="0.383622" stroke-miterlimit="10"/>
<path d="M86.0385 131.277C110.291 131.277 129.952 111.616 129.952 87.3631C129.952 63.1103 110.291 43.4496 86.0385 43.4496C61.7857 43.4496 42.1249 63.1103 42.1249 87.3631C42.1249 111.616 61.7857 131.277 86.0385 131.277Z" fill="#C0C3F6"/>
<path d="M72.5701 136.281C60.5777 124.748 52.9118 107.122 52.9118 87.3679C52.9118 67.614 60.5777 49.9835 72.5701 38.4514" stroke="white" stroke-width="0.383622" stroke-miterlimit="10"/>
<path d="M99.5165 38.4469C111.509 49.979 119.176 67.605 119.176 87.3604C119.176 107.116 111.502 124.745 99.5165 136.277" stroke="white" stroke-width="0.383622" stroke-miterlimit="10"/>
<path d="M35.3305 87.3635H136.748" stroke="white" stroke-width="0.383622" stroke-miterlimit="10"/>
<path d="M86.0394 36.6557V138.072" stroke="white" stroke-width="0.383622" stroke-miterlimit="10"/>
<path d="M147.637 143.078H113.676C113.964 141.464 114.811 140.004 116.068 138.952C117.324 137.9 118.911 137.323 120.55 137.324H120.816C121.785 135.606 123.237 134.212 124.992 133.314C126.748 132.416 128.728 132.054 130.688 132.274C132.647 132.493 134.499 133.284 136.012 134.548C137.525 135.812 138.633 137.493 139.198 139.382C139.918 138.727 140.813 138.294 141.774 138.137C142.735 137.98 143.721 138.105 144.612 138.498C145.503 138.89 146.261 139.533 146.794 140.348C147.327 141.164 147.612 142.116 147.614 143.09L147.637 143.078Z" fill="#C0C3F6"/>
<path d="M147.638 143.078V142.98H113.677V143.072H113.771C114.056 141.478 114.893 140.036 116.136 138.998C117.38 137.96 118.949 137.394 120.568 137.399H120.828C120.846 137.399 120.863 137.394 120.878 137.386C120.894 137.377 120.906 137.364 120.915 137.349C121.88 135.656 123.321 134.284 125.059 133.401C126.796 132.519 128.754 132.166 130.691 132.385C132.627 132.604 134.457 133.386 135.953 134.634C137.45 135.882 138.547 137.542 139.11 139.408C139.113 139.423 139.12 139.436 139.131 139.447C139.143 139.458 139.157 139.465 139.172 139.47C139.184 139.478 139.199 139.483 139.215 139.483C139.23 139.483 139.245 139.478 139.257 139.47C139.964 138.825 140.842 138.399 141.786 138.244C142.73 138.088 143.698 138.21 144.574 138.594C145.45 138.978 146.196 139.608 146.721 140.407C147.247 141.206 147.529 142.141 147.533 143.097H147.719C147.716 142.104 147.424 141.134 146.88 140.303C146.335 139.473 145.561 138.818 144.652 138.42C143.743 138.021 142.737 137.895 141.757 138.057C140.778 138.219 139.866 138.662 139.134 139.333L139.197 139.402H139.288C138.712 137.501 137.591 135.811 136.064 134.541C134.537 133.271 132.671 132.477 130.697 132.258C128.723 132.039 126.728 132.404 124.959 133.308C123.19 134.212 121.726 135.615 120.747 137.343L120.834 137.386V137.293H120.562C118.904 137.294 117.299 137.878 116.029 138.944C114.759 140.01 113.904 141.488 113.615 143.121C113.609 143.134 113.606 143.148 113.606 143.162C113.606 143.176 113.609 143.189 113.615 143.202C113.635 143.221 113.662 143.232 113.69 143.233H147.632C147.654 143.242 147.678 143.242 147.7 143.233C147.717 143.214 147.728 143.19 147.732 143.165L147.638 143.078Z" fill="#C0C3F6"/>
<path d="M34.9464 128.568C35.2082 128.568 35.464 128.49 35.6817 128.345C35.8993 128.2 36.0689 127.993 36.1691 127.751C36.2692 127.509 36.2955 127.243 36.2445 126.986C36.1934 126.73 36.0674 126.494 35.8823 126.309C35.6972 126.124 35.4613 125.998 35.2046 125.946C34.9479 125.895 34.6817 125.922 34.4399 126.022C34.198 126.122 33.9913 126.292 33.8459 126.509C33.7005 126.727 33.6229 126.983 33.6229 127.245C33.6229 127.596 33.7623 127.932 34.0105 128.18C34.2587 128.429 34.5954 128.568 34.9464 128.568Z" stroke="white" stroke-width="0.383622" stroke-miterlimit="10"/>
<path d="M8.22349 43.6556C8.48525 43.6556 8.74112 43.578 8.95876 43.4326C9.17641 43.2871 9.346 43.0804 9.44617 42.8386C9.54634 42.5968 9.57249 42.3306 9.52142 42.0739C9.47035 41.8172 9.34434 41.5814 9.15924 41.3963C8.97415 41.2112 8.73843 41.0851 8.4817 41.034C8.22496 40.983 7.95882 41.0092 7.71698 41.1094C7.47515 41.2095 7.26845 41.3792 7.12302 41.5968C6.97759 41.8145 6.89999 42.0704 6.89999 42.3321C6.89999 42.6831 7.03939 43.0197 7.28759 43.2679C7.5358 43.5162 7.87248 43.6556 8.22349 43.6556V43.6556Z" stroke="white" stroke-width="0.383622" stroke-miterlimit="10"/>
<path d="M150.986 115.446C151.248 115.446 151.503 115.369 151.721 115.223C151.939 115.078 152.108 114.871 152.208 114.629C152.309 114.388 152.335 114.121 152.284 113.865C152.233 113.608 152.107 113.372 151.922 113.187C151.737 113.002 151.501 112.876 151.244 112.825C150.987 112.774 150.721 112.8 150.479 112.9C150.237 113 150.031 113.17 149.885 113.388C149.74 113.605 149.662 113.861 149.662 114.123C149.662 114.474 149.802 114.811 150.05 115.059C150.298 115.307 150.635 115.446 150.986 115.446V115.446Z" stroke="white" stroke-width="0.383622" stroke-miterlimit="10"/>
<path d="M18.3203 102.375V99.3896" stroke="white" stroke-width="0.383622" stroke-linecap="round" stroke-linejoin="round"/>
<path d="M16.8244 100.885H19.8097" stroke="white" stroke-width="0.383622" stroke-linecap="round" stroke-linejoin="round"/>
<path d="M25.8301 74.977V71.9918" stroke="white" stroke-width="0.383622" stroke-linecap="round" stroke-linejoin="round"/>
<path d="M24.3409 73.4815H27.3261" stroke="white" stroke-width="0.383622" stroke-linecap="round" stroke-linejoin="round"/>
<path d="M147.267 61.8127V58.8274" stroke="white" stroke-width="0.383622" stroke-linecap="round" stroke-linejoin="round"/>
<path d="M145.772 60.3228H148.757" stroke="white" stroke-width="0.383622" stroke-linecap="round" stroke-linejoin="round"/>
<path fill-rule="evenodd" clip-rule="evenodd" d="M103.935 58.8935V53.9495H95.2838V34.5H122.105V53.9612H110.858L103.935 58.8935Z" fill="#6A52DE" stroke="black" stroke-width="0.383622" stroke-miterlimit="10"/>
<path d="M104.894 112.343V107.566H100.82V91.4969H123.57V107.566H107.953L104.894 112.343Z" fill="white" stroke="black" stroke-width="0.383622" stroke-linejoin="round"/>
<path d="M108.695 99.241C108.694 99.5226 108.61 99.7977 108.453 100.031C108.296 100.265 108.073 100.447 107.813 100.554C107.619 100.635 107.409 100.672 107.199 100.662C106.989 100.651 106.783 100.595 106.598 100.496C106.412 100.396 106.251 100.257 106.126 100.088C106.001 99.9187 105.915 99.7239 105.875 99.5174C105.819 99.2421 105.846 98.9564 105.954 98.6969C106.063 98.4376 106.246 98.2157 106.479 98.0587C106.692 97.917 106.94 97.8358 107.196 97.8235C107.452 97.8112 107.707 97.8684 107.933 97.989C108.159 98.1096 108.348 98.289 108.48 98.5084C108.613 98.7278 108.683 98.9789 108.685 99.2351L108.695 99.241Z" fill="#6A52DE"/>
<path d="M113.46 99.2409C113.461 99.5946 113.329 99.936 113.092 100.198C112.855 100.461 112.528 100.626 112.176 100.661C111.824 100.696 111.472 100.599 111.187 100.388C110.903 100.178 110.707 99.8693 110.638 99.5224C110.568 99.1754 110.63 98.8151 110.812 98.5115C110.994 98.2078 111.282 97.9826 111.62 97.8797C111.959 97.7767 112.323 97.8033 112.643 97.9543C112.963 98.1053 113.216 98.37 113.351 98.6968C113.423 98.8691 113.46 99.0541 113.46 99.2409Z" fill="#6A52DE"/>
<path d="M118.515 99.2409C118.514 99.5225 118.43 99.7976 118.273 100.031C118.116 100.265 117.893 100.447 117.633 100.554C117.439 100.635 117.229 100.672 117.019 100.662C116.808 100.651 116.603 100.595 116.418 100.495C116.232 100.396 116.071 100.257 115.946 100.088C115.821 99.9186 115.735 99.7238 115.695 99.5173C115.639 99.2419 115.667 98.956 115.775 98.6968C115.901 98.3926 116.128 98.1415 116.418 97.9862C116.708 97.8309 117.043 97.781 117.366 97.8453C117.689 97.9095 117.979 98.0838 118.188 98.3383C118.396 98.5928 118.51 98.9119 118.509 99.2409H118.515Z" fill="#6A52DE"/>
<path fill-rule="evenodd" clip-rule="evenodd" d="M59.5963 96.9941V92.2237H67.9711V74.577H42.0188V92.2237H52.9009L59.5963 96.9941Z" fill="#A77FFA" stroke="black" stroke-width="0.383622" stroke-miterlimit="10"/>
<path d="M63.9026 80.8386H46.0853" stroke="white" stroke-width="0.383051" stroke-linecap="round" stroke-linejoin="round"/>
<path d="M63.9032 86.2837H52.7916" stroke="white" stroke-width="0.383051" stroke-linecap="round" stroke-linejoin="round"/>
<path d="M49.8617 86.2837H46.0853" stroke="white" stroke-width="0.383051" stroke-linecap="round" stroke-linejoin="round"/>
<path d="M135.36 146.153H177.1" stroke="white" stroke-width="0.383622" stroke-miterlimit="10"/>
<path d="M115.672 150.538H157.412" stroke="white" stroke-width="0.383622" stroke-miterlimit="10"/>
<path d="M167.38 146.153H126.575C126.92 144.215 127.936 142.461 129.446 141.197C130.955 139.933 132.86 139.241 134.829 139.241C134.936 139.241 135.045 139.241 135.151 139.249C136.314 137.183 138.059 135.505 140.169 134.424C142.278 133.343 144.659 132.907 147.015 133.17C149.371 133.433 151.597 134.384 153.417 135.903C155.236 137.422 156.569 139.444 157.247 141.715C158.11 140.92 159.186 140.394 160.343 140.201C161.5 140.007 162.689 140.155 163.763 140.626C164.838 141.097 165.752 141.871 166.394 142.853C167.036 143.835 167.378 144.983 167.378 146.156L167.38 146.153Z" stroke="white" stroke-width="0.383622" stroke-linecap="round" stroke-linejoin="round"/>
<path d="M103.368 44.7198C103.367 45.1516 103.238 45.5734 102.997 45.9318C102.756 46.2902 102.414 46.5692 102.015 46.7333C101.717 46.8574 101.395 46.9137 101.073 46.8981C100.751 46.8825 100.436 46.7955 100.152 46.6434C99.8673 46.4912 99.6204 46.2777 99.4286 46.0183C99.2368 45.759 99.1052 45.4602 99.043 45.1437C98.9577 44.7215 98.9999 44.2835 99.1646 43.8855C99.3319 43.4878 99.6117 43.1477 99.9696 42.9069C100.297 42.6897 100.677 42.5651 101.07 42.5463C101.462 42.5275 101.852 42.6151 102.199 42.8C102.545 42.9849 102.836 43.2601 103.039 43.5965C103.242 43.9328 103.35 44.3179 103.352 44.7107L103.368 44.7198Z" stroke="white" stroke-width="0.383621"/>
<path d="M110.676 44.7194C110.676 45.2619 110.475 45.7853 110.111 46.1877C109.748 46.5902 109.247 46.8429 108.707 46.8967C108.168 46.9505 107.627 46.8017 107.191 46.479C106.755 46.1564 106.454 45.683 106.348 45.1511C106.242 44.6191 106.337 44.0666 106.615 43.601C106.894 43.1355 107.336 42.7902 107.855 42.6323C108.374 42.4743 108.933 42.5151 109.423 42.7467C109.914 42.9783 110.301 43.3841 110.509 43.8851C110.619 44.1494 110.676 44.433 110.676 44.7194V44.7194Z" stroke="white" stroke-width="0.383621"/>
<path d="M118.428 44.7195C118.427 45.1513 118.298 45.5731 118.057 45.9315C117.816 46.2899 117.474 46.5689 117.075 46.733C116.777 46.8571 116.455 46.9134 116.133 46.8978C115.811 46.8822 115.496 46.7952 115.212 46.6431C114.927 46.4909 114.68 46.2774 114.488 46.0181C114.297 45.7587 114.165 45.4599 114.103 45.1434C114.017 44.721 114.06 44.2827 114.227 43.8852C114.419 43.4188 114.768 43.0337 115.212 42.7955C115.657 42.5574 116.171 42.4811 116.666 42.5795C117.16 42.678 117.606 42.9453 117.925 43.3355C118.245 43.7258 118.42 44.215 118.419 44.7195H118.428Z" stroke="white" stroke-width="0.383621"/>
</g>
<defs>
<clipPath id="clip0_367_1674">
<rect width="184" height="184" fill="white"/>
</clipPath>
</defs>
</svg>
