<svg width="120" height="120" viewBox="0 0 120 120" fill="none" xmlns="http://www.w3.org/2000/svg">
<g clip-path="url(#clip0_299_2850)">
<path d="M44.7562 32.3237H17.2313C17.4621 31.0163 18.1462 29.8321 19.1635 28.9791C20.1808 28.1261 21.4662 27.659 22.7938 27.6598H23.0115C23.7951 26.2636 24.9728 25.1293 26.3973 24.3985C27.8219 23.6677 29.4302 23.373 31.0213 23.551C32.6124 23.7291 34.1158 24.372 35.3436 25.3996C36.5714 26.4271 37.4692 27.7937 37.9248 29.3286C38.5058 28.7851 39.2332 28.4237 40.0173 28.2891C40.8014 28.1545 41.6077 28.2525 42.3366 28.5712C43.0656 28.8898 43.6852 29.415 44.1189 30.0819C44.5527 30.7488 44.7816 31.5281 44.7773 32.3237H44.7562Z" fill="#6A52DE"/>
<path d="M34.9212 34.3214H7.39636C7.6271 33.014 8.31129 31.8297 9.32861 30.9767C10.3459 30.1238 11.6313 29.6567 12.9589 29.6575H13.1766C13.9602 28.2613 15.1378 27.1269 16.5624 26.3962C17.9869 25.6654 19.5953 25.3707 21.1864 25.5487C22.7776 25.7267 24.2809 26.3697 25.5087 27.3972C26.7365 28.4248 27.6343 29.7914 28.0899 31.3262C28.6708 30.7826 29.3982 30.4211 30.1822 30.2864C30.9663 30.1518 31.7726 30.2498 32.5016 30.5685C33.2305 30.8871 33.8501 31.4124 34.2837 32.0794C34.7173 32.7464 34.946 33.5258 34.9414 34.3214H34.9212Z" stroke="white" stroke-width="0.383622" stroke-linecap="round" stroke-linejoin="round"/>
<path d="M56.1127 90.0473C74.3774 90.0473 89.1838 75.2409 89.1838 56.9762C89.1838 38.7116 74.3774 23.9052 56.1127 23.9052C37.8481 23.9052 23.0416 38.7116 23.0416 56.9762C23.0416 75.2409 37.8481 90.0473 56.1127 90.0473Z" stroke="white" stroke-width="0.383622" stroke-miterlimit="10"/>
<path d="M56.1121 85.6153C71.9291 85.6153 84.7514 72.793 84.7514 56.976C84.7514 41.1589 71.9291 28.3367 56.1121 28.3367C40.295 28.3367 27.4728 41.1589 27.4728 56.976C27.4728 72.793 40.295 85.6153 56.1121 85.6153Z" fill="#C0C3F6"/>
<path d="M47.3283 88.8791C39.5072 81.3572 34.5077 69.862 34.5077 56.979C34.5077 44.0961 39.5072 32.5979 47.3283 25.077" stroke="white" stroke-width="0.383622" stroke-miterlimit="10"/>
<path d="M64.9021 25.0741C72.7232 32.595 77.7237 44.0902 77.7237 56.9742C77.7237 69.8581 72.7184 81.3553 64.9021 88.8762" stroke="white" stroke-width="0.383622" stroke-miterlimit="10"/>
<path d="M23.0416 56.9762H89.1838" stroke="white" stroke-width="0.383622" stroke-miterlimit="10"/>
<path d="M56.1127 23.9059V90.0471" stroke="white" stroke-width="0.383622" stroke-miterlimit="10"/>
<path d="M96.2853 93.3116H74.1368C74.3246 92.2594 74.8767 91.3068 75.6962 90.6207C76.5158 89.9346 77.5506 89.5587 78.6195 89.5589H78.793C79.4248 88.4389 80.372 87.5295 81.5168 86.9439C82.6616 86.3583 83.9533 86.1223 85.2312 86.2655C86.509 86.4086 87.7167 86.9244 88.7035 87.7488C89.6904 88.5731 90.4129 89.6696 90.7812 90.9015C91.2507 90.4739 91.8344 90.1917 92.4612 90.0893C93.0879 89.9869 93.731 90.0687 94.3122 90.3247C94.8934 90.5808 95.3878 91 95.7353 91.5316C96.0829 92.0632 96.2686 92.6842 96.2699 93.3193L96.2853 93.3116Z" fill="#C0C3F6"/>
<path d="M96.2856 93.3119V93.2477H74.1371V93.3081H74.1985C74.3842 92.2685 74.9304 91.3276 75.7411 90.6509C76.5519 89.9742 77.5753 89.6049 78.6313 89.6081H78.801C78.8124 89.608 78.8237 89.6051 78.8336 89.5994C78.8436 89.5937 78.8519 89.5854 78.8576 89.5754C79.4873 88.4715 80.4269 87.5764 81.5601 87.001C82.6933 86.4255 83.9702 86.195 85.2331 86.3379C86.4959 86.4808 87.6892 86.9908 88.6651 87.8049C89.6411 88.619 90.3569 89.7014 90.724 90.9181C90.7259 90.9279 90.7305 90.9368 90.7374 90.944C90.7451 90.9508 90.7543 90.9557 90.7643 90.9584C90.7724 90.9641 90.7822 90.9671 90.7921 90.967C90.8021 90.9672 90.8118 90.9642 90.8199 90.9584C91.2807 90.5379 91.8536 90.2602 92.4691 90.1588C93.0846 90.0574 93.7163 90.1368 94.2876 90.3872C94.8589 90.6376 95.3453 91.0484 95.6879 91.5697C96.0304 92.0911 96.2143 92.7006 96.2174 93.3244H96.3383C96.3363 92.6768 96.1462 92.0437 95.7912 91.5021C95.4361 90.9606 94.9314 90.5338 94.3383 90.2737C93.7452 90.0136 93.0893 89.9315 92.4504 90.0372C91.8115 90.1429 91.2171 90.432 90.7394 90.8692L90.7806 90.9143H90.8401C90.4646 89.6745 89.7335 88.5723 88.7375 87.7441C87.7415 86.9159 86.5244 86.3982 85.237 86.2553C83.9496 86.1123 82.6484 86.3504 81.495 86.9399C80.3416 87.5294 79.3866 88.4444 78.7483 89.5716L78.8049 89.5994V89.539H78.6275C77.5462 89.5396 76.4996 89.9207 75.6712 90.6157C74.8428 91.3106 74.2854 92.275 74.0969 93.3397C74.093 93.3482 74.091 93.3573 74.0911 93.3666C74.0911 93.3755 74.0931 93.3844 74.0969 93.3925C74.11 93.4052 74.1275 93.4124 74.1458 93.4126H96.2818C96.2959 93.4184 96.3117 93.4184 96.3259 93.4126C96.337 93.4003 96.3443 93.3849 96.3469 93.3685L96.2856 93.3119Z" fill="#C0C3F6"/>
<path d="M22.7911 83.8487C22.9618 83.8487 23.1287 83.7981 23.2707 83.7033C23.4126 83.6084 23.5232 83.4736 23.5885 83.3159C23.6539 83.1582 23.671 82.9846 23.6377 82.8172C23.6044 82.6498 23.5222 82.496 23.4015 82.3752C23.2808 82.2545 23.127 82.1723 22.9595 82.139C22.7921 82.1057 22.6185 82.1228 22.4608 82.1881C22.3031 82.2535 22.1683 82.3641 22.0734 82.506C21.9786 82.648 21.928 82.8149 21.928 82.9856C21.928 83.2145 22.0189 83.4341 22.1808 83.5959C22.3426 83.7578 22.5622 83.8487 22.7911 83.8487Z" stroke="white" stroke-width="0.383622" stroke-miterlimit="10"/>
<path d="M5.36315 28.4711C5.53386 28.4711 5.70073 28.4204 5.84268 28.3256C5.98462 28.2307 6.09522 28.0959 6.16055 27.9382C6.22588 27.7805 6.24293 27.6069 6.20963 27.4395C6.17632 27.2721 6.09414 27.1183 5.97342 26.9976C5.85271 26.8768 5.69898 26.7946 5.53155 26.7613C5.36411 26.728 5.19054 26.7451 5.03282 26.8105C4.8751 26.8758 4.74029 26.9864 4.64545 27.1284C4.55061 27.2703 4.5 27.4372 4.5 27.6079C4.5 27.8368 4.59091 28.0564 4.75278 28.2182C4.91465 28.3801 5.13423 28.4711 5.36315 28.4711V28.4711Z" stroke="white" stroke-width="0.383622" stroke-miterlimit="10"/>
<path d="M98.469 75.2911C98.6397 75.2911 98.8066 75.2405 98.9485 75.1457C99.0905 75.0508 99.2011 74.916 99.2664 74.7583C99.3317 74.6006 99.3489 74.427 99.3156 74.2596C99.2823 74.0921 99.2001 73.9383 99.0794 73.8176C98.9586 73.6969 98.8048 73.6147 98.6374 73.5814C98.4699 73.5481 98.2964 73.5652 98.1387 73.6305C97.9809 73.6959 97.8461 73.8065 97.7513 73.9484C97.6564 74.0904 97.6058 74.2573 97.6058 74.428C97.6058 74.6569 97.6967 74.8764 97.8586 75.0383C98.0205 75.2002 98.2401 75.2911 98.469 75.2911V75.2911Z" stroke="white" stroke-width="0.383622" stroke-miterlimit="10"/>
<path d="M11.948 66.7662V64.8193" stroke="white" stroke-width="0.383622" stroke-linecap="round" stroke-linejoin="round"/>
<path d="M10.9724 65.7946H12.9194" stroke="white" stroke-width="0.383622" stroke-linecap="round" stroke-linejoin="round"/>
<path d="M16.8457 48.8981V46.9512" stroke="white" stroke-width="0.383622" stroke-linecap="round" stroke-linejoin="round"/>
<path d="M15.8745 47.9227H17.8214" stroke="white" stroke-width="0.383622" stroke-linecap="round" stroke-linejoin="round"/>
<path d="M96.0436 40.3126V38.3657" stroke="white" stroke-width="0.383622" stroke-linecap="round" stroke-linejoin="round"/>
<path d="M95.0687 39.3409H97.0156" stroke="white" stroke-width="0.383622" stroke-linecap="round" stroke-linejoin="round"/>
<path fill-rule="evenodd" clip-rule="evenodd" d="M67.7837 38.4088V35.1845H62.1416V22.5H79.6339V35.1921H72.299L67.7837 38.4088Z" fill="#6A52DE" stroke="black" stroke-width="0.383622" stroke-miterlimit="10"/>
<path d="M68.409 73.2674V70.1515H65.7524V59.6719H80.589V70.1515H70.4039L68.409 73.2674Z" fill="white" stroke="black" stroke-width="0.383622" stroke-linejoin="round"/>
<path d="M70.8881 64.7224C70.8877 64.9061 70.8328 65.0855 70.7303 65.2379C70.6279 65.3904 70.4826 65.509 70.3127 65.5788C70.1861 65.6316 70.0493 65.6555 69.9122 65.6489C69.7752 65.6423 69.6413 65.6053 69.5203 65.5406C69.3993 65.4758 69.2943 65.385 69.2127 65.2747C69.1311 65.1644 69.0751 65.0373 69.0487 64.9027C69.0124 64.7231 69.0303 64.5368 69.1004 64.3675C69.1715 64.1984 69.2906 64.0537 69.4428 63.9513C69.5821 63.8589 69.7437 63.8059 69.9106 63.7979C70.0775 63.7899 70.2435 63.8272 70.3909 63.9059C70.5384 63.9845 70.6618 64.1015 70.7481 64.2446C70.8345 64.3877 70.8805 64.5514 70.8814 64.7185L70.8881 64.7224Z" fill="#6A52DE"/>
<path d="M73.9957 64.7223C73.996 64.953 73.9104 65.1756 73.7557 65.3468C73.601 65.518 73.3882 65.6255 73.1586 65.6484C72.929 65.6713 72.699 65.6079 72.5135 65.4707C72.3281 65.3335 72.2003 65.1321 72.155 64.9059C72.1098 64.6796 72.1503 64.4446 72.2687 64.2466C72.3871 64.0486 72.5751 63.9017 72.7958 63.8346C73.0166 63.7674 73.2544 63.7847 73.463 63.8832C73.6717 63.9817 73.8362 64.1543 73.9247 64.3674C73.9716 64.4799 73.9958 64.6005 73.9957 64.7223Z" fill="#6A52DE"/>
<path d="M77.2925 64.7223C77.2921 64.906 77.2371 65.0854 77.1347 65.2378C77.0323 65.3903 76.887 65.5089 76.7171 65.5788C76.5904 65.6315 76.4535 65.6554 76.3165 65.6488C76.1795 65.6422 76.0456 65.6052 75.9246 65.5405C75.8037 65.4758 75.6985 65.385 75.617 65.2746C75.5354 65.1643 75.4794 65.0372 75.453 64.9026C75.4165 64.723 75.4349 64.5365 75.5057 64.3675C75.5875 64.1691 75.7357 64.0053 75.9249 63.904C76.1141 63.8027 76.3326 63.7702 76.5431 63.8121C76.7535 63.854 76.9429 63.9677 77.0789 64.1337C77.2149 64.2997 77.289 64.5077 77.2887 64.7223H77.2925Z" fill="#6A52DE"/>
<path fill-rule="evenodd" clip-rule="evenodd" d="M38.8672 63.257V60.1459H44.329V48.6372H27.4036V60.1459H34.5006L38.8672 63.257Z" fill="#A77FFA" stroke="black" stroke-width="0.383622" stroke-miterlimit="10"/>
<path d="M41.6756 52.7208H30.0557" stroke="white" stroke-width="0.383051" stroke-linecap="round" stroke-linejoin="round"/>
<path d="M41.676 56.272H34.4293" stroke="white" stroke-width="0.383051" stroke-linecap="round" stroke-linejoin="round"/>
<path d="M32.5185 56.272H30.0557" stroke="white" stroke-width="0.383051" stroke-linecap="round" stroke-linejoin="round"/>
<path d="M88.2784 95.3174H115.5" stroke="white" stroke-width="0.383622" stroke-miterlimit="10"/>
<path d="M75.4384 98.1771H102.66" stroke="white" stroke-width="0.383622" stroke-miterlimit="10"/>
<path d="M109.161 95.3171H82.5487C82.7739 94.0533 83.4368 92.909 84.421 92.0849C85.4053 91.2607 86.6481 90.8093 87.9319 90.8096C88.0019 90.8096 88.0729 90.8096 88.1419 90.8143C88.9003 89.4672 90.0383 88.373 91.4143 87.668C92.7902 86.9631 94.343 86.6786 95.8795 86.8501C97.4159 87.0216 98.8679 87.6414 100.055 88.6323C101.241 89.6233 102.11 90.9415 102.553 92.4227C103.116 91.9044 103.817 91.5613 104.572 91.4352C105.326 91.3092 106.101 91.4056 106.802 91.7128C107.503 92.02 108.099 92.5246 108.518 93.165C108.936 93.8055 109.159 94.5539 109.16 95.319L109.161 95.3171Z" stroke="white" stroke-width="0.383622" stroke-linecap="round" stroke-linejoin="round"/>
<path d="M68.3577 28.9281C68.3573 29.1117 68.3024 29.2911 68.1999 29.4436C68.0975 29.596 67.9522 29.7147 67.7823 29.7845C67.6557 29.8373 67.5189 29.8612 67.3818 29.8546C67.2448 29.848 67.1109 29.811 66.9899 29.7462C66.8689 29.6815 66.7639 29.5907 66.6823 29.4804C66.6007 29.3701 66.5447 29.243 66.5183 29.1084C66.482 28.9288 66.4999 28.7425 66.57 28.5732C66.6411 28.4041 66.7602 28.2594 66.9124 28.157C67.0517 28.0646 67.2133 28.0116 67.3802 28.0036C67.5471 27.9956 67.7131 28.0329 67.8605 28.1115C68.008 28.1902 68.1314 28.3072 68.2177 28.4503C68.3041 28.5934 68.3501 28.7571 68.351 28.9242L68.3577 28.9281Z" stroke="white" stroke-width="0.383621"/>
<path d="M71.466 28.928C71.4663 29.1587 71.3808 29.3813 71.2261 29.5525C71.0713 29.7237 70.8585 29.8311 70.6289 29.854C70.3993 29.8769 70.1694 29.8136 69.9839 29.6764C69.7984 29.5392 69.6706 29.3378 69.6254 29.1116C69.5801 28.8853 69.6206 28.6503 69.7391 28.4523C69.8575 28.2543 70.0454 28.1074 70.2662 28.0402C70.4869 27.9731 70.7247 27.9904 70.9334 28.0889C71.142 28.1874 71.3066 28.36 71.395 28.5731C71.442 28.6855 71.4661 28.8062 71.466 28.928V28.928Z" stroke="white" stroke-width="0.383621"/>
<path d="M74.7632 28.928C74.7628 29.1117 74.7078 29.2911 74.6054 29.4435C74.503 29.596 74.3577 29.7146 74.1878 29.7844C74.0611 29.8372 73.9242 29.8611 73.7872 29.8545C73.6502 29.8479 73.5163 29.8109 73.3953 29.7462C73.2744 29.6815 73.1692 29.5907 73.0877 29.4803C73.0061 29.37 72.9501 29.2429 72.9237 29.1083C72.8872 28.9287 72.9056 28.7422 72.9764 28.5732C73.0582 28.3748 73.2064 28.211 73.3956 28.1097C73.5848 28.0084 73.8033 27.9759 74.0138 28.0178C74.2242 28.0597 74.4136 28.1734 74.5496 28.3394C74.6856 28.5054 74.7597 28.7134 74.7594 28.928H74.7632Z" stroke="white" stroke-width="0.383621"/>
</g>
<defs>
<clipPath id="clip0_299_2850">
<rect width="120" height="120" fill="white"/>
</clipPath>
</defs>
</svg>
