<svg width="184" height="186" viewBox="0 0 184 186" fill="none" xmlns="http://www.w3.org/2000/svg">
<path d="M91.0303 143.193C118.89 143.193 141.474 120.088 141.474 91.5868C141.474 63.0856 118.89 39.9808 91.0303 39.9808C63.1709 39.9808 40.5863 63.0856 40.5863 91.5868C40.5863 120.088 63.1709 143.193 91.0303 143.193Z" fill="#C6CAFA" stroke="#C6CBFA" stroke-width="0.639182" stroke-linecap="round" stroke-linejoin="round"/>
<path d="M91.028 149.652C122.375 149.652 147.786 123.656 147.786 91.5869C147.786 59.5182 122.375 33.5214 91.028 33.5214C59.6815 33.5214 34.2701 59.5182 34.2701 91.5869C34.2701 123.656 59.6815 149.652 91.028 149.652Z" stroke="white" stroke-width="0.639182" stroke-linecap="round" stroke-linejoin="round"/>
<path d="M75.9504 147.599C62.5217 134.396 53.9458 114.212 53.9458 91.592C53.9458 68.972 62.5217 48.7844 75.9504 35.5768" stroke="white" stroke-width="0.639182" stroke-linecap="round" stroke-linejoin="round"/>
<path d="M106.103 35.5717C119.527 48.7793 128.108 68.9619 128.108 91.5835C128.108 114.205 119.527 134.391 106.103 147.599" stroke="white" stroke-width="0.639182" stroke-linecap="round" stroke-linejoin="round"/>
<path d="M145.781 107.012C132.872 120.74 113.144 129.524 91.032 129.524C68.9197 129.524 49.1883 120.74 36.2797 107.012" stroke="white" stroke-width="0.639182" stroke-linecap="round" stroke-linejoin="round"/>
<path d="M36.2679 76.1638C49.1765 62.4307 68.9063 53.6523 91.0169 53.6523C113.127 53.6523 132.861 62.4307 145.771 76.1638" stroke="white" stroke-width="0.639182" stroke-linecap="round" stroke-linejoin="round"/>
<path d="M34.2686 91.5868H147.786" stroke="white" stroke-width="0.639182" stroke-linecap="round" stroke-linejoin="round"/>
<path d="M91.0274 33.5214V149.654" stroke="white" stroke-width="0.639182" stroke-linecap="round" stroke-linejoin="round"/>
<path d="M133.445 22.4531C133.902 21.9854 133.902 21.2269 133.445 20.7592C132.988 20.2914 132.246 20.2914 131.789 20.7592C131.332 21.2269 131.332 21.9854 131.789 22.4531C132.246 22.9209 132.988 22.9209 133.445 22.4531Z" stroke="white" stroke-width="0.639182" stroke-linecap="round" stroke-linejoin="round"/>
<path d="M154.689 114.917C154.792 114.262 154.357 113.645 153.717 113.539C153.077 113.433 152.474 113.879 152.37 114.533C152.267 115.188 152.702 115.805 153.342 115.911C153.982 116.017 154.585 115.572 154.689 114.917Z" stroke="white" stroke-width="0.639182" stroke-linecap="round" stroke-linejoin="round"/>
<path d="M24.5814 89.2407C25.0386 88.7729 25.0386 88.0145 24.5814 87.5467C24.1241 87.079 23.3828 87.079 22.9255 87.5467C22.4683 88.0145 22.4683 88.7729 22.9255 89.2407C23.3828 89.7085 24.1241 89.7085 24.5814 89.2407Z" stroke="white" stroke-width="0.639182" stroke-linecap="round" stroke-linejoin="round"/>
<path d="M141.151 40.034V42.5697" stroke="white" stroke-width="0.639182" stroke-linecap="round" stroke-linejoin="round"/>
<path d="M139.911 41.3021H142.39" stroke="white" stroke-width="0.639182" stroke-linecap="round" stroke-linejoin="round"/>
<path d="M26.6853 123.03V125.564" stroke="white" stroke-width="0.639182" stroke-linecap="round" stroke-linejoin="round"/>
<path d="M25.4454 124.297H27.9225" stroke="white" stroke-width="0.639182" stroke-linecap="round" stroke-linejoin="round"/>
<path d="M127.652 51.2249C131.16 51.2249 134.003 48.3157 134.003 44.727C134.003 41.1383 131.16 38.2291 127.652 38.2291C124.144 38.2291 121.3 41.1383 121.3 44.727C121.3 48.3157 124.144 51.2249 127.652 51.2249Z" fill="#A883F8" stroke="black" stroke-width="0.639182" stroke-linecap="round" stroke-linejoin="round"/>
<path d="M127.652 98.0882C131.16 98.0882 134.003 95.179 134.003 91.5903C134.003 88.0016 131.16 85.0924 127.652 85.0924C124.144 85.0924 121.3 88.0016 121.3 91.5903C121.3 95.179 124.144 98.0882 127.652 98.0882Z" fill="#6A57DC" stroke="black" stroke-width="0.639182" stroke-linecap="round" stroke-linejoin="round"/>
<path d="M50.9152 138.562C54.423 138.562 57.2667 135.653 57.2667 132.064C57.2667 128.476 54.423 125.566 50.9152 125.566C47.4073 125.566 44.5636 128.476 44.5636 132.064C44.5636 135.653 47.4073 138.562 50.9152 138.562Z" fill="#6A57DC" stroke="black" stroke-width="0.639182" stroke-linecap="round" stroke-linejoin="round"/>
<path d="M170.714 149.554H136.231C136.523 147.879 137.381 146.362 138.656 145.269C139.931 144.176 141.541 143.577 143.204 143.576C143.295 143.576 143.387 143.576 143.475 143.576C144.458 141.79 145.933 140.339 147.717 139.404C149.501 138.47 151.514 138.093 153.506 138.321C155.497 138.549 157.379 139.372 158.917 140.687C160.455 142.002 161.58 143.75 162.153 145.715C162.882 145.028 163.791 144.572 164.769 144.405C165.746 144.237 166.751 144.365 167.659 144.772C168.567 145.179 169.34 145.848 169.882 146.697C170.425 147.546 170.714 148.538 170.714 149.552V149.554Z" fill="#A883F8"/>
<path d="M161.389 152.28H118.647C119.008 150.203 120.072 148.323 121.652 146.968C123.232 145.614 125.228 144.871 127.289 144.871C127.402 144.871 127.516 144.871 127.627 144.871C128.845 142.657 130.673 140.859 132.883 139.7C135.093 138.542 137.587 138.074 140.055 138.356C142.523 138.638 144.855 139.656 146.761 141.285C148.667 142.913 150.062 145.079 150.773 147.513C151.677 146.662 152.804 146.098 154.016 145.891C155.228 145.684 156.473 145.842 157.599 146.347C158.724 146.852 159.682 147.681 160.354 148.733C161.027 149.786 161.385 151.016 161.386 152.273L161.389 152.28Z" stroke="white" stroke-width="0.639182" stroke-linecap="round" stroke-linejoin="round"/>
<path d="M127.847 152.279H171.572" stroke="white" stroke-width="0.639182" stroke-linecap="round" stroke-linejoin="round"/>
<path d="M107.224 156.979H150.95" stroke="white" stroke-width="0.639182" stroke-linecap="round" stroke-linejoin="round"/>
<path d="M72.6924 28.2716H38.2097C38.5011 26.5964 39.3594 25.0794 40.6343 23.9865C41.9091 22.8937 43.5193 22.2946 45.1826 22.2943C45.2739 22.2943 45.3652 22.2943 45.4532 22.2943C46.4364 20.5076 47.9118 19.0566 49.6956 18.122C51.4793 17.1874 53.4926 16.8107 55.4842 17.0388C57.4759 17.2668 59.3579 18.0896 60.8955 19.4045C62.4332 20.7194 63.5585 22.4682 64.1312 24.433C64.8602 23.7454 65.7691 23.29 66.747 23.1224C67.7249 22.9549 68.7293 23.0824 69.6374 23.4894C70.5456 23.8964 71.3182 24.5653 71.8607 25.4143C72.4032 26.2633 72.6922 27.2556 72.6924 28.27V28.2716Z" fill="#A883F8"/>
<path d="M9.2 35.6973H52.9255" stroke="white" stroke-width="0.639182" stroke-linecap="round" stroke-linejoin="round"/>
<path d="M63.3655 30.9978H20.6234C20.9844 28.9213 22.0483 27.041 23.6285 25.6864C25.2087 24.3318 27.2044 23.5893 29.266 23.589C29.3786 23.589 29.4927 23.589 29.6036 23.589C30.8215 21.3752 32.6494 19.577 34.8593 18.4186C37.0692 17.2602 39.5636 16.7927 42.0314 17.0744C44.4992 17.3562 46.8315 18.3747 48.7374 20.003C50.6434 21.6314 52.0388 23.7975 52.7497 26.2316C53.6538 25.38 54.7808 24.8162 55.9929 24.6091C57.2051 24.402 58.4499 24.5606 59.5755 25.0653C60.701 25.5701 61.6585 26.3993 62.3309 27.4516C63.0034 28.504 63.3618 29.7339 63.3622 30.9911L63.3655 30.9978Z" stroke="white" stroke-width="0.639182" stroke-linecap="round" stroke-linejoin="round"/>
<path d="M55.2353 86.9391C59.5303 86.9391 63.0121 83.3771 63.0121 78.9831C63.0121 74.5892 59.5303 71.0272 55.2353 71.0272C50.9403 71.0272 47.4586 74.5892 47.4586 78.9831C47.4586 83.3771 50.9403 86.9391 55.2353 86.9391Z" fill="white" stroke="black" stroke-width="0.639182" stroke-linecap="round" stroke-linejoin="round"/>
<path d="M55.2354 86.6703C59.3854 86.6703 62.7496 83.2286 62.7496 78.983C62.7496 74.7374 59.3854 71.2957 55.2354 71.2957C51.0854 71.2957 47.7212 74.7374 47.7212 78.983C47.7212 83.2286 51.0854 86.6703 55.2354 86.6703Z" fill="#EFEFEF"/>
<path d="M62.7515 78.9829C62.752 77.5367 62.3537 76.1196 61.6022 74.8947C60.8508 73.6697 59.7767 72.6864 58.5035 72.058V85.9045C59.7762 85.2763 60.85 84.2936 61.6014 83.0692C62.3528 81.8449 62.7514 80.4286 62.7515 78.9829Z" fill="#D50A2E"/>
<path d="M47.7212 78.983C47.7199 80.4283 48.117 81.8447 48.867 83.0696C49.6169 84.2945 50.6893 85.2783 51.961 85.9079V72.0614C50.6898 72.6908 49.6177 73.674 48.8678 74.8982C48.1179 76.1225 47.7205 77.5382 47.7212 78.983Z" fill="#D50A2E"/>
<path d="M56.5426 79.9859L57.8488 79.3169L57.1965 78.9833V78.3143L55.8887 78.9833L56.5426 77.647H55.8887L55.2364 76.6444L54.5825 77.647H53.9286L54.5825 78.9833L53.2746 78.3143V78.9833L52.6207 79.3169L53.9286 79.9859L53.6024 80.6549H54.9086V81.6575H55.5625V80.6549H56.8687L56.5426 79.9859Z" fill="#D50A2E"/>
<path d="M22.5439 114.284C26.8389 114.284 30.3207 110.722 30.3207 106.328C30.3207 101.934 26.8389 98.3716 22.5439 98.3716C18.2489 98.3716 14.7671 101.934 14.7671 106.328C14.7671 110.722 18.2489 114.284 22.5439 114.284Z" fill="white" stroke="black" stroke-width="0.639182" stroke-linecap="round" stroke-linejoin="round"/>
<path d="M30.0586 106.327C30.0295 108.347 29.225 110.273 27.8188 111.691C26.4126 113.109 24.5177 113.903 22.5436 113.903C20.5694 113.903 18.6745 113.109 17.2683 111.691C15.8621 110.273 15.0576 108.347 15.0285 106.327L22.5444 98.6384C23.5313 98.6384 24.5085 98.8373 25.4203 99.2237C26.3321 99.6102 27.1605 100.177 27.8583 100.891C28.5561 101.605 29.1096 102.452 29.4871 103.385C29.8646 104.318 30.0588 105.318 30.0586 106.327V106.327Z" fill="#0B55B0"/>
<path d="M22.5248 106.328H22.5454V106.306L22.5248 106.328Z" fill="#EFEFEF"/>
<path d="M22.5439 102.649V98.6452C20.5508 98.6457 18.6396 99.456 17.2304 100.898C15.8213 102.34 15.0296 104.295 15.0296 106.334H18.9433V104.069L21.1513 106.328H22.5178L22.5374 106.306V104.908L20.3359 102.649H22.5439Z" fill="#EFEFEF"/>
<path d="M18.832 99.6414C17.6553 100.328 16.6804 101.325 16.0092 102.529V106.328H17.9661V101.647H22.5451V99.6447L18.832 99.6414Z" fill="#D50A2E"/>
<path d="M22.5437 105.382L19.8742 102.649H18.9496L22.5372 106.319L22.5437 105.382Z" fill="#D50A2E"/>
<path d="M28.043 104.344L28.2061 104.855H28.7311L28.3055 105.17L28.4686 105.68L28.043 105.365L27.619 105.68L27.7805 105.17L27.3565 104.855H27.8816L28.043 104.344Z" fill="#D50A2E"/>
<path d="M26.1682 108.021L26.4111 108.786H27.1988L26.5612 109.26L26.8041 110.026L26.1682 109.552L25.5306 110.026L25.7735 109.26L25.1359 108.786H25.9236L26.1682 108.021Z" fill="#D50A2E"/>
<path d="M26.239 102.004L26.4412 102.643H27.0984L26.5668 103.037L26.7706 103.675L26.239 103.28L25.7074 103.675L25.9112 103.037L25.3796 102.643H26.0368L26.239 102.004Z" fill="#D50A2E"/>
<path d="M24.4345 104.321L24.6775 105.087H25.4651L24.8275 105.56L25.0705 106.328L24.4345 105.854L23.7969 106.328L24.0399 105.56L23.4039 105.087H24.1915L24.4345 104.321Z" fill="#D50A2E"/>
<path d="M72.4744 99.5827C76.7694 99.5827 80.2512 96.0208 80.2512 91.6268C80.2512 87.2329 76.7694 83.6709 72.4744 83.6709C68.1794 83.6709 64.6976 87.2329 64.6976 91.6268C64.6976 96.0208 68.1794 99.5827 72.4744 99.5827Z" fill="white" stroke="black" stroke-width="0.639182" stroke-linecap="round" stroke-linejoin="round"/>
<path d="M72.4744 99.3141C76.6244 99.3141 79.9886 95.8723 79.9886 91.6267C79.9886 87.3811 76.6244 83.9394 72.4744 83.9394C68.3244 83.9394 64.9601 87.3811 64.9601 91.6267C64.9601 95.8723 68.3244 99.3141 72.4744 99.3141Z" fill="#EFEFEF"/>
<path d="M72.1462 91.6272H79.9899C79.9899 90.9512 79.9032 90.2782 79.7322 89.6253H72.1462V91.6272Z" fill="#D50A2E"/>
<path d="M72.1462 87.6147H78.8843C78.4242 86.8496 77.8377 86.1722 77.1508 85.6127H72.1462V87.6147Z" fill="#D50A2E"/>
<path d="M72.4702 99.3141C74.1695 99.3172 75.8194 98.7289 77.1487 97.6458H67.795C69.1231 98.7287 70.7719 99.317 72.4702 99.3141V99.3141Z" fill="#D50A2E"/>
<path d="M66.0626 95.6374H78.8864C79.2596 95.0147 79.5441 94.3406 79.7311 93.6356H65.2178C65.4041 94.3408 65.6886 95.015 66.0626 95.6374V95.6374Z" fill="#D50A2E"/>
<path d="M68.4405 85.1388H69.1254L68.4878 85.6126L68.7324 86.3783L68.0948 85.9045L67.4572 86.3733L67.6676 85.706C67.1055 86.1873 66.6145 86.7492 66.2097 87.3743H66.438L66.032 87.6762C65.97 87.7847 65.908 87.8931 65.851 88.0099L66.045 88.6188L65.683 88.3502C65.5933 88.5454 65.5118 88.7439 65.4368 88.9475L65.6504 89.6148H66.438L65.7857 90.0919L66.0304 90.8576L65.3993 90.3772L65.0177 90.6608C64.9791 90.979 64.9595 91.2994 64.959 91.62H72.4716V83.9377C71.0433 83.9358 69.6444 84.3527 68.4405 85.1388V85.1388ZM68.7324 90.8576L68.0948 90.3772L67.4572 90.851L67.7018 90.0852L67.0642 89.6114H67.8518L68.0948 88.8457L68.3378 89.6114H69.1254L68.4878 90.0852L68.7324 90.8576ZM68.4878 87.8547L68.7324 88.6205L68.0948 88.1484L67.4572 88.6205L67.7018 87.8547L67.0642 87.3743H67.8518L68.0948 86.6086L68.3378 87.3743H69.1254L68.4878 87.8547ZM71.4231 90.8576L70.7903 90.3772L70.1527 90.851L70.3974 90.0852L69.7597 89.6114H70.5474L70.7903 88.8457L71.0333 89.6114H71.8193L71.1817 90.0852L71.4231 90.8576ZM71.1785 87.8547L71.4231 88.6205L70.7855 88.1484L70.1479 88.6205L70.3925 87.8547L69.7597 87.3743H70.5474L70.7903 86.6086L71.0333 87.3743H71.8193L71.1785 87.8547ZM71.1785 85.6159L71.4231 86.3817L70.7855 85.9079L70.1527 86.3733L70.3974 85.6076L69.7597 85.1338H70.5474L70.7903 84.3681L71.0333 85.1338H71.8193L71.1785 85.6159Z" fill="#0B55B0"/>
<path d="M107.86 120.133C112.155 120.133 115.637 116.571 115.637 112.177C115.637 107.783 112.155 104.221 107.86 104.221C103.565 104.221 100.084 107.783 100.084 112.177C100.084 116.571 103.565 120.133 107.86 120.133Z" fill="white" stroke="black" stroke-width="0.639182" stroke-linecap="round" stroke-linejoin="round"/>
<path d="M107.86 119.864C112.01 119.864 115.375 116.422 115.375 112.177C115.375 107.931 112.01 104.489 107.86 104.489C103.71 104.489 100.346 107.931 100.346 112.177C100.346 116.422 103.71 119.864 107.86 119.864Z" fill="#EFEFEF"/>
<path d="M100.347 112.177C100.332 111.158 100.516 110.146 100.887 109.2C101.258 108.254 101.809 107.393 102.509 106.667C103.208 105.941 104.041 105.364 104.96 104.971C105.879 104.577 106.866 104.375 107.862 104.375C108.858 104.375 109.845 104.577 110.764 104.971C111.683 105.364 112.516 105.941 113.216 106.667C113.915 107.393 114.466 108.254 114.837 109.2C115.208 110.146 115.392 111.158 115.377 112.177" fill="#D50A2E"/>
<path d="M104.923 108.5C104.922 107.967 105.099 107.449 105.425 107.033C105.752 106.618 106.207 106.329 106.716 106.214C106.556 106.177 106.392 106.159 106.227 106.159C105.91 106.166 105.599 106.239 105.311 106.376C105.024 106.512 104.768 106.708 104.558 106.952C104.349 107.195 104.192 107.48 104.096 107.789C104 108.098 103.969 108.423 104.003 108.746C104.037 109.068 104.136 109.379 104.294 109.66C104.452 109.941 104.665 110.185 104.921 110.377C105.176 110.568 105.467 110.704 105.776 110.774C106.086 110.845 106.406 110.848 106.716 110.785C106.207 110.671 105.752 110.382 105.425 109.966C105.099 109.551 104.922 109.033 104.923 108.5V108.5Z" fill="#EFEFEF"/>
<path d="M107.859 106.326L108.022 106.837H108.547L108.121 107.152L108.284 107.664L107.859 107.347L107.435 107.664L107.596 107.152L107.172 106.837H107.697L107.859 106.326Z" fill="#EFEFEF"/>
<path d="M106.588 107.329L106.749 107.839H107.274L106.849 108.156L107.012 108.667L106.588 108.351L106.162 108.667L106.325 108.156L105.9 107.839H106.425L106.588 107.329Z" fill="#EFEFEF"/>
<path d="M109.135 107.329L109.298 107.839H109.821L109.397 108.156L109.561 108.667L109.135 108.351L108.711 108.667L108.872 108.156L108.448 107.839H108.973L109.135 107.329Z" fill="#EFEFEF"/>
<path d="M108.644 108.833L108.806 109.344H109.331L108.905 109.659L109.068 110.17L108.644 109.854L108.219 110.17L108.382 109.659L107.956 109.344H108.481L108.644 108.833Z" fill="#EFEFEF"/>
<path d="M107.078 108.833L107.241 109.344H107.765L107.341 109.659L107.502 110.17L107.078 109.854L106.654 110.17L106.816 109.659L106.392 109.344H106.917L107.078 108.833Z" fill="#EFEFEF"/>
<path d="M91.0193 73.66C95.3143 73.66 98.7961 70.098 98.7961 65.7041C98.7961 61.3101 95.3143 57.7481 91.0193 57.7481C86.7243 57.7481 83.2425 61.3101 83.2425 65.7041C83.2425 70.098 86.7243 73.66 91.0193 73.66Z" fill="white" stroke="black" stroke-width="0.639182" stroke-linecap="round" stroke-linejoin="round"/>
<path d="M91.0192 73.3913C95.1692 73.3913 98.5335 69.9496 98.5335 65.704C98.5335 61.4584 95.1692 58.0166 91.0192 58.0166C86.8692 58.0166 83.505 61.4584 83.505 65.704C83.505 69.9496 86.8692 73.3913 91.0192 73.3913Z" fill="#EFEFEF"/>
<path d="M85.0584 61.0244C84.4599 61.8185 84.0205 62.7256 83.7653 63.6937H87.679L85.0584 61.0244Z" fill="#0B55B0"/>
<path d="M98.2758 63.6987C98.0193 62.7308 97.5793 61.8239 96.981 61.0296L94.3719 63.6987H98.2758Z" fill="#0B55B0"/>
<path d="M83.7653 67.7111C84.0217 68.6787 84.4611 69.5855 85.0584 70.3803L87.6675 67.7111H83.7653Z" fill="#0B55B0"/>
<path d="M95.5957 59.6068C94.8191 58.9949 93.9327 58.5448 92.9866 58.2822V62.2861L95.5957 59.6068Z" fill="#0B55B0"/>
<path d="M86.4454 71.8032C87.2219 72.4153 88.1084 72.8654 89.0545 73.1278V69.1239L86.4454 71.8032Z" fill="#0B55B0"/>
<path d="M89.059 58.2822C88.1129 58.5446 87.2264 58.9947 86.4499 59.6068L89.059 62.2761V58.2822Z" fill="#0B55B0"/>
<path d="M92.9796 73.128C93.9256 72.8654 94.8121 72.4153 95.5887 71.8034L92.9796 69.1341V73.138V73.128Z" fill="#0B55B0"/>
<path d="M94.3671 67.7111L96.9762 70.3803C97.5741 69.5857 98.014 68.6788 98.2709 67.7111H94.3671Z" fill="#0B55B0"/>
<path d="M98.4713 64.7011H91.9991V58.0815C91.3495 57.995 90.6918 57.995 90.0422 58.0815V64.7011H83.5684C83.4839 65.3656 83.4839 66.0385 83.5684 66.703H90.039V73.3277C90.6885 73.4142 91.3463 73.4142 91.9958 73.3277V66.7064H98.4681C98.5526 66.0419 98.5526 65.369 98.4681 64.7044L98.4713 64.7011Z" fill="#D50A2E"/>
<path d="M92.9796 67.711L96.3339 71.1409C96.4889 70.9841 96.6356 70.8189 96.7758 70.6404L93.9042 67.7043L92.9796 67.711Z" fill="#D50A2E"/>
<path d="M89.0597 67.7111L85.707 71.1411C85.8603 71.2995 86.0217 71.4497 86.1881 71.5932L89.0597 68.6553V67.7111V67.7111Z" fill="#D50A2E"/>
<path d="M89.0601 63.6989L85.7073 60.2689C85.5524 60.4258 85.4056 60.5909 85.2654 60.7694L88.1354 63.7056L89.0601 63.6989Z" fill="#D50A2E"/>
<path d="M92.9805 63.6986L96.3348 60.2686C96.1718 60.1102 96.0201 59.96 95.8456 59.8165L92.974 62.7527L92.9805 63.6986Z" fill="#D50A2E"/>
<path d="M159.941 80.1744C164.091 80.1744 167.455 76.7327 167.455 72.4871C167.455 68.2415 164.091 64.7997 159.941 64.7997C155.791 64.7997 152.427 68.2415 152.427 72.4871C152.427 76.7327 155.791 80.1744 159.941 80.1744Z" fill="#EFEFEF"/>
<path d="M159.941 80.4431C164.236 80.4431 167.717 76.8811 167.717 72.4872C167.717 68.0932 164.236 64.5312 159.941 64.5312C155.646 64.5312 152.164 68.0932 152.164 72.4872C152.164 76.8811 155.646 80.4431 159.941 80.4431Z" fill="white" stroke="black" stroke-width="0.639182" stroke-linecap="round" stroke-linejoin="round"/>
<path d="M159.614 72.4876H167.456C167.455 71.8115 167.368 71.1384 167.196 70.4856H159.614V72.4876Z" fill="#D50A2E"/>
<path d="M159.614 68.4767H166.352C165.892 67.711 165.306 67.0335 164.618 66.4748H159.614V68.4767Z" fill="#D50A2E"/>
<path d="M159.94 80.1762C161.64 80.1798 163.29 79.5915 164.619 78.5079H155.263C156.592 79.5912 158.241 80.1796 159.94 80.1762V80.1762Z" fill="#D50A2E"/>
<path d="M153.529 76.4973H166.353C166.728 75.8752 167.012 75.2009 167.198 74.4954H152.684C152.871 75.2007 153.155 75.8749 153.529 76.4973V76.4973Z" fill="#D50A2E"/>
<path d="M159.941 72.4871V64.7997C157.948 64.7997 156.037 65.6096 154.628 67.0513C153.218 68.493 152.427 70.4483 152.427 72.4871H159.941Z" fill="#0B55B0"/>
<path d="M157.431 71.3794C157.148 71.3799 156.869 71.3141 156.614 71.1872C156.359 71.0602 156.137 70.8755 155.962 70.647C155.788 70.4185 155.668 70.1524 155.609 69.8689C155.551 69.5853 155.557 69.292 155.626 69.0111C155.696 68.7302 155.827 68.4693 156.01 68.2483C156.193 68.0272 156.423 67.8519 156.683 67.7356C156.942 67.6194 157.224 67.5653 157.507 67.5775C157.79 67.5897 158.066 67.6679 158.315 67.806C157.994 67.4854 157.587 67.2688 157.145 67.1835C156.704 67.0982 156.248 67.1479 155.834 67.3264C155.421 67.5049 155.068 67.8043 154.819 68.1871C154.571 68.5699 154.439 69.0191 154.439 69.4785C154.439 69.9378 154.571 70.387 154.819 70.7698C155.068 71.1526 155.421 71.452 155.834 71.6305C156.248 71.809 156.704 71.8587 157.145 71.7734C157.587 71.6881 157.994 71.4716 158.315 71.1509C158.044 71.302 157.74 71.3806 157.431 71.3794V71.3794Z" fill="#FDD853"/>
<path d="M157.947 68.1413L158.278 68.847L159.023 68.6719L158.689 69.3759L159.289 69.8613L158.542 70.0332L158.544 70.8156L157.947 70.3268L157.352 70.8156L157.354 70.0332L156.607 69.8613L157.207 69.3759L156.872 68.6719L157.618 68.847L157.947 68.1413Z" fill="#FDD853"/>
</svg>
