<svg width="120" height="120" viewBox="0 0 120 120" fill="none" xmlns="http://www.w3.org/2000/svg">
<g clip-path="url(#clip0_299_2877)">
<path d="M44.7565 32.3237H17.2317C17.4624 31.0163 18.1465 29.8321 19.1638 28.9791C20.1812 28.1261 21.4666 27.659 22.7942 27.6598H23.0119C23.7954 26.2636 24.9731 25.1293 26.3977 24.3985C27.8222 23.6677 29.4305 23.373 31.0216 23.551C32.6128 23.7291 34.1161 24.372 35.3439 25.3996C36.5717 26.4271 37.4695 27.7937 37.9251 29.3285C38.5061 28.785 39.2336 28.4237 40.0176 28.2891C40.8017 28.1545 41.608 28.2525 42.337 28.5712C43.0659 28.8898 43.6855 29.415 44.1193 30.0819C44.553 30.7488 44.7819 31.5281 44.7776 32.3237H44.7565Z" fill="#6A52DE"/>
<path d="M34.9201 34.3213H7.39526C7.626 33.014 8.31019 31.8297 9.32751 30.9767C10.3448 30.1238 11.6302 29.6566 12.9578 29.6575H13.1755C13.9591 28.2613 15.1367 27.1269 16.5612 26.3962C17.9858 25.6654 19.5942 25.3707 21.1853 25.5487C22.7764 25.7267 24.2798 26.3697 25.5076 27.3972C26.7354 28.4248 27.6332 29.7914 28.0888 31.3262C28.6696 30.7826 29.3971 30.4211 30.1811 30.2864C30.9652 30.1518 31.7715 30.2498 32.5004 30.5685C33.2294 30.8871 33.8489 31.4124 34.2826 32.0794C34.7162 32.7464 34.9448 33.5258 34.9402 34.3213H34.9201Z" stroke="black" stroke-width="0.383621" stroke-linecap="round" stroke-linejoin="round"/>
<path d="M56.1127 90.047C74.3773 90.047 89.1837 75.2406 89.1837 56.976C89.1837 38.7114 74.3773 23.905 56.1127 23.905C37.848 23.905 23.0416 38.7114 23.0416 56.976C23.0416 75.2406 37.848 90.047 56.1127 90.047Z" fill="white" stroke="black" stroke-width="0.383621" stroke-miterlimit="10"/>
<g style="mix-blend-mode:multiply">
<path d="M56.1131 85.6154C71.9302 85.6154 84.7524 72.7931 84.7524 56.9761C84.7524 41.1591 71.9302 28.3369 56.1131 28.3369C40.2961 28.3369 27.4739 41.1591 27.4739 56.9761C27.4739 72.7931 40.2961 85.6154 56.1131 85.6154Z" fill="#C3C4FD"/>
<path d="M56.1131 85.6154C71.9302 85.6154 84.7524 72.7931 84.7524 56.9761C84.7524 41.1591 71.9302 28.3369 56.1131 28.3369C40.2961 28.3369 27.4739 41.1591 27.4739 56.9761C27.4739 72.7931 40.2961 85.6154 56.1131 85.6154Z" stroke="#C3C4FD" stroke-width="0.0959053" stroke-miterlimit="10"/>
</g>
<path d="M47.3283 88.879C39.5072 81.3572 34.5077 69.862 34.5077 56.979C34.5077 44.096 39.5072 32.5979 47.3283 25.077" stroke="black" stroke-width="0.383621" stroke-miterlimit="10"/>
<path d="M64.9028 25.0741C72.7239 32.595 77.7245 44.0902 77.7245 56.9741C77.7245 69.8581 72.7191 81.3552 64.9028 88.8761" stroke="black" stroke-width="0.383621" stroke-miterlimit="10"/>
<path d="M23.0416 56.976H89.1837" stroke="black" stroke-width="0.383621" stroke-miterlimit="10"/>
<path d="M56.1127 23.9059V90.047" stroke="black" stroke-width="0.383621" stroke-miterlimit="10"/>
<path d="M96.2856 93.3116H74.1372C74.325 92.2594 74.877 91.3068 75.6966 90.6207C76.5162 89.9346 77.551 89.5587 78.6198 89.5589H78.7934C79.4251 88.4389 80.3724 87.5295 81.5171 86.9439C82.6619 86.3583 83.9536 86.1223 85.2315 86.2655C86.5094 86.4086 87.717 86.9244 88.7039 87.7488C89.6907 88.5731 90.4132 89.6696 90.7816 90.9015C91.2511 90.4739 91.8347 90.1917 92.4615 90.0893C93.0883 89.9869 93.7313 90.0687 94.3125 90.3247C94.8938 90.5807 95.3881 91 95.7357 91.5316C96.0832 92.0632 96.2689 92.6842 96.2703 93.3193L96.2856 93.3116Z" fill="#C0C3F6"/>
<path d="M96.2845 93.3117V93.2475H74.136V93.3079H74.1974C74.3831 92.2683 74.9293 91.3274 75.74 90.6507C76.5508 89.974 77.5742 89.6047 78.6302 89.6079H78.7999C78.8113 89.6079 78.8226 89.6049 78.8325 89.5992C78.8425 89.5935 78.8508 89.5852 78.8565 89.5752C79.4862 88.4713 80.4258 87.5762 81.559 87.0008C82.6921 86.4253 83.9691 86.1948 85.2319 86.3377C86.4948 86.4806 87.6881 86.9906 88.664 87.8047C89.64 88.6188 90.3558 89.7012 90.7229 90.9179C90.7248 90.9277 90.7294 90.9367 90.7363 90.9438C90.744 90.9506 90.7532 90.9556 90.7632 90.9582C90.7713 90.9639 90.781 90.9669 90.791 90.9668C90.8009 90.967 90.8107 90.964 90.8188 90.9582C91.2796 90.5377 91.8525 90.26 92.468 90.1586C93.0835 90.0572 93.7151 90.1366 94.2865 90.387C94.8578 90.6374 95.3442 91.0482 95.6867 91.5695C96.0293 92.0909 96.2132 92.7004 96.2163 93.3242H96.3372C96.3352 92.6766 96.1451 92.0435 95.79 91.5019C95.435 90.9604 94.9302 90.5336 94.3371 90.2735C93.7441 90.0134 93.0882 89.9313 92.4493 90.037C91.8104 90.1427 91.216 90.4318 90.7383 90.869L90.7795 90.9141H90.8389C90.4635 89.6743 89.7324 88.5721 88.7364 87.7439C87.7404 86.9157 86.5233 86.398 85.2359 86.2551C83.9484 86.1121 82.6473 86.3502 81.4939 86.9397C80.3405 87.5292 79.3855 88.4442 78.7472 89.5714L78.8038 89.5992V89.5388H78.6264C77.5451 89.5394 76.4985 89.9205 75.6701 90.6155C74.8417 91.3104 74.2843 92.2748 74.0958 93.3395C74.0919 93.348 74.0899 93.3571 74.09 93.3664C74.09 93.3753 74.092 93.3842 74.0958 93.3923C74.1089 93.405 74.1264 93.4122 74.1447 93.4124H96.2806C96.2948 93.4182 96.3106 93.4182 96.3247 93.4124C96.3359 93.4001 96.3432 93.3847 96.3458 93.3683L96.2845 93.3117Z" fill="#C0C3F6"/>
<path d="M22.7919 83.8487C22.9626 83.8487 23.1294 83.7981 23.2714 83.7033C23.4133 83.6084 23.5239 83.4736 23.5893 83.3159C23.6546 83.1582 23.6717 82.9846 23.6384 82.8172C23.6051 82.6498 23.5229 82.496 23.4022 82.3752C23.2815 82.2545 23.1277 82.1723 22.9603 82.139C22.7928 82.1057 22.6192 82.1228 22.4615 82.1881C22.3038 82.2535 22.169 82.3641 22.0742 82.506C21.9793 82.648 21.9287 82.8149 21.9287 82.9856C21.9287 83.2145 22.0196 83.4341 22.1815 83.5959C22.3434 83.7578 22.5629 83.8487 22.7919 83.8487Z" stroke="black" stroke-width="0.383621" stroke-miterlimit="10"/>
<path d="M5.36315 28.4711C5.53386 28.4711 5.70073 28.4204 5.84267 28.3256C5.98462 28.2307 6.09522 28.0959 6.16055 27.9382C6.22588 27.7805 6.24293 27.6069 6.20963 27.4395C6.17632 27.2721 6.09413 27.1183 5.97342 26.9976C5.85271 26.8768 5.69898 26.7946 5.53154 26.7613C5.36411 26.728 5.19054 26.7451 5.03282 26.8105C4.8751 26.8758 4.74029 26.9864 4.64545 27.1284C4.55061 27.2703 4.5 27.4372 4.5 27.6079C4.5 27.8368 4.59091 28.0564 4.75278 28.2182C4.91465 28.3801 5.13423 28.4711 5.36315 28.4711V28.4711Z" stroke="black" stroke-width="0.383621" stroke-miterlimit="10"/>
<path d="M98.4697 75.2911C98.6404 75.2911 98.8073 75.2405 98.9492 75.1456C99.0912 75.0508 99.2018 74.916 99.2671 74.7583C99.3324 74.6006 99.3496 74.427 99.3163 74.2596C99.283 74.0921 99.2008 73.9383 99.0801 73.8176C98.9594 73.6969 98.8055 73.6147 98.6381 73.5814C98.4707 73.5481 98.2971 73.5652 98.1394 73.6305C97.9817 73.6959 97.8469 73.8065 97.752 73.9484C97.6572 74.0904 97.6066 74.2573 97.6066 74.428C97.6066 74.6569 97.6975 74.8764 97.8593 75.0383C98.0212 75.2002 98.2408 75.2911 98.4697 75.2911V75.2911Z" stroke="black" stroke-width="0.383621" stroke-miterlimit="10"/>
<path d="M11.9484 66.766V64.8192" stroke="black" stroke-width="0.383621" stroke-linecap="round" stroke-linejoin="round"/>
<path d="M10.9731 65.7946H12.9201" stroke="black" stroke-width="0.383621" stroke-linecap="round" stroke-linejoin="round"/>
<path d="M16.8453 48.8979V46.951" stroke="black" stroke-width="0.383621" stroke-linecap="round" stroke-linejoin="round"/>
<path d="M15.8745 47.9225H17.8214" stroke="black" stroke-width="0.383621" stroke-linecap="round" stroke-linejoin="round"/>
<path d="M96.0436 40.3124V38.3655" stroke="black" stroke-width="0.383621" stroke-linecap="round" stroke-linejoin="round"/>
<path d="M95.0684 39.3409H97.0152" stroke="black" stroke-width="0.383621" stroke-linecap="round" stroke-linejoin="round"/>
<path fill-rule="evenodd" clip-rule="evenodd" d="M67.7845 38.4088V35.1844H62.1423V22.5H79.6346V35.1921H72.2997L67.7845 38.4088Z" fill="#6A52DE" stroke="black" stroke-width="0.383621" stroke-miterlimit="10"/>
<path d="M68.4101 73.2674V70.1515H65.7535V59.6719H80.5901V70.1515H70.4049L68.4101 73.2674Z" fill="white" stroke="black" stroke-width="0.383621" stroke-linejoin="round"/>
<path d="M70.887 64.7224C70.8866 64.906 70.8317 65.0854 70.7292 65.2379C70.6268 65.3903 70.4815 65.509 70.3116 65.5788C70.185 65.6316 70.0482 65.6555 69.9111 65.6489C69.7741 65.6423 69.6402 65.6053 69.5192 65.5406C69.3982 65.4758 69.2932 65.385 69.2116 65.2747C69.13 65.1644 69.074 65.0373 69.0476 64.9027C69.0113 64.7231 69.0292 64.5368 69.0993 64.3675C69.1704 64.1984 69.2895 64.0537 69.4417 63.9513C69.581 63.8589 69.7426 63.8059 69.9095 63.7979C70.0764 63.7899 70.2424 63.8272 70.3898 63.9059C70.5373 63.9845 70.6607 64.1015 70.747 64.2446C70.8334 64.3877 70.8794 64.5514 70.8803 64.7185L70.887 64.7224Z" stroke="black" stroke-width="0.383621"/>
<path d="M73.9953 64.7223C73.9956 64.953 73.9101 65.1756 73.7554 65.3468C73.6006 65.518 73.3878 65.6255 73.1582 65.6484C72.9286 65.6713 72.6987 65.6079 72.5132 65.4707C72.3277 65.3335 72.1999 65.1321 72.1546 64.9059C72.1094 64.6796 72.1499 64.4446 72.2683 64.2466C72.3868 64.0486 72.5747 63.9017 72.7955 63.8346C73.0162 63.7674 73.254 63.7847 73.4627 63.8832C73.6713 63.9817 73.8359 64.1543 73.9243 64.3674C73.9713 64.4799 73.9954 64.6005 73.9953 64.7223V64.7223Z" stroke="black" stroke-width="0.383621"/>
<path d="M77.2925 64.7223C77.2921 64.906 77.2371 65.0854 77.1347 65.2378C77.0323 65.3903 76.887 65.5089 76.7171 65.5787C76.5904 65.6315 76.4535 65.6554 76.3165 65.6488C76.1795 65.6422 76.0456 65.6052 75.9246 65.5405C75.8037 65.4758 75.6985 65.385 75.617 65.2746C75.5354 65.1643 75.4794 65.0372 75.453 64.9026C75.4165 64.723 75.4349 64.5365 75.5057 64.3675C75.5875 64.1691 75.7357 64.0053 75.9249 63.904C76.1141 63.8027 76.3326 63.7702 76.5431 63.8121C76.7535 63.854 76.9429 63.9677 77.0789 64.1337C77.2149 64.2997 77.289 64.5077 77.2887 64.7223H77.2925Z" stroke="black" stroke-width="0.383621"/>
<path fill-rule="evenodd" clip-rule="evenodd" d="M38.8664 63.2568V60.1457H44.3283V48.637H27.4028V60.1457H34.4998L38.8664 63.2568Z" fill="#A77FFA" stroke="black" stroke-width="0.383621" stroke-miterlimit="10"/>
<path d="M41.6759 52.7206H30.056" stroke="white" stroke-width="0.383051" stroke-linecap="round" stroke-linejoin="round"/>
<path d="M41.676 56.2722H34.4293" stroke="white" stroke-width="0.383051" stroke-linecap="round" stroke-linejoin="round"/>
<path d="M32.5188 56.2722H30.056" stroke="white" stroke-width="0.383051" stroke-linecap="round" stroke-linejoin="round"/>
<path d="M88.2781 95.317H115.5" stroke="black" stroke-width="0.383621" stroke-miterlimit="10"/>
<path d="M75.4384 98.1769H102.66" stroke="black" stroke-width="0.383621" stroke-miterlimit="10"/>
<path d="M109.16 95.3171H82.5483C82.7736 94.0533 83.4364 92.909 84.4206 92.0849C85.4049 91.2607 86.6478 90.8092 87.9315 90.8096C88.0015 90.8096 88.0725 90.8095 88.1416 90.8143C88.8999 89.4672 90.038 88.373 91.4139 87.668C92.7898 86.9631 94.3427 86.6786 95.8791 86.8501C97.4155 87.0216 98.8675 87.6414 100.054 88.6323C101.241 89.6232 102.11 90.9414 102.552 92.4227C103.115 91.9044 103.817 91.5613 104.571 91.4352C105.326 91.3092 106.101 91.4056 106.802 91.7128C107.503 92.02 108.099 92.5246 108.517 93.165C108.936 93.8054 109.159 94.5539 109.159 95.319L109.16 95.3171Z" stroke="black" stroke-width="0.383621" stroke-linecap="round" stroke-linejoin="round"/>
<path d="M68.3577 28.9281C68.3573 29.1117 68.3024 29.2911 68.1999 29.4436C68.0975 29.596 67.9522 29.7147 67.7823 29.7845C67.6557 29.8373 67.5189 29.8612 67.3818 29.8546C67.2448 29.848 67.1109 29.811 66.9899 29.7462C66.8689 29.6815 66.7639 29.5907 66.6823 29.4804C66.6007 29.3701 66.5447 29.243 66.5183 29.1084C66.482 28.9288 66.4999 28.7425 66.57 28.5732C66.6411 28.4041 66.7602 28.2594 66.9124 28.157C67.0517 28.0646 67.2133 28.0116 67.3802 28.0036C67.5471 27.9956 67.7131 28.0329 67.8605 28.1115C68.008 28.1902 68.1314 28.3072 68.2177 28.4503C68.3041 28.5934 68.3501 28.7571 68.351 28.9242L68.3577 28.9281Z" stroke="black" stroke-width="0.383621"/>
<path d="M71.466 28.928C71.4663 29.1587 71.3808 29.3813 71.2261 29.5525C71.0713 29.7237 70.8585 29.8311 70.6289 29.854C70.3993 29.8769 70.1694 29.8136 69.9839 29.6764C69.7984 29.5392 69.6706 29.3378 69.6254 29.1116C69.5801 28.8853 69.6206 28.6503 69.7391 28.4523C69.8575 28.2543 70.0454 28.1074 70.2662 28.0402C70.4869 27.9731 70.7247 27.9904 70.9334 28.0889C71.142 28.1874 71.3066 28.36 71.395 28.5731C71.442 28.6855 71.4661 28.8062 71.466 28.928V28.928Z" stroke="black" stroke-width="0.383621"/>
<path d="M74.7632 28.928C74.7628 29.1117 74.7078 29.2911 74.6054 29.4435C74.503 29.596 74.3577 29.7146 74.1878 29.7844C74.0611 29.8372 73.9242 29.8611 73.7872 29.8545C73.6502 29.8479 73.5163 29.8109 73.3953 29.7462C73.2744 29.6815 73.1692 29.5907 73.0877 29.4803C73.0061 29.37 72.9501 29.2429 72.9237 29.1083C72.8872 28.9287 72.9056 28.7422 72.9764 28.5732C73.0582 28.3748 73.2064 28.211 73.3956 28.1097C73.5848 28.0084 73.8033 27.9759 74.0138 28.0178C74.2242 28.0597 74.4136 28.1734 74.5496 28.3394C74.6856 28.5054 74.7597 28.7134 74.7594 28.928H74.7632Z" stroke="black" stroke-width="0.383621"/>
</g>
<defs>
<clipPath id="clip0_299_2877">
<rect width="120" height="120" fill="white"/>
</clipPath>
</defs>
</svg>
