<svg width="184" height="186" viewBox="0 0 184 186" fill="none" xmlns="http://www.w3.org/2000/svg">
<path d="M91.0303 143.193C118.89 143.193 141.474 120.088 141.474 91.5868C141.474 63.0856 118.89 39.9808 91.0303 39.9808C63.1709 39.9808 40.5864 63.0856 40.5864 91.5868C40.5864 120.088 63.1709 143.193 91.0303 143.193Z" fill="#C6CAFA" stroke="#C6CBFA" stroke-width="0.639182" stroke-linecap="round" stroke-linejoin="round"/>
<path d="M91.028 149.652C122.375 149.652 147.786 123.656 147.786 91.5869C147.786 59.5183 122.375 33.5214 91.028 33.5214C59.6814 33.5214 34.27 59.5183 34.27 91.5869C34.27 123.656 59.6814 149.652 91.028 149.652Z" stroke="black" stroke-width="0.639182" stroke-linecap="round" stroke-linejoin="round"/>
<path d="M75.9504 147.599C62.5217 134.396 53.9458 114.212 53.9458 91.5922C53.9458 68.9722 62.5217 48.7846 75.9504 35.577" stroke="black" stroke-width="0.639182" stroke-linecap="round" stroke-linejoin="round"/>
<path d="M106.104 35.5719C119.527 48.7795 128.108 68.9621 128.108 91.5837C128.108 114.205 119.527 134.391 106.104 147.599" stroke="black" stroke-width="0.639182" stroke-linecap="round" stroke-linejoin="round"/>
<path d="M145.781 107.012C132.872 120.74 113.144 129.524 91.032 129.524C68.9198 129.524 49.1883 120.74 36.2797 107.012" stroke="black" stroke-width="0.639182" stroke-linecap="round" stroke-linejoin="round"/>
<path d="M36.268 76.164C49.1765 62.4309 68.9063 53.6525 91.0169 53.6525C113.127 53.6525 132.861 62.4309 145.771 76.164" stroke="black" stroke-width="0.639182" stroke-linecap="round" stroke-linejoin="round"/>
<path d="M34.2687 91.5873H147.786" stroke="black" stroke-width="0.639182" stroke-linecap="round" stroke-linejoin="round"/>
<path d="M91.0274 33.5216V149.654" stroke="black" stroke-width="0.639182" stroke-linecap="round" stroke-linejoin="round"/>
<path d="M133.445 22.4534C133.902 21.9856 133.902 21.2272 133.445 20.7595C132.988 20.2917 132.246 20.2917 131.789 20.7595C131.332 21.2272 131.332 21.9857 131.789 22.4534C132.246 22.9212 132.988 22.9212 133.445 22.4534Z" stroke="black" stroke-width="0.639182" stroke-linecap="round" stroke-linejoin="round"/>
<path d="M154.689 114.917C154.792 114.262 154.357 113.645 153.717 113.539C153.077 113.433 152.474 113.879 152.37 114.533C152.267 115.188 152.702 115.805 153.342 115.911C153.982 116.017 154.585 115.572 154.689 114.917Z" stroke="black" stroke-width="0.639182" stroke-linecap="round" stroke-linejoin="round"/>
<path d="M24.5814 89.2407C25.0386 88.7729 25.0386 88.0145 24.5814 87.5467C24.1241 87.079 23.3828 87.079 22.9255 87.5467C22.4683 88.0145 22.4683 88.7729 22.9255 89.2407C23.3828 89.7085 24.1241 89.7085 24.5814 89.2407Z" stroke="black" stroke-width="0.639182" stroke-linecap="round" stroke-linejoin="round"/>
<path d="M141.151 40.0345V42.5703" stroke="black" stroke-width="0.639182" stroke-linecap="round" stroke-linejoin="round"/>
<path d="M139.911 41.3026H142.39" stroke="black" stroke-width="0.639182" stroke-linecap="round" stroke-linejoin="round"/>
<path d="M26.6853 123.03V125.564" stroke="black" stroke-width="0.639182" stroke-linecap="round" stroke-linejoin="round"/>
<path d="M25.4454 124.296H27.9225" stroke="black" stroke-width="0.639182" stroke-linecap="round" stroke-linejoin="round"/>
<path d="M127.652 51.2249C131.16 51.2249 134.003 48.3157 134.003 44.727C134.003 41.1383 131.16 38.2291 127.652 38.2291C124.144 38.2291 121.3 41.1383 121.3 44.727C121.3 48.3157 124.144 51.2249 127.652 51.2249Z" fill="#A883F8" stroke="black" stroke-width="0.639182" stroke-linecap="round" stroke-linejoin="round"/>
<path d="M127.652 98.0884C131.16 98.0884 134.003 95.1792 134.003 91.5906C134.003 88.0019 131.16 85.0927 127.652 85.0927C124.144 85.0927 121.3 88.0019 121.3 91.5906C121.3 95.1792 124.144 98.0884 127.652 98.0884Z" fill="#6A57DC" stroke="black" stroke-width="0.639182" stroke-linecap="round" stroke-linejoin="round"/>
<path d="M50.9152 138.562C54.423 138.562 57.2667 135.653 57.2667 132.064C57.2667 128.475 54.423 125.566 50.9152 125.566C47.4073 125.566 44.5636 128.475 44.5636 132.064C44.5636 135.653 47.4073 138.562 50.9152 138.562Z" fill="#6A57DC" stroke="black" stroke-width="0.639182" stroke-linecap="round" stroke-linejoin="round"/>
<path d="M170.714 149.554H136.231C136.523 147.879 137.381 146.362 138.656 145.269C139.931 144.176 141.541 143.577 143.204 143.577C143.295 143.577 143.387 143.577 143.475 143.577C144.458 141.79 145.933 140.339 147.717 139.405C149.501 138.47 151.514 138.093 153.506 138.322C155.497 138.55 157.379 139.372 158.917 140.687C160.455 142.002 161.58 143.751 162.153 145.716C162.882 145.028 163.791 144.573 164.769 144.405C165.746 144.238 166.751 144.365 167.659 144.772C168.567 145.179 169.34 145.848 169.882 146.697C170.425 147.546 170.714 148.538 170.714 149.553V149.554Z" fill="#A883F8"/>
<path d="M161.389 152.28H118.647C119.008 150.204 120.072 148.324 121.652 146.969C123.232 145.614 125.228 144.872 127.289 144.872C127.402 144.872 127.516 144.872 127.627 144.872C128.845 142.658 130.673 140.86 132.883 139.701C135.093 138.543 137.587 138.075 140.055 138.357C142.523 138.639 144.855 139.657 146.761 141.286C148.667 142.914 150.062 145.08 150.773 147.514C151.677 146.663 152.804 146.099 154.016 145.892C155.228 145.685 156.473 145.843 157.599 146.348C158.724 146.853 159.682 147.682 160.354 148.734C161.027 149.787 161.385 151.017 161.386 152.274L161.389 152.28Z" stroke="black" stroke-width="0.639182" stroke-linecap="round" stroke-linejoin="round"/>
<path d="M127.847 152.28H171.572" stroke="black" stroke-width="0.639182" stroke-linecap="round" stroke-linejoin="round"/>
<path d="M107.224 156.98H150.95" stroke="black" stroke-width="0.639182" stroke-linecap="round" stroke-linejoin="round"/>
<path d="M72.6924 28.2718H38.2097C38.5011 26.5966 39.3594 25.0796 40.6343 23.9867C41.9092 22.8939 43.5193 22.2948 45.1826 22.2945C45.2739 22.2945 45.3652 22.2945 45.4533 22.2945C46.4364 20.5078 47.9118 19.0568 49.6956 18.1222C51.4793 17.1876 53.4926 16.8109 55.4842 17.0389C57.4759 17.267 59.3579 18.0898 60.8955 19.4047C62.4332 20.7196 63.5585 22.4684 64.1312 24.4332C64.8602 23.7456 65.7691 23.2902 66.747 23.1226C67.7249 22.9551 68.7293 23.0826 69.6374 23.4896C70.5456 23.8966 71.3182 24.5655 71.8607 25.4145C72.4032 26.2635 72.6923 27.2558 72.6924 28.2702V28.2718Z" fill="#A883F8"/>
<path d="M9.2 35.6971H52.9255" stroke="black" stroke-width="0.639182" stroke-linecap="round" stroke-linejoin="round"/>
<path d="M63.3655 30.9979H20.6234C20.9844 28.9214 22.0483 27.0411 23.6285 25.6865C25.2087 24.3319 27.2044 23.5894 29.266 23.5891C29.3786 23.5891 29.4927 23.5891 29.6036 23.5891C30.8215 21.3753 32.6494 19.5771 34.8593 18.4187C37.0692 17.2602 39.5636 16.7928 42.0314 17.0745C44.4992 17.3563 46.8315 18.3748 48.7374 20.0031C50.6434 21.6315 52.0388 23.7976 52.7497 26.2317C53.6538 25.3801 54.7808 24.8163 55.9929 24.6092C57.2051 24.4021 58.4499 24.5607 59.5755 25.0654C60.701 25.5702 61.6585 26.3994 62.3309 27.4517C63.0034 28.5041 63.3618 29.734 63.3622 30.9912L63.3655 30.9979Z" stroke="black" stroke-width="0.639182" stroke-linecap="round" stroke-linejoin="round"/>
<path d="M55.2353 86.9394C59.5303 86.9394 63.0121 83.3774 63.0121 78.9834C63.0121 74.5895 59.5303 71.0275 55.2353 71.0275C50.9403 71.0275 47.4586 74.5895 47.4586 78.9834C47.4586 83.3774 50.9403 86.9394 55.2353 86.9394Z" fill="black" stroke="black" stroke-width="0.639182" stroke-linecap="round" stroke-linejoin="round"/>
<path d="M55.2354 86.6708C59.3854 86.6708 62.7496 83.2291 62.7496 78.9835C62.7496 74.7379 59.3854 71.2961 55.2354 71.2961C51.0854 71.2961 47.7212 74.7379 47.7212 78.9835C47.7212 83.2291 51.0854 86.6708 55.2354 86.6708Z" fill="#EFEFEF"/>
<path d="M62.7515 78.9831C62.752 77.5369 62.3537 76.1198 61.6022 74.8949C60.8508 73.6699 59.7767 72.6866 58.5035 72.0582V85.9047C59.7762 85.2765 60.8499 84.2938 61.6014 83.0694C62.3528 81.8451 62.7514 80.4288 62.7515 78.9831Z" fill="#D50A2E"/>
<path d="M47.7212 78.9832C47.7199 80.4285 48.117 81.845 48.867 83.0699C49.6169 84.2948 50.6893 85.2785 51.961 85.9081V72.0616C50.6898 72.691 49.6178 73.6742 48.8678 74.8985C48.1179 76.1227 47.7205 77.5384 47.7212 78.9832Z" fill="#D50A2E"/>
<path d="M56.5426 79.9858L57.8488 79.3169L57.1965 78.9832V78.3142L55.8887 78.9832L56.5426 77.6469H55.8887L55.2364 76.6443L54.5825 77.6469H53.9286L54.5825 78.9832L53.2746 78.3142V78.9832L52.6207 79.3169L53.9286 79.9858L53.6024 80.6548H54.9086V81.6574H55.5625V80.6548H56.8687L56.5426 79.9858Z" fill="#D50A2E"/>
<path d="M22.544 114.284C26.839 114.284 30.3208 110.722 30.3208 106.328C30.3208 101.934 26.839 98.3717 22.544 98.3717C18.249 98.3717 14.7672 101.934 14.7672 106.328C14.7672 110.722 18.249 114.284 22.544 114.284Z" fill="black" stroke="black" stroke-width="0.639182" stroke-linecap="round" stroke-linejoin="round"/>
<path d="M30.0586 106.328C30.0296 108.347 29.225 110.274 27.8188 111.692C26.4126 113.109 24.5177 113.904 22.5436 113.904C20.5694 113.904 18.6745 113.109 17.2683 111.692C15.8622 110.274 15.0576 108.347 15.0285 106.328L22.5444 98.6389C23.5313 98.6389 24.5086 98.8378 25.4203 99.2242C26.3321 99.6107 27.1606 100.177 27.8583 100.891C28.5561 101.605 29.1096 102.453 29.4871 103.386C29.8646 104.318 30.0588 105.318 30.0586 106.328V106.328Z" fill="#0B55B0"/>
<path d="M22.5249 106.329H22.5454V106.306L22.5249 106.329Z" fill="#EFEFEF"/>
<path d="M22.5439 102.649V98.6454C20.5508 98.6459 18.6396 99.4562 17.2304 100.898C15.8213 102.34 15.0296 104.296 15.0296 106.334H18.9433V104.069L21.1513 106.328H22.5178L22.5374 106.306V104.908L20.3359 102.649H22.5439Z" fill="#EFEFEF"/>
<path d="M18.832 99.6416C17.6553 100.328 16.6804 101.326 16.0092 102.529V106.328H17.9661V101.647H22.5451V99.6449L18.832 99.6416Z" fill="#D50A2E"/>
<path d="M22.5437 105.382L19.8742 102.649H18.9496L22.5372 106.319L22.5437 105.382Z" fill="#D50A2E"/>
<path d="M28.043 104.344L28.2061 104.855H28.7312L28.3055 105.17L28.4686 105.68L28.043 105.365L27.619 105.68L27.7805 105.17L27.3565 104.855H27.8816L28.043 104.344Z" fill="#D50A2E"/>
<path d="M26.1682 108.021L26.4112 108.787H27.1988L26.5612 109.261L26.8041 110.026L26.1682 109.553L25.5306 110.026L25.7735 109.261L25.1359 108.787H25.9236L26.1682 108.021Z" fill="#D50A2E"/>
<path d="M26.239 102.004L26.4412 102.643H27.0984L26.5668 103.036L26.7706 103.675L26.239 103.28L25.7074 103.675L25.9113 103.036L25.3796 102.643H26.0368L26.239 102.004Z" fill="#D50A2E"/>
<path d="M24.4345 104.321L24.6775 105.087H25.4651L24.8275 105.561L25.0705 106.328L24.4345 105.854L23.7969 106.328L24.0399 105.561L23.4039 105.087H24.1915L24.4345 104.321Z" fill="#D50A2E"/>
<path d="M72.4744 99.5829C76.7694 99.5829 80.2512 96.0209 80.2512 91.627C80.2512 87.233 76.7694 83.6711 72.4744 83.6711C68.1794 83.6711 64.6976 87.233 64.6976 91.627C64.6976 96.0209 68.1794 99.5829 72.4744 99.5829Z" fill="black" stroke="black" stroke-width="0.639182" stroke-linecap="round" stroke-linejoin="round"/>
<path d="M72.4744 99.3143C76.6244 99.3143 79.9886 95.8725 79.9886 91.6269C79.9886 87.3813 76.6244 83.9395 72.4744 83.9395C68.3244 83.9395 64.9601 87.3813 64.9601 91.6269C64.9601 95.8725 68.3244 99.3143 72.4744 99.3143Z" fill="#EFEFEF"/>
<path d="M72.1462 91.6271H79.9899C79.9899 90.9511 79.9032 90.2781 79.7322 89.6252H72.1462V91.6271Z" fill="#D50A2E"/>
<path d="M72.1462 87.6151H78.8843C78.4242 86.8501 77.8377 86.1727 77.1508 85.6132H72.1462V87.6151Z" fill="#D50A2E"/>
<path d="M72.4702 99.3143C74.1695 99.3174 75.8194 98.7291 77.1487 97.646H67.795C69.1231 98.7288 70.7719 99.3172 72.4702 99.3143V99.3143Z" fill="#D50A2E"/>
<path d="M66.0626 95.6376H78.8864C79.2596 95.0149 79.5441 94.3408 79.7311 93.6357H65.2179C65.4041 94.341 65.6886 95.0152 66.0626 95.6376V95.6376Z" fill="#D50A2E"/>
<path d="M68.4405 85.139H69.1254L68.4878 85.6128L68.7324 86.3785L68.0948 85.9047L67.4572 86.3735L67.6676 85.7062C67.1055 86.1874 66.6145 86.7494 66.2097 87.3745H66.438L66.032 87.6764C65.97 87.7849 65.9081 87.8933 65.851 88.0101L66.045 88.619L65.683 88.3504C65.5933 88.5456 65.5118 88.7441 65.4368 88.9476L65.6504 89.615H66.438L65.7858 90.0921L66.0304 90.8578L65.3993 90.3773L65.0177 90.661C64.9791 90.9792 64.9595 91.2995 64.959 91.6202H72.4716V83.9378C71.0433 83.936 69.6445 84.3529 68.4405 85.139V85.139ZM68.7324 90.8578L68.0948 90.3773L67.4572 90.8511L67.7018 90.0854L67.0642 89.6116H67.8519L68.0948 88.8459L68.3378 89.6116H69.1254L68.4878 90.0854L68.7324 90.8578ZM68.4878 87.8549L68.7324 88.6207L68.0948 88.1485L67.4572 88.6207L67.7018 87.8549L67.0642 87.3745H67.8519L68.0948 86.6087L68.3378 87.3745H69.1254L68.4878 87.8549ZM71.4231 90.8578L70.7904 90.3773L70.1528 90.8511L70.3974 90.0854L69.7598 89.6116H70.5474L70.7904 88.8459L71.0333 89.6116H71.8193L71.1817 90.0854L71.4231 90.8578ZM71.1785 87.8549L71.4231 88.6207L70.7855 88.1485L70.1479 88.6207L70.3925 87.8549L69.7598 87.3745H70.5474L70.7904 86.6087L71.0333 87.3745H71.8193L71.1785 87.8549ZM71.1785 85.6161L71.4231 86.3819L70.7855 85.9081L70.1528 86.3735L70.3974 85.6078L69.7598 85.134H70.5474L70.7904 84.3683L71.0333 85.134H71.8193L71.1785 85.6161Z" fill="#0B55B0"/>
<path d="M107.86 120.132C112.155 120.132 115.637 116.57 115.637 112.177C115.637 107.783 112.155 104.221 107.86 104.221C103.565 104.221 100.084 107.783 100.084 112.177C100.084 116.57 103.565 120.132 107.86 120.132Z" fill="black" stroke="black" stroke-width="0.639182" stroke-linecap="round" stroke-linejoin="round"/>
<path d="M107.86 119.864C112.01 119.864 115.375 116.422 115.375 112.177C115.375 107.931 112.01 104.489 107.86 104.489C103.71 104.489 100.346 107.931 100.346 112.177C100.346 116.422 103.71 119.864 107.86 119.864Z" fill="#EFEFEF"/>
<path d="M100.347 112.176C100.332 111.157 100.516 110.145 100.887 109.199C101.258 108.253 101.809 107.392 102.509 106.666C103.208 105.94 104.041 105.364 104.96 104.97C105.879 104.577 106.866 104.374 107.862 104.374C108.858 104.374 109.845 104.577 110.764 104.97C111.683 105.364 112.516 105.94 113.216 106.666C113.915 107.392 114.466 108.253 114.837 109.199C115.208 110.145 115.392 111.157 115.377 112.176" fill="#D50A2E"/>
<path d="M104.923 108.5C104.922 107.966 105.099 107.449 105.425 107.033C105.752 106.617 106.207 106.328 106.716 106.214C106.556 106.177 106.392 106.159 106.227 106.159C105.91 106.166 105.599 106.239 105.311 106.376C105.024 106.512 104.768 106.708 104.558 106.951C104.349 107.195 104.192 107.48 104.096 107.789C104 108.097 103.969 108.423 104.003 108.745C104.037 109.068 104.136 109.379 104.294 109.66C104.452 109.94 104.665 110.185 104.921 110.376C105.176 110.568 105.467 110.704 105.776 110.774C106.086 110.844 106.406 110.848 106.716 110.785C106.207 110.671 105.752 110.382 105.425 109.966C105.099 109.55 104.922 109.033 104.923 108.5V108.5Z" fill="#EFEFEF"/>
<path d="M107.859 106.326L108.022 106.836H108.547L108.121 107.152L108.284 107.664L107.859 107.347L107.435 107.664L107.596 107.152L107.172 106.836H107.697L107.859 106.326Z" fill="#EFEFEF"/>
<path d="M106.588 107.328L106.749 107.839H107.274L106.849 108.156L107.012 108.666L106.588 108.351L106.162 108.666L106.325 108.156L105.9 107.839H106.425L106.588 107.328Z" fill="#EFEFEF"/>
<path d="M109.135 107.328L109.298 107.839H109.821L109.397 108.156L109.561 108.666L109.135 108.351L108.711 108.666L108.872 108.156L108.448 107.839H108.973L109.135 107.328Z" fill="#EFEFEF"/>
<path d="M108.644 108.833L108.806 109.344H109.331L108.905 109.659L109.068 110.17L108.644 109.854L108.219 110.17L108.382 109.659L107.956 109.344H108.481L108.644 108.833Z" fill="#EFEFEF"/>
<path d="M107.078 108.833L107.241 109.344H107.765L107.341 109.659L107.502 110.17L107.078 109.854L106.654 110.17L106.816 109.659L106.392 109.344H106.917L107.078 108.833Z" fill="#EFEFEF"/>
<path d="M91.0193 73.66C95.3143 73.66 98.7961 70.098 98.7961 65.7041C98.7961 61.3101 95.3143 57.7481 91.0193 57.7481C86.7243 57.7481 83.2425 61.3101 83.2425 65.7041C83.2425 70.098 86.7243 73.66 91.0193 73.66Z" fill="black" stroke="black" stroke-width="0.639182" stroke-linecap="round" stroke-linejoin="round"/>
<path d="M91.0192 73.3913C95.1692 73.3913 98.5335 69.9496 98.5335 65.704C98.5335 61.4584 95.1692 58.0166 91.0192 58.0166C86.8692 58.0166 83.505 61.4584 83.505 65.704C83.505 69.9496 86.8692 73.3913 91.0192 73.3913Z" fill="#EFEFEF"/>
<path d="M85.0584 61.0244C84.4599 61.8185 84.0205 62.7256 83.7653 63.6937H87.679L85.0584 61.0244Z" fill="#0B55B0"/>
<path d="M98.2758 63.6987C98.0193 62.7308 97.5793 61.8239 96.981 61.0296L94.3719 63.6987H98.2758Z" fill="#0B55B0"/>
<path d="M83.7653 67.7111C84.0217 68.6787 84.4611 69.5855 85.0584 70.3803L87.6675 67.7111H83.7653Z" fill="#0B55B0"/>
<path d="M95.5957 59.6066C94.8191 58.9946 93.9327 58.5446 92.9866 58.282V62.2858L95.5957 59.6066Z" fill="#0B55B0"/>
<path d="M86.4454 71.8034C87.2219 72.4156 88.1084 72.8656 89.0545 73.128V69.1242L86.4454 71.8034Z" fill="#0B55B0"/>
<path d="M89.059 58.282C88.1129 58.5444 87.2264 58.9944 86.4499 59.6066L89.059 62.2758V58.282Z" fill="#0B55B0"/>
<path d="M92.9796 73.1277C93.9256 72.8651 94.8121 72.415 95.5887 71.8031L92.9796 69.1339V73.1377V73.1277Z" fill="#0B55B0"/>
<path d="M94.3671 67.7111L96.9762 70.3803C97.5741 69.5857 98.014 68.6788 98.271 67.7111H94.3671Z" fill="#0B55B0"/>
<path d="M98.4713 64.7014H91.9991V58.0817C91.3495 57.9953 90.6918 57.9953 90.0423 58.0817V64.7014H83.5684C83.4839 65.3659 83.4839 66.0388 83.5684 66.7033H90.039V73.328C90.6885 73.4144 91.3463 73.4144 91.9958 73.328V66.7066H98.4681C98.5526 66.0421 98.5526 65.3692 98.4681 64.7047L98.4713 64.7014Z" fill="#D50A2E"/>
<path d="M92.9796 67.7107L96.3339 71.1406C96.4888 70.9838 96.6356 70.8186 96.7758 70.6401L93.9042 67.704L92.9796 67.7107Z" fill="#D50A2E"/>
<path d="M89.0597 67.7111L85.707 71.1411C85.8603 71.2995 86.0217 71.4497 86.1881 71.5932L89.0597 68.6553V67.7111V67.7111Z" fill="#D50A2E"/>
<path d="M89.0601 63.6989L85.7073 60.2689C85.5524 60.4258 85.4056 60.5909 85.2654 60.7694L88.1354 63.7056L89.0601 63.6989Z" fill="#D50A2E"/>
<path d="M92.9805 63.6989L96.3348 60.2689C96.1718 60.1104 96.0201 59.9603 95.8456 59.8168L92.974 62.753L92.9805 63.6989Z" fill="#D50A2E"/>
<path d="M159.941 80.1745C164.091 80.1745 167.455 76.7328 167.455 72.4872C167.455 68.2416 164.091 64.7998 159.941 64.7998C155.791 64.7998 152.427 68.2416 152.427 72.4872C152.427 76.7328 155.791 80.1745 159.941 80.1745Z" fill="#EFEFEF"/>
<path d="M159.941 80.4429C164.236 80.4429 167.717 76.8809 167.717 72.4869C167.717 68.093 164.236 64.531 159.941 64.531C155.646 64.531 152.164 68.093 152.164 72.4869C152.164 76.8809 155.646 80.4429 159.941 80.4429Z" fill="white" stroke="black" stroke-width="0.639182" stroke-linecap="round" stroke-linejoin="round"/>
<path d="M159.614 72.4874H167.456C167.455 71.8113 167.368 71.1383 167.196 70.4855H159.614V72.4874Z" fill="#D50A2E"/>
<path d="M159.614 68.4765H166.352C165.892 67.7109 165.306 67.0333 164.618 66.4746H159.614V68.4765Z" fill="#D50A2E"/>
<path d="M159.94 80.176C161.64 80.1796 163.29 79.5913 164.619 78.5077H155.263C156.592 79.591 158.241 80.1794 159.94 80.176V80.176Z" fill="#D50A2E"/>
<path d="M153.529 76.4974H166.353C166.727 75.8753 167.012 75.201 167.198 74.4955H152.684C152.871 75.2008 153.155 75.875 153.529 76.4974V76.4974Z" fill="#D50A2E"/>
<path d="M159.941 72.4872V64.7998C157.948 64.7998 156.037 65.6098 154.628 67.0514C153.218 68.4931 152.427 70.4484 152.427 72.4872H159.941Z" fill="#0B55B0"/>
<path d="M157.431 71.3793C157.148 71.3797 156.869 71.3139 156.614 71.187C156.359 71.06 156.137 70.8753 155.962 70.6468C155.788 70.4183 155.668 70.1522 155.609 69.8687C155.551 69.5852 155.557 69.2918 155.626 69.0109C155.696 68.7301 155.827 68.4691 156.01 68.2481C156.193 68.0271 156.423 67.8517 156.683 67.7355C156.942 67.6192 157.224 67.5651 157.507 67.5773C157.79 67.5895 158.066 67.6677 158.315 67.8058C157.994 67.4852 157.587 67.2686 157.145 67.1833C156.704 67.098 156.248 67.1477 155.834 67.3262C155.421 67.5047 155.068 67.8041 154.819 68.1869C154.571 68.5697 154.439 69.0189 154.439 69.4783C154.439 69.9377 154.571 70.3869 154.819 70.7696C155.068 71.1524 155.421 71.4518 155.834 71.6303C156.248 71.8088 156.704 71.8585 157.145 71.7732C157.587 71.6879 157.994 71.4714 158.315 71.1507C158.044 71.3018 157.74 71.3804 157.431 71.3793V71.3793Z" fill="#FDD853"/>
<path d="M157.947 68.1412L158.278 68.8468L159.023 68.6717L158.689 69.3757L159.289 69.8611L158.542 70.033L158.544 70.8154L157.947 70.3266L157.352 70.8154L157.354 70.033L156.607 69.8611L157.207 69.3757L156.872 68.6717L157.618 68.8468L157.947 68.1412Z" fill="#FDD853"/>
</svg>
