<svg width="312" height="150" viewBox="0 0 312 150" fill="none" xmlns="http://www.w3.org/2000/svg">
<rect width="312" height="150" fill="#0090ED"/>
<g clip-path="url(#clip0_175_4422)">
<rect x="66" y="15" width="180.513" height="120" rx="4.10256" fill="#F9F9FA"/>
<g filter="url(#filter0_i_175_4422)">
<path d="M66 15H217.795C220.061 15 221.897 16.8368 221.897 19.1026V39.6154H66V15Z" fill="#F9F9FA"/>
<path d="M132.975 29.8077V24.1708H134L135.855 27.6087L137.717 24.1708H138.735V29.8077H137.717V26.0415L135.855 29.4795L134 26.0415V29.8077H132.975ZM142.002 29.9061C140.772 29.9061 139.73 28.8887 139.73 27.6826C139.73 26.4764 140.772 25.4672 142.002 25.4672C143.233 25.4672 144.275 26.4764 144.275 27.6826C144.275 28.8887 143.233 29.9061 142.002 29.9061ZM142.002 29.0528C142.7 29.0528 143.291 28.4292 143.291 27.6826C143.291 26.9441 142.7 26.3205 142.002 26.3205C141.297 26.3205 140.706 26.9441 140.706 27.6826C140.706 28.4292 141.297 29.0528 142.002 29.0528ZM144.971 29.8077V29.0774L147.219 26.4436H145.02V25.5656H148.54L148.532 26.2959L146.276 28.9297H148.557V29.8077H144.971ZM149.971 24.9256C149.651 24.9256 149.397 24.6549 149.397 24.3513C149.397 24.0477 149.651 23.7851 149.971 23.7851C150.283 23.7851 150.537 24.0477 150.537 24.3513C150.537 24.6549 150.283 24.9256 149.971 24.9256ZM149.462 29.8077V25.5656H150.463V29.8077H149.462ZM151.57 29.8077V24.0723H152.571V29.8077H151.57ZM153.677 29.8077V24.0723H154.678V29.8077H153.677ZM157.631 25.4672C158.755 25.4672 159.452 26.181 159.452 27.2559V29.8077H158.476V29.299C158.164 29.6928 157.631 29.9061 157.138 29.9061C156.236 29.9061 155.555 29.3728 155.555 28.5523C155.555 27.7154 156.334 27.141 157.286 27.141C157.672 27.141 158.09 27.2231 158.476 27.3708V27.2559C158.476 26.7636 158.205 26.2877 157.434 26.2877C157.032 26.2877 156.646 26.4272 156.285 26.6077L155.94 25.9102C156.539 25.6149 157.097 25.4672 157.631 25.4672ZM157.36 29.1759C157.844 29.1759 158.361 28.9297 158.476 28.4784V28.0026C158.164 27.8959 157.811 27.8384 157.434 27.8384C156.933 27.8384 156.531 28.1174 156.531 28.5195C156.531 28.9215 156.884 29.1759 157.36 29.1759ZM167.184 24.1708H168.324L165.97 29.8077H164.829L162.474 24.1708H163.606L165.395 28.4456L167.184 24.1708ZM169.071 29.8077V24.1708H171.524C172.73 24.1708 173.633 24.942 173.633 26.0415C173.633 27.141 172.73 27.9123 171.524 27.9123H170.096V29.8077H169.071ZM170.096 26.9687H171.409C172.106 26.9687 172.591 26.6159 172.591 26.0415C172.591 25.4672 172.106 25.1143 171.409 25.1143H170.096V26.9687ZM174.513 29.8077V24.1708H175.539L178.517 28.1338V24.1708H179.535V29.8077H178.517L175.539 25.8446V29.8077H174.513Z" fill="#0C0C0D"/>
</g>
<g filter="url(#filter1_i_175_4422)">
<path d="M221.897 19.1026C221.897 16.8368 223.734 15 226 15H246.513V39.6154H221.897V19.1026Z" fill="#F9F9FA"/>
<path d="M230.103 23.2051C230.386 23.2051 230.615 23.4346 230.615 23.7178V24.795C230.937 24.8612 231.242 24.9889 231.515 25.1709L232.279 24.4063C232.481 24.2123 232.8 24.2154 232.998 24.4131C233.196 24.6109 233.198 24.9307 233.004 25.1319L232.24 25.8955C232.422 26.1683 232.549 26.4739 232.615 26.795H233.693C233.976 26.795 234.205 27.0245 234.205 27.3076C234.205 27.5908 233.976 27.8203 233.693 27.8203H232.615C232.549 28.1416 232.421 28.4469 232.239 28.7198L233.004 29.4844C233.198 29.6856 233.195 30.0054 232.997 30.2032C232.799 30.4007 232.48 30.4033 232.278 30.209L231.515 29.4453C231.242 29.6271 230.936 29.7542 230.615 29.8203V30.8975C230.615 31.1807 230.386 31.4102 230.103 31.4102C229.819 31.4102 229.59 31.1807 229.59 30.8975V29.8203C229.267 29.754 228.96 29.6258 228.686 29.4424C228.68 29.4495 228.677 29.4582 228.67 29.4649L227.926 30.209C227.797 30.342 227.607 30.3954 227.428 30.3487C227.249 30.3018 227.109 30.1616 227.062 29.9825C227.015 29.8032 227.068 29.6122 227.201 29.4834L227.944 28.7403C227.951 28.7336 227.961 28.7313 227.968 28.7246C227.785 28.4506 227.656 28.1433 227.59 27.8203H226.513C226.23 27.8203 226 27.5908 226 27.3076C226 27.0245 226.23 26.795 226.513 26.795H227.59C227.656 26.4739 227.784 26.1682 227.966 25.8955L227.201 25.1319C227.001 24.9316 227.001 24.6066 227.201 24.4063C227.402 24.2059 227.726 24.206 227.927 24.4063L228.691 25.17C228.963 24.9882 229.269 24.8611 229.59 24.795V23.7178C229.59 23.4346 229.819 23.2051 230.103 23.2051ZM230.103 25.7696C229.253 25.7696 228.565 26.458 228.565 27.3076C228.565 28.1573 229.253 28.8457 230.103 28.8457C230.952 28.8457 231.641 28.1573 231.641 27.3076C231.641 26.458 230.952 25.7696 230.103 25.7696Z" fill="#3D3D3D"/>
</g>
<g filter="url(#filter2_d_175_4422)">
<rect x="74.2051" y="47.8205" width="164.103" height="78.9744" rx="4.10256" fill="#F9F9FA"/>
</g>
<g filter="url(#filter3_d_175_4422)">
<path d="M74.2051 51.9231C74.2051 49.6573 76.0419 47.8205 78.3077 47.8205H234.205C236.471 47.8205 238.308 49.6573 238.308 51.9231V106.282H74.2051V51.9231Z" fill="#321C64"/>
<rect x="95.6411" y="66.2821" width="9.84615" height="9.84615" rx="4.92308" fill="#3FE1B0"/>
<path d="M94.7182 65.359C95.5833 65.36 96.4379 65.4595 97.269 65.6461C96.2161 66.2716 95.3568 67.1878 94.8002 68.2838C94.7729 68.2828 94.7456 68.2819 94.7182 68.2819C93.1471 68.2819 91.7409 70.0358 90.9662 72.6051H94.2563C94.3798 73.1642 94.5754 73.6957 94.8334 74.1901H90.5873C90.2478 76.0825 90.2477 78.0203 90.5873 79.9127H98.8481C98.991 79.1145 99.0728 78.3069 99.0951 77.4967C99.5635 77.6056 100.051 77.6647 100.552 77.6656C100.527 78.4183 100.456 79.1688 100.336 79.9127H102.997C103.319 78.993 103.486 78.0259 103.488 77.0514C103.488 77.0234 103.485 76.9954 103.485 76.9674C104.581 76.4108 105.496 75.5523 106.122 74.4996C106.308 75.3311 106.41 76.1858 106.411 77.0514C106.411 79.3639 105.725 81.6247 104.44 83.5475C103.155 85.4701 101.329 86.9682 99.1928 87.8531C97.0563 88.7381 94.705 88.9703 92.4369 88.5192C90.1689 88.068 88.0858 86.9541 86.4506 85.319C84.8155 83.6838 83.7016 81.6006 83.2504 79.3326C82.7993 77.0646 83.0305 74.7133 83.9154 72.5768C84.8004 70.4404 86.2994 68.6145 88.2221 67.3297C90.0248 66.1252 92.1246 65.4468 94.2856 65.3668L94.7182 65.359ZM90.9662 81.4977C91.7409 84.0669 93.1471 85.8209 94.7182 85.8209C96.2892 85.8209 97.695 84.0668 98.4711 81.4977H90.9662ZM87.1723 81.4977C88.0663 83.0081 89.3914 84.2175 90.977 84.9703C90.272 83.9083 89.7525 82.7337 89.4408 81.4977H87.1723ZM100 81.4977C99.6891 82.7324 99.17 83.9052 98.4662 84.9664C100.05 84.2141 101.374 83.0065 102.268 81.4977H100ZM86.4389 74.1901C86.1169 75.1098 85.9507 76.0769 85.9487 77.0514C85.9507 78.0259 86.1169 78.993 86.4389 79.9127H89.1C88.796 78.0173 88.796 76.0855 89.1 74.1901H86.4389ZM90.977 69.1324C89.3914 69.8853 88.0663 71.0946 87.1723 72.6051H89.4408C89.7525 71.369 90.272 70.1945 90.977 69.1324Z" fill="url(#paint0_radial_175_4422)"/>
<path d="M101.94 69.2876C102.212 69.335 102.411 69.5717 102.41 69.8482C102.41 70.1629 102.411 70.7306 102.386 70.9888C102.373 71.5748 102.18 72.1427 101.832 72.6148C101.533 73.0146 101.09 73.2827 100.597 73.3618L100.564 73.3658L100.53 73.3618C100.037 73.2827 99.594 73.0146 99.2951 72.6148C98.9477 72.1426 98.7543 71.5749 98.7414 70.9888C98.718 70.7306 98.718 70.1636 98.718 69.8482C98.7173 69.5719 98.9156 69.3353 99.1877 69.2876L100.564 69.0513L101.94 69.2876ZM99.3332 69.8863C99.3332 70.3861 99.3182 70.7357 99.3332 70.9019C99.3413 71.3881 99.5018 71.8598 99.7912 72.2505C99.9803 72.5035 100.255 72.6795 100.564 72.7447C100.873 72.6795 101.148 72.5036 101.337 72.2505C101.627 71.8599 101.787 71.3881 101.795 70.9019C101.81 70.7356 101.795 70.3861 101.795 69.8863L100.564 69.6763L99.3332 69.8863ZM100.564 72.2681H100.562C100.402 72.2145 100.262 72.1123 100.161 71.9771C99.9292 71.6632 99.8069 71.2814 99.8137 70.8911C99.8039 70.7849 99.7979 70.5656 99.7951 70.2759L100.564 70.1441V72.2681Z" fill="white"/>
<path d="M117.784 67.0257V61.9348H118.706V66.2526H120.949V67.0257H117.784ZM122.808 67.1027C122.08 67.1027 121.53 66.705 121.53 65.9543C121.53 65.0942 122.239 64.873 122.979 64.7934C123.653 64.7213 123.924 64.7089 123.924 64.4504V64.4355C123.924 64.0601 123.695 63.8463 123.278 63.8463C122.838 63.8463 122.584 64.0701 122.495 64.3311L121.655 64.2117C121.853 63.5157 122.47 63.1578 123.273 63.1578C124.001 63.1578 124.824 63.461 124.824 64.4703V67.0257H123.959V66.5012H123.929C123.765 66.8218 123.407 67.1027 122.808 67.1027ZM123.042 66.4415C123.584 66.4415 123.927 66.0811 123.927 65.656V65.2061C123.81 65.3005 123.337 65.3602 123.101 65.3925C122.699 65.4497 122.398 65.5938 122.398 65.9394C122.398 66.27 122.666 66.4415 123.042 66.4415ZM127.465 68.4575V63.2075H128.35V63.8389H128.402C128.539 63.563 128.82 63.1578 129.494 63.1578C130.376 63.1578 131.07 63.8488 131.07 65.1215C131.07 66.3794 130.396 67.0928 129.496 67.0928C128.84 67.0928 128.544 66.7025 128.402 66.4241H128.365V68.4575H127.465ZM128.348 65.1166C128.348 65.8573 128.671 66.3545 129.245 66.3545C129.839 66.3545 130.152 65.8325 130.152 65.1166C130.152 64.4056 129.844 63.896 129.245 63.896C128.666 63.896 128.348 64.3758 128.348 65.1166ZM131.84 67.0257V63.2075H132.713V63.8438H132.752C132.892 63.4014 133.257 63.1528 133.695 63.1528C133.794 63.1528 133.936 63.1627 134.018 63.1777V64.0054C133.941 63.9806 133.752 63.9532 133.6 63.9532C133.105 63.9532 132.74 64.2963 132.74 64.781V67.0257H131.84ZM136.124 67.1002C135.005 67.1002 134.294 66.3122 134.294 65.1315C134.294 63.9483 135.005 63.1578 136.124 63.1578C137.242 63.1578 137.953 63.9483 137.953 65.1315C137.953 66.3122 137.242 67.1002 136.124 67.1002ZM136.129 66.3794C136.738 66.3794 137.041 65.8275 137.041 65.129C137.041 64.4305 136.738 63.8712 136.129 63.8712C135.51 63.8712 135.206 64.4305 135.206 65.129C135.206 65.8275 135.51 66.3794 136.129 66.3794ZM140.624 63.2075V63.9035H139.87V65.8772C139.87 66.2402 140.052 66.3197 140.278 66.3197C140.39 66.3197 140.492 66.2973 140.542 66.2849L140.693 66.9884C140.596 67.0207 140.42 67.0704 140.164 67.0779C139.488 67.0978 138.966 66.7448 138.971 66.0264V63.9035H138.429V63.2075H138.971V62.2927H139.87V63.2075H140.624ZM143.026 67.1002C141.875 67.1002 141.171 66.3371 141.171 65.1389C141.171 63.9607 141.885 63.1578 142.978 63.1578C143.918 63.1578 144.723 63.7469 144.723 65.0867V65.3627H142.064C142.071 66.0164 142.456 66.3992 143.038 66.3992C143.426 66.3992 143.724 66.2302 143.846 65.9071L144.686 66.0015C144.527 66.6652 143.915 67.1002 143.026 67.1002ZM142.066 64.7561H143.861C143.856 64.2366 143.508 63.8588 142.991 63.8588C142.454 63.8588 142.093 64.2689 142.066 64.7561ZM147.15 67.1002C146.009 67.1002 145.321 66.2874 145.321 65.1315C145.321 63.9657 146.027 63.1578 147.145 63.1578C148.077 63.1578 148.724 63.7022 148.786 64.5299H147.926C147.856 64.162 147.59 63.8836 147.158 63.8836C146.603 63.8836 146.233 64.346 146.233 65.1166C146.233 65.8971 146.596 66.3669 147.158 66.3669C147.553 66.3669 147.849 66.1308 147.926 65.7206H148.786C148.721 66.531 148.11 67.1002 147.15 67.1002ZM151.19 67.1002C150.049 67.1002 149.361 66.2874 149.361 65.1315C149.361 63.9657 150.067 63.1578 151.185 63.1578C152.117 63.1578 152.764 63.7022 152.826 64.5299H151.966C151.896 64.162 151.63 63.8836 151.198 63.8836C150.643 63.8836 150.273 64.346 150.273 65.1166C150.273 65.8971 150.636 66.3669 151.198 66.3669C151.593 66.3669 151.889 66.1308 151.966 65.7206H152.826C152.761 66.531 152.15 67.1002 151.19 67.1002ZM153.565 67.0257V63.2075H154.465V67.0257H153.565ZM154.017 62.6656C153.729 62.6656 153.495 62.4468 153.495 62.1784C153.495 61.9074 153.729 61.6887 154.017 61.6887C154.303 61.6887 154.537 61.9074 154.537 62.1784C154.537 62.4468 154.303 62.6656 154.017 62.6656ZM157.055 67.1002C155.937 67.1002 155.226 66.3122 155.226 65.1315C155.226 63.9483 155.937 63.1578 157.055 63.1578C158.174 63.1578 158.885 63.9483 158.885 65.1315C158.885 66.3122 158.174 67.1002 157.055 67.1002ZM157.06 66.3794C157.669 66.3794 157.973 65.8275 157.973 65.129C157.973 64.4305 157.669 63.8712 157.06 63.8712C156.441 63.8712 156.138 64.4305 156.138 65.129C156.138 65.8275 156.441 66.3794 157.06 66.3794ZM156.71 62.7054L157.267 61.5693H158.147L157.384 62.7054H156.71ZM160.549 64.7884V67.0257H159.649V63.2075H160.509V63.8563H160.554C160.728 63.4312 161.12 63.1578 161.692 63.1578C162.48 63.1578 163.002 63.6798 163 64.5946V67.0257H162.1V64.7338C162.1 64.2242 161.821 63.9184 161.356 63.9184C160.882 63.9184 160.549 64.2366 160.549 64.7884ZM166.372 61.9348L167.696 65.9419H167.749L169.071 61.9348H170.085L168.291 67.0257H167.152L165.36 61.9348H166.372ZM170.756 67.0257V61.9348H172.665C173.836 61.9348 174.46 62.6482 174.46 63.6201C174.46 64.5995 173.828 65.3055 172.653 65.3055H171.678V67.0257H170.756ZM171.678 64.5473H172.528C173.214 64.5473 173.52 64.162 173.52 63.6201C173.52 63.0782 173.214 62.7054 172.523 62.7054H171.678V64.5473ZM179.444 61.9348V67.0257H178.624L176.225 63.558H176.183V67.0257H175.261V61.9348H176.086L178.482 65.4049H178.527V61.9348H179.444ZM182.146 68.4575V63.2075H183.031V63.8389H183.083C183.22 63.563 183.501 63.1578 184.174 63.1578C185.057 63.1578 185.75 63.8488 185.75 65.1215C185.75 66.3794 185.077 67.0928 184.177 67.0928C183.52 67.0928 183.225 66.7025 183.083 66.4241H183.046V68.4575H182.146ZM183.028 65.1166C183.028 65.8573 183.351 66.3545 183.926 66.3545C184.52 66.3545 184.833 65.8325 184.833 65.1166C184.833 64.4056 184.525 63.896 183.926 63.896C183.346 63.896 183.028 64.3758 183.028 65.1166ZM187.619 67.1027C186.891 67.1027 186.342 66.705 186.342 65.9543C186.342 65.0942 187.05 64.873 187.791 64.7934C188.465 64.7213 188.736 64.7089 188.736 64.4504V64.4355C188.736 64.0601 188.507 63.8463 188.089 63.8463C187.649 63.8463 187.396 64.0701 187.306 64.3311L186.466 64.2117C186.665 63.5157 187.281 63.1578 188.084 63.1578C188.813 63.1578 189.635 63.461 189.635 64.4703V67.0257H188.77V66.5012H188.741C188.577 66.8218 188.219 67.1027 187.619 67.1027ZM187.853 66.4415C188.395 66.4415 188.738 66.0811 188.738 65.656V65.2061C188.621 65.3005 188.149 65.3602 187.913 65.3925C187.51 65.4497 187.209 65.5938 187.209 65.9394C187.209 66.27 187.478 66.4415 187.853 66.4415ZM190.54 67.0257V63.2075H191.413V63.8438H191.453C191.592 63.4014 191.957 63.1528 192.395 63.1528C192.494 63.1528 192.636 63.1627 192.718 63.1777V64.0054C192.641 63.9806 192.452 63.9532 192.3 63.9532C191.806 63.9532 191.44 64.2963 191.44 64.781V67.0257H190.54ZM194.339 67.1027C193.611 67.1027 193.062 66.705 193.062 65.9543C193.062 65.0942 193.77 64.873 194.511 64.7934C195.184 64.7213 195.455 64.7089 195.455 64.4504V64.4355C195.455 64.0601 195.227 63.8463 194.809 63.8463C194.369 63.8463 194.115 64.0701 194.026 64.3311L193.186 64.2117C193.385 63.5157 194.001 63.1578 194.804 63.1578C195.532 63.1578 196.355 63.461 196.355 64.4703V67.0257H195.49V66.5012H195.46C195.296 66.8218 194.938 67.1027 194.339 67.1027ZM194.573 66.4415C195.115 66.4415 195.458 66.0811 195.458 65.656V65.2061C195.341 65.3005 194.869 65.3602 194.633 65.3925C194.23 65.4497 193.929 65.5938 193.929 65.9394C193.929 66.27 194.198 66.4415 194.573 66.4415ZM117.784 78.0257V72.9348H121.046V73.7078H118.706V75.0899H120.822V75.863H118.706V78.0257H117.784ZM121.846 78.0257V74.2075H122.746V78.0257H121.846ZM122.298 73.6656C122.01 73.6656 121.776 73.4468 121.776 73.1784C121.776 72.9074 122.01 72.6887 122.298 72.6887C122.584 72.6887 122.818 72.9074 122.818 73.1784C122.818 73.4468 122.584 73.6656 122.298 73.6656ZM123.671 78.0257V74.2075H124.544V74.8438H124.583C124.723 74.4014 125.088 74.1528 125.526 74.1528C125.625 74.1528 125.767 74.1627 125.849 74.1777V75.0054C125.772 74.9806 125.583 74.9532 125.431 74.9532C124.936 74.9532 124.571 75.2963 124.571 75.781V78.0257H123.671ZM127.98 78.1002C126.829 78.1002 126.125 77.3371 126.125 76.1389C126.125 74.9607 126.839 74.1578 127.932 74.1578C128.872 74.1578 129.677 74.7469 129.677 76.0867V76.3627H127.018C127.025 77.0164 127.41 77.3992 127.992 77.3992C128.38 77.3992 128.678 77.2302 128.8 76.9071L129.64 77.0015C129.481 77.6652 128.87 78.1002 127.98 78.1002ZM127.02 75.7561H128.815C128.81 75.2366 128.462 74.8588 127.945 74.8588C127.408 74.8588 127.047 75.2689 127.02 75.7561ZM132.373 74.2075V74.9035H131.58V78.0257H130.68V74.9035H130.116V74.2075H130.68V73.847C130.68 73.0764 131.209 72.6961 131.873 72.6961C132.184 72.6961 132.44 72.7608 132.557 72.8005L132.375 73.4965C132.301 73.4742 132.181 73.4419 132.04 73.4419C131.704 73.4419 131.58 73.6084 131.58 73.9067V74.2075H132.373ZM134.599 78.1002C133.481 78.1002 132.77 77.3122 132.77 76.1315C132.77 74.9483 133.481 74.1578 134.599 74.1578C135.718 74.1578 136.429 74.9483 136.429 76.1315C136.429 77.3122 135.718 78.1002 134.599 78.1002ZM134.604 77.3794C135.213 77.3794 135.517 76.8275 135.517 76.129C135.517 75.4305 135.213 74.8712 134.604 74.8712C133.985 74.8712 133.682 75.4305 133.682 76.129C133.682 76.8275 133.985 77.3794 134.604 77.3794ZM137.785 74.2075L138.555 75.6169L139.339 74.2075H140.291L139.14 76.1166L140.31 78.0257H139.363L138.555 76.651L137.755 78.0257H136.801L137.964 76.1166L136.83 74.2075H137.785ZM144.413 78.1002C143.262 78.1002 142.559 77.3371 142.559 76.1389C142.559 74.9607 143.272 74.1578 144.366 74.1578C145.306 74.1578 146.111 74.7469 146.111 76.0867V76.3627H143.451C143.459 77.0164 143.844 77.3992 144.426 77.3992C144.813 77.3992 145.112 77.2302 145.234 76.9071L146.074 77.0015C145.915 77.6652 145.303 78.1002 144.413 78.1002ZM143.454 75.7561H145.248C145.244 75.2366 144.896 74.8588 144.378 74.8588C143.842 74.8588 143.481 75.2689 143.454 75.7561ZM149.89 75.2167L149.07 75.3062C149 75.0551 148.781 74.8289 148.366 74.8289C147.991 74.8289 147.705 75.0079 147.708 75.2664C147.705 75.4877 147.859 75.6219 148.247 75.7089L148.898 75.8481C149.619 76.0047 149.97 76.3378 149.972 76.8822C149.97 77.6056 149.296 78.1002 148.341 78.1002C147.404 78.1002 146.815 77.6851 146.703 76.9841L147.581 76.8996C147.658 77.2426 147.926 77.4216 148.339 77.4216C148.767 77.4216 149.05 77.2252 149.05 76.9642C149.05 76.748 148.886 76.6063 148.535 76.5292L147.884 76.3925C147.151 76.2409 146.808 75.873 146.81 75.3161C146.808 74.6102 147.434 74.1578 148.354 74.1578C149.249 74.1578 149.766 74.5704 149.89 75.2167ZM152.621 74.2075V74.9035H151.868V76.8772C151.868 77.2402 152.049 77.3197 152.275 77.3197C152.387 77.3197 152.489 77.2973 152.539 77.2849L152.69 77.9884C152.593 78.0207 152.417 78.0704 152.161 78.0779C151.485 78.0978 150.963 77.7448 150.968 77.0264V74.9035H150.426V74.2075H150.968V73.2927H151.868V74.2075H152.621ZM154.472 78.1027C153.744 78.1027 153.194 77.705 153.194 76.9543C153.194 76.0942 153.903 75.873 154.644 75.7934C155.317 75.7213 155.588 75.7089 155.588 75.4504V75.4355C155.588 75.0601 155.359 74.8463 154.942 74.8463C154.502 74.8463 154.248 75.0701 154.159 75.3311L153.319 75.2117C153.517 74.5157 154.134 74.1578 154.937 74.1578C155.665 74.1578 156.488 74.461 156.488 75.4703V78.0257H155.623V77.5012H155.593C155.429 77.8218 155.071 78.1027 154.472 78.1027ZM154.706 77.4415C155.248 77.4415 155.591 77.0811 155.591 76.656V76.2061C155.474 76.3005 155.002 76.3602 154.765 76.3925C154.363 76.4497 154.062 76.5938 154.062 76.9394C154.062 77.27 154.33 77.4415 154.706 77.4415ZM154.631 73.7054L155.188 72.5693H156.068L155.305 73.7054H154.631ZM160.228 78.1027C159.5 78.1027 158.95 77.705 158.95 76.9543C158.95 76.0942 159.659 75.873 160.399 75.7934C161.073 75.7213 161.344 75.7089 161.344 75.4504V75.4355C161.344 75.0601 161.115 74.8463 160.698 74.8463C160.258 74.8463 160.004 75.0701 159.915 75.3311L159.074 75.2117C159.273 74.5157 159.89 74.1578 160.693 74.1578C161.421 74.1578 162.244 74.461 162.244 75.4703V78.0257H161.379V77.5012H161.349C161.185 77.8218 160.827 78.1027 160.228 78.1027ZM160.462 77.4415C161.003 77.4415 161.346 77.0811 161.346 76.656V76.2061C161.23 76.3005 160.757 76.3602 160.521 76.3925C160.119 76.4497 159.818 76.5938 159.818 76.9394C159.818 77.27 160.086 77.4415 160.462 77.4415ZM164.814 78.1002C163.673 78.1002 162.985 77.2874 162.985 76.1315C162.985 74.9657 163.691 74.1578 164.809 74.1578C165.741 74.1578 166.388 74.7022 166.45 75.5299H165.59C165.52 75.162 165.254 74.8836 164.822 74.8836C164.267 74.8836 163.897 75.346 163.897 76.1166C163.897 76.8971 164.26 77.3669 164.822 77.3669C165.217 77.3669 165.513 77.1308 165.59 76.7206H166.45C166.385 77.531 165.774 78.1002 164.814 78.1002ZM169.095 74.2075V74.9035H168.342V76.8772C168.342 77.2402 168.524 77.3197 168.75 77.3197C168.862 77.3197 168.964 77.2973 169.013 77.2849L169.165 77.9884C169.068 78.0207 168.892 78.0704 168.635 78.0779C167.959 78.0978 167.437 77.7448 167.442 77.0264V74.9035H166.9V74.2075H167.442V73.2927H168.342V74.2075H169.095ZM169.848 78.0257V74.2075H170.748V78.0257H169.848ZM170.3 73.6656C170.012 73.6656 169.778 73.4468 169.778 73.1784C169.778 72.9074 170.012 72.6887 170.3 72.6887C170.586 72.6887 170.82 72.9074 170.82 73.1784C170.82 73.4468 170.586 73.6656 170.3 73.6656ZM175.084 74.2075L173.724 78.0257H172.73L171.37 74.2075H172.329L173.207 77.0438H173.247L174.127 74.2075H175.084ZM176.696 78.1027C175.967 78.1027 175.418 77.705 175.418 76.9543C175.418 76.0942 176.126 75.873 176.867 75.7934C177.541 75.7213 177.812 75.7089 177.812 75.4504V75.4355C177.812 75.0601 177.583 74.8463 177.165 74.8463C176.725 74.8463 176.472 75.0701 176.382 75.3311L175.542 75.2117C175.741 74.5157 176.358 74.1578 177.161 74.1578C177.889 74.1578 178.712 74.461 178.712 75.4703V78.0257H177.847V77.5012H177.817C177.653 77.8218 177.295 78.1027 176.696 78.1027ZM176.929 77.4415C177.471 77.4415 177.814 77.0811 177.814 76.656V76.2061C177.697 76.3005 177.225 76.3602 176.989 76.3925C176.586 76.4497 176.286 76.5938 176.286 76.9394C176.286 77.27 176.554 77.4415 176.929 77.4415ZM181.033 78.0928C180.134 78.0928 179.46 77.3794 179.46 76.1215C179.46 74.8488 180.153 74.1578 181.036 74.1578C181.71 74.1578 181.99 74.563 182.127 74.8389H182.164V72.9348H183.067V78.0257H182.182V77.4241H182.127C181.985 77.7025 181.69 78.0928 181.033 78.0928ZM181.284 77.3545C181.859 77.3545 182.182 76.8573 182.182 76.1166C182.182 75.3758 181.864 74.896 181.284 74.896C180.685 74.896 180.377 75.4056 180.377 76.1166C180.377 76.8325 180.69 77.3545 181.284 77.3545ZM185.124 78.1027C184.396 78.1027 183.847 77.705 183.847 76.9543C183.847 76.0942 184.555 75.873 185.296 75.7934C185.97 75.7213 186.24 75.7089 186.24 75.4504V75.4355C186.24 75.0601 186.012 74.8463 185.594 74.8463C185.154 74.8463 184.901 75.0701 184.811 75.3311L183.971 75.2117C184.17 74.5157 184.786 74.1578 185.589 74.1578C186.318 74.1578 187.14 74.461 187.14 75.4703V78.0257H186.275V77.5012H186.245C186.081 77.8218 185.723 78.1027 185.124 78.1027ZM185.358 77.4415C185.9 77.4415 186.243 77.0811 186.243 76.656V76.2061C186.126 76.3005 185.654 76.3602 185.418 76.3925C185.015 76.4497 184.714 76.5938 184.714 76.9394C184.714 77.27 184.983 77.4415 185.358 77.4415Z" fill="white"/>
<path d="M119.526 92.1483C119.142 92.1483 118.814 92.0438 118.544 91.8347C118.274 91.624 118.067 91.3189 117.925 90.9194C117.782 90.5183 117.71 90.0339 117.71 89.4662C117.71 88.9019 117.782 88.4201 117.925 88.0206C118.069 87.6195 118.276 87.3136 118.547 87.1028C118.819 86.8903 119.145 86.7841 119.526 86.7841C119.906 86.7841 120.232 86.8903 120.502 87.1028C120.774 87.3136 120.981 87.6195 121.124 88.0206C121.269 88.4201 121.341 88.9019 121.341 89.4662C121.341 90.0339 121.27 90.5183 121.127 90.9194C120.984 91.3189 120.777 91.624 120.507 91.8347C120.237 92.0438 119.91 92.1483 119.526 92.1483ZM119.526 91.5874C119.906 91.5874 120.202 91.4039 120.413 91.0367C120.624 90.6696 120.729 90.1461 120.729 89.4662C120.729 89.0141 120.681 88.6291 120.584 88.3113C120.489 87.9934 120.351 87.7512 120.171 87.5847C119.992 87.4181 119.777 87.3348 119.526 87.3348C119.148 87.3348 118.853 87.5209 118.641 87.8931C118.428 88.2637 118.322 88.788 118.322 89.4662C118.322 89.9183 118.37 90.3025 118.465 90.6186C118.56 90.9347 118.697 91.1752 118.876 91.3401C119.056 91.505 119.272 91.5874 119.526 91.5874ZM124.013 92.1483C123.629 92.1483 123.301 92.0438 123.031 91.8347C122.761 91.624 122.554 91.3189 122.412 90.9194C122.269 90.5183 122.198 90.0339 122.198 89.4662C122.198 88.9019 122.269 88.4201 122.412 88.0206C122.556 87.6195 122.764 87.3136 123.034 87.1028C123.306 86.8903 123.632 86.7841 124.013 86.7841C124.394 86.7841 124.719 86.8903 124.989 87.1028C125.261 87.3136 125.469 87.6195 125.611 88.0206C125.756 88.4201 125.828 88.9019 125.828 89.4662C125.828 90.0339 125.757 90.5183 125.614 90.9194C125.471 91.3189 125.265 91.624 124.994 91.8347C124.724 92.0438 124.397 92.1483 124.013 92.1483ZM124.013 91.5874C124.394 91.5874 124.689 91.4039 124.9 91.0367C125.111 90.6696 125.216 90.1461 125.216 89.4662C125.216 89.0141 125.168 88.6291 125.071 88.3113C124.976 87.9934 124.838 87.7512 124.658 87.5847C124.479 87.4181 124.264 87.3348 124.013 87.3348C123.635 87.3348 123.341 87.5209 123.128 87.8931C122.916 88.2637 122.809 88.788 122.809 89.4662C122.809 89.9183 122.857 90.3025 122.952 90.6186C123.047 90.9347 123.184 91.1752 123.363 91.3401C123.543 91.505 123.76 91.5874 124.013 91.5874ZM127.246 91.409C127.12 91.409 127.012 91.3639 126.922 91.2738C126.832 91.1837 126.787 91.0758 126.787 90.95C126.787 90.8243 126.832 90.7163 126.922 90.6263C127.012 90.5362 127.12 90.4911 127.246 90.4911C127.371 90.4911 127.479 90.5362 127.569 90.6263C127.659 90.7163 127.705 90.8243 127.705 90.95C127.705 91.0333 127.683 91.1098 127.641 91.1795C127.6 91.2492 127.545 91.3053 127.475 91.3478C127.407 91.3886 127.331 91.409 127.246 91.409ZM127.246 88.7676C127.12 88.7676 127.012 88.7226 126.922 88.6325C126.832 88.5424 126.787 88.4345 126.787 88.3087C126.787 88.1829 126.832 88.075 126.922 87.9849C127.012 87.8948 127.12 87.8498 127.246 87.8498C127.371 87.8498 127.479 87.8948 127.569 87.9849C127.659 88.075 127.705 88.1829 127.705 88.3087C127.705 88.392 127.683 88.4685 127.641 88.5382C127.6 88.6079 127.545 88.664 127.475 88.7065C127.407 88.7472 127.331 88.7676 127.246 88.7676ZM130.477 92.1483C130.093 92.1483 129.766 92.0438 129.496 91.8347C129.225 91.624 129.019 91.3189 128.876 90.9194C128.733 90.5183 128.662 90.0339 128.662 89.4662C128.662 88.9019 128.733 88.4201 128.876 88.0206C129.021 87.6195 129.228 87.3136 129.498 87.1028C129.77 86.8903 130.096 86.7841 130.477 86.7841C130.858 86.7841 131.183 86.8903 131.454 87.1028C131.726 87.3136 131.933 87.6195 132.076 88.0206C132.22 88.4201 132.292 88.9019 132.292 89.4662C132.292 90.0339 132.221 90.5183 132.078 90.9194C131.935 91.3189 131.729 91.624 131.459 91.8347C131.188 92.0438 130.861 92.1483 130.477 92.1483ZM130.477 91.5874C130.858 91.5874 131.154 91.4039 131.364 91.0367C131.575 90.6696 131.681 90.1461 131.681 89.4662C131.681 89.0141 131.632 88.6291 131.535 88.3113C131.44 87.9934 131.302 87.7512 131.122 87.5847C130.944 87.4181 130.729 87.3348 130.477 87.3348C130.1 87.3348 129.805 87.5209 129.592 87.8931C129.38 88.2637 129.274 88.788 129.274 89.4662C129.274 89.9183 129.321 90.3025 129.417 90.6186C129.512 90.9347 129.649 91.1752 129.827 91.3401C130.007 91.505 130.224 91.5874 130.477 91.5874ZM133.139 91.0061V90.486L135.433 86.8555H135.811V87.6611H135.556L133.822 90.4044V90.4452H136.912V91.0061H133.139ZM135.597 92.0769V90.8481V90.6059V86.8555H136.198V92.0769H135.597ZM138.316 91.409C138.191 91.409 138.083 91.3639 137.993 91.2738C137.902 91.1837 137.857 91.0758 137.857 90.95C137.857 90.8243 137.902 90.7163 137.993 90.6263C138.083 90.5362 138.191 90.4911 138.316 90.4911C138.442 90.4911 138.55 90.5362 138.64 90.6263C138.73 90.7163 138.775 90.8243 138.775 90.95C138.775 91.0333 138.754 91.1098 138.712 91.1795C138.671 91.2492 138.615 91.3053 138.546 91.3478C138.478 91.3886 138.401 91.409 138.316 91.409ZM138.316 88.7676C138.191 88.7676 138.083 88.7226 137.993 88.6325C137.902 88.5424 137.857 88.4345 137.857 88.3087C137.857 88.1829 137.902 88.075 137.993 87.9849C138.083 87.8948 138.191 87.8498 138.316 87.8498C138.442 87.8498 138.55 87.8948 138.64 87.9849C138.73 88.075 138.775 88.1829 138.775 88.3087C138.775 88.392 138.754 88.4685 138.712 88.5382C138.671 88.6079 138.615 88.664 138.546 88.7065C138.478 88.7472 138.401 88.7676 138.316 88.7676ZM141.609 92.1483C141.273 92.1483 140.973 92.0905 140.709 91.975C140.447 91.8594 140.239 91.6988 140.084 91.4931C139.931 91.2857 139.848 91.0452 139.835 90.7716H140.477C140.491 90.9398 140.548 91.0852 140.65 91.2075C140.752 91.3282 140.886 91.4217 141.051 91.488C141.216 91.5543 141.398 91.5874 141.599 91.5874C141.823 91.5874 142.022 91.5483 142.195 91.4701C142.369 91.392 142.505 91.2832 142.603 91.1438C142.702 91.0044 142.751 90.843 142.751 90.6594C142.751 90.4673 142.704 90.2982 142.608 90.152C142.513 90.0042 142.374 89.8886 142.19 89.8053C142.007 89.722 141.782 89.6804 141.517 89.6804H141.099V89.1195H141.517C141.725 89.1195 141.907 89.0821 142.063 89.0073C142.221 88.9325 142.344 88.8271 142.433 88.6912C142.523 88.5552 142.568 88.3954 142.568 88.2118C142.568 88.0351 142.529 87.8813 142.45 87.7504C142.372 87.6195 142.262 87.5175 142.119 87.4444C141.978 87.3713 141.811 87.3348 141.619 87.3348C141.439 87.3348 141.269 87.3679 141.109 87.4342C140.951 87.4988 140.822 87.5932 140.722 87.7172C140.622 87.8396 140.567 87.9875 140.559 88.1609H139.947C139.957 87.8872 140.039 87.6475 140.194 87.4419C140.349 87.2345 140.551 87.073 140.801 86.9575C141.052 86.8419 141.329 86.7841 141.629 86.7841C141.952 86.7841 142.229 86.8495 142.461 86.9804C142.692 87.1096 142.869 87.2804 142.993 87.4929C143.118 87.7053 143.18 87.9348 143.18 88.1812C143.18 88.4753 143.102 88.726 142.948 88.9334C142.795 89.1407 142.586 89.2843 142.323 89.3642V89.405C142.653 89.4594 142.91 89.5996 143.095 89.8257C143.281 90.0501 143.373 90.328 143.373 90.6594C143.373 90.9432 143.296 91.1982 143.141 91.4243C142.988 91.6486 142.779 91.8254 142.514 91.9546C142.249 92.0837 141.947 92.1483 141.609 92.1483ZM144.579 92.0769L146.915 87.4572V87.4164H144.222V86.8555H147.567V87.447L145.242 92.0769H144.579Z" fill="white" fill-opacity="0.8"/>
<rect x="207.026" y="70.8975" width="23.0769" height="12.3077" rx="6.15385" fill="#3FE1B0"/>
<path fill-rule="evenodd" clip-rule="evenodd" d="M223.949 81.6667C226.498 81.6667 228.564 79.6003 228.564 77.0513C228.564 74.5023 226.498 72.4359 223.949 72.4359C221.4 72.4359 219.333 74.5023 219.333 77.0513C219.333 79.6003 221.4 81.6667 223.949 81.6667Z" fill="white"/>
</g>
<rect opacity="0.15" x="79.6899" y="62.0234" width="30.0557" height="30.0557" rx="15.0279" stroke="white" stroke-width="2.05128"/>
<rect opacity="0.1" x="70.6154" y="52.9487" width="48.2051" height="48.2051" rx="24.1026" stroke="white" stroke-width="1.02564"/>
<mask id="path-18-inside-1_175_4422" fill="white">
<path d="M74.2051 106.282H238.308V122.692C238.308 124.958 236.471 126.795 234.205 126.795H78.3077C76.0419 126.795 74.2051 124.958 74.2051 122.692V106.282Z"/>
</mask>
<path d="M74.2051 106.282H238.308V122.692C238.308 124.958 236.471 126.795 234.205 126.795H78.3077C76.0419 126.795 74.2051 124.958 74.2051 122.692V106.282Z" fill="#321C64"/>
<path d="M74.2051 105.769H238.308V106.795H74.2051V105.769ZM238.308 126.795H74.2051H238.308ZM74.2051 126.795V106.282V126.795ZM238.308 106.282V126.795V106.282Z" fill="white" fill-opacity="0.2" mask="url(#path-18-inside-1_175_4422)"/>
<g clip-path="url(#clip1_175_4422)">
<path d="M85.3732 113.576C84.8697 113.576 84.4615 113.984 84.4615 114.487V118.59C84.4615 119.093 84.8697 119.501 85.3732 119.501H86.7407V113.576H85.3732ZM91.755 113.576H90.3874V119.501H91.755C92.2584 119.501 92.6666 119.093 92.6666 118.59V114.487C92.6666 113.984 92.2584 113.576 91.755 113.576Z" fill="#D52B1E"/>
<path d="M86.7407 113.576H90.3874V119.501H86.7407V113.576Z" fill="#EEEEEE"/>
<path d="M88.7043 117.476C88.9773 117.508 89.2221 117.536 89.4949 117.567L89.4254 117.339C89.4142 117.299 89.4302 117.255 89.4616 117.23L90.2546 116.584L90.0905 116.507C90.0182 116.481 90.0381 116.441 90.0643 116.343L90.1853 115.901L89.7247 115.999C89.6798 116.006 89.6499 115.977 89.6431 115.95L89.5836 115.742L89.2194 116.151C89.1676 116.217 89.0628 116.217 89.0954 116.065L89.251 115.237L89.042 115.345C88.9835 115.378 88.9249 115.384 88.8923 115.325L88.604 114.786V114.799V114.786L88.3157 115.325C88.2828 115.384 88.2243 115.378 88.1657 115.345L87.9569 115.237L88.1126 116.065C88.1454 116.217 88.0403 116.217 87.9886 116.151L87.6244 115.742L87.5651 115.95C87.5583 115.977 87.5282 116.006 87.4833 115.999L87.0227 115.902L87.1437 116.343C87.1695 116.441 87.1895 116.482 87.1173 116.507L86.9532 116.585L87.7461 117.231C87.7775 117.255 87.7935 117.299 87.7821 117.339L87.7126 117.568L88.5035 117.476C88.5276 117.476 88.5436 117.49 88.5434 117.517L88.4946 118.362H88.7125L88.6639 117.517C88.6644 117.489 88.6801 117.476 88.7043 117.476Z" fill="#D52B1E"/>
</g>
<path d="M97.116 114.378V113.817H101.032V114.378H99.3901V119.038H98.7579V114.378H97.116ZM102.949 119.12C102.596 119.12 102.286 119.036 102.019 118.868C101.754 118.699 101.546 118.464 101.397 118.161C101.249 117.859 101.175 117.505 101.175 117.101C101.175 116.693 101.249 116.337 101.397 116.033C101.546 115.728 101.754 115.492 102.019 115.324C102.286 115.156 102.596 115.071 102.949 115.071C103.303 115.071 103.612 115.156 103.877 115.324C104.144 115.492 104.352 115.728 104.499 116.033C104.649 116.337 104.724 116.693 104.724 117.101C104.724 117.505 104.649 117.859 104.499 118.161C104.352 118.464 104.144 118.699 103.877 118.868C103.612 119.036 103.303 119.12 102.949 119.12ZM102.949 118.58C103.218 118.58 103.439 118.511 103.612 118.373C103.786 118.235 103.914 118.054 103.997 117.83C104.08 117.606 104.122 117.363 104.122 117.101C104.122 116.839 104.08 116.595 103.997 116.369C103.914 116.143 103.786 115.96 103.612 115.821C103.439 115.682 103.218 115.612 102.949 115.612C102.681 115.612 102.46 115.682 102.286 115.821C102.113 115.96 101.985 116.143 101.901 116.369C101.818 116.595 101.777 116.839 101.777 117.101C101.777 117.363 101.818 117.606 101.901 117.83C101.985 118.054 102.113 118.235 102.286 118.373C102.46 118.511 102.681 118.58 102.949 118.58ZM105.642 119.038V115.122H106.224V115.714H106.264C106.336 115.52 106.465 115.363 106.652 115.242C106.839 115.122 107.05 115.061 107.284 115.061C107.328 115.061 107.384 115.062 107.45 115.064C107.516 115.065 107.566 115.068 107.6 115.071V115.683C107.58 115.678 107.533 115.671 107.46 115.66C107.389 115.648 107.313 115.642 107.233 115.642C107.043 115.642 106.873 115.682 106.723 115.762C106.575 115.84 106.458 115.949 106.371 116.089C106.286 116.226 106.244 116.384 106.244 116.56V119.038H105.642ZM109.785 119.12C109.432 119.12 109.122 119.036 108.855 118.868C108.59 118.699 108.382 118.464 108.233 118.161C108.085 117.859 108.011 117.505 108.011 117.101C108.011 116.693 108.085 116.337 108.233 116.033C108.382 115.728 108.59 115.492 108.855 115.324C109.122 115.156 109.432 115.071 109.785 115.071C110.139 115.071 110.448 115.156 110.713 115.324C110.98 115.492 111.187 115.728 111.335 116.033C111.485 116.337 111.56 116.693 111.56 117.101C111.56 117.505 111.485 117.859 111.335 118.161C111.187 118.464 110.98 118.699 110.713 118.868C110.448 119.036 110.139 119.12 109.785 119.12ZM109.785 118.58C110.054 118.58 110.275 118.511 110.448 118.373C110.621 118.235 110.75 118.054 110.833 117.83C110.916 117.606 110.958 117.363 110.958 117.101C110.958 116.839 110.916 116.595 110.833 116.369C110.75 116.143 110.621 115.96 110.448 115.821C110.275 115.682 110.054 115.612 109.785 115.612C109.517 115.612 109.296 115.682 109.122 115.821C108.949 115.96 108.821 116.143 108.737 116.369C108.654 116.595 108.612 116.839 108.612 117.101C108.612 117.363 108.654 117.606 108.737 117.83C108.821 118.054 108.949 118.235 109.122 118.373C109.296 118.511 109.517 118.58 109.785 118.58ZM113.08 116.683V119.038H112.478V115.122H113.059V115.734H113.11C113.202 115.535 113.342 115.376 113.529 115.255C113.716 115.133 113.957 115.071 114.253 115.071C114.518 115.071 114.75 115.126 114.949 115.235C115.148 115.342 115.302 115.505 115.413 115.724C115.523 115.942 115.578 116.217 115.578 116.55V119.038H114.977V116.591C114.977 116.283 114.897 116.044 114.737 115.872C114.577 115.699 114.358 115.612 114.079 115.612C113.887 115.612 113.716 115.654 113.564 115.737C113.415 115.82 113.297 115.942 113.21 116.101C113.123 116.261 113.08 116.455 113.08 116.683ZM118.381 115.122V115.632H116.352V115.122H118.381ZM116.943 114.184H117.545V117.917C117.545 118.087 117.569 118.214 117.619 118.299C117.67 118.382 117.734 118.438 117.812 118.467C117.892 118.495 117.976 118.508 118.065 118.508C118.131 118.508 118.186 118.505 118.228 118.498C118.271 118.489 118.304 118.483 118.33 118.478L118.452 119.018C118.412 119.033 118.355 119.049 118.282 119.064C118.208 119.081 118.116 119.089 118.004 119.089C117.834 119.089 117.667 119.053 117.504 118.98C117.342 118.907 117.208 118.795 117.101 118.646C116.996 118.496 116.943 118.308 116.943 118.08V114.184ZM120.835 119.12C120.481 119.12 120.171 119.036 119.904 118.868C119.639 118.699 119.432 118.464 119.282 118.161C119.134 117.859 119.06 117.505 119.06 117.101C119.06 116.693 119.134 116.337 119.282 116.033C119.432 115.728 119.639 115.492 119.904 115.324C120.171 115.156 120.481 115.071 120.835 115.071C121.188 115.071 121.498 115.156 121.763 115.324C122.03 115.492 122.237 115.728 122.385 116.033C122.535 116.337 122.609 116.693 122.609 117.101C122.609 117.505 122.535 117.859 122.385 118.161C122.237 118.464 122.03 118.699 121.763 118.868C121.498 119.036 121.188 119.12 120.835 119.12ZM120.835 118.58C121.103 118.58 121.324 118.511 121.498 118.373C121.671 118.235 121.799 118.054 121.883 117.83C121.966 117.606 122.008 117.363 122.008 117.101C122.008 116.839 121.966 116.595 121.883 116.369C121.799 116.143 121.671 115.96 121.498 115.821C121.324 115.682 121.103 115.612 120.835 115.612C120.566 115.612 120.345 115.682 120.172 115.821C119.999 115.96 119.87 116.143 119.787 116.369C119.704 116.595 119.662 116.839 119.662 117.101C119.662 117.363 119.704 117.606 119.787 117.83C119.87 118.054 119.999 118.235 120.172 118.373C120.345 118.511 120.566 118.58 120.835 118.58Z" fill="white" fill-opacity="0.8"/>
</g>
<defs>
<filter id="filter0_i_175_4422" x="66" y="15" width="155.897" height="24.6154" filterUnits="userSpaceOnUse" color-interpolation-filters="sRGB">
<feFlood flood-opacity="0" result="BackgroundImageFix"/>
<feBlend mode="normal" in="SourceGraphic" in2="BackgroundImageFix" result="shape"/>
<feColorMatrix in="SourceAlpha" type="matrix" values="0 0 0 0 0 0 0 0 0 0 0 0 0 0 0 0 0 0 127 0" result="hardAlpha"/>
<feOffset dy="-0.51282"/>
<feComposite in2="hardAlpha" operator="arithmetic" k2="-1" k3="1"/>
<feColorMatrix type="matrix" values="0 0 0 0 0.905882 0 0 0 0 0.905882 0 0 0 0 0.905882 0 0 0 1 0"/>
<feBlend mode="normal" in2="shape" result="effect1_innerShadow_175_4422"/>
</filter>
<filter id="filter1_i_175_4422" x="221.897" y="15" width="24.6154" height="24.6154" filterUnits="userSpaceOnUse" color-interpolation-filters="sRGB">
<feFlood flood-opacity="0" result="BackgroundImageFix"/>
<feBlend mode="normal" in="SourceGraphic" in2="BackgroundImageFix" result="shape"/>
<feColorMatrix in="SourceAlpha" type="matrix" values="0 0 0 0 0 0 0 0 0 0 0 0 0 0 0 0 0 0 127 0" result="hardAlpha"/>
<feOffset dy="-0.51282"/>
<feComposite in2="hardAlpha" operator="arithmetic" k2="-1" k3="1"/>
<feColorMatrix type="matrix" values="0 0 0 0 0.905882 0 0 0 0 0.905882 0 0 0 0 0.905882 0 0 0 1 0"/>
<feBlend mode="normal" in2="shape" result="effect1_innerShadow_175_4422"/>
</filter>
<filter id="filter2_d_175_4422" x="72.1539" y="46.2821" width="168.205" height="83.0769" filterUnits="userSpaceOnUse" color-interpolation-filters="sRGB">
<feFlood flood-opacity="0" result="BackgroundImageFix"/>
<feColorMatrix in="SourceAlpha" type="matrix" values="0 0 0 0 0 0 0 0 0 0 0 0 0 0 0 0 0 0 127 0" result="hardAlpha"/>
<feOffset dy="0.51282"/>
<feGaussianBlur stdDeviation="1.02564"/>
<feColorMatrix type="matrix" values="0 0 0 0 0.0470588 0 0 0 0 0.0470588 0 0 0 0 0.0509804 0 0 0 0.3 0"/>
<feBlend mode="normal" in2="BackgroundImageFix" result="effect1_dropShadow_175_4422"/>
<feBlend mode="normal" in="SourceGraphic" in2="effect1_dropShadow_175_4422" result="shape"/>
</filter>
<filter id="filter3_d_175_4422" x="72.1539" y="46.2821" width="168.205" height="62.5641" filterUnits="userSpaceOnUse" color-interpolation-filters="sRGB">
<feFlood flood-opacity="0" result="BackgroundImageFix"/>
<feColorMatrix in="SourceAlpha" type="matrix" values="0 0 0 0 0 0 0 0 0 0 0 0 0 0 0 0 0 0 127 0" result="hardAlpha"/>
<feOffset dy="0.51282"/>
<feGaussianBlur stdDeviation="1.02564"/>
<feColorMatrix type="matrix" values="0 0 0 0 0.0470588 0 0 0 0 0.0470588 0 0 0 0 0.0509804 0 0 0 0.1 0"/>
<feBlend mode="normal" in2="BackgroundImageFix" result="effect1_dropShadow_175_4422"/>
<feBlend mode="normal" in="SourceGraphic" in2="effect1_dropShadow_175_4422" result="shape"/>
</filter>
<radialGradient id="paint0_radial_175_4422" cx="0" cy="0" r="1" gradientUnits="userSpaceOnUse" gradientTransform="translate(106.411 65.359) rotate(-44.9997) scale(33.0711)">
<stop stop-color="#B833E1"/>
<stop offset="0.371" stop-color="#9059FF"/>
<stop offset="0.614" stop-color="#5B6DF8"/>
<stop offset="1" stop-color="#0090ED"/>
</radialGradient>
<clipPath id="clip0_175_4422">
<rect x="66" y="15" width="180.513" height="120" rx="4.10256" fill="white"/>
</clipPath>
<clipPath id="clip1_175_4422">
<rect width="8.20513" height="8.20513" fill="white" transform="translate(84.4615 112.436)"/>
</clipPath>
</defs>
</svg>
