<svg width="312" height="150" viewBox="0 0 312 150" fill="none" xmlns="http://www.w3.org/2000/svg">
<rect width="312" height="150" fill="#0090ED"/>
<g clip-path="url(#clip0_175_4335)">
<rect x="66" y="15" width="180.513" height="120" rx="4.10256" fill="#F9F9FA"/>
<g filter="url(#filter0_i_175_4335)">
<path d="M66 15H217.795C220.061 15 221.897 16.8368 221.897 19.1026V39.6154H66V15Z" fill="#F9F9FA"/>
<path d="M132.975 29.8077V24.1708H134L135.855 27.6087L137.717 24.1708H138.735V29.8077H137.717V26.0415L135.855 29.4795L134 26.0415V29.8077H132.975ZM142.002 29.9062C140.772 29.9062 139.73 28.8887 139.73 27.6826C139.73 26.4764 140.772 25.4672 142.002 25.4672C143.233 25.4672 144.275 26.4764 144.275 27.6826C144.275 28.8887 143.233 29.9062 142.002 29.9062ZM142.002 29.0528C142.7 29.0528 143.291 28.4292 143.291 27.6826C143.291 26.9441 142.7 26.3205 142.002 26.3205C141.297 26.3205 140.706 26.9441 140.706 27.6826C140.706 28.4292 141.297 29.0528 142.002 29.0528ZM144.971 29.8077V29.0774L147.219 26.4436H145.02V25.5656H148.54L148.532 26.2959L146.276 28.9297H148.557V29.8077H144.971ZM149.971 24.9256C149.651 24.9256 149.397 24.6549 149.397 24.3513C149.397 24.0477 149.651 23.7851 149.971 23.7851C150.283 23.7851 150.537 24.0477 150.537 24.3513C150.537 24.6549 150.283 24.9256 149.971 24.9256ZM149.462 29.8077V25.5656H150.463V29.8077H149.462ZM151.57 29.8077V24.0723H152.571V29.8077H151.57ZM153.677 29.8077V24.0723H154.678V29.8077H153.677ZM157.631 25.4672C158.755 25.4672 159.452 26.181 159.452 27.2559V29.8077H158.476V29.299C158.164 29.6928 157.631 29.9062 157.138 29.9062C156.236 29.9062 155.555 29.3728 155.555 28.5523C155.555 27.7154 156.334 27.141 157.286 27.141C157.672 27.141 158.09 27.2231 158.476 27.3708V27.2559C158.476 26.7636 158.205 26.2877 157.434 26.2877C157.032 26.2877 156.646 26.4272 156.285 26.6077L155.94 25.9103C156.539 25.6149 157.097 25.4672 157.631 25.4672ZM157.36 29.1759C157.844 29.1759 158.361 28.9297 158.476 28.4785V28.0026C158.164 27.8959 157.811 27.8385 157.434 27.8385C156.933 27.8385 156.531 28.1174 156.531 28.5195C156.531 28.9215 156.884 29.1759 157.36 29.1759ZM167.184 24.1708H168.324L165.97 29.8077H164.829L162.474 24.1708H163.606L165.395 28.4456L167.184 24.1708ZM169.071 29.8077V24.1708H171.524C172.73 24.1708 173.633 24.9421 173.633 26.0415C173.633 27.141 172.73 27.9123 171.524 27.9123H170.096V29.8077H169.071ZM170.096 26.9687H171.409C172.106 26.9687 172.591 26.6159 172.591 26.0415C172.591 25.4672 172.106 25.1144 171.409 25.1144H170.096V26.9687ZM174.513 29.8077V24.1708H175.539L178.517 28.1338V24.1708H179.535V29.8077H178.517L175.539 25.8446V29.8077H174.513Z" fill="#0C0C0D"/>
</g>
<g filter="url(#filter1_i_175_4335)">
<path d="M221.897 19.1026C221.897 16.8368 223.734 15 226 15H246.513V39.6154H221.897V19.1026Z" fill="#F9F9FA"/>
<path d="M230.103 23.2051C230.386 23.2051 230.615 23.4347 230.615 23.7178V24.795C230.937 24.8612 231.242 24.9889 231.515 25.1709L232.279 24.4063C232.481 24.2123 232.8 24.2154 232.998 24.4131C233.196 24.611 233.198 24.9307 233.004 25.1319L232.24 25.8956C232.422 26.1683 232.549 26.4739 232.615 26.795H233.693C233.976 26.795 234.205 27.0245 234.205 27.3077C234.205 27.5909 233.976 27.8203 233.693 27.8204H232.615C232.549 28.1416 232.421 28.447 232.239 28.7198L233.004 29.4844C233.198 29.6857 233.195 30.0055 232.997 30.2032C232.799 30.4008 232.48 30.4033 232.278 30.209L231.515 29.4454C231.242 29.6271 230.936 29.7542 230.615 29.8204V30.8975C230.615 31.1807 230.386 31.4102 230.103 31.4102C229.819 31.4102 229.59 31.1807 229.59 30.8975V29.8204C229.267 29.754 228.96 29.6258 228.686 29.4424C228.68 29.4495 228.677 29.4582 228.67 29.4649L227.926 30.209C227.797 30.342 227.607 30.3954 227.428 30.3487C227.249 30.3018 227.109 30.1617 227.062 29.9825C227.015 29.8032 227.068 29.6122 227.201 29.4834L227.944 28.7403C227.951 28.7336 227.961 28.7313 227.968 28.7247C227.785 28.4506 227.656 28.1433 227.59 27.8204H226.513C226.23 27.8203 226 27.5908 226 27.3077C226 27.0245 226.23 26.795 226.513 26.795H227.59C227.656 26.4739 227.784 26.1682 227.966 25.8956L227.201 25.1319C227.001 24.9316 227.001 24.6066 227.201 24.4063C227.402 24.2059 227.726 24.2061 227.927 24.4063L228.691 25.17C228.963 24.9882 229.269 24.8611 229.59 24.795V23.7178C229.59 23.4347 229.819 23.2051 230.103 23.2051ZM230.103 25.7696C229.253 25.7696 228.565 26.458 228.565 27.3077C228.565 28.1573 229.253 28.8457 230.103 28.8457C230.952 28.8457 231.641 28.1573 231.641 27.3077C231.641 26.458 230.952 25.7696 230.103 25.7696Z" fill="#3D3D3D"/>
</g>
<g filter="url(#filter2_d_175_4335)">
<rect x="74.2051" y="47.8205" width="164.103" height="78.9744" rx="4.10256" fill="#F9F9FA"/>
</g>
<g filter="url(#filter3_d_175_4335)">
<path d="M74.2051 51.9231C74.2051 49.6573 76.0419 47.8205 78.3077 47.8205H234.205C236.471 47.8205 238.308 49.6573 238.308 51.9231V106.282H74.2051V51.9231Z" fill="#321C64"/>
<rect x="95.6411" y="66.2821" width="9.84615" height="9.84615" rx="4.92308" fill="#3FE1B0"/>
<path d="M94.7182 65.359C95.5833 65.36 96.4379 65.4595 97.269 65.6461C96.2161 66.2715 95.3568 67.1877 94.8002 68.2838C94.7729 68.2827 94.7456 68.2818 94.7182 68.2818C93.1471 68.2818 91.7409 70.0358 90.9662 72.6051H94.2563C94.3798 73.1641 94.5754 73.6957 94.8334 74.19H90.5873C90.2478 76.0824 90.2477 78.0203 90.5873 79.9127H98.8481C98.991 79.1145 99.0728 78.3069 99.0951 77.4967C99.5635 77.6056 100.051 77.6647 100.552 77.6656C100.527 78.4182 100.456 79.1688 100.336 79.9127H102.997C103.319 78.993 103.486 78.0258 103.488 77.0514C103.488 77.0234 103.485 76.9953 103.485 76.9674C104.581 76.4108 105.496 75.5523 106.122 74.4996C106.308 75.331 106.41 76.1858 106.411 77.0514C106.411 79.3639 105.725 81.6247 104.44 83.5475C103.155 85.47 101.329 86.9682 99.1928 87.8531C97.0563 88.7381 94.705 88.9703 92.4369 88.5191C90.1689 88.068 88.0858 86.9541 86.4506 85.3189C84.8155 83.6838 83.7016 81.6006 83.2504 79.3326C82.7993 77.0646 83.0305 74.7132 83.9154 72.5768C84.8004 70.4403 86.2994 68.6144 88.2221 67.3297C90.0248 66.1251 92.1246 65.4468 94.2856 65.3668L94.7182 65.359ZM90.9662 81.4977C91.7409 84.0669 93.1471 85.8209 94.7182 85.8209C96.2892 85.8208 97.695 84.0668 98.4711 81.4977H90.9662ZM87.1723 81.4977C88.0663 83.0081 89.3914 84.2175 90.977 84.9703C90.272 83.9083 89.7525 82.7337 89.4408 81.4977H87.1723ZM100 81.4977C99.6891 82.7324 99.17 83.9052 98.4662 84.9664C100.05 84.2141 101.374 83.0065 102.268 81.4977H100ZM86.4389 74.19C86.1169 75.1098 85.9507 76.0769 85.9487 77.0514C85.9507 78.0259 86.1169 78.9929 86.4389 79.9127H89.1C88.796 78.0172 88.796 76.0855 89.1 74.19H86.4389ZM90.977 69.1324C89.3914 69.8852 88.0663 71.0946 87.1723 72.6051H89.4408C89.7525 71.369 90.272 70.1945 90.977 69.1324Z" fill="url(#paint0_radial_175_4335)"/>
<path d="M101.94 69.2876C102.212 69.335 102.411 69.5717 102.41 69.8482C102.41 70.1629 102.411 70.7306 102.386 70.9888C102.373 71.5748 102.18 72.1427 101.832 72.6148C101.533 73.0146 101.09 73.2827 100.597 73.3618L100.564 73.3657L100.53 73.3618C100.037 73.2827 99.594 73.0146 99.2951 72.6148C98.9477 72.1426 98.7543 71.5748 98.7414 70.9888C98.718 70.7306 98.718 70.1635 98.718 69.8482C98.7173 69.5719 98.9156 69.3353 99.1877 69.2876L100.564 69.0513L101.94 69.2876ZM99.3332 69.8862C99.3332 70.386 99.3182 70.7356 99.3332 70.9019C99.3413 71.388 99.5018 71.8598 99.7912 72.2505C99.9803 72.5034 100.255 72.6795 100.564 72.7446C100.873 72.6795 101.148 72.5036 101.337 72.2505C101.627 71.8599 101.787 71.3881 101.795 70.9019C101.81 70.7356 101.795 70.386 101.795 69.8862L100.564 69.6763L99.3332 69.8862ZM100.564 72.2681H100.562C100.402 72.2144 100.262 72.1123 100.161 71.9771C99.9292 71.6632 99.8069 71.2814 99.8137 70.8911C99.8039 70.7849 99.7979 70.5656 99.7951 70.2759L100.564 70.1441V72.2681Z" fill="white"/>
<path d="M117.871 67.0257V61.0583H118.952V66.1195H121.58V67.0257H117.871ZM123.759 67.116C122.906 67.116 122.262 66.6498 122.262 65.7698C122.262 64.7617 123.092 64.5023 123.96 64.4091C124.75 64.3246 125.068 64.31 125.068 64.007V63.9895C125.068 63.5495 124.8 63.299 124.31 63.299C123.794 63.299 123.497 63.5612 123.392 63.8671L122.407 63.7273C122.64 62.9114 123.363 62.4919 124.304 62.4919C125.158 62.4919 126.122 62.8473 126.122 64.0303V67.0257H125.108V66.4108H125.073C124.881 66.7867 124.462 67.116 123.759 67.116ZM124.033 66.3409C124.668 66.3409 125.071 65.9184 125.071 65.4202V64.8928C124.934 65.0035 124.38 65.0734 124.103 65.1113C123.631 65.1783 123.279 65.3473 123.279 65.7523C123.279 66.1399 123.593 66.3409 124.033 66.3409ZM129.218 68.704V62.5501H130.256V63.2902H130.317C130.477 62.9668 130.806 62.4919 131.596 62.4919C132.63 62.4919 133.443 63.3019 133.443 64.7937C133.443 66.2681 132.654 67.1043 131.599 67.1043C130.83 67.1043 130.483 66.6469 130.317 66.3205H130.273V68.704H129.218ZM130.253 64.7879C130.253 65.6562 130.631 66.2389 131.304 66.2389C132.001 66.2389 132.368 65.627 132.368 64.7879C132.368 63.9546 132.007 63.3572 131.304 63.3572C130.626 63.3572 130.253 63.9196 130.253 64.7879ZM134.346 67.0257V62.5501H135.369V63.296H135.416C135.579 62.7774 136.007 62.486 136.52 62.486C136.637 62.486 136.803 62.4977 136.899 62.5152V63.4854C136.809 63.4563 136.587 63.4243 136.409 63.4243C135.83 63.4243 135.401 63.8263 135.401 64.3945V67.0257H134.346ZM139.368 67.1131C138.056 67.1131 137.223 66.1894 137.223 64.8054C137.223 63.4184 138.056 62.4919 139.368 62.4919C140.679 62.4919 141.512 63.4184 141.512 64.8054C141.512 66.1894 140.679 67.1131 139.368 67.1131ZM139.373 66.2681C140.087 66.2681 140.443 65.6212 140.443 64.8025C140.443 63.9837 140.087 63.3281 139.373 63.3281C138.648 63.3281 138.292 63.9837 138.292 64.8025C138.292 65.6212 138.648 66.2681 139.373 66.2681ZM144.642 62.5501V63.366H143.759V65.6795C143.759 66.1049 143.972 66.1981 144.237 66.1981C144.368 66.1981 144.488 66.1719 144.546 66.1574L144.724 66.9819C144.61 67.0198 144.403 67.0781 144.103 67.0868C143.311 67.1101 142.699 66.6964 142.705 65.8543V63.366H142.069V62.5501H142.705V61.4779H143.759V62.5501H144.642ZM147.458 67.1131C146.109 67.1131 145.284 66.2185 145.284 64.8141C145.284 63.433 146.12 62.4919 147.402 62.4919C148.504 62.4919 149.448 63.1824 149.448 64.7529V65.0763H146.33C146.339 65.8427 146.79 66.2914 147.472 66.2914C147.927 66.2914 148.276 66.0932 148.419 65.7145L149.404 65.8252C149.218 66.6032 148.501 67.1131 147.458 67.1131ZM146.333 64.3654H148.437C148.431 63.7564 148.023 63.3135 147.417 63.3135C146.787 63.3135 146.365 63.7943 146.333 64.3654ZM152.292 67.1131C150.955 67.1131 150.148 66.1603 150.148 64.8054C150.148 63.4388 150.975 62.4919 152.286 62.4919C153.379 62.4919 154.137 63.13 154.209 64.1002H153.201C153.12 63.669 152.808 63.3427 152.301 63.3427C151.651 63.3427 151.217 63.8846 151.217 64.7879C151.217 65.7028 151.642 66.2535 152.301 66.2535C152.764 66.2535 153.111 65.9767 153.201 65.4959H154.209C154.134 66.4458 153.417 67.1131 152.292 67.1131ZM157.31 62.5501V63.366H156.428V65.6795C156.428 66.1049 156.64 66.1981 156.905 66.1981C157.037 66.1981 157.156 66.1719 157.214 66.1574L157.392 66.9819C157.278 67.0198 157.072 67.0781 156.771 67.0868C155.979 67.1101 155.367 66.6964 155.373 65.8543V63.366H154.738V62.5501H155.373V61.4779H156.428V62.5501H157.31ZM158.193 67.0257V62.5501H159.247V67.0257H158.193ZM158.723 61.9149C158.385 61.9149 158.111 61.6585 158.111 61.3438C158.111 61.0262 158.385 60.7698 158.723 60.7698C159.058 60.7698 159.332 61.0262 159.332 61.3438C159.332 61.6585 159.058 61.9149 158.723 61.9149ZM162.284 67.1131C160.973 67.1131 160.14 66.1894 160.14 64.8054C160.14 63.4184 160.973 62.4919 162.284 62.4919C163.595 62.4919 164.429 63.4184 164.429 64.8054C164.429 66.1894 163.595 67.1131 162.284 67.1131ZM162.29 66.2681C163.004 66.2681 163.359 65.6212 163.359 64.8025C163.359 63.9837 163.004 63.3281 162.29 63.3281C161.565 63.3281 161.209 63.9837 161.209 64.8025C161.209 65.6212 161.565 66.2681 162.29 66.2681ZM166.379 64.4033V67.0257H165.324V62.5501H166.332V63.3106H166.385C166.589 62.8124 167.049 62.4919 167.719 62.4919C168.643 62.4919 169.255 63.1037 169.252 64.176V67.0257H168.197V64.3392C168.197 63.7419 167.871 63.3835 167.326 63.3835C166.769 63.3835 166.379 63.7564 166.379 64.4033ZM173.204 61.0583L174.757 65.7553H174.818L176.369 61.0583H177.557L175.454 67.0257H174.119L172.018 61.0583H173.204ZM178.343 67.0257V61.0583H180.581C181.954 61.0583 182.685 61.8945 182.685 63.0338C182.685 64.1818 181.945 65.0093 180.567 65.0093H179.424V67.0257H178.343ZM179.424 64.1206H180.421C181.225 64.1206 181.583 63.669 181.583 63.0338C181.583 62.3986 181.225 61.9615 180.415 61.9615H179.424V64.1206ZM188.528 61.0583V67.0257H187.566L184.754 62.961H184.705V67.0257H183.624V61.0583H184.591L187.4 65.1259H187.453V61.0583H188.528ZM193.676 67.1131C192.326 67.1131 191.502 66.2185 191.502 64.8141C191.502 63.433 192.338 62.4919 193.62 62.4919C194.722 62.4919 195.666 63.1824 195.666 64.7529V65.0763H192.548C192.557 65.8427 193.008 66.2914 193.69 66.2914C194.145 66.2914 194.494 66.0932 194.637 65.7145L195.622 65.8252C195.435 66.6032 194.719 67.1131 193.676 67.1131ZM192.551 64.3654H194.655C194.649 63.7564 194.241 63.3135 193.635 63.3135C193.005 63.3135 192.583 63.7943 192.551 64.3654ZM200.095 63.7331L199.134 63.838C199.052 63.5437 198.796 63.2786 198.309 63.2786C197.869 63.2786 197.534 63.4884 197.537 63.7914C197.534 64.0507 197.715 64.2081 198.169 64.31L198.933 64.4732C199.778 64.6568 200.189 65.0472 200.191 65.6853C200.189 66.5332 199.399 67.1131 198.28 67.1131C197.182 67.1131 196.491 66.6265 196.36 65.8048L197.388 65.7057C197.479 66.1078 197.793 66.3176 198.277 66.3176C198.778 66.3176 199.11 66.0874 199.11 65.7815C199.11 65.528 198.918 65.3619 198.507 65.2716L197.744 65.1113C196.884 64.9336 196.482 64.5023 196.485 63.8497C196.482 63.0222 197.216 62.4919 198.295 62.4919C199.344 62.4919 199.95 62.9755 200.095 63.7331ZM203.296 62.5501V63.366H202.413V65.6795C202.413 66.1049 202.626 66.1981 202.891 66.1981C203.022 66.1981 203.142 66.1719 203.2 66.1574L203.378 66.9819C203.264 67.0198 203.057 67.0781 202.757 67.0868C201.964 67.1101 201.353 66.6964 201.358 65.8543V63.366H200.723V62.5501H201.358V61.4779H202.413V62.5501H203.296ZM119.112 79.116C118.258 79.116 117.614 78.6498 117.614 77.7698C117.614 76.7617 118.445 76.5023 119.313 76.4091C120.103 76.3246 120.42 76.31 120.42 76.007V75.9895C120.42 75.5495 120.152 75.299 119.663 75.299C119.147 75.299 118.85 75.5612 118.745 75.8671L117.76 75.7273C117.993 74.9114 118.716 74.4919 119.657 74.4919C120.51 74.4919 121.475 74.8473 121.475 76.0303V79.0257H120.461V78.4108H120.426C120.234 78.7867 119.814 79.116 119.112 79.116ZM119.386 78.3409C120.021 78.3409 120.423 77.9184 120.423 77.4202V76.8928C120.286 77.0035 119.733 77.0734 119.456 77.1113C118.984 77.1783 118.631 77.3473 118.631 77.7523C118.631 78.1399 118.946 78.3409 119.386 78.3409ZM124.488 79.1131C123.15 79.1131 122.343 78.1603 122.343 76.8054C122.343 75.4388 123.171 74.4919 124.482 74.4919C125.575 74.4919 126.332 75.13 126.405 76.1002H125.397C125.315 75.669 125.003 75.3427 124.496 75.3427C123.847 75.3427 123.413 75.8846 123.413 76.7879C123.413 77.7028 123.838 78.2535 124.496 78.2535C124.96 78.2535 125.307 77.9767 125.397 77.4959H126.405C126.329 78.4458 125.612 79.1131 124.488 79.1131ZM129.506 74.5501V75.366H128.623V77.6795C128.623 78.1049 128.836 78.1981 129.101 78.1981C129.232 78.1981 129.352 78.1719 129.41 78.1574L129.588 78.9819C129.474 79.0198 129.267 79.0781 128.967 79.0868C128.174 79.1101 127.562 78.6964 127.568 77.8543V75.366H126.933V74.5501H127.568V73.4779H128.623V74.5501H129.506ZM130.388 79.0257V74.5501H131.443V79.0257H130.388ZM130.918 73.9149C130.58 73.9149 130.307 73.6585 130.307 73.3438C130.307 73.0262 130.58 72.7698 130.918 72.7698C131.253 72.7698 131.527 73.0262 131.527 73.3438C131.527 73.6585 131.253 73.9149 130.918 73.9149ZM136.525 74.5501L134.931 79.0257H133.766L132.172 74.5501H133.297L134.325 77.8747H134.372L135.403 74.5501H136.525ZM139.084 79.1131C137.735 79.1131 136.911 78.2185 136.911 76.8141C136.911 75.433 137.747 74.4919 139.029 74.4919C140.13 74.4919 141.074 75.1824 141.074 76.7529V77.0763H137.957C137.965 77.8427 138.417 78.2914 139.099 78.2914C139.553 78.2914 139.903 78.0932 140.046 77.7145L141.031 77.8252C140.844 78.6032 140.127 79.1131 139.084 79.1131ZM137.959 76.3654H140.063C140.057 75.7564 139.649 75.3135 139.043 75.3135C138.414 75.3135 137.992 75.7943 137.959 76.3654ZM138.595 73.9615L139.247 72.63H140.279L139.384 73.9615H138.595ZM143.948 79.1131C142.599 79.1131 141.774 78.2185 141.774 76.8141C141.774 75.433 142.611 74.4919 143.893 74.4919C144.994 74.4919 145.938 75.1824 145.938 76.7529V77.0763H142.82C142.829 77.8427 143.281 78.2914 143.963 78.2914C144.417 78.2914 144.767 78.0932 144.91 77.7145L145.894 77.8252C145.708 78.6032 144.991 79.1131 143.948 79.1131ZM142.823 76.3654H144.927C144.921 75.7564 144.513 75.3135 143.907 75.3135C143.278 75.3135 142.855 75.7943 142.823 76.3654ZM148.866 80.704V74.5501H149.903V75.2902H149.964C150.124 74.9668 150.454 74.4919 151.243 74.4919C152.278 74.4919 153.091 75.3019 153.091 76.7937C153.091 78.2681 152.301 79.1043 151.246 79.1043C150.477 79.1043 150.13 78.6469 149.964 78.3205H149.92V80.704H148.866ZM149.9 76.7879C149.9 77.6562 150.279 78.2389 150.952 78.2389C151.648 78.2389 152.015 77.627 152.015 76.7879C152.015 75.9546 151.654 75.3572 150.952 75.3572C150.273 75.3572 149.9 75.9196 149.9 76.7879ZM155.946 79.1131C154.635 79.1131 153.802 78.1894 153.802 76.8054C153.802 75.4184 154.635 74.4919 155.946 74.4919C157.257 74.4919 158.091 75.4184 158.091 76.8054C158.091 78.1894 157.257 79.1131 155.946 79.1131ZM155.952 78.2681C156.666 78.2681 157.021 77.6212 157.021 76.8025C157.021 75.9837 156.666 75.3281 155.952 75.3281C155.226 75.3281 154.871 75.9837 154.871 76.8025C154.871 77.6212 155.226 78.2681 155.952 78.2681ZM161.838 77.1434V74.5501H162.893V79.0257H161.87V78.2302H161.824C161.62 78.7314 161.148 79.0839 160.478 79.0839C159.598 79.0839 158.986 78.475 158.986 77.3998V74.5501H160.041V77.2366C160.041 77.8048 160.379 78.1632 160.886 78.1632C161.352 78.1632 161.838 77.8252 161.838 77.1434ZM163.978 79.0257V74.5501H165.001V75.296H165.047C165.21 74.7774 165.639 74.486 166.152 74.486C166.268 74.486 166.434 74.4977 166.53 74.5152V75.4854C166.44 75.4563 166.219 75.4243 166.041 75.4243C165.461 75.4243 165.033 75.8263 165.033 76.3945V79.0257H163.978ZM169.313 79.0257V73.0583H173.136V73.9645H170.394V75.5845H172.874V76.4907H170.394V79.0257H169.313ZM174.074 79.0257V74.5501H175.129V79.0257H174.074ZM174.604 73.9149C174.266 73.9149 173.992 73.6585 173.992 73.3438C173.992 73.0262 174.266 72.7698 174.604 72.7698C174.939 72.7698 175.213 73.0262 175.213 73.3438C175.213 73.6585 174.939 73.9149 174.604 73.9149ZM176.213 79.0257V74.5501H177.236V75.296H177.283C177.446 74.7774 177.874 74.486 178.387 74.486C178.504 74.486 178.67 74.4977 178.766 74.5152V75.4854C178.676 75.4563 178.454 75.4243 178.276 75.4243C177.697 75.4243 177.268 75.8263 177.268 76.3945V79.0257H176.213ZM181.264 79.1131C179.915 79.1131 179.09 78.2185 179.09 76.8141C179.09 75.433 179.926 74.4919 181.208 74.4919C182.31 74.4919 183.254 75.1824 183.254 76.7529V77.0763H180.136C180.145 77.8427 180.596 78.2914 181.278 78.2914C181.733 78.2914 182.082 78.0932 182.225 77.7145L183.21 77.8252C183.024 78.6032 182.307 79.1131 181.264 79.1131ZM180.139 76.3654H182.243C182.237 75.7564 181.829 75.3135 181.223 75.3135C180.594 75.3135 180.171 75.7943 180.139 76.3654ZM186.413 74.5501V75.366H185.484V79.0257H184.429V75.366H183.767V74.5501H184.429V74.1276C184.429 73.2244 185.049 72.7786 185.827 72.7786C186.192 72.7786 186.492 72.8543 186.629 72.9009L186.416 73.7168C186.329 73.6906 186.189 73.6527 186.023 73.6527C185.629 73.6527 185.484 73.8479 185.484 74.1976V74.5501H186.413ZM189.023 79.1131C187.712 79.1131 186.878 78.1894 186.878 76.8054C186.878 75.4184 187.712 74.4919 189.023 74.4919C190.334 74.4919 191.168 75.4184 191.168 76.8054C191.168 78.1894 190.334 79.1131 189.023 79.1131ZM189.029 78.2681C189.743 78.2681 190.098 77.6212 190.098 76.8025C190.098 75.9837 189.743 75.3281 189.029 75.3281C188.303 75.3281 187.948 75.9837 187.948 76.8025C187.948 77.6212 188.303 78.2681 189.029 78.2681ZM192.757 74.5501L193.66 76.2022L194.578 74.5501H195.694L194.345 76.7879L195.717 79.0257H194.607L193.66 77.4143L192.722 79.0257H191.603L192.967 76.7879L191.638 74.5501H192.757Z" fill="white"/>
<path d="M119.526 93.1483C119.142 93.1483 118.814 93.0438 118.544 92.8347C118.274 92.624 118.067 92.3189 117.925 91.9194C117.782 91.5183 117.71 91.0339 117.71 90.4662C117.71 89.9019 117.782 89.4201 117.925 89.0206C118.069 88.6195 118.276 88.3136 118.547 88.1028C118.819 87.8903 119.145 87.7841 119.526 87.7841C119.906 87.7841 120.232 87.8903 120.502 88.1028C120.774 88.3136 120.981 88.6195 121.124 89.0206C121.269 89.4201 121.341 89.9019 121.341 90.4662C121.341 91.0339 121.27 91.5183 121.127 91.9194C120.984 92.3189 120.777 92.624 120.507 92.8347C120.237 93.0438 119.91 93.1483 119.526 93.1483ZM119.526 92.5874C119.906 92.5874 120.202 92.4039 120.413 92.0367C120.624 91.6696 120.729 91.1461 120.729 90.4662C120.729 90.0141 120.681 89.6291 120.584 89.3113C120.489 88.9934 120.351 88.7512 120.171 88.5847C119.992 88.4181 119.777 88.3348 119.526 88.3348C119.148 88.3348 118.853 88.5209 118.641 88.8931C118.428 89.2637 118.322 89.788 118.322 90.4662C118.322 90.9183 118.37 91.3025 118.465 91.6186C118.56 91.9347 118.697 92.1752 118.876 92.3401C119.056 92.505 119.272 92.5874 119.526 92.5874ZM124.013 93.1483C123.629 93.1483 123.301 93.0438 123.031 92.8347C122.761 92.624 122.554 92.3189 122.412 91.9194C122.269 91.5183 122.198 91.0339 122.198 90.4662C122.198 89.9019 122.269 89.4201 122.412 89.0206C122.556 88.6195 122.764 88.3136 123.034 88.1028C123.306 87.8903 123.632 87.7841 124.013 87.7841C124.394 87.7841 124.719 87.8903 124.989 88.1028C125.261 88.3136 125.469 88.6195 125.611 89.0206C125.756 89.4201 125.828 89.9019 125.828 90.4662C125.828 91.0339 125.757 91.5183 125.614 91.9194C125.471 92.3189 125.265 92.624 124.994 92.8347C124.724 93.0438 124.397 93.1483 124.013 93.1483ZM124.013 92.5874C124.394 92.5874 124.689 92.4039 124.9 92.0367C125.111 91.6696 125.216 91.1461 125.216 90.4662C125.216 90.0141 125.168 89.6291 125.071 89.3113C124.976 88.9934 124.838 88.7512 124.658 88.5847C124.479 88.4181 124.264 88.3348 124.013 88.3348C123.635 88.3348 123.341 88.5209 123.128 88.8931C122.916 89.2637 122.809 89.788 122.809 90.4662C122.809 90.9183 122.857 91.3025 122.952 91.6186C123.047 91.9347 123.184 92.1752 123.363 92.3401C123.543 92.505 123.76 92.5874 124.013 92.5874ZM127.246 92.409C127.12 92.409 127.012 92.3639 126.922 92.2738C126.832 92.1837 126.787 92.0758 126.787 91.95C126.787 91.8243 126.832 91.7163 126.922 91.6263C127.012 91.5362 127.12 91.4911 127.246 91.4911C127.371 91.4911 127.479 91.5362 127.569 91.6263C127.659 91.7163 127.705 91.8243 127.705 91.95C127.705 92.0333 127.683 92.1098 127.641 92.1795C127.6 92.2492 127.545 92.3053 127.475 92.3478C127.407 92.3886 127.331 92.409 127.246 92.409ZM127.246 89.7676C127.12 89.7676 127.012 89.7226 126.922 89.6325C126.832 89.5424 126.787 89.4345 126.787 89.3087C126.787 89.1829 126.832 89.075 126.922 88.9849C127.012 88.8948 127.12 88.8498 127.246 88.8498C127.371 88.8498 127.479 88.8948 127.569 88.9849C127.659 89.075 127.705 89.1829 127.705 89.3087C127.705 89.392 127.683 89.4685 127.641 89.5382C127.6 89.6079 127.545 89.664 127.475 89.7065C127.407 89.7472 127.331 89.7676 127.246 89.7676ZM130.477 93.1483C130.093 93.1483 129.766 93.0438 129.496 92.8347C129.225 92.624 129.019 92.3189 128.876 91.9194C128.733 91.5183 128.662 91.0339 128.662 90.4662C128.662 89.9019 128.733 89.4201 128.876 89.0206C129.021 88.6195 129.228 88.3136 129.498 88.1028C129.77 87.8903 130.096 87.7841 130.477 87.7841C130.858 87.7841 131.183 87.8903 131.454 88.1028C131.726 88.3136 131.933 88.6195 132.076 89.0206C132.22 89.4201 132.292 89.9019 132.292 90.4662C132.292 91.0339 132.221 91.5183 132.078 91.9194C131.935 92.3189 131.729 92.624 131.459 92.8347C131.188 93.0438 130.861 93.1483 130.477 93.1483ZM130.477 92.5874C130.858 92.5874 131.154 92.4039 131.364 92.0367C131.575 91.6696 131.681 91.1461 131.681 90.4662C131.681 90.0141 131.632 89.6291 131.535 89.3113C131.44 88.9934 131.302 88.7512 131.122 88.5847C130.944 88.4181 130.729 88.3348 130.477 88.3348C130.1 88.3348 129.805 88.5209 129.592 88.8931C129.38 89.2637 129.274 89.788 129.274 90.4662C129.274 90.9183 129.321 91.3025 129.417 91.6186C129.512 91.9347 129.649 92.1752 129.827 92.3401C130.007 92.505 130.224 92.5874 130.477 92.5874ZM133.139 92.0061V91.486L135.433 87.8555H135.811V88.6611H135.556L133.822 91.4044V91.4452H136.912V92.0061H133.139ZM135.597 93.0769V91.8481V91.6059V87.8555H136.198V93.0769H135.597ZM138.316 92.409C138.191 92.409 138.083 92.3639 137.993 92.2738C137.902 92.1837 137.857 92.0758 137.857 91.95C137.857 91.8243 137.902 91.7163 137.993 91.6263C138.083 91.5362 138.191 91.4911 138.316 91.4911C138.442 91.4911 138.55 91.5362 138.64 91.6263C138.73 91.7163 138.775 91.8243 138.775 91.95C138.775 92.0333 138.754 92.1098 138.712 92.1795C138.671 92.2492 138.615 92.3053 138.546 92.3478C138.478 92.3886 138.401 92.409 138.316 92.409ZM138.316 89.7676C138.191 89.7676 138.083 89.7226 137.993 89.6325C137.902 89.5424 137.857 89.4345 137.857 89.3087C137.857 89.1829 137.902 89.075 137.993 88.9849C138.083 88.8948 138.191 88.8498 138.316 88.8498C138.442 88.8498 138.55 88.8948 138.64 88.9849C138.73 89.075 138.775 89.1829 138.775 89.3087C138.775 89.392 138.754 89.4685 138.712 89.5382C138.671 89.6079 138.615 89.664 138.546 89.7065C138.478 89.7472 138.401 89.7676 138.316 89.7676ZM141.609 93.1483C141.273 93.1483 140.973 93.0905 140.709 92.975C140.447 92.8594 140.239 92.6988 140.084 92.4931C139.931 92.2857 139.848 92.0452 139.835 91.7716H140.477C140.491 91.9398 140.548 92.0852 140.65 92.2075C140.752 92.3282 140.886 92.4217 141.051 92.488C141.216 92.5543 141.398 92.5874 141.599 92.5874C141.823 92.5874 142.022 92.5483 142.195 92.4701C142.369 92.392 142.505 92.2832 142.603 92.1438C142.702 92.0044 142.751 91.843 142.751 91.6594C142.751 91.4673 142.704 91.2982 142.608 91.152C142.513 91.0042 142.374 90.8886 142.19 90.8053C142.007 90.722 141.782 90.6804 141.517 90.6804H141.099V90.1195H141.517C141.725 90.1195 141.907 90.0821 142.063 90.0073C142.221 89.9325 142.344 89.8271 142.433 89.6912C142.523 89.5552 142.568 89.3954 142.568 89.2118C142.568 89.0351 142.529 88.8813 142.45 88.7504C142.372 88.6195 142.262 88.5175 142.119 88.4444C141.978 88.3713 141.811 88.3348 141.619 88.3348C141.439 88.3348 141.269 88.3679 141.109 88.4342C140.951 88.4988 140.822 88.5932 140.722 88.7172C140.622 88.8396 140.567 88.9875 140.559 89.1609H139.947C139.957 88.8872 140.039 88.6475 140.194 88.4419C140.349 88.2345 140.551 88.073 140.801 87.9575C141.052 87.8419 141.329 87.7841 141.629 87.7841C141.952 87.7841 142.229 87.8495 142.461 87.9804C142.692 88.1096 142.869 88.2804 142.993 88.4929C143.118 88.7053 143.18 88.9348 143.18 89.1812C143.18 89.4753 143.102 89.726 142.948 89.9334C142.795 90.1407 142.586 90.2843 142.323 90.3642V90.405C142.653 90.4594 142.91 90.5996 143.095 90.8257C143.281 91.0501 143.373 91.328 143.373 91.6594C143.373 91.9432 143.296 92.1982 143.141 92.4243C142.988 92.6486 142.779 92.8254 142.514 92.9546C142.249 93.0837 141.947 93.1483 141.609 93.1483ZM144.579 93.0769L146.915 88.4572V88.4164H144.222V87.8555H147.567V88.447L145.242 93.0769H144.579Z" fill="white" fill-opacity="0.8"/>
<rect x="207.026" y="70.8974" width="23.0769" height="12.3077" rx="6.15385" fill="#3FE1B0"/>
<path fill-rule="evenodd" clip-rule="evenodd" d="M223.949 81.6667C226.498 81.6667 228.564 79.6003 228.564 77.0513C228.564 74.5023 226.498 72.4359 223.949 72.4359C221.4 72.4359 219.333 74.5023 219.333 77.0513C219.333 79.6003 221.4 81.6667 223.949 81.6667Z" fill="white"/>
</g>
<rect opacity="0.15" x="79.6899" y="62.0234" width="30.0557" height="30.0557" rx="15.0279" stroke="white" stroke-width="2.05128"/>
<rect opacity="0.1" x="70.6154" y="52.9487" width="48.2051" height="48.2051" rx="24.1026" stroke="white" stroke-width="1.02564"/>
<mask id="path-18-inside-1_175_4335" fill="white">
<path d="M74.2051 106.282H238.308V122.692C238.308 124.958 236.471 126.795 234.205 126.795H78.3077C76.0419 126.795 74.2051 124.958 74.2051 122.692V106.282Z"/>
</mask>
<path d="M74.2051 106.282H238.308V122.692C238.308 124.958 236.471 126.795 234.205 126.795H78.3077C76.0419 126.795 74.2051 124.958 74.2051 122.692V106.282Z" fill="#321C64"/>
<path d="M74.2051 105.769H238.308V106.795H74.2051V105.769ZM238.308 126.795H74.2051H238.308ZM74.2051 126.795V106.282V126.795ZM238.308 106.282V126.795V106.282Z" fill="white" fill-opacity="0.2" mask="url(#path-18-inside-1_175_4335)"/>
<g clip-path="url(#clip1_175_4335)">
<path d="M85.3732 113.576C84.8697 113.576 84.4615 113.984 84.4615 114.487V118.59C84.4615 119.093 84.8697 119.501 85.3732 119.501H86.7407V113.576H85.3732ZM91.755 113.576H90.3874V119.501H91.755C92.2584 119.501 92.6666 119.093 92.6666 118.59V114.487C92.6666 113.984 92.2584 113.576 91.755 113.576Z" fill="#D52B1E"/>
<path d="M86.7407 113.576H90.3874V119.501H86.7407V113.576Z" fill="#EEEEEE"/>
<path d="M88.7043 117.476C88.9773 117.508 89.2221 117.536 89.4949 117.567L89.4254 117.339C89.4142 117.299 89.4302 117.255 89.4616 117.23L90.2546 116.585L90.0905 116.507C90.0182 116.481 90.0381 116.441 90.0643 116.343L90.1853 115.901L89.7247 115.999C89.6798 116.006 89.6499 115.977 89.6431 115.95L89.5836 115.742L89.2194 116.151C89.1676 116.217 89.0628 116.217 89.0954 116.065L89.251 115.237L89.042 115.345C88.9835 115.378 88.9249 115.384 88.8923 115.325L88.604 114.786V114.799V114.786L88.3157 115.325C88.2828 115.384 88.2243 115.378 88.1657 115.345L87.9569 115.237L88.1126 116.065C88.1454 116.217 88.0403 116.217 87.9886 116.151L87.6244 115.742L87.5651 115.95C87.5583 115.977 87.5282 116.006 87.4833 115.999L87.0227 115.902L87.1437 116.343C87.1695 116.441 87.1895 116.482 87.1173 116.507L86.9532 116.585L87.7461 117.231C87.7775 117.255 87.7935 117.299 87.7821 117.339L87.7126 117.568L88.5035 117.476C88.5276 117.476 88.5436 117.49 88.5434 117.517L88.4946 118.362H88.7125L88.6639 117.517C88.6644 117.489 88.6801 117.476 88.7043 117.476Z" fill="#D52B1E"/>
</g>
<path d="M97.116 114.378V113.817H101.032V114.378H99.3901V119.038H98.7579V114.378H97.116ZM102.949 119.12C102.596 119.12 102.286 119.036 102.019 118.868C101.754 118.699 101.546 118.464 101.397 118.161C101.249 117.859 101.175 117.505 101.175 117.101C101.175 116.693 101.249 116.337 101.397 116.033C101.546 115.728 101.754 115.492 102.019 115.324C102.286 115.156 102.596 115.071 102.949 115.071C103.303 115.071 103.612 115.156 103.877 115.324C104.144 115.492 104.352 115.728 104.499 116.033C104.649 116.337 104.724 116.693 104.724 117.101C104.724 117.505 104.649 117.859 104.499 118.161C104.352 118.464 104.144 118.699 103.877 118.868C103.612 119.036 103.303 119.12 102.949 119.12ZM102.949 118.58C103.218 118.58 103.439 118.511 103.612 118.373C103.786 118.235 103.914 118.054 103.997 117.83C104.08 117.606 104.122 117.363 104.122 117.101C104.122 116.839 104.08 116.595 103.997 116.369C103.914 116.143 103.786 115.96 103.612 115.821C103.439 115.682 103.218 115.612 102.949 115.612C102.681 115.612 102.46 115.682 102.286 115.821C102.113 115.96 101.985 116.143 101.901 116.369C101.818 116.595 101.777 116.839 101.777 117.101C101.777 117.363 101.818 117.606 101.901 117.83C101.985 118.054 102.113 118.235 102.286 118.373C102.46 118.511 102.681 118.58 102.949 118.58ZM105.642 119.038V115.122H106.224V115.714H106.264C106.336 115.52 106.465 115.363 106.652 115.242C106.839 115.122 107.05 115.061 107.284 115.061C107.328 115.061 107.384 115.062 107.45 115.064C107.516 115.065 107.566 115.068 107.6 115.071V115.683C107.58 115.678 107.533 115.671 107.46 115.66C107.389 115.648 107.313 115.642 107.233 115.642C107.043 115.642 106.873 115.682 106.723 115.762C106.575 115.84 106.458 115.949 106.371 116.089C106.286 116.226 106.244 116.384 106.244 116.56V119.038H105.642ZM109.785 119.12C109.432 119.12 109.122 119.036 108.855 118.868C108.59 118.699 108.382 118.464 108.233 118.161C108.085 117.859 108.011 117.505 108.011 117.101C108.011 116.693 108.085 116.337 108.233 116.033C108.382 115.728 108.59 115.492 108.855 115.324C109.122 115.156 109.432 115.071 109.785 115.071C110.139 115.071 110.448 115.156 110.713 115.324C110.98 115.492 111.187 115.728 111.335 116.033C111.485 116.337 111.56 116.693 111.56 117.101C111.56 117.505 111.485 117.859 111.335 118.161C111.187 118.464 110.98 118.699 110.713 118.868C110.448 119.036 110.139 119.12 109.785 119.12ZM109.785 118.58C110.054 118.58 110.275 118.511 110.448 118.373C110.621 118.235 110.75 118.054 110.833 117.83C110.916 117.606 110.958 117.363 110.958 117.101C110.958 116.839 110.916 116.595 110.833 116.369C110.75 116.143 110.621 115.96 110.448 115.821C110.275 115.682 110.054 115.612 109.785 115.612C109.517 115.612 109.296 115.682 109.122 115.821C108.949 115.96 108.821 116.143 108.737 116.369C108.654 116.595 108.612 116.839 108.612 117.101C108.612 117.363 108.654 117.606 108.737 117.83C108.821 118.054 108.949 118.235 109.122 118.373C109.296 118.511 109.517 118.58 109.785 118.58ZM113.08 116.683V119.038H112.478V115.122H113.059V115.734H113.11C113.202 115.535 113.342 115.376 113.529 115.255C113.716 115.133 113.957 115.071 114.253 115.071C114.518 115.071 114.75 115.126 114.949 115.235C115.148 115.342 115.302 115.505 115.413 115.724C115.523 115.942 115.578 116.217 115.578 116.55V119.038H114.977V116.591C114.977 116.283 114.897 116.044 114.737 115.872C114.577 115.699 114.358 115.612 114.079 115.612C113.887 115.612 113.716 115.654 113.564 115.737C113.415 115.82 113.297 115.942 113.21 116.101C113.123 116.261 113.08 116.455 113.08 116.683ZM118.381 115.122V115.632H116.352V115.122H118.381ZM116.943 114.184H117.545V117.917C117.545 118.087 117.569 118.214 117.619 118.299C117.67 118.382 117.734 118.438 117.812 118.467C117.892 118.495 117.976 118.508 118.065 118.508C118.131 118.508 118.186 118.505 118.228 118.498C118.271 118.489 118.304 118.483 118.33 118.478L118.452 119.018C118.412 119.033 118.355 119.049 118.282 119.064C118.208 119.081 118.116 119.089 118.004 119.089C117.834 119.089 117.667 119.053 117.504 118.98C117.342 118.907 117.208 118.795 117.101 118.646C116.996 118.496 116.943 118.308 116.943 118.08V114.184ZM120.835 119.12C120.481 119.12 120.171 119.036 119.904 118.868C119.639 118.699 119.432 118.464 119.282 118.161C119.134 117.859 119.06 117.505 119.06 117.101C119.06 116.693 119.134 116.337 119.282 116.033C119.432 115.728 119.639 115.492 119.904 115.324C120.171 115.156 120.481 115.071 120.835 115.071C121.188 115.071 121.498 115.156 121.763 115.324C122.03 115.492 122.237 115.728 122.385 116.033C122.535 116.337 122.609 116.693 122.609 117.101C122.609 117.505 122.535 117.859 122.385 118.161C122.237 118.464 122.03 118.699 121.763 118.868C121.498 119.036 121.188 119.12 120.835 119.12ZM120.835 118.58C121.103 118.58 121.324 118.511 121.498 118.373C121.671 118.235 121.799 118.054 121.883 117.83C121.966 117.606 122.008 117.363 122.008 117.101C122.008 116.839 121.966 116.595 121.883 116.369C121.799 116.143 121.671 115.96 121.498 115.821C121.324 115.682 121.103 115.612 120.835 115.612C120.566 115.612 120.345 115.682 120.172 115.821C119.999 115.96 119.87 116.143 119.787 116.369C119.704 116.595 119.662 116.839 119.662 117.101C119.662 117.363 119.704 117.606 119.787 117.83C119.87 118.054 119.999 118.235 120.172 118.373C120.345 118.511 120.566 118.58 120.835 118.58Z" fill="white" fill-opacity="0.8"/>
</g>
<defs>
<filter id="filter0_i_175_4335" x="66" y="15" width="155.897" height="24.6154" filterUnits="userSpaceOnUse" color-interpolation-filters="sRGB">
<feFlood flood-opacity="0" result="BackgroundImageFix"/>
<feBlend mode="normal" in="SourceGraphic" in2="BackgroundImageFix" result="shape"/>
<feColorMatrix in="SourceAlpha" type="matrix" values="0 0 0 0 0 0 0 0 0 0 0 0 0 0 0 0 0 0 127 0" result="hardAlpha"/>
<feOffset dy="-0.51282"/>
<feComposite in2="hardAlpha" operator="arithmetic" k2="-1" k3="1"/>
<feColorMatrix type="matrix" values="0 0 0 0 0.905882 0 0 0 0 0.905882 0 0 0 0 0.905882 0 0 0 1 0"/>
<feBlend mode="normal" in2="shape" result="effect1_innerShadow_175_4335"/>
</filter>
<filter id="filter1_i_175_4335" x="221.897" y="15" width="24.6154" height="24.6154" filterUnits="userSpaceOnUse" color-interpolation-filters="sRGB">
<feFlood flood-opacity="0" result="BackgroundImageFix"/>
<feBlend mode="normal" in="SourceGraphic" in2="BackgroundImageFix" result="shape"/>
<feColorMatrix in="SourceAlpha" type="matrix" values="0 0 0 0 0 0 0 0 0 0 0 0 0 0 0 0 0 0 127 0" result="hardAlpha"/>
<feOffset dy="-0.51282"/>
<feComposite in2="hardAlpha" operator="arithmetic" k2="-1" k3="1"/>
<feColorMatrix type="matrix" values="0 0 0 0 0.905882 0 0 0 0 0.905882 0 0 0 0 0.905882 0 0 0 1 0"/>
<feBlend mode="normal" in2="shape" result="effect1_innerShadow_175_4335"/>
</filter>
<filter id="filter2_d_175_4335" x="72.1539" y="46.282" width="168.205" height="83.0769" filterUnits="userSpaceOnUse" color-interpolation-filters="sRGB">
<feFlood flood-opacity="0" result="BackgroundImageFix"/>
<feColorMatrix in="SourceAlpha" type="matrix" values="0 0 0 0 0 0 0 0 0 0 0 0 0 0 0 0 0 0 127 0" result="hardAlpha"/>
<feOffset dy="0.51282"/>
<feGaussianBlur stdDeviation="1.02564"/>
<feColorMatrix type="matrix" values="0 0 0 0 0.0470588 0 0 0 0 0.0470588 0 0 0 0 0.0509804 0 0 0 0.3 0"/>
<feBlend mode="normal" in2="BackgroundImageFix" result="effect1_dropShadow_175_4335"/>
<feBlend mode="normal" in="SourceGraphic" in2="effect1_dropShadow_175_4335" result="shape"/>
</filter>
<filter id="filter3_d_175_4335" x="72.1539" y="46.282" width="168.205" height="62.5641" filterUnits="userSpaceOnUse" color-interpolation-filters="sRGB">
<feFlood flood-opacity="0" result="BackgroundImageFix"/>
<feColorMatrix in="SourceAlpha" type="matrix" values="0 0 0 0 0 0 0 0 0 0 0 0 0 0 0 0 0 0 127 0" result="hardAlpha"/>
<feOffset dy="0.51282"/>
<feGaussianBlur stdDeviation="1.02564"/>
<feColorMatrix type="matrix" values="0 0 0 0 0.0470588 0 0 0 0 0.0470588 0 0 0 0 0.0509804 0 0 0 0.1 0"/>
<feBlend mode="normal" in2="BackgroundImageFix" result="effect1_dropShadow_175_4335"/>
<feBlend mode="normal" in="SourceGraphic" in2="effect1_dropShadow_175_4335" result="shape"/>
</filter>
<radialGradient id="paint0_radial_175_4335" cx="0" cy="0" r="1" gradientUnits="userSpaceOnUse" gradientTransform="translate(106.411 65.359) rotate(-44.9997) scale(33.0711)">
<stop stop-color="#B833E1"/>
<stop offset="0.371" stop-color="#9059FF"/>
<stop offset="0.614" stop-color="#5B6DF8"/>
<stop offset="1" stop-color="#0090ED"/>
</radialGradient>
<clipPath id="clip0_175_4335">
<rect x="66" y="15" width="180.513" height="120" rx="4.10256" fill="white"/>
</clipPath>
<clipPath id="clip1_175_4335">
<rect width="8.20513" height="8.20513" fill="white" transform="translate(84.4615 112.436)"/>
</clipPath>
</defs>
</svg>
