<svg width="312" height="150" viewBox="0 0 312 150" fill="none" xmlns="http://www.w3.org/2000/svg">
<rect width="312" height="150" fill="#0090ED"/>
<g clip-path="url(#clip0_175_4277)">
<rect x="66" y="15" width="180.513" height="120" rx="4.10256" fill="#F9F9FA"/>
<g filter="url(#filter0_i_175_4277)">
<path d="M66 15H217.795C220.061 15 221.897 16.8368 221.897 19.1026V39.6154H66V15Z" fill="#F9F9FA"/>
<path d="M132.975 29.8077V24.1708H134L135.855 27.6087L137.717 24.1708H138.735V29.8077H137.717V26.0415L135.855 29.4795L134 26.0415V29.8077H132.975ZM142.002 29.9062C140.772 29.9062 139.73 28.8887 139.73 27.6826C139.73 26.4764 140.772 25.4672 142.002 25.4672C143.233 25.4672 144.275 26.4764 144.275 27.6826C144.275 28.8887 143.233 29.9062 142.002 29.9062ZM142.002 29.0528C142.7 29.0528 143.291 28.4292 143.291 27.6826C143.291 26.9441 142.7 26.3205 142.002 26.3205C141.297 26.3205 140.706 26.9441 140.706 27.6826C140.706 28.4292 141.297 29.0528 142.002 29.0528ZM144.971 29.8077V29.0774L147.219 26.4436H145.02V25.5656H148.54L148.532 26.2959L146.276 28.9297H148.557V29.8077H144.971ZM149.971 24.9256C149.651 24.9256 149.397 24.6549 149.397 24.3513C149.397 24.0477 149.651 23.7851 149.971 23.7851C150.283 23.7851 150.537 24.0477 150.537 24.3513C150.537 24.6549 150.283 24.9256 149.971 24.9256ZM149.462 29.8077V25.5656H150.463V29.8077H149.462ZM151.57 29.8077V24.0723H152.571V29.8077H151.57ZM153.677 29.8077V24.0723H154.678V29.8077H153.677ZM157.631 25.4672C158.755 25.4672 159.452 26.181 159.452 27.2559V29.8077H158.476V29.299C158.164 29.6928 157.631 29.9062 157.138 29.9062C156.236 29.9062 155.555 29.3728 155.555 28.5523C155.555 27.7154 156.334 27.141 157.286 27.141C157.672 27.141 158.09 27.2231 158.476 27.3708V27.2559C158.476 26.7636 158.205 26.2877 157.434 26.2877C157.032 26.2877 156.646 26.4272 156.285 26.6077L155.94 25.9103C156.539 25.6149 157.097 25.4672 157.631 25.4672ZM157.36 29.1759C157.844 29.1759 158.361 28.9297 158.476 28.4785V28.0026C158.164 27.8959 157.811 27.8385 157.434 27.8385C156.933 27.8385 156.531 28.1174 156.531 28.5195C156.531 28.9215 156.884 29.1759 157.36 29.1759ZM167.184 24.1708H168.324L165.97 29.8077H164.829L162.474 24.1708H163.606L165.395 28.4456L167.184 24.1708ZM169.071 29.8077V24.1708H171.524C172.73 24.1708 173.633 24.9421 173.633 26.0415C173.633 27.141 172.73 27.9123 171.524 27.9123H170.096V29.8077H169.071ZM170.096 26.9687H171.409C172.106 26.9687 172.591 26.6159 172.591 26.0415C172.591 25.4672 172.106 25.1144 171.409 25.1144H170.096V26.9687ZM174.513 29.8077V24.1708H175.539L178.517 28.1338V24.1708H179.535V29.8077H178.517L175.539 25.8446V29.8077H174.513Z" fill="#0C0C0D"/>
</g>
<g filter="url(#filter1_i_175_4277)">
<path d="M221.897 19.1026C221.897 16.8368 223.734 15 226 15H246.513V39.6154H221.897V19.1026Z" fill="#F9F9FA"/>
<path d="M230.103 23.2051C230.386 23.2051 230.615 23.4347 230.615 23.7178V24.795C230.936 24.8612 231.242 24.9889 231.515 25.1709L232.279 24.4063C232.481 24.2123 232.8 24.2154 232.998 24.4131C233.196 24.611 233.198 24.9307 233.004 25.1319L232.24 25.8956C232.422 26.1683 232.549 26.4739 232.615 26.795H233.692C233.976 26.795 234.205 27.0245 234.205 27.3077C234.205 27.5909 233.976 27.8203 233.692 27.8204H232.615C232.549 28.1416 232.421 28.447 232.239 28.7198L233.004 29.4844C233.198 29.6857 233.195 30.0055 232.997 30.2032C232.799 30.4008 232.48 30.4033 232.278 30.209L231.515 29.4454C231.242 29.6271 230.936 29.7542 230.615 29.8204V30.8975C230.615 31.1807 230.386 31.4102 230.103 31.4102C229.819 31.4102 229.59 31.1807 229.59 30.8975V29.8204C229.267 29.754 228.96 29.6258 228.686 29.4424C228.68 29.4495 228.676 29.4582 228.67 29.4649L227.926 30.209C227.797 30.342 227.607 30.3954 227.428 30.3487C227.249 30.3018 227.109 30.1617 227.062 29.9825C227.015 29.8032 227.068 29.6122 227.201 29.4834L227.944 28.7403C227.951 28.7336 227.961 28.7313 227.968 28.7247C227.785 28.4506 227.656 28.1433 227.59 27.8204H226.513C226.23 27.8203 226 27.5908 226 27.3077C226 27.0245 226.23 26.795 226.513 26.795H227.59C227.656 26.4739 227.784 26.1682 227.966 25.8956L227.201 25.1319C227.001 24.9316 227.001 24.6066 227.201 24.4063C227.401 24.2059 227.726 24.2061 227.927 24.4063L228.69 25.17C228.963 24.9882 229.269 24.8611 229.59 24.795V23.7178C229.59 23.4347 229.819 23.2051 230.103 23.2051ZM230.103 25.7696C229.253 25.7696 228.565 26.458 228.564 27.3077C228.564 28.1573 229.253 28.8457 230.103 28.8457C230.952 28.8457 231.641 28.1573 231.641 27.3077C231.641 26.458 230.952 25.7696 230.103 25.7696Z" fill="#3D3D3D"/>
</g>
<g filter="url(#filter2_d_175_4277)">
<rect x="74.2051" y="47.8205" width="164.103" height="78.9744" rx="4.10256" fill="#F9F9FA"/>
</g>
<g filter="url(#filter3_d_175_4277)">
<path d="M74.2051 51.9231C74.2051 49.6573 76.0419 47.8205 78.3077 47.8205H234.205C236.471 47.8205 238.308 49.6573 238.308 51.9231V106.282H74.2051V51.9231Z" fill="#321C64"/>
<rect x="95.641" y="66.2821" width="9.84615" height="9.84615" rx="4.92308" fill="#3FE1B0"/>
<path d="M94.7182 65.359C95.5833 65.36 96.4379 65.4595 97.269 65.6461C96.2161 66.2715 95.3568 67.1877 94.8002 68.2838C94.7729 68.2827 94.7456 68.2818 94.7182 68.2818C93.1471 68.2818 91.7408 70.0358 90.9662 72.6051H94.2563C94.3798 73.1641 94.5754 73.6957 94.8334 74.19H90.5873C90.2477 76.0824 90.2477 78.0203 90.5873 79.9127H98.8481C98.991 79.1145 99.0728 78.3069 99.0951 77.4967C99.5635 77.6056 100.051 77.6647 100.552 77.6656C100.527 78.4182 100.456 79.1688 100.336 79.9127H102.997C103.319 78.993 103.486 78.0258 103.488 77.0514C103.488 77.0234 103.485 76.9953 103.485 76.9674C104.581 76.4108 105.496 75.5523 106.121 74.4996C106.308 75.331 106.41 76.1858 106.411 77.0514C106.411 79.3639 105.725 81.6247 104.44 83.5475C103.155 85.47 101.329 86.9682 99.1928 87.8531C97.0563 88.7381 94.705 88.9703 92.4369 88.5191C90.1689 88.068 88.0858 86.9541 86.4506 85.3189C84.8155 83.6838 83.7016 81.6006 83.2504 79.3326C82.7993 77.0646 83.0305 74.7132 83.9154 72.5768C84.8004 70.4403 86.2994 68.6144 88.2221 67.3297C90.0248 66.1251 92.1246 65.4468 94.2856 65.3668L94.7182 65.359ZM90.9662 81.4977C91.7409 84.0669 93.1471 85.8209 94.7182 85.8209C96.2892 85.8208 97.695 84.0668 98.4711 81.4977H90.9662ZM87.1723 81.4977C88.0663 83.0081 89.3914 84.2175 90.977 84.9703C90.272 83.9083 89.7525 82.7337 89.4408 81.4977H87.1723ZM100 81.4977C99.6891 82.7324 99.17 83.9052 98.4662 84.9664C100.05 84.2141 101.374 83.0065 102.268 81.4977H100ZM86.4389 74.19C86.1169 75.1098 85.9507 76.0769 85.9486 77.0514C85.9507 78.0259 86.1169 78.9929 86.4389 79.9127H89.1C88.796 78.0172 88.796 76.0855 89.1 74.19H86.4389ZM90.977 69.1324C89.3914 69.8852 88.0663 71.0946 87.1723 72.6051H89.4408C89.7525 71.369 90.272 70.1945 90.977 69.1324Z" fill="url(#paint0_radial_175_4277)"/>
<path d="M101.94 69.2876C102.212 69.335 102.411 69.5717 102.41 69.8482C102.41 70.1629 102.411 70.7306 102.386 70.9888C102.373 71.5748 102.18 72.1427 101.832 72.6148C101.533 73.0146 101.09 73.2827 100.597 73.3618L100.564 73.3657L100.529 73.3618C100.037 73.2827 99.5939 73.0146 99.2951 72.6148C98.9477 72.1426 98.7543 71.5748 98.7414 70.9888C98.718 70.7306 98.718 70.1635 98.718 69.8482C98.7173 69.5719 98.9156 69.3353 99.1877 69.2876L100.564 69.0513L101.94 69.2876ZM99.3332 69.8862C99.3332 70.3861 99.3182 70.7356 99.3332 70.9019C99.3413 71.388 99.5017 71.8598 99.7912 72.2505C99.9802 72.5034 100.255 72.6795 100.564 72.7446C100.873 72.6795 101.148 72.5036 101.337 72.2505C101.627 71.8599 101.787 71.3881 101.795 70.9019C101.81 70.7356 101.795 70.386 101.795 69.8862L100.564 69.6763L99.3332 69.8862ZM100.564 72.2671H100.562C100.402 72.2135 100.262 72.1123 100.161 71.9771C99.9292 71.6632 99.8069 71.2814 99.8137 70.8911C99.8038 70.7849 99.7979 70.5656 99.7951 70.2759L100.564 70.1441V72.2671Z" fill="white"/>
<path d="M118.669 61.0583L120.222 65.7553H120.283L121.833 61.0583H123.022L120.918 67.0257H119.584L117.483 61.0583H118.669ZM123.808 67.0257V61.0583H126.046C127.418 61.0583 128.15 61.8945 128.15 63.0338C128.15 64.1818 127.409 65.0093 126.031 65.0093H124.889V67.0257H123.808ZM124.889 64.1206H125.886C126.69 64.1206 127.048 63.669 127.048 63.0338C127.048 62.3986 126.69 61.9616 125.88 61.9616H124.889V64.1206ZM133.992 61.0583V67.0257H133.031L130.219 62.961H130.17V67.0257H129.089V61.0583H130.056L132.865 65.1259H132.917V61.0583H133.992ZM137.159 68.704V62.5501H138.196V63.2902H138.257C138.418 62.9668 138.747 62.4919 139.537 62.4919C140.571 62.4919 141.384 63.3019 141.384 64.7937C141.384 66.2681 140.594 67.1043 139.539 67.1043C138.77 67.1043 138.423 66.6469 138.257 66.3205H138.214V68.704H137.159ZM138.193 64.7879C138.193 65.6562 138.572 66.2389 139.245 66.2389C139.942 66.2389 140.309 65.6271 140.309 64.7879C140.309 63.9546 139.947 63.3572 139.245 63.3572C138.566 63.3572 138.193 63.9196 138.193 64.7879ZM142.287 67.0257V62.5501H143.31V63.2961H143.356C143.52 62.7774 143.948 62.486 144.461 62.486C144.577 62.486 144.743 62.4977 144.84 62.5152V63.4854C144.749 63.4563 144.528 63.4243 144.35 63.4243C143.77 63.4243 143.342 63.8264 143.342 64.3945V67.0257H142.287ZM147.308 67.1131C145.997 67.1131 145.164 66.1894 145.164 64.8054C145.164 63.4184 145.997 62.4919 147.308 62.4919C148.619 62.4919 149.453 63.4184 149.453 64.8054C149.453 66.1894 148.619 67.1131 147.308 67.1131ZM147.314 66.2681C148.028 66.2681 148.383 65.6212 148.383 64.8025C148.383 63.9837 148.028 63.3281 147.314 63.3281C146.589 63.3281 146.233 63.9837 146.233 64.8025C146.233 65.6212 146.589 66.2681 147.314 66.2681ZM152.583 62.5501V63.366H151.7V65.6795C151.7 66.1049 151.913 66.1982 152.178 66.1982C152.309 66.1982 152.428 66.1719 152.487 66.1574L152.664 66.982C152.551 67.0198 152.344 67.0781 152.044 67.0868C151.251 67.1102 150.639 66.6964 150.645 65.8543V63.366H150.01V62.5501H150.645V61.4779H151.7V62.5501H152.583ZM155.398 67.1131C154.049 67.1131 153.225 66.2185 153.225 64.8141C153.225 63.433 154.061 62.4919 155.343 62.4919C156.444 62.4919 157.388 63.1824 157.388 64.7529V65.0764H154.271C154.279 65.8427 154.731 66.2914 155.413 66.2914C155.867 66.2914 156.217 66.0933 156.36 65.7145L157.345 65.8252C157.158 66.6032 156.441 67.1131 155.398 67.1131ZM154.274 64.3654H156.377C156.371 63.7564 155.964 63.3135 155.357 63.3135C154.728 63.3135 154.306 63.7943 154.274 64.3654ZM160.233 67.1131C158.896 67.1131 158.088 66.1603 158.088 64.8054C158.088 63.4388 158.916 62.4919 160.227 62.4919C161.32 62.4919 162.077 63.13 162.15 64.1002H161.142C161.06 63.669 160.749 63.3427 160.242 63.3427C159.592 63.3427 159.158 63.8846 159.158 64.7879C159.158 65.7028 159.583 66.2535 160.242 66.2535C160.705 66.2535 161.052 65.9767 161.142 65.4959H162.15C162.074 66.4458 161.358 67.1131 160.233 67.1131ZM165.251 62.5501V63.366H164.368V65.6795C164.368 66.1049 164.581 66.1982 164.846 66.1982C164.977 66.1982 165.097 66.1719 165.155 66.1574L165.333 66.982C165.219 67.0198 165.012 67.0781 164.712 67.0868C163.92 67.1102 163.308 66.6964 163.313 65.8543V63.366H162.678V62.5501H163.313V61.4779H164.368V62.5501H165.251ZM166.133 67.0257V62.5501H167.188V67.0257H166.133ZM166.664 61.9149C166.326 61.9149 166.052 61.6585 166.052 61.3438C166.052 61.0262 166.326 60.7698 166.664 60.7698C166.999 60.7698 167.273 61.0262 167.273 61.3438C167.273 61.6585 166.999 61.9149 166.664 61.9149ZM170.225 67.1131C168.914 67.1131 168.08 66.1894 168.08 64.8054C168.08 63.4184 168.914 62.4919 170.225 62.4919C171.536 62.4919 172.369 63.4184 172.369 64.8054C172.369 66.1894 171.536 67.1131 170.225 67.1131ZM170.231 66.2681C170.945 66.2681 171.3 65.6212 171.3 64.8025C171.3 63.9837 170.945 63.3281 170.231 63.3281C169.505 63.3281 169.15 63.9837 169.15 64.8025C169.15 65.6212 169.505 66.2681 170.231 66.2681ZM174.319 64.4033V67.0257H173.265V62.5501H174.273V63.3106H174.325C174.529 62.8124 174.99 62.4919 175.66 62.4919C176.583 62.4919 177.195 63.1037 177.192 64.176V67.0257H176.138V64.3392C176.138 63.7419 175.811 63.3835 175.266 63.3835C174.71 63.3835 174.319 63.7564 174.319 64.4033ZM182.567 62.5501V63.366H181.637V67.0257H180.583V63.366H179.921V62.5501H180.583V62.1276C180.583 61.2244 181.203 60.7786 181.981 60.7786C182.345 60.7786 182.645 60.8543 182.782 60.9009L182.57 61.7168C182.482 61.6906 182.342 61.6527 182.176 61.6527C181.783 61.6527 181.637 61.8479 181.637 62.1976V62.5501H182.567ZM185.177 67.1131C183.866 67.1131 183.032 66.1894 183.032 64.8054C183.032 63.4184 183.866 62.4919 185.177 62.4919C186.488 62.4919 187.321 63.4184 187.321 64.8054C187.321 66.1894 186.488 67.1131 185.177 67.1131ZM185.183 66.2681C185.897 66.2681 186.252 65.6212 186.252 64.8025C186.252 63.9837 185.897 63.3281 185.183 63.3281C184.457 63.3281 184.102 63.9837 184.102 64.8025C184.102 65.6212 184.457 66.2681 185.183 66.2681ZM188.217 67.0257V62.5501H189.239V63.2961H189.286C189.449 62.7774 189.877 62.486 190.39 62.486C190.507 62.486 190.673 62.4977 190.769 62.5152V63.4854C190.679 63.4563 190.457 63.4243 190.28 63.4243C189.7 63.4243 189.271 63.8264 189.271 64.3945V67.0257H188.217ZM117.871 79.0257V73.0583H121.693V73.9645H118.952V75.5845H121.431V76.4907H118.952V79.0257H117.871ZM122.632 79.0257V74.5501H123.686V79.0257H122.632ZM123.162 73.9149C122.824 73.9149 122.55 73.6585 122.55 73.3438C122.55 73.0262 122.824 72.7698 123.162 72.7698C123.497 72.7698 123.771 73.0262 123.771 73.3438C123.771 73.6585 123.497 73.9149 123.162 73.9149ZM124.771 79.0257V74.5501H125.794V75.2961H125.84C126.004 74.7774 126.432 74.486 126.945 74.486C127.061 74.486 127.227 74.4977 127.324 74.5152V75.4854C127.233 75.4563 127.012 75.4243 126.834 75.4243C126.254 75.4243 125.826 75.8264 125.826 76.3945V79.0257H124.771ZM129.821 79.1131C128.472 79.1131 127.648 78.2185 127.648 76.8141C127.648 75.433 128.484 74.4919 129.766 74.4919C130.867 74.4919 131.811 75.1824 131.811 76.7529V77.0764H128.694C128.702 77.8427 129.154 78.2914 129.836 78.2914C130.29 78.2914 130.64 78.0933 130.783 77.7145L131.768 77.8252C131.581 78.6032 130.864 79.1131 129.821 79.1131ZM128.697 76.3654H130.8C130.795 75.7564 130.387 75.3135 129.781 75.3135C129.151 75.3135 128.729 75.7943 128.697 76.3654ZM134.971 74.5501V75.366H134.041V79.0257H132.986V75.366H132.325V74.5501H132.986V74.1276C132.986 73.2244 133.607 72.7786 134.385 72.7786C134.749 72.7786 135.049 72.8543 135.186 72.9009L134.974 73.7168C134.886 73.6906 134.746 73.6527 134.58 73.6527C134.187 73.6527 134.041 73.8479 134.041 74.1976V74.5501H134.971ZM137.581 79.1131C136.269 79.1131 135.436 78.1894 135.436 76.8054C135.436 75.4184 136.269 74.4919 137.581 74.4919C138.892 74.4919 139.725 75.4184 139.725 76.8054C139.725 78.1894 138.892 79.1131 137.581 79.1131ZM137.586 78.2681C138.3 78.2681 138.656 77.6212 138.656 76.8025C138.656 75.9837 138.3 75.3281 137.586 75.3281C136.861 75.3281 136.505 75.9837 136.505 76.8025C136.505 77.6212 136.861 78.2681 137.586 78.2681ZM141.315 74.5501L142.218 76.2022L143.136 74.5501H144.252L142.903 76.7879L144.275 79.0257H143.165L142.218 77.4144L141.28 79.0257H140.161L141.524 76.7879L140.196 74.5501H141.315ZM147.103 79.0257V74.5501H148.158V79.0257H147.103ZM147.633 73.9149C147.295 73.9149 147.021 73.6585 147.021 73.3438C147.021 73.0262 147.295 72.7698 147.633 72.7698C147.968 72.7698 148.242 73.0262 148.242 73.3438C148.242 73.6585 147.968 73.9149 147.633 73.9149ZM152.78 75.7331L151.818 75.838C151.736 75.5437 151.48 75.2786 150.993 75.2786C150.553 75.2786 150.218 75.4884 150.221 75.7914C150.218 76.0507 150.399 76.2081 150.854 76.31L151.617 76.4732C152.462 76.6568 152.873 77.0472 152.876 77.6853C152.873 78.5332 152.083 79.1131 150.964 79.1131C149.866 79.1131 149.175 78.6265 149.044 77.8048L150.073 77.7057C150.163 78.1078 150.478 78.3176 150.961 78.3176C151.463 78.3176 151.795 78.0874 151.795 77.7815C151.795 77.528 151.602 77.3619 151.192 77.2716L150.428 77.1113C149.569 76.9336 149.166 76.5023 149.169 75.8497C149.166 75.0222 149.901 74.4919 150.979 74.4919C152.028 74.4919 152.634 74.9755 152.78 75.7331ZM157.733 79.1131C156.422 79.1131 155.588 78.1894 155.588 76.8054C155.588 75.4184 156.422 74.4919 157.733 74.4919C159.044 74.4919 159.877 75.4184 159.877 76.8054C159.877 78.1894 159.044 79.1131 157.733 79.1131ZM157.739 78.2681C158.453 78.2681 158.808 77.6212 158.808 76.8025C158.808 75.9837 158.453 75.3281 157.739 75.3281C157.013 75.3281 156.658 75.9837 156.658 76.8025C156.658 77.6212 157.013 78.2681 157.739 78.2681ZM161.827 76.4033V79.0257H160.773V74.5501H161.781V75.3106H161.833C162.037 74.8124 162.498 74.4919 163.168 74.4919C164.091 74.4919 164.703 75.1037 164.7 76.176V79.0257H163.646V76.3392C163.646 75.7419 163.319 75.3835 162.774 75.3835C162.218 75.3835 161.827 75.7564 161.827 76.4033Z" fill="white"/>
<path d="M119.526 93.1483C119.141 93.1483 118.814 93.0438 118.544 92.8347C118.274 92.624 118.067 92.3189 117.925 91.9194C117.782 91.5183 117.71 91.0339 117.71 90.4662C117.71 89.9019 117.782 89.4201 117.925 89.0206C118.069 88.6195 118.276 88.3136 118.547 88.1028C118.819 87.8903 119.145 87.7841 119.526 87.7841C119.906 87.7841 120.232 87.8903 120.502 88.1028C120.774 88.3136 120.981 88.6195 121.124 89.0206C121.269 89.4201 121.341 89.9019 121.341 90.4662C121.341 91.0339 121.27 91.5183 121.127 91.9194C120.984 92.3189 120.777 92.624 120.507 92.8347C120.237 93.0438 119.91 93.1483 119.526 93.1483ZM119.526 92.5874C119.906 92.5874 120.202 92.4039 120.413 92.0367C120.624 91.6696 120.729 91.1461 120.729 90.4662C120.729 90.0141 120.681 89.6291 120.584 89.3113C120.488 88.9934 120.351 88.7512 120.171 88.5847C119.992 88.4181 119.777 88.3348 119.526 88.3348C119.148 88.3348 118.853 88.5209 118.641 88.8931C118.428 89.2637 118.322 89.788 118.322 90.4662C118.322 90.9183 118.37 91.3025 118.465 91.6186C118.56 91.9347 118.697 92.1752 118.875 92.3401C119.056 92.505 119.272 92.5874 119.526 92.5874ZM124.013 93.1483C123.629 93.1483 123.301 93.0438 123.031 92.8347C122.761 92.624 122.554 92.3189 122.412 91.9194C122.269 91.5183 122.198 91.0339 122.198 90.4662C122.198 89.9019 122.269 89.4201 122.412 89.0206C122.556 88.6195 122.764 88.3136 123.034 88.1028C123.306 87.8903 123.632 87.7841 124.013 87.7841C124.394 87.7841 124.719 87.8903 124.989 88.1028C125.261 88.3136 125.469 88.6195 125.611 89.0206C125.756 89.4201 125.828 89.9019 125.828 90.4662C125.828 91.0339 125.757 91.5183 125.614 91.9194C125.471 92.3189 125.265 92.624 124.994 92.8347C124.724 93.0438 124.397 93.1483 124.013 93.1483ZM124.013 92.5874C124.394 92.5874 124.689 92.4039 124.9 92.0367C125.111 91.6696 125.216 91.1461 125.216 90.4662C125.216 90.0141 125.168 89.6291 125.071 89.3113C124.976 88.9934 124.838 88.7512 124.658 88.5847C124.479 88.4181 124.264 88.3348 124.013 88.3348C123.635 88.3348 123.341 88.5209 123.128 88.8931C122.916 89.2637 122.809 89.788 122.809 90.4662C122.809 90.9183 122.857 91.3025 122.952 91.6186C123.047 91.9347 123.184 92.1752 123.363 92.3401C123.543 92.505 123.76 92.5874 124.013 92.5874ZM127.246 92.409C127.12 92.409 127.012 92.3639 126.922 92.2738C126.832 92.1837 126.787 92.0758 126.787 91.95C126.787 91.8243 126.832 91.7163 126.922 91.6263C127.012 91.5362 127.12 91.4911 127.246 91.4911C127.371 91.4911 127.479 91.5362 127.569 91.6263C127.659 91.7163 127.705 91.8243 127.705 91.95C127.705 92.0333 127.683 92.1098 127.641 92.1795C127.6 92.2492 127.545 92.3053 127.475 92.3478C127.407 92.3886 127.331 92.409 127.246 92.409ZM127.246 89.7676C127.12 89.7676 127.012 89.7226 126.922 89.6325C126.832 89.5424 126.787 89.4345 126.787 89.3087C126.787 89.1829 126.832 89.075 126.922 88.9849C127.012 88.8948 127.12 88.8498 127.246 88.8498C127.371 88.8498 127.479 88.8948 127.569 88.9849C127.659 89.075 127.705 89.1829 127.705 89.3087C127.705 89.392 127.683 89.4685 127.641 89.5382C127.6 89.6079 127.545 89.664 127.475 89.7065C127.407 89.7472 127.331 89.7676 127.246 89.7676ZM130.477 93.1483C130.093 93.1483 129.766 93.0438 129.496 92.8347C129.225 92.624 129.019 92.3189 128.876 91.9194C128.733 91.5183 128.662 91.0339 128.662 90.4662C128.662 89.9019 128.733 89.4201 128.876 89.0206C129.021 88.6195 129.228 88.3136 129.498 88.1028C129.77 87.8903 130.096 87.7841 130.477 87.7841C130.858 87.7841 131.183 87.8903 131.454 88.1028C131.726 88.3136 131.933 88.6195 132.076 89.0206C132.22 89.4201 132.292 89.9019 132.292 90.4662C132.292 91.0339 132.221 91.5183 132.078 91.9194C131.935 92.3189 131.729 92.624 131.459 92.8347C131.188 93.0438 130.861 93.1483 130.477 93.1483ZM130.477 92.5874C130.858 92.5874 131.154 92.4039 131.364 92.0367C131.575 91.6696 131.681 91.1461 131.681 90.4662C131.681 90.0141 131.632 89.6291 131.535 89.3113C131.44 88.9934 131.302 88.7512 131.122 88.5847C130.944 88.4181 130.729 88.3348 130.477 88.3348C130.1 88.3348 129.805 88.5209 129.592 88.8931C129.38 89.2637 129.274 89.788 129.274 90.4662C129.274 90.9183 129.321 91.3025 129.417 91.6186C129.512 91.9347 129.649 92.1752 129.827 92.3401C130.007 92.505 130.224 92.5874 130.477 92.5874ZM133.139 92.0061V91.486L135.433 87.8555H135.811V88.6611H135.556L133.822 91.4044V91.4452H136.912V92.0061H133.139ZM135.597 93.0769V91.8481V91.6059V87.8555H136.198V93.0769H135.597ZM138.316 92.409C138.191 92.409 138.083 92.3639 137.993 92.2738C137.902 92.1837 137.857 92.0758 137.857 91.95C137.857 91.8243 137.902 91.7163 137.993 91.6263C138.083 91.5362 138.191 91.4911 138.316 91.4911C138.442 91.4911 138.55 91.5362 138.64 91.6263C138.73 91.7163 138.775 91.8243 138.775 91.95C138.775 92.0333 138.754 92.1098 138.712 92.1795C138.671 92.2492 138.615 92.3053 138.546 92.3478C138.478 92.3886 138.401 92.409 138.316 92.409ZM138.316 89.7676C138.191 89.7676 138.083 89.7226 137.993 89.6325C137.902 89.5424 137.857 89.4345 137.857 89.3087C137.857 89.1829 137.902 89.075 137.993 88.9849C138.083 88.8948 138.191 88.8498 138.316 88.8498C138.442 88.8498 138.55 88.8948 138.64 88.9849C138.73 89.075 138.775 89.1829 138.775 89.3087C138.775 89.392 138.754 89.4685 138.712 89.5382C138.671 89.6079 138.615 89.664 138.546 89.7065C138.478 89.7472 138.401 89.7676 138.316 89.7676ZM141.609 93.1483C141.273 93.1483 140.973 93.0905 140.709 92.975C140.447 92.8594 140.239 92.6988 140.084 92.4931C139.931 92.2857 139.848 92.0452 139.835 91.7716H140.477C140.491 91.9398 140.548 92.0852 140.65 92.2075C140.752 92.3282 140.886 92.4217 141.051 92.488C141.216 92.5543 141.398 92.5874 141.599 92.5874C141.823 92.5874 142.022 92.5483 142.195 92.4701C142.369 92.392 142.505 92.2832 142.603 92.1438C142.702 92.0044 142.751 91.843 142.751 91.6594C142.751 91.4673 142.704 91.2982 142.608 91.152C142.513 91.0042 142.374 90.8886 142.19 90.8053C142.007 90.722 141.782 90.6804 141.517 90.6804H141.099V90.1195H141.517C141.725 90.1195 141.906 90.0821 142.063 90.0073C142.221 89.9325 142.344 89.8271 142.433 89.6912C142.523 89.5552 142.568 89.3954 142.568 89.2118C142.568 89.0351 142.529 88.8813 142.45 88.7504C142.372 88.6195 142.262 88.5175 142.119 88.4444C141.978 88.3713 141.811 88.3348 141.619 88.3348C141.439 88.3348 141.269 88.3679 141.109 88.4342C140.951 88.4988 140.822 88.5932 140.722 88.7172C140.622 88.8396 140.567 88.9875 140.559 89.1609H139.947C139.957 88.8872 140.039 88.6475 140.194 88.4419C140.349 88.2345 140.551 88.073 140.801 87.9575C141.052 87.8419 141.329 87.7841 141.629 87.7841C141.952 87.7841 142.229 87.8495 142.461 87.9804C142.692 88.1096 142.869 88.2804 142.993 88.4929C143.118 88.7053 143.18 88.9348 143.18 89.1812C143.18 89.4753 143.102 89.726 142.948 89.9334C142.795 90.1407 142.586 90.2843 142.323 90.3642V90.405C142.653 90.4594 142.91 90.5996 143.095 90.8257C143.281 91.0501 143.373 91.328 143.373 91.6594C143.373 91.9432 143.296 92.1982 143.141 92.4243C142.988 92.6486 142.779 92.8254 142.514 92.9546C142.249 93.0837 141.947 93.1483 141.609 93.1483ZM144.579 93.0769L146.915 88.4572V88.4164H144.222V87.8555H147.567V88.447L145.242 93.0769H144.579Z" fill="white" fill-opacity="0.8"/>
<rect x="207.026" y="70.8974" width="23.0769" height="12.3077" rx="6.15385" fill="#3FE1B0"/>
<path fill-rule="evenodd" clip-rule="evenodd" d="M223.949 81.6667C226.498 81.6667 228.564 79.6003 228.564 77.0513C228.564 74.5023 226.498 72.4359 223.949 72.4359C221.4 72.4359 219.333 74.5023 219.333 77.0513C219.333 79.6003 221.4 81.6667 223.949 81.6667Z" fill="white"/>
</g>
<rect opacity="0.15" x="79.6899" y="62.0234" width="30.0557" height="30.0557" rx="15.0279" stroke="white" stroke-width="2.05128"/>
<rect opacity="0.1" x="70.6154" y="52.9487" width="48.2051" height="48.2051" rx="24.1026" stroke="white" stroke-width="1.02564"/>
<mask id="path-18-inside-1_175_4277" fill="white">
<path d="M74.2051 106.282H238.308V122.692C238.308 124.958 236.471 126.795 234.205 126.795H78.3077C76.0419 126.795 74.2051 124.958 74.2051 122.692V106.282Z"/>
</mask>
<path d="M74.2051 106.282H238.308V122.692C238.308 124.958 236.471 126.795 234.205 126.795H78.3077C76.0419 126.795 74.2051 124.958 74.2051 122.692V106.282Z" fill="#321C64"/>
<path d="M74.2051 105.769H238.308V106.795H74.2051V105.769ZM238.308 126.795H74.2051H238.308ZM74.2051 126.795V106.282V126.795ZM238.308 106.282V126.795V106.282Z" fill="white" fill-opacity="0.2" mask="url(#path-18-inside-1_175_4277)"/>
<g clip-path="url(#clip1_175_4277)">
<path d="M85.3732 113.576C84.8697 113.576 84.4615 113.984 84.4615 114.487V118.59C84.4615 119.093 84.8697 119.501 85.3732 119.501H86.7407V113.576H85.3732ZM91.755 113.576H90.3875V119.501H91.755C92.2584 119.501 92.6667 119.093 92.6667 118.59V114.487C92.6667 113.984 92.2584 113.576 91.755 113.576Z" fill="#D52B1E"/>
<path d="M86.7407 113.576H90.3874V119.501H86.7407V113.576Z" fill="#EEEEEE"/>
<path d="M88.7043 117.476C88.9773 117.508 89.2221 117.536 89.4949 117.567L89.4254 117.339C89.4142 117.299 89.4302 117.255 89.4616 117.23L90.2546 116.584L90.0905 116.507C90.0182 116.481 90.038 116.441 90.0643 116.343L90.1853 115.901L89.7247 115.999C89.6798 116.006 89.6499 115.977 89.6431 115.95L89.5836 115.742L89.2194 116.151C89.1676 116.217 89.0628 116.217 89.0954 116.065L89.251 115.237L89.042 115.345C88.9835 115.378 88.9249 115.384 88.8923 115.325L88.604 114.786V114.799V114.786L88.3157 115.325C88.2828 115.384 88.2243 115.378 88.1657 115.345L87.9569 115.237L88.1126 116.065C88.1454 116.217 88.0403 116.217 87.9886 116.151L87.6244 115.742L87.5651 115.95C87.5583 115.977 87.5282 116.006 87.4833 115.999L87.0227 115.902L87.1437 116.343C87.1694 116.441 87.1895 116.482 87.1173 116.507L86.9531 116.585L87.7461 117.231C87.7775 117.255 87.7935 117.299 87.7821 117.339L87.7126 117.568L88.5035 117.476C88.5276 117.476 88.5436 117.49 88.5433 117.517L88.4946 118.362H88.7125L88.6639 117.517C88.6644 117.489 88.6801 117.476 88.7043 117.476Z" fill="#D52B1E"/>
</g>
<path d="M97.1159 114.378V113.817H101.032V114.378H99.3901V119.038H98.7578V114.378H97.1159ZM102.949 119.12C102.596 119.12 102.286 119.036 102.019 118.868C101.754 118.699 101.546 118.464 101.397 118.161C101.249 117.859 101.175 117.505 101.175 117.101C101.175 116.693 101.249 116.337 101.397 116.033C101.546 115.728 101.754 115.492 102.019 115.324C102.286 115.156 102.596 115.071 102.949 115.071C103.303 115.071 103.612 115.156 103.877 115.324C104.144 115.492 104.352 115.728 104.499 116.033C104.649 116.337 104.724 116.693 104.724 117.101C104.724 117.505 104.649 117.859 104.499 118.161C104.352 118.464 104.144 118.699 103.877 118.868C103.612 119.036 103.303 119.12 102.949 119.12ZM102.949 118.58C103.218 118.58 103.439 118.511 103.612 118.373C103.786 118.235 103.914 118.054 103.997 117.83C104.08 117.606 104.122 117.363 104.122 117.101C104.122 116.839 104.08 116.595 103.997 116.369C103.914 116.143 103.786 115.96 103.612 115.821C103.439 115.682 103.218 115.612 102.949 115.612C102.681 115.612 102.46 115.682 102.286 115.821C102.113 115.96 101.985 116.143 101.901 116.369C101.818 116.595 101.776 116.839 101.776 117.101C101.776 117.363 101.818 117.606 101.901 117.83C101.985 118.054 102.113 118.235 102.286 118.373C102.46 118.511 102.681 118.58 102.949 118.58ZM105.642 119.038V115.122H106.224V115.714H106.264C106.336 115.52 106.465 115.363 106.652 115.242C106.839 115.122 107.05 115.061 107.284 115.061C107.328 115.061 107.384 115.062 107.45 115.064C107.516 115.065 107.566 115.068 107.6 115.071V115.683C107.58 115.678 107.533 115.671 107.46 115.66C107.389 115.648 107.313 115.642 107.233 115.642C107.043 115.642 106.873 115.682 106.723 115.762C106.575 115.84 106.458 115.949 106.371 116.089C106.286 116.226 106.244 116.384 106.244 116.56V119.038H105.642ZM109.785 119.12C109.432 119.12 109.121 119.036 108.855 118.868C108.589 118.699 108.382 118.464 108.233 118.161C108.085 117.859 108.011 117.505 108.011 117.101C108.011 116.693 108.085 116.337 108.233 116.033C108.382 115.728 108.589 115.492 108.855 115.324C109.121 115.156 109.432 115.071 109.785 115.071C110.139 115.071 110.448 115.156 110.713 115.324C110.98 115.492 111.187 115.728 111.335 116.033C111.485 116.337 111.56 116.693 111.56 117.101C111.56 117.505 111.485 117.859 111.335 118.161C111.187 118.464 110.98 118.699 110.713 118.868C110.448 119.036 110.139 119.12 109.785 119.12ZM109.785 118.58C110.054 118.58 110.275 118.511 110.448 118.373C110.621 118.235 110.75 118.054 110.833 117.83C110.916 117.606 110.958 117.363 110.958 117.101C110.958 116.839 110.916 116.595 110.833 116.369C110.75 116.143 110.621 115.96 110.448 115.821C110.275 115.682 110.054 115.612 109.785 115.612C109.517 115.612 109.296 115.682 109.122 115.821C108.949 115.96 108.821 116.143 108.737 116.369C108.654 116.595 108.612 116.839 108.612 117.101C108.612 117.363 108.654 117.606 108.737 117.83C108.821 118.054 108.949 118.235 109.122 118.373C109.296 118.511 109.517 118.58 109.785 118.58ZM113.08 116.683V119.038H112.478V115.122H113.059V115.734H113.11C113.202 115.535 113.342 115.376 113.529 115.255C113.716 115.133 113.957 115.071 114.253 115.071C114.518 115.071 114.75 115.126 114.949 115.235C115.148 115.342 115.302 115.505 115.413 115.724C115.523 115.942 115.578 116.217 115.578 116.55V119.038H114.977V116.591C114.977 116.283 114.897 116.044 114.737 115.872C114.577 115.699 114.358 115.612 114.079 115.612C113.887 115.612 113.716 115.654 113.564 115.737C113.415 115.82 113.297 115.942 113.21 116.101C113.123 116.261 113.08 116.455 113.08 116.683ZM118.381 115.122V115.632H116.352V115.122H118.381ZM116.943 114.184H117.545V117.917C117.545 118.087 117.569 118.214 117.619 118.299C117.67 118.382 117.734 118.438 117.812 118.467C117.892 118.495 117.976 118.508 118.065 118.508C118.131 118.508 118.185 118.505 118.228 118.498C118.27 118.489 118.304 118.483 118.33 118.478L118.452 119.018C118.412 119.033 118.355 119.049 118.282 119.064C118.208 119.081 118.116 119.089 118.004 119.089C117.834 119.089 117.667 119.053 117.504 118.98C117.342 118.907 117.208 118.795 117.101 118.646C116.996 118.496 116.943 118.308 116.943 118.08V114.184ZM120.835 119.12C120.481 119.12 120.171 119.036 119.904 118.868C119.639 118.699 119.432 118.464 119.282 118.161C119.134 117.859 119.06 117.505 119.06 117.101C119.06 116.693 119.134 116.337 119.282 116.033C119.432 115.728 119.639 115.492 119.904 115.324C120.171 115.156 120.481 115.071 120.835 115.071C121.188 115.071 121.498 115.156 121.763 115.324C122.03 115.492 122.237 115.728 122.385 116.033C122.535 116.337 122.609 116.693 122.609 117.101C122.609 117.505 122.535 117.859 122.385 118.161C122.237 118.464 122.03 118.699 121.763 118.868C121.498 119.036 121.188 119.12 120.835 119.12ZM120.835 118.58C121.103 118.58 121.324 118.511 121.498 118.373C121.671 118.235 121.799 118.054 121.883 117.83C121.966 117.606 122.008 117.363 122.008 117.101C122.008 116.839 121.966 116.595 121.883 116.369C121.799 116.143 121.671 115.96 121.498 115.821C121.324 115.682 121.103 115.612 120.835 115.612C120.566 115.612 120.345 115.682 120.172 115.821C119.999 115.96 119.87 116.143 119.787 116.369C119.704 116.595 119.662 116.839 119.662 117.101C119.662 117.363 119.704 117.606 119.787 117.83C119.87 118.054 119.999 118.235 120.172 118.373C120.345 118.511 120.566 118.58 120.835 118.58Z" fill="white" fill-opacity="0.8"/>
</g>
<defs>
<filter id="filter0_i_175_4277" x="66" y="15" width="155.897" height="24.6154" filterUnits="userSpaceOnUse" color-interpolation-filters="sRGB">
<feFlood flood-opacity="0" result="BackgroundImageFix"/>
<feBlend mode="normal" in="SourceGraphic" in2="BackgroundImageFix" result="shape"/>
<feColorMatrix in="SourceAlpha" type="matrix" values="0 0 0 0 0 0 0 0 0 0 0 0 0 0 0 0 0 0 127 0" result="hardAlpha"/>
<feOffset dy="-0.51282"/>
<feComposite in2="hardAlpha" operator="arithmetic" k2="-1" k3="1"/>
<feColorMatrix type="matrix" values="0 0 0 0 0.905882 0 0 0 0 0.905882 0 0 0 0 0.905882 0 0 0 1 0"/>
<feBlend mode="normal" in2="shape" result="effect1_innerShadow_175_4277"/>
</filter>
<filter id="filter1_i_175_4277" x="221.897" y="15" width="24.6154" height="24.6154" filterUnits="userSpaceOnUse" color-interpolation-filters="sRGB">
<feFlood flood-opacity="0" result="BackgroundImageFix"/>
<feBlend mode="normal" in="SourceGraphic" in2="BackgroundImageFix" result="shape"/>
<feColorMatrix in="SourceAlpha" type="matrix" values="0 0 0 0 0 0 0 0 0 0 0 0 0 0 0 0 0 0 127 0" result="hardAlpha"/>
<feOffset dy="-0.51282"/>
<feComposite in2="hardAlpha" operator="arithmetic" k2="-1" k3="1"/>
<feColorMatrix type="matrix" values="0 0 0 0 0.905882 0 0 0 0 0.905882 0 0 0 0 0.905882 0 0 0 1 0"/>
<feBlend mode="normal" in2="shape" result="effect1_innerShadow_175_4277"/>
</filter>
<filter id="filter2_d_175_4277" x="72.1538" y="46.282" width="168.205" height="83.0769" filterUnits="userSpaceOnUse" color-interpolation-filters="sRGB">
<feFlood flood-opacity="0" result="BackgroundImageFix"/>
<feColorMatrix in="SourceAlpha" type="matrix" values="0 0 0 0 0 0 0 0 0 0 0 0 0 0 0 0 0 0 127 0" result="hardAlpha"/>
<feOffset dy="0.51282"/>
<feGaussianBlur stdDeviation="1.02564"/>
<feColorMatrix type="matrix" values="0 0 0 0 0.0470588 0 0 0 0 0.0470588 0 0 0 0 0.0509804 0 0 0 0.3 0"/>
<feBlend mode="normal" in2="BackgroundImageFix" result="effect1_dropShadow_175_4277"/>
<feBlend mode="normal" in="SourceGraphic" in2="effect1_dropShadow_175_4277" result="shape"/>
</filter>
<filter id="filter3_d_175_4277" x="72.1538" y="46.282" width="168.205" height="62.5641" filterUnits="userSpaceOnUse" color-interpolation-filters="sRGB">
<feFlood flood-opacity="0" result="BackgroundImageFix"/>
<feColorMatrix in="SourceAlpha" type="matrix" values="0 0 0 0 0 0 0 0 0 0 0 0 0 0 0 0 0 0 127 0" result="hardAlpha"/>
<feOffset dy="0.51282"/>
<feGaussianBlur stdDeviation="1.02564"/>
<feColorMatrix type="matrix" values="0 0 0 0 0.0470588 0 0 0 0 0.0470588 0 0 0 0 0.0509804 0 0 0 0.1 0"/>
<feBlend mode="normal" in2="BackgroundImageFix" result="effect1_dropShadow_175_4277"/>
<feBlend mode="normal" in="SourceGraphic" in2="effect1_dropShadow_175_4277" result="shape"/>
</filter>
<radialGradient id="paint0_radial_175_4277" cx="0" cy="0" r="1" gradientUnits="userSpaceOnUse" gradientTransform="translate(106.411 65.359) rotate(-44.9997) scale(33.0711)">
<stop stop-color="#B833E1"/>
<stop offset="0.371" stop-color="#9059FF"/>
<stop offset="0.614" stop-color="#5B6DF8"/>
<stop offset="1" stop-color="#0090ED"/>
</radialGradient>
<clipPath id="clip0_175_4277">
<rect x="66" y="15" width="180.513" height="120" rx="4.10256" fill="white"/>
</clipPath>
<clipPath id="clip1_175_4277">
<rect width="8.20513" height="8.20513" fill="white" transform="translate(84.4615 112.436)"/>
</clipPath>
</defs>
</svg>
