<svg width="312" height="150" viewBox="0 0 312 150" fill="none" xmlns="http://www.w3.org/2000/svg">
<g clip-path="url(#clip0_159_4412)">
<rect width="312" height="150" fill="#0090ED"/>
<g filter="url(#filter0_d_159_4412)">
<g clip-path="url(#clip1_159_4412)">
<rect x="66" y="15" width="180.513" height="120" rx="4.10256" fill="#42414D"/>
<g filter="url(#filter1_d_159_4412)">
<g filter="url(#filter2_d_159_4412)">
<rect x="74.2051" y="47.8205" width="164.103" height="78.9744" rx="4.10256" fill="#F9F9FA"/>
</g>
<g filter="url(#filter3_d_159_4412)">
<path d="M74.2051 51.9231C74.2051 49.6573 76.0419 47.8205 78.3077 47.8205H234.205C236.471 47.8205 238.308 49.6573 238.308 51.9231V106.282H74.2051V51.9231Z" fill="#321C64"/>
<rect x="95.641" y="66.282" width="9.84616" height="9.84616" rx="4.92308" fill="#00DDFF"/>
<path fill-rule="evenodd" clip-rule="evenodd" d="M94.2546 72.6053H90.9661C91.7408 70.0359 93.1468 68.2821 94.7179 68.2821C94.745 68.2821 94.7721 68.2826 94.7992 68.2837C95.3564 67.1864 96.2176 66.2695 97.272 65.644C96.4401 65.4569 95.584 65.36 94.7179 65.359C92.4054 65.359 90.1448 66.0448 88.222 67.3295C86.2992 68.6143 84.8006 70.4404 83.9156 72.5769C83.0307 74.7134 82.7991 77.0643 83.2503 79.3324C83.7014 81.6005 84.815 83.6838 86.4502 85.319C88.0854 86.9542 90.1688 88.0678 92.4369 88.519C94.7049 88.9701 97.0559 88.7386 99.1924 87.8536C101.329 86.9686 103.155 85.47 104.44 83.5472C105.724 81.6244 106.41 79.3638 106.41 77.0513C106.409 76.1852 106.312 75.3291 106.125 74.4972C105.5 75.5513 104.583 76.4124 103.487 76.9696C103.487 76.9968 103.487 77.0241 103.487 77.0513C103.485 78.0259 103.32 78.9932 102.998 79.913H100.336C100.456 79.1693 100.528 78.4191 100.554 77.6667C100.052 77.6659 99.5646 77.608 99.0963 77.4993C99.0739 78.3087 98.991 79.1155 98.8482 79.913H90.5876C90.2479 78.0203 90.2479 76.0823 90.5876 74.1896H94.8316C94.5738 73.6956 94.3781 73.164 94.2546 72.6053ZM90.9661 81.4973C91.7408 84.0667 93.1468 85.8205 94.7179 85.8205C96.2891 85.8205 97.6951 84.0667 98.4711 81.4973H90.9661ZM86.4383 74.1896C86.1162 75.1094 85.9507 76.0768 85.9487 77.0513C85.9507 78.0259 86.1162 78.9932 86.4383 79.913H89.0998C88.7956 78.0173 88.7956 76.0853 89.0998 74.1896H86.4383ZM89.4403 72.6053C89.7519 71.3691 90.2714 70.1949 90.9764 69.1327C89.3907 69.8856 88.066 71.0947 87.172 72.6053H89.4403ZM89.4403 81.4973H87.1764H87.172C88.066 83.0079 89.3907 84.2171 90.9764 84.9699C90.2714 83.9078 89.7519 82.7335 89.4403 81.4973ZM98.4659 84.9669C100.05 84.2145 101.374 83.0065 102.268 81.4973H99.9999C99.6886 82.7323 99.1698 83.9055 98.4659 84.9669Z" fill="url(#paint0_radial_159_4412)"/>
<path fill-rule="evenodd" clip-rule="evenodd" d="M100.564 73.3654L100.53 73.3617C100.037 73.2826 99.594 73.0148 99.2952 72.615C98.9476 72.1427 98.7542 71.5747 98.7413 70.9885C98.7179 70.7303 98.7179 70.1636 98.7179 69.8482C98.7172 69.5719 98.9156 69.3352 99.1878 69.2876L100.564 69.0513L101.94 69.2876C102.212 69.335 102.411 69.5719 102.41 69.8485C102.41 70.1633 102.41 70.7303 102.386 70.9885C102.373 71.5747 102.179 72.1427 101.832 72.615C101.533 73.0148 101.09 73.2826 100.597 73.3617L100.564 73.3654ZM99.3333 69.8867C99.3333 70.0766 99.3311 70.2449 99.3293 70.3896C99.3262 70.6256 99.324 70.799 99.3333 70.902C99.3414 71.3882 99.5014 71.8597 99.7909 72.2504C99.98 72.5035 100.255 72.6791 100.564 72.7442C100.873 72.6791 101.148 72.5035 101.337 72.2504C101.627 71.8597 101.787 71.3882 101.795 70.902C101.804 70.799 101.802 70.6256 101.799 70.3896V70.3895C101.797 70.2449 101.795 70.0766 101.795 69.8867L100.564 69.6759L99.3333 69.8867ZM99.7949 70.2759L100.564 70.1442V72.2676H100.562C100.402 72.2139 100.262 72.1127 100.162 71.9774C99.9293 71.6635 99.8071 71.2817 99.8139 70.8913C99.8041 70.7851 99.7976 70.5657 99.7949 70.2759Z" fill="white"/>
<path d="M117.871 67.0256V61.0583H118.952V66.1195H121.58V67.0256H117.871ZM123.759 67.116C122.906 67.116 122.262 66.6498 122.262 65.7698C122.262 64.7616 123.092 64.5023 123.96 64.4091C124.75 64.3246 125.068 64.31 125.068 64.007V63.9895C125.068 63.5495 124.799 63.2989 124.31 63.2989C123.794 63.2989 123.497 63.5612 123.392 63.8671L122.407 63.7273C122.64 62.9114 123.363 62.4918 124.304 62.4918C125.158 62.4918 126.122 62.8473 126.122 64.0303V67.0256H125.108V66.4108H125.073C124.881 66.7867 124.461 67.116 123.759 67.116ZM124.033 66.3409C124.668 66.3409 125.07 65.9184 125.07 65.4202V64.8928C124.933 65.0035 124.38 65.0734 124.103 65.1113C123.631 65.1783 123.278 65.3473 123.278 65.7523C123.278 66.1399 123.593 66.3409 124.033 66.3409ZM129.218 68.704V62.5501H130.255V63.2902H130.317C130.477 62.9668 130.806 62.4918 131.596 62.4918C132.63 62.4918 133.443 63.3019 133.443 64.7937C133.443 66.2681 132.653 67.1043 131.599 67.1043C130.829 67.1043 130.483 66.6468 130.317 66.3205H130.273V68.704H129.218ZM130.253 64.7879C130.253 65.6562 130.631 66.2389 131.304 66.2389C132.001 66.2389 132.368 65.627 132.368 64.7879C132.368 63.9545 132.007 63.3572 131.304 63.3572C130.626 63.3572 130.253 63.9196 130.253 64.7879ZM134.346 67.0256V62.5501H135.369V63.296H135.416C135.579 62.7774 136.007 62.486 136.52 62.486C136.637 62.486 136.803 62.4977 136.899 62.5151V63.4854C136.808 63.4563 136.587 63.4242 136.409 63.4242C135.829 63.4242 135.401 63.8263 135.401 64.3945V67.0256H134.346ZM139.368 67.113C138.056 67.113 137.223 66.1894 137.223 64.8054C137.223 63.4184 138.056 62.4918 139.368 62.4918C140.679 62.4918 141.512 63.4184 141.512 64.8054C141.512 66.1894 140.679 67.113 139.368 67.113ZM139.373 66.2681C140.087 66.2681 140.443 65.6212 140.443 64.8024C140.443 63.9837 140.087 63.3281 139.373 63.3281C138.648 63.3281 138.292 63.9837 138.292 64.8024C138.292 65.6212 138.648 66.2681 139.373 66.2681ZM144.642 62.5501V63.366H143.759V65.6795C143.759 66.1049 143.972 66.1981 144.237 66.1981C144.368 66.1981 144.488 66.1719 144.546 66.1573L144.724 66.9819C144.61 67.0198 144.403 67.0781 144.103 67.0868C143.311 67.1101 142.699 66.6964 142.704 65.8543V63.366H142.069V62.5501H142.704V61.4778H143.759V62.5501H144.642ZM147.458 67.113C146.108 67.113 145.284 66.2185 145.284 64.8141C145.284 63.433 146.12 62.4918 147.402 62.4918C148.504 62.4918 149.448 63.1824 149.448 64.7529V65.0763H146.33C146.339 65.8427 146.79 66.2914 147.472 66.2914C147.927 66.2914 148.276 66.0932 148.419 65.7144L149.404 65.8252C149.217 66.6031 148.501 67.113 147.458 67.113ZM146.333 64.3654H148.437C148.431 63.7564 148.023 63.3135 147.417 63.3135C146.787 63.3135 146.365 63.7943 146.333 64.3654ZM150.282 67.0256V66.3555L152.589 63.4621V63.4242H150.357V62.5501H153.88V63.2698L151.683 66.1136V66.1515H153.956V67.0256H150.282ZM154.947 67.0256V62.5501H156.002V67.0256H154.947ZM155.478 61.9149C155.14 61.9149 154.866 61.6585 154.866 61.3438C154.866 61.0262 155.14 60.7698 155.478 60.7698C155.813 60.7698 156.087 61.0262 156.087 61.3438C156.087 61.6585 155.813 61.9149 155.478 61.9149ZM159.039 67.113C157.728 67.113 156.894 66.1894 156.894 64.8054C156.894 63.4184 157.728 62.4918 159.039 62.4918C160.35 62.4918 161.183 63.4184 161.183 64.8054C161.183 66.1894 160.35 67.113 159.039 67.113ZM159.045 66.2681C159.759 66.2681 160.114 65.6212 160.114 64.8024C160.114 63.9837 159.759 63.3281 159.045 63.3281C158.319 63.3281 157.964 63.9837 157.964 64.8024C157.964 65.6212 158.319 66.2681 159.045 66.2681ZM163.134 64.4033V67.0256H162.079V62.5501H163.087V63.3106H163.139C163.343 62.8123 163.804 62.4918 164.474 62.4918C165.398 62.4918 166.009 63.1037 166.006 64.176V67.0256H164.952V64.3392C164.952 63.7418 164.625 63.3834 164.08 63.3834C163.524 63.3834 163.134 63.7564 163.134 64.4033ZM169.06 67.113C167.711 67.113 166.886 66.2185 166.886 64.8141C166.886 63.433 167.723 62.4918 169.005 62.4918C170.106 62.4918 171.05 63.1824 171.05 64.7529V65.0763H167.932C167.941 65.8427 168.393 66.2914 169.075 66.2914C169.529 66.2914 169.879 66.0932 170.022 65.7144L171.006 65.8252C170.82 66.6031 170.103 67.113 169.06 67.113ZM167.935 64.3654H170.039C170.033 63.7564 169.625 63.3135 169.019 63.3135C168.39 63.3135 167.967 63.7943 167.935 64.3654ZM174.823 61.0583L176.376 65.7552H176.437L177.987 61.0583H179.176L177.072 67.0256H175.738L173.637 61.0583H174.823ZM179.962 67.0256V61.0583H182.2C183.572 61.0583 184.303 61.8945 184.303 63.0338C184.303 64.1818 183.563 65.0093 182.185 65.0093H181.043V67.0256H179.962ZM181.043 64.1206H182.039C182.844 64.1206 183.202 63.669 183.202 63.0338C183.202 62.3986 182.844 61.9615 182.034 61.9615H181.043V64.1206ZM190.146 61.0583V67.0256H189.185L186.373 62.9609H186.323V67.0256H185.242V61.0583H186.21L189.019 65.1259H189.071V61.0583H190.146ZM117.824 80.704V74.5501H118.861V75.2902H118.922C119.083 74.9668 119.412 74.4918 120.202 74.4918C121.236 74.4918 122.049 75.3019 122.049 76.7937C122.049 78.2681 121.259 79.1043 120.204 79.1043C119.435 79.1043 119.089 78.6468 118.922 78.3205H118.879V80.704H117.824ZM118.858 76.7879C118.858 77.6562 119.237 78.2389 119.91 78.2389C120.607 78.2389 120.974 77.627 120.974 76.7879C120.974 75.9545 120.612 75.3572 119.91 75.3572C119.231 75.3572 118.858 75.9196 118.858 76.7879ZM124.933 79.113C123.584 79.113 122.76 78.2185 122.76 76.8141C122.76 75.433 123.596 74.4918 124.878 74.4918C125.98 74.4918 126.924 75.1824 126.924 76.7529V77.0763H123.806C123.815 77.8427 124.266 78.2914 124.948 78.2914C125.403 78.2914 125.752 78.0932 125.895 77.7144L126.88 77.8252C126.693 78.6031 125.977 79.113 124.933 79.113ZM123.809 76.3654H125.913C125.907 75.7564 125.499 75.3135 124.893 75.3135C124.263 75.3135 123.841 75.7943 123.809 76.3654ZM127.816 79.0256V74.5501H128.839V75.296H128.885C129.048 74.7774 129.477 74.486 129.99 74.486C130.106 74.486 130.272 74.4977 130.368 74.5151V75.4854C130.278 75.4563 130.057 75.4242 129.879 75.4242C129.299 75.4242 128.871 75.8263 128.871 76.3945V79.0256H127.816ZM133.151 79.0256V73.0583H136.974V73.9644H134.232V75.5845H136.712V76.4907H134.232V79.0256H133.151ZM137.912 79.0256V74.5501H138.967V79.0256H137.912ZM138.442 73.9149C138.104 73.9149 137.83 73.6585 137.83 73.3438C137.83 73.0262 138.104 72.7698 138.442 72.7698C138.777 72.7698 139.051 73.0262 139.051 73.3438C139.051 73.6585 138.777 73.9149 138.442 73.9149ZM140.052 79.0256V74.5501H141.074V75.296H141.121C141.284 74.7774 141.712 74.486 142.225 74.486C142.342 74.486 142.508 74.4977 142.604 74.5151V75.4854C142.514 75.4563 142.292 75.4242 142.114 75.4242C141.535 75.4242 141.106 75.8263 141.106 76.3945V79.0256H140.052ZM145.102 79.113C143.753 79.113 142.928 78.2185 142.928 76.8141C142.928 75.433 143.764 74.4918 145.046 74.4918C146.148 74.4918 147.092 75.1824 147.092 76.7529V77.0763H143.974C143.983 77.8427 144.435 78.2914 145.116 78.2914C145.571 78.2914 145.921 78.0932 146.063 77.7144L147.048 77.8252C146.862 78.6031 146.145 79.113 145.102 79.113ZM143.977 76.3654H146.081C146.075 75.7564 145.667 75.3135 145.061 75.3135C144.432 75.3135 144.009 75.7943 143.977 76.3654ZM150.251 74.5501V75.366H149.322V79.0256H148.267V75.366H147.605V74.5501H148.267V74.1276C148.267 73.2244 148.887 72.7785 149.665 72.7785C150.03 72.7785 150.33 72.8543 150.467 72.9009L150.254 73.7168C150.167 73.6906 150.027 73.6527 149.861 73.6527C149.467 73.6527 149.322 73.8479 149.322 74.1975V74.5501H150.251ZM152.861 79.113C151.55 79.113 150.717 78.1894 150.717 76.8054C150.717 75.4184 151.55 74.4918 152.861 74.4918C154.172 74.4918 155.006 75.4184 155.006 76.8054C155.006 78.1894 154.172 79.113 152.861 79.113ZM152.867 78.2681C153.581 78.2681 153.936 77.6212 153.936 76.8024C153.936 75.9837 153.581 75.3281 152.867 75.3281C152.141 75.3281 151.786 75.9837 151.786 76.8024C151.786 77.6212 152.141 78.2681 152.867 78.2681ZM156.595 74.5501L157.498 76.2022L158.416 74.5501H159.532L158.183 76.7879L159.555 79.0256H158.445L157.498 77.4143L156.56 79.0256H155.441L156.805 76.7879L155.476 74.5501H156.595ZM164.365 79.113C163.016 79.113 162.191 78.2185 162.191 76.8141C162.191 75.433 163.027 74.4918 164.309 74.4918C165.411 74.4918 166.355 75.1824 166.355 76.7529V77.0763H163.237C163.246 77.8427 163.697 78.2914 164.379 78.2914C164.834 78.2914 165.183 78.0932 165.326 77.7144L166.311 77.8252C166.124 78.6031 165.408 79.113 164.365 79.113ZM163.24 76.3654H165.344C165.338 75.7564 164.93 75.3135 164.324 75.3135C163.694 75.3135 163.272 75.7943 163.24 76.3654ZM163.893 73.9615L162.998 72.6299H164.032L164.682 73.9615H163.893ZM170.57 79.116C169.716 79.116 169.072 78.6498 169.072 77.7698C169.072 76.7616 169.903 76.5023 170.771 76.4091C171.561 76.3246 171.878 76.31 171.878 76.007V75.9895C171.878 75.5495 171.61 75.2989 171.121 75.2989C170.605 75.2989 170.308 75.5612 170.203 75.8671L169.218 75.7273C169.451 74.9114 170.174 74.4918 171.115 74.4918C171.969 74.4918 172.933 74.8473 172.933 76.0303V79.0256H171.919V78.4108H171.884C171.692 78.7867 171.272 79.116 170.57 79.116ZM170.844 78.3409C171.479 78.3409 171.881 77.9184 171.881 77.4202V76.8928C171.744 77.0035 171.191 77.0734 170.914 77.1113C170.442 77.1783 170.089 77.3473 170.089 77.7523C170.089 78.1399 170.404 78.3409 170.844 78.3409ZM176.229 74.5501V75.366H175.346V77.6795C175.346 78.1049 175.559 78.1981 175.824 78.1981C175.955 78.1981 176.074 78.1719 176.133 78.1573L176.31 78.9819C176.197 79.0198 175.99 79.0781 175.69 79.0868C174.897 79.1101 174.285 78.6964 174.291 77.8543V75.366H173.656V74.5501H174.291V73.4778H175.346V74.5501H176.229ZM179.346 74.5501V75.366H178.463V77.6795C178.463 78.1049 178.675 78.1981 178.941 78.1981C179.072 78.1981 179.191 78.1719 179.249 78.1573L179.427 78.9819C179.314 79.0198 179.107 79.0781 178.807 79.0868C178.014 79.1101 177.402 78.6964 177.408 77.8543V75.366H176.773V74.5501H177.408V73.4778H178.463V74.5501H179.346ZM180.228 79.0256V74.5501H181.283V79.0256H180.228ZM180.758 73.9149C180.42 73.9149 180.146 73.6585 180.146 73.3438C180.146 73.0262 180.42 72.7698 180.758 72.7698C181.093 72.7698 181.367 73.0262 181.367 73.3438C181.367 73.6585 181.093 73.9149 180.758 73.9149ZM186.365 74.5501L184.771 79.0256H183.606L182.012 74.5501H183.136L184.165 77.8747H184.212L185.243 74.5501H186.365ZM188.254 79.116C187.401 79.116 186.757 78.6498 186.757 77.7698C186.757 76.7616 187.587 76.5023 188.455 76.4091C189.245 76.3246 189.563 76.31 189.563 76.007V75.9895C189.563 75.5495 189.295 75.2989 188.805 75.2989C188.289 75.2989 187.992 75.5612 187.887 75.8671L186.902 75.7273C187.136 74.9114 187.858 74.4918 188.799 74.4918C189.653 74.4918 190.618 74.8473 190.618 76.0303V79.0256H189.604V78.4108H189.569C189.376 78.7867 188.957 79.116 188.254 79.116ZM188.528 78.3409C189.164 78.3409 189.566 77.9184 189.566 77.4202V76.8928C189.429 77.0035 188.875 77.0734 188.598 77.1113C188.126 77.1783 187.774 77.3473 187.774 77.7523C187.774 78.1399 188.088 78.3409 188.528 78.3409Z" fill="white"/>
<path d="M119.526 93.1483C119.141 93.1483 118.814 93.0438 118.544 92.8347C118.274 92.6239 118.067 92.3188 117.924 91.9194C117.782 91.5183 117.71 91.0339 117.71 90.4662C117.71 89.9019 117.782 89.42 117.924 89.0206C118.069 88.6195 118.276 88.3135 118.547 88.1028C118.819 87.8903 119.145 87.7841 119.526 87.7841C119.906 87.7841 120.232 87.8903 120.502 88.1028C120.774 88.3135 120.981 88.6195 121.124 89.0206C121.269 89.42 121.341 89.9019 121.341 90.4662C121.341 91.0339 121.269 91.5183 121.127 91.9194C120.984 92.3188 120.777 92.6239 120.507 92.8347C120.237 93.0438 119.91 93.1483 119.526 93.1483ZM119.526 92.5874C119.906 92.5874 120.202 92.4038 120.413 92.0367C120.624 91.6696 120.729 91.1461 120.729 90.4662C120.729 90.0141 120.681 89.6291 120.584 89.3112C120.488 88.9934 120.351 88.7512 120.171 88.5846C119.992 88.4181 119.777 88.3348 119.526 88.3348C119.148 88.3348 118.853 88.5209 118.641 88.8931C118.428 89.2637 118.322 89.788 118.322 90.4662C118.322 90.9183 118.37 91.3024 118.465 91.6186C118.56 91.9347 118.697 92.1752 118.875 92.3401C119.056 92.505 119.272 92.5874 119.526 92.5874ZM124.013 93.1483C123.629 93.1483 123.301 93.0438 123.031 92.8347C122.761 92.6239 122.554 92.3188 122.412 91.9194C122.269 91.5183 122.197 91.0339 122.197 90.4662C122.197 89.9019 122.269 89.42 122.412 89.0206C122.556 88.6195 122.763 88.3135 123.034 88.1028C123.306 87.8903 123.632 87.7841 124.013 87.7841C124.393 87.7841 124.719 87.8903 124.989 88.1028C125.261 88.3135 125.469 88.6195 125.611 89.0206C125.756 89.42 125.828 89.9019 125.828 90.4662C125.828 91.0339 125.757 91.5183 125.614 91.9194C125.471 92.3188 125.265 92.6239 124.994 92.8347C124.724 93.0438 124.397 93.1483 124.013 93.1483ZM124.013 92.5874C124.393 92.5874 124.689 92.4038 124.9 92.0367C125.111 91.6696 125.216 91.1461 125.216 90.4662C125.216 90.0141 125.168 89.6291 125.071 89.3112C124.976 88.9934 124.838 88.7512 124.658 88.5846C124.479 88.4181 124.264 88.3348 124.013 88.3348C123.635 88.3348 123.341 88.5209 123.128 88.8931C122.916 89.2637 122.809 89.788 122.809 90.4662C122.809 90.9183 122.857 91.3024 122.952 91.6186C123.047 91.9347 123.184 92.1752 123.363 92.3401C123.543 92.505 123.759 92.5874 124.013 92.5874ZM127.246 92.4089C127.12 92.4089 127.012 92.3639 126.922 92.2738C126.832 92.1837 126.787 92.0758 126.787 91.95C126.787 91.8242 126.832 91.7163 126.922 91.6262C127.012 91.5361 127.12 91.4911 127.246 91.4911C127.371 91.4911 127.479 91.5361 127.569 91.6262C127.659 91.7163 127.704 91.8242 127.704 91.95C127.704 92.0333 127.683 92.1098 127.641 92.1795C127.6 92.2492 127.545 92.3052 127.475 92.3477C127.407 92.3885 127.331 92.4089 127.246 92.4089ZM127.246 89.7676C127.12 89.7676 127.012 89.7226 126.922 89.6325C126.832 89.5424 126.787 89.4345 126.787 89.3087C126.787 89.1829 126.832 89.075 126.922 88.9849C127.012 88.8948 127.12 88.8498 127.246 88.8498C127.371 88.8498 127.479 88.8948 127.569 88.9849C127.659 89.075 127.704 89.1829 127.704 89.3087C127.704 89.392 127.683 89.4685 127.641 89.5382C127.6 89.6078 127.545 89.6639 127.475 89.7064C127.407 89.7472 127.331 89.7676 127.246 89.7676ZM130.477 93.1483C130.093 93.1483 129.766 93.0438 129.496 92.8347C129.225 92.6239 129.019 92.3188 128.876 91.9194C128.733 91.5183 128.662 91.0339 128.662 90.4662C128.662 89.9019 128.733 89.42 128.876 89.0206C129.02 88.6195 129.228 88.3135 129.498 88.1028C129.77 87.8903 130.096 87.7841 130.477 87.7841C130.858 87.7841 131.183 87.8903 131.454 88.1028C131.726 88.3135 131.933 88.6195 132.076 89.0206C132.22 89.42 132.292 89.9019 132.292 90.4662C132.292 91.0339 132.221 91.5183 132.078 91.9194C131.935 92.3188 131.729 92.6239 131.459 92.8347C131.188 93.0438 130.861 93.1483 130.477 93.1483ZM130.477 92.5874C130.858 92.5874 131.154 92.4038 131.364 92.0367C131.575 91.6696 131.68 91.1461 131.68 90.4662C131.68 90.0141 131.632 89.6291 131.535 89.3112C131.44 88.9934 131.302 88.7512 131.122 88.5846C130.944 88.4181 130.729 88.3348 130.477 88.3348C130.1 88.3348 129.805 88.5209 129.592 88.8931C129.38 89.2637 129.274 89.788 129.274 90.4662C129.274 90.9183 129.321 91.3024 129.416 91.6186C129.512 91.9347 129.648 92.1752 129.827 92.3401C130.007 92.505 130.224 92.5874 130.477 92.5874ZM133.139 92.0061V91.486L135.433 87.8555H135.811V88.6611H135.556L133.822 91.4044V91.4452H136.912V92.0061H133.139ZM135.597 93.0769V91.848V91.6058V87.8555H136.198V93.0769H135.597ZM138.316 92.4089C138.19 92.4089 138.083 92.3639 137.992 92.2738C137.902 92.1837 137.857 92.0758 137.857 91.95C137.857 91.8242 137.902 91.7163 137.992 91.6262C138.083 91.5361 138.19 91.4911 138.316 91.4911C138.442 91.4911 138.55 91.5361 138.64 91.6262C138.73 91.7163 138.775 91.8242 138.775 91.95C138.775 92.0333 138.754 92.1098 138.711 92.1795C138.671 92.2492 138.615 92.3052 138.546 92.3477C138.478 92.3885 138.401 92.4089 138.316 92.4089ZM138.316 89.7676C138.19 89.7676 138.083 89.7226 137.992 89.6325C137.902 89.5424 137.857 89.4345 137.857 89.3087C137.857 89.1829 137.902 89.075 137.992 88.9849C138.083 88.8948 138.19 88.8498 138.316 88.8498C138.442 88.8498 138.55 88.8948 138.64 88.9849C138.73 89.075 138.775 89.1829 138.775 89.3087C138.775 89.392 138.754 89.4685 138.711 89.5382C138.671 89.6078 138.615 89.6639 138.546 89.7064C138.478 89.7472 138.401 89.7676 138.316 89.7676ZM141.609 93.1483C141.272 93.1483 140.972 93.0905 140.709 92.9749C140.447 92.8593 140.239 92.6987 140.084 92.4931C139.931 92.2857 139.848 92.0452 139.835 91.7715H140.477C140.491 91.9398 140.548 92.0851 140.65 92.2075C140.752 92.3282 140.886 92.4217 141.051 92.488C141.216 92.5542 141.398 92.5874 141.599 92.5874C141.823 92.5874 142.022 92.5483 142.195 92.4701C142.369 92.3919 142.505 92.2831 142.603 92.1438C142.702 92.0044 142.751 91.8429 142.751 91.6594C142.751 91.4673 142.704 91.2982 142.608 91.152C142.513 91.0041 142.374 90.8886 142.19 90.8053C142.007 90.722 141.782 90.6803 141.517 90.6803H141.099V90.1194H141.517C141.725 90.1194 141.906 90.0821 142.063 90.0073C142.221 89.9325 142.344 89.8271 142.432 89.6911C142.523 89.5551 142.568 89.3954 142.568 89.2118C142.568 89.035 142.529 88.8812 142.45 88.7503C142.372 88.6195 142.262 88.5175 142.119 88.4444C141.978 88.3713 141.811 88.3348 141.619 88.3348C141.439 88.3348 141.269 88.3679 141.109 88.4342C140.951 88.4988 140.822 88.5931 140.722 88.7172C140.621 88.8396 140.567 88.9875 140.559 89.1608H139.947C139.957 88.8872 140.039 88.6475 140.194 88.4419C140.349 88.2345 140.551 88.073 140.801 87.9574C141.052 87.8419 141.329 87.7841 141.629 87.7841C141.952 87.7841 142.229 87.8495 142.461 87.9804C142.692 88.1096 142.869 88.2804 142.993 88.4928C143.117 88.7053 143.18 88.9348 143.18 89.1812C143.18 89.4753 143.102 89.726 142.947 89.9333C142.795 90.1407 142.586 90.2843 142.323 90.3642V90.405C142.653 90.4594 142.91 90.5996 143.095 90.8257C143.281 91.05 143.373 91.3279 143.373 91.6594C143.373 91.9432 143.296 92.1982 143.141 92.4242C142.988 92.6486 142.779 92.8254 142.514 92.9545C142.249 93.0837 141.947 93.1483 141.609 93.1483ZM144.579 93.0769L146.915 88.4571V88.4164H144.222V87.8555H147.567V88.447L145.242 93.0769H144.579Z" fill="white" fill-opacity="0.8"/>
<rect x="207.026" y="70.8974" width="23.0769" height="12.3077" rx="6.15385" fill="#00DDFF"/>
<path fill-rule="evenodd" clip-rule="evenodd" d="M223.949 81.6666C226.498 81.6666 228.564 79.6002 228.564 77.0512C228.564 74.5022 226.498 72.4359 223.949 72.4359C221.4 72.4359 219.333 74.5022 219.333 77.0512C219.333 79.6002 221.4 81.6666 223.949 81.6666Z" fill="#42414D"/>
</g>
<rect opacity="0.15" x="79.6899" y="62.0234" width="30.0557" height="30.0557" rx="15.0279" stroke="white" stroke-width="2.05128"/>
<rect opacity="0.1" x="70.6154" y="52.9487" width="48.2051" height="48.2051" rx="24.1026" stroke="#80EBFF" stroke-width="1.02564"/>
<mask id="path-13-inside-1_159_4412" fill="white">
<path d="M74.2051 106.282H238.308V122.692C238.308 124.958 236.471 126.795 234.205 126.795H78.3077C76.0419 126.795 74.2051 124.958 74.2051 122.692V106.282Z"/>
</mask>
<path d="M74.2051 106.282H238.308V122.692C238.308 124.958 236.471 126.795 234.205 126.795H78.3077C76.0419 126.795 74.2051 124.958 74.2051 122.692V106.282Z" fill="#321C64"/>
<path d="M74.2051 105.769H238.308V106.795H74.2051V105.769ZM238.308 126.795H74.2051H238.308ZM74.2051 126.795V106.282V126.795ZM238.308 106.282V126.795V106.282Z" fill="white" fill-opacity="0.2" mask="url(#path-13-inside-1_159_4412)"/>
<g clip-path="url(#clip2_159_4412)">
<path d="M85.3732 113.575C84.8698 113.575 84.4615 113.984 84.4615 114.487V118.59C84.4615 119.093 84.8698 119.501 85.3732 119.501H86.7408V113.575H85.3732ZM91.755 113.575H90.3875V119.501H91.755C92.2585 119.501 92.6667 119.093 92.6667 118.59V114.487C92.6667 113.984 92.2585 113.575 91.755 113.575Z" fill="#D52B1E"/>
<path d="M86.7408 113.575H90.3875V119.501H86.7408V113.575Z" fill="#EEEEEE"/>
<path d="M88.7043 117.476C88.9773 117.508 89.2221 117.536 89.495 117.567L89.4254 117.339C89.4143 117.299 89.4302 117.255 89.4617 117.23L90.2546 116.584L90.0905 116.507C90.0183 116.481 90.0381 116.441 90.0643 116.343L90.1853 115.901L89.7247 115.999C89.6798 116.006 89.6499 115.977 89.6431 115.95L89.5836 115.742L89.2194 116.151C89.1677 116.217 89.0628 116.217 89.0954 116.065L89.2511 115.237L89.0421 115.345C88.9835 115.378 88.9249 115.384 88.8923 115.325L88.604 114.786V114.799V114.786L88.3157 115.325C88.2829 115.384 88.2243 115.378 88.1657 115.345L87.9569 115.237L88.1126 116.065C88.1454 116.217 88.0404 116.217 87.9886 116.151L87.6244 115.742L87.5652 115.95C87.5583 115.977 87.5282 116.006 87.4833 115.999L87.0227 115.902L87.1437 116.343C87.1695 116.441 87.1895 116.482 87.1173 116.507L86.9532 116.585L87.7461 117.231C87.7776 117.255 87.7935 117.299 87.7821 117.339L87.7126 117.567L88.5035 117.476C88.5277 117.476 88.5436 117.49 88.5434 117.517L88.4946 118.362H88.7125L88.664 117.517C88.6644 117.489 88.6801 117.476 88.7043 117.476Z" fill="#D52B1E"/>
</g>
<path d="M97.116 114.378V113.817H101.032V114.378H99.3902V119.038H98.7579V114.378H97.116ZM102.949 119.12C102.596 119.12 102.286 119.036 102.019 118.868C101.754 118.699 101.546 118.464 101.397 118.161C101.249 117.859 101.175 117.505 101.175 117.101C101.175 116.693 101.249 116.337 101.397 116.033C101.546 115.728 101.754 115.492 102.019 115.324C102.286 115.156 102.596 115.071 102.949 115.071C103.303 115.071 103.612 115.156 103.877 115.324C104.144 115.492 104.352 115.728 104.499 116.033C104.649 116.337 104.724 116.693 104.724 117.101C104.724 117.505 104.649 117.859 104.499 118.161C104.352 118.464 104.144 118.699 103.877 118.868C103.612 119.036 103.303 119.12 102.949 119.12ZM102.949 118.58C103.218 118.58 103.439 118.511 103.612 118.373C103.786 118.235 103.914 118.054 103.997 117.83C104.08 117.606 104.122 117.363 104.122 117.101C104.122 116.839 104.08 116.595 103.997 116.369C103.914 116.143 103.786 115.96 103.612 115.821C103.439 115.682 103.218 115.612 102.949 115.612C102.681 115.612 102.46 115.682 102.286 115.821C102.113 115.96 101.985 116.143 101.901 116.369C101.818 116.595 101.777 116.839 101.777 117.101C101.777 117.363 101.818 117.606 101.901 117.83C101.985 118.054 102.113 118.235 102.286 118.373C102.46 118.511 102.681 118.58 102.949 118.58ZM105.642 119.038V115.122H106.224V115.714H106.264C106.336 115.52 106.465 115.363 106.652 115.242C106.839 115.122 107.05 115.061 107.284 115.061C107.328 115.061 107.384 115.062 107.45 115.064C107.516 115.065 107.566 115.068 107.6 115.071V115.683C107.58 115.678 107.533 115.671 107.46 115.66C107.389 115.648 107.313 115.642 107.233 115.642C107.043 115.642 106.873 115.682 106.723 115.762C106.575 115.84 106.458 115.949 106.371 116.089C106.286 116.226 106.244 116.384 106.244 116.56V119.038H105.642ZM109.785 119.12C109.432 119.12 109.122 119.036 108.855 118.868C108.59 118.699 108.382 118.464 108.233 118.161C108.085 117.859 108.011 117.505 108.011 117.101C108.011 116.693 108.085 116.337 108.233 116.033C108.382 115.728 108.59 115.492 108.855 115.324C109.122 115.156 109.432 115.071 109.785 115.071C110.139 115.071 110.448 115.156 110.713 115.324C110.98 115.492 111.188 115.728 111.335 116.033C111.485 116.337 111.56 116.693 111.56 117.101C111.56 117.505 111.485 117.859 111.335 118.161C111.188 118.464 110.98 118.699 110.713 118.868C110.448 119.036 110.139 119.12 109.785 119.12ZM109.785 118.58C110.054 118.58 110.275 118.511 110.448 118.373C110.622 118.235 110.75 118.054 110.833 117.83C110.916 117.606 110.958 117.363 110.958 117.101C110.958 116.839 110.916 116.595 110.833 116.369C110.75 116.143 110.622 115.96 110.448 115.821C110.275 115.682 110.054 115.612 109.785 115.612C109.517 115.612 109.296 115.682 109.122 115.821C108.949 115.96 108.821 116.143 108.737 116.369C108.654 116.595 108.612 116.839 108.612 117.101C108.612 117.363 108.654 117.606 108.737 117.83C108.821 118.054 108.949 118.235 109.122 118.373C109.296 118.511 109.517 118.58 109.785 118.58ZM113.08 116.683V119.038H112.478V115.122H113.06V115.734H113.11C113.202 115.535 113.342 115.376 113.529 115.255C113.716 115.133 113.957 115.071 114.253 115.071C114.518 115.071 114.75 115.126 114.949 115.235C115.148 115.342 115.302 115.505 115.413 115.724C115.523 115.942 115.578 116.217 115.578 116.55V119.038H114.977V116.591C114.977 116.283 114.897 116.044 114.737 115.872C114.577 115.699 114.358 115.612 114.079 115.612C113.887 115.612 113.716 115.654 113.564 115.737C113.415 115.82 113.297 115.942 113.21 116.101C113.123 116.261 113.08 116.455 113.08 116.683ZM118.381 115.122V115.632H116.352V115.122H118.381ZM116.943 114.184H117.545V117.917C117.545 118.087 117.569 118.214 117.619 118.299C117.67 118.382 117.734 118.438 117.812 118.467C117.892 118.495 117.976 118.508 118.065 118.508C118.131 118.508 118.186 118.505 118.228 118.498C118.271 118.489 118.305 118.483 118.33 118.478L118.452 119.018C118.412 119.033 118.355 119.049 118.282 119.064C118.209 119.081 118.116 119.089 118.004 119.089C117.834 119.089 117.667 119.053 117.504 118.98C117.343 118.907 117.208 118.795 117.101 118.646C116.996 118.496 116.943 118.308 116.943 118.08V114.184ZM120.835 119.12C120.481 119.12 120.171 119.036 119.904 118.868C119.639 118.699 119.432 118.464 119.282 118.161C119.134 117.859 119.06 117.505 119.06 117.101C119.06 116.693 119.134 116.337 119.282 116.033C119.432 115.728 119.639 115.492 119.904 115.324C120.171 115.156 120.481 115.071 120.835 115.071C121.188 115.071 121.498 115.156 121.763 115.324C122.03 115.492 122.237 115.728 122.385 116.033C122.535 116.337 122.609 116.693 122.609 117.101C122.609 117.505 122.535 117.859 122.385 118.161C122.237 118.464 122.03 118.699 121.763 118.868C121.498 119.036 121.188 119.12 120.835 119.12ZM120.835 118.58C121.103 118.58 121.324 118.511 121.498 118.373C121.671 118.235 121.8 118.054 121.883 117.83C121.966 117.606 122.008 117.363 122.008 117.101C122.008 116.839 121.966 116.595 121.883 116.369C121.8 116.143 121.671 115.96 121.498 115.821C121.324 115.682 121.103 115.612 120.835 115.612C120.566 115.612 120.345 115.682 120.172 115.821C119.999 115.96 119.87 116.143 119.787 116.369C119.704 116.595 119.662 116.839 119.662 117.101C119.662 117.363 119.704 117.606 119.787 117.83C119.87 118.054 119.999 118.235 120.172 118.373C120.345 118.511 120.566 118.58 120.835 118.58Z" fill="white" fill-opacity="0.8"/>
</g>
<g filter="url(#filter4_i_159_4412)">
<rect width="155.897" height="24.6154" transform="translate(66 15)" fill="#1C1B22"/>
<path d="M132.975 29.8077V24.1708H134L135.855 27.6087L137.717 24.1708H138.735V29.8077H137.717V26.0415L135.855 29.4795L134 26.0415V29.8077H132.975ZM142.002 29.9061C140.772 29.9061 139.73 28.8887 139.73 27.6825C139.73 26.4764 140.772 25.4672 142.002 25.4672C143.233 25.4672 144.275 26.4764 144.275 27.6825C144.275 28.8887 143.233 29.9061 142.002 29.9061ZM142.002 29.0528C142.7 29.0528 143.291 28.4292 143.291 27.6825C143.291 26.9441 142.7 26.3205 142.002 26.3205C141.297 26.3205 140.706 26.9441 140.706 27.6825C140.706 28.4292 141.297 29.0528 142.002 29.0528ZM144.971 29.8077V29.0774L147.219 26.4436H145.02V25.5656H148.54L148.532 26.2959L146.276 28.9297H148.557V29.8077H144.971ZM149.971 24.9256C149.651 24.9256 149.397 24.6549 149.397 24.3513C149.397 24.0477 149.651 23.7851 149.971 23.7851C150.283 23.7851 150.537 24.0477 150.537 24.3513C150.537 24.6549 150.283 24.9256 149.971 24.9256ZM149.462 29.8077V25.5656H150.463V29.8077H149.462ZM151.57 29.8077V24.0723H152.571V29.8077H151.57ZM153.677 29.8077V24.0723H154.678V29.8077H153.677ZM157.631 25.4672C158.755 25.4672 159.452 26.181 159.452 27.2559V29.8077H158.476V29.299C158.164 29.6928 157.631 29.9061 157.138 29.9061C156.236 29.9061 155.555 29.3728 155.555 28.5523C155.555 27.7154 156.334 27.141 157.286 27.141C157.672 27.141 158.09 27.2231 158.476 27.3708V27.2559C158.476 26.7636 158.205 26.2877 157.434 26.2877C157.032 26.2877 156.646 26.4272 156.285 26.6077L155.94 25.9102C156.539 25.6149 157.097 25.4672 157.631 25.4672ZM157.36 29.1759C157.844 29.1759 158.361 28.9297 158.476 28.4784V28.0025C158.164 27.8959 157.811 27.8384 157.434 27.8384C156.933 27.8384 156.531 28.1174 156.531 28.5195C156.531 28.9215 156.884 29.1759 157.36 29.1759ZM167.184 24.1708H168.324L165.97 29.8077H164.829L162.474 24.1708H163.607L165.395 28.4456L167.184 24.1708ZM169.071 29.8077V24.1708H171.524C172.73 24.1708 173.633 24.942 173.633 26.0415C173.633 27.141 172.73 27.9123 171.524 27.9123H170.096V29.8077H169.071ZM170.096 26.9687H171.409C172.106 26.9687 172.591 26.6159 172.591 26.0415C172.591 25.4672 172.106 25.1143 171.409 25.1143H170.096V26.9687ZM174.513 29.8077V24.1708H175.539L178.517 28.1338V24.1708H179.535V29.8077H178.517L175.539 25.8446V29.8077H174.513Z" fill="#FBFBFE"/>
</g>
<g filter="url(#filter5_i_159_4412)">
<rect width="24.6154" height="24.6154" transform="translate(221.897 15)" fill="#1C1B22"/>
<path fill-rule="evenodd" clip-rule="evenodd" d="M232.616 26.7949H233.692C233.976 26.7949 234.205 27.0245 234.205 27.3077C234.205 27.5909 233.976 27.8205 233.692 27.8205H232.616C232.549 28.1417 232.422 28.4471 232.24 28.72L233.004 29.4841C233.198 29.6853 233.195 30.0052 232.997 30.203C232.8 30.4008 232.48 30.4036 232.279 30.2092L231.514 29.4451C231.242 29.6269 230.937 29.7544 230.616 29.8205V30.8974C230.616 31.1806 230.386 31.4102 230.103 31.4102C229.819 31.4102 229.59 31.1806 229.59 30.8974V29.8205C229.267 29.7541 228.959 29.6256 228.685 29.442C228.682 29.4453 228.68 29.4491 228.678 29.4528C228.676 29.4572 228.673 29.4615 228.67 29.4651L227.926 30.2087C227.798 30.342 227.607 30.3955 227.428 30.3485C227.248 30.3016 227.108 30.1616 227.061 29.9823C227.014 29.803 227.068 29.6123 227.201 29.4836L227.945 28.74C227.948 28.7366 227.952 28.7344 227.956 28.7321C227.96 28.73 227.964 28.7279 227.968 28.7246C227.785 28.4505 227.656 28.1435 227.59 27.8205H226.513C226.23 27.8205 226 27.5909 226 27.3077C226 27.0245 226.23 26.7949 226.513 26.7949H227.59C227.656 26.4738 227.784 26.1686 227.966 25.8959L227.202 25.1318C227.001 24.9315 227.001 24.6068 227.201 24.4064C227.402 24.206 227.726 24.2059 227.927 24.4061L228.691 25.1702C228.964 24.9884 229.269 24.861 229.59 24.7949V23.7179C229.59 23.4347 229.819 23.2051 230.103 23.2051C230.386 23.2051 230.616 23.4347 230.616 23.7179V24.7949C230.937 24.8611 231.242 24.9887 231.515 25.1707L232.279 24.4066C232.48 24.2123 232.8 24.2151 232.998 24.4129C233.196 24.6107 233.199 24.9306 233.004 25.1318L232.24 25.8959C232.422 26.1686 232.549 26.4738 232.616 26.7949ZM230.103 25.7692C229.253 25.7692 228.564 26.458 228.564 27.3077C228.564 28.1573 229.253 28.8461 230.103 28.8461C230.952 28.8461 231.641 28.1573 231.641 27.3077C231.641 26.458 230.952 25.7692 230.103 25.7692Z" fill="#FBFBFE"/>
</g>
</g>
</g>
</g>
<defs>
<filter id="filter0_d_159_4412" x="50.6154" y="1.66667" width="211.282" height="150.769" filterUnits="userSpaceOnUse" color-interpolation-filters="sRGB">
<feFlood flood-opacity="0" result="BackgroundImageFix"/>
<feColorMatrix in="SourceAlpha" type="matrix" values="0 0 0 0 0 0 0 0 0 0 0 0 0 0 0 0 0 0 127 0" result="hardAlpha"/>
<feOffset dy="2.05128"/>
<feGaussianBlur stdDeviation="7.69231"/>
<feColorMatrix type="matrix" values="0 0 0 0 0.0470588 0 0 0 0 0.0470588 0 0 0 0 0.0509804 0 0 0 0.3 0"/>
<feBlend mode="normal" in2="BackgroundImageFix" result="effect1_dropShadow_159_4412"/>
<feBlend mode="normal" in="SourceGraphic" in2="effect1_dropShadow_159_4412" result="shape"/>
</filter>
<filter id="filter1_d_159_4412" x="68.0513" y="46.282" width="172.308" height="83.0769" filterUnits="userSpaceOnUse" color-interpolation-filters="sRGB">
<feFlood flood-opacity="0" result="BackgroundImageFix"/>
<feColorMatrix in="SourceAlpha" type="matrix" values="0 0 0 0 0 0 0 0 0 0 0 0 0 0 0 0 0 0 127 0" result="hardAlpha"/>
<feOffset dy="0.512821"/>
<feGaussianBlur stdDeviation="1.02564"/>
<feColorMatrix type="matrix" values="0 0 0 0 0.0470588 0 0 0 0 0.0470588 0 0 0 0 0.0509804 0 0 0 0.1 0"/>
<feBlend mode="normal" in2="BackgroundImageFix" result="effect1_dropShadow_159_4412"/>
<feBlend mode="normal" in="SourceGraphic" in2="effect1_dropShadow_159_4412" result="shape"/>
</filter>
<filter id="filter2_d_159_4412" x="72.1538" y="46.282" width="168.205" height="83.0769" filterUnits="userSpaceOnUse" color-interpolation-filters="sRGB">
<feFlood flood-opacity="0" result="BackgroundImageFix"/>
<feColorMatrix in="SourceAlpha" type="matrix" values="0 0 0 0 0 0 0 0 0 0 0 0 0 0 0 0 0 0 127 0" result="hardAlpha"/>
<feOffset dy="0.512821"/>
<feGaussianBlur stdDeviation="1.02564"/>
<feColorMatrix type="matrix" values="0 0 0 0 0.0470588 0 0 0 0 0.0470588 0 0 0 0 0.0509804 0 0 0 0.3 0"/>
<feBlend mode="normal" in2="BackgroundImageFix" result="effect1_dropShadow_159_4412"/>
<feBlend mode="normal" in="SourceGraphic" in2="effect1_dropShadow_159_4412" result="shape"/>
</filter>
<filter id="filter3_d_159_4412" x="72.1538" y="46.282" width="168.205" height="62.5641" filterUnits="userSpaceOnUse" color-interpolation-filters="sRGB">
<feFlood flood-opacity="0" result="BackgroundImageFix"/>
<feColorMatrix in="SourceAlpha" type="matrix" values="0 0 0 0 0 0 0 0 0 0 0 0 0 0 0 0 0 0 127 0" result="hardAlpha"/>
<feOffset dy="0.512821"/>
<feGaussianBlur stdDeviation="1.02564"/>
<feColorMatrix type="matrix" values="0 0 0 0 0.0470588 0 0 0 0 0.0470588 0 0 0 0 0.0509804 0 0 0 0.1 0"/>
<feBlend mode="normal" in2="BackgroundImageFix" result="effect1_dropShadow_159_4412"/>
<feBlend mode="normal" in="SourceGraphic" in2="effect1_dropShadow_159_4412" result="shape"/>
</filter>
<filter id="filter4_i_159_4412" x="66" y="15" width="155.897" height="24.6154" filterUnits="userSpaceOnUse" color-interpolation-filters="sRGB">
<feFlood flood-opacity="0" result="BackgroundImageFix"/>
<feBlend mode="normal" in="SourceGraphic" in2="BackgroundImageFix" result="shape"/>
<feColorMatrix in="SourceAlpha" type="matrix" values="0 0 0 0 0 0 0 0 0 0 0 0 0 0 0 0 0 0 127 0" result="hardAlpha"/>
<feOffset dy="-0.512821"/>
<feComposite in2="hardAlpha" operator="arithmetic" k2="-1" k3="1"/>
<feColorMatrix type="matrix" values="0 0 0 0 0.356863 0 0 0 0 0.356863 0 0 0 0 0.4 0 0 0 1 0"/>
<feBlend mode="normal" in2="shape" result="effect1_innerShadow_159_4412"/>
</filter>
<filter id="filter5_i_159_4412" x="221.897" y="15" width="24.6154" height="24.6154" filterUnits="userSpaceOnUse" color-interpolation-filters="sRGB">
<feFlood flood-opacity="0" result="BackgroundImageFix"/>
<feBlend mode="normal" in="SourceGraphic" in2="BackgroundImageFix" result="shape"/>
<feColorMatrix in="SourceAlpha" type="matrix" values="0 0 0 0 0 0 0 0 0 0 0 0 0 0 0 0 0 0 127 0" result="hardAlpha"/>
<feOffset dy="-0.512821"/>
<feComposite in2="hardAlpha" operator="arithmetic" k2="-1" k3="1"/>
<feColorMatrix type="matrix" values="0 0 0 0 0.356863 0 0 0 0 0.356863 0 0 0 0 0.4 0 0 0 1 0"/>
<feBlend mode="normal" in2="shape" result="effect1_innerShadow_159_4412"/>
</filter>
<radialGradient id="paint0_radial_159_4412" cx="0" cy="0" r="1" gradientUnits="userSpaceOnUse" gradientTransform="translate(106.41 65.359) rotate(-45) scale(33.0708)">
<stop stop-color="#B833E1"/>
<stop offset="0.371" stop-color="#9059FF"/>
<stop offset="0.614" stop-color="#5B6DF8"/>
<stop offset="1" stop-color="#0090ED"/>
</radialGradient>
<clipPath id="clip0_159_4412">
<rect width="312" height="150" fill="white"/>
</clipPath>
<clipPath id="clip1_159_4412">
<rect x="66" y="15" width="180.513" height="120" rx="4.10256" fill="white"/>
</clipPath>
<clipPath id="clip2_159_4412">
<rect width="8.20513" height="8.20513" fill="white" transform="translate(84.4615 112.436)"/>
</clipPath>
</defs>
</svg>
