<svg width="312" height="150" viewBox="0 0 312 150" fill="none" xmlns="http://www.w3.org/2000/svg">
<g clip-path="url(#clip0_159_4383)">
<rect width="312" height="150" fill="#0090ED"/>
<g filter="url(#filter0_d_159_4383)">
<g clip-path="url(#clip1_159_4383)">
<rect x="66" y="15" width="180.513" height="120" rx="4.10256" fill="#42414D"/>
<g filter="url(#filter1_d_159_4383)">
<g filter="url(#filter2_d_159_4383)">
<rect x="74.2051" y="47.8205" width="164.103" height="78.9744" rx="4.10256" fill="#F9F9FA"/>
</g>
<g filter="url(#filter3_d_159_4383)">
<path d="M74.2051 51.9231C74.2051 49.6573 76.0419 47.8205 78.3077 47.8205H234.205C236.471 47.8205 238.308 49.6573 238.308 51.9231V106.282H74.2051V51.9231Z" fill="#321C64"/>
<rect x="95.641" y="66.282" width="9.84616" height="9.84616" rx="4.92308" fill="#00DDFF"/>
<path fill-rule="evenodd" clip-rule="evenodd" d="M94.2546 72.6053H90.9661C91.7408 70.0359 93.1468 68.2821 94.7179 68.2821C94.745 68.2821 94.7721 68.2826 94.7992 68.2837C95.3564 67.1864 96.2176 66.2695 97.272 65.644C96.4401 65.4569 95.584 65.36 94.7179 65.359C92.4054 65.359 90.1448 66.0448 88.222 67.3295C86.2992 68.6143 84.8006 70.4404 83.9156 72.5769C83.0307 74.7134 82.7991 77.0643 83.2503 79.3324C83.7014 81.6005 84.815 83.6838 86.4502 85.319C88.0854 86.9542 90.1688 88.0678 92.4369 88.519C94.7049 88.9701 97.0559 88.7386 99.1924 87.8536C101.329 86.9686 103.155 85.47 104.44 83.5472C105.724 81.6244 106.41 79.3638 106.41 77.0513C106.409 76.1852 106.312 75.3291 106.125 74.4972C105.5 75.5513 104.583 76.4124 103.487 76.9696C103.487 76.9968 103.487 77.0241 103.487 77.0513C103.485 78.0259 103.32 78.9932 102.998 79.913H100.336C100.456 79.1693 100.528 78.4191 100.554 77.6667C100.052 77.6659 99.5646 77.608 99.0963 77.4993C99.0739 78.3087 98.991 79.1155 98.8482 79.913H90.5876C90.2479 78.0203 90.2479 76.0823 90.5876 74.1896H94.8316C94.5738 73.6956 94.3781 73.164 94.2546 72.6053ZM90.9661 81.4973C91.7408 84.0667 93.1468 85.8205 94.7179 85.8205C96.2891 85.8205 97.6951 84.0667 98.4711 81.4973H90.9661ZM86.4383 74.1896C86.1162 75.1094 85.9507 76.0768 85.9487 77.0513C85.9507 78.0259 86.1162 78.9932 86.4383 79.913H89.0998C88.7956 78.0173 88.7956 76.0853 89.0998 74.1896H86.4383ZM89.4403 72.6053C89.7519 71.3691 90.2714 70.1949 90.9764 69.1327C89.3907 69.8856 88.066 71.0947 87.172 72.6053H89.4403ZM89.4403 81.4973H87.1764H87.172C88.066 83.0079 89.3907 84.2171 90.9764 84.9699C90.2714 83.9078 89.7519 82.7335 89.4403 81.4973ZM98.4659 84.9669C100.05 84.2145 101.374 83.0065 102.268 81.4973H99.9999C99.6886 82.7323 99.1698 83.9055 98.4659 84.9669Z" fill="url(#paint0_radial_159_4383)"/>
<path fill-rule="evenodd" clip-rule="evenodd" d="M100.564 73.3654L100.53 73.3617C100.037 73.2826 99.594 73.0148 99.2952 72.615C98.9476 72.1427 98.7542 71.5747 98.7413 70.9885C98.7179 70.7303 98.7179 70.1636 98.7179 69.8482C98.7172 69.5719 98.9156 69.3352 99.1878 69.2876L100.564 69.0513L101.94 69.2876C102.212 69.335 102.411 69.5719 102.41 69.8485C102.41 70.1633 102.41 70.7303 102.386 70.9885C102.373 71.5747 102.179 72.1427 101.832 72.615C101.533 73.0148 101.09 73.2826 100.597 73.3617L100.564 73.3654ZM99.3333 69.8867C99.3333 70.0766 99.3311 70.2449 99.3293 70.3896C99.3262 70.6256 99.324 70.799 99.3333 70.902C99.3414 71.3882 99.5014 71.8597 99.7909 72.2504C99.98 72.5035 100.255 72.6791 100.564 72.7442C100.873 72.6791 101.148 72.5035 101.337 72.2504C101.627 71.8597 101.787 71.3882 101.795 70.902C101.804 70.799 101.802 70.6256 101.799 70.3896V70.3895C101.797 70.2449 101.795 70.0766 101.795 69.8867L100.564 69.6759L99.3333 69.8867ZM99.7949 70.2759L100.564 70.1442V72.2676H100.562C100.402 72.2139 100.262 72.1127 100.162 71.9774C99.9293 71.6635 99.8071 71.2817 99.8139 70.8913C99.8041 70.7851 99.7976 70.5657 99.7949 70.2759Z" fill="white"/>
<path d="M118.669 61.0583L120.222 65.7552H120.283L121.833 61.0583H123.022L120.918 67.0256H119.584L117.483 61.0583H118.669ZM123.808 67.0256V61.0583H126.046C127.418 61.0583 128.15 61.8945 128.15 63.0338C128.15 64.1818 127.409 65.0093 126.031 65.0093H124.889V67.0256H123.808ZM124.889 64.1206H125.886C126.69 64.1206 127.048 63.669 127.048 63.0338C127.048 62.3986 126.69 61.9615 125.88 61.9615H124.889V64.1206ZM133.992 61.0583V67.0256H133.031L130.219 62.9609H130.17V67.0256H129.089V61.0583H130.056L132.865 65.1259H132.917V61.0583H133.992ZM137.836 63.6078V64.4761H135.15V63.6078H137.836ZM142.235 62.6987C142.18 62.1917 141.755 61.8916 141.111 61.8916C140.435 61.8916 140.033 62.2209 140.03 62.6696C140.024 63.1678 140.554 63.3747 141.044 63.4913L141.603 63.6311C142.501 63.8438 143.354 64.3158 143.357 65.3502C143.354 66.4021 142.524 67.116 141.093 67.116C139.703 67.116 138.82 66.4487 138.777 65.2628H139.84C139.884 65.8893 140.408 66.1923 141.084 66.1923C141.79 66.1923 142.273 65.8514 142.276 65.3415C142.273 64.8782 141.848 64.6771 141.204 64.514L140.525 64.3392C139.543 64.0857 138.934 63.5932 138.934 62.7366C138.931 61.6818 139.872 60.9767 141.125 60.9767C142.396 60.9767 143.255 61.6906 143.276 62.6987H142.235ZM146.226 67.113C144.889 67.113 144.082 66.1603 144.082 64.8054C144.082 63.4388 144.909 62.4918 146.221 62.4918C147.313 62.4918 148.071 63.1299 148.144 64.1002H147.136C147.054 63.669 146.742 63.3427 146.235 63.3427C145.585 63.3427 145.151 63.8846 145.151 64.7879C145.151 65.7028 145.577 66.2535 146.235 66.2535C146.699 66.2535 147.045 65.9767 147.136 65.4959H148.144C148.068 66.4458 147.351 67.113 146.226 67.113ZM150.065 64.4033V67.0256H149.01V61.0583H150.041V63.3106H150.094C150.301 62.8036 150.738 62.4918 151.425 62.4918C152.355 62.4918 152.967 63.095 152.967 64.176V67.0256H151.912V64.3392C151.912 63.736 151.586 63.3834 151.032 63.3834C150.467 63.3834 150.065 63.7564 150.065 64.4033ZM156.894 65.1434V62.5501H157.949V67.0256H156.927V66.2302H156.88C156.676 66.7313 156.204 67.0839 155.534 67.0839C154.654 67.0839 154.042 66.4749 154.042 65.3998V62.5501H155.097V65.2366C155.097 65.8048 155.435 66.1632 155.942 66.1632C156.408 66.1632 156.894 65.8252 156.894 65.1434ZM161.269 62.5501V63.366H160.386V65.6795C160.386 66.1049 160.599 66.1981 160.864 66.1981C160.995 66.1981 161.114 66.1719 161.173 66.1573L161.35 66.9819C161.237 67.0198 161.03 67.0781 160.73 67.0868C159.937 67.1101 159.325 66.6964 159.331 65.8543V63.366H158.696V62.5501H159.331V61.4778H160.386V62.5501H161.269ZM162.093 67.0256V66.3555L164.4 63.4621V63.4242H162.168V62.5501H165.691V63.2698L163.494 66.1136V66.1515H165.767V67.0256H162.093ZM171.06 62.5501V63.366H170.131V67.0256H169.076V63.366H168.415V62.5501H169.076V62.1276C169.076 61.2244 169.697 60.7785 170.475 60.7785C170.839 60.7785 171.139 60.8543 171.276 60.9009L171.063 61.7168C170.976 61.6906 170.836 61.6527 170.67 61.6527C170.277 61.6527 170.131 61.8479 170.131 62.1975V62.5501H171.06ZM174.739 65.1434V62.5501H175.794V67.0256H174.771V66.2302H174.724C174.52 66.7313 174.048 67.0839 173.378 67.0839C172.498 67.0839 171.886 66.4749 171.886 65.3998V62.5501H172.941V65.2366C172.941 65.8048 173.279 66.1632 173.786 66.1632C174.252 66.1632 174.739 65.8252 174.739 65.1434ZM172.973 61.8916C172.667 61.8916 172.408 61.6381 172.408 61.3438C172.408 61.032 172.667 60.7931 172.973 60.7931C173.288 60.7931 173.533 61.032 173.533 61.3438C173.533 61.6381 173.288 61.8916 172.973 61.8916ZM174.722 61.8916C174.416 61.8916 174.156 61.6381 174.156 61.3438C174.156 61.032 174.416 60.7931 174.722 60.7931C175.036 60.7931 175.281 61.032 175.281 61.3438C175.281 61.6381 175.036 61.8916 174.722 61.8916ZM176.878 67.0256V62.5501H177.901V63.296H177.948C178.111 62.7774 178.539 62.486 179.052 62.486C179.169 62.486 179.335 62.4977 179.431 62.5151V63.4854C179.341 63.4563 179.119 63.4242 178.941 63.4242C178.362 63.4242 177.933 63.8263 177.933 64.3945V67.0256H176.878ZM117.871 79.0256V73.0583H121.693V73.9644H118.952V75.5845H121.431V76.4907H118.952V79.0256H117.871ZM122.632 79.0256V74.5501H123.686V79.0256H122.632ZM123.162 73.9149C122.824 73.9149 122.55 73.6585 122.55 73.3438C122.55 73.0262 122.824 72.7698 123.162 72.7698C123.497 72.7698 123.771 73.0262 123.771 73.3438C123.771 73.6585 123.497 73.9149 123.162 73.9149ZM124.771 79.0256V74.5501H125.794V75.296H125.84C126.004 74.7774 126.432 74.486 126.945 74.486C127.061 74.486 127.227 74.4977 127.324 74.5151V75.4854C127.233 75.4563 127.012 75.4242 126.834 75.4242C126.254 75.4242 125.826 75.8263 125.826 76.3945V79.0256H124.771ZM129.821 79.113C128.472 79.113 127.648 78.2185 127.648 76.8141C127.648 75.433 128.484 74.4918 129.766 74.4918C130.867 74.4918 131.811 75.1824 131.811 76.7529V77.0763H128.694C128.702 77.8427 129.154 78.2914 129.836 78.2914C130.29 78.2914 130.64 78.0932 130.783 77.7144L131.768 77.8252C131.581 78.6031 130.864 79.113 129.821 79.113ZM128.697 76.3654H130.8C130.795 75.7564 130.387 75.3135 129.781 75.3135C129.151 75.3135 128.729 75.7943 128.697 76.3654ZM134.971 74.5501V75.366H134.041V79.0256H132.986V75.366H132.325V74.5501H132.986V74.1276C132.986 73.2244 133.607 72.7785 134.385 72.7785C134.749 72.7785 135.049 72.8543 135.186 72.9009L134.974 73.7168C134.886 73.6906 134.746 73.6527 134.58 73.6527C134.187 73.6527 134.041 73.8479 134.041 74.1975V74.5501H134.971ZM137.581 79.113C136.269 79.113 135.436 78.1894 135.436 76.8054C135.436 75.4184 136.269 74.4918 137.581 74.4918C138.892 74.4918 139.725 75.4184 139.725 76.8054C139.725 78.1894 138.892 79.113 137.581 79.113ZM137.586 78.2681C138.3 78.2681 138.656 77.6212 138.656 76.8024C138.656 75.9837 138.3 75.3281 137.586 75.3281C136.861 75.3281 136.505 75.9837 136.505 76.8024C136.505 77.6212 136.861 78.2681 137.586 78.2681ZM141.315 74.5501L142.218 76.2022L143.136 74.5501H144.252L142.903 76.7879L144.275 79.0256H143.165L142.218 77.4143L141.28 79.0256H140.161L141.524 76.7879L140.196 74.5501H141.315ZM147.103 79.0256V74.5501H148.158V79.0256H147.103ZM147.633 73.9149C147.295 73.9149 147.021 73.6585 147.021 73.3438C147.021 73.0262 147.295 72.7698 147.633 72.7698C147.968 72.7698 148.242 73.0262 148.242 73.3438C148.242 73.6585 147.968 73.9149 147.633 73.9149ZM152.78 75.7331L151.818 75.838C151.736 75.5437 151.48 75.2785 150.993 75.2785C150.553 75.2785 150.218 75.4883 150.221 75.7914C150.218 76.0507 150.399 76.208 150.854 76.31L151.617 76.4732C152.462 76.6568 152.873 77.0472 152.876 77.6853C152.873 78.5332 152.083 79.113 150.964 79.113C149.866 79.113 149.175 78.6265 149.044 77.8048L150.073 77.7057C150.163 78.1078 150.478 78.3176 150.961 78.3176C151.462 78.3176 151.795 78.0874 151.795 77.7815C151.795 77.528 151.602 77.3619 151.192 77.2716L150.428 77.1113C149.569 76.9336 149.166 76.5023 149.169 75.8496C149.166 75.0221 149.901 74.4918 150.979 74.4918C152.028 74.4918 152.634 74.9755 152.78 75.7331ZM155.98 74.5501V75.366H155.097V77.6795C155.097 78.1049 155.31 78.1981 155.575 78.1981C155.706 78.1981 155.826 78.1719 155.884 78.1573L156.062 78.9819C155.948 79.0198 155.741 79.0781 155.441 79.0868C154.649 79.1101 154.037 78.6964 154.043 77.8543V75.366H153.407V74.5501H154.043V73.4778H155.097V74.5501H155.98ZM160.186 79.116C159.332 79.116 158.688 78.6498 158.688 77.7698C158.688 76.7616 159.518 76.5023 160.387 76.4091C161.176 76.3246 161.494 76.31 161.494 76.007V75.9895C161.494 75.5495 161.226 75.2989 160.736 75.2989C160.221 75.2989 159.923 75.5612 159.818 75.8671L158.834 75.7273C159.067 74.9114 159.789 74.4918 160.73 74.4918C161.584 74.4918 162.549 74.8473 162.549 76.0303V79.0256H161.535V78.4108H161.5C161.307 78.7867 160.888 79.116 160.186 79.116ZM160.459 78.3409C161.095 78.3409 161.497 77.9184 161.497 77.4202V76.8928C161.36 77.0035 160.806 77.0734 160.529 77.1113C160.057 77.1783 159.705 77.3473 159.705 77.7523C159.705 78.1399 160.019 78.3409 160.459 78.3409ZM163.609 79.0256V73.0583H164.664V76.3479H164.737L166.345 74.5501H167.578L165.844 76.4819L167.68 79.0256H166.418L165.049 77.1113L164.664 77.5221V79.0256H163.609ZM170.516 74.5501V75.366H169.633V77.6795C169.633 78.1049 169.845 78.1981 170.111 78.1981C170.242 78.1981 170.361 78.1719 170.419 78.1573L170.597 78.9819C170.483 79.0198 170.277 79.0781 169.976 79.0868C169.184 79.1101 168.572 78.6964 168.578 77.8543V75.366H167.943V74.5501H168.578V73.4778H169.633V74.5501H170.516ZM171.398 79.0256V74.5501H172.452V79.0256H171.398ZM171.928 73.9149C171.59 73.9149 171.316 73.6585 171.316 73.3438C171.316 73.0262 171.59 72.7698 171.928 72.7698C172.263 72.7698 172.537 73.0262 172.537 73.3438C172.537 73.6585 172.263 73.9149 171.928 73.9149ZM177.535 74.5501L175.941 79.0256H174.775L173.182 74.5501H174.306L175.335 77.8747H175.381L176.413 74.5501H177.535ZM178.265 79.0256V74.5501H179.319V79.0256H178.265ZM178.795 73.9149C178.457 73.9149 178.183 73.6585 178.183 73.3438C178.183 73.0262 178.457 72.7698 178.795 72.7698C179.13 72.7698 179.404 73.0262 179.404 73.3438C179.404 73.6585 179.13 73.9149 178.795 73.9149ZM182.385 79.113C181.036 79.113 180.212 78.2185 180.212 76.8141C180.212 75.433 181.048 74.4918 182.33 74.4918C183.431 74.4918 184.376 75.1824 184.376 76.7529V77.0763H181.258C181.267 77.8427 181.718 78.2914 182.4 78.2914C182.855 78.2914 183.204 78.0932 183.347 77.7144L184.332 77.8252C184.145 78.6031 183.429 79.113 182.385 79.113ZM181.261 76.3654H183.364C183.359 75.7564 182.951 75.3135 182.345 75.3135C181.715 75.3135 181.293 75.7943 181.261 76.3654ZM185.268 79.0256V74.5501H186.291V75.296H186.337C186.5 74.7774 186.929 74.486 187.442 74.486C187.558 74.486 187.724 74.4977 187.82 74.5151V75.4854C187.73 75.4563 187.509 75.4242 187.331 75.4242C186.751 75.4242 186.323 75.8263 186.323 76.3945V79.0256H185.268ZM190.996 74.5501V75.366H190.113V77.6795C190.113 78.1049 190.326 78.1981 190.591 78.1981C190.722 78.1981 190.842 78.1719 190.9 78.1573L191.078 78.9819C190.964 79.0198 190.757 79.0781 190.457 79.0868C189.665 79.1101 189.053 78.6964 189.059 77.8543V75.366H188.423V74.5501H189.059V73.4778H190.113V74.5501H190.996Z" fill="white"/>
<path d="M119.526 93.1483C119.141 93.1483 118.814 93.0438 118.544 92.8347C118.274 92.6239 118.067 92.3188 117.924 91.9194C117.782 91.5183 117.71 91.0339 117.71 90.4662C117.71 89.9019 117.782 89.42 117.924 89.0206C118.069 88.6195 118.276 88.3135 118.547 88.1028C118.819 87.8903 119.145 87.7841 119.526 87.7841C119.906 87.7841 120.232 87.8903 120.502 88.1028C120.774 88.3135 120.981 88.6195 121.124 89.0206C121.269 89.42 121.341 89.9019 121.341 90.4662C121.341 91.0339 121.269 91.5183 121.127 91.9194C120.984 92.3188 120.777 92.6239 120.507 92.8347C120.237 93.0438 119.91 93.1483 119.526 93.1483ZM119.526 92.5874C119.906 92.5874 120.202 92.4038 120.413 92.0367C120.624 91.6696 120.729 91.1461 120.729 90.4662C120.729 90.0141 120.681 89.6291 120.584 89.3112C120.488 88.9934 120.351 88.7512 120.171 88.5846C119.992 88.4181 119.777 88.3348 119.526 88.3348C119.148 88.3348 118.853 88.5209 118.641 88.8931C118.428 89.2637 118.322 89.788 118.322 90.4662C118.322 90.9183 118.37 91.3024 118.465 91.6186C118.56 91.9347 118.697 92.1752 118.875 92.3401C119.056 92.505 119.272 92.5874 119.526 92.5874ZM124.013 93.1483C123.629 93.1483 123.301 93.0438 123.031 92.8347C122.761 92.6239 122.554 92.3188 122.412 91.9194C122.269 91.5183 122.197 91.0339 122.197 90.4662C122.197 89.9019 122.269 89.42 122.412 89.0206C122.556 88.6195 122.763 88.3135 123.034 88.1028C123.306 87.8903 123.632 87.7841 124.013 87.7841C124.393 87.7841 124.719 87.8903 124.989 88.1028C125.261 88.3135 125.469 88.6195 125.611 89.0206C125.756 89.42 125.828 89.9019 125.828 90.4662C125.828 91.0339 125.757 91.5183 125.614 91.9194C125.471 92.3188 125.265 92.6239 124.994 92.8347C124.724 93.0438 124.397 93.1483 124.013 93.1483ZM124.013 92.5874C124.393 92.5874 124.689 92.4038 124.9 92.0367C125.111 91.6696 125.216 91.1461 125.216 90.4662C125.216 90.0141 125.168 89.6291 125.071 89.3112C124.976 88.9934 124.838 88.7512 124.658 88.5846C124.479 88.4181 124.264 88.3348 124.013 88.3348C123.635 88.3348 123.341 88.5209 123.128 88.8931C122.916 89.2637 122.809 89.788 122.809 90.4662C122.809 90.9183 122.857 91.3024 122.952 91.6186C123.047 91.9347 123.184 92.1752 123.363 92.3401C123.543 92.505 123.759 92.5874 124.013 92.5874ZM127.246 92.4089C127.12 92.4089 127.012 92.3639 126.922 92.2738C126.832 92.1837 126.787 92.0758 126.787 91.95C126.787 91.8242 126.832 91.7163 126.922 91.6262C127.012 91.5361 127.12 91.4911 127.246 91.4911C127.371 91.4911 127.479 91.5361 127.569 91.6262C127.659 91.7163 127.704 91.8242 127.704 91.95C127.704 92.0333 127.683 92.1098 127.641 92.1795C127.6 92.2492 127.545 92.3052 127.475 92.3477C127.407 92.3885 127.331 92.4089 127.246 92.4089ZM127.246 89.7676C127.12 89.7676 127.012 89.7226 126.922 89.6325C126.832 89.5424 126.787 89.4345 126.787 89.3087C126.787 89.1829 126.832 89.075 126.922 88.9849C127.012 88.8948 127.12 88.8498 127.246 88.8498C127.371 88.8498 127.479 88.8948 127.569 88.9849C127.659 89.075 127.704 89.1829 127.704 89.3087C127.704 89.392 127.683 89.4685 127.641 89.5382C127.6 89.6078 127.545 89.6639 127.475 89.7064C127.407 89.7472 127.331 89.7676 127.246 89.7676ZM130.477 93.1483C130.093 93.1483 129.766 93.0438 129.496 92.8347C129.225 92.6239 129.019 92.3188 128.876 91.9194C128.733 91.5183 128.662 91.0339 128.662 90.4662C128.662 89.9019 128.733 89.42 128.876 89.0206C129.02 88.6195 129.228 88.3135 129.498 88.1028C129.77 87.8903 130.096 87.7841 130.477 87.7841C130.858 87.7841 131.183 87.8903 131.454 88.1028C131.726 88.3135 131.933 88.6195 132.076 89.0206C132.22 89.42 132.292 89.9019 132.292 90.4662C132.292 91.0339 132.221 91.5183 132.078 91.9194C131.935 92.3188 131.729 92.6239 131.459 92.8347C131.188 93.0438 130.861 93.1483 130.477 93.1483ZM130.477 92.5874C130.858 92.5874 131.154 92.4038 131.364 92.0367C131.575 91.6696 131.68 91.1461 131.68 90.4662C131.68 90.0141 131.632 89.6291 131.535 89.3112C131.44 88.9934 131.302 88.7512 131.122 88.5846C130.944 88.4181 130.729 88.3348 130.477 88.3348C130.1 88.3348 129.805 88.5209 129.592 88.8931C129.38 89.2637 129.274 89.788 129.274 90.4662C129.274 90.9183 129.321 91.3024 129.416 91.6186C129.512 91.9347 129.648 92.1752 129.827 92.3401C130.007 92.505 130.224 92.5874 130.477 92.5874ZM133.139 92.0061V91.486L135.433 87.8555H135.811V88.6611H135.556L133.822 91.4044V91.4452H136.912V92.0061H133.139ZM135.597 93.0769V91.848V91.6058V87.8555H136.198V93.0769H135.597ZM138.316 92.4089C138.19 92.4089 138.083 92.3639 137.992 92.2738C137.902 92.1837 137.857 92.0758 137.857 91.95C137.857 91.8242 137.902 91.7163 137.992 91.6262C138.083 91.5361 138.19 91.4911 138.316 91.4911C138.442 91.4911 138.55 91.5361 138.64 91.6262C138.73 91.7163 138.775 91.8242 138.775 91.95C138.775 92.0333 138.754 92.1098 138.711 92.1795C138.671 92.2492 138.615 92.3052 138.546 92.3477C138.478 92.3885 138.401 92.4089 138.316 92.4089ZM138.316 89.7676C138.19 89.7676 138.083 89.7226 137.992 89.6325C137.902 89.5424 137.857 89.4345 137.857 89.3087C137.857 89.1829 137.902 89.075 137.992 88.9849C138.083 88.8948 138.19 88.8498 138.316 88.8498C138.442 88.8498 138.55 88.8948 138.64 88.9849C138.73 89.075 138.775 89.1829 138.775 89.3087C138.775 89.392 138.754 89.4685 138.711 89.5382C138.671 89.6078 138.615 89.6639 138.546 89.7064C138.478 89.7472 138.401 89.7676 138.316 89.7676ZM141.609 93.1483C141.272 93.1483 140.972 93.0905 140.709 92.9749C140.447 92.8593 140.239 92.6987 140.084 92.4931C139.931 92.2857 139.848 92.0452 139.835 91.7715H140.477C140.491 91.9398 140.548 92.0851 140.65 92.2075C140.752 92.3282 140.886 92.4217 141.051 92.488C141.216 92.5542 141.398 92.5874 141.599 92.5874C141.823 92.5874 142.022 92.5483 142.195 92.4701C142.369 92.3919 142.505 92.2831 142.603 92.1438C142.702 92.0044 142.751 91.8429 142.751 91.6594C142.751 91.4673 142.704 91.2982 142.608 91.152C142.513 91.0041 142.374 90.8886 142.19 90.8053C142.007 90.722 141.782 90.6803 141.517 90.6803H141.099V90.1194H141.517C141.725 90.1194 141.906 90.0821 142.063 90.0073C142.221 89.9325 142.344 89.8271 142.432 89.6911C142.523 89.5551 142.568 89.3954 142.568 89.2118C142.568 89.035 142.529 88.8812 142.45 88.7503C142.372 88.6195 142.262 88.5175 142.119 88.4444C141.978 88.3713 141.811 88.3348 141.619 88.3348C141.439 88.3348 141.269 88.3679 141.109 88.4342C140.951 88.4988 140.822 88.5931 140.722 88.7172C140.621 88.8396 140.567 88.9875 140.559 89.1608H139.947C139.957 88.8872 140.039 88.6475 140.194 88.4419C140.349 88.2345 140.551 88.073 140.801 87.9574C141.052 87.8419 141.329 87.7841 141.629 87.7841C141.952 87.7841 142.229 87.8495 142.461 87.9804C142.692 88.1096 142.869 88.2804 142.993 88.4928C143.117 88.7053 143.18 88.9348 143.18 89.1812C143.18 89.4753 143.102 89.726 142.947 89.9333C142.795 90.1407 142.586 90.2843 142.323 90.3642V90.405C142.653 90.4594 142.91 90.5996 143.095 90.8257C143.281 91.05 143.373 91.3279 143.373 91.6594C143.373 91.9432 143.296 92.1982 143.141 92.4242C142.988 92.6486 142.779 92.8254 142.514 92.9545C142.249 93.0837 141.947 93.1483 141.609 93.1483ZM144.579 93.0769L146.915 88.4571V88.4164H144.222V87.8555H147.567V88.447L145.242 93.0769H144.579Z" fill="white" fill-opacity="0.8"/>
<rect x="207.026" y="70.8974" width="23.0769" height="12.3077" rx="6.15385" fill="#00DDFF"/>
<path fill-rule="evenodd" clip-rule="evenodd" d="M223.949 81.6666C226.498 81.6666 228.564 79.6002 228.564 77.0512C228.564 74.5022 226.498 72.4359 223.949 72.4359C221.4 72.4359 219.333 74.5022 219.333 77.0512C219.333 79.6002 221.4 81.6666 223.949 81.6666Z" fill="#42414D"/>
</g>
<rect opacity="0.15" x="79.6899" y="62.0234" width="30.0557" height="30.0557" rx="15.0279" stroke="white" stroke-width="2.05128"/>
<rect opacity="0.1" x="70.6154" y="52.9487" width="48.2051" height="48.2051" rx="24.1026" stroke="#80EBFF" stroke-width="1.02564"/>
<mask id="path-13-inside-1_159_4383" fill="white">
<path d="M74.2051 106.282H238.308V122.692C238.308 124.958 236.471 126.795 234.205 126.795H78.3077C76.0419 126.795 74.2051 124.958 74.2051 122.692V106.282Z"/>
</mask>
<path d="M74.2051 106.282H238.308V122.692C238.308 124.958 236.471 126.795 234.205 126.795H78.3077C76.0419 126.795 74.2051 124.958 74.2051 122.692V106.282Z" fill="#321C64"/>
<path d="M74.2051 105.769H238.308V106.795H74.2051V105.769ZM238.308 126.795H74.2051H238.308ZM74.2051 126.795V106.282V126.795ZM238.308 106.282V126.795V106.282Z" fill="white" fill-opacity="0.2" mask="url(#path-13-inside-1_159_4383)"/>
<g clip-path="url(#clip2_159_4383)">
<path d="M85.3732 113.575C84.8698 113.575 84.4615 113.984 84.4615 114.487V118.59C84.4615 119.093 84.8698 119.501 85.3732 119.501H86.7408V113.575H85.3732ZM91.755 113.575H90.3875V119.501H91.755C92.2585 119.501 92.6667 119.093 92.6667 118.59V114.487C92.6667 113.984 92.2585 113.575 91.755 113.575Z" fill="#D52B1E"/>
<path d="M86.7408 113.575H90.3875V119.501H86.7408V113.575Z" fill="#EEEEEE"/>
<path d="M88.7043 117.476C88.9773 117.508 89.2221 117.536 89.495 117.567L89.4254 117.339C89.4143 117.299 89.4302 117.255 89.4617 117.23L90.2546 116.584L90.0905 116.507C90.0183 116.481 90.0381 116.441 90.0643 116.343L90.1853 115.901L89.7247 115.999C89.6798 116.006 89.6499 115.977 89.6431 115.95L89.5836 115.742L89.2194 116.151C89.1677 116.217 89.0628 116.217 89.0954 116.065L89.2511 115.237L89.0421 115.345C88.9835 115.378 88.9249 115.384 88.8923 115.325L88.604 114.786V114.799V114.786L88.3157 115.325C88.2829 115.384 88.2243 115.378 88.1657 115.345L87.9569 115.237L88.1126 116.065C88.1454 116.217 88.0404 116.217 87.9886 116.151L87.6244 115.742L87.5652 115.95C87.5583 115.977 87.5282 116.006 87.4833 115.999L87.0227 115.902L87.1437 116.343C87.1695 116.441 87.1895 116.482 87.1173 116.507L86.9532 116.585L87.7461 117.231C87.7776 117.255 87.7935 117.299 87.7821 117.339L87.7126 117.567L88.5035 117.476C88.5277 117.476 88.5436 117.49 88.5434 117.517L88.4946 118.362H88.7125L88.664 117.517C88.6644 117.489 88.6801 117.476 88.7043 117.476Z" fill="#D52B1E"/>
</g>
<path d="M97.116 114.378V113.817H101.032V114.378H99.3902V119.038H98.7579V114.378H97.116ZM102.949 119.12C102.596 119.12 102.286 119.036 102.019 118.868C101.754 118.699 101.546 118.464 101.397 118.161C101.249 117.859 101.175 117.505 101.175 117.101C101.175 116.693 101.249 116.337 101.397 116.033C101.546 115.728 101.754 115.492 102.019 115.324C102.286 115.156 102.596 115.071 102.949 115.071C103.303 115.071 103.612 115.156 103.877 115.324C104.144 115.492 104.352 115.728 104.499 116.033C104.649 116.337 104.724 116.693 104.724 117.101C104.724 117.505 104.649 117.859 104.499 118.161C104.352 118.464 104.144 118.699 103.877 118.868C103.612 119.036 103.303 119.12 102.949 119.12ZM102.949 118.58C103.218 118.58 103.439 118.511 103.612 118.373C103.786 118.235 103.914 118.054 103.997 117.83C104.08 117.606 104.122 117.363 104.122 117.101C104.122 116.839 104.08 116.595 103.997 116.369C103.914 116.143 103.786 115.96 103.612 115.821C103.439 115.682 103.218 115.612 102.949 115.612C102.681 115.612 102.46 115.682 102.286 115.821C102.113 115.96 101.985 116.143 101.901 116.369C101.818 116.595 101.777 116.839 101.777 117.101C101.777 117.363 101.818 117.606 101.901 117.83C101.985 118.054 102.113 118.235 102.286 118.373C102.46 118.511 102.681 118.58 102.949 118.58ZM105.642 119.038V115.122H106.224V115.714H106.264C106.336 115.52 106.465 115.363 106.652 115.242C106.839 115.122 107.05 115.061 107.284 115.061C107.328 115.061 107.384 115.062 107.45 115.064C107.516 115.065 107.566 115.068 107.6 115.071V115.683C107.58 115.678 107.533 115.671 107.46 115.66C107.389 115.648 107.313 115.642 107.233 115.642C107.043 115.642 106.873 115.682 106.723 115.762C106.575 115.84 106.458 115.949 106.371 116.089C106.286 116.226 106.244 116.384 106.244 116.56V119.038H105.642ZM109.785 119.12C109.432 119.12 109.122 119.036 108.855 118.868C108.59 118.699 108.382 118.464 108.233 118.161C108.085 117.859 108.011 117.505 108.011 117.101C108.011 116.693 108.085 116.337 108.233 116.033C108.382 115.728 108.59 115.492 108.855 115.324C109.122 115.156 109.432 115.071 109.785 115.071C110.139 115.071 110.448 115.156 110.713 115.324C110.98 115.492 111.188 115.728 111.335 116.033C111.485 116.337 111.56 116.693 111.56 117.101C111.56 117.505 111.485 117.859 111.335 118.161C111.188 118.464 110.98 118.699 110.713 118.868C110.448 119.036 110.139 119.12 109.785 119.12ZM109.785 118.58C110.054 118.58 110.275 118.511 110.448 118.373C110.622 118.235 110.75 118.054 110.833 117.83C110.916 117.606 110.958 117.363 110.958 117.101C110.958 116.839 110.916 116.595 110.833 116.369C110.75 116.143 110.622 115.96 110.448 115.821C110.275 115.682 110.054 115.612 109.785 115.612C109.517 115.612 109.296 115.682 109.122 115.821C108.949 115.96 108.821 116.143 108.737 116.369C108.654 116.595 108.612 116.839 108.612 117.101C108.612 117.363 108.654 117.606 108.737 117.83C108.821 118.054 108.949 118.235 109.122 118.373C109.296 118.511 109.517 118.58 109.785 118.58ZM113.08 116.683V119.038H112.478V115.122H113.06V115.734H113.11C113.202 115.535 113.342 115.376 113.529 115.255C113.716 115.133 113.957 115.071 114.253 115.071C114.518 115.071 114.75 115.126 114.949 115.235C115.148 115.342 115.302 115.505 115.413 115.724C115.523 115.942 115.578 116.217 115.578 116.55V119.038H114.977V116.591C114.977 116.283 114.897 116.044 114.737 115.872C114.577 115.699 114.358 115.612 114.079 115.612C113.887 115.612 113.716 115.654 113.564 115.737C113.415 115.82 113.297 115.942 113.21 116.101C113.123 116.261 113.08 116.455 113.08 116.683ZM118.381 115.122V115.632H116.352V115.122H118.381ZM116.943 114.184H117.545V117.917C117.545 118.087 117.569 118.214 117.619 118.299C117.67 118.382 117.734 118.438 117.812 118.467C117.892 118.495 117.976 118.508 118.065 118.508C118.131 118.508 118.186 118.505 118.228 118.498C118.271 118.489 118.305 118.483 118.33 118.478L118.452 119.018C118.412 119.033 118.355 119.049 118.282 119.064C118.209 119.081 118.116 119.089 118.004 119.089C117.834 119.089 117.667 119.053 117.504 118.98C117.343 118.907 117.208 118.795 117.101 118.646C116.996 118.496 116.943 118.308 116.943 118.08V114.184ZM120.835 119.12C120.481 119.12 120.171 119.036 119.904 118.868C119.639 118.699 119.432 118.464 119.282 118.161C119.134 117.859 119.06 117.505 119.06 117.101C119.06 116.693 119.134 116.337 119.282 116.033C119.432 115.728 119.639 115.492 119.904 115.324C120.171 115.156 120.481 115.071 120.835 115.071C121.188 115.071 121.498 115.156 121.763 115.324C122.03 115.492 122.237 115.728 122.385 116.033C122.535 116.337 122.609 116.693 122.609 117.101C122.609 117.505 122.535 117.859 122.385 118.161C122.237 118.464 122.03 118.699 121.763 118.868C121.498 119.036 121.188 119.12 120.835 119.12ZM120.835 118.58C121.103 118.58 121.324 118.511 121.498 118.373C121.671 118.235 121.8 118.054 121.883 117.83C121.966 117.606 122.008 117.363 122.008 117.101C122.008 116.839 121.966 116.595 121.883 116.369C121.8 116.143 121.671 115.96 121.498 115.821C121.324 115.682 121.103 115.612 120.835 115.612C120.566 115.612 120.345 115.682 120.172 115.821C119.999 115.96 119.87 116.143 119.787 116.369C119.704 116.595 119.662 116.839 119.662 117.101C119.662 117.363 119.704 117.606 119.787 117.83C119.87 118.054 119.999 118.235 120.172 118.373C120.345 118.511 120.566 118.58 120.835 118.58Z" fill="white" fill-opacity="0.8"/>
</g>
<g filter="url(#filter4_i_159_4383)">
<rect width="155.897" height="24.6154" transform="translate(66 15)" fill="#1C1B22"/>
<path d="M132.975 29.8077V24.1708H134L135.855 27.6087L137.717 24.1708H138.735V29.8077H137.717V26.0415L135.855 29.4795L134 26.0415V29.8077H132.975ZM142.002 29.9061C140.772 29.9061 139.73 28.8887 139.73 27.6825C139.73 26.4764 140.772 25.4672 142.002 25.4672C143.233 25.4672 144.275 26.4764 144.275 27.6825C144.275 28.8887 143.233 29.9061 142.002 29.9061ZM142.002 29.0528C142.7 29.0528 143.291 28.4292 143.291 27.6825C143.291 26.9441 142.7 26.3205 142.002 26.3205C141.297 26.3205 140.706 26.9441 140.706 27.6825C140.706 28.4292 141.297 29.0528 142.002 29.0528ZM144.971 29.8077V29.0774L147.219 26.4436H145.02V25.5656H148.54L148.532 26.2959L146.276 28.9297H148.557V29.8077H144.971ZM149.971 24.9256C149.651 24.9256 149.397 24.6549 149.397 24.3513C149.397 24.0477 149.651 23.7851 149.971 23.7851C150.283 23.7851 150.537 24.0477 150.537 24.3513C150.537 24.6549 150.283 24.9256 149.971 24.9256ZM149.462 29.8077V25.5656H150.463V29.8077H149.462ZM151.57 29.8077V24.0723H152.571V29.8077H151.57ZM153.677 29.8077V24.0723H154.678V29.8077H153.677ZM157.631 25.4672C158.755 25.4672 159.452 26.181 159.452 27.2559V29.8077H158.476V29.299C158.164 29.6928 157.631 29.9061 157.138 29.9061C156.236 29.9061 155.555 29.3728 155.555 28.5523C155.555 27.7154 156.334 27.141 157.286 27.141C157.672 27.141 158.09 27.2231 158.476 27.3708V27.2559C158.476 26.7636 158.205 26.2877 157.434 26.2877C157.032 26.2877 156.646 26.4272 156.285 26.6077L155.94 25.9102C156.539 25.6149 157.097 25.4672 157.631 25.4672ZM157.36 29.1759C157.844 29.1759 158.361 28.9297 158.476 28.4784V28.0025C158.164 27.8959 157.811 27.8384 157.434 27.8384C156.933 27.8384 156.531 28.1174 156.531 28.5195C156.531 28.9215 156.884 29.1759 157.36 29.1759ZM167.184 24.1708H168.324L165.97 29.8077H164.829L162.474 24.1708H163.607L165.395 28.4456L167.184 24.1708ZM169.071 29.8077V24.1708H171.524C172.73 24.1708 173.633 24.942 173.633 26.0415C173.633 27.141 172.73 27.9123 171.524 27.9123H170.096V29.8077H169.071ZM170.096 26.9687H171.409C172.106 26.9687 172.591 26.6159 172.591 26.0415C172.591 25.4672 172.106 25.1143 171.409 25.1143H170.096V26.9687ZM174.513 29.8077V24.1708H175.539L178.517 28.1338V24.1708H179.535V29.8077H178.517L175.539 25.8446V29.8077H174.513Z" fill="#FBFBFE"/>
</g>
<g filter="url(#filter5_i_159_4383)">
<rect width="24.6154" height="24.6154" transform="translate(221.897 15)" fill="#1C1B22"/>
<path fill-rule="evenodd" clip-rule="evenodd" d="M232.615 26.7949H233.692C233.976 26.7949 234.205 27.0245 234.205 27.3077C234.205 27.5909 233.976 27.8205 233.692 27.8205H232.615C232.549 28.1417 232.422 28.4471 232.24 28.72L233.004 29.4841C233.198 29.6853 233.195 30.0052 232.997 30.203C232.8 30.4008 232.48 30.4036 232.278 30.2092L231.514 29.4451C231.242 29.6269 230.936 29.7544 230.615 29.8205V30.8974C230.615 31.1806 230.386 31.4102 230.103 31.4102C229.819 31.4102 229.59 31.1806 229.59 30.8974V29.8205C229.267 29.7541 228.959 29.6256 228.685 29.442C228.682 29.4453 228.68 29.4491 228.678 29.4528C228.676 29.4572 228.673 29.4615 228.67 29.4651L227.926 30.2087C227.797 30.342 227.607 30.3955 227.427 30.3485C227.248 30.3016 227.108 30.1616 227.061 29.9823C227.014 29.803 227.068 29.6123 227.201 29.4836L227.945 28.74C227.948 28.7366 227.952 28.7344 227.956 28.7321C227.96 28.73 227.964 28.7279 227.968 28.7246C227.784 28.4505 227.656 28.1435 227.59 27.8205H226.513C226.23 27.8205 226 27.5909 226 27.3077C226 27.0245 226.23 26.7949 226.513 26.7949H227.59C227.656 26.4738 227.784 26.1686 227.966 25.8959L227.202 25.1318C227.001 24.9315 227.001 24.6068 227.201 24.4064C227.402 24.206 227.726 24.2059 227.927 24.4061L228.691 25.1702C228.964 24.9884 229.269 24.861 229.59 24.7949V23.7179C229.59 23.4347 229.819 23.2051 230.103 23.2051C230.386 23.2051 230.615 23.4347 230.615 23.7179V24.7949C230.937 24.8611 231.242 24.9887 231.515 25.1707L232.279 24.4066C232.48 24.2123 232.8 24.2151 232.998 24.4129C233.196 24.6107 233.198 24.9306 233.004 25.1318L232.24 25.8959C232.422 26.1686 232.549 26.4738 232.615 26.7949ZM230.103 25.7692C229.253 25.7692 228.564 26.458 228.564 27.3077C228.564 28.1573 229.253 28.8461 230.103 28.8461C230.952 28.8461 231.641 28.1573 231.641 27.3077C231.641 26.458 230.952 25.7692 230.103 25.7692Z" fill="#FBFBFE"/>
</g>
</g>
</g>
</g>
<defs>
<filter id="filter0_d_159_4383" x="50.6154" y="1.66667" width="211.282" height="150.769" filterUnits="userSpaceOnUse" color-interpolation-filters="sRGB">
<feFlood flood-opacity="0" result="BackgroundImageFix"/>
<feColorMatrix in="SourceAlpha" type="matrix" values="0 0 0 0 0 0 0 0 0 0 0 0 0 0 0 0 0 0 127 0" result="hardAlpha"/>
<feOffset dy="2.05128"/>
<feGaussianBlur stdDeviation="7.69231"/>
<feColorMatrix type="matrix" values="0 0 0 0 0.0470588 0 0 0 0 0.0470588 0 0 0 0 0.0509804 0 0 0 0.3 0"/>
<feBlend mode="normal" in2="BackgroundImageFix" result="effect1_dropShadow_159_4383"/>
<feBlend mode="normal" in="SourceGraphic" in2="effect1_dropShadow_159_4383" result="shape"/>
</filter>
<filter id="filter1_d_159_4383" x="68.0513" y="46.282" width="172.308" height="83.0769" filterUnits="userSpaceOnUse" color-interpolation-filters="sRGB">
<feFlood flood-opacity="0" result="BackgroundImageFix"/>
<feColorMatrix in="SourceAlpha" type="matrix" values="0 0 0 0 0 0 0 0 0 0 0 0 0 0 0 0 0 0 127 0" result="hardAlpha"/>
<feOffset dy="0.512821"/>
<feGaussianBlur stdDeviation="1.02564"/>
<feColorMatrix type="matrix" values="0 0 0 0 0.0470588 0 0 0 0 0.0470588 0 0 0 0 0.0509804 0 0 0 0.1 0"/>
<feBlend mode="normal" in2="BackgroundImageFix" result="effect1_dropShadow_159_4383"/>
<feBlend mode="normal" in="SourceGraphic" in2="effect1_dropShadow_159_4383" result="shape"/>
</filter>
<filter id="filter2_d_159_4383" x="72.1538" y="46.282" width="168.205" height="83.0769" filterUnits="userSpaceOnUse" color-interpolation-filters="sRGB">
<feFlood flood-opacity="0" result="BackgroundImageFix"/>
<feColorMatrix in="SourceAlpha" type="matrix" values="0 0 0 0 0 0 0 0 0 0 0 0 0 0 0 0 0 0 127 0" result="hardAlpha"/>
<feOffset dy="0.512821"/>
<feGaussianBlur stdDeviation="1.02564"/>
<feColorMatrix type="matrix" values="0 0 0 0 0.0470588 0 0 0 0 0.0470588 0 0 0 0 0.0509804 0 0 0 0.3 0"/>
<feBlend mode="normal" in2="BackgroundImageFix" result="effect1_dropShadow_159_4383"/>
<feBlend mode="normal" in="SourceGraphic" in2="effect1_dropShadow_159_4383" result="shape"/>
</filter>
<filter id="filter3_d_159_4383" x="72.1538" y="46.282" width="168.205" height="62.5641" filterUnits="userSpaceOnUse" color-interpolation-filters="sRGB">
<feFlood flood-opacity="0" result="BackgroundImageFix"/>
<feColorMatrix in="SourceAlpha" type="matrix" values="0 0 0 0 0 0 0 0 0 0 0 0 0 0 0 0 0 0 127 0" result="hardAlpha"/>
<feOffset dy="0.512821"/>
<feGaussianBlur stdDeviation="1.02564"/>
<feColorMatrix type="matrix" values="0 0 0 0 0.0470588 0 0 0 0 0.0470588 0 0 0 0 0.0509804 0 0 0 0.1 0"/>
<feBlend mode="normal" in2="BackgroundImageFix" result="effect1_dropShadow_159_4383"/>
<feBlend mode="normal" in="SourceGraphic" in2="effect1_dropShadow_159_4383" result="shape"/>
</filter>
<filter id="filter4_i_159_4383" x="66" y="15" width="155.897" height="24.6154" filterUnits="userSpaceOnUse" color-interpolation-filters="sRGB">
<feFlood flood-opacity="0" result="BackgroundImageFix"/>
<feBlend mode="normal" in="SourceGraphic" in2="BackgroundImageFix" result="shape"/>
<feColorMatrix in="SourceAlpha" type="matrix" values="0 0 0 0 0 0 0 0 0 0 0 0 0 0 0 0 0 0 127 0" result="hardAlpha"/>
<feOffset dy="-0.512821"/>
<feComposite in2="hardAlpha" operator="arithmetic" k2="-1" k3="1"/>
<feColorMatrix type="matrix" values="0 0 0 0 0.356863 0 0 0 0 0.356863 0 0 0 0 0.4 0 0 0 1 0"/>
<feBlend mode="normal" in2="shape" result="effect1_innerShadow_159_4383"/>
</filter>
<filter id="filter5_i_159_4383" x="221.897" y="15" width="24.6154" height="24.6154" filterUnits="userSpaceOnUse" color-interpolation-filters="sRGB">
<feFlood flood-opacity="0" result="BackgroundImageFix"/>
<feBlend mode="normal" in="SourceGraphic" in2="BackgroundImageFix" result="shape"/>
<feColorMatrix in="SourceAlpha" type="matrix" values="0 0 0 0 0 0 0 0 0 0 0 0 0 0 0 0 0 0 127 0" result="hardAlpha"/>
<feOffset dy="-0.512821"/>
<feComposite in2="hardAlpha" operator="arithmetic" k2="-1" k3="1"/>
<feColorMatrix type="matrix" values="0 0 0 0 0.356863 0 0 0 0 0.356863 0 0 0 0 0.4 0 0 0 1 0"/>
<feBlend mode="normal" in2="shape" result="effect1_innerShadow_159_4383"/>
</filter>
<radialGradient id="paint0_radial_159_4383" cx="0" cy="0" r="1" gradientUnits="userSpaceOnUse" gradientTransform="translate(106.41 65.359) rotate(-45) scale(33.0708)">
<stop stop-color="#B833E1"/>
<stop offset="0.371" stop-color="#9059FF"/>
<stop offset="0.614" stop-color="#5B6DF8"/>
<stop offset="1" stop-color="#0090ED"/>
</radialGradient>
<clipPath id="clip0_159_4383">
<rect width="312" height="150" fill="white"/>
</clipPath>
<clipPath id="clip1_159_4383">
<rect x="66" y="15" width="180.513" height="120" rx="4.10256" fill="white"/>
</clipPath>
<clipPath id="clip2_159_4383">
<rect width="8.20513" height="8.20513" fill="white" transform="translate(84.4615 112.436)"/>
</clipPath>
</defs>
</svg>
