<svg width="312" height="150" viewBox="0 0 312 150" fill="none" xmlns="http://www.w3.org/2000/svg">
<rect width="312" height="150" fill="#0090ED"/>
<g clip-path="url(#clip0_175_4306)">
<rect x="66" y="15" width="180.513" height="120" rx="4.10256" fill="#F9F9FA"/>
<g filter="url(#filter0_i_175_4306)">
<path d="M66 15H217.795C220.061 15 221.897 16.8368 221.897 19.1026V39.6154H66V15Z" fill="#F9F9FA"/>
<path d="M132.974 29.8077V24.1708H134L135.854 27.6087L137.717 24.1708H138.734V29.8077H137.717V26.0415L135.854 29.4795L134 26.0415V29.8077H132.974ZM142.002 29.9062C140.772 29.9062 139.73 28.8887 139.73 27.6826C139.73 26.4764 140.772 25.4672 142.002 25.4672C143.233 25.4672 144.275 26.4764 144.275 27.6826C144.275 28.8887 143.233 29.9062 142.002 29.9062ZM142.002 29.0528C142.7 29.0528 143.291 28.4292 143.291 27.6826C143.291 26.9441 142.7 26.3205 142.002 26.3205C141.297 26.3205 140.706 26.9441 140.706 27.6826C140.706 28.4292 141.297 29.0528 142.002 29.0528ZM144.971 29.8077V29.0774L147.219 26.4436H145.02V25.5656H148.54L148.532 26.2959L146.276 28.9297H148.557V29.8077H144.971ZM149.971 24.9256C149.651 24.9256 149.397 24.6549 149.397 24.3513C149.397 24.0477 149.651 23.7851 149.971 23.7851C150.283 23.7851 150.537 24.0477 150.537 24.3513C150.537 24.6549 150.283 24.9256 149.971 24.9256ZM149.462 29.8077V25.5656H150.463V29.8077H149.462ZM151.57 29.8077V24.0723H152.571V29.8077H151.57ZM153.677 29.8077V24.0723H154.678V29.8077H153.677ZM157.631 25.4672C158.755 25.4672 159.452 26.181 159.452 27.2559V29.8077H158.476V29.299C158.164 29.6928 157.631 29.9062 157.138 29.9062C156.236 29.9062 155.555 29.3728 155.555 28.5523C155.555 27.7154 156.334 27.141 157.286 27.141C157.672 27.141 158.09 27.2231 158.476 27.3708V27.2559C158.476 26.7636 158.205 26.2877 157.434 26.2877C157.032 26.2877 156.646 26.4272 156.285 26.6077L155.94 25.9103C156.539 25.6149 157.097 25.4672 157.631 25.4672ZM157.36 29.1759C157.844 29.1759 158.361 28.9297 158.476 28.4785V28.0026C158.164 27.8959 157.811 27.8385 157.434 27.8385C156.933 27.8385 156.531 28.1174 156.531 28.5195C156.531 28.9215 156.884 29.1759 157.36 29.1759ZM167.184 24.1708H168.324L165.97 29.8077H164.829L162.474 24.1708H163.606L165.395 28.4456L167.184 24.1708ZM169.071 29.8077V24.1708H171.524C172.73 24.1708 173.633 24.9421 173.633 26.0415C173.633 27.141 172.73 27.9123 171.524 27.9123H170.096V29.8077H169.071ZM170.096 26.9687H171.409C172.106 26.9687 172.591 26.6159 172.591 26.0415C172.591 25.4672 172.106 25.1144 171.409 25.1144H170.096V26.9687ZM174.513 29.8077V24.1708H175.539L178.517 28.1338V24.1708H179.534V29.8077H178.517L175.539 25.8446V29.8077H174.513Z" fill="#0C0C0D"/>
</g>
<g filter="url(#filter1_i_175_4306)">
<path d="M221.897 19.1026C221.897 16.8368 223.734 15 226 15H246.513V39.6154H221.897V19.1026Z" fill="#F9F9FA"/>
<path d="M230.103 23.2051C230.386 23.2051 230.615 23.4347 230.615 23.7178V24.795C230.937 24.8612 231.242 24.9889 231.515 25.171L232.279 24.4063C232.481 24.2123 232.8 24.2154 232.998 24.4131C233.196 24.611 233.198 24.9307 233.004 25.1319L232.24 25.8956C232.422 26.1683 232.549 26.474 232.615 26.795H233.693C233.976 26.795 234.205 27.0245 234.205 27.3077C234.205 27.5909 233.976 27.8203 233.693 27.8204H232.615C232.549 28.1416 232.421 28.447 232.239 28.7198L233.004 29.4844C233.198 29.6857 233.195 30.0055 232.997 30.2032C232.799 30.4008 232.48 30.4033 232.278 30.209L231.515 29.4454C231.242 29.6272 230.936 29.7542 230.615 29.8204V30.8975C230.615 31.1807 230.386 31.4102 230.103 31.4102C229.819 31.4102 229.59 31.1807 229.59 30.8975V29.8204C229.267 29.754 228.96 29.6258 228.686 29.4424C228.68 29.4495 228.677 29.4583 228.67 29.4649L227.926 30.209C227.797 30.342 227.607 30.3954 227.428 30.3487C227.249 30.3018 227.109 30.1617 227.062 29.9825C227.015 29.8032 227.068 29.6122 227.201 29.4835L227.944 28.7403C227.951 28.7336 227.961 28.7313 227.968 28.7247C227.785 28.4506 227.656 28.1434 227.59 27.8204H226.513C226.23 27.8203 226 27.5909 226 27.3077C226 27.0245 226.23 26.795 226.513 26.795H227.59C227.656 26.4739 227.784 26.1682 227.966 25.8956L227.201 25.1319C227.001 24.9316 227.001 24.6066 227.201 24.4063C227.402 24.2059 227.726 24.2061 227.927 24.4063L228.691 25.17C228.963 24.9882 229.269 24.8611 229.59 24.795V23.7178C229.59 23.4347 229.819 23.2051 230.103 23.2051ZM230.103 25.7696C229.253 25.7696 228.565 26.458 228.565 27.3077C228.565 28.1573 229.253 28.8458 230.103 28.8458C230.952 28.8458 231.641 28.1573 231.641 27.3077C231.641 26.458 230.952 25.7696 230.103 25.7696Z" fill="#3D3D3D"/>
</g>
<g filter="url(#filter2_d_175_4306)">
<rect x="74.2051" y="47.8205" width="164.103" height="78.9744" rx="4.10256" fill="#F9F9FA"/>
</g>
<g filter="url(#filter3_d_175_4306)">
<path d="M74.2051 51.9231C74.2051 49.6573 76.0419 47.8205 78.3077 47.8205H234.205C236.471 47.8205 238.308 49.6573 238.308 51.9231V106.282H74.2051V51.9231Z" fill="#321C64"/>
<rect x="95.6411" y="66.2821" width="9.84615" height="9.84615" rx="4.92308" fill="#3FE1B0"/>
<path d="M94.7182 65.359C95.5834 65.36 96.4379 65.4595 97.269 65.6461C96.2162 66.2715 95.3568 67.1877 94.8002 68.2838C94.773 68.2827 94.7456 68.2818 94.7182 68.2818C93.1471 68.2818 91.7409 70.0358 90.9663 72.6051H94.2563C94.3798 73.1641 94.5755 73.6957 94.8334 74.19H90.5874C90.2478 76.0824 90.2478 78.0203 90.5874 79.9127H98.8481C98.991 79.1145 99.0729 78.3069 99.0952 77.4967C99.5635 77.6056 100.051 77.6647 100.552 77.6656C100.527 78.4182 100.456 79.1688 100.336 79.9127H102.998C103.32 78.993 103.486 78.0258 103.488 77.0514C103.488 77.0234 103.485 76.9953 103.485 76.9674C104.581 76.4108 105.496 75.5523 106.122 74.4996C106.308 75.331 106.41 76.1858 106.411 77.0514C106.411 79.3639 105.725 81.6247 104.44 83.5475C103.155 85.47 101.329 86.9682 99.1928 87.8531C97.0563 88.7381 94.705 88.9703 92.437 88.5191C90.1689 88.068 88.0858 86.9541 86.4506 85.3189C84.8155 83.6838 83.7016 81.6006 83.2504 79.3326C82.7993 77.0646 83.0305 74.7132 83.9155 72.5768C84.8004 70.4403 86.2994 68.6144 88.2221 67.3297C90.0248 66.1251 92.1246 65.4468 94.2856 65.3668L94.7182 65.359ZM90.9663 81.4977C91.7409 84.0669 93.1471 85.8209 94.7182 85.8209C96.2893 85.8208 97.6951 84.0668 98.4711 81.4977H90.9663ZM87.1723 81.4977C88.0663 83.0081 89.3915 84.2175 90.977 84.9703C90.2721 83.9083 89.7525 82.7337 89.4409 81.4977H87.1723ZM100 81.4977C99.6891 82.7324 99.1701 83.9052 98.4663 84.9664C100.05 84.2141 101.374 83.0065 102.268 81.4977H100ZM86.4389 74.19C86.1169 75.1098 85.9507 76.0769 85.9487 77.0514C85.9507 78.0259 86.1169 78.9929 86.4389 79.9127H89.1001C88.796 78.0172 88.796 76.0855 89.1001 74.19H86.4389ZM90.977 69.1324C89.3914 69.8852 88.0663 71.0946 87.1723 72.6051H89.4409C89.7525 71.369 90.272 70.1945 90.977 69.1324Z" fill="url(#paint0_radial_175_4306)"/>
<path d="M101.94 69.2876C102.212 69.335 102.411 69.5717 102.41 69.8482C102.41 70.1629 102.411 70.7306 102.386 70.9888C102.373 71.5748 102.18 72.1427 101.832 72.6148C101.533 73.0146 101.09 73.2827 100.597 73.3618L100.564 73.3657L100.529 73.3618C100.037 73.2827 99.5939 73.0146 99.2951 72.6148C98.9477 72.1426 98.7543 71.5748 98.7414 70.9888C98.718 70.7306 98.718 70.1635 98.718 69.8482C98.7173 69.5719 98.9156 69.3353 99.1877 69.2876L100.564 69.0513L101.94 69.2876ZM99.3332 69.8862C99.3332 70.3861 99.3181 70.7356 99.3332 70.9019C99.3413 71.388 99.5017 71.8598 99.7912 72.2505C99.9802 72.5034 100.255 72.6795 100.564 72.7446C100.873 72.6795 101.148 72.5036 101.337 72.2505C101.627 71.8599 101.787 71.3881 101.795 70.9019C101.81 70.7356 101.795 70.386 101.795 69.8862L100.564 69.6763L99.3332 69.8862ZM100.564 72.2671H100.562C100.402 72.2135 100.262 72.1123 100.161 71.9771C99.9292 71.6632 99.8068 71.2814 99.8137 70.8911C99.8038 70.7849 99.7979 70.5656 99.7951 70.2759L100.564 70.1441V72.2671Z" fill="white"/>
<path d="M118.669 61.0583L120.222 65.7553H120.283L121.833 61.0583H123.022L120.918 67.0257H119.584L117.483 61.0583H118.669ZM123.808 67.0257V61.0583H126.046C127.418 61.0583 128.15 61.8945 128.15 63.0338C128.15 64.1818 127.41 65.0093 126.031 65.0093H124.889V67.0257H123.808ZM124.889 64.1206H125.886C126.69 64.1206 127.048 63.669 127.048 63.0338C127.048 62.3986 126.69 61.9615 125.88 61.9615H124.889V64.1206ZM133.992 61.0583V67.0257H133.031L130.219 62.961H130.17V67.0257H129.089V61.0583H130.056L132.865 65.1259H132.917V61.0583H133.992ZM137.836 64.1061V64.9744H135.15V64.1061H137.836ZM138.992 67.0257V61.0583H140.047V63.2902H140.091C140.251 62.9668 140.58 62.4919 141.37 62.4919C142.404 62.4919 143.217 63.3019 143.217 64.7937C143.217 66.2681 142.428 67.1043 141.373 67.1043C140.604 67.1043 140.257 66.6469 140.091 66.3205H140.03V67.0257H138.992ZM140.027 64.7879C140.027 65.6562 140.406 66.2389 141.079 66.2389C141.775 66.2389 142.142 65.627 142.142 64.7879C142.142 63.9546 141.781 63.3572 141.079 63.3572C140.4 63.3572 140.027 63.9196 140.027 64.7879ZM146.095 67.1131C144.746 67.1131 143.922 66.2185 143.922 64.8141C143.922 63.433 144.758 62.4919 146.04 62.4919C147.142 62.4919 148.086 63.1824 148.086 64.7529V65.0763H144.968C144.977 65.8427 145.428 66.2914 146.11 66.2914C146.565 66.2914 146.914 66.0932 147.057 65.7145L148.042 65.8252C147.855 66.6032 147.139 67.1131 146.095 67.1131ZM144.971 64.3654H147.075C147.069 63.7564 146.661 63.3135 146.055 63.3135C145.425 63.3135 145.003 63.7943 144.971 64.3654ZM152.515 63.7331L151.554 63.838C151.472 63.5437 151.216 63.2786 150.729 63.2786C150.289 63.2786 149.954 63.4884 149.957 63.7914C149.954 64.0507 150.135 64.2081 150.589 64.31L151.353 64.4732C152.198 64.6568 152.608 65.0472 152.611 65.6853C152.608 66.5332 151.819 67.1131 150.7 67.1131C149.601 67.1131 148.911 66.6265 148.78 65.8048L149.808 65.7057C149.899 66.1078 150.213 66.3176 150.697 66.3176C151.198 66.3176 151.53 66.0874 151.53 65.7815C151.53 65.528 151.338 65.3619 150.927 65.2716L150.164 65.1113C149.304 64.9336 148.902 64.5023 148.905 63.8497C148.902 63.0222 149.636 62.4919 150.715 62.4919C151.763 62.4919 152.37 62.9755 152.515 63.7331ZM155.433 67.1131C154.096 67.1131 153.289 66.1603 153.289 64.8054C153.289 63.4388 154.116 62.4919 155.428 62.4919C156.52 62.4919 157.278 63.13 157.351 64.1002H156.342C156.261 63.669 155.949 63.3427 155.442 63.3427C154.792 63.3427 154.358 63.8846 154.358 64.7879C154.358 65.7028 154.784 66.2535 155.442 66.2535C155.905 66.2535 156.252 65.9767 156.342 65.4959H157.351C157.275 66.4458 156.558 67.1131 155.433 67.1131ZM159.271 64.4033V67.0257H158.217V61.0583H159.248V63.3106H159.301C159.507 62.8036 159.945 62.4919 160.632 62.4919C161.562 62.4919 162.174 63.095 162.174 64.176V67.0257H161.119V64.3392C161.119 63.736 160.792 63.3835 160.239 63.3835C159.674 63.3835 159.271 63.7564 159.271 64.4033ZM165.23 67.1131C163.881 67.1131 163.056 66.2185 163.056 64.8141C163.056 63.433 163.893 62.4919 165.175 62.4919C166.276 62.4919 167.22 63.1824 167.22 64.7529V65.0763H164.102C164.111 65.8427 164.563 66.2914 165.245 66.2914C165.699 66.2914 166.049 66.0932 166.192 65.7145L167.176 65.8252C166.99 66.6032 166.273 67.1131 165.23 67.1131ZM164.105 64.3654H166.209C166.203 63.7564 165.795 63.3135 165.189 63.3135C164.56 63.3135 164.137 63.7943 164.105 64.3654ZM168.113 67.0257V62.5501H169.135V63.296H169.182C169.345 62.7774 169.773 62.486 170.286 62.486C170.403 62.486 170.569 62.4977 170.665 62.5152V63.4854C170.575 63.4563 170.353 63.4243 170.175 63.4243C169.596 63.4243 169.167 63.8263 169.167 64.3945V67.0257H168.113ZM171.366 67.0257V62.5501H172.374V63.3106H172.426C172.613 62.8007 173.062 62.4919 173.662 62.4919C174.265 62.4919 174.699 62.8036 174.871 63.3106H174.918C175.116 62.8124 175.611 62.4919 176.261 62.4919C177.083 62.4919 177.659 63.0222 177.659 64.0216V67.0257H176.602V64.1847C176.602 63.6311 176.264 63.3805 175.838 63.3805C175.328 63.3805 175.028 63.7302 175.028 64.2343V67.0257H173.994V64.141C173.994 63.6807 173.688 63.3805 173.242 63.3805C172.788 63.3805 172.421 63.7535 172.421 64.3042V67.0257H171.366ZM178.73 67.0257V62.5501H179.784V67.0257H178.73ZM179.26 61.9149C178.922 61.9149 178.648 61.6585 178.648 61.3438C178.648 61.0262 178.922 60.7698 179.26 60.7698C179.595 60.7698 179.869 61.0262 179.869 61.3438C179.869 61.6585 179.595 61.9149 179.26 61.9149ZM181.924 64.4033V67.0257H180.869V62.5501H181.877V63.3106H181.93C182.134 62.8124 182.594 62.4919 183.264 62.4919C184.188 62.4919 184.8 63.1037 184.797 64.176V67.0257H183.742V64.3392C183.742 63.7419 183.416 63.3835 182.871 63.3835C182.314 63.3835 181.924 63.7564 181.924 64.4033ZM187.815 68.7972C186.676 68.7972 186.032 68.2931 185.84 67.6667L186.79 67.4365C186.918 67.6987 187.198 67.9988 187.833 67.9988C188.433 67.9988 188.87 67.7279 188.87 67.0694V66.2215H188.818C188.654 66.5507 188.296 66.9615 187.53 66.9615C186.498 66.9615 185.685 66.2331 185.685 64.7733C185.685 63.3019 186.498 62.4919 187.533 62.4919C188.322 62.4919 188.657 62.9668 188.818 63.2902H188.876V62.5501H189.916V67.0985C189.916 68.2436 189.025 68.7972 187.815 68.7972ZM187.824 66.134C188.497 66.134 188.876 65.6212 188.876 64.7675C188.876 63.9196 188.503 63.3572 187.824 63.3572C187.122 63.3572 186.761 63.9546 186.761 64.7675C186.761 65.5921 187.128 66.134 187.824 66.134ZM121.822 74.5501L120.228 79.0257H119.062L117.469 74.5501H118.593L119.622 77.8747H119.668L120.7 74.5501H121.822ZM124.352 79.1131C123.04 79.1131 122.207 78.1894 122.207 76.8054C122.207 75.4184 123.04 74.4919 124.352 74.4919C125.663 74.4919 126.496 75.4184 126.496 76.8054C126.496 78.1894 125.663 79.1131 124.352 79.1131ZM124.357 78.2681C125.071 78.2681 125.427 77.6212 125.427 76.8025C125.427 75.9837 125.071 75.3281 124.357 75.3281C123.632 75.3281 123.276 75.9837 123.276 76.8025C123.276 77.6212 123.632 78.2681 124.357 78.2681ZM129.344 79.1131C128.032 79.1131 127.199 78.1894 127.199 76.8054C127.199 75.4184 128.032 74.4919 129.344 74.4919C130.655 74.4919 131.488 75.4184 131.488 76.8054C131.488 78.1894 130.655 79.1131 129.344 79.1131ZM129.349 78.2681C130.063 78.2681 130.419 77.6212 130.419 76.8025C130.419 75.9837 130.063 75.3281 129.349 75.3281C128.624 75.3281 128.268 75.9837 128.268 76.8025C128.268 77.6212 128.624 78.2681 129.349 78.2681ZM132.383 79.0257V74.5501H133.406V75.296H133.453C133.616 74.7774 134.044 74.486 134.557 74.486C134.674 74.486 134.84 74.4977 134.936 74.5152V75.4854C134.845 75.4563 134.624 75.4243 134.446 75.4243C133.866 75.4243 133.438 75.8263 133.438 76.3945V79.0257H132.383ZM137.718 79.0257V73.0583H141.541V73.9645H138.799V75.5845H141.279V76.4907H138.799V79.0257H137.718ZM142.48 79.0257V74.5501H143.534V79.0257H142.48ZM143.01 73.9149C142.672 73.9149 142.398 73.6585 142.398 73.3438C142.398 73.0262 142.672 72.7698 143.01 72.7698C143.345 72.7698 143.619 73.0262 143.619 73.3438C143.619 73.6585 143.345 73.9149 143.01 73.9149ZM144.619 79.0257V74.5501H145.642V75.296H145.688C145.851 74.7774 146.28 74.486 146.793 74.486C146.909 74.486 147.075 74.4977 147.171 74.5152V75.4854C147.081 75.4563 146.86 75.4243 146.682 75.4243C146.102 75.4243 145.674 75.8263 145.674 76.3945V79.0257H144.619ZM149.669 79.1131C148.32 79.1131 147.496 78.2185 147.496 76.8141C147.496 75.433 148.332 74.4919 149.614 74.4919C150.715 74.4919 151.659 75.1824 151.659 76.7529V77.0763H148.542C148.55 77.8427 149.002 78.2914 149.684 78.2914C150.138 78.2914 150.488 78.0932 150.631 77.7145L151.616 77.8252C151.429 78.6032 150.712 79.1131 149.669 79.1131ZM148.544 76.3654H150.648C150.642 75.7564 150.234 75.3135 149.628 75.3135C148.999 75.3135 148.577 75.7943 148.544 76.3654ZM154.819 74.5501V75.366H153.889V79.0257H152.834V75.366H152.173V74.5501H152.834V74.1276C152.834 73.2244 153.455 72.7786 154.233 72.7786C154.597 72.7786 154.897 72.8543 155.034 72.9009L154.821 73.7168C154.734 73.6906 154.594 73.6527 154.428 73.6527C154.035 73.6527 153.889 73.8479 153.889 74.1976V74.5501H154.819ZM157.429 79.1131C156.117 79.1131 155.284 78.1894 155.284 76.8054C155.284 75.4184 156.117 74.4919 157.429 74.4919C158.74 74.4919 159.573 75.4184 159.573 76.8054C159.573 78.1894 158.74 79.1131 157.429 79.1131ZM157.434 78.2681C158.148 78.2681 158.504 77.6212 158.504 76.8025C158.504 75.9837 158.148 75.3281 157.434 75.3281C156.709 75.3281 156.353 75.9837 156.353 76.8025C156.353 77.6212 156.709 78.2681 157.434 78.2681ZM161.162 74.5501L162.066 76.2022L162.984 74.5501H164.1L162.75 76.7879L164.123 79.0257H163.013L162.066 77.4143L161.128 79.0257H160.009L161.372 76.7879L160.044 74.5501H161.162ZM166.951 79.0257V74.5501H168.005V79.0257H166.951ZM167.481 73.9149C167.143 73.9149 166.869 73.6585 166.869 73.3438C166.869 73.0262 167.143 72.7698 167.481 72.7698C167.816 72.7698 168.09 73.0262 168.09 73.3438C168.09 73.6585 167.816 73.9149 167.481 73.9149ZM172.627 75.7331L171.666 75.838C171.584 75.5437 171.328 75.2786 170.841 75.2786C170.401 75.2786 170.066 75.4884 170.069 75.7914C170.066 76.0507 170.247 76.2081 170.701 76.31L171.465 76.4732C172.31 76.6568 172.721 77.0472 172.724 77.6853C172.721 78.5332 171.931 79.1131 170.812 79.1131C169.714 79.1131 169.023 78.6265 168.892 77.8048L169.921 77.7057C170.011 78.1078 170.326 78.3176 170.809 78.3176C171.31 78.3176 171.643 78.0874 171.643 77.7815C171.643 77.528 171.45 77.3619 171.039 77.2716L170.276 77.1113C169.416 76.9336 169.014 76.5023 169.017 75.8497C169.014 75.0222 169.749 74.4919 170.827 74.4919C171.876 74.4919 172.482 74.9755 172.627 75.7331ZM176.916 79.116C176.063 79.116 175.419 78.6498 175.419 77.7698C175.419 76.7617 176.249 76.5023 177.117 76.4091C177.907 76.3246 178.225 76.31 178.225 76.007V75.9895C178.225 75.5495 177.957 75.299 177.467 75.299C176.951 75.299 176.654 75.5612 176.549 75.8671L175.564 75.7273C175.798 74.9114 176.52 74.4919 177.461 74.4919C178.315 74.4919 179.279 74.8473 179.279 76.0303V79.0257H178.265V78.4108H178.231C178.038 78.7867 177.619 79.116 176.916 79.116ZM177.19 78.3409C177.826 78.3409 178.228 77.9184 178.228 77.4202V76.8928C178.091 77.0035 177.537 77.0734 177.26 77.1113C176.788 77.1783 176.436 77.3473 176.436 77.7523C176.436 78.1399 176.75 78.3409 177.19 78.3409ZM181.628 79.116C180.774 79.116 180.13 78.6498 180.13 77.7698C180.13 76.7617 180.961 76.5023 181.829 76.4091C182.619 76.3246 182.936 76.31 182.936 76.007V75.9895C182.936 75.5495 182.668 75.299 182.179 75.299C181.663 75.299 181.366 75.5612 181.261 75.8671L180.276 75.7273C180.509 74.9114 181.232 74.4919 182.173 74.4919C183.027 74.4919 183.991 74.8473 183.991 76.0303V79.0257H182.977V78.4108H182.942C182.75 78.7867 182.33 79.116 181.628 79.116ZM181.902 78.3409C182.537 78.3409 182.939 77.9184 182.939 77.4202V76.8928C182.802 77.0035 182.249 77.0734 181.972 77.1113C181.5 77.1783 181.147 77.3473 181.147 77.7523C181.147 78.1399 181.462 78.3409 181.902 78.3409ZM186.106 76.4033V79.0257H185.052V74.5501H186.06V75.3106H186.112C186.316 74.8124 186.777 74.4919 187.447 74.4919C188.37 74.4919 188.982 75.1037 188.979 76.176V79.0257H187.925V76.3392C187.925 75.7419 187.598 75.3835 187.053 75.3835C186.497 75.3835 186.106 75.7564 186.106 76.4033Z" fill="white"/>
<path d="M119.526 93.1483C119.142 93.1483 118.814 93.0438 118.544 92.8347C118.274 92.624 118.067 92.3189 117.925 91.9194C117.782 91.5183 117.71 91.0339 117.71 90.4662C117.71 89.9019 117.782 89.4201 117.925 89.0206C118.069 88.6195 118.276 88.3136 118.547 88.1028C118.819 87.8903 119.145 87.7841 119.526 87.7841C119.906 87.7841 120.232 87.8903 120.502 88.1028C120.774 88.3136 120.981 88.6195 121.124 89.0206C121.269 89.4201 121.341 89.9019 121.341 90.4662C121.341 91.0339 121.27 91.5183 121.127 91.9194C120.984 92.3189 120.778 92.624 120.507 92.8347C120.237 93.0438 119.91 93.1483 119.526 93.1483ZM119.526 92.5874C119.906 92.5874 120.202 92.4039 120.413 92.0367C120.624 91.6696 120.729 91.1461 120.729 90.4662C120.729 90.0141 120.681 89.6291 120.584 89.3113C120.489 88.9934 120.351 88.7512 120.171 88.5847C119.992 88.4181 119.777 88.3348 119.526 88.3348C119.148 88.3348 118.853 88.5209 118.641 88.8931C118.429 89.2637 118.322 89.788 118.322 90.4662C118.322 90.9183 118.37 91.3025 118.465 91.6186C118.56 91.9347 118.697 92.1752 118.876 92.3401C119.056 92.505 119.272 92.5874 119.526 92.5874ZM124.013 93.1483C123.629 93.1483 123.302 93.0438 123.031 92.8347C122.761 92.624 122.555 92.3189 122.412 91.9194C122.269 91.5183 122.198 91.0339 122.198 90.4662C122.198 89.9019 122.269 89.4201 122.412 89.0206C122.556 88.6195 122.764 88.3136 123.034 88.1028C123.306 87.8903 123.632 87.7841 124.013 87.7841C124.394 87.7841 124.719 87.8903 124.989 88.1028C125.261 88.3136 125.469 88.6195 125.611 89.0206C125.756 89.4201 125.828 89.9019 125.828 90.4662C125.828 91.0339 125.757 91.5183 125.614 91.9194C125.471 92.3189 125.265 92.624 124.994 92.8347C124.724 93.0438 124.397 93.1483 124.013 93.1483ZM124.013 92.5874C124.394 92.5874 124.689 92.4039 124.9 92.0367C125.111 91.6696 125.216 91.1461 125.216 90.4662C125.216 90.0141 125.168 89.6291 125.071 89.3113C124.976 88.9934 124.838 88.7512 124.658 88.5847C124.479 88.4181 124.264 88.3348 124.013 88.3348C123.636 88.3348 123.341 88.5209 123.128 88.8931C122.916 89.2637 122.809 89.788 122.809 90.4662C122.809 90.9183 122.857 91.3025 122.952 91.6186C123.047 91.9347 123.184 92.1752 123.363 92.3401C123.543 92.505 123.76 92.5874 124.013 92.5874ZM127.246 92.409C127.12 92.409 127.012 92.3639 126.922 92.2738C126.832 92.1837 126.787 92.0758 126.787 91.95C126.787 91.8243 126.832 91.7163 126.922 91.6263C127.012 91.5362 127.12 91.4911 127.246 91.4911C127.371 91.4911 127.479 91.5362 127.569 91.6263C127.66 91.7163 127.705 91.8243 127.705 91.95C127.705 92.0333 127.683 92.1098 127.641 92.1795C127.6 92.2492 127.545 92.3053 127.475 92.3478C127.407 92.3886 127.331 92.409 127.246 92.409ZM127.246 89.7676C127.12 89.7676 127.012 89.7226 126.922 89.6325C126.832 89.5424 126.787 89.4345 126.787 89.3087C126.787 89.1829 126.832 89.075 126.922 88.9849C127.012 88.8948 127.12 88.8498 127.246 88.8498C127.371 88.8498 127.479 88.8948 127.569 88.9849C127.66 89.075 127.705 89.1829 127.705 89.3087C127.705 89.392 127.683 89.4685 127.641 89.5382C127.6 89.6079 127.545 89.664 127.475 89.7065C127.407 89.7472 127.331 89.7676 127.246 89.7676ZM130.477 93.1483C130.093 93.1483 129.766 93.0438 129.496 92.8347C129.225 92.624 129.019 92.3189 128.876 91.9194C128.733 91.5183 128.662 91.0339 128.662 90.4662C128.662 89.9019 128.733 89.4201 128.876 89.0206C129.021 88.6195 129.228 88.3136 129.498 88.1028C129.77 87.8903 130.096 87.7841 130.477 87.7841C130.858 87.7841 131.183 87.8903 131.454 88.1028C131.726 88.3136 131.933 88.6195 132.076 89.0206C132.22 89.4201 132.292 89.9019 132.292 90.4662C132.292 91.0339 132.221 91.5183 132.078 91.9194C131.936 92.3189 131.729 92.624 131.459 92.8347C131.189 93.0438 130.861 93.1483 130.477 93.1483ZM130.477 92.5874C130.858 92.5874 131.154 92.4039 131.364 92.0367C131.575 91.6696 131.681 91.1461 131.681 90.4662C131.681 90.0141 131.632 89.6291 131.535 89.3113C131.44 88.9934 131.302 88.7512 131.122 88.5847C130.944 88.4181 130.729 88.3348 130.477 88.3348C130.1 88.3348 129.805 88.5209 129.593 88.8931C129.38 89.2637 129.274 89.788 129.274 90.4662C129.274 90.9183 129.321 91.3025 129.417 91.6186C129.512 91.9347 129.649 92.1752 129.827 92.3401C130.007 92.505 130.224 92.5874 130.477 92.5874ZM133.139 92.0061V91.486L135.434 87.8555H135.811V88.6611H135.556L133.822 91.4044V91.4452H136.912V92.0061H133.139ZM135.597 93.0769V91.8481V91.6059V87.8555H136.198V93.0769H135.597ZM138.316 92.409C138.191 92.409 138.083 92.3639 137.993 92.2738C137.903 92.1837 137.857 92.0758 137.857 91.95C137.857 91.8243 137.903 91.7163 137.993 91.6263C138.083 91.5362 138.191 91.4911 138.316 91.4911C138.442 91.4911 138.55 91.5362 138.64 91.6263C138.73 91.7163 138.775 91.8243 138.775 91.95C138.775 92.0333 138.754 92.1098 138.712 92.1795C138.671 92.2492 138.616 92.3053 138.546 92.3478C138.478 92.3886 138.401 92.409 138.316 92.409ZM138.316 89.7676C138.191 89.7676 138.083 89.7226 137.993 89.6325C137.903 89.5424 137.857 89.4345 137.857 89.3087C137.857 89.1829 137.903 89.075 137.993 88.9849C138.083 88.8948 138.191 88.8498 138.316 88.8498C138.442 88.8498 138.55 88.8948 138.64 88.9849C138.73 89.075 138.775 89.1829 138.775 89.3087C138.775 89.392 138.754 89.4685 138.712 89.5382C138.671 89.6079 138.616 89.664 138.546 89.7065C138.478 89.7472 138.401 89.7676 138.316 89.7676ZM141.609 93.1483C141.273 93.1483 140.973 93.0905 140.709 92.975C140.447 92.8594 140.239 92.6988 140.084 92.4931C139.932 92.2857 139.848 92.0452 139.835 91.7716H140.477C140.491 91.9398 140.549 92.0852 140.65 92.2075C140.752 92.3282 140.886 92.4217 141.051 92.488C141.216 92.5543 141.398 92.5874 141.599 92.5874C141.823 92.5874 142.022 92.5483 142.196 92.4701C142.369 92.392 142.505 92.2832 142.603 92.1438C142.702 92.0044 142.751 91.843 142.751 91.6594C142.751 91.4673 142.704 91.2982 142.609 91.152C142.513 91.0042 142.374 90.8886 142.19 90.8053C142.007 90.722 141.782 90.6804 141.517 90.6804H141.099V90.1195H141.517C141.725 90.1195 141.907 90.0821 142.063 90.0073C142.221 89.9325 142.344 89.8271 142.433 89.6912C142.523 89.5552 142.568 89.3954 142.568 89.2118C142.568 89.0351 142.529 88.8813 142.45 88.7504C142.372 88.6195 142.262 88.5175 142.119 88.4444C141.978 88.3713 141.811 88.3348 141.619 88.3348C141.439 88.3348 141.269 88.3679 141.109 88.4342C140.951 88.4988 140.822 88.5932 140.722 88.7172C140.622 88.8396 140.567 88.9875 140.559 89.1609H139.947C139.957 88.8872 140.039 88.6475 140.194 88.4419C140.349 88.2345 140.551 88.073 140.801 87.9575C141.052 87.8419 141.329 87.7841 141.63 87.7841C141.952 87.7841 142.23 87.8495 142.461 87.9804C142.692 88.1096 142.869 88.2804 142.994 88.4929C143.118 88.7053 143.18 88.9348 143.18 89.1812C143.18 89.4753 143.102 89.726 142.948 89.9334C142.795 90.1407 142.586 90.2843 142.323 90.3642V90.405C142.653 90.4594 142.91 90.5996 143.095 90.8257C143.281 91.0501 143.373 91.328 143.373 91.6594C143.373 91.9432 143.296 92.1982 143.141 92.4243C142.988 92.6486 142.779 92.8254 142.514 92.9546C142.249 93.0837 141.947 93.1483 141.609 93.1483ZM144.579 93.0769L146.915 88.4572V88.4164H144.222V87.8555H147.567V88.447L145.242 93.0769H144.579Z" fill="white" fill-opacity="0.8"/>
<rect x="207.026" y="70.8974" width="23.0769" height="12.3077" rx="6.15385" fill="#3FE1B0"/>
<path fill-rule="evenodd" clip-rule="evenodd" d="M223.949 81.6667C226.498 81.6667 228.564 79.6003 228.564 77.0513C228.564 74.5023 226.498 72.4359 223.949 72.4359C221.4 72.4359 219.333 74.5023 219.333 77.0513C219.333 79.6003 221.4 81.6667 223.949 81.6667Z" fill="white"/>
</g>
<rect opacity="0.15" x="79.6898" y="62.0234" width="30.0557" height="30.0557" rx="15.0279" stroke="white" stroke-width="2.05128"/>
<rect opacity="0.1" x="70.6154" y="52.9487" width="48.2051" height="48.2051" rx="24.1026" stroke="white" stroke-width="1.02564"/>
<mask id="path-18-inside-1_175_4306" fill="white">
<path d="M74.2051 106.282H238.308V122.692C238.308 124.958 236.471 126.795 234.205 126.795H78.3077C76.0419 126.795 74.2051 124.958 74.2051 122.692V106.282Z"/>
</mask>
<path d="M74.2051 106.282H238.308V122.692C238.308 124.958 236.471 126.795 234.205 126.795H78.3077C76.0419 126.795 74.2051 124.958 74.2051 122.692V106.282Z" fill="#321C64"/>
<path d="M74.2051 105.769H238.308V106.795H74.2051V105.769ZM238.308 126.795H74.2051H238.308ZM74.2051 126.795V106.282V126.795ZM238.308 106.282V126.795V106.282Z" fill="white" fill-opacity="0.2" mask="url(#path-18-inside-1_175_4306)"/>
<g clip-path="url(#clip1_175_4306)">
<path d="M85.3732 113.576C84.8698 113.576 84.4615 113.984 84.4615 114.487V118.59C84.4615 119.093 84.8698 119.501 85.3732 119.501H86.7408V113.576H85.3732ZM91.755 113.576H90.3875V119.501H91.755C92.2585 119.501 92.6667 119.093 92.6667 118.59V114.487C92.6667 113.984 92.2585 113.576 91.755 113.576Z" fill="#D52B1E"/>
<path d="M86.7407 113.576H90.3874V119.501H86.7407V113.576Z" fill="#EEEEEE"/>
<path d="M88.7043 117.476C88.9773 117.508 89.2221 117.536 89.495 117.567L89.4254 117.339C89.4143 117.299 89.4302 117.255 89.4617 117.23L90.2546 116.584L90.0905 116.507C90.0183 116.481 90.0381 116.441 90.0643 116.343L90.1853 115.901L89.7247 115.999C89.6798 116.006 89.6499 115.977 89.6431 115.95L89.5836 115.742L89.2194 116.151C89.1677 116.217 89.0628 116.217 89.0954 116.065L89.2511 115.237L89.0421 115.345C88.9835 115.378 88.9249 115.384 88.8923 115.325L88.604 114.786V114.799V114.786L88.3157 115.325C88.2829 115.384 88.2243 115.378 88.1657 115.345L87.9569 115.237L88.1126 116.065C88.1454 116.217 88.0404 116.217 87.9886 116.151L87.6244 115.742L87.5652 115.95C87.5583 115.977 87.5282 116.006 87.4833 115.999L87.0227 115.902L87.1437 116.343C87.1695 116.441 87.1895 116.482 87.1173 116.507L86.9532 116.585L87.7461 117.231C87.7776 117.255 87.7935 117.299 87.7821 117.339L87.7126 117.568L88.5035 117.476C88.5277 117.476 88.5436 117.49 88.5434 117.517L88.4946 118.362H88.7125L88.664 117.517C88.6644 117.489 88.6801 117.476 88.7043 117.476Z" fill="#D52B1E"/>
</g>
<path d="M97.116 114.378V113.817H101.032V114.378H99.3901V119.038H98.7579V114.378H97.116ZM102.949 119.12C102.596 119.12 102.286 119.036 102.019 118.868C101.754 118.699 101.546 118.464 101.397 118.161C101.249 117.859 101.175 117.505 101.175 117.101C101.175 116.693 101.249 116.337 101.397 116.033C101.546 115.728 101.754 115.492 102.019 115.324C102.286 115.156 102.596 115.071 102.949 115.071C103.303 115.071 103.612 115.156 103.877 115.324C104.144 115.492 104.352 115.728 104.499 116.033C104.649 116.337 104.724 116.693 104.724 117.101C104.724 117.505 104.649 117.859 104.499 118.161C104.352 118.464 104.144 118.699 103.877 118.868C103.612 119.036 103.303 119.12 102.949 119.12ZM102.949 118.58C103.218 118.58 103.439 118.511 103.612 118.373C103.786 118.235 103.914 118.054 103.997 117.83C104.08 117.606 104.122 117.363 104.122 117.101C104.122 116.839 104.08 116.595 103.997 116.369C103.914 116.143 103.786 115.96 103.612 115.821C103.439 115.682 103.218 115.612 102.949 115.612C102.681 115.612 102.46 115.682 102.286 115.821C102.113 115.96 101.985 116.143 101.901 116.369C101.818 116.595 101.777 116.839 101.777 117.101C101.777 117.363 101.818 117.606 101.901 117.83C101.985 118.054 102.113 118.235 102.286 118.373C102.46 118.511 102.681 118.58 102.949 118.58ZM105.642 119.038V115.122H106.224V115.714H106.264C106.336 115.52 106.465 115.363 106.652 115.242C106.839 115.122 107.05 115.061 107.284 115.061C107.328 115.061 107.384 115.062 107.45 115.064C107.516 115.065 107.566 115.068 107.6 115.071V115.683C107.58 115.678 107.533 115.671 107.46 115.66C107.389 115.648 107.313 115.642 107.233 115.642C107.043 115.642 106.873 115.682 106.723 115.762C106.575 115.84 106.458 115.949 106.371 116.089C106.286 116.226 106.244 116.384 106.244 116.56V119.038H105.642ZM109.785 119.12C109.432 119.12 109.122 119.036 108.855 118.868C108.59 118.699 108.382 118.464 108.233 118.161C108.085 117.859 108.011 117.505 108.011 117.101C108.011 116.693 108.085 116.337 108.233 116.033C108.382 115.728 108.59 115.492 108.855 115.324C109.122 115.156 109.432 115.071 109.785 115.071C110.139 115.071 110.448 115.156 110.713 115.324C110.98 115.492 111.187 115.728 111.335 116.033C111.485 116.337 111.56 116.693 111.56 117.101C111.56 117.505 111.485 117.859 111.335 118.161C111.187 118.464 110.98 118.699 110.713 118.868C110.448 119.036 110.139 119.12 109.785 119.12ZM109.785 118.58C110.054 118.58 110.275 118.511 110.448 118.373C110.621 118.235 110.75 118.054 110.833 117.83C110.916 117.606 110.958 117.363 110.958 117.101C110.958 116.839 110.916 116.595 110.833 116.369C110.75 116.143 110.621 115.96 110.448 115.821C110.275 115.682 110.054 115.612 109.785 115.612C109.517 115.612 109.296 115.682 109.122 115.821C108.949 115.96 108.821 116.143 108.737 116.369C108.654 116.595 108.612 116.839 108.612 117.101C108.612 117.363 108.654 117.606 108.737 117.83C108.821 118.054 108.949 118.235 109.122 118.373C109.296 118.511 109.517 118.58 109.785 118.58ZM113.08 116.683V119.038H112.478V115.122H113.059V115.734H113.11C113.202 115.535 113.342 115.376 113.529 115.255C113.716 115.133 113.957 115.071 114.253 115.071C114.518 115.071 114.75 115.126 114.949 115.235C115.148 115.342 115.302 115.505 115.413 115.724C115.523 115.942 115.578 116.217 115.578 116.55V119.038H114.977V116.591C114.977 116.283 114.897 116.044 114.737 115.872C114.577 115.699 114.358 115.612 114.079 115.612C113.887 115.612 113.716 115.654 113.564 115.737C113.415 115.82 113.297 115.942 113.21 116.101C113.123 116.261 113.08 116.455 113.08 116.683ZM118.381 115.122V115.632H116.352V115.122H118.381ZM116.943 114.184H117.545V117.917C117.545 118.087 117.569 118.214 117.619 118.299C117.67 118.382 117.734 118.438 117.812 118.467C117.892 118.495 117.976 118.508 118.065 118.508C118.131 118.508 118.186 118.505 118.228 118.498C118.271 118.489 118.304 118.483 118.33 118.478L118.452 119.018C118.412 119.033 118.355 119.049 118.282 119.064C118.208 119.081 118.116 119.089 118.004 119.089C117.834 119.089 117.667 119.053 117.504 118.98C117.342 118.907 117.208 118.795 117.101 118.646C116.996 118.496 116.943 118.308 116.943 118.08V114.184ZM120.835 119.12C120.481 119.12 120.171 119.036 119.904 118.868C119.639 118.699 119.432 118.464 119.282 118.161C119.134 117.859 119.06 117.505 119.06 117.101C119.06 116.693 119.134 116.337 119.282 116.033C119.432 115.728 119.639 115.492 119.904 115.324C120.171 115.156 120.481 115.071 120.835 115.071C121.188 115.071 121.498 115.156 121.763 115.324C122.03 115.492 122.237 115.728 122.385 116.033C122.535 116.337 122.609 116.693 122.609 117.101C122.609 117.505 122.535 117.859 122.385 118.161C122.237 118.464 122.03 118.699 121.763 118.868C121.498 119.036 121.188 119.12 120.835 119.12ZM120.835 118.58C121.103 118.58 121.324 118.511 121.498 118.373C121.671 118.235 121.799 118.054 121.883 117.83C121.966 117.606 122.008 117.363 122.008 117.101C122.008 116.839 121.966 116.595 121.883 116.369C121.799 116.143 121.671 115.96 121.498 115.821C121.324 115.682 121.103 115.612 120.835 115.612C120.566 115.612 120.345 115.682 120.172 115.821C119.999 115.96 119.87 116.143 119.787 116.369C119.704 116.595 119.662 116.839 119.662 117.101C119.662 117.363 119.704 117.606 119.787 117.83C119.87 118.054 119.999 118.235 120.172 118.373C120.345 118.511 120.566 118.58 120.835 118.58Z" fill="white" fill-opacity="0.8"/>
</g>
<defs>
<filter id="filter0_i_175_4306" x="66" y="15" width="155.897" height="24.6154" filterUnits="userSpaceOnUse" color-interpolation-filters="sRGB">
<feFlood flood-opacity="0" result="BackgroundImageFix"/>
<feBlend mode="normal" in="SourceGraphic" in2="BackgroundImageFix" result="shape"/>
<feColorMatrix in="SourceAlpha" type="matrix" values="0 0 0 0 0 0 0 0 0 0 0 0 0 0 0 0 0 0 127 0" result="hardAlpha"/>
<feOffset dy="-0.51282"/>
<feComposite in2="hardAlpha" operator="arithmetic" k2="-1" k3="1"/>
<feColorMatrix type="matrix" values="0 0 0 0 0.905882 0 0 0 0 0.905882 0 0 0 0 0.905882 0 0 0 1 0"/>
<feBlend mode="normal" in2="shape" result="effect1_innerShadow_175_4306"/>
</filter>
<filter id="filter1_i_175_4306" x="221.897" y="15" width="24.6154" height="24.6154" filterUnits="userSpaceOnUse" color-interpolation-filters="sRGB">
<feFlood flood-opacity="0" result="BackgroundImageFix"/>
<feBlend mode="normal" in="SourceGraphic" in2="BackgroundImageFix" result="shape"/>
<feColorMatrix in="SourceAlpha" type="matrix" values="0 0 0 0 0 0 0 0 0 0 0 0 0 0 0 0 0 0 127 0" result="hardAlpha"/>
<feOffset dy="-0.51282"/>
<feComposite in2="hardAlpha" operator="arithmetic" k2="-1" k3="1"/>
<feColorMatrix type="matrix" values="0 0 0 0 0.905882 0 0 0 0 0.905882 0 0 0 0 0.905882 0 0 0 1 0"/>
<feBlend mode="normal" in2="shape" result="effect1_innerShadow_175_4306"/>
</filter>
<filter id="filter2_d_175_4306" x="72.1539" y="46.282" width="168.205" height="83.0769" filterUnits="userSpaceOnUse" color-interpolation-filters="sRGB">
<feFlood flood-opacity="0" result="BackgroundImageFix"/>
<feColorMatrix in="SourceAlpha" type="matrix" values="0 0 0 0 0 0 0 0 0 0 0 0 0 0 0 0 0 0 127 0" result="hardAlpha"/>
<feOffset dy="0.51282"/>
<feGaussianBlur stdDeviation="1.02564"/>
<feColorMatrix type="matrix" values="0 0 0 0 0.0470588 0 0 0 0 0.0470588 0 0 0 0 0.0509804 0 0 0 0.3 0"/>
<feBlend mode="normal" in2="BackgroundImageFix" result="effect1_dropShadow_175_4306"/>
<feBlend mode="normal" in="SourceGraphic" in2="effect1_dropShadow_175_4306" result="shape"/>
</filter>
<filter id="filter3_d_175_4306" x="72.1539" y="46.282" width="168.205" height="62.5641" filterUnits="userSpaceOnUse" color-interpolation-filters="sRGB">
<feFlood flood-opacity="0" result="BackgroundImageFix"/>
<feColorMatrix in="SourceAlpha" type="matrix" values="0 0 0 0 0 0 0 0 0 0 0 0 0 0 0 0 0 0 127 0" result="hardAlpha"/>
<feOffset dy="0.51282"/>
<feGaussianBlur stdDeviation="1.02564"/>
<feColorMatrix type="matrix" values="0 0 0 0 0.0470588 0 0 0 0 0.0470588 0 0 0 0 0.0509804 0 0 0 0.1 0"/>
<feBlend mode="normal" in2="BackgroundImageFix" result="effect1_dropShadow_175_4306"/>
<feBlend mode="normal" in="SourceGraphic" in2="effect1_dropShadow_175_4306" result="shape"/>
</filter>
<radialGradient id="paint0_radial_175_4306" cx="0" cy="0" r="1" gradientUnits="userSpaceOnUse" gradientTransform="translate(106.411 65.359) rotate(-44.9997) scale(33.0711)">
<stop stop-color="#B833E1"/>
<stop offset="0.371" stop-color="#9059FF"/>
<stop offset="0.614" stop-color="#5B6DF8"/>
<stop offset="1" stop-color="#0090ED"/>
</radialGradient>
<clipPath id="clip0_175_4306">
<rect x="66" y="15" width="180.513" height="120" rx="4.10256" fill="white"/>
</clipPath>
<clipPath id="clip1_175_4306">
<rect width="8.20513" height="8.20513" fill="white" transform="translate(84.4615 112.436)"/>
</clipPath>
</defs>
</svg>
