<svg width="24" height="24" viewBox="0 0 24 24" fill="none" xmlns="http://www.w3.org/2000/svg">
<path d="M6 17.6155C5.99867 17.7787 6.02983 17.9406 6.09168 18.0916C6.15352 18.2426 6.24481 18.3799 6.36022 18.4953C6.47563 18.6107 6.61286 18.702 6.7639 18.7638C6.91495 18.8257 7.07679 18.8568 7.24 18.8555H11V12.8555H6V17.6155ZM13 12.8555V18.8555H16.76C16.9232 18.8568 17.0851 18.8257 17.2361 18.7638C17.3871 18.702 17.5244 18.6107 17.6398 18.4953C17.7552 18.3799 17.8465 18.2426 17.9083 18.0916C17.9702 17.9406 18.0013 17.7787 18 17.6155V12.8555H13ZM5 8.8555V11.8555H11V7.8555H6C5.73478 7.8555 5.48043 7.96086 5.29289 8.14839C5.10536 8.33593 5 8.59028 5 8.8555ZM18 7.8555H13V11.8555H19V8.8555C19 8.59028 18.8946 8.33593 18.7071 8.14839C18.5196 7.96086 18.2652 7.8555 18 7.8555ZM14.05 4.2655C13.8844 4.14211 13.6925 4.05866 13.4893 4.02167C13.2862 3.98468 13.0772 3.99515 12.8787 4.05227C12.6803 4.10939 12.4977 4.21161 12.3453 4.35094C12.1928 4.49027 12.0747 4.66296 12 4.8555C11.9221 4.67199 11.8045 4.50802 11.6557 4.37535C11.5069 4.24269 11.3305 4.14463 11.1393 4.08822C10.9481 4.03181 10.7468 4.01845 10.5498 4.04911C10.3528 4.07976 10.165 4.15366 10 4.2655C9.2 4.9355 8.91 6.3355 12 7.8555C15.09 6.3355 14.8 4.9355 14.05 4.2655Z" fill="#3D3D3D"/>
</svg>
