<svg width="80" height="80" viewBox="0 0 80 80" fill="none" xmlns="http://www.w3.org/2000/svg">
<rect x="43" y="5" width="32" height="32" rx="16" fill="#C45A27"/>
<path fill-rule="evenodd" clip-rule="evenodd" d="M38.4944 25.5505H27.8068C30.3243 17.2 34.8938 11.5 40 11.5C40.0882 11.5 40.1762 11.5017 40.264 11.5051C42.0749 7.93887 44.874 4.95904 48.3009 2.92608C45.5972 2.31825 42.8148 2.00316 40 2C32.4843 2 25.1374 4.22866 18.8883 8.40415C12.6393 12.5796 7.76872 18.5144 4.89259 25.458C2.01646 32.4016 1.26394 40.0421 2.73018 47.4134C4.19641 54.7847 7.81556 61.5557 13.13 66.87C18.4444 72.1844 25.2153 75.8036 32.5866 77.2698C39.9579 78.7361 47.5984 77.9835 54.542 75.1074C61.4856 72.2313 67.4204 67.3607 71.5958 61.1117C75.7713 54.8626 78 47.5157 78 40C77.9968 37.1852 77.6818 34.4028 77.0739 31.6991C75.0416 35.1249 72.063 37.9234 68.4982 39.7343C68.4992 39.8228 68.4998 39.9114 68.5 40C68.4933 43.1673 67.9555 46.3111 66.9088 49.3005H58.259C58.6472 46.8835 58.8834 44.4452 58.9663 42C57.3373 41.9974 55.7518 41.8094 54.2298 41.4559C54.157 44.0865 53.8876 46.7087 53.4235 49.3005H26.5765C25.4725 43.1493 25.4725 36.8507 26.5765 30.6995H40.3694C39.5317 29.0938 38.8955 27.3663 38.4944 25.5505ZM27.8068 54.4495C30.3243 62.8 34.8938 68.5 40 68.5C45.1063 68.5 49.6758 62.8 52.198 54.4495H27.8068ZM13.0913 30.6995C12.0446 33.6889 11.5067 36.8327 11.5 40C11.5067 43.1673 12.0446 46.3111 13.0913 49.3005H21.741C20.7526 43.1395 20.7526 36.8604 21.741 30.6995H13.0913ZM22.8478 25.5505C23.8606 21.5329 25.5487 17.7166 27.84 14.2645C22.6866 16.7113 18.3813 20.6411 15.4758 25.5505H22.8478ZM22.8478 54.4495H15.49H15.4758C18.3813 59.3588 22.6866 63.2887 27.84 65.7355C25.5487 62.2834 23.8606 58.4671 22.8478 54.4495ZM52.1808 65.7256C57.3302 63.2805 61.6331 59.3544 64.5385 54.4495H57.1665C56.1547 58.4633 54.4688 62.2761 52.1808 65.7256Z" fill="url(#paint0_radial)"/>
<path d="M65.6929 25.0119L60.7399 15.1059C60.5739 14.7736 60.3185 14.4941 60.0025 14.2988C59.6866 14.1035 59.3224 14 58.9509 14C58.5795 14 58.2153 14.1035 57.8993 14.2988C57.5834 14.4941 57.328 14.7736 57.1619 15.1059L52.2089 25.0159C52.0575 25.3206 51.9863 25.659 52.0022 25.999C52.018 26.3389 52.1203 26.6692 52.2995 26.9586C52.4786 27.2479 52.7286 27.4868 53.0258 27.6526C53.323 27.8183 53.6576 27.9055 53.9979 27.9059H63.9029C64.2439 27.906 64.5792 27.819 64.8771 27.6531C65.1749 27.4872 65.4255 27.2479 65.6048 26.9579C65.7842 26.668 65.8864 26.337 65.9018 25.9964C65.9172 25.6557 65.8453 25.3169 65.6929 25.0119ZM57.9509 17.9059C57.9509 17.6406 58.0563 17.3863 58.2438 17.1988C58.4314 17.0112 58.6857 16.9059 58.9509 16.9059C59.2162 16.9059 59.4705 17.0112 59.658 17.1988C59.8456 17.3863 59.9509 17.6406 59.9509 17.9059V21.9059C59.9509 22.1711 59.8456 22.4254 59.658 22.613C59.4705 22.8005 59.2162 22.9059 58.9509 22.9059C58.6857 22.9059 58.4314 22.8005 58.2438 22.613C58.0563 22.4254 57.9509 22.1711 57.9509 21.9059V17.9059ZM58.9509 26.1559C58.7037 26.1559 58.462 26.0826 58.2565 25.9452C58.0509 25.8078 57.8907 25.6126 57.7961 25.3842C57.7015 25.1558 57.6767 24.9045 57.725 24.662C57.7732 24.4195 57.8922 24.1968 58.0671 24.022C58.2419 23.8472 58.4646 23.7281 58.7071 23.6799C58.9496 23.6317 59.2009 23.6564 59.4293 23.751C59.6577 23.8456 59.8529 24.0058 59.9903 24.2114C60.1276 24.417 60.2009 24.6586 60.2009 24.9059C60.2009 25.2374 60.0692 25.5553 59.8348 25.7897C59.6004 26.0242 59.2825 26.1559 58.9509 26.1559Z" fill="white"/>
<defs>
<radialGradient id="paint0_radial" cx="0" cy="0" r="1" gradientUnits="userSpaceOnUse" gradientTransform="translate(78 2) rotate(-45) scale(107.48)">
<stop stop-color="#B833E1"/>
<stop offset="0.371" stop-color="#9059FF"/>
<stop offset="0.614" stop-color="#5B6DF8"/>
<stop offset="1" stop-color="#0090ED"/>
</radialGradient>
</defs>
</svg>
