<svg width="186" height="184" viewBox="0 0 186 184" fill="none" xmlns="http://www.w3.org/2000/svg">
<path opacity="0.5" fill-rule="evenodd" clip-rule="evenodd" d="M99.5467 11.0868C127.863 9.46068 151.698 30.9356 168.01 54.1374C183.03 75.5 190.125 102.814 181.325 127.401C173.439 149.438 149.537 158.819 127.614 167.017C108.884 174.021 89.746 174.641 70.623 168.796C45.4698 161.108 13.6038 155.294 6.44836 129.984C-0.841784 104.198 23.7606 82.5712 40.2811 61.4726C57.0996 39.9933 72.3111 12.6509 99.5467 11.0868Z" fill="#E7DFFF"/>
<path d="M91.9354 137.875C117.675 137.875 138.541 116.758 138.541 90.7083C138.541 64.6588 117.675 43.5415 91.9354 43.5415C66.1957 43.5415 45.3296 64.6588 45.3296 90.7083C45.3296 116.758 66.1957 137.875 91.9354 137.875Z" fill="#C6CAFA" stroke="#C6CBFA" stroke-width="0.905508" stroke-linecap="round" stroke-linejoin="round"/>
<path d="M91.9336 143.779C120.895 143.779 144.373 120.019 144.373 90.7088C144.373 61.3987 120.895 37.6382 91.9336 37.6382C62.9721 37.6382 39.4941 61.3987 39.4941 90.7088C39.4941 120.019 62.9721 143.779 91.9336 143.779Z" stroke="black" stroke-width="0.905508" stroke-linecap="round" stroke-linejoin="round"/>
<path d="M78.0032 141.903C65.5962 129.836 57.6729 111.388 57.6729 90.7138C57.6729 70.0396 65.5962 51.5886 78.0032 39.5171" stroke="black" stroke-width="0.905508" stroke-linecap="round" stroke-linejoin="round"/>
<path d="M105.862 39.5122C118.265 51.5837 126.192 70.0302 126.192 90.7059C126.192 111.382 118.265 129.831 105.862 141.903" stroke="black" stroke-width="0.905508" stroke-linecap="round" stroke-linejoin="round"/>
<path d="M142.52 104.807C130.594 117.354 112.367 125.382 91.9371 125.382C71.5074 125.382 53.2772 117.354 41.3508 104.807" stroke="black" stroke-width="0.905508" stroke-linecap="round" stroke-linejoin="round"/>
<path d="M41.3401 76.6126C53.2665 64.0609 71.4951 56.0376 91.9234 56.0376C112.352 56.0376 130.583 64.0609 142.511 76.6126" stroke="black" stroke-width="0.905508" stroke-linecap="round" stroke-linejoin="round"/>
<path d="M39.4927 90.709H144.373" stroke="black" stroke-width="0.905508" stroke-linecap="round" stroke-linejoin="round"/>
<path d="M91.9329 37.6382V143.781" stroke="black" stroke-width="0.905508" stroke-linecap="round" stroke-linejoin="round"/>
<path d="M131.123 27.5217C131.546 27.0941 131.546 26.401 131.123 25.9734C130.701 25.5459 130.016 25.5459 129.594 25.9734C129.171 26.401 129.171 27.0941 129.594 27.5217C130.016 27.9492 130.701 27.9492 131.123 27.5217Z" stroke="black" stroke-width="0.905508" stroke-linecap="round" stroke-linejoin="round"/>
<path d="M150.75 112.032C150.846 111.433 150.444 110.869 149.852 110.773C149.261 110.676 148.704 111.083 148.608 111.681C148.513 112.28 148.915 112.844 149.506 112.94C150.098 113.037 150.655 112.63 150.75 112.032Z" stroke="black" stroke-width="0.905508" stroke-linecap="round" stroke-linejoin="round"/>
<path d="M30.5428 88.5642C30.9653 88.1366 30.9653 87.4435 30.5428 87.0159C30.1203 86.5884 29.4354 86.5884 29.013 87.0159C28.5905 87.4435 28.5905 88.1366 29.013 88.5642C29.4354 88.9917 30.1203 88.9917 30.5428 88.5642Z" stroke="black" stroke-width="0.905508" stroke-linecap="round" stroke-linejoin="round"/>
<path d="M138.243 43.5903V45.908" stroke="black" stroke-width="0.905508" stroke-linecap="round" stroke-linejoin="round"/>
<path d="M137.097 44.75H139.387" stroke="black" stroke-width="0.905508" stroke-linecap="round" stroke-linejoin="round"/>
<path d="M32.4863 119.447V121.763" stroke="black" stroke-width="0.905508" stroke-linecap="round" stroke-linejoin="round"/>
<path d="M31.3408 120.604H33.6294" stroke="black" stroke-width="0.905508" stroke-linecap="round" stroke-linejoin="round"/>
<path d="M125.771 53.8188C129.012 53.8188 131.639 51.1598 131.639 47.8798C131.639 44.5999 129.012 41.9409 125.771 41.9409C122.53 41.9409 119.902 44.5999 119.902 47.8798C119.902 51.1598 122.53 53.8188 125.771 53.8188Z" fill="#A883F8" stroke="black" stroke-width="0.905508" stroke-linecap="round" stroke-linejoin="round"/>
<path d="M125.771 96.6508C129.012 96.6508 131.639 93.9918 131.639 90.7119C131.639 87.4319 129.012 84.7729 125.771 84.7729C122.53 84.7729 119.902 87.4319 119.902 90.7119C119.902 93.9918 122.53 96.6508 125.771 96.6508Z" fill="#6A57DC" stroke="black" stroke-width="0.905508" stroke-linecap="round" stroke-linejoin="round"/>
<path d="M54.8727 133.642C58.1136 133.642 60.741 130.984 60.741 127.704C60.741 124.424 58.1136 121.765 54.8727 121.765C51.6317 121.765 49.0044 124.424 49.0044 127.704C49.0044 130.984 51.6317 133.642 54.8727 133.642Z" fill="#6A57DC" stroke="black" stroke-width="0.905508" stroke-linecap="round" stroke-linejoin="round"/>
<path d="M165.556 143.689H133.697C133.966 142.158 134.759 140.771 135.937 139.773C137.115 138.774 138.603 138.226 140.14 138.226C140.224 138.226 140.308 138.226 140.39 138.226C141.298 136.593 142.661 135.267 144.309 134.413C145.957 133.558 147.817 133.214 149.657 133.423C151.498 133.631 153.236 134.383 154.657 135.585C156.078 136.787 157.117 138.385 157.647 140.181C158.32 139.552 159.16 139.136 160.063 138.983C160.967 138.83 161.895 138.946 162.734 139.318C163.573 139.69 164.287 140.302 164.788 141.078C165.289 141.854 165.556 142.761 165.556 143.688V143.689Z" fill="#A883F8"/>
<path d="M156.941 146.181H117.451C117.784 144.283 118.767 142.565 120.227 141.326C121.687 140.088 123.531 139.41 125.436 139.41C125.54 139.41 125.645 139.41 125.748 139.41C126.873 137.386 128.562 135.743 130.603 134.684C132.645 133.625 134.95 133.198 137.23 133.455C139.51 133.713 141.665 134.644 143.426 136.132C145.187 137.62 146.476 139.6 147.133 141.825C147.968 141.046 149.009 140.531 150.129 140.342C151.249 140.153 152.399 140.297 153.439 140.759C154.479 141.22 155.364 141.978 155.985 142.94C156.606 143.902 156.937 145.026 156.938 146.175L156.941 146.181Z" stroke="black" stroke-width="0.905508" stroke-linecap="round" stroke-linejoin="round"/>
<path d="M125.951 146.181H166.349" stroke="black" stroke-width="0.905508" stroke-linecap="round" stroke-linejoin="round"/>
<path d="M106.897 150.476H147.296" stroke="black" stroke-width="0.905508" stroke-linecap="round" stroke-linejoin="round"/>
<path d="M74.993 32.84H43.134C43.4032 31.3089 44.1963 29.9224 45.3741 28.9235C46.552 27.9247 48.0396 27.3771 49.5763 27.3768C49.6607 27.3768 49.7451 27.3768 49.8264 27.3768C50.7348 25.7439 52.0979 24.4177 53.746 23.5635C55.394 22.7093 57.2541 22.365 59.0942 22.5734C60.9343 22.7818 62.6731 23.5338 64.0938 24.7356C65.5144 25.9374 66.5542 27.5358 67.0833 29.3316C67.7568 28.7031 68.5966 28.2869 69.5 28.1338C70.4035 27.9806 71.3315 28.0972 72.1705 28.4692C73.0096 28.8412 73.7234 29.4525 74.2246 30.2285C74.7259 31.0045 74.9929 31.9114 74.993 32.8385V32.84Z" fill="#A883F8"/>
<path d="M16.3315 39.626H56.7301" stroke="black" stroke-width="0.905508" stroke-linecap="round" stroke-linejoin="round"/>
<path d="M66.3758 35.3314H26.8857C27.2194 33.4335 28.2023 31.7149 29.6622 30.4769C31.1222 29.2388 32.9661 28.5602 34.8708 28.5599C34.9748 28.5599 35.0803 28.5599 35.1827 28.5599C36.308 26.5365 37.9967 24.893 40.0385 23.8342C42.0803 22.7755 44.3848 22.3482 46.6649 22.6057C48.945 22.8632 51.0998 23.7941 52.8607 25.2824C54.6216 26.7707 55.9108 28.7505 56.5677 30.9751C57.403 30.1968 58.4442 29.6816 59.5641 29.4923C60.6841 29.303 61.8342 29.4479 62.8741 29.9092C63.914 30.3706 64.7986 31.1285 65.4199 32.0903C66.0412 33.0521 66.3723 34.1762 66.3728 35.3253L66.3758 35.3314Z" stroke="black" stroke-width="0.905508" stroke-linecap="round" stroke-linejoin="round"/>
<path d="M58.864 86.4606C62.8322 86.4606 66.0491 83.205 66.0491 79.1891C66.0491 75.1731 62.8322 71.9175 58.864 71.9175C54.8958 71.9175 51.679 75.1731 51.679 79.1891C51.679 83.205 54.8958 86.4606 58.864 86.4606Z" fill="black" stroke="black" stroke-width="0.905508" stroke-linecap="round" stroke-linejoin="round"/>
<path d="M58.8644 86.2152C62.6986 86.2152 65.8069 83.0695 65.8069 79.1892C65.8069 75.3088 62.6986 72.1631 58.8644 72.1631C55.0301 72.1631 51.9219 75.3088 51.9219 79.1892C51.9219 83.0695 55.0301 86.2152 58.8644 86.2152Z" fill="#EFEFEF"/>
<path d="M65.8083 79.1891C65.8088 77.8673 65.4407 76.5721 64.7465 75.4525C64.0522 74.3329 63.0599 73.4343 61.8835 72.8599V85.5153C63.0594 84.9411 64.0514 84.0429 64.7457 82.9239C65.4399 81.8049 65.8082 80.5104 65.8083 79.1891Z" fill="#D50A2E"/>
<path d="M51.9219 79.1885C51.9207 80.5095 52.2876 81.8041 52.9805 82.9236C53.6734 84.0432 54.6642 84.9423 55.8391 85.5178V72.8623C54.6646 73.4376 53.6742 74.3362 52.9813 75.4551C52.2885 76.5741 51.9213 77.868 51.9219 79.1885Z" fill="#D50A2E"/>
<path d="M60.0719 80.1058L61.2787 79.4944L60.6761 79.1895V78.578L59.4678 79.1895L60.0719 77.9681H59.4678L58.8651 77.0518L58.261 77.9681H57.6568L58.261 79.1895L57.0526 78.578V79.1895L56.4485 79.4944L57.6568 80.1058L57.3555 80.7173H58.5623V81.6336H59.1664V80.7173H60.3732L60.0719 80.1058Z" fill="#D50A2E"/>
<path d="M28.6602 111.453C32.6284 111.453 35.8452 108.197 35.8452 104.181C35.8452 100.165 32.6284 96.9097 28.6602 96.9097C24.692 96.9097 21.4751 100.165 21.4751 104.181C21.4751 108.197 24.692 111.453 28.6602 111.453Z" fill="black" stroke="black" stroke-width="0.905508" stroke-linecap="round" stroke-linejoin="round"/>
<path d="M35.6031 104.181C35.5762 106.027 34.8329 107.788 33.5337 109.084C32.2345 110.379 30.4838 111.105 28.6598 111.105C26.8359 111.105 25.0851 110.379 23.7859 109.084C22.4868 107.788 21.7434 106.027 21.7166 104.181L28.6606 97.1538C29.5724 97.1538 30.4753 97.3356 31.3177 97.6888C32.1601 98.042 32.9255 98.5596 33.5702 99.2122C34.2149 99.8648 34.7262 100.64 35.075 101.492C35.4238 102.345 35.6033 103.259 35.6031 104.181Z" fill="#0B55B0"/>
<path d="M28.6426 104.182H28.6616V104.162L28.6426 104.182Z" fill="#EFEFEF"/>
<path d="M28.66 100.82V97.1602C26.8186 97.1606 25.0528 97.9011 23.7509 99.219C22.4489 100.537 21.7175 102.324 21.7175 104.188H25.3334V102.117L27.3734 104.182H28.6359L28.654 104.162V102.884L26.6201 100.82H28.66Z" fill="#EFEFEF"/>
<path d="M25.2305 98.0703C24.1434 98.6979 23.2427 99.6094 22.6226 100.71V104.182H24.4305V99.9031H28.6611V98.0734L25.2305 98.0703Z" fill="#D50A2E"/>
<path d="M28.6597 103.317L26.1934 100.819H25.3391L28.6537 104.174L28.6597 103.317Z" fill="#D50A2E"/>
<path d="M33.7407 102.368L33.8914 102.835H34.3765L33.9833 103.123L34.134 103.589L33.7407 103.301L33.349 103.589L33.4982 103.123L33.1064 102.835H33.5916L33.7407 102.368Z" fill="#D50A2E"/>
<path d="M32.0086 105.729L32.2331 106.429H32.9608L32.3717 106.862L32.5962 107.562L32.0086 107.129L31.4195 107.562L31.644 106.862L31.0549 106.429H31.7826L32.0086 105.729Z" fill="#D50A2E"/>
<path d="M32.074 100.229L32.2608 100.813H32.868L32.3769 101.173L32.5652 101.757L32.074 101.396L31.5829 101.757L31.7712 101.173L31.28 100.813H31.8872L32.074 100.229Z" fill="#D50A2E"/>
<path d="M30.4068 102.347L30.6312 103.047H31.3589L30.7699 103.48L30.9943 104.181L30.4068 103.748L29.8177 104.181L30.0422 103.48L29.4546 103.047H30.1823L30.4068 102.347Z" fill="#D50A2E"/>
<path d="M74.7915 98.0167C78.7597 98.0167 81.9766 94.7612 81.9766 90.7452C81.9766 86.7292 78.7597 83.4736 74.7915 83.4736C70.8233 83.4736 67.6064 86.7292 67.6064 90.7452C67.6064 94.7612 70.8233 98.0167 74.7915 98.0167Z" fill="black" stroke="black" stroke-width="0.905508" stroke-linecap="round" stroke-linejoin="round"/>
<path d="M74.7914 97.7714C78.6256 97.7714 81.7339 94.6257 81.7339 90.7453C81.7339 86.8649 78.6256 83.7192 74.7914 83.7192C70.9571 83.7192 67.8489 86.8649 67.8489 90.7453C67.8489 94.6257 70.9571 97.7714 74.7914 97.7714Z" fill="#EFEFEF"/>
<path d="M74.4883 90.7452H81.7351C81.7351 90.1274 81.6551 89.5123 81.4971 88.9155H74.4883V90.7452Z" fill="#D50A2E"/>
<path d="M74.4883 87.0782H80.7137C80.2886 86.379 79.7467 85.7599 79.1121 85.2485H74.4883V87.0782Z" fill="#D50A2E"/>
<path d="M74.7878 97.7713C76.3578 97.7742 77.8821 97.2365 79.1103 96.2466H70.4683C71.6954 97.2363 73.2187 97.774 74.7878 97.7713Z" fill="#D50A2E"/>
<path d="M68.8676 94.4107H80.7157C81.0605 93.8415 81.3233 93.2254 81.4961 92.5811H68.0872C68.2593 93.2257 68.5221 93.8419 68.8676 94.4107Z" fill="#D50A2E"/>
<path d="M71.0645 84.8151H71.6973L71.1082 85.2481L71.3342 85.948L70.7451 85.515L70.156 85.9434L70.3504 85.3335C69.8311 85.7734 69.3774 86.287 69.0035 86.8583H69.2144L68.8393 87.1343C68.782 87.2334 68.7248 87.3325 68.672 87.4392L68.8513 87.9958L68.5168 87.7503C68.434 87.9287 68.3586 88.1101 68.2893 88.2961L68.4867 88.906H69.2144L68.6118 89.3421L68.8378 90.042L68.2547 89.6029L67.9021 89.8621C67.8665 90.1529 67.8484 90.4457 67.8479 90.7388H74.7889V83.7173C73.4693 83.7156 72.1769 84.0966 71.0645 84.8151ZM71.3342 90.042L70.7451 89.6029L70.156 90.0359L70.382 89.336L69.7929 88.903H70.5206L70.7451 88.2031L70.9696 88.903H71.6973L71.1082 89.336L71.3342 90.042ZM71.1082 87.2974L71.3342 87.9973L70.7451 87.5658L70.156 87.9973L70.382 87.2974L69.7929 86.8583H70.5206L70.7451 86.1584L70.9696 86.8583H71.6973L71.1082 87.2974ZM73.8201 90.042L73.2356 89.6029L72.6465 90.0359L72.8725 89.336L72.2834 88.903H73.0111L73.2356 88.2031L73.4601 88.903H74.1863L73.5972 89.336L73.8201 90.042ZM73.5942 87.2974L73.8201 87.9973L73.2311 87.5658L72.642 87.9973L72.868 87.2974L72.2834 86.8583H73.0111L73.2356 86.1584L73.4601 86.8583H74.1863L73.5942 87.2974ZM73.5942 85.2512L73.8201 85.9511L73.2311 85.518L72.6465 85.9434L72.8725 85.2436L72.2834 84.8105H73.0111L73.2356 84.1107L73.4601 84.8105H74.1863L73.5942 85.2512Z" fill="#0B55B0"/>
<path d="M107.485 116.798C111.453 116.798 114.67 113.543 114.67 109.527C114.67 105.511 111.453 102.255 107.485 102.255C103.517 102.255 100.3 105.511 100.3 109.527C100.3 113.543 103.517 116.798 107.485 116.798Z" fill="black" stroke="black" stroke-width="0.905508" stroke-linecap="round" stroke-linejoin="round"/>
<path d="M107.485 116.553C111.319 116.553 114.428 113.407 114.428 109.527C114.428 105.647 111.319 102.501 107.485 102.501C103.651 102.501 100.542 105.647 100.542 109.527C100.542 113.407 103.651 116.553 107.485 116.553Z" fill="#EFEFEF"/>
<path d="M100.543 109.527C100.53 108.596 100.699 107.671 101.042 106.806C101.385 105.942 101.894 105.155 102.54 104.491C103.186 103.827 103.956 103.301 104.806 102.941C105.655 102.581 106.566 102.396 107.486 102.396C108.407 102.396 109.318 102.581 110.167 102.941C111.017 103.301 111.787 103.827 112.433 104.491C113.079 105.155 113.588 105.942 113.931 106.806C114.274 107.671 114.443 108.596 114.43 109.527" fill="#D50A2E"/>
<path d="M104.771 106.166C104.77 105.679 104.934 105.206 105.235 104.826C105.537 104.446 105.958 104.182 106.428 104.077C106.28 104.043 106.128 104.027 105.976 104.027C105.683 104.033 105.395 104.1 105.13 104.225C104.864 104.349 104.627 104.529 104.434 104.751C104.241 104.973 104.095 105.234 104.007 105.516C103.919 105.798 103.889 106.096 103.921 106.391C103.952 106.685 104.044 106.97 104.19 107.226C104.336 107.483 104.533 107.706 104.769 107.881C105.005 108.057 105.274 108.18 105.56 108.245C105.845 108.309 106.141 108.313 106.428 108.255C105.958 108.151 105.537 107.886 105.235 107.506C104.934 107.126 104.77 106.653 104.771 106.166Z" fill="#EFEFEF"/>
<path d="M107.484 104.18L107.634 104.646H108.119L107.726 104.934L107.877 105.403L107.484 105.113L107.092 105.403L107.241 104.934L106.849 104.646H107.334L107.484 104.18Z" fill="#EFEFEF"/>
<path d="M106.309 105.096L106.458 105.562H106.943L106.55 105.852L106.701 106.319L106.309 106.03L105.916 106.319L106.067 105.852L105.673 105.562H106.158L106.309 105.096Z" fill="#EFEFEF"/>
<path d="M108.663 105.096L108.813 105.562H109.297L108.905 105.852L109.056 106.319L108.663 106.03L108.271 106.319L108.42 105.852L108.028 105.562H108.513L108.663 105.096Z" fill="#EFEFEF"/>
<path d="M108.209 106.472L108.358 106.938H108.844L108.45 107.226L108.601 107.693L108.209 107.405L107.816 107.693L107.967 107.226L107.573 106.938H108.059L108.209 106.472Z" fill="#EFEFEF"/>
<path d="M106.762 106.472L106.913 106.938H107.397L107.005 107.226L107.154 107.693L106.762 107.405L106.371 107.693L106.52 107.226L106.128 106.938H106.613L106.762 106.472Z" fill="#EFEFEF"/>
<path d="M91.9253 74.3234C95.8935 74.3234 99.1104 71.0678 99.1104 67.0518C99.1104 63.0359 95.8935 59.7803 91.9253 59.7803C87.9571 59.7803 84.7402 63.0359 84.7402 67.0518C84.7402 71.0678 87.9571 74.3234 91.9253 74.3234Z" fill="black" stroke="black" stroke-width="0.905508" stroke-linecap="round" stroke-linejoin="round"/>
<path d="M91.9254 74.078C95.7597 74.078 98.8679 70.9324 98.8679 67.052C98.8679 63.1716 95.7597 60.0259 91.9254 60.0259C88.0912 60.0259 84.9829 63.1716 84.9829 67.052C84.9829 70.9324 88.0912 74.078 91.9254 74.078Z" fill="#EFEFEF"/>
<path d="M86.4179 62.7749C85.865 63.5007 85.459 64.3297 85.2231 65.2145H88.8391L86.4179 62.7749Z" fill="#0B55B0"/>
<path d="M98.6298 65.2194C98.3928 64.3347 97.9864 63.5058 97.4335 62.7798L95.0229 65.2194H98.6298Z" fill="#0B55B0"/>
<path d="M85.2231 68.8862C85.4601 69.7706 85.866 70.5994 86.4179 71.3258L88.8285 68.8862H85.2231Z" fill="#0B55B0"/>
<path d="M96.1538 61.4787C95.4363 60.9194 94.6172 60.5081 93.7432 60.2681V63.9275L96.1538 61.4787Z" fill="#0B55B0"/>
<path d="M87.6995 72.6265C88.4169 73.186 89.2359 73.5973 90.11 73.8372V70.1777L87.6995 72.6265Z" fill="#0B55B0"/>
<path d="M90.1142 60.2681C89.2401 60.5079 88.421 60.9192 87.7036 61.4787L90.1142 63.9183V60.2681Z" fill="#0B55B0"/>
<path d="M93.7366 73.8373C94.6107 73.5973 95.4297 73.1859 96.1472 72.6266L93.7366 70.187V73.8464V73.8373Z" fill="#0B55B0"/>
<path d="M95.0186 68.8862L97.4291 71.3258C97.9816 70.5995 98.388 69.7707 98.6254 68.8862H95.0186Z" fill="#0B55B0"/>
<path d="M98.8105 66.1354H92.8307V60.0851C92.2306 60.0061 91.6229 60.0061 91.0228 60.0851V66.1354H85.0415C84.9634 66.7427 84.9634 67.3577 85.0415 67.9651H91.0198V74.0199C91.6199 74.0989 92.2276 74.0989 92.8277 74.0199V67.9681H98.8075C98.8856 67.3608 98.8856 66.7458 98.8075 66.1384L98.8105 66.1354Z" fill="#D50A2E"/>
<path d="M93.7366 68.8865L96.8357 72.0214C96.9788 71.878 97.1144 71.7271 97.244 71.5639L94.5908 68.8804L93.7366 68.8865Z" fill="#D50A2E"/>
<path d="M90.1152 68.8862L87.0176 72.0211C87.1592 72.166 87.3084 72.3032 87.462 72.4344L90.1152 69.7492V68.8862Z" fill="#D50A2E"/>
<path d="M90.1153 65.2194L87.0177 62.0845C86.8745 62.2278 86.7389 62.3788 86.6094 62.5419L89.2611 65.2255L90.1153 65.2194Z" fill="#D50A2E"/>
<path d="M93.7375 65.219L96.8366 62.0841C96.6859 61.9393 96.5458 61.802 96.3846 61.6709L93.7314 64.3545L93.7375 65.219Z" fill="#D50A2E"/>
<path d="M155.603 80.2777C159.437 80.2777 162.545 77.1321 162.545 73.2517C162.545 69.3713 159.437 66.2256 155.603 66.2256C151.769 66.2256 148.66 69.3713 148.66 73.2517C148.66 77.1321 151.769 80.2777 155.603 80.2777Z" fill="#EFEFEF"/>
<path d="M155.603 80.5231C159.571 80.5231 162.788 77.2675 162.788 73.2515C162.788 69.2356 159.571 65.98 155.603 65.98C151.635 65.98 148.418 69.2356 148.418 73.2515C148.418 77.2675 151.635 80.5231 155.603 80.5231Z" fill="black" stroke="black" stroke-width="0.905508" stroke-linecap="round" stroke-linejoin="round"/>
<path d="M155.301 73.2521H162.546C162.546 72.6342 162.465 72.019 162.306 71.4224H155.301V73.2521Z" fill="#D50A2E"/>
<path d="M155.301 69.586H161.526C161.102 68.8863 160.56 68.267 159.924 67.7563H155.301V69.586Z" fill="#D50A2E"/>
<path d="M155.602 80.2787C157.173 80.282 158.697 79.7442 159.925 78.7539H151.281C152.509 79.744 154.033 80.2818 155.602 80.2787Z" fill="#D50A2E"/>
<path d="M149.679 76.9166H161.527C161.873 76.3481 162.136 75.7318 162.307 75.0869H148.898C149.07 75.7316 149.333 76.3478 149.679 76.9166Z" fill="#D50A2E"/>
<path d="M155.603 73.2517V66.2256C153.762 66.2256 151.996 66.9658 150.694 68.2835C149.392 69.6011 148.66 71.3882 148.66 73.2517H155.603Z" fill="#0B55B0"/>
<path d="M153.284 72.2393C153.023 72.2397 152.764 72.1796 152.529 72.0636C152.294 71.9476 152.088 71.7787 151.927 71.5699C151.766 71.361 151.655 71.1178 151.601 70.8587C151.547 70.5995 151.552 70.3314 151.617 70.0747C151.681 69.818 151.802 69.5795 151.971 69.3775C152.14 69.1755 152.353 69.0152 152.593 68.909C152.832 68.8027 153.093 68.7533 153.354 68.7644C153.615 68.7756 153.871 68.847 154.101 68.9733C153.804 68.6802 153.428 68.4823 153.02 68.4043C152.613 68.3263 152.191 68.3718 151.809 68.5349C151.427 68.6981 151.1 68.9717 150.871 69.3216C150.642 69.6714 150.519 70.082 150.519 70.5018C150.519 70.9217 150.642 71.3323 150.871 71.6821C151.1 72.032 151.427 72.3056 151.809 72.4688C152.191 72.6319 152.613 72.6774 153.02 72.5994C153.428 72.5214 153.804 72.3235 154.101 72.0304C153.85 72.1685 153.569 72.2404 153.284 72.2393Z" fill="#FDD853"/>
<path d="M153.761 69.2793L154.067 69.9243L154.755 69.7642L154.446 70.4076L155.001 70.8513L154.311 71.0084L154.312 71.7235L153.761 71.2767L153.211 71.7235L153.212 71.0084L152.522 70.8513L153.077 70.4076L152.768 69.7642L153.457 69.9243L153.761 69.2793Z" fill="#FDD853"/>
</svg>
