<svg width="151" height="104" viewBox="0 0 151 104" fill="none" xmlns="http://www.w3.org/2000/svg">
<path fill-rule="evenodd" clip-rule="evenodd" d="M143.885 47.9881V48.1H98.2469V48.0805C98.0181 48.0934 97.7875 48.1 97.5554 48.1C91.0631 48.1 85.8 42.9695 85.8 36.6407C85.8 30.3119 91.0631 25.1814 97.5554 25.1814C97.7875 25.1814 98.0181 25.188 98.2469 25.2009L98.2469 25.1814C98.2469 17.7358 104.439 11.7 112.077 11.7C118.412 11.7 123.753 15.8531 125.39 21.519C126.442 21.2693 127.541 21.137 128.672 21.137C135.363 21.137 140.944 25.7686 142.226 31.9222H143.885V32.034C147.81 32.6758 150.8 36.003 150.8 40.0111C150.8 44.0191 147.81 47.3463 143.885 47.9881Z" fill="url(#paint0_linear_1087_2899)"/>
<path fill-rule="evenodd" clip-rule="evenodd" d="M6.91489 92.1882C2.9904 91.5464 0 88.2192 0 84.2111C0 80.2031 2.9904 76.8759 6.91489 76.2341V76.1222H8.57452C9.8559 69.9687 15.4369 65.3371 22.1277 65.3371C23.2586 65.3371 24.3579 65.4694 25.4101 65.7191C27.047 60.0532 32.3877 55.9 38.7234 55.9C46.3614 55.9 52.5532 61.9359 52.5532 69.3815C52.5532 69.388 52.5532 69.3945 52.5532 69.401C52.782 69.3881 53.0125 69.3815 53.2447 69.3815C59.737 69.3815 65 74.512 65 80.8408C65 87.1695 59.737 92.3 53.2447 92.3C53.0126 92.3 52.782 92.2935 52.5532 92.2805V92.3H6.91489V92.1882Z" fill="url(#paint1_linear_1087_2899)"/>
<path fill-rule="evenodd" clip-rule="evenodd" d="M78.7272 4.06432C76.8249 2.11186 73.274 2.11186 71.3718 4.06432C58.1266 17.1806 51.0436 33.2513 50.4767 49.6064C50.4511 50.3458 50.0342 51.0143 49.3877 51.374C41.3983 55.8195 33.1233 64.5195 36.9737 75.3292C37.3508 76.3877 38.588 76.8009 39.6112 76.3366C43.1633 74.7248 47.5572 73.2496 52.5349 72.2613C53.1596 72.1372 53.7778 72.4918 53.9977 73.0895C54.6319 75.0418 56.6608 76.1903 58.69 76.1903H72.4046C72.6759 61.3764 84.7467 49.4455 99.6148 49.4001C98.9956 33.1162 91.9166 17.1255 78.7272 4.06432ZM72.67 80.5549C73.5697 86.9205 76.665 92.5804 81.165 96.7437C80.5397 97.6876 79.854 98.6094 79.1071 99.5051C77.078 102.032 73.0199 102.032 70.9908 99.5051C66.2985 93.8775 64.0158 87.2162 64.0158 80.5549H72.67ZM64.6504 30.3651C64.6504 25.0819 69.2159 20.9473 75.0495 20.9473C80.8831 20.9473 85.4486 25.0819 85.4486 30.3651C85.4486 35.6482 80.8831 39.7829 75.0495 39.7829C69.2159 39.7829 64.6504 35.4184 64.6504 30.3651Z" fill="url(#paint2_radial_1087_2899)"/>
<rect x="78.8999" y="55.9" width="41.6" height="41.6" rx="20.8" fill="#01A49A"/>
<path d="M97.0842 84.4899C96.7394 84.4898 96.4088 84.3528 96.1651 84.109L92.2651 80.209C92.0283 79.9638 91.8972 79.6354 91.9002 79.2946C91.9032 78.9537 92.0399 78.6276 92.2809 78.3866C92.5219 78.1456 92.848 78.0089 93.1889 78.0059C93.5297 78.0029 93.8581 78.134 94.1033 78.3708L96.9074 81.1749L105.118 69.445C105.317 69.1661 105.618 68.977 105.956 68.9189C106.294 68.8607 106.641 68.9383 106.921 69.1346C107.202 69.331 107.394 69.6302 107.455 69.9673C107.517 70.3044 107.443 70.6521 107.249 70.9348L98.1489 83.9348C98.0406 84.0913 97.8992 84.2222 97.7348 84.3181C97.5703 84.414 97.3869 84.4727 97.1973 84.4899C97.1596 84.4918 97.1218 84.4918 97.0842 84.4899Z" fill="white"/>
<defs>
<linearGradient id="paint0_linear_1087_2899" x1="150.02" y1="56.8723" x2="162.05" y2="14.9265" gradientUnits="userSpaceOnUse">
<stop stop-color="white" stop-opacity="0.01"/>
<stop offset="1" stop-opacity="0.15"/>
</linearGradient>
<linearGradient id="paint1_linear_1087_2899" x1="63.6433" y1="83.0337" x2="52.1809" y2="42.0964" gradientUnits="userSpaceOnUse">
<stop stop-color="white" stop-opacity="0.01"/>
<stop offset="1" stop-opacity="0.15"/>
</linearGradient>
<radialGradient id="paint2_radial_1087_2899" cx="0" cy="0" r="1" gradientUnits="userSpaceOnUse" gradientTransform="translate(99.6148 2.59998) rotate(122.776) scale(117.509 106.974)">
<stop stop-color="#9D62FC"/>
<stop offset="1" stop-color="#FD3296"/>
</radialGradient>
</defs>
</svg>
