<svg width="116" height="80" viewBox="0 0 116 80" fill="none" xmlns="http://www.w3.org/2000/svg">
<path fill-rule="evenodd" clip-rule="evenodd" d="M110.681 36.914V37H75.5745V36.985C75.3985 36.995 75.2211 37 75.0426 37C70.0485 37 66 33.0535 66 28.1852C66 23.3169 70.0485 19.3704 75.0426 19.3704C75.2211 19.3704 75.3985 19.3754 75.5745 19.3854L75.5745 19.3704C75.5745 13.643 80.3374 9 86.2128 9C91.0864 9 95.1946 12.1947 96.4538 16.5531C97.2631 16.3611 98.1087 16.2593 98.9787 16.2593C104.125 16.2593 108.419 19.822 109.404 24.5556H110.681V24.6416C113.7 25.1353 116 27.6947 116 30.7778C116 33.8609 113.7 36.4203 110.681 36.914Z" fill="url(#paint0_linear_3835_102)"/>
<path fill-rule="evenodd" clip-rule="evenodd" d="M5.31915 70.914C2.3003 70.4203 0 67.8609 0 64.7778C0 61.6947 2.3003 59.1353 5.31915 58.6416V58.5556H6.59578C7.58146 53.822 11.8746 50.2593 17.0213 50.2593C17.8913 50.2593 18.7368 50.3611 19.5462 50.5531C20.8054 46.1947 24.9136 43 29.7872 43C35.6626 43 40.4255 47.643 40.4255 53.3704C40.4255 53.3754 40.4255 53.3804 40.4255 53.3854C40.6015 53.3754 40.7789 53.3704 40.9574 53.3704C45.9515 53.3704 50 57.3169 50 62.1852C50 67.0535 45.9515 71 40.9574 71C40.7789 71 40.6015 70.995 40.4255 70.985V71H5.31915V70.914Z" fill="url(#paint1_linear_3835_102)"/>
<path fill-rule="evenodd" clip-rule="evenodd" d="M60.5594 3.12642C59.0961 1.62453 56.3646 1.62453 54.9014 3.12642C44.7876 13.1418 39.3447 25.3965 38.8387 37.8815C38.8087 38.6208 38.3917 39.2883 37.7489 39.6546C31.7902 43.0507 25.7428 49.499 28.2906 57.4986C28.6316 58.5692 29.8736 58.979 30.9025 58.5276C33.5559 57.3634 36.782 56.3063 40.4115 55.5856C40.892 55.4902 41.3676 55.7629 41.5367 56.2227C42.0245 57.7245 43.5853 58.6079 45.1462 58.6079H55.6959C55.9046 47.2115 65.1917 38.0332 76.6303 38.0001C76.6265 37.9608 76.6237 37.9213 76.6221 37.8816C76.1161 25.3965 70.6731 13.1418 60.5594 3.12642ZM55.9 61.9653C56.5921 66.862 58.9731 71.2157 62.4346 74.4182C61.9537 75.1443 61.4261 75.8534 60.8517 76.5424C59.2908 78.4861 56.1692 78.4861 54.6083 76.5424C50.9989 72.2135 49.2429 67.0894 49.2429 61.9653H55.9ZM49.7311 23.3578C49.7311 19.2938 53.243 16.1133 57.7304 16.1133C62.2178 16.1133 65.7297 19.2938 65.7297 23.3578C65.7297 27.4217 62.2178 30.6022 57.7304 30.6022C53.243 30.6022 49.7311 27.2449 49.7311 23.3578Z" fill="url(#paint2_radial_3835_102)"/>
<rect x="60.6923" y="43" width="32" height="32" rx="16" fill="#3FE1B0"/>
<path d="M74.68 64.9922C74.4148 64.9921 74.1605 64.8867 73.973 64.6992L70.973 61.6992C70.7909 61.5106 70.6901 61.258 70.6924 60.9958C70.6946 60.7336 70.7998 60.4828 70.9852 60.2974C71.1706 60.112 71.4214 60.0068 71.6836 60.0045C71.9458 60.0022 72.1984 60.103 72.387 60.2852L74.544 62.4422L80.86 53.4192C81.0131 53.2046 81.2447 53.0592 81.5045 53.0145C81.7642 52.9698 82.0311 53.0294 82.2471 53.1805C82.4631 53.3315 82.6107 53.5617 82.6579 53.821C82.7051 54.0803 82.648 54.3478 82.499 54.5652L75.499 64.5652C75.4157 64.6856 75.307 64.7863 75.1805 64.8601C75.054 64.9339 74.9129 64.979 74.767 64.9922C74.7381 64.9937 74.709 64.9937 74.68 64.9922Z" fill="white"/>
<defs>
<linearGradient id="paint0_linear_3835_102" x1="115.4" y1="43.7479" x2="124.654" y2="11.4819" gradientUnits="userSpaceOnUse">
<stop stop-color="white" stop-opacity="0.01"/>
<stop offset="1" stop-opacity="0.15"/>
</linearGradient>
<linearGradient id="paint1_linear_3835_102" x1="48.9564" y1="63.8721" x2="40.1391" y2="32.3818" gradientUnits="userSpaceOnUse">
<stop stop-color="white" stop-opacity="0.01"/>
<stop offset="1" stop-opacity="0.15"/>
</linearGradient>
<radialGradient id="paint2_radial_3835_102" cx="0" cy="0" r="1" gradientUnits="userSpaceOnUse" gradientTransform="translate(76.6303 2) rotate(122.778) scale(90.3934 82.2916)">
<stop stop-color="#9D62FC"/>
<stop offset="1" stop-color="#FD3296"/>
</radialGradient>
</defs>
</svg>
