<svg width="174" height="120" viewBox="0 0 174 120" fill="none" xmlns="http://www.w3.org/2000/svg">
<path fill-rule="evenodd" clip-rule="evenodd" d="M166.021 55.371V55.5H113.362V55.4775C113.098 55.4924 112.832 55.5 112.564 55.5C105.073 55.5 99 49.5802 99 42.2778C99 34.9753 105.073 29.0556 112.564 29.0556C112.832 29.0556 113.098 29.0631 113.362 29.0781L113.362 29.0556C113.362 20.4645 120.506 13.5 129.319 13.5C136.63 13.5 142.792 18.2921 144.681 24.8297C145.895 24.5416 147.163 24.3889 148.468 24.3889C156.188 24.3889 162.628 29.733 164.106 36.8333H166.021V36.9624C170.55 37.7029 174 41.542 174 46.1667C174 50.7913 170.55 54.6304 166.021 55.371Z" fill="url(#paint0_linear_1061_2530)"/>
<path fill-rule="evenodd" clip-rule="evenodd" d="M7.97872 106.371C3.45046 105.63 0 101.791 0 97.1667C0 92.542 3.45046 88.7029 7.97872 87.9624V87.8333H9.89367C11.3722 80.733 17.8118 75.3889 25.5319 75.3889C26.8369 75.3889 28.1053 75.5416 29.3193 75.8297C31.2081 69.2921 37.3704 64.5 44.6809 64.5C53.4939 64.5 60.6383 71.4645 60.6383 80.0556C60.6383 80.0631 60.6383 80.0706 60.6383 80.0781C60.9023 80.0631 61.1683 80.0556 61.4362 80.0556C68.9273 80.0556 75 85.9753 75 93.2778C75 100.58 68.9273 106.5 61.4362 106.5C61.1683 106.5 60.9023 106.492 60.6383 106.478V106.5H7.97872V106.371Z" fill="url(#paint1_linear_1061_2530)"/>
<rect x="92.764" y="65.7695" width="46.1536" height="46.1536" rx="23.0768" fill="#0060DF"/>
<path fill-rule="evenodd" clip-rule="evenodd" d="M78.3508 23.9422C78.3508 19.1628 82.2252 15.2884 87.0046 15.2884C91.7839 15.2884 95.6584 19.1628 95.6584 23.9422C95.6584 28.7216 91.7839 32.596 87.0046 32.596C82.2252 32.596 78.3508 28.7216 78.3508 23.9422ZM87.0046 3.75C75.8527 3.75 66.8124 12.7904 66.8124 23.9422C66.8124 27.4183 67.6907 30.6893 69.2376 33.5452L60.5488 42.234C57.692 40.6859 54.4198 39.8068 50.9422 39.8068C39.7904 39.8068 30.75 48.8471 30.75 59.999C30.75 71.1508 39.7904 80.1912 50.9422 80.1912C60.0893 80.1912 67.8158 74.1091 70.2982 65.7684H98.5336C102.997 62.4152 108.464 60.3266 114.404 60.0346C114.404 60.0228 114.404 60.0109 114.404 59.999C114.404 55.2196 118.278 51.3452 123.058 51.3452C127.837 51.3452 131.712 55.2196 131.712 59.999C131.712 61.4835 131.338 62.8806 130.679 64.1015C134.058 66.1316 136.987 68.8342 139.28 72.0242C141.774 68.665 143.25 64.5043 143.25 59.999C143.25 48.8471 134.21 39.8068 123.058 39.8068C113.911 39.8068 106.184 45.8891 103.702 54.23H70.2983C69.8987 52.8872 69.3631 51.6029 68.7076 50.3931L77.395 41.7056C80.2525 43.2547 83.5258 44.1344 87.0046 44.1344C98.1564 44.1344 107.197 35.0941 107.197 23.9422C107.197 12.7904 98.1564 3.75 87.0046 3.75ZM99.0254 112.284C95.8349 109.99 93.1318 107.061 91.1012 103.682C89.8817 104.339 88.4866 104.712 87.0046 104.712C82.2252 104.712 78.3508 100.837 78.3508 96.0578C78.3508 91.2785 82.2252 87.404 87.0046 87.404C87.0141 87.404 87.0237 87.4041 87.0333 87.4041C87.2326 83.3541 88.2671 79.5237 89.9682 76.0816C89.001 75.9393 88.0114 75.8656 87.0046 75.8656C75.8527 75.8656 66.8124 84.906 66.8124 96.0578C66.8124 107.21 75.8527 116.25 87.0046 116.25C91.5079 116.25 95.667 114.776 99.0254 112.284ZM42.2884 59.999C42.2884 55.2196 46.1628 51.3452 50.9422 51.3452C55.7216 51.3452 59.596 55.2196 59.596 59.999C59.596 64.7784 55.7216 68.6528 50.9422 68.6528C46.1628 68.6528 42.2884 64.7784 42.2884 59.999Z" fill="black"/>
<path d="M113.024 83.9896C112.46 83.4264 111.547 83.4264 110.984 83.9896C110.421 84.5529 110.421 85.4661 110.984 86.0294L118.56 93.6059C119.124 94.1692 120.037 94.1692 120.6 93.6059C121.163 93.0426 121.163 92.1294 120.6 91.5662L113.024 83.9896Z" fill="white"/>
<path d="M107.648 83.7809L110.722 80.706C110.789 80.6381 110.869 80.5843 110.957 80.5476C111.045 80.5108 111.139 80.4919 111.235 80.4919C111.33 80.4919 111.424 80.5108 111.512 80.5476C111.6 80.5843 111.68 80.6381 111.747 80.706L116.348 85.3069L116.368 85.2853C116.906 84.7447 117.208 84.0133 117.208 83.2509C117.208 82.4885 116.906 81.7571 116.368 81.2165L113.299 78.1473C112.759 77.6096 112.027 77.3078 111.265 77.3078C110.502 77.3078 109.771 77.6096 109.23 78.1473L105.142 82.2362C104.604 82.7768 104.302 83.5082 104.302 84.2706C104.302 85.033 104.604 85.7644 105.142 86.305L108.211 89.3742C108.745 89.909 109.468 90.2119 110.224 90.2173C110.98 90.2227 111.707 89.9302 112.249 89.403L107.648 84.8079C107.58 84.7408 107.526 84.6608 107.489 84.5727C107.452 84.4845 107.433 84.3899 107.433 84.2944C107.433 84.1989 107.452 84.1043 107.489 84.0161C107.526 83.928 107.58 83.848 107.648 83.7809ZM126.488 91.3343L123.417 88.2636C122.876 87.7259 122.145 87.4241 121.383 87.4241C120.62 87.4241 119.889 87.7259 119.348 88.2636L119.327 88.2852L123.926 92.8847C123.994 92.9518 124.048 93.0317 124.084 93.1197C124.121 93.2077 124.14 93.3021 124.14 93.3975C124.14 93.4929 124.121 93.5873 124.084 93.6753C124.048 93.7633 123.994 93.8432 123.926 93.9102L120.851 96.9852C120.784 97.053 120.704 97.1068 120.616 97.1436C120.528 97.1803 120.434 97.1992 120.338 97.1992C120.243 97.1992 120.149 97.1803 120.061 97.1436C119.973 97.1068 119.893 97.053 119.826 96.9852L115.229 92.3886C114.702 92.9303 114.409 93.6579 114.415 94.4137C114.42 95.1696 114.723 95.8929 115.258 96.427L118.327 99.4963C118.868 100.034 119.599 100.336 120.361 100.336C121.124 100.336 121.855 100.034 122.396 99.4963L126.485 95.4073C127.024 94.867 127.327 94.1349 127.328 93.3714C127.328 92.6079 127.026 91.8754 126.488 91.3343Z" fill="white"/>
<defs>
<linearGradient id="paint0_linear_1061_2530" x1="173.1" y1="65.6219" x2="186.981" y2="17.2229" gradientUnits="userSpaceOnUse">
<stop stop-color="white" stop-opacity="0.01"/>
<stop offset="1" stop-opacity="0.15"/>
</linearGradient>
<linearGradient id="paint1_linear_1061_2530" x1="73.4346" y1="95.8081" x2="60.2087" y2="48.5727" gradientUnits="userSpaceOnUse">
<stop stop-color="white" stop-opacity="0.01"/>
<stop offset="1" stop-opacity="0.15"/>
</linearGradient>
</defs>
</svg>
