<svg width="80" height="80" viewBox="0 0 80 80" fill="none" xmlns="http://www.w3.org/2000/svg">
<path d="M40 2C32.4843 2 25.1374 4.22866 18.8883 8.40415C12.6393 12.5796 7.76872 18.5144 4.89259 25.458C2.01646 32.4016 1.26394 40.0421 2.73018 47.4134C4.19641 54.7847 7.81556 61.5557 13.13 66.87C18.4444 72.1844 25.2153 75.8036 32.5866 77.2698C39.9579 78.7361 47.5984 77.9835 54.542 75.1074C61.4856 72.2313 67.4204 67.3607 71.5959 61.1117C75.7713 54.8626 78 47.5157 78 40C77.9887 29.9252 73.9815 20.2664 66.8576 13.1424C59.7336 6.01851 50.0748 2.01132 40 2V2ZM64.5243 25.5505H57.1523C56.1394 21.5329 54.4513 17.7166 52.16 14.2645C57.3134 16.7113 61.6187 20.6411 64.5243 25.5505V25.5505ZM68.5 40C68.4933 43.1673 67.9555 46.3111 66.9088 49.3005H58.259C58.753 46.225 59.0008 43.1149 59 40C59.0008 36.8851 58.753 33.775 58.259 30.6995H66.9088C67.9555 33.6889 68.4933 36.8327 68.5 40V40ZM40 68.5C34.8938 68.5 30.3243 62.8 27.8068 54.4495H52.198C49.6758 62.8 45.1063 68.5 40 68.5ZM26.5765 49.3005C25.4725 43.1493 25.4725 36.8507 26.5765 30.6995H53.4188C53.97 33.769 54.2482 36.8814 54.25 40C54.2497 43.1185 53.9732 46.2308 53.4235 49.3005H26.5765ZM11.5 40C11.5067 36.8327 12.0446 33.6889 13.0913 30.6995H21.741C20.7526 36.8604 20.7526 43.1395 21.741 49.3005H13.0913C12.0446 46.3111 11.5067 43.1673 11.5 40V40ZM40 11.5C45.1063 11.5 49.6758 17.2 52.1933 25.5505H27.8068C30.3243 17.2 34.8938 11.5 40 11.5ZM27.84 14.2645C25.5487 17.7166 23.8606 21.5329 22.8478 25.5505H15.4758C18.3813 20.6411 22.6866 16.7113 27.84 14.2645V14.2645ZM15.49 54.4495H22.8478C23.8606 58.4671 25.5487 62.2834 27.84 65.7355C22.6866 63.2887 18.3813 59.3588 15.4758 54.4495H15.49ZM52.1743 65.7355C54.4656 62.2834 56.1537 58.4671 57.1665 54.4495H64.5385C61.6292 59.361 57.3186 63.2911 52.16 65.7355H52.1743Z" fill="url(#paint0_radial_1407_1160)"/>
<defs>
<radialGradient id="paint0_radial_1407_1160" cx="0" cy="0" r="1" gradientUnits="userSpaceOnUse" gradientTransform="translate(78 2) rotate(-45) scale(107.48)">
<stop stop-color="#B833E1"/>
<stop offset="0.371" stop-color="#9059FF"/>
<stop offset="0.614" stop-color="#5B6DF8"/>
<stop offset="1" stop-color="#0090ED"/>
</radialGradient>
</defs>
</svg>
