<svg width="22" height="22" viewBox="0 0 22 22" fill="none" xmlns="http://www.w3.org/2000/svg">
<path fill-rule="evenodd" clip-rule="evenodd" d="M7.76923 5.23077C7.76923 3.44646 9.21569 2 11 2C12.7843 2 14.2308 3.44646 14.2308 5.23077C14.2308 7.01507 12.7843 8.46154 11 8.46154C10.4436 8.46154 9.92005 8.32089 9.46296 8.0732L8.07319 9.46298C8.17809 9.65655 8.26379 9.86205 8.32774 10.0769H13.6722C14.0694 8.74241 15.3056 7.76926 16.7692 7.76926C18.5535 7.76926 19.9999 9.21573 19.9999 11C19.9999 12.7843 18.5535 14.2308 16.7692 14.2308C16.2128 14.2308 15.6892 14.0902 15.2321 13.8425L13.8424 15.2322C14.0901 15.6893 14.2307 16.2128 14.2307 16.7692C14.2307 18.5535 12.7843 20 11 20C9.21566 20 7.7692 18.5535 7.7692 16.7692C7.7692 14.9849 9.21566 13.5385 11 13.5385C11.5564 13.5385 12.0799 13.6791 12.537 13.9268L13.9267 12.537C13.8218 12.3435 13.7361 12.138 13.6722 11.9231H8.32776C7.93059 13.2576 6.69433 14.2308 5.23077 14.2308C3.44646 14.2308 2 12.7843 2 11C2 9.21573 3.44646 7.76926 5.23077 7.76926C5.78714 7.76926 6.31067 7.9099 6.76774 8.15757L8.15755 6.76776C7.90987 6.31069 7.76923 5.78715 7.76923 5.23077ZM9.61535 16.7692C9.61535 16.0045 10.2353 15.3846 11 15.3846C11.7647 15.3846 12.3846 16.0045 12.3846 16.7692C12.3846 17.5339 11.7647 18.1538 11 18.1538C10.2353 18.1538 9.61535 17.5339 9.61535 16.7692ZM5.23077 9.61542C4.46607 9.61542 3.84615 10.2353 3.84615 11C3.84615 11.7647 4.46607 12.3846 5.23077 12.3846C5.99547 12.3846 6.61539 11.7647 6.61539 11C6.61539 10.2353 5.99547 9.61542 5.23077 9.61542ZM15.3845 11C15.3845 10.2353 16.0045 9.61542 16.7692 9.61542C17.5339 9.61542 18.1538 10.2353 18.1538 11C18.1538 11.7647 17.5339 12.3846 16.7692 12.3846C16.0045 12.3846 15.3845 11.7647 15.3845 11Z" fill="black"/>
</svg>
