<?xml version="1.0" encoding="UTF-8" standalone="no"?>
<!-- Created with Inkscape (http://www.inkscape.org/) -->

<svg
   version="1.1"
   id="svg1"
   width="80"
   height="80"
   viewBox="0 0 80 80"
   sodipodi:docname="logo-generic.svg"
   inkscape:version="1.3.2 (091e20ef0f, 2023-11-25)"
   xmlns:inkscape="http://www.inkscape.org/namespaces/inkscape"
   xmlns:sodipodi="http://sodipodi.sourceforge.net/DTD/sodipodi-0.dtd"
   xmlns="http://www.w3.org/2000/svg"
   xmlns:svg="http://www.w3.org/2000/svg">
  <defs
     id="defs1">
    <inkscape:path-effect
       effect="fillet_chamfer"
       id="path-effect2"
       is_visible="true"
       lpeversion="1"
       nodesatellites_param="F,0,0,1,0,17.853261,0,1 @ F,0,0,1,0,18.184783,0,1 @ F,0,0,1,0,17.652173,0,1 @ F,0,0,1,0,17.683229,0,1"
       radius="0"
       unit="px"
       method="auto"
       mode="F"
       chamfer_steps="1"
       flexible="false"
       use_knot_distance="true"
       apply_no_radius="true"
       apply_with_radius="true"
       only_selected="false"
       hide_knots="false" />
  </defs>
  <sodipodi:namedview
     id="namedview1"
     pagecolor="#ffffff"
     bordercolor="#000000"
     borderopacity="0.25"
     inkscape:showpageshadow="2"
     inkscape:pageopacity="0.0"
     inkscape:pagecheckerboard="0"
     inkscape:deskcolor="#d1d1d1"
     inkscape:zoom="5.03125"
     inkscape:cx="46.012422"
     inkscape:cy="45.416149"
     inkscape:window-width="1195"
     inkscape:window-height="739"
     inkscape:window-x="26"
     inkscape:window-y="23"
     inkscape:window-maximized="0"
     inkscape:current-layer="g1" />
  <g
     inkscape:groupmode="layer"
     inkscape:label="Image"
     id="g1">
    <path
       id="rect2"
       style="fill:#161617;stroke:none;stroke-opacity:1;fill-opacity:1"
       d="M 17.853261,0 H 61.815217 A 18.184783,18.184783 45 0 1 80,18.184783 V 62.347827 A 17.652173,17.652173 135 0 1 62.347827,80 H 17.683229 A 17.683229,17.683229 45 0 1 0,62.316771 V 17.853261 A 17.853261,17.853261 135 0 1 17.853261,0 Z"
       inkscape:path-effect="#path-effect2"
       inkscape:original-d="M 0,0 H 80 V 80 H 0 Z" />
    <path
       fill-rule="evenodd"
       clip-rule="evenodd"
       d="m 40.013197,16.82989 c -2.499391,0 -4.525561,2.02617 -4.525561,4.525561 0,2.499393 2.02617,4.525562 4.525561,4.525562 2.499393,0 4.525562,-2.026169 4.525562,-4.525562 0,-2.499391 -2.026169,-4.525561 -4.525562,-4.525561 z m -10.559643,4.525561 c 0,-5.831932 4.727704,-10.559643 10.559643,-10.559643 5.831941,0 10.559644,4.727711 10.559644,10.559643 0,5.831941 -4.727703,10.559644 -10.559644,10.559644 -1.818521,0 -3.52971,-0.459722 -5.023673,-1.269269 l -4.542457,4.542457 c 0.342885,0.632673 0.622943,1.304341 0.831948,2.006633 h 17.468366 c 1.298156,-4.361886 5.338804,-7.542602 10.122322,-7.542602 5.831941,0 10.559644,4.727703 10.559644,10.559643 0,5.83194 -4.727703,10.559644 -10.559644,10.559644 -1.81852,0 -3.529711,-0.459723 -5.023673,-1.269269 l -4.542457,4.542457 c 0.809546,1.493963 1.269268,3.205153 1.269268,5.023673 0,5.831941 -4.727703,10.559644 -10.559644,10.559644 -5.831939,0 -10.559643,-4.727703 -10.559643,-10.559644 0,-5.83194 4.727704,-10.559642 10.559643,-10.559642 1.818522,0 3.529713,0.459721 5.023676,1.269193 l 4.542381,-4.542381 C 49.236443,44.602882 48.956311,43.93129 48.747381,43.228999 H 31.279015 c -1.298081,4.361886 -5.338804,7.542602 -10.122323,7.542602 -5.831933,0 -10.559642,-4.727704 -10.559642,-10.559644 0,-5.83194 4.727709,-10.559643 10.559642,-10.559643 1.818521,0 3.529712,0.459721 5.023675,1.269194 l 4.542382,-4.542382 c -0.809473,-1.493962 -1.269195,-3.205154 -1.269195,-5.023675 z m 6.034082,37.713011 c 0,-2.499391 2.02617,-4.52556 4.525561,-4.52556 2.499393,0 4.525562,2.026169 4.525562,4.52556 0,2.499393 -2.026169,4.525563 -4.525562,4.525563 -2.499391,0 -4.525561,-2.02617 -4.525561,-4.525563 z M 21.156692,35.686396 c -2.499392,0 -4.525562,2.026169 -4.525562,4.525561 0,2.499392 2.02617,4.525562 4.525562,4.525562 2.499392,0 4.525561,-2.02617 4.525561,-4.525562 0,-2.499392 -2.026169,-4.525561 -4.525561,-4.525561 z m 33.18745,4.525561 c 0,-2.499392 2.026169,-4.525561 4.525561,-4.525561 2.499392,0 4.525562,2.026169 4.525562,4.525561 0,2.499392 -2.02617,4.525562 -4.525562,4.525562 -2.499392,0 -4.525561,-2.02617 -4.525561,-4.525562 z"
       fill="#000000"
       id="path1"
       style="fill:#ffffff;fill-opacity:1;stroke-width:0.75426" />
  </g>
</svg>
