<svg width="117" height="80" viewBox="0 0 117 80" fill="none" xmlns="http://www.w3.org/2000/svg">
<path fill-rule="evenodd" clip-rule="evenodd" d="M111.181 36.914V37H76.0745V36.985C75.8985 36.995 75.7211 37 75.5426 37C70.5485 37 66.5 33.0535 66.5 28.1852C66.5 23.3169 70.5485 19.3704 75.5426 19.3704C75.7211 19.3704 75.8985 19.3754 76.0745 19.3854L76.0745 19.3704C76.0745 13.643 80.8374 9 86.7128 9C91.5864 9 95.6946 12.1947 96.9538 16.5531C97.7632 16.3611 98.6087 16.2593 99.4787 16.2593C104.625 16.2593 108.919 19.822 109.904 24.5556H111.181V24.6416C114.2 25.1353 116.5 27.6947 116.5 30.7778C116.5 33.8609 114.2 36.4203 111.181 36.914Z" fill="url(#paint0_linear_316_15398)"/>
<path fill-rule="evenodd" clip-rule="evenodd" d="M5.81915 70.914C2.80031 70.4203 0.5 67.8609 0.5 64.7778C0.5 61.6947 2.80031 59.1353 5.81915 58.6416V58.5556H7.09578C8.08146 53.822 12.3746 50.2593 17.5213 50.2593C18.3913 50.2593 19.2368 50.3611 20.0462 50.5531C21.3054 46.1947 25.4136 43 30.2872 43C36.1626 43 40.9255 47.643 40.9255 53.3704C40.9255 53.3754 40.9255 53.3804 40.9255 53.3854C41.1015 53.3754 41.2789 53.3704 41.4574 53.3704C46.4515 53.3704 50.5 57.3169 50.5 62.1852C50.5 67.0535 46.4515 71 41.4574 71C41.2789 71 41.1015 70.995 40.9255 70.985V71H5.81915V70.914Z" fill="url(#paint1_linear_316_15398)"/>
<path fill-rule="evenodd" clip-rule="evenodd" d="M58.5 9C55.1863 9 52.5 11.6863 52.5 15C52.5 18.3137 55.1863 21 58.5 21C61.8137 21 64.5 18.3137 64.5 15C64.5 11.6863 61.8137 9 58.5 9ZM44.5 15C44.5 7.26801 50.768 1 58.5 1C66.232 1 72.5 7.26801 72.5 15C72.5 22.732 66.232 29 58.5 29C56.089 29 53.8203 28.3905 51.8396 27.3172L45.8172 33.3396C46.2718 34.1784 46.6431 35.0689 46.9202 36H70.0798C71.8009 30.217 77.158 26 83.5 26C91.232 26 97.5 32.268 97.5 40C97.5 47.732 91.232 54 83.5 54C81.089 54 78.8203 53.3905 76.8396 52.3172L70.8172 58.3396C71.8905 60.3203 72.5 62.589 72.5 65C72.5 72.732 66.232 79 58.5 79C50.768 79 44.5 72.732 44.5 65C44.5 57.268 50.768 51 58.5 51C60.911 51 63.1797 51.6095 65.1604 52.6827L71.1827 46.6604C70.7282 45.8215 70.3568 44.9311 70.0798 44H46.9202C45.1992 49.783 39.842 54 33.5 54C25.768 54 19.5 47.732 19.5 40C19.5 32.268 25.768 26 33.5 26C35.911 26 38.1797 26.6095 40.1604 27.6827L46.1827 21.6604C45.1095 19.6797 44.5 17.411 44.5 15ZM52.5 65C52.5 61.6863 55.1863 59 58.5 59C61.8137 59 64.5 61.6863 64.5 65C64.5 68.3137 61.8137 71 58.5 71C55.1863 71 52.5 68.3137 52.5 65ZM33.5 34C30.1863 34 27.5 36.6863 27.5 40C27.5 43.3137 30.1863 46 33.5 46C36.8137 46 39.5 43.3137 39.5 40C39.5 36.6863 36.8137 34 33.5 34ZM77.5 40C77.5 36.6863 80.1863 34 83.5 34C86.8137 34 89.5 36.6863 89.5 40C89.5 43.3137 86.8137 46 83.5 46C80.1863 46 77.5 43.3137 77.5 40Z" fill="black"/>
<rect x="58.5" y="40" width="32" height="32" rx="16" fill="#0060DF"/>
<path d="M75.4962 50.5C75.4962 50.5 75.9242 52.93 76.7452 53.751C77.5662 54.572 79.9962 55 79.9962 55C79.9962 55 77.5662 55.394 76.7452 56.215C75.9242 57.036 75.4962 59.5 75.4962 59.5C75.4962 59.5 75.1022 57.036 74.2812 56.215C73.4602 55.394 70.9962 55 70.9962 55C70.9962 55 73.4602 54.572 74.2812 53.751C75.1022 52.93 75.4962 50.5 75.4962 50.5ZM75.4962 48.5H75.4822C75.0097 48.5034 74.5536 48.6739 74.1949 48.9814C73.8361 49.289 73.5978 49.7136 73.5222 50.18C73.4117 50.927 73.1895 51.6531 72.8632 52.334C72.1643 52.6749 71.419 52.9108 70.6512 53.034C70.1851 53.1156 69.763 53.3597 69.4599 53.7231C69.1569 54.0865 68.9925 54.5456 68.996 55.0188C68.9994 55.4919 69.1706 55.9486 69.4789 56.3075C69.7873 56.6664 70.2129 56.9043 70.6802 56.979C71.4364 57.0893 72.172 57.311 72.8632 57.637C73.1893 58.3288 73.411 59.0652 73.5212 59.822C73.5973 60.2887 73.8364 60.7134 74.196 61.0206C74.5555 61.3278 75.0123 61.4977 75.4852 61.5H75.4962C75.9673 61.5001 76.4233 61.334 76.7838 61.0309C77.1444 60.7278 77.3864 60.3071 77.4672 59.843C77.5906 59.0762 77.8264 58.3319 78.1672 57.634C78.8483 57.3081 79.5743 57.086 80.3212 56.975C80.7878 56.8994 81.2125 56.6611 81.5201 56.3022C81.8277 55.9433 81.9982 55.4871 82.0014 55.0144C82.0047 54.5418 81.8404 54.0832 81.5378 53.7202C81.2352 53.3571 80.8137 53.1129 80.3482 53.031C79.5903 52.9078 78.8552 52.6718 78.1672 52.331C77.8269 51.6428 77.5909 50.9077 77.4672 50.15C77.3849 49.6872 77.1423 49.2682 76.7819 48.9664C76.4214 48.6647 75.9663 48.4996 75.4962 48.5ZM68.9962 63C68.8779 62.9991 68.7638 62.9563 68.6741 62.8793C68.5844 62.8022 68.5249 62.6958 68.5062 62.579C68.4564 62.1602 68.3202 61.7564 68.1062 61.393C67.7428 61.179 67.339 61.0428 66.9202 60.993C66.8036 60.9741 66.6973 60.9146 66.6204 60.8249C66.5435 60.7352 66.5009 60.6211 66.5 60.503C66.4992 60.3848 66.5402 60.2702 66.6158 60.1794C66.6915 60.0886 66.7968 60.0275 66.9132 60.007C67.3346 59.95 67.7401 59.8081 68.1052 59.59C68.3171 59.2311 68.4533 58.8326 68.5052 58.419C68.5243 58.3024 68.5842 58.1964 68.674 58.1197C68.7639 58.043 68.878 58.0006 68.9962 58C69.1137 58.0001 69.2273 58.0415 69.3173 58.117C69.4073 58.1926 69.4678 58.2973 69.4882 58.413C69.5455 58.8303 69.6874 59.2315 69.9052 59.592C70.2661 59.8081 70.6666 59.9496 71.0832 60.008C71.199 60.0291 71.3036 60.0904 71.3786 60.181C71.4536 60.2716 71.4943 60.3858 71.4935 60.5034C71.4927 60.6211 71.4503 60.7347 71.374 60.8242C71.2977 60.9138 71.1922 60.9735 71.0762 60.993C70.662 61.0436 70.2629 61.1798 69.9042 61.393C69.6869 61.7584 69.5454 62.1638 69.4882 62.585C69.4682 62.701 69.4079 62.8063 69.3179 62.8822C69.2279 62.9581 69.1139 62.9998 68.9962 63ZM68.4962 52C68.3781 51.9992 68.2641 51.9565 68.1744 51.8796C68.0847 51.8028 68.0251 51.6966 68.0062 51.58C67.9693 51.2926 67.8795 51.0146 67.7412 50.76C67.4866 50.6217 67.2086 50.5319 66.9212 50.495C66.8046 50.4761 66.6983 50.4166 66.6214 50.3269C66.5445 50.2372 66.5019 50.1231 66.501 50.005C66.5002 49.8868 66.5412 49.7722 66.6168 49.6814C66.6925 49.5906 66.7978 49.5295 66.9142 49.509C67.2044 49.4677 67.4847 49.3739 67.7412 49.232C67.8783 48.98 67.9671 48.7046 68.0032 48.42C68.0222 48.3029 68.0822 48.1963 68.1725 48.1194C68.2628 48.0425 68.3776 48.0001 68.4962 48C68.6135 48 68.7271 48.0413 68.817 48.1167C68.907 48.192 68.9676 48.2965 68.9882 48.412C69.0296 48.6995 69.1238 48.9768 69.2662 49.23C69.5191 49.371 69.7956 49.4646 70.0822 49.506C70.198 49.5271 70.3026 49.5884 70.3776 49.679C70.4526 49.7696 70.4933 49.8838 70.4925 50.0014C70.4917 50.1191 70.4493 50.2327 70.373 50.3222C70.2967 50.4118 70.1912 50.4715 70.0752 50.491C69.7907 50.5284 69.5156 50.6186 69.2642 50.757C69.1223 51.0135 69.0285 51.2938 68.9872 51.584C68.9674 51.7 68.9073 51.8054 68.8175 51.8815C68.7277 51.9576 68.6139 51.9996 68.4962 52Z" fill="white"/>
<defs>
<linearGradient id="paint0_linear_316_15398" x1="115.9" y1="43.7479" x2="125.154" y2="11.4819" gradientUnits="userSpaceOnUse">
<stop stop-color="white" stop-opacity="0.01"/>
<stop offset="1" stop-opacity="0.15"/>
</linearGradient>
<linearGradient id="paint1_linear_316_15398" x1="49.4564" y1="63.8721" x2="40.6391" y2="32.3818" gradientUnits="userSpaceOnUse">
<stop stop-color="white" stop-opacity="0.01"/>
<stop offset="1" stop-opacity="0.15"/>
</linearGradient>
</defs>
</svg>
