<svg xmlns="http://www.w3.org/2000/svg" viewBox="0 0 78 78"><circle cx="39" cy="14" r="6" fill="none"/><circle cx="14" cy="39" r="6" fill="none"/><circle cx="64" cy="39" r="6" fill="none"/><path d="M65,26A14,14,0,0,0,51.58,36H28.42a14.46,14.46,0,0,0-1.1-2.66l6-6a14,14,0,1,0-5.66-5.66l-6,6A14,14,0,1,0,28.42,44H51.58a14.46,14.46,0,0,0,1.1,2.66l-6,6a14,14,0,1,0-.23,24.75,10.47,10.47,0,0,1-4.72-6.68A6,6,0,1,1,40,59a6,6,0,0,1,4.57,2.12,10.44,10.44,0,0,1,7.36-3h0l.6,0,5.81-5.8A14,14,0,1,0,65,26ZM40,9a6,6,0,1,1-6,6A6,6,0,0,1,40,9ZM15,46a6,6,0,1,1,6-6A6,6,0,0,1,15,46Zm50,0a6,6,0,1,1,6-6A6,6,0,0,1,65,46Z" transform="translate(-1 -1)"/><path d="M52.52,76.1l-8-8a.35.35,0,0,1,0-.51l4.18-4.19a.37.37,0,0,1,.52,0l3.26,3.27a.36.36,0,0,0,.51,0l9.35-9.35a.35.35,0,0,1,.51,0l4.19,4.18a.37.37,0,0,1,0,.52l-14,14A.36.36,0,0,1,52.52,76.1Z" transform="translate(-1 -1)"/></svg>