<svg width="22" height="22" viewBox="0 0 22 22" fill="none" xmlns="http://www.w3.org/2000/svg">
<path fill-rule="evenodd" clip-rule="evenodd" d="M11 3.84606C10.2353 3.84606 9.61534 4.46598 9.61534 5.23069C9.61534 5.99541 10.2353 6.61533 11 6.61533C11.7647 6.61533 12.3846 5.99541 12.3846 5.23069C12.3846 4.46598 11.7647 3.84606 11 3.84606ZM7.76916 5.23069C7.76916 3.44636 9.21564 1.99988 11 1.99988C12.7843 1.99988 14.2308 3.44636 14.2308 5.23069C14.2308 7.01502 12.7843 8.46151 11 8.46151C10.4436 8.46151 9.92005 8.32087 9.46297 8.07319L8.07317 9.46299C8.17807 9.65658 8.26377 9.86209 8.32772 10.077H13.6722C14.0694 8.74241 15.3057 7.76923 16.7693 7.76923C18.5536 7.76923 20.0001 9.21571 20.0001 11C20.0001 12.7844 18.5536 14.2309 16.7693 14.2309C16.2129 14.2309 15.6893 14.0902 15.2322 13.8425L13.8425 15.2323C14.0901 15.6894 14.2308 16.2129 14.2308 16.7693C14.2308 18.5536 12.7843 20.0001 11 20.0001C9.21564 20.0001 7.76916 18.5536 7.76916 16.7693C7.76916 14.985 9.21564 13.5385 11 13.5385C11.5564 13.5385 12.0799 13.6792 12.537 13.9269L13.9268 12.5371C13.8219 12.3435 13.7362 12.138 13.6722 11.9231H8.32771C7.93052 13.2577 6.69426 14.2309 5.23069 14.2309C3.44636 14.2309 1.99988 12.7844 1.99988 11C1.99988 9.21571 3.44636 7.76923 5.23069 7.76923C5.78709 7.76923 6.31064 7.90987 6.76772 8.15755L8.15751 6.76776C7.90981 6.31067 7.76916 5.78711 7.76916 5.23069ZM5.23069 9.61541C4.46598 9.61541 3.84606 10.2353 3.84606 11C3.84606 11.7648 4.46598 12.3847 5.23069 12.3847C5.99541 12.3847 6.61533 11.7648 6.61533 11C6.61533 10.2353 5.99541 9.61541 5.23069 9.61541ZM15.3846 11C15.3846 10.2353 16.0045 9.61541 16.7693 9.61541C17.534 9.61541 18.1539 10.2353 18.1539 11C18.1539 11.7648 17.534 12.3847 16.7693 12.3847C16.0045 12.3847 15.3846 11.7648 15.3846 11Z" fill="black"/>
</svg>
