<svg xmlns="http://www.w3.org/2000/svg" viewBox="0 0 78 78"><circle cx="39" cy="14" r="6" fill="none"/><circle cx="14" cy="39" r="6" fill="none"/><circle cx="64" cy="39" r="6" fill="none"/><path d="M65,26A14,14,0,0,0,51.58,36H28.42a14.46,14.46,0,0,0-1.1-2.66l6-6a14,14,0,1,0-5.66-5.66l-6,6A14,14,0,1,0,28.42,44H51.58a14.46,14.46,0,0,0,1.1,2.66l-6,6a14,14,0,1,0,0,24.62,11.13,11.13,0,0,1-4.85-6.59A5.91,5.91,0,0,1,40,71a6,6,0,0,1,0-12,5.94,5.94,0,0,1,4.15,1.68,11.08,11.08,0,0,1,8.42-3.88,9.87,9.87,0,0,1,1.22.07l4.55-4.55A14,14,0,1,0,65,26ZM40,9a6,6,0,1,1-6,6A6,6,0,0,1,40,9ZM15,46a6,6,0,1,1,6-6A6,6,0,0,1,15,46Zm50,0a6,6,0,1,1,6-6A6,6,0,0,1,65,46Z" transform="translate(-1 -1)"/><path d="M57.16,68.2l4.11-4.11a.22.22,0,0,0,0-.3L58.08,60.6a.23.23,0,0,0-.31,0l-4.11,4.11-4.1-4.11a.23.23,0,0,0-.31,0l-3.19,3.19a.22.22,0,0,0,0,.3l4.11,4.11-4.11,4.11a.22.22,0,0,0,0,.3l3.19,3.19a.21.21,0,0,0,.31,0l4.1-4.11,4.11,4.11a.21.21,0,0,0,.31,0l3.19-3.19a.22.22,0,0,0,0-.3Z" transform="translate(-1 -1)"/></svg>