<svg width="116" height="80" viewBox="0 0 116 80" fill="none" xmlns="http://www.w3.org/2000/svg">
<path fill-rule="evenodd" clip-rule="evenodd" d="M110.681 36.914V37H75.5745V36.985C75.3985 36.995 75.2211 37 75.0426 37C70.0485 37 66 33.0535 66 28.1852C66 23.3169 70.0485 19.3704 75.0426 19.3704C75.2211 19.3704 75.3985 19.3754 75.5745 19.3854L75.5745 19.3704C75.5745 13.643 80.3374 9 86.2128 9C91.0864 9 95.1946 12.1947 96.4538 16.5531C97.2632 16.3611 98.1087 16.2593 98.9787 16.2593C104.125 16.2593 108.419 19.822 109.404 24.5556H110.681V24.6416C113.7 25.1353 116 27.6947 116 30.7778C116 33.8609 113.7 36.4203 110.681 36.914Z" fill="url(#paint0_linear_2040_59826)"/>
<path fill-rule="evenodd" clip-rule="evenodd" d="M5.31915 70.914C2.30031 70.4203 0 67.8609 0 64.7778C0 61.6947 2.30031 59.1353 5.31915 58.6416V58.5556H6.59578C7.58146 53.822 11.8746 50.2593 17.0213 50.2593C17.8913 50.2593 18.7368 50.3611 19.5462 50.5531C20.8054 46.1947 24.9136 43 29.7872 43C35.6626 43 40.4255 47.643 40.4255 53.3704C40.4255 53.3754 40.4255 53.3804 40.4255 53.3854C40.6015 53.3754 40.7789 53.3704 40.9574 53.3704C45.9515 53.3704 50 57.3169 50 62.1852C50 67.0535 45.9515 71 40.9574 71C40.7789 71 40.6015 70.995 40.4255 70.985V71H5.31915V70.914Z" fill="url(#paint1_linear_2040_59826)"/>
<path fill-rule="evenodd" clip-rule="evenodd" d="M58 9C54.6863 9 52 11.6863 52 15C52 18.3137 54.6863 21 58 21C61.3137 21 64 18.3137 64 15C64 11.6863 61.3137 9 58 9ZM44 15C44 7.26801 50.268 1 58 1C65.732 1 72 7.26801 72 15C72 22.732 65.732 29 58 29C55.589 29 53.3203 28.3905 51.3396 27.3172L45.3172 33.3396C45.7718 34.1784 46.1431 35.0689 46.4202 36H69.5798C71.3009 30.217 76.658 26 83 26C90.732 26 97 32.268 97 40C97 47.732 90.732 54 83 54C80.589 54 78.3203 53.3905 76.3396 52.3172L70.3172 58.3396C71.3905 60.3203 72 62.589 72 65C72 72.732 65.732 79 58 79C50.268 79 44 72.732 44 65C44 57.268 50.268 51 58 51C60.411 51 62.6797 51.6095 64.6604 52.6827L70.6827 46.6604C70.2282 45.8215 69.8568 44.9311 69.5798 44H46.4202C44.6992 49.783 39.342 54 33 54C25.268 54 19 47.732 19 40C19 32.268 25.268 26 33 26C35.411 26 37.6797 26.6095 39.6604 27.6827L45.6827 21.6604C44.6095 19.6797 44 17.411 44 15ZM52 65C52 61.6863 54.6863 59 58 59C61.3137 59 64 61.6863 64 65C64 68.3137 61.3137 71 58 71C54.6863 71 52 68.3137 52 65ZM33 34C29.6863 34 27 36.6863 27 40C27 43.3137 29.6863 46 33 46C36.3137 46 39 43.3137 39 40C39 36.6863 36.3137 34 33 34ZM77 40C77 36.6863 79.6863 34 83 34C86.3137 34 89 36.6863 89 40C89 43.3137 86.3137 46 83 46C79.6863 46 77 43.3137 77 40Z" fill="black"/>
<rect x="58" y="40" width="32" height="32" rx="16" fill="#FFA436"/>
<path d="M80.6929 60.0119L75.7399 50.1059C75.5739 49.7736 75.3185 49.4941 75.0025 49.2988C74.6866 49.1035 74.3224 49 73.9509 49C73.5795 49 73.2153 49.1035 72.8993 49.2988C72.5834 49.4941 72.328 49.7736 72.1619 50.1059L67.2089 60.0159C67.0575 60.3206 66.9863 60.659 67.0022 60.999C67.018 61.3389 67.1203 61.6692 67.2995 61.9586C67.4786 62.2479 67.7286 62.4868 68.0258 62.6526C68.323 62.8183 68.6576 62.9055 68.9979 62.9059H78.9029C79.2439 62.906 79.5792 62.819 79.8771 62.6531C80.1749 62.4872 80.4255 62.2479 80.6048 61.9579C80.7842 61.668 80.8864 61.337 80.9018 60.9964C80.9172 60.6557 80.8453 60.3169 80.6929 60.0119ZM72.9509 52.9059C72.9509 52.6406 73.0563 52.3863 73.2438 52.1988C73.4314 52.0112 73.6857 51.9059 73.9509 51.9059C74.2162 51.9059 74.4705 52.0112 74.658 52.1988C74.8456 52.3863 74.9509 52.6406 74.9509 52.9059V56.9059C74.9509 57.1711 74.8456 57.4254 74.658 57.613C74.4705 57.8005 74.2162 57.9059 73.9509 57.9059C73.6857 57.9059 73.4314 57.8005 73.2438 57.613C73.0563 57.4254 72.9509 57.1711 72.9509 56.9059V52.9059ZM73.9509 61.1559C73.7037 61.1559 73.462 61.0826 73.2565 60.9452C73.0509 60.8078 72.8907 60.6126 72.7961 60.3842C72.7015 60.1558 72.6767 59.9045 72.725 59.662C72.7732 59.4195 72.8922 59.1968 73.0671 59.022C73.2419 58.8472 73.4646 58.7281 73.7071 58.6799C73.9496 58.6317 74.2009 58.6564 74.4293 58.751C74.6577 58.8456 74.8529 59.0058 74.9903 59.2114C75.1276 59.417 75.2009 59.6586 75.2009 59.9059C75.2009 60.2374 75.0692 60.5553 74.8348 60.7897C74.6004 61.0242 74.2825 61.1559 73.9509 61.1559Z" fill="white"/>
<defs>
<linearGradient id="paint0_linear_2040_59826" x1="115.4" y1="43.7479" x2="124.654" y2="11.4819" gradientUnits="userSpaceOnUse">
<stop stop-color="white" stop-opacity="0.01"/>
<stop offset="1" stop-opacity="0.15"/>
</linearGradient>
<linearGradient id="paint1_linear_2040_59826" x1="48.9564" y1="63.8721" x2="40.1391" y2="32.3818" gradientUnits="userSpaceOnUse">
<stop stop-color="white" stop-opacity="0.01"/>
<stop offset="1" stop-opacity="0.15"/>
</linearGradient>
</defs>
</svg>
