<svg width="48" height="48" viewBox="0 0 48 48" fill="none" xmlns="http://www.w3.org/2000/svg">
<path fill-rule="evenodd" clip-rule="evenodd" d="M20.9654 11.1974C20.9654 9.49385 22.3464 8.11282 24.05 8.11282C25.7536 8.11282 27.1346 9.49385 27.1346 11.1974C27.1346 12.901 25.7536 14.2821 24.05 14.2821C22.3464 14.2821 20.9654 12.901 20.9654 11.1974ZM24.05 4C20.075 4 16.8526 7.2224 16.8526 11.1974C16.8526 12.437 17.1659 13.6033 17.7177 14.6215L14.6215 17.7177C13.6033 17.1659 12.437 16.8526 11.1974 16.8526C7.2224 16.8526 4 20.075 4 24.05C4 28.025 7.2224 31.2474 11.1974 31.2474C14.4579 31.2474 17.212 29.0794 18.0968 26.1064H30.0032C30.1456 26.5851 30.3365 27.0429 30.5702 27.4741L27.4741 30.5702C26.4558 30.0185 25.2895 29.7051 24.05 29.7051C20.075 29.7051 16.8526 32.9275 16.8526 36.9026C16.8526 40.8776 20.075 44.1 24.05 44.1C26.491 44.1 28.6482 42.8848 29.9497 41.0264L26.9745 37.886C26.564 39.1074 25.4097 39.9872 24.05 39.9872C22.3464 39.9872 20.9654 38.6061 20.9654 36.9026C20.9654 35.199 22.3464 33.8179 24.05 33.8179C24.665 33.8179 25.238 33.9979 25.7192 34.3081C25.849 34.019 26.0363 33.7499 26.2806 33.5185C27.283 32.5689 28.8653 32.6116 29.8149 33.614L30.934 34.7953C30.7933 34.335 30.6077 33.8944 30.3823 33.4784L33.4784 30.3823C34.2353 30.7924 35.074 31.0708 35.9637 31.1868L38.0076 28.49C38.8416 27.3896 40.4097 27.1736 41.51 28.0076C41.827 28.2478 42.0705 28.5489 42.2368 28.8822C43.3946 27.6048 44.1 25.9098 44.1 24.05C44.1 20.075 40.8776 16.8526 36.9026 16.8526C33.6421 16.8526 30.888 19.0205 30.0032 21.9936H18.0968C17.9544 21.5149 17.7634 21.0571 17.5298 20.6259L20.6259 17.5298C21.6441 18.0815 22.8105 18.3949 24.05 18.3949C28.025 18.3949 31.2474 15.1725 31.2474 11.1974C31.2474 7.2224 28.025 4 24.05 4ZM8.11282 24.05C8.11282 22.3464 9.49385 20.9654 11.1974 20.9654C12.901 20.9654 14.2821 22.3464 14.2821 24.05C14.2821 25.7536 12.901 27.1346 11.1974 27.1346C9.49385 27.1346 8.11282 25.7536 8.11282 24.05ZM36.9026 20.9654C35.199 20.9654 33.8179 22.3464 33.8179 24.05C33.8179 25.7536 35.199 27.1346 36.9026 27.1346C38.6061 27.1346 39.9872 25.7536 39.9872 24.05C39.9872 22.3464 38.6061 20.9654 36.9026 20.9654Z" fill="black"/>
<path fill-rule="evenodd" clip-rule="evenodd" d="M34.5 21C27.0442 21 21 27.0442 21 34.5C21 41.9558 27.0442 48 34.5 48C41.9558 48 48 41.9558 48 34.5C48 27.0442 41.9558 21 34.5 21ZM41.9924 31.51C42.8264 30.4097 42.6104 28.8416 41.51 28.0076C40.4097 27.1736 38.8416 27.3896 38.0076 28.49L32.2089 36.141L29.8149 33.614C28.8653 32.6116 27.283 32.5689 26.2806 33.5185C25.2783 34.468 25.2355 36.0504 26.1851 37.0527L30.5251 41.6338C31.6291 42.7992 33.515 42.6955 34.4847 41.4161L41.9924 31.51Z" fill="black"/>
</svg>
