<svg width="116" height="80" viewBox="0 0 116 80" fill="none" xmlns="http://www.w3.org/2000/svg">
<path fill-rule="evenodd" clip-rule="evenodd" d="M110.681 36.914V37H75.5745V36.985C75.3985 36.995 75.2211 37 75.0426 37C70.0485 37 66 33.0535 66 28.1852C66 23.3169 70.0485 19.3704 75.0426 19.3704C75.2211 19.3704 75.3985 19.3754 75.5745 19.3854L75.5745 19.3704C75.5745 13.643 80.3374 9 86.2128 9C91.0864 9 95.1946 12.1947 96.4538 16.5531C97.2632 16.3611 98.1087 16.2593 98.9787 16.2593C104.125 16.2593 108.419 19.822 109.404 24.5556H110.681V24.6416C113.7 25.1353 116 27.6947 116 30.7778C116 33.8609 113.7 36.4203 110.681 36.914Z" fill="url(#paint0_linear_235_12784)"/>
<path fill-rule="evenodd" clip-rule="evenodd" d="M5.31915 70.914C2.30031 70.4203 0 67.8609 0 64.7778C0 61.6947 2.30031 59.1353 5.31915 58.6416V58.5556H6.59578C7.58146 53.822 11.8746 50.2593 17.0213 50.2593C17.8913 50.2593 18.7368 50.3611 19.5462 50.5531C20.8054 46.1947 24.9136 43 29.7872 43C35.6626 43 40.4255 47.643 40.4255 53.3704C40.4255 53.3754 40.4255 53.3804 40.4255 53.3854C40.6015 53.3754 40.7789 53.3704 40.9574 53.3704C45.9515 53.3704 50 57.3169 50 62.1852C50 67.0535 45.9515 71 40.9574 71C40.7789 71 40.6015 70.995 40.4255 70.985V71H5.31915V70.914Z" fill="url(#paint1_linear_235_12784)"/>
<path fill-rule="evenodd" clip-rule="evenodd" d="M58 9C54.6863 9 52 11.6863 52 15C52 18.3137 54.6863 21 58 21C61.3137 21 64 18.3137 64 15C64 11.6863 61.3137 9 58 9ZM44 15C44 7.26801 50.268 1 58 1C65.732 1 72 7.26801 72 15C72 22.732 65.732 29 58 29C55.589 29 53.3203 28.3905 51.3396 27.3172L45.3172 33.3396C45.7718 34.1784 46.1431 35.0689 46.4202 36H69.5798C71.3009 30.217 76.658 26 83 26C90.732 26 97 32.268 97 40C97 47.732 90.732 54 83 54C80.589 54 78.3203 53.3905 76.3396 52.3172L70.3172 58.3396C71.3905 60.3203 72 62.589 72 65C72 72.732 65.732 79 58 79C50.268 79 44 72.732 44 65C44 57.268 50.268 51 58 51C60.411 51 62.6797 51.6095 64.6604 52.6827L70.6827 46.6604C70.2282 45.8215 69.8568 44.9311 69.5798 44H46.4202C44.6992 49.783 39.342 54 33 54C25.268 54 19 47.732 19 40C19 32.268 25.268 26 33 26C35.411 26 37.6797 26.6095 39.6604 27.6827L45.6827 21.6604C44.6095 19.6797 44 17.411 44 15ZM52 65C52 61.6863 54.6863 59 58 59C61.3137 59 64 61.6863 64 65C64 68.3137 61.3137 71 58 71C54.6863 71 52 68.3137 52 65ZM33 34C29.6863 34 27 36.6863 27 40C27 43.3137 29.6863 46 33 46C36.3137 46 39 43.3137 39 40C39 36.6863 36.3137 34 33 34ZM77 40C77 36.6863 79.6863 34 83 34C86.3137 34 89 36.6863 89 40C89 43.3137 86.3137 46 83 46C79.6863 46 77 43.3137 77 40Z" fill="black"/>
<rect x="58" y="40" width="32" height="32" rx="16" fill="#00A49A"/>
<path d="M80 49.0001C79.7348 49.0001 79.4804 49.1054 79.2929 49.2929C79.1054 49.4805 79 49.7348 79 50.0001V51.1461C78.1385 50.2451 77.0504 49.5926 75.8499 49.2568C74.6494 48.921 73.3807 48.9144 72.1767 49.2377C70.9728 49.5609 69.878 50.2021 69.0072 51.094C68.1363 51.986 67.5214 53.0957 67.227 54.3071C67.1918 54.4356 67.1826 54.5699 67.1999 54.702C67.2173 54.8341 67.261 54.9614 67.3282 55.0765C67.3955 55.1915 67.4852 55.2919 67.5918 55.3718C67.6985 55.4517 67.82 55.5095 67.9493 55.5418C68.0786 55.574 68.2131 55.5801 68.3448 55.5597C68.4765 55.5392 68.6028 55.4927 68.7162 55.4227C68.8296 55.3528 68.928 55.2609 69.0054 55.1524C69.0828 55.0439 69.1377 54.9211 69.167 54.7911C69.4333 53.7101 70.054 52.7494 70.9299 52.0623C71.8059 51.3752 72.8867 51.0012 74 51.0001C74.7718 50.9988 75.533 51.1793 76.2221 51.5267C76.9113 51.8741 77.509 52.3789 77.967 53.0001H76C75.7348 53.0001 75.4804 53.1054 75.2929 53.2929C75.1054 53.4805 75 53.7348 75 54.0001C75 54.2653 75.1054 54.5196 75.2929 54.7072C75.4804 54.8947 75.7348 55.0001 76 55.0001H80C80.2652 55.0001 80.5196 54.8947 80.7071 54.7072C80.8946 54.5196 81 54.2653 81 54.0001V50.0001C81 49.7348 80.8946 49.4805 80.7071 49.2929C80.5196 49.1054 80.2652 49.0001 80 49.0001ZM80.046 56.4811C79.9186 56.4492 79.7861 56.4427 79.6561 56.462C79.5262 56.4814 79.4013 56.5261 79.2887 56.5937C79.176 56.6613 79.0778 56.7505 78.9996 56.856C78.9214 56.9616 78.8648 57.0816 78.833 57.2091C78.5667 58.29 77.946 59.2507 77.0701 59.9378C76.1941 60.6249 75.1133 60.9989 74 61.0001C73.2282 61.0013 72.467 60.8209 71.7779 60.4734C71.0887 60.126 70.491 59.6213 70.033 59.0001H72C72.2652 59.0001 72.5196 58.8947 72.7071 58.7072C72.8946 58.5196 73 58.2653 73 58.0001C73 57.7348 72.8946 57.4805 72.7071 57.2929C72.5196 57.1054 72.2652 57.0001 72 57.0001H68C67.7348 57.0001 67.4804 57.1054 67.2929 57.2929C67.1054 57.4805 67 57.7348 67 58.0001V62.0001C67 62.2653 67.1054 62.5196 67.2929 62.7072C67.4804 62.8947 67.7348 63.0001 68 63.0001C68.2652 63.0001 68.5196 62.8947 68.7071 62.7072C68.8946 62.5196 69 62.2653 69 62.0001V60.8541C69.8615 61.755 70.9496 62.4076 72.1501 62.7433C73.3506 63.0791 74.6193 63.0857 75.8233 62.7624C77.0272 62.4392 78.122 61.798 78.9928 60.9061C79.8637 60.0142 80.4786 58.9044 80.773 57.6931C80.8371 57.4359 80.7966 57.1639 80.6603 56.9366C80.524 56.7094 80.303 56.5455 80.046 56.4811Z" fill="white"/>
<defs>
<linearGradient id="paint0_linear_235_12784" x1="115.4" y1="43.7479" x2="124.654" y2="11.4819" gradientUnits="userSpaceOnUse">
<stop stop-color="white" stop-opacity="0.01"/>
<stop offset="1" stop-opacity="0.15"/>
</linearGradient>
<linearGradient id="paint1_linear_235_12784" x1="48.9564" y1="63.8721" x2="40.1391" y2="32.3818" gradientUnits="userSpaceOnUse">
<stop stop-color="white" stop-opacity="0.01"/>
<stop offset="1" stop-opacity="0.15"/>
</linearGradient>
</defs>
</svg>
