<svg width="116" height="80" viewBox="0 0 116 80" fill="none" xmlns="http://www.w3.org/2000/svg">
<path fill-rule="evenodd" clip-rule="evenodd" d="M110.681 36.914V37H75.5745V36.985C75.3985 36.995 75.2211 37 75.0426 37C70.0485 37 66 33.0535 66 28.1852C66 23.3169 70.0485 19.3704 75.0426 19.3704C75.2211 19.3704 75.3985 19.3754 75.5745 19.3854L75.5745 19.3704C75.5745 13.643 80.3374 9 86.2128 9C91.0864 9 95.1946 12.1947 96.4538 16.5531C97.2632 16.3611 98.1087 16.2593 98.9787 16.2593C104.125 16.2593 108.419 19.822 109.404 24.5556H110.681V24.6416C113.7 25.1353 116 27.6947 116 30.7778C116 33.8609 113.7 36.4203 110.681 36.914Z" fill="url(#paint0_linear_316_15617)"/>
<path fill-rule="evenodd" clip-rule="evenodd" d="M5.31915 70.914C2.30031 70.4203 0 67.8609 0 64.7778C0 61.6947 2.30031 59.1353 5.31915 58.6416V58.5556H6.59578C7.58146 53.822 11.8746 50.2593 17.0213 50.2593C17.8913 50.2593 18.7368 50.3611 19.5462 50.5531C20.8054 46.1947 24.9136 43 29.7872 43C35.6626 43 40.4255 47.643 40.4255 53.3704C40.4255 53.3754 40.4255 53.3804 40.4255 53.3854C40.6015 53.3754 40.7789 53.3704 40.9574 53.3704C45.9515 53.3704 50 57.3169 50 62.1852C50 67.0535 45.9515 71 40.9574 71C40.7789 71 40.6015 70.995 40.4255 70.985V71H5.31915V70.914Z" fill="url(#paint1_linear_316_15617)"/>
<path fill-rule="evenodd" clip-rule="evenodd" d="M58 9C54.6863 9 52 11.6863 52 15C52 18.3137 54.6863 21 58 21C61.3137 21 64 18.3137 64 15C64 11.6863 61.3137 9 58 9ZM44 15C44 7.26801 50.268 1 58 1C65.732 1 72 7.26801 72 15C72 22.732 65.732 29 58 29C55.589 29 53.3203 28.3905 51.3396 27.3172L45.3172 33.3396C45.7718 34.1784 46.1431 35.0689 46.4202 36H69.5798C71.3009 30.217 76.658 26 83 26C90.732 26 97 32.268 97 40C97 47.732 90.732 54 83 54C80.589 54 78.3203 53.3905 76.3396 52.3172L70.3172 58.3396C71.3905 60.3203 72 62.589 72 65C72 72.732 65.732 79 58 79C50.268 79 44 72.732 44 65C44 57.268 50.268 51 58 51C60.411 51 62.6797 51.6095 64.6604 52.6827L70.6827 46.6604C70.2282 45.8215 69.8568 44.9311 69.5798 44H46.4202C44.6992 49.783 39.342 54 33 54C25.268 54 19 47.732 19 40C19 32.268 25.268 26 33 26C35.411 26 37.6797 26.6095 39.6604 27.6827L45.6827 21.6604C44.6095 19.6797 44 17.411 44 15ZM52 65C52 61.6863 54.6863 59 58 59C61.3137 59 64 61.6863 64 65C64 68.3137 61.3137 71 58 71C54.6863 71 52 68.3137 52 65ZM33 34C29.6863 34 27 36.6863 27 40C27 43.3137 29.6863 46 33 46C36.3137 46 39 43.3137 39 40C39 36.6863 36.3137 34 33 34ZM77 40C77 36.6863 79.6863 34 83 34C86.3137 34 89 36.6863 89 40C89 43.3137 86.3137 46 83 46C79.6863 46 77 43.3137 77 40Z" fill="black"/>
<rect x="58" y="40" width="32" height="32" rx="16" fill="#3FE1B0"/>
<path d="M71.9877 61.9922C71.7225 61.9921 71.4682 61.8867 71.2807 61.6992L68.2807 58.6992C68.0986 58.5106 67.9978 58.258 68 57.9958C68.0023 57.7336 68.1075 57.4828 68.2929 57.2974C68.4783 57.112 68.7291 57.0068 68.9913 57.0045C69.2535 57.0022 69.5061 57.103 69.6947 57.2852L71.8517 59.4422L78.1677 50.4192C78.3208 50.2046 78.5524 50.0592 78.8121 50.0145C79.0719 49.9698 79.3388 50.0294 79.5548 50.1805C79.7708 50.3315 79.9184 50.5617 79.9656 50.821C80.0128 51.0803 79.9557 51.3478 79.8067 51.5652L72.8067 61.5652C72.7234 61.6856 72.6147 61.7863 72.4882 61.8601C72.3617 61.9339 72.2205 61.979 72.0747 61.9922C72.0457 61.9937 72.0167 61.9937 71.9877 61.9922Z" fill="white"/>
<defs>
<linearGradient id="paint0_linear_316_15617" x1="115.4" y1="43.7479" x2="124.654" y2="11.4819" gradientUnits="userSpaceOnUse">
<stop stop-color="white" stop-opacity="0.01"/>
<stop offset="1" stop-opacity="0.15"/>
</linearGradient>
<linearGradient id="paint1_linear_316_15617" x1="48.9564" y1="63.8721" x2="40.1391" y2="32.3818" gradientUnits="userSpaceOnUse">
<stop stop-color="white" stop-opacity="0.01"/>
<stop offset="1" stop-opacity="0.15"/>
</linearGradient>
</defs>
</svg>
