<svg width="22" height="22" viewBox="0 0 22 22" fill="none" xmlns="http://www.w3.org/2000/svg">
<path fill-rule="evenodd" clip-rule="evenodd" d="M11 3.85348C10.2353 3.85348 9.61538 4.47339 9.61538 5.23809C9.61538 6.0028 10.2353 6.62271 11 6.62271C11.7647 6.62271 12.3846 6.0028 12.3846 5.23809C12.3846 4.47339 11.7647 3.85348 11 3.85348ZM7.76921 5.23809C7.76921 3.45379 9.21568 2.00732 11 2.00732C12.7843 2.00732 14.2308 3.45379 14.2308 5.23809C14.2308 7.0224 12.7843 8.46886 11 8.46886C10.4436 8.46886 9.92004 8.32821 9.46295 8.08052L8.07317 9.47028C8.17807 9.66387 8.26378 9.86937 8.32773 10.0842H13.6722C14.0694 8.74972 15.3057 7.77657 16.7692 7.77657C18.5535 7.77657 20 9.22303 20 11.0073C20 12.7916 18.5535 14.2381 16.7692 14.2381C16.2128 14.2381 15.6893 14.0975 15.2322 13.8498L13.8424 15.2395C13.9718 15.4783 14.072 15.7352 14.1382 16.0054H12.1501C11.9016 15.6354 11.4792 15.3919 11 15.3919C10.2353 15.3919 9.61535 16.0119 9.61535 16.7766C9.61535 17.1482 9.76174 17.4856 10 17.7343V19.8496C8.70513 19.4285 7.76918 18.2118 7.76918 16.7766C7.76918 14.9923 9.21565 13.5458 11 13.5458C11.5564 13.5458 12.0799 13.6864 12.537 13.9341L13.9268 12.5444C13.8219 12.3508 13.7362 12.1453 13.6722 11.9304H8.32774C7.93056 13.2649 6.69429 14.2381 5.23073 14.2381C3.44641 14.2381 1.99994 12.7916 1.99994 11.0073C1.99994 9.22303 3.44641 7.77657 5.23073 7.77657C5.78711 7.77657 6.31064 7.9172 6.76772 8.16487L8.15752 6.77508C7.90985 6.31801 7.76921 5.79447 7.76921 5.23809ZM5.23073 9.62272C4.46602 9.62272 3.8461 10.2426 3.8461 11.0073C3.8461 11.772 4.46602 12.392 5.23073 12.392C5.99544 12.392 6.61536 11.772 6.61536 11.0073C6.61536 10.2426 5.99544 9.62272 5.23073 9.62272ZM15.3846 11.0073C15.3846 10.2426 16.0045 9.62272 16.7692 9.62272C17.5339 9.62272 18.1538 10.2426 18.1538 11.0073C18.1538 11.772 17.5339 12.392 16.7692 12.392C16.0045 12.392 15.3846 11.772 15.3846 11.0073ZM13.664 21.0073L11 18.1662L12.332 16.7557L13.664 18.1762L16.6586 15.005L18 16.4256L13.664 21.0073Z" fill="black"/>
</svg>
