<svg xmlns="http://www.w3.org/2000/svg" viewBox="0 0 48.55 48.55"><path d="M40,20.7a3.74,3.74,0,1,0,3.73,3.74A3.74,3.74,0,0,0,40,20.7Zm-8.71,3.74a8.68,8.68,0,1,1,4.56,7.67l-3.74,3.74a8.91,8.91,0,0,1,.68,1.66H47.21a8.72,8.72,0,1,1,8.35,11.2,8.62,8.62,0,0,1-4.14-1l-3.75,3.75a8.62,8.62,0,0,1,1,4.14,8.68,8.68,0,1,1-4.56-7.67l3.74-3.74a8.91,8.91,0,0,1-.68-1.66H32.79a8.72,8.72,0,1,1-8.35-11.2,8.62,8.62,0,0,1,4.14,1l3.75-3.75A8.62,8.62,0,0,1,31.29,24.44Zm5,31.12A3.73,3.73,0,1,1,40,59.3,3.73,3.73,0,0,1,36.27,55.56ZM24.44,36.27A3.73,3.73,0,1,0,28.17,40,3.74,3.74,0,0,0,24.44,36.27ZM51.83,40a3.74,3.74,0,1,1,3.73,3.73A3.73,3.73,0,0,1,51.83,40Z" transform="translate(-15.72 -15.72)" fill="#231f20" fill-rule="evenodd"/></svg>