<svg width="117" height="80" viewBox="0 0 117 80" fill="none" xmlns="http://www.w3.org/2000/svg">
<path fill-rule="evenodd" clip-rule="evenodd" d="M111.181 36.914V37H76.0745V36.985C75.8985 36.995 75.7211 37 75.5426 37C70.5485 37 66.5 33.0535 66.5 28.1852C66.5 23.3169 70.5485 19.3704 75.5426 19.3704C75.7211 19.3704 75.8985 19.3754 76.0745 19.3854L76.0745 19.3704C76.0745 13.643 80.8374 9 86.7128 9C91.5864 9 95.6946 12.1947 96.9538 16.5531C97.7632 16.3611 98.6087 16.2593 99.4787 16.2593C104.625 16.2593 108.919 19.822 109.904 24.5556H111.181V24.6416C114.2 25.1353 116.5 27.6947 116.5 30.7778C116.5 33.8609 114.2 36.4203 111.181 36.914Z" fill="url(#paint0_linear_316_15504)"/>
<path fill-rule="evenodd" clip-rule="evenodd" d="M5.81915 70.914C2.80031 70.4203 0.5 67.8609 0.5 64.7778C0.5 61.6947 2.80031 59.1353 5.81915 58.6416V58.5556H7.09578C8.08146 53.822 12.3746 50.2593 17.5213 50.2593C18.3913 50.2593 19.2368 50.3611 20.0462 50.5531C21.3054 46.1947 25.4136 43 30.2872 43C36.1626 43 40.9255 47.643 40.9255 53.3704C40.9255 53.3754 40.9255 53.3804 40.9255 53.3854C41.1015 53.3754 41.2789 53.3704 41.4574 53.3704C46.4515 53.3704 50.5 57.3169 50.5 62.1852C50.5 67.0535 46.4515 71 41.4574 71C41.2789 71 41.1015 70.995 40.9255 70.985V71H5.81915V70.914Z" fill="url(#paint1_linear_316_15504)"/>
<path fill-rule="evenodd" clip-rule="evenodd" d="M58.5 9C55.1863 9 52.5 11.6863 52.5 15C52.5 18.3137 55.1863 21 58.5 21C61.8137 21 64.5 18.3137 64.5 15C64.5 11.6863 61.8137 9 58.5 9ZM44.5 15C44.5 7.26801 50.768 1 58.5 1C66.232 1 72.5 7.26801 72.5 15C72.5 22.732 66.232 29 58.5 29C56.089 29 53.8203 28.3905 51.8396 27.3172L45.8172 33.3396C46.2718 34.1784 46.6431 35.0689 46.9202 36H70.0798C71.8009 30.217 77.158 26 83.5 26C91.232 26 97.5 32.268 97.5 40C97.5 47.732 91.232 54 83.5 54C81.089 54 78.8203 53.3905 76.8396 52.3172L70.8172 58.3396C71.8905 60.3203 72.5 62.589 72.5 65C72.5 72.732 66.232 79 58.5 79C50.768 79 44.5 72.732 44.5 65C44.5 57.268 50.768 51 58.5 51C60.911 51 63.1797 51.6095 65.1604 52.6827L71.1827 46.6604C70.7282 45.8215 70.3568 44.9311 70.0798 44H46.9202C45.1992 49.783 39.842 54 33.5 54C25.768 54 19.5 47.732 19.5 40C19.5 32.268 25.768 26 33.5 26C35.911 26 38.1797 26.6095 40.1604 27.6827L46.1827 21.6604C45.1095 19.6797 44.5 17.411 44.5 15ZM52.5 65C52.5 61.6863 55.1863 59 58.5 59C61.8137 59 64.5 61.6863 64.5 65C64.5 68.3137 61.8137 71 58.5 71C55.1863 71 52.5 68.3137 52.5 65ZM33.5 34C30.1863 34 27.5 36.6863 27.5 40C27.5 43.3137 30.1863 46 33.5 46C36.8137 46 39.5 43.3137 39.5 40C39.5 36.6863 36.8137 34 33.5 34ZM77.5 40C77.5 36.6863 80.1863 34 83.5 34C86.8137 34 89.5 36.6863 89.5 40C89.5 43.3137 86.8137 46 83.5 46C80.1863 46 77.5 43.3137 77.5 40Z" fill="black"/>
<rect x="58.5" y="40" width="32" height="32" rx="16" fill="#FF4F5E"/>
<path d="M81.1929 60.0119L76.2399 50.1059C76.0739 49.7736 75.8185 49.4941 75.5025 49.2988C75.1866 49.1035 74.8224 49 74.4509 49C74.0795 49 73.7153 49.1035 73.3993 49.2988C73.0834 49.4941 72.828 49.7736 72.6619 50.1059L67.7089 60.0159C67.5575 60.3206 67.4863 60.659 67.5022 60.999C67.518 61.3389 67.6203 61.6692 67.7995 61.9586C67.9786 62.2479 68.2286 62.4868 68.5258 62.6526C68.823 62.8183 69.1576 62.9055 69.4979 62.9059H79.4029C79.7439 62.906 80.0792 62.819 80.3771 62.6531C80.6749 62.4872 80.9255 62.2479 81.1048 61.9579C81.2842 61.668 81.3864 61.337 81.4018 60.9964C81.4172 60.6557 81.3453 60.3169 81.1929 60.0119ZM73.4509 52.9059C73.4509 52.6406 73.5563 52.3863 73.7438 52.1988C73.9314 52.0112 74.1857 51.9059 74.4509 51.9059C74.7162 51.9059 74.9705 52.0112 75.158 52.1988C75.3456 52.3863 75.4509 52.6406 75.4509 52.9059V56.9059C75.4509 57.1711 75.3456 57.4254 75.158 57.613C74.9705 57.8005 74.7162 57.9059 74.4509 57.9059C74.1857 57.9059 73.9314 57.8005 73.7438 57.613C73.5563 57.4254 73.4509 57.1711 73.4509 56.9059V52.9059ZM74.4509 61.1559C74.2037 61.1559 73.962 61.0826 73.7565 60.9452C73.5509 60.8078 73.3907 60.6126 73.2961 60.3842C73.2015 60.1558 73.1767 59.9045 73.225 59.662C73.2732 59.4195 73.3922 59.1968 73.5671 59.022C73.7419 58.8472 73.9646 58.7281 74.2071 58.6799C74.4496 58.6317 74.7009 58.6564 74.9293 58.751C75.1577 58.8456 75.3529 59.0058 75.4903 59.2114C75.6276 59.417 75.7009 59.6586 75.7009 59.9059C75.7009 60.2374 75.5692 60.5553 75.3348 60.7897C75.1004 61.0242 74.7825 61.1559 74.4509 61.1559Z" fill="white"/>
<defs>
<linearGradient id="paint0_linear_316_15504" x1="115.9" y1="43.7479" x2="125.154" y2="11.4819" gradientUnits="userSpaceOnUse">
<stop stop-color="white" stop-opacity="0.01"/>
<stop offset="1" stop-opacity="0.15"/>
</linearGradient>
<linearGradient id="paint1_linear_316_15504" x1="49.4564" y1="63.8721" x2="40.6391" y2="32.3818" gradientUnits="userSpaceOnUse">
<stop stop-color="white" stop-opacity="0.01"/>
<stop offset="1" stop-opacity="0.15"/>
</linearGradient>
</defs>
</svg>
