<svg xmlns="http://www.w3.org/2000/svg" viewBox="0 0 19 19"><path d="M11,3.4A1.54,1.54,0,0,0,9.5,4.9a1.5,1.5,0,0,0,3,0A1.54,1.54,0,0,0,11,3.4ZM7.6,4.9a3.4,3.4,0,1,1,6.8,0A3.37,3.37,0,0,1,11,8.3a2.93,2.93,0,0,1-1.6-.4L7.9,9.4l.3.6h5.6a3.42,3.42,0,1,1,3.3,4.4,2.93,2.93,0,0,1-1.6-.4L14,15.5a2.93,2.93,0,0,1,.4,1.6A3.4,3.4,0,1,1,11,13.7a2.93,2.93,0,0,1,1.6.4l1.5-1.5-.3-.6H8.2a3.36,3.36,0,0,1-3.3,2.4,3.4,3.4,0,1,1,0-6.8A2.93,2.93,0,0,1,6.5,8L8,6.5A2.73,2.73,0,0,1,7.6,4.9ZM9.5,17.1A1.5,1.5,0,1,1,11,18.6,1.54,1.54,0,0,1,9.5,17.1ZM4.9,9.5a1.5,1.5,0,0,0,0,3,1.5,1.5,0,0,0,0-3Z" transform="translate(-1.5 -1.5)" fill="#0c0c0c" fill-rule="evenodd"/></svg>