<svg width="184" height="184" viewBox="0 0 184 184" fill="none" xmlns="http://www.w3.org/2000/svg">
<path opacity="0.5" fill-rule="evenodd" clip-rule="evenodd" d="M96.7161 11.5868C125.032 9.96068 148.867 31.4356 165.18 54.6374C180.2 76 187.294 103.314 178.495 127.901C170.608 149.938 146.706 159.319 124.783 167.517C106.053 174.521 86.9154 175.141 67.7924 169.296C42.6393 161.608 10.7732 155.794 3.61779 130.484C-3.67235 104.698 20.93 83.0712 37.4505 61.9726C54.2691 40.4933 69.4805 13.1509 96.7161 11.5868Z" fill="#E7DFFF"/>
<path d="M68.6275 49.563H26.4227C26.7765 47.5583 27.8255 45.7425 29.3854 44.4346C30.9453 43.1267 32.9163 42.4105 34.9519 42.4117H35.2857C36.4872 40.2709 38.2929 38.5316 40.4772 37.4111C42.6616 36.2906 45.1276 35.8386 47.5673 36.1116C50.007 36.3846 52.3122 37.3705 54.1948 38.946C56.0775 40.5216 57.4541 42.617 58.1527 44.9705C59.0435 44.1371 60.1589 43.583 61.3612 43.3766C62.5634 43.1702 63.7998 43.3206 64.9175 43.8091C66.0352 44.2977 66.9853 45.103 67.6504 46.1256C68.3154 47.1482 68.6664 48.3432 68.6598 49.563H68.6275Z" fill="#6A52DE"/>
<path d="M53.5437 52.6261H11.339C11.6928 50.6214 12.7419 48.8056 14.3018 47.4977C15.8617 46.1898 17.8325 45.4736 19.8682 45.4748H20.2021C21.4036 43.334 23.2092 41.5947 25.3935 40.4742C27.5778 39.3537 30.044 38.9017 32.4837 39.1747C34.9234 39.4477 37.2286 40.4336 39.1112 42.0091C40.9939 43.5847 42.3705 45.6801 43.0691 48.0336C43.9597 47.2 45.0751 46.6457 46.2773 46.4392C47.4795 46.2327 48.7159 46.3831 49.8336 46.8717C50.9513 47.3603 51.9013 48.1657 52.5662 49.1884C53.2311 50.2111 53.5816 51.4063 53.5746 52.6261H53.5437Z" stroke="black" stroke-width="0.760849" stroke-linecap="round" stroke-linejoin="round"/>
<path d="M86.0396 138.072C114.045 138.072 136.749 115.369 136.749 87.3631C136.749 59.3574 114.045 36.6542 86.0396 36.6542C58.0339 36.6542 35.3307 59.3574 35.3307 87.3631C35.3307 115.369 58.0339 138.072 86.0396 138.072Z" fill="white" stroke="black" stroke-width="0.760849" stroke-miterlimit="10"/>
<g style="mix-blend-mode:multiply">
<path d="M86.0407 131.277C110.294 131.277 129.954 111.616 129.954 87.3633C129.954 63.1105 110.294 43.4498 86.0407 43.4498C61.788 43.4498 42.1272 63.1105 42.1272 87.3633C42.1272 111.616 61.788 131.277 86.0407 131.277Z" fill="#C3C4FD"/>
<path d="M86.0407 131.277C110.294 131.277 129.954 111.616 129.954 87.3633C129.954 63.1105 110.294 43.4498 86.0407 43.4498C61.788 43.4498 42.1272 63.1105 42.1272 87.3633C42.1272 111.616 61.788 131.277 86.0407 131.277Z" stroke="#C3C4FD" stroke-width="0.190212" stroke-miterlimit="10"/>
</g>
<path d="M72.5703 136.281C60.578 124.748 52.9121 107.122 52.9121 87.3678C52.9121 67.6139 60.578 49.9835 72.5703 38.4514" stroke="black" stroke-width="0.760849" stroke-miterlimit="10"/>
<path d="M99.5178 38.4469C111.51 49.9789 119.178 67.605 119.178 87.3603C119.178 107.116 111.503 124.745 99.5178 136.277" stroke="black" stroke-width="0.760849" stroke-miterlimit="10"/>
<path d="M35.3307 87.3633H136.749" stroke="black" stroke-width="0.760849" stroke-miterlimit="10"/>
<path d="M86.0392 36.6556V138.072" stroke="black" stroke-width="0.760849" stroke-miterlimit="10"/>
<path d="M147.637 143.078H113.677C113.964 141.464 114.811 140.004 116.068 138.952C117.324 137.9 118.911 137.323 120.55 137.324H120.816C121.785 135.606 123.237 134.212 124.992 133.314C126.748 132.416 128.728 132.054 130.688 132.274C132.647 132.493 134.499 133.284 136.012 134.548C137.525 135.812 138.633 137.493 139.198 139.382C139.918 138.727 140.813 138.294 141.774 138.137C142.735 137.98 143.721 138.105 144.612 138.498C145.503 138.89 146.261 139.533 146.794 140.348C147.327 141.163 147.612 142.116 147.614 143.09L147.637 143.078Z" fill="#C0C3F6"/>
<path d="M147.637 143.078V142.979H113.676V143.072H113.77C114.055 141.478 114.892 140.035 116.135 138.998C117.378 137.96 118.948 137.394 120.567 137.399H120.827C120.845 137.399 120.862 137.394 120.877 137.385C120.892 137.377 120.905 137.364 120.914 137.349C121.879 135.656 123.32 134.284 125.058 133.401C126.795 132.519 128.753 132.165 130.69 132.384C132.626 132.604 134.456 133.386 135.952 134.634C137.449 135.882 138.546 137.542 139.109 139.407C139.112 139.422 139.119 139.436 139.13 139.447C139.141 139.458 139.156 139.465 139.171 139.469C139.183 139.478 139.198 139.483 139.213 139.482C139.229 139.483 139.244 139.478 139.256 139.469C139.963 138.825 140.841 138.399 141.785 138.243C142.729 138.088 143.697 138.209 144.573 138.593C145.449 138.977 146.195 139.607 146.72 140.407C147.246 141.206 147.528 142.141 147.532 143.097H147.718C147.715 142.104 147.423 141.133 146.879 140.303C146.334 139.473 145.56 138.818 144.651 138.419C143.742 138.021 142.736 137.895 141.756 138.057C140.777 138.219 139.865 138.662 139.133 139.332L139.196 139.402H139.287C138.711 137.501 137.59 135.811 136.063 134.541C134.536 133.271 132.67 132.477 130.696 132.258C128.722 132.039 126.726 132.404 124.958 133.307C123.189 134.211 121.725 135.614 120.746 137.343L120.833 137.385V137.293H120.561C118.903 137.294 117.298 137.878 116.028 138.944C114.758 140.009 113.903 141.488 113.614 143.121C113.608 143.134 113.605 143.148 113.605 143.162C113.605 143.176 113.608 143.189 113.614 143.202C113.634 143.221 113.661 143.232 113.689 143.232H147.631C147.653 143.241 147.677 143.241 147.699 143.232C147.716 143.213 147.727 143.19 147.731 143.165L147.637 143.078Z" fill="#C0C3F6"/>
<path d="M34.948 128.568C35.2098 128.568 35.4656 128.49 35.6833 128.345C35.9009 128.2 36.0705 127.993 36.1707 127.751C36.2709 127.509 36.2971 127.243 36.2461 126.986C36.195 126.73 36.069 126.494 35.8839 126.309C35.6988 126.124 35.4629 125.998 35.2062 125.947C34.9495 125.895 34.6833 125.922 34.4415 126.022C34.1997 126.122 33.993 126.292 33.8475 126.509C33.7021 126.727 33.6245 126.983 33.6245 127.245C33.6245 127.596 33.7639 127.932 34.0121 128.18C34.2603 128.429 34.597 128.568 34.948 128.568Z" stroke="black" stroke-width="0.760849" stroke-miterlimit="10"/>
<path d="M8.22401 43.6556C8.48577 43.6556 8.74163 43.5779 8.95928 43.4325C9.17693 43.2871 9.34651 43.0804 9.44669 42.8385C9.54686 42.5967 9.573 42.3306 9.52194 42.0739C9.47087 41.8171 9.34485 41.5813 9.15976 41.3962C8.97466 41.2111 8.73895 41.0851 8.48221 41.034C8.22548 40.9829 7.95934 41.0092 7.7175 41.1093C7.47566 41.2095 7.26896 41.3791 7.12354 41.5968C6.97811 41.8144 6.90051 42.0703 6.90051 42.3321C6.90051 42.6831 7.03991 43.0197 7.28811 43.2679C7.53631 43.5161 7.87299 43.6556 8.22401 43.6556V43.6556Z" stroke="black" stroke-width="0.760849" stroke-miterlimit="10"/>
<path d="M150.987 115.446C151.249 115.446 151.505 115.369 151.722 115.223C151.94 115.078 152.109 114.871 152.21 114.629C152.31 114.387 152.336 114.121 152.285 113.865C152.234 113.608 152.108 113.372 151.923 113.187C151.738 113.002 151.502 112.876 151.245 112.825C150.988 112.774 150.722 112.8 150.48 112.9C150.239 113 150.032 113.17 149.886 113.388C149.741 113.605 149.663 113.861 149.663 114.123C149.663 114.474 149.803 114.811 150.051 115.059C150.299 115.307 150.636 115.446 150.987 115.446V115.446Z" stroke="black" stroke-width="0.760849" stroke-miterlimit="10"/>
<path d="M18.321 102.375V99.3893" stroke="black" stroke-width="0.760849" stroke-linecap="round" stroke-linejoin="round"/>
<path d="M16.8257 100.885H19.811" stroke="black" stroke-width="0.760849" stroke-linecap="round" stroke-linejoin="round"/>
<path d="M25.8302 74.9767V71.9915" stroke="black" stroke-width="0.760849" stroke-linecap="round" stroke-linejoin="round"/>
<path d="M24.3408 73.4812H27.326" stroke="black" stroke-width="0.760849" stroke-linecap="round" stroke-linejoin="round"/>
<path d="M147.267 61.8124V58.8271" stroke="black" stroke-width="0.760849" stroke-linecap="round" stroke-linejoin="round"/>
<path d="M145.771 60.3227H148.757" stroke="black" stroke-width="0.760849" stroke-linecap="round" stroke-linejoin="round"/>
<path fill-rule="evenodd" clip-rule="evenodd" d="M103.936 58.8934V53.9495H95.2843V34.5H122.106V53.9612H110.859L103.936 58.8934Z" fill="#6A52DE" stroke="black" stroke-width="0.760849" stroke-miterlimit="10"/>
<path d="M104.895 112.343V107.566H100.822V91.4969H123.571V107.566H107.954L104.895 112.343Z" fill="white" stroke="black" stroke-width="0.760849" stroke-linejoin="round"/>
<path d="M108.693 99.241C108.693 99.5226 108.608 99.7977 108.451 100.031C108.294 100.265 108.071 100.447 107.811 100.554C107.617 100.635 107.407 100.672 107.197 100.662C106.987 100.651 106.781 100.595 106.596 100.496C106.41 100.396 106.249 100.257 106.124 100.088C105.999 99.9187 105.913 99.7239 105.873 99.5174C105.817 99.2421 105.845 98.9564 105.952 98.6969C106.061 98.4376 106.244 98.2157 106.477 98.0587C106.691 97.917 106.938 97.8358 107.194 97.8235C107.45 97.8112 107.705 97.8684 107.931 97.989C108.157 98.1095 108.346 98.289 108.479 98.5084C108.611 98.7278 108.682 98.9789 108.683 99.2351L108.693 99.241Z" stroke="black" stroke-width="0.760849"/>
<path d="M113.46 99.2408C113.461 99.5946 113.329 99.9359 113.092 100.198C112.855 100.461 112.529 100.626 112.177 100.661C111.825 100.696 111.472 100.599 111.188 100.388C110.903 100.178 110.707 99.8692 110.638 99.5223C110.568 99.1754 110.631 98.815 110.812 98.5114C110.994 98.2078 111.282 97.9826 111.62 97.8796C111.959 97.7766 112.323 97.8032 112.643 97.9543C112.963 98.1053 113.216 98.3699 113.351 98.6967C113.423 98.8691 113.46 99.054 113.46 99.2408V99.2408Z" stroke="black" stroke-width="0.760849"/>
<path d="M118.515 99.2408C118.514 99.5225 118.43 99.7975 118.273 100.031C118.116 100.265 117.893 100.447 117.632 100.554C117.438 100.635 117.228 100.672 117.018 100.661C116.808 100.651 116.603 100.595 116.417 100.495C116.232 100.396 116.071 100.257 115.946 100.088C115.821 99.9186 115.735 99.7237 115.694 99.5173C115.638 99.2418 115.666 98.956 115.775 98.6967C115.901 98.3926 116.128 98.1414 116.418 97.9861C116.708 97.8308 117.043 97.781 117.366 97.8452C117.688 97.9095 117.979 98.0837 118.187 98.3383C118.396 98.5928 118.509 98.9118 118.509 99.2408H118.515Z" stroke="black" stroke-width="0.760849"/>
<path fill-rule="evenodd" clip-rule="evenodd" d="M59.5948 96.9938V92.2233H67.9696V74.5767H42.0173V92.2233H52.8994L59.5948 96.9938Z" fill="#A77FFA" stroke="black" stroke-width="0.760849" stroke-miterlimit="10"/>
<path d="M135.359 146.153H177.099" stroke="black" stroke-width="0.760849" stroke-miterlimit="10"/>
<path d="M115.672 150.538H157.412" stroke="black" stroke-width="0.760849" stroke-miterlimit="10"/>
<path d="M167.379 146.153H126.574C126.92 144.215 127.936 142.46 129.445 141.197C130.955 139.933 132.86 139.241 134.829 139.241C134.936 139.241 135.045 139.241 135.151 139.249C136.314 137.183 138.059 135.505 140.168 134.424C142.278 133.343 144.659 132.907 147.015 133.17C149.371 133.433 151.597 134.383 153.417 135.903C155.236 137.422 156.568 139.444 157.247 141.715C158.11 140.92 159.186 140.394 160.343 140.201C161.5 140.007 162.689 140.155 163.763 140.626C164.838 141.097 165.751 141.871 166.393 142.853C167.035 143.835 167.377 144.983 167.378 146.156L167.379 146.153Z" stroke="black" stroke-width="0.760849" stroke-linecap="round" stroke-linejoin="round"/>
<path d="M51.9149 82.6897C51.9143 82.9714 51.83 83.2464 51.673 83.4802C51.5159 83.714 51.2931 83.8959 51.0326 84.0029C50.8384 84.0838 50.6287 84.1205 50.4185 84.1104C50.2084 84.1002 50.003 84.0435 49.8175 83.9443C49.632 83.845 49.471 83.7058 49.3459 83.5366C49.2209 83.3675 49.135 83.1726 49.0945 82.9662C49.0388 82.6909 49.0663 82.4052 49.1737 82.1457C49.2828 81.8863 49.4653 81.6645 49.6988 81.5074C49.9123 81.3658 50.1602 81.2845 50.4161 81.2723C50.672 81.26 50.9264 81.3172 51.1525 81.4377C51.3786 81.5583 51.5679 81.7378 51.7002 81.9572C51.8326 82.1765 51.9033 82.4276 51.9046 82.6839L51.9149 82.6897Z" stroke="black" stroke-width="0.760849"/>
<path d="M105.582 43.5898C105.581 43.8714 105.497 44.1465 105.34 44.3802C105.183 44.614 104.96 44.7959 104.699 44.903C104.505 44.9839 104.295 45.0206 104.085 45.0104C103.875 45.0003 103.67 44.9435 103.484 44.8443C103.299 44.7451 103.138 44.6058 103.013 44.4367C102.888 44.2675 102.802 44.0727 102.761 43.8662C102.706 43.5909 102.733 43.3052 102.84 43.0457C102.95 42.7863 103.132 42.5645 103.366 42.4074C103.579 42.2658 103.827 42.1845 104.083 42.1723C104.339 42.16 104.593 42.2172 104.819 42.3378C105.045 42.4583 105.235 42.6378 105.367 42.8572C105.499 43.0766 105.57 43.3277 105.571 43.5839L105.582 43.5898Z" stroke="black" stroke-width="0.760849"/>
<path d="M56.6819 82.6896C56.6824 83.0434 56.5512 83.3847 56.314 83.6471C56.0768 83.9096 55.7504 84.0744 55.3984 84.1095C55.0463 84.1446 54.6937 84.0476 54.4093 83.8371C54.1249 83.6267 53.929 83.318 53.8596 82.9711C53.7902 82.6242 53.8523 82.2638 54.0339 81.9602C54.2155 81.6566 54.5037 81.4314 54.8422 81.3284C55.1806 81.2254 55.5453 81.252 55.8652 81.403C56.1852 81.554 56.4375 81.8187 56.5731 82.1455C56.6451 82.3178 56.6821 82.5028 56.6819 82.6896V82.6896Z" stroke="black" stroke-width="0.760849"/>
<path d="M110.349 43.5896C110.349 43.9433 110.218 44.2847 109.981 44.5471C109.743 44.8096 109.417 44.9744 109.065 45.0095C108.713 45.0446 108.36 44.9476 108.076 44.7371C107.792 44.5267 107.596 44.218 107.526 43.8711C107.457 43.5241 107.519 43.1638 107.701 42.8602C107.882 42.5565 108.17 42.3314 108.509 42.2284C108.847 42.1254 109.212 42.152 109.532 42.303C109.852 42.454 110.104 42.7187 110.24 43.0455C110.312 43.2178 110.349 43.4028 110.349 43.5896V43.5896Z" stroke="black" stroke-width="0.760849"/>
<path d="M61.7365 82.6896C61.7358 82.9712 61.6515 83.2463 61.4945 83.4801C61.3374 83.7138 61.1146 83.8957 60.8541 84.0028C60.6599 84.0837 60.4501 84.1204 60.2399 84.1102C60.0298 84.1001 59.8246 84.0434 59.6391 83.9441C59.4536 83.8449 59.2924 83.7057 59.1673 83.5365C59.0422 83.3673 58.9564 83.1725 58.9159 82.9661C58.8599 82.6906 58.8881 82.4047 58.9967 82.1455C59.1222 81.8413 59.3494 81.5902 59.6395 81.4349C59.9296 81.2796 60.2646 81.2298 60.5873 81.294C60.91 81.3582 61.2004 81.5325 61.4089 81.787C61.6174 82.0416 61.7311 82.3606 61.7306 82.6896H61.7365Z" stroke="black" stroke-width="0.760849"/>
<path d="M115.403 43.5896C115.403 43.8712 115.318 44.1463 115.161 44.3801C115.004 44.6138 114.781 44.7957 114.521 44.9028C114.327 44.9837 114.117 45.0204 113.907 45.0103C113.697 45.0001 113.491 44.9434 113.306 44.8441C113.12 44.7449 112.959 44.6057 112.834 44.4365C112.709 44.2673 112.623 44.0725 112.583 43.8661C112.527 43.5906 112.555 43.3047 112.663 43.0455C112.789 42.7413 113.016 42.4902 113.306 42.3349C113.596 42.1796 113.931 42.1298 114.254 42.194C114.577 42.2582 114.867 42.4325 115.076 42.687C115.284 42.9416 115.398 43.2606 115.397 43.5896H115.403Z" stroke="black" stroke-width="0.760849"/>
</svg>
