<svg width="120" height="119" viewBox="0 0 120 119" fill="none" xmlns="http://www.w3.org/2000/svg">
<path fill-rule="evenodd" clip-rule="evenodd" d="M81.9999 13C79.0261 13 76.6153 15.4108 76.6153 18.3846C76.6153 19.312 76.8497 20.1846 77.2626 20.9464L74.9463 23.2626C74.1845 22.8498 73.3119 22.6154 72.3846 22.6154C69.4108 22.6154 67 25.0262 67 28C67 30.9738 69.4108 33.3846 72.3846 33.3846C74.8239 33.3846 76.8843 31.7627 77.5463 29.5384H86.4538C86.5603 29.8965 86.7032 30.239 86.878 30.5617L84.5617 32.878C83.7999 32.4652 82.9273 32.2308 81.9999 32.2308C79.0261 32.2308 76.6153 34.6415 76.6153 37.6154C76.6153 40.5892 79.0261 43 81.9999 43C84.9738 43 87.3846 40.5892 87.3846 37.6154C87.3846 36.6881 87.1502 35.8155 86.7374 35.0538L89.0537 32.7374C89.8155 33.1502 90.6881 33.3846 91.6154 33.3846C94.5893 33.3846 97 30.9738 97 28C97 25.0262 94.5893 22.6154 91.6154 22.6154C89.1762 22.6154 87.1158 24.2373 86.4538 26.4615H77.5462C77.4397 26.1034 77.2968 25.7609 77.122 25.4383L79.4383 23.1221C80.2001 23.5348 81.0726 23.7692 81.9999 23.7692C84.9738 23.7692 87.3846 21.3585 87.3846 18.3846C87.3846 15.4108 84.9738 13 81.9999 13ZM79.6922 18.3846C79.6922 17.1101 80.7254 16.0769 81.9999 16.0769C83.2744 16.0769 84.3076 17.1101 84.3076 18.3846C84.3076 19.6591 83.2744 20.6923 81.9999 20.6923C80.7254 20.6923 79.6922 19.6591 79.6922 18.3846ZM81.9999 35.3077C80.7254 35.3077 79.6922 36.3409 79.6922 37.6154C79.6922 38.8899 80.7254 39.9231 81.9999 39.9231C83.2744 39.9231 84.3076 38.8899 84.3076 37.6154C84.3076 36.3409 83.2744 35.3077 81.9999 35.3077ZM70.0769 28C70.0769 26.7255 71.1101 25.6923 72.3846 25.6923C73.6591 25.6923 74.6923 26.7255 74.6923 28C74.6923 29.2745 73.6591 30.3077 72.3846 30.3077C71.1101 30.3077 70.0769 29.2745 70.0769 28ZM91.6154 25.6923C90.3409 25.6923 89.3077 26.7255 89.3077 28C89.3077 29.2745 90.3409 30.3077 91.6154 30.3077C92.8899 30.3077 93.9231 29.2745 93.9231 28C93.9231 26.7255 92.8899 25.6923 91.6154 25.6923Z" fill="url(#paint0_linear)"/>
<path fill-rule="evenodd" clip-rule="evenodd" d="M82 0C69.6844 0 59.2259 7.9511 55.4778 19H10C4.47715 19 0 23.4772 0 29V109C0 114.523 4.47715 119 10 119H110C115.523 119 120 114.523 120 109V29C120 23.4772 115.523 19 110 19H108.522C104.774 7.9511 94.3156 0 82 0ZM82 51C91.5087 51 99.6697 45.2298 103.172 37C104.34 34.2572 104.99 31.2411 105 28.0744L105 28.0419L105 28C105 24.8244 104.356 21.799 103.193 19.0474L103.172 19C99.6697 10.7702 91.5087 5 82 5C72.4913 5 64.3303 10.7702 60.8275 19C59.651 21.7643 59 24.8061 59 28C59 31.1756 59.6436 34.201 60.8075 36.9526L60.8275 37C64.3303 45.2298 72.4913 51 82 51ZM82 56C93.7843 56 103.868 48.7202 108 38.4123V107H12V37H55.4778C59.2259 48.0489 69.6844 56 82 56Z" fill="url(#paint1_linear)"/>
<defs>
<linearGradient id="paint0_linear" x1="163" y1="-19.5" x2="11.469" y2="105.753" gradientUnits="userSpaceOnUse">
<stop offset="0.416667" stop-color="#E137AA"/>
<stop offset="1" stop-color="#FF6256"/>
</linearGradient>
<linearGradient id="paint1_linear" x1="163" y1="-19.5" x2="11.469" y2="105.753" gradientUnits="userSpaceOnUse">
<stop offset="0.416667" stop-color="#E137AA"/>
<stop offset="1" stop-color="#FF6256"/>
</linearGradient>
</defs>
</svg>
