<svg width="17" height="17" viewBox="0 0 17 17" fill="none" xmlns="http://www.w3.org/2000/svg">
<path d="M15.7449 14.3309L10.9229 9.50895C11.7982 8.2791 12.1794 6.76528 11.9909 5.26759C11.8025 3.76991 11.0582 2.3977 9.90554 1.423C8.75291 0.448307 7.27613 -0.0577189 5.76795 0.00524235C4.25977 0.0682036 2.8303 0.695555 1.76293 1.76293C0.695555 2.8303 0.0682036 4.25977 0.00524235 5.76795C-0.0577189 7.27613 0.448307 8.75291 1.423 9.90554C2.3977 11.0582 3.76991 11.8025 5.26759 11.9909C6.76528 12.1794 8.2791 11.7982 9.50895 10.9229L14.3309 15.7449C14.5196 15.9271 14.7722 16.0279 15.0343 16.0256C15.2965 16.0233 15.5474 15.9182 15.7328 15.7328C15.9182 15.5474 16.0233 15.2965 16.0256 15.0343C16.0279 14.7722 15.9271 14.5196 15.7449 14.3309ZM6.03795 10.0379C5.24682 10.0379 4.47346 9.80335 3.81567 9.36383C3.15787 8.9243 2.64518 8.29959 2.34243 7.56868C2.03968 6.83778 1.96047 6.03351 2.11481 5.25759C2.26915 4.48166 2.65011 3.76893 3.20952 3.20952C3.76893 2.65011 4.48166 2.26915 5.25759 2.11481C6.03351 1.96047 6.83778 2.03968 7.56868 2.34243C8.29959 2.64518 8.9243 3.15787 9.36383 3.81567C9.80335 4.47346 10.0379 5.24682 10.0379 6.03795C10.0379 7.09881 9.61652 8.11623 8.86637 8.86637C8.11623 9.61652 7.09881 10.0379 6.03795 10.0379Z" fill="#6D6D6E"/>
</svg>
