<svg width="24" height="24" viewBox="0 0 24 24" fill="none" xmlns="http://www.w3.org/2000/svg">
<path fill-rule="evenodd" clip-rule="evenodd" d="M9.54055 17.8132C9.62548 18.2679 9.84383 18.7026 10.1956 19.0544C11.1231 19.9819 12.6269 19.9819 13.5544 19.0544C14.4819 18.1269 14.4819 16.6231 13.5544 15.6956C13.2137 15.3549 12.78 15.1284 12.3131 15.0407L9.54055 17.8132ZM14.832 12.5218C15.4309 12.8302 15.9822 13.2374 16.4613 13.7328C16.8133 14.0891 17.384 14.0891 17.736 13.7328C18.088 13.3766 18.088 12.7991 17.736 12.4429C17.264 11.9544 16.7374 11.5325 16.1705 11.1833L14.832 12.5218ZM12.9166 10.0531C12.6138 10.0179 12.3078 10 12 10C9.84106 10 7.77325 10.8807 6.26399 12.4429C5.912 12.7991 5.912 13.3766 6.26399 13.7328C6.61598 14.0891 7.18667 14.0891 7.53866 13.7328C8.49247 12.7466 9.73243 12.11 11.0641 11.9057L12.9166 10.0531ZM15.5665 7.4032C14.4353 7.00952 13.2291 6.80233 12 6.80233C9.22262 6.80233 6.56233 7.86025 4.61977 9.73722C4.24922 10.0876 3.64845 10.0876 3.27791 9.73722C2.90736 9.38684 2.90736 8.81877 3.27791 8.4684C5.5737 6.25022 8.71766 5 12 5C13.7296 5 15.4207 5.34714 16.9696 6.00011L15.5665 7.4032ZM18.4286 8.92521C18.7615 9.17566 19.0795 9.44662 19.3802 9.73722C19.7508 10.0876 20.3515 10.0876 20.7221 9.73722C21.0926 9.38684 21.0926 8.81877 20.7221 8.4684C20.4092 8.16604 20.0805 7.88167 19.7378 7.61599L18.4286 8.92521Z" fill="#9E9E9E"/>
<path d="M5.09231 20C4.8763 20.0001 4.66511 19.9361 4.48547 19.8162C4.30584 19.6962 4.16582 19.5256 4.08314 19.3261C4.00046 19.1265 3.97883 18.9069 4.02101 18.6951C4.06317 18.4832 4.16724 18.2887 4.32004 18.1359L18.1496 4.30649C18.3555 4.10761 18.6314 3.99756 18.9176 4.00004C19.2039 4.00254 19.4777 4.11736 19.6801 4.31979C19.8826 4.52222 19.9974 4.79605 20 5.08232C20.0024 5.36858 19.8924 5.64437 19.6935 5.85029L5.86386 19.6797C5.6593 19.8845 5.38178 19.9997 5.09231 20Z" fill="#E22850"/>
</svg>
