<svg width="24" height="24" viewBox="0 0 24 24" fill="none" xmlns="http://www.w3.org/2000/svg">
<path d="M10.1956 15.6956C10.641 15.2502 11.2451 15 11.875 15C12.5049 15 13.109 15.2502 13.5544 15.6956C14.4819 16.6231 14.4819 18.1269 13.5544 19.0544C12.6269 19.9819 11.1231 19.9819 10.1956 19.0544C9.26813 18.1269 9.26813 16.6231 10.1956 15.6956Z" fill="#C45A27"/>
<path d="M3.27791 8.4684C5.5737 6.25022 8.71766 5 12 5C15.2823 5 18.4263 6.25022 20.7221 8.4684C21.0926 8.81877 21.0926 9.38684 20.7221 9.73722C20.3515 10.0876 19.7508 10.0876 19.3802 9.73722C17.4377 7.86025 14.7774 6.80233 12 6.80233C9.22262 6.80233 6.56233 7.86025 4.61977 9.73722C4.24922 10.0876 3.64845 10.0876 3.27791 9.73722C2.90736 9.38684 2.90736 8.81877 3.27791 8.4684Z" fill="#9E9E9E"/>
<path d="M6.26399 12.4429C7.77325 10.8807 9.84106 10 12 10C14.1589 10 16.2268 10.8807 17.736 12.4429C18.088 12.7991 18.088 13.3766 17.736 13.7328C17.384 14.0891 16.8133 14.0891 16.4613 13.7328C15.287 12.5186 13.6789 11.8343 12 11.8343C10.3211 11.8343 8.71299 12.5186 7.53866 13.7328C7.18667 14.0891 6.61598 14.0891 6.26399 13.7328C5.912 13.3766 5.912 12.7991 6.26399 12.4429Z" fill="#9E9E9E"/>
</svg>
