<svg xmlns="http://www.w3.org/2000/svg" viewBox="0 0 32 32"><path d="M16,0h0A16,16,0,0,1,32,16h0A16,16,0,0,1,16,32h0A16,16,0,0,1,0,16H0A16,16,0,0,1,16,0Z" fill="none"/><path d="M22.72,9.31a1,1,0,0,0-1.41,0l-.54.54a1.38,1.38,0,0,0-.29-.08L16,9l-4.47.77A1.84,1.84,0,0,0,10,11.59c0,1,0,2.87.08,3.71a10.14,10.14,0,0,0,1.08,4.14L9.31,21.31A1,1,0,0,0,9.75,23a1,1,0,0,0,1-.27l12-12A1,1,0,0,0,22.72,9.31ZM18.53,19.4A4.24,4.24,0,0,1,16,21a4,4,0,0,1-1.41-.58l-1.43,1.44A6.19,6.19,0,0,0,15.9,23h.22a6.25,6.25,0,0,0,4-2.43,9.3,9.3,0,0,0,1.8-5.28c0-.52.06-1.42.07-2.29l-2,2A7.55,7.55,0,0,1,18.53,19.4Zm-6.53-6c0,.77,0,1.33,0,1.66A9.57,9.57,0,0,0,12.66,18l6.4-6.4L16,11l-4,.69C12,12.33,12,12.88,12,13.35Z" fill="#fff" fill-rule="evenodd"/></svg>
