<svg width="80" height="80" viewBox="0 0 80 80" fill="none" xmlns="http://www.w3.org/2000/svg">
<path d="M37.7073 58.6349C48.1621 58.6349 56.6373 50.1597 56.6373 39.7049C56.6373 29.2502 48.1621 20.7749 37.7073 20.7749C27.2526 20.7749 18.7773 29.2502 18.7773 39.7049C18.7773 50.1597 27.2526 58.6349 37.7073 58.6349Z" fill="#C2C3FC"/>
<path d="M50.3083 59.2318C45.645 62.1852 40.0537 63.3084 34.6115 62.3851C29.1694 61.4618 24.2614 58.5572 20.8332 54.231C17.4049 49.9047 15.6988 44.4629 16.0437 38.9538C16.3885 33.4446 18.7599 28.258 22.7009 24.393C26.6418 20.528 31.8737 18.2582 37.3885 18.0207C42.9033 17.7832 48.3109 19.5949 52.5696 23.1068C56.8282 26.6187 59.6366 31.5823 60.4538 37.0414C61.2709 42.5005 60.039 48.0688 56.9953 52.6738" stroke="white" stroke-width="0.45" stroke-linecap="round" stroke-linejoin="round"/>
<path d="M54.4295 55.8704C53.7976 56.5262 53.1259 57.1424 52.418 57.7153" stroke="white" stroke-width="0.45" stroke-linecap="round" stroke-linejoin="round"/>
<path d="M30.8031 23.6758C34.9075 21.8138 39.5538 21.5285 43.8553 22.8742C48.1567 24.2199 51.8119 27.1024 54.1233 30.9716C56.4347 34.8408 57.2403 39.4257 56.3864 43.8511C55.5325 48.2765 53.0789 52.2324 49.4939 54.9639C45.9089 57.6954 41.4436 59.0111 36.9502 58.6598C32.4569 58.3085 28.2503 56.3149 25.1334 53.0595C22.0164 49.8041 20.2073 45.5149 20.0515 41.0106C19.8957 36.5063 21.404 32.1023 24.2886 28.6393" stroke="white" stroke-width="0.45" stroke-miterlimit="10"/>
<path d="M27.3796 40.0813L36.2566 48.9583C36.7217 49.4221 37.3518 49.6826 38.0086 49.6826C38.6655 49.6826 39.2955 49.4221 39.7606 48.9583L63.2446 25.4743C63.6975 25.0072 63.9484 24.3808 63.9434 23.7302C63.9383 23.0797 63.6777 22.4573 63.2177 21.9972C62.7577 21.5372 62.1352 21.2766 61.4847 21.2716C60.8341 21.2665 60.2077 21.5175 59.7406 21.9703L38.0086 43.7008L30.8836 36.5773C30.6549 36.3413 30.3815 36.1532 30.0793 36.0239C29.7772 35.8946 29.4523 35.8267 29.1237 35.8242C28.795 35.8216 28.4692 35.8845 28.165 36.0091C27.8609 36.1336 27.5846 36.3175 27.3522 36.5499C27.1199 36.7823 26.936 37.0586 26.8114 37.3627C26.6868 37.6668 26.624 37.9927 26.6265 38.3213C26.6291 38.65 26.697 38.9748 26.8263 39.277C26.9556 39.5791 27.1437 39.8526 27.3796 40.0813Z" fill="#A67EFA" stroke="black" stroke-width="0.45" stroke-miterlimit="10"/>
<path d="M68.9455 49.5474C68.8934 49.5474 68.8434 49.5267 68.8066 49.4898C68.7697 49.453 68.749 49.403 68.749 49.3509V47.5509C68.7533 47.5015 68.776 47.4556 68.8125 47.4221C68.849 47.3887 68.8967 47.3701 68.9463 47.3701C68.9958 47.3701 69.0435 47.3887 69.08 47.4221C69.1166 47.4556 69.1392 47.5015 69.1435 47.5509V49.3509C69.1431 49.4031 69.1221 49.4532 69.085 49.49C69.0479 49.5268 68.9978 49.5474 68.9455 49.5474Z" fill="white" stroke="white" stroke-width="0.225" stroke-miterlimit="10"/>
<path d="M70.0407 48.4538C70.0407 48.5063 70.0199 48.5567 69.9827 48.5939C69.9456 48.631 69.8952 48.6519 69.8427 48.6519H68.0427C67.9902 48.6519 67.9398 48.631 67.9027 48.5939C67.8656 48.5567 67.8447 48.5063 67.8447 48.4538C67.8447 48.4013 67.8656 48.351 67.9027 48.3139C67.9398 48.2767 67.9902 48.2559 68.0427 48.2559H69.8427C69.8952 48.2559 69.9456 48.2767 69.9827 48.3139C70.0199 48.351 70.0407 48.4013 70.0407 48.4538Z" fill="white" stroke="white" stroke-width="0.225" stroke-miterlimit="10"/>
<path d="M54.1345 70.6945C54.0823 70.6945 54.0321 70.6739 53.995 70.6371C53.958 70.6003 53.9369 70.5502 53.9365 70.498V68.698C53.9365 68.6455 53.9574 68.5951 53.9945 68.558C54.0316 68.5209 54.082 68.5 54.1345 68.5C54.187 68.5 54.2374 68.5209 54.2745 68.558C54.3117 68.5951 54.3325 68.6455 54.3325 68.698V70.498C54.3321 70.5502 54.3111 70.6003 54.274 70.6371C54.2369 70.6739 54.1868 70.6945 54.1345 70.6945V70.6945Z" fill="white" stroke="white" stroke-width="0.225" stroke-miterlimit="10"/>
<path d="M55.2248 69.601C55.2248 69.6536 55.204 69.704 55.1668 69.7411C55.1297 69.7782 55.0793 69.7991 55.0268 69.7991H53.2268C53.1743 69.7991 53.1239 69.7782 53.0868 69.7411C53.0497 69.704 53.0288 69.6536 53.0288 69.601C53.0288 69.5485 53.0497 69.4982 53.0868 69.4611C53.1239 69.424 53.1743 69.4031 53.2268 69.4031H55.0268C55.0793 69.4031 55.1297 69.424 55.1668 69.4611C55.204 69.4982 55.2248 69.5485 55.2248 69.601Z" fill="white" stroke="white" stroke-width="0.225" stroke-miterlimit="10"/>
<path d="M12.0115 34.8655C11.9592 34.8655 11.9091 34.8448 11.872 34.808C11.8349 34.7712 11.8139 34.7212 11.8135 34.669V32.869C11.8178 32.8196 11.8404 32.7737 11.877 32.7402C11.9135 32.7068 11.9612 32.6882 12.0107 32.6882C12.0603 32.6882 12.108 32.7068 12.1445 32.7402C12.181 32.7737 12.2037 32.8196 12.208 32.869V34.669C12.208 34.6948 12.2029 34.7204 12.193 34.7442C12.1831 34.7681 12.1687 34.7897 12.1504 34.8079C12.1322 34.8262 12.1105 34.8407 12.0867 34.8506C12.0628 34.8604 12.0373 34.8655 12.0115 34.8655V34.8655Z" fill="white" stroke="white" stroke-width="0.225" stroke-miterlimit="10"/>
<path d="M13.1047 33.7749C13.1047 33.8274 13.0838 33.8778 13.0467 33.9149C13.0096 33.952 12.9592 33.9729 12.9067 33.9729H11.1067C11.0542 33.9729 11.0038 33.952 10.9667 33.9149C10.9295 33.8778 10.9087 33.8274 10.9087 33.7749C10.9087 33.7224 10.9295 33.672 10.9667 33.6348C11.0038 33.5977 11.0542 33.5769 11.1067 33.5769H12.9067C12.9592 33.5769 13.0096 33.5977 13.0467 33.6348C13.0838 33.672 13.1047 33.7224 13.1047 33.7749Z" fill="white" stroke="white" stroke-width="0.225" stroke-miterlimit="10"/>
<path d="M19.882 12.764C20.3691 12.764 20.764 12.3691 20.764 11.882C20.764 11.3949 20.3691 11 19.882 11C19.3949 11 19 11.3949 19 11.882C19 12.3691 19.3949 12.764 19.882 12.764Z" stroke="white" stroke-width="0.45" stroke-miterlimit="10"/>
<path d="M13.9855 65.002C14.4726 65.002 14.8675 64.6071 14.8675 64.12C14.8675 63.6329 14.4726 63.238 13.9855 63.238C13.4984 63.238 13.1035 63.6329 13.1035 64.12C13.1035 64.6071 13.4984 65.002 13.9855 65.002Z" stroke="white" stroke-width="0.45" stroke-miterlimit="10"/>
</svg>
