<svg xmlns="http://www.w3.org/2000/svg" xmlns:xlink="http://www.w3.org/1999/xlink" viewBox="0 0 76.47 76.48"><defs><linearGradient id="a" x1="74.94" y1="96.88" x2="34.37" y2="15.74" gradientTransform="matrix(1, 0, 0, -1, 0, 112)" gradientUnits="userSpaceOnUse"><stop offset="0" stop-color="#ffa436"/><stop offset="0.32" stop-color="#ff4f5e"/><stop offset="0.66" stop-color="#ff298a"/><stop offset="1" stop-color="#9059ff"/></linearGradient><linearGradient id="b" x1="52.33" y1="101.51" x2="57.76" y2="10.95" xlink:href="#a"/><linearGradient id="c" x1="40.9" y1="99.3" x2="69.59" y2="13.23" xlink:href="#a"/></defs><path d="M88.23,55A33.23,33.23,0,0,0,55,21.77m0,66.46A33.23,33.23,0,0,1,21.77,55" transform="translate(-16.77 -16.76)" fill="none" stroke-linecap="round" stroke-width="10" stroke="url(#a)"/><path d="M83.78,38.38a33.24,33.24,0,0,0-45.4-12.16M71.62,83.78a33.23,33.23,0,0,1-45.4-12.16" transform="translate(-16.77 -16.76)" fill="none" stroke-linecap="round" stroke-width="10" opacity="0.5" stroke="url(#b)" style="isolation:isolate"/><path d="M78.5,31.5a33.23,33.23,0,0,0-47,0m47,47a33.23,33.23,0,0,1-47,0" transform="translate(-16.77 -16.76)" fill="none" stroke-linecap="round" stroke-width="10" opacity="0.25" stroke="url(#c)" style="isolation:isolate"/></svg>