<svg xmlns="http://www.w3.org/2000/svg" viewBox="0 0 32 32"><path d="M16,0h0A16,16,0,0,1,32,16h0A16,16,0,0,1,16,32h0A16,16,0,0,1,0,16H0A16,16,0,0,1,16,0Z" fill="none"/><path d="M22,9a1,1,0,0,0-1,1v1.15a6.9,6.9,0,0,0-3.15-1.89A7,7,0,0,0,11,11.09a7,7,0,0,0-1.78,3.22.86.86,0,0,0,0,.39,1.07,1.07,0,0,0,.13.38,1.2,1.2,0,0,0,.26.29,1,1,0,0,0,.36.17,1,1,0,0,0,.77-.12,1.06,1.06,0,0,0,.29-.27,1.17,1.17,0,0,0,.16-.36,4.94,4.94,0,0,1,1.76-2.73A5,5,0,0,1,16,11a5,5,0,0,1,4,2H18a1,1,0,1,0,0,2h4a1,1,0,0,0,1-1V10a1,1,0,0,0-1-1Zm.05,7.48a1,1,0,0,0-.39,0,1.16,1.16,0,0,0-.37.13,1.06,1.06,0,0,0-.29.27.88.88,0,0,0-.17.35,4.94,4.94,0,0,1-1.76,2.73A5,5,0,0,1,16,21a5,5,0,0,1-4-2h2a1,1,0,1,0,0-2H10a1,1,0,0,0-1,1v4a1,1,0,1,0,2,0V20.85a6.9,6.9,0,0,0,3.15,1.89A7,7,0,0,0,21,20.91a7,7,0,0,0,1.78-3.22.94.94,0,0,0-.11-.75A1,1,0,0,0,22.05,16.48Z" fill="#3D3D3D"/></svg>
