<svg width="80" height="80" viewBox="0 0 80 80" fill="none" xmlns="http://www.w3.org/2000/svg">
<rect x="43" y="43" width="32" height="32" rx="16" fill="#0060DF"/>
<path fill-rule="evenodd" clip-rule="evenodd" d="M61.4271 34.4882H64.1484C66.3137 34.4882 68.3902 35.3461 69.9213 36.8732C71.4524 38.4003 72.3125 40.4714 72.3125 42.6311V42.758C68.6891 39.7846 64.053 38 59 38C47.402 38 38 47.402 38 59C38 67.3945 42.9255 74.6387 50.0441 78H15.1641C12.9988 78 10.9223 77.1421 9.3912 75.615C7.86014 74.0879 7 72.0168 7 69.8571V42.6311C7 40.4714 7.86014 38.4003 9.3912 36.8732C10.9223 35.3461 12.9988 34.4882 15.1641 34.4882H17.8854V23.7143C17.8854 17.9553 20.1791 12.4322 24.2619 8.35997C28.3448 4.28775 33.8823 2 39.6562 2C45.4302 2 50.9677 4.28775 55.0506 8.35997C59.1334 12.4322 61.4271 17.9553 61.4271 23.7143V34.4882ZM31.9591 16.0371C29.9177 18.0732 28.7708 20.8348 28.7708 23.7143V34.4882H50.5417V23.7143C50.5417 20.8348 49.3948 18.0732 47.3534 16.0371C45.312 14.001 42.5432 12.8571 39.6562 12.8571C36.7693 12.8571 34.0005 14.001 31.9591 16.0371Z" fill="url(#paint0_radial)"/>
<path d="M58 51.9997L58 63.5857L53.707 59.2927C53.3146 58.9138 52.6909 58.9192 52.3052 59.3049C51.9195 59.6906 51.914 60.3143 52.293 60.7067L58.293 66.7067C58.6835 67.0971 59.3165 67.0971 59.707 66.7067L65.707 60.7067C66.086 60.3143 66.0806 59.6906 65.6948 59.3049C65.3091 58.9192 64.6854 58.9138 64.293 59.2927L60 63.5857L60 51.9997C60 51.4474 59.5523 50.9997 59 50.9997C58.4477 50.9997 58 51.4474 58 51.9997Z" fill="white"/>
<defs>
<radialGradient id="paint0_radial" cx="0" cy="0" r="1" gradientUnits="userSpaceOnUse" gradientTransform="translate(72.3125 2) rotate(130.675) scale(100.208 99.0685)">
<stop stop-color="#0060DF"/>
<stop offset="1" stop-color="#3FE1B0"/>
</radialGradient>
</defs>
</svg>
