<svg width="120" height="120" viewBox="0 0 80 80" fill="none" xmlns="http://www.w3.org/2000/svg">
<path fill-rule="evenodd" clip-rule="evenodd" d="M66.4645 6.46473C67.4021 5.52705 68.6739 5.00027 70 5.00027C71.3261 5.00027 72.5979 5.52705 73.5355 6.46473C74.4732 7.4024 75 8.67416 75 10.0002V30.0001C75 31.3262 74.4732 32.5979 73.5355 33.5356C72.5979 34.4733 71.3261 35 70 35H68.8228C65.6622 33.0956 61.959 32 58 32C54.3577 32 50.9319 32.9273 47.946 34.5587C47.3995 34.3124 46.8965 33.9676 46.4645 33.5356C45.5268 32.5979 45 31.3262 45 30.0001C45 28.674 45.5268 27.4022 46.4645 26.4646C47.4021 25.5269 48.6739 25.0001 50 25.0001H59.835C57.5451 21.8941 54.5565 19.3706 51.1107 17.6334C47.665 15.8962 43.8589 14.9942 40 15.0002C34.4335 15.0061 29.0294 16.876 24.6496 20.3115C20.2698 23.747 17.1666 28.5502 15.835 33.955C15.6887 34.6051 15.414 35.2194 15.0269 35.7618C14.6398 36.3042 14.1482 36.7638 13.581 37.1135C13.0138 37.4632 12.3824 37.696 11.7239 37.7982C11.0654 37.9004 10.3932 37.8699 9.74665 37.7086C9.10012 37.5473 8.49235 37.2584 7.95906 36.8589C7.42577 36.4594 6.97772 35.9573 6.64125 35.3821C6.30477 34.807 6.08665 34.1704 5.99972 33.5097C5.91278 32.8491 5.95877 32.1777 6.135 31.5351C7.60705 25.4786 10.6814 19.9297 15.0358 15.4701C19.3901 11.0105 24.8641 7.80456 30.8837 6.18832C36.9034 4.57208 43.247 4.6051 49.2495 6.28392C55.252 7.96274 60.6923 11.2255 65 15.7302V10.0002C65 8.67416 65.5268 7.4024 66.4645 6.46473ZM40.7554 64.9876C40.504 64.9954 40.2522 64.9995 40 64.9998C36.1411 65.0059 32.335 64.1038 28.8893 62.3666C25.4435 60.6295 22.4549 58.1059 20.165 54.9999H30C31.3261 54.9999 32.5979 54.4731 33.5355 53.5354C34.4732 52.5978 35 51.326 35 49.9999C35 48.6739 34.4732 47.4021 33.5355 46.4644C32.5979 45.5267 31.3261 45 30 45H10C8.67392 45 7.40215 45.5267 6.46447 46.4644C5.52678 47.4021 5 48.6739 5 49.9999V69.9998C5 71.3258 5.52678 72.5976 6.46447 73.5353C7.40215 74.4729 8.67392 74.9997 10 74.9997C11.3261 74.9997 12.5979 74.4729 13.5355 73.5353C14.4732 72.5976 15 71.3258 15 69.9998V64.2698C19.3077 68.7745 24.748 72.0373 30.7505 73.7161C36.753 75.3949 43.0966 75.4279 49.1163 73.8117C49.9743 73.5813 50.8213 73.3186 51.6555 73.0246C47.1925 71.6119 43.3746 68.7483 40.7554 64.9876Z" fill="url(#paint0_radial_89:4436)"/>
<rect x="42" y="37" width="32" height="31.9318" rx="15.9659" fill="#0060DF"/>
<path d="M64.6929 57.0119L59.7399 47.1059C59.5739 46.7736 59.3185 46.4941 59.0025 46.2988C58.6866 46.1035 58.3224 46 57.9509 46C57.5795 46 57.2153 46.1035 56.8993 46.2988C56.5834 46.4941 56.328 46.7736 56.1619 47.1059L51.2089 57.0159C51.0575 57.3206 50.9863 57.659 51.0022 57.999C51.018 58.3389 51.1203 58.6692 51.2995 58.9586C51.4786 59.2479 51.7286 59.4868 52.0258 59.6526C52.323 59.8183 52.6576 59.9055 52.9979 59.9059H62.9029C63.2439 59.906 63.5792 59.819 63.8771 59.6531C64.1749 59.4872 64.4255 59.2479 64.6048 58.9579C64.7842 58.668 64.8864 58.337 64.9018 57.9964C64.9172 57.6557 64.8453 57.3169 64.6929 57.0119ZM56.9509 49.9059C56.9509 49.6406 57.0563 49.3863 57.2438 49.1988C57.4314 49.0112 57.6857 48.9059 57.9509 48.9059C58.2162 48.9059 58.4705 49.0112 58.658 49.1988C58.8456 49.3863 58.9509 49.6406 58.9509 49.9059V53.9059C58.9509 54.1711 58.8456 54.4254 58.658 54.613C58.4705 54.8005 58.2162 54.9059 57.9509 54.9059C57.6857 54.9059 57.4314 54.8005 57.2438 54.613C57.0563 54.4254 56.9509 54.1711 56.9509 53.9059V49.9059ZM57.9509 58.1559C57.7037 58.1559 57.462 58.0826 57.2565 57.9452C57.0509 57.8078 56.8907 57.6126 56.7961 57.3842C56.7015 57.1558 56.6767 56.9045 56.725 56.662C56.7732 56.4195 56.8922 56.1968 57.0671 56.022C57.2419 55.8472 57.4646 55.7281 57.7071 55.6799C57.9496 55.6317 58.2009 55.6564 58.4293 55.751C58.6577 55.8456 58.8529 56.0058 58.9903 56.2114C59.1276 56.417 59.2009 56.6586 59.2009 56.9059C59.2009 57.2374 59.0692 57.5553 58.8348 57.7897C58.6004 58.0242 58.2825 58.1559 57.9509 58.1559Z" fill="white"/>
<defs>
<radialGradient id="paint0_radial_89:4436" cx="0" cy="0" r="1" gradientUnits="userSpaceOnUse" gradientTransform="translate(75 5) rotate(135) scale(98.9949)">
<stop stop-color="#9D62FC"/>
<stop offset="1" stop-color="#FD3296"/>
</radialGradient>
</defs>
</svg>
