<svg width="24" height="24" viewBox="0 0 24 24" fill="none" xmlns="http://www.w3.org/2000/svg">
<path d="M12.707 7.293C12.5195 7.10553 12.2652 7.00021 12 7.00021C11.7348 7.00021 11.4805 7.10553 11.293 7.293L6.293 12.293C6.11084 12.4816 6.01005 12.7342 6.01233 12.9964C6.01461 13.2586 6.11977 13.5094 6.30518 13.6948C6.49059 13.8802 6.7414 13.9854 7.0036 13.9877C7.2658 13.99 7.5184 13.8892 7.707 13.707L11 10.414L11 19C11 19.2652 11.1054 19.5196 11.2929 19.7071C11.4804 19.8946 11.7348 20 12 20C12.2652 20 12.5196 19.8946 12.7071 19.7071C12.8946 19.5196 13 19.2652 13 19L13 10.414L16.293 13.707C16.4816 13.8892 16.7342 13.99 16.9964 13.9877C17.2586 13.9854 17.5094 13.8802 17.6948 13.6948C17.8802 13.5094 17.9854 13.2586 17.9877 12.9964C17.99 12.7342 17.8892 12.4816 17.707 12.293L12.707 7.293ZM7 6L17 6C17.2652 6 17.5196 5.89464 17.7071 5.70711C17.8946 5.51957 18 5.26522 18 5C18 4.73478 17.8946 4.48043 17.7071 4.29289C17.5196 4.10536 17.2652 4 17 4L7 4C6.73478 4 6.48043 4.10536 6.29289 4.29289C6.10536 4.48043 6 4.73478 6 5C6 5.26522 6.10536 5.51957 6.29289 5.70711C6.48043 5.89464 6.73478 6 7 6Z" fill="#FF7139"/>
</svg>
