<svg xmlns="http://www.w3.org/2000/svg" viewBox="0 0 13.9 13.91"><path d="M18.69,16l-5-9.9A2,2,0,0,0,12,5a2,2,0,0,0-1,.3,1.93,1.93,0,0,0-.74.81L5.21,16A2,2,0,0,0,5.3,18a2,2,0,0,0,1.7.95h9.9a2,2,0,0,0,1-.26A1.91,1.91,0,0,0,18.6,18a1.94,1.94,0,0,0,.3-1A1.91,1.91,0,0,0,18.69,16ZM11,8.91a1,1,0,0,1,.29-.71A1,1,0,0,1,12,7.91a1,1,0,0,1,1,1v4a1,1,0,0,1-.29.7,1,1,0,0,1-.71.3,1,1,0,0,1-1-1Zm1,8.25a1.27,1.27,0,0,1-.69-.21,1.22,1.22,0,0,1-.46-.57A1.21,1.21,0,0,1,11.07,15a1.25,1.25,0,0,1,.64-.34,1.27,1.27,0,0,1,.72.07,1.33,1.33,0,0,1,.56.46,1.25,1.25,0,0,1,.21.7,1.22,1.22,0,0,1-.37.88A1.26,1.26,0,0,1,12,17.16Z" transform="translate(-5 -5)" fill="#ffffff"/></svg>
