<svg width="343" height="242" fill="none" xmlns="http://www.w3.org/2000/svg"><path d="M232.653 167.406V168.945C232.573 169.053 232.491 169.153 232.407 169.259C232.238 169.469 232.062 169.671 231.878 169.865C231.786 169.961 231.694 170.057 231.599 170.148C230.176 171.522 228.391 172.362 226.464 172.439L221.069 172.647L220.229 172.68V171.847L221.069 171.814L226.43 171.606C228.13 171.539 229.717 170.804 231.014 169.553C231.459 169.122 231.856 168.646 232.202 168.132C232.246 168.072 232.286 168.012 232.323 167.951C232.438 167.778 232.548 167.596 232.653 167.406Z" fill="#000"/><path d="M225.218 71.4387H156.184C151.969 71.4387 148.552 74.8293 148.552 79.0119V182.282C148.552 186.465 151.969 189.855 156.184 189.855H225.218C229.433 189.855 232.85 186.465 232.85 182.282V79.0119C232.85 74.8293 229.433 71.4387 225.218 71.4387Z" fill="#C5C8FB"/><path d="M213.424 63.1771H144.389C140.558 63.1771 137.451 66.2595 137.451 70.0618V173.332C137.451 177.134 140.558 180.217 144.389 180.217H213.424C217.256 180.217 220.362 177.134 220.362 173.332V70.0618C220.362 66.2595 217.256 63.1771 213.424 63.1771Z" fill="#fff" stroke="#000"/><path d="M241.336 79.857C242.092 79.857 242.705 79.2491 242.705 78.4994 242.705 77.7493 242.092 77.1414 241.336 77.1414 240.581 77.1414 239.968 77.7493 239.968 78.4994 239.968 79.2491 240.581 79.857 241.336 79.857zM120.252 35.2948C121.008 35.2948 121.621 34.687 121.621 33.9372 121.621 33.1873 121.008 32.5795 120.252 32.5795 119.497 32.5795 118.884 33.1873 118.884 33.9372 118.884 34.687 119.497 35.2948 120.252 35.2948zM98.6377 158.361C99.3934 158.361 100.006 157.753 100.006 157.003 100.006 156.254 99.3934 155.646 98.6377 155.646 97.8821 155.646 97.2695 156.254 97.2695 157.003 97.2695 157.753 97.8821 158.361 98.6377 158.361z" stroke="#000" stroke-miterlimit="10"/><path d="M110.799 97.8005V100.468M109.453 99.1332H112.142M265.248 129.035V131.703M263.904 130.368H266.592M137.253 46.4016V49.2773M135.803 47.8412H138.701" stroke="#000" stroke-miterlimit="10" stroke-linecap="round"/><path d="M198.14 96.9693C197.565 95.6182 196.602 94.465 195.37 93.654C194.139 92.843 192.694 92.4099 191.216 92.4089C189.982 92.4034 188.766 92.7005 187.676 93.274C186.586 93.8471 185.656 94.6788 184.968 95.695C184.521 96.358 184.186 97.0898 183.978 97.8605H173.389C173.314 97.5552 173.213 97.2571 173.087 96.9693C172.971 96.6881 172.831 96.4175 172.667 96.1614L176.444 92.413C177.589 93.0612 178.885 93.3996 180.203 93.3938C181.212 93.3979 182.212 93.1969 183.141 92.8024C184.505 92.2323 185.671 91.2753 186.49 90.0512C187.309 88.8268 187.746 87.39 187.746 85.9204C187.745 84.6984 187.442 83.4953 186.863 82.4168C186.284 81.3383 185.448 80.4168 184.427 79.7339C183.179 78.8984 181.708 78.4544 180.203 78.4595C179.214 78.4571 178.235 78.6485 177.321 79.0227C176.407 79.3969 175.577 79.9459 174.877 80.6392C174.178 81.3321 173.623 82.1556 173.245 83.0619C172.867 83.9679 172.672 84.9394 172.673 85.9204C172.67 86.9222 172.872 87.9139 173.267 88.8358C173.37 89.0729 173.485 89.3043 173.613 89.529L169.785 93.3273C168.669 92.7201 167.416 92.4041 166.143 92.4089C165.154 92.4068 164.175 92.5982 163.261 92.9721C162.347 93.3463 161.517 93.8957 160.817 94.5886C160.118 95.2819 159.563 96.1053 159.185 97.0113C158.806 97.9177 158.612 98.8891 158.613 99.8698C158.61 100.872 158.812 101.863 159.207 102.785C159.778 104.119 160.726 105.26 161.935 106.071C163.178 106.904 164.643 107.347 166.143 107.343C167.374 107.341 168.586 107.04 169.673 106.465C170.76 105.891 171.688 105.061 172.377 104.047C172.834 103.391 173.173 102.662 173.38 101.892H183.959C184.04 102.197 184.145 102.494 184.271 102.783C184.373 103.02 184.488 103.252 184.616 103.477L180.784 107.279C179.671 106.67 178.42 106.353 177.149 106.357C176.16 106.353 175.18 106.544 174.266 106.918C173.352 107.292 172.521 107.841 171.821 108.534C171.121 109.227 170.567 110.051 170.188 110.958C169.81 111.864 169.616 112.836 169.618 113.817C169.615 114.819 169.818 115.811 170.213 116.733C170.787 118.064 171.734 119.204 172.942 120.016C174.075 120.772 175.394 121.207 176.757 121.276C178.121 121.346 179.478 121.046 180.683 120.41C181.889 119.773 182.897 118.824 183.601 117.664C184.305 116.503 184.678 115.174 184.681 113.82C184.679 112.823 184.476 111.837 184.085 110.919C183.961 110.638 183.825 110.359 183.678 110.098L187.455 106.35H187.465C188.607 106.999 189.9 107.338 191.216 107.335C193.211 107.329 195.122 106.539 196.533 105.139C197.944 103.739 198.739 101.842 198.745 99.8616C198.738 98.8674 198.532 97.8843 198.14 96.9693ZM177.013 84.5814C177.277 83.9679 177.714 83.443 178.272 83.0698C178.75 82.749 179.301 82.5514 179.876 82.495C180.45 82.4389 181.03 82.5253 181.562 82.747C182.192 83.0089 182.729 83.4499 183.106 84.0141C183.483 84.5786 183.683 85.2413 183.682 85.9184C183.685 86.381 183.593 86.8395 183.411 87.2657C183.148 87.8809 182.711 88.4068 182.152 88.7793C181.578 89.1686 180.898 89.3752 180.203 89.3707C179.633 89.3704 179.072 89.2309 178.569 88.9652C178.067 88.6994 177.638 88.3153 177.319 87.8464C177.002 87.369 176.808 86.8213 176.755 86.2519C176.701 85.6826 176.79 85.1087 177.013 84.5814ZM169.347 101.215C169.104 101.788 168.709 102.285 168.204 102.654C167.699 103.022 167.103 103.248 166.479 103.308C165.855 103.367 165.226 103.258 164.66 102.992C164.094 102.726 163.61 102.313 163.261 101.796C162.945 101.319 162.751 100.772 162.698 100.203C162.644 99.6337 162.732 99.0602 162.955 98.5332C163.221 97.9204 163.658 97.3958 164.214 97.0213C164.692 96.7005 165.244 96.5032 165.818 96.4468C166.393 96.3903 166.972 96.4771 167.504 96.6988C168.134 96.9604 168.671 97.4013 169.048 97.9659C169.425 98.5301 169.626 99.1927 169.624 99.8698C169.625 100.333 169.531 100.792 169.347 101.217V101.215ZM180.345 115.167C180.081 115.781 179.643 116.306 179.086 116.681C178.513 117.065 177.837 117.27 177.145 117.27C176.683 117.269 176.225 117.178 175.798 117.001C175.176 116.738 174.643 116.305 174.262 115.752C173.846 115.136 173.641 114.403 173.678 113.663C173.714 112.922 173.991 112.213 174.465 111.641C174.94 111.068 175.589 110.663 176.314 110.485C177.039 110.307 177.803 110.366 178.492 110.652C179.114 110.914 179.647 111.347 180.026 111.902C180.345 112.378 180.541 112.925 180.596 113.494C180.65 114.063 180.563 114.637 180.341 115.165L180.345 115.167ZM194.405 101.215C194.141 101.829 193.704 102.355 193.146 102.729C192.573 103.113 191.897 103.319 191.205 103.318C190.635 103.319 190.075 103.18 189.572 102.915C189.069 102.649 188.639 102.265 188.322 101.796C188.003 101.32 187.808 100.773 187.753 100.203C187.699 99.634 187.788 99.0602 188.011 98.5332C188.275 97.9194 188.713 97.3944 189.27 97.0213C189.748 96.7005 190.3 96.5032 190.874 96.4468C191.449 96.3903 192.028 96.4771 192.56 96.6988C193.19 96.9611 193.727 97.402 194.104 97.9662C194.482 98.5304 194.682 99.1927 194.682 99.8698C194.682 100.333 194.587 100.792 194.403 101.217L194.405 101.215Z" fill="#000"/><path d="M190.171 142.158H167.297C162.313 142.158 158.273 146.167 158.273 151.112C158.273 156.057 162.313 160.066 167.297 160.066H190.171C195.154 160.066 199.194 156.057 199.194 151.112C199.194 146.167 195.154 142.158 190.171 142.158Z" fill="#C4C4C4" stroke="#000"/><path d="M167.434 159.858C172.36 159.858 176.353 155.896 176.353 151.008C176.353 146.12 172.36 142.158 167.434 142.158C162.508 142.158 158.515 146.12 158.515 151.008C158.515 155.896 162.508 159.858 167.434 159.858Z" fill="#fff" stroke="#000"/><path d="M96.3207 211.511H145.766M73 216.667H122.445" stroke="#000" stroke-miterlimit="10"/><path d="M146.658 207.571H102.283C102.657 205.48 103.762 203.587 105.403 202.222C107.043 200.858 109.115 200.111 111.256 200.11C111.373 200.11 111.491 200.11 111.604 200.11C112.869 197.88 114.768 196.069 117.063 194.902C119.359 193.736 121.95 193.265 124.513 193.55C127.076 193.835 129.498 194.862 131.476 196.503C133.455 198.144 134.903 200.327 135.641 202.78C136.579 201.922 137.748 201.353 139.007 201.144C140.265 200.935 141.557 201.094 142.726 201.602C143.895 202.11 144.889 202.945 145.587 204.005C146.285 205.064 146.657 206.303 146.658 207.569V207.571Z" fill="#A883F8"/><path d="M134.249 211.511H85.9158C86.3257 209.234 87.5298 207.173 89.3173 205.688C91.1048 204.203 93.3617 203.39 95.6928 203.39C95.8208 203.39 95.9488 203.39 96.0747 203.39C97.4525 200.962 99.5198 198.991 102.019 197.721C104.518 196.45 107.339 195.938 110.129 196.247C112.92 196.557 115.557 197.674 117.712 199.46C119.867 201.246 121.445 203.621 122.249 206.291C123.271 205.356 124.545 204.737 125.916 204.509C127.287 204.281 128.695 204.455 129.967 205.009C131.241 205.562 132.323 206.472 133.084 207.626C133.844 208.781 134.249 210.13 134.249 211.509V211.511Z" stroke="#000" stroke-linecap="round" stroke-linejoin="round"/><path d="M246.727 38.7368H205.792C206.473 34.8983 209.917 32.002 214.079 32.002 214.187 32.002 214.294 32.002 214.402 32.002 216.483 28.4079 220.429 26.0001 224.95 26.0001 230.439 26.0001 235.067 29.5594 236.538 34.4098 237.614 33.4328 239.049 32.8395 240.628 32.8395 244 32.8395 246.727 35.4915 246.727 38.7368zM269.275 49.0634H243.951C244.381 46.5885 246.527 44.696 249.066 44.696 249.138 44.696 249.209 44.696 249.281 44.696 250.569 42.3668 253.001 40.8018 255.827 40.8018 259.225 40.8018 262.086 43.0946 263.016 46.261 263.696 45.6423 264.59 45.2419 265.556 45.2419 267.594 45.2783 269.275 46.9889 269.275 49.0634z" fill="#C5C8FB"/></svg>