<svg width="80" height="80" viewBox="0 0 80 80" fill="none" xmlns="http://www.w3.org/2000/svg">
<path d="M71.5106 52.8564C72.7783 52.8564 73.8061 51.8384 73.8061 50.5825C73.8061 49.3267 72.7783 48.3086 71.5106 48.3086C70.2428 48.3086 69.2151 49.3267 69.2151 50.5825C69.2151 51.8384 70.2428 52.8564 71.5106 52.8564Z" fill="#A77FFA"/>
<path d="M75.9762 49.8939C75.9564 49.8775 75.9335 49.8652 75.9088 49.8578C75.8842 49.8504 75.8583 49.8479 75.8326 49.8506C75.8251 49.8517 75.8177 49.8532 75.8104 49.8553L73.8648 50.312L73.8101 50.0818C73.6758 49.5198 73.3387 49.0259 72.8625 48.693C72.3862 48.3601 71.8036 48.211 71.2241 48.2738C71.128 48.2854 71.0327 48.3022 70.9385 48.3243C70.6327 48.3952 70.3443 48.5253 70.0896 48.7072C69.8348 48.889 69.6189 49.119 69.4543 49.3838C69.2897 49.6486 69.1796 49.943 69.1304 50.2502C69.0811 50.5574 69.0937 50.8712 69.1674 51.1735L69.2237 51.4038L67.6035 51.7842L67.1044 50.2963C67.0901 50.2547 67.0621 50.219 67.025 50.195C66.9878 50.1713 66.9434 50.1614 66.8996 50.1666L66.879 50.1705L66.026 50.3703C65.9796 50.3814 65.9392 50.4095 65.9125 50.4489C65.8853 50.4866 65.8731 50.5331 65.8784 50.5793C65.8777 50.5871 65.8777 50.595 65.8784 50.6028C65.8897 50.6488 65.9181 50.689 65.9578 50.7152C65.996 50.7424 66.0429 50.7544 66.0895 50.749H66.1142L66.7941 50.5919L66.8624 50.7962C66.9544 51.0689 68.4081 55.381 68.6033 55.9587C68.6127 55.9878 68.6199 56.0082 68.6231 56.0169C68.6262 56.0256 68.6231 56.0169 68.6231 56.0216C68.7532 56.3722 69.0179 56.6575 69.3595 56.8155L69.5737 56.9145L69.4745 57.1284C69.3929 57.3015 69.3605 57.4933 69.3808 57.6833C69.4132 57.9596 69.5519 58.213 69.7681 58.3908C69.8767 58.4822 70.0032 58.5505 70.1399 58.591C70.2765 58.6315 70.42 58.6436 70.5615 58.6265C70.6072 58.6215 70.6525 58.6139 70.6973 58.6037C70.9563 58.5437 71.183 58.3891 71.332 58.1707C71.4773 57.9598 71.5419 57.7044 71.5137 57.4507C71.4947 57.2863 71.4368 57.1288 71.3447 56.9908L71.159 56.7102L74.1172 56.0146L74.0782 56.3487C74.0691 56.4294 74.0691 56.5108 74.0782 56.5915C74.1033 56.7992 74.1898 56.9949 74.327 57.1539C74.4641 57.3128 74.6456 57.4282 74.8488 57.4851C75.0519 57.5421 75.2675 57.5382 75.4685 57.4742C75.6694 57.41 75.8466 57.2884 75.978 57.1245C76.1093 56.9608 76.1886 56.7621 76.2062 56.5537C76.2238 56.3453 76.1786 56.1365 76.0766 55.9534C75.9744 55.7703 75.82 55.6213 75.6326 55.525C75.4451 55.4287 75.2332 55.3896 75.0233 55.4125C74.9803 55.4173 74.9376 55.4246 74.8955 55.4346L70.199 56.5318C70.1576 56.5405 70.1196 56.5475 70.0751 56.5523C69.8941 56.5723 69.7109 56.545 69.5438 56.473C69.3766 56.401 69.2316 56.2868 69.123 56.1419L68.9293 55.8708L75.8707 53.8075C75.91 53.7959 75.9445 53.7721 75.9692 53.7398C75.9938 53.7074 76.0075 53.6681 76.008 53.6274L76.0525 50.0463C76.0532 50.0383 76.0532 50.0301 76.0525 50.022C76.0493 49.9966 76.0409 49.9721 76.0278 49.95C76.0147 49.9281 75.9971 49.909 75.9762 49.8939ZM74.5781 56.0719C74.6539 55.9648 74.7594 55.8818 74.8818 55.8328C75.0043 55.7838 75.1383 55.771 75.2679 55.7959C75.3975 55.8209 75.5171 55.8825 75.6121 55.9734C75.7071 56.0642 75.7735 56.1804 75.8032 56.3077C75.8095 56.3337 75.8142 56.36 75.8175 56.3864C75.8354 56.5506 75.7922 56.7156 75.6963 56.8506C75.6004 56.9856 75.4582 57.0817 75.2963 57.1205C75.27 57.1267 75.2435 57.1314 75.2169 57.1347C75.0511 57.1523 74.8845 57.1096 74.7482 57.0146C74.6119 56.9196 74.515 56.7788 74.4758 56.6183C74.4696 56.5923 74.4648 56.5661 74.4615 56.5397C74.4414 56.3749 74.483 56.2085 74.5781 56.0719ZM69.8862 57.1723C69.9824 57.0359 70.1259 56.9394 70.2893 56.9012C70.3156 56.8957 70.3434 56.891 70.3687 56.8879C70.5346 56.8691 70.7016 56.9113 70.8381 57.0064C70.9746 57.1017 71.071 57.2433 71.109 57.4043C71.1158 57.4301 71.1208 57.4564 71.1241 57.4829C71.1425 57.6467 71.1 57.8118 71.0045 57.9469C70.909 58.082 70.7671 58.1781 70.6052 58.217C70.5782 58.2225 70.5505 58.2272 70.5258 58.2304C70.3602 58.2485 70.1934 58.206 70.057 58.1109C69.9207 58.0158 69.8242 57.8747 69.7855 57.7139C69.7793 57.6881 69.7745 57.6618 69.7712 57.6353C69.7526 57.4729 69.7934 57.3092 69.8862 57.1739V57.1723ZM69.8521 49.4882C70.1317 49.0891 70.5506 48.8065 71.0281 48.6952C71.1065 48.6768 71.186 48.6629 71.2662 48.6535C71.7514 48.6005 72.2394 48.7249 72.6386 49.0032C73.0379 49.2815 73.3207 49.6947 73.4339 50.1651C73.4523 50.2428 73.466 50.3215 73.4752 50.4009C73.5283 50.8812 73.4028 51.3641 73.122 51.7593C72.8413 52.1543 72.4245 52.4343 71.9501 52.5467C71.8716 52.5649 71.7922 52.5785 71.7121 52.5875C71.2275 52.6404 70.7399 52.5162 70.3413 52.2381C69.9425 51.96 69.66 51.5475 69.5466 51.0776C69.5277 50.9999 69.5137 50.9212 69.5047 50.8418C69.4505 50.3643 69.5741 49.8836 69.8521 49.4899V49.4882ZM75.6216 53.3092V53.482L68.8572 55.4926L67.7297 52.1497L69.392 51.7567L69.4831 51.8966C69.724 52.2668 70.064 52.5631 70.4652 52.7525C70.8665 52.9418 71.3131 53.0168 71.7549 52.9687C72.3512 52.9052 72.9009 52.6201 73.2935 52.1709C73.6129 51.8053 73.8122 51.3517 73.8648 50.8709L73.883 50.7043L75.6637 50.2876L75.6216 53.3092Z" fill="white"/>
<path d="M72.2167 50.0293C72.222 50.0718 72.2121 50.1149 72.1889 50.1511L71.5383 51.1965C71.523 51.2212 71.5021 51.2421 71.4774 51.2577C71.4527 51.2732 71.4246 51.2829 71.3955 51.286C71.3524 51.2915 71.309 51.2818 71.2724 51.2586L70.7449 50.9356C70.7195 50.9204 70.6983 50.8996 70.6824 50.8749C70.6666 50.8502 70.6567 50.8223 70.6536 50.7933C70.6487 50.751 70.6584 50.7082 70.6814 50.6722C70.6968 50.6475 70.7178 50.6266 70.7428 50.611C70.7677 50.5956 70.7958 50.5858 70.825 50.5826C70.8676 50.5778 70.9108 50.5875 70.9471 50.6101L71.3106 50.8318L71.862 49.9499C71.8771 49.925 71.898 49.9039 71.9228 49.8883C71.9476 49.8729 71.9756 49.8632 72.0049 49.8603C72.0478 49.8551 72.0913 49.8648 72.1278 49.8878C72.1527 49.903 72.1737 49.9237 72.189 49.9482C72.2045 49.9728 72.214 50.0005 72.2167 50.0293Z" fill="black"/>
<path d="M74.5075 29.2204C74.4995 29.5933 74.4247 29.9619 74.2868 30.309C74.131 30.7105 73.9347 31.0953 73.7005 31.4574C73.2101 32.2325 72.5397 33.0295 71.8056 33.7967C70.3377 35.331 68.6142 36.7536 67.5764 37.6316C67.2805 37.8823 67.04 38.089 66.8805 38.2384C65.7054 39.3341 64.539 40.4605 63.4471 41.6347C63.4209 41.6638 63.3948 41.6922 63.3678 41.7204C63.2884 41.799 63.2171 41.8832 63.1432 41.9649C63.0448 42.0722 62.9475 42.1807 62.8512 42.2903C62.833 42.3099 62.8148 42.3304 62.7973 42.3508C62.718 42.4397 62.6386 42.5284 62.5592 42.6173C62.4698 42.722 62.3807 42.8269 62.2918 42.9316L62.2387 42.9945C62.1648 43.0826 62.0911 43.1698 62.0188 43.2587C61.972 43.3152 61.9253 43.3711 61.88 43.4276C61.8348 43.4843 61.776 43.5549 61.7213 43.6194C61.6235 43.7415 61.5272 43.8639 61.4325 43.9865C61.3952 44.0336 61.3586 44.0816 61.323 44.1287C61.1389 44.3682 60.9599 44.6106 60.7858 44.8559C60.7112 44.9606 60.6382 45.0655 60.5667 45.1702L60.4533 45.3361L60.4431 45.3518C60.4041 45.4091 60.3637 45.4658 60.3288 45.5231C60.2494 45.6403 60.1701 45.7589 60.0986 45.8769C60.0566 45.9429 60.0153 46.0089 59.9741 46.0757C59.9399 46.1299 59.9066 46.1842 59.874 46.2392C59.8415 46.2943 59.817 46.3327 59.7884 46.3807L59.6979 46.5379C59.6487 46.6212 59.6011 46.7045 59.5536 46.7895C59.5297 46.8303 59.5068 46.872 59.4837 46.9136C59.4504 46.9733 59.417 47.0339 59.3845 47.0944C59.3416 47.173 59.3004 47.2517 59.2591 47.3303C59.2179 47.4088 59.1727 47.4976 59.1298 47.5817C59.087 47.6659 59.0504 47.7389 59.0139 47.8175C59.002 47.842 58.9902 47.8655 58.9791 47.8891C58.9592 47.9299 58.9402 47.9676 58.9211 48.0117C58.9068 48.0408 58.8934 48.0699 58.8799 48.099C58.8664 48.128 58.8552 48.1524 58.8425 48.1776C58.8299 48.2027 58.8283 48.2106 58.8203 48.2271C58.7823 48.3109 58.7449 48.395 58.7084 48.4793L58.6941 48.5124C58.6831 48.5375 58.672 48.5627 58.6616 48.5909V47.8065L58.7235 47.6784C58.7553 47.6124 58.787 47.5471 58.8203 47.4819L58.8791 47.3656C58.9116 47.3012 58.9449 47.2367 58.9791 47.173C58.9941 47.1447 59.0092 47.1164 59.0235 47.0881C59.0647 47.0095 59.1029 46.931 59.148 46.8578C59.1933 46.7847 59.2409 46.6896 59.2885 46.6055C59.3361 46.5214 59.3837 46.4389 59.4329 46.3556C59.4694 46.2935 59.506 46.2314 59.5432 46.1693C59.6179 46.0451 59.6931 45.9224 59.7701 45.7999L59.8868 45.6167C59.9383 45.538 59.9916 45.454 60.0455 45.373L60.1836 45.1663L60.2073 45.1317C60.2613 45.0531 60.3161 44.9745 60.3716 44.8959L60.5391 44.6601C60.6517 44.503 60.7665 44.3457 60.8834 44.1885C60.9893 44.0481 61.095 43.9081 61.2008 43.7688L61.2365 43.7232L61.4182 43.4928C61.5404 43.3394 61.6641 43.1871 61.7895 43.0362C61.8522 42.9576 61.9149 42.8845 61.9784 42.8099L62.0856 42.6833C62.153 42.6047 62.2212 42.5261 62.2894 42.4475C62.4101 42.3075 62.5322 42.1688 62.656 42.0309C62.7359 41.9402 62.8169 41.8507 62.8988 41.7621C62.9837 41.6677 63.0703 41.5742 63.1567 41.4806C63.2234 41.4084 63.2908 41.336 63.359 41.2638C63.386 41.2362 63.4115 41.2087 63.4383 41.1805C64.4699 40.0878 65.5602 39.0386 66.6536 38.0175C66.8741 37.8116 67.2233 37.5175 67.6558 37.1529C68.0882 36.7882 68.6095 36.3417 69.1649 35.8591C70.2623 34.897 71.4954 33.7447 72.465 32.5916C73.1117 31.8229 73.6402 31.0534 73.9337 30.3484C74.0936 29.9925 74.1821 29.609 74.194 29.2196C74.1957 29.0025 74.155 28.7872 74.0742 28.5853C73.9863 28.3759 73.8562 28.1866 73.6917 28.0289C73.4883 27.8411 73.2401 27.7075 72.9704 27.6405C72.635 27.5534 72.2889 27.5126 71.9422 27.5195C70.9645 27.5195 69.779 27.7719 68.7016 28.0854C67.8126 28.3458 66.9386 28.6533 66.083 29.0066C65.2221 29.3642 64.3319 29.7408 63.4448 30.1479L63.3654 30.1841L63.3543 30.1896C63.2416 30.2414 63.1289 30.2933 63.0162 30.3468C62.668 30.5103 62.3204 30.6793 61.9768 30.8537C61.8618 30.9119 61.7476 30.9701 61.6341 31.0298C61.5205 31.0895 61.4111 31.1462 61.3008 31.2058L61.2888 31.213C61.1777 31.2722 61.0669 31.3324 60.9563 31.3937C60.5652 31.6107 60.1811 31.8363 59.8074 32.0713L59.659 32.1648C59.4305 32.3111 59.2062 32.4609 58.9861 32.6145L58.8276 32.7269C58.7743 32.7653 58.7212 32.8055 58.6688 32.8424V32.4534C58.6949 32.4336 58.7212 32.4148 58.7482 32.3967L58.8276 32.3408C58.8807 32.3039 58.933 32.2678 58.9861 32.2325L59.0878 32.1648L59.2893 32.0312C59.8241 31.6798 60.3811 31.3506 60.9508 31.0385L61.1286 30.9418L61.2873 30.8562C61.3984 30.7974 61.5095 30.7395 61.6206 30.6824L61.9379 30.5252C62.0562 30.4655 62.176 30.4057 62.2949 30.3476C62.6521 30.1731 63.0092 30.0033 63.3717 29.839L63.4511 29.8029C64.3001 29.417 65.1475 29.0585 65.9664 28.7182C66.8328 28.3603 67.7181 28.0489 68.6182 27.7851C69.7124 27.4708 70.9193 27.2074 71.9508 27.2066C72.3256 27.2004 72.6994 27.2453 73.0617 27.3403C73.3828 27.4217 73.6777 27.5825 73.9187 27.808C74.1111 27.9904 74.2634 28.2103 74.3662 28.4538C74.4691 28.6971 74.5201 28.959 74.5161 29.2227L74.5075 29.2204Z" fill="white"/>
<path d="M67.8653 53.581L66.8949 53.6188C66.2522 53.6447 65.6531 53.9222 65.1627 54.3946C64.6723 54.867 64.2954 55.5335 64.1082 56.3266C63.9849 56.8692 63.7604 57.3841 63.4464 57.8452C63.421 57.8821 63.3939 57.9191 63.3671 57.956C63.3369 57.9969 63.3059 58.0346 63.2742 58.0748C63.2107 58.1549 63.1441 58.2311 63.0743 58.3034C63.0393 58.3396 63.0044 58.3757 62.9687 58.4104C62.4308 58.9291 61.7555 59.2459 61.0271 59.275L58.987 59.3536L58.6697 59.3661V59.0518L58.987 59.0392L61.0144 58.9605C61.6571 58.9353 62.257 58.6579 62.7473 58.1855C62.9154 58.0228 63.066 57.8431 63.1964 57.6495C63.2131 57.6266 63.2281 57.6039 63.2424 57.5811C63.2869 57.5145 63.3289 57.4453 63.3686 57.3736C63.3964 57.3249 63.4225 57.2762 63.448 57.2265C63.605 56.9178 63.7236 56.5914 63.8011 56.2543C64.0002 55.4078 64.4041 54.6869 64.9428 54.1682C65.4587 53.6504 66.1512 53.3421 66.8845 53.3036L67.855 53.2651L67.8653 53.581Z" fill="white"/>
<path d="M63.3671 57.3762V57.9572C63.3369 57.998 63.3061 58.0357 63.2743 58.0758C63.2103 58.1549 63.1437 58.2312 63.0743 58.3045C63.0394 58.3408 63.0045 58.3769 62.9688 58.4114C62.4307 58.9302 61.7555 59.2469 61.0271 59.276L58.9871 59.3547L58.6697 59.3673V59.0528L58.9871 59.0402L61.0144 58.9616C61.6571 58.9365 62.2571 58.659 62.7474 58.1866C62.9156 58.024 63.066 57.8443 63.1965 57.6505C63.2132 57.6278 63.2283 57.605 63.2426 57.5822C63.2859 57.5167 63.3274 57.4481 63.3671 57.3762Z" fill="white"/>
<path d="M23.7025 10.5818H5.78169C5.58405 10.5818 5.42383 10.7405 5.42383 10.9363V22.6156C5.42383 22.8115 5.58405 22.9702 5.78169 22.9702H23.7025C23.9 22.9702 24.0603 22.8115 24.0603 22.6156V10.9363C24.0603 10.7405 23.9 10.5818 23.7025 10.5818Z" stroke="white" stroke-width="0.5" stroke-miterlimit="10"/>
<path d="M5.54468 12.6453H24.1803" stroke="white" stroke-width="0.5" stroke-miterlimit="10"/>
<path d="M13.6379 14.8328H21.2394" stroke="white" stroke-width="0.5" stroke-miterlimit="10" stroke-linecap="round"/>
<path d="M13.6379 17.0181H21.2394" stroke="white" stroke-width="0.5" stroke-miterlimit="10" stroke-linecap="round"/>
<path d="M13.6379 19.2048H21.2394" stroke="white" stroke-width="0.5" stroke-miterlimit="10" stroke-linecap="round"/>
<path d="M11.7396 17.641C12.0195 16.466 11.2849 15.2887 10.0988 15.0113C8.91271 14.734 7.72422 15.4618 7.44428 16.6367C7.16432 17.8117 7.89891 18.989 9.08504 19.2663C10.2712 19.5437 11.4596 18.8159 11.7396 17.641Z" fill="#A77FFA" stroke="white" stroke-width="0.5" stroke-miterlimit="10"/>
<path d="M9.20874 18.0952V16.2041L10.4759 17.1497L9.20874 18.0952Z" stroke="black" stroke-width="0.5" stroke-linejoin="round"/>
<path d="M27.4172 29.3511V29.7284C27.3649 29.6931 27.3117 29.6585 27.2585 29.6263C27.2054 29.5941 27.1529 29.5611 27.0998 29.5304C26.6931 29.2985 26.2593 29.1167 25.808 28.9888C24.8233 28.7043 23.7497 28.639 22.6341 28.639C21.728 28.639 20.7948 28.6823 19.8632 28.6823C19.2084 28.687 18.5538 28.6542 17.9026 28.584C17.0449 28.4857 16.3316 28.2656 15.7372 27.9474C15.1744 27.6474 14.6822 27.2326 14.293 26.7305C13.5385 25.7646 13.1655 24.5407 12.9211 23.2682L13.233 23.2092C13.4123 24.147 13.663 25.0446 14.0757 25.8141C14.4882 26.5836 15.058 27.229 15.8887 27.6706C16.4441 27.9678 17.1155 28.1776 17.9399 28.272C18.5789 28.3397 19.2214 28.3709 19.8641 28.3655C20.7862 28.3655 21.7184 28.3223 22.6349 28.3223C23.7616 28.3223 24.8654 28.3875 25.897 28.6847C26.314 28.8034 26.7172 28.9654 27.0998 29.168C27.1529 29.1963 27.2062 29.2253 27.2585 29.256C27.3109 29.2867 27.3649 29.3181 27.4172 29.3511Z" fill="white"/>
<path d="M60.5564 21.1516H34.4534C32.8596 21.1516 31.5676 22.4315 31.5676 24.0102V62.9914C31.5676 64.5702 32.8596 65.8501 34.4534 65.8501H60.5564C62.1502 65.8501 63.4422 64.5702 63.4422 62.9914V24.0102C63.4422 22.4315 62.1502 21.1516 60.5564 21.1516Z" fill="#C5C8FB"/>
<path d="M56.0985 18.0337H29.9955C28.5466 18.0337 27.3721 19.1972 27.3721 20.6324V59.6136C27.3721 61.0489 28.5466 62.2124 29.9955 62.2124H56.0985C57.5474 62.2124 58.7219 61.0489 58.7219 59.6136V20.6324C58.7219 19.1972 57.5474 18.0337 56.0985 18.0337Z" fill="white" stroke="black" stroke-width="0.5"/>
<path d="M66.6521 24.3293C66.9378 24.3293 67.1694 24.0998 67.1694 23.8168C67.1694 23.5337 66.9378 23.3042 66.6521 23.3042C66.3663 23.3042 66.1348 23.5337 66.1348 23.8168C66.1348 24.0998 66.3663 24.3293 66.6521 24.3293Z" stroke="white" stroke-width="0.5" stroke-miterlimit="10"/>
<path d="M20.8634 7.50787C21.1491 7.50787 21.3808 7.27842 21.3808 6.9954C21.3808 6.71235 21.1491 6.48291 20.8634 6.48291C20.5776 6.48291 20.3459 6.71235 20.3459 6.9954C20.3459 7.27842 20.5776 7.50787 20.8634 7.50787Z" stroke="white" stroke-width="0.5" stroke-miterlimit="10"/>
<path d="M12.6936 53.962C12.9793 53.962 13.211 53.7325 13.211 53.4495C13.211 53.1665 12.9793 52.937 12.6936 52.937C12.4079 52.937 12.1763 53.1665 12.1763 53.4495C12.1763 53.7325 12.4079 53.962 12.6936 53.962Z" stroke="white" stroke-width="0.5" stroke-miterlimit="10"/>
<path d="M17.2939 31.1021V32.1089" stroke="white" stroke-width="0.5" stroke-miterlimit="10" stroke-linecap="round"/>
<path d="M16.7825 31.606H17.7989" stroke="white" stroke-width="0.5" stroke-miterlimit="10" stroke-linecap="round"/>
<path d="M75.6936 42.8926V43.8995" stroke="white" stroke-width="0.5" stroke-miterlimit="10" stroke-linecap="round"/>
<path d="M75.1863 43.3953H76.2027" stroke="white" stroke-width="0.5" stroke-miterlimit="10" stroke-linecap="round"/>
<path d="M27.2957 11.7012V12.7867" stroke="white" stroke-width="0.5" stroke-miterlimit="10" stroke-linecap="round"/>
<path d="M26.748 12.2437H27.8439" stroke="white" stroke-width="0.5" stroke-miterlimit="10" stroke-linecap="round"/>
<path d="M50.3185 30.7889C50.101 30.2789 49.7367 29.8436 49.2709 29.5375C48.8053 29.2313 48.2589 29.0679 47.7 29.0675C47.2336 29.0654 46.7738 29.1775 46.3617 29.394C45.9497 29.6103 45.5979 29.9243 45.3378 30.3079C45.1687 30.5581 45.0421 30.8344 44.9633 31.1253H40.9594C40.9312 31.01 40.893 30.8975 40.8452 30.7889C40.8016 30.6827 40.7485 30.5806 40.6864 30.4839L42.1148 29.069C42.5475 29.3137 43.0375 29.4414 43.5359 29.4392C43.9176 29.4408 44.2957 29.3649 44.6468 29.216C45.1628 29.0008 45.6034 28.6396 45.9132 28.1775C46.223 27.7153 46.3883 27.173 46.3883 26.6183C46.3879 26.157 46.2731 25.7029 46.0543 25.2958C45.8354 24.8887 45.5192 24.5408 45.1331 24.283C44.6614 23.9677 44.1049 23.8001 43.5359 23.802C43.162 23.8011 42.7917 23.8734 42.4462 24.0146C42.1007 24.1558 41.7867 24.3631 41.5223 24.6248C41.2577 24.8863 41.0479 25.1972 40.905 25.5393C40.762 25.8813 40.6885 26.248 40.6888 26.6183C40.6876 26.9964 40.7641 27.3707 40.9134 27.7187C40.9522 27.8082 40.9959 27.8956 41.0443 27.9804L39.5969 29.4141C39.1748 29.1849 38.7009 29.0657 38.2195 29.0675C37.8458 29.0667 37.4755 29.1389 37.13 29.28C36.7844 29.4213 36.4703 29.6287 36.2059 29.8902C35.9415 30.1519 35.7317 30.4627 35.5886 30.8047C35.4456 31.1469 35.3722 31.5135 35.3726 31.8837C35.3714 32.2619 35.4477 32.6362 35.597 32.9842C35.813 33.4876 36.1713 33.9183 36.6285 34.2246C37.0984 34.5389 37.6526 34.7062 38.2195 34.7048C38.6852 34.704 39.1436 34.5903 39.5546 34.3733C39.9655 34.1565 40.3165 33.8431 40.5769 33.4605C40.7497 33.213 40.878 32.9378 40.9563 32.647H44.9562C44.987 32.762 45.0265 32.8744 45.0744 32.9834C45.1129 33.0729 45.1564 33.1604 45.2045 33.2452L43.7556 34.6804C43.3348 34.4506 42.8618 34.3308 42.3813 34.3323C42.0075 34.3311 41.6369 34.4031 41.2913 34.5442C40.9455 34.6853 40.6313 34.8926 40.3668 35.1543C40.1021 35.416 39.8923 35.7269 39.7494 36.069C39.6064 36.4113 39.5331 36.7781 39.5336 37.1485C39.5327 37.5267 39.6093 37.901 39.7588 38.249C39.9756 38.7516 40.3337 39.1818 40.7903 39.4885C41.219 39.7735 41.7177 39.9379 42.2332 39.964C42.7488 39.9901 43.2619 39.8771 43.7175 39.637C44.1734 39.3967 44.5547 39.0385 44.8208 38.6003C45.0871 38.1622 45.2282 37.6606 45.2292 37.1493C45.2284 36.7731 45.1518 36.4009 45.0038 36.0543C44.957 35.9483 44.9054 35.8429 44.8498 35.7447L46.2781 34.3299H46.2821C46.7137 34.5746 47.2026 34.7027 47.7 34.7017C48.4544 34.6992 49.1773 34.4011 49.7106 33.8726C50.2441 33.3441 50.5447 32.628 50.547 31.8806C50.5443 31.5054 50.4667 31.1343 50.3185 30.7889ZM42.3297 26.1128C42.4297 25.8813 42.595 25.6831 42.8058 25.5423C42.9867 25.4212 43.1951 25.3466 43.4123 25.3253C43.6295 25.3041 43.8487 25.3367 44.0499 25.4204C44.288 25.5193 44.4911 25.6857 44.6336 25.8987C44.7763 26.1118 44.852 26.3619 44.8514 26.6175C44.8527 26.7921 44.8179 26.9652 44.7491 27.1261C44.6496 27.3583 44.4842 27.5568 44.2729 27.6974C44.0558 27.8444 43.7987 27.9223 43.5359 27.9206C43.3205 27.9205 43.1084 27.8679 42.9183 27.7676C42.7282 27.6673 42.566 27.5223 42.4456 27.3453C42.3257 27.1651 42.2524 26.9583 42.2322 26.7434C42.212 26.5285 42.2455 26.3119 42.3297 26.1128ZM39.4311 32.3915C39.3392 32.6079 39.1898 32.7955 38.9989 32.9347C38.8079 33.0737 38.5826 33.1589 38.3467 33.1814C38.1108 33.2039 37.8731 33.1628 37.659 33.0623C37.4448 32.9618 37.262 32.8059 37.1301 32.6109C37.0104 32.4306 36.9372 32.2242 36.917 32.0094C36.8968 31.7946 36.9301 31.5781 37.0142 31.3792C37.1147 31.1479 37.2799 30.9499 37.4903 30.8085C37.6712 30.6874 37.8796 30.6129 38.0969 30.5916C38.3141 30.5703 38.5331 30.6031 38.7345 30.6868C38.9724 30.7855 39.1756 30.952 39.3182 31.1651C39.4608 31.378 39.5366 31.6281 39.5359 31.8837C39.5365 32.0586 39.5008 32.2317 39.4311 32.3923V32.3915ZM43.5898 37.6579C43.4897 37.8897 43.3244 38.088 43.1136 38.2294C42.8969 38.3744 42.6413 38.4518 42.3797 38.4517C42.2049 38.4516 42.0317 38.4171 41.8703 38.3503C41.6353 38.2511 41.4339 38.0875 41.2894 37.8788C41.1322 37.6462 41.0548 37.3697 41.0687 37.0902C41.0826 36.8107 41.1871 36.543 41.3666 36.3269C41.5461 36.1109 41.7913 35.9579 42.0654 35.8906C42.3397 35.8234 42.6286 35.8455 42.8892 35.9538C43.1243 36.0524 43.3257 36.2161 43.4691 36.4254C43.5898 36.6051 43.6638 36.8116 43.6845 37.0264C43.7052 37.2413 43.6722 37.4579 43.5882 37.6571L43.5898 37.6579ZM48.9061 32.3915C48.8061 32.6233 48.6408 32.8218 48.43 32.963C48.2133 33.108 47.9576 33.1856 47.6961 33.1854C47.4807 33.1856 47.2686 33.1333 47.0784 33.0332C46.8883 32.9328 46.7259 32.7878 46.6058 32.6109C46.4852 32.431 46.4115 32.2246 46.3909 32.0096C46.3705 31.7947 46.4039 31.5781 46.4884 31.3792C46.5883 31.1475 46.7536 30.9494 46.9644 30.8085C47.1453 30.6874 47.3537 30.6129 47.5709 30.5916C47.7882 30.5703 48.0074 30.6031 48.2086 30.6868C48.4465 30.7858 48.6496 30.9522 48.7923 31.1652C48.935 31.3781 49.0109 31.6281 49.0108 31.8837C49.0108 32.0586 48.9749 32.2317 48.9053 32.3923L48.9061 32.3915Z" fill="black"/>
<path d="M24.4854 38.1741H15.8281V46.7499H24.4854V38.1741Z" fill="#A77FFA"/>
<path d="M22.9502 37.1262H14.6123V45.3857H22.9502V37.1262Z" stroke="white" stroke-width="0.5" stroke-miterlimit="10"/>
<path d="M17.5273 41.3937L18.639 42.4949L20.307 40.2925" stroke="white" stroke-width="0.5" stroke-linecap="round" stroke-linejoin="round"/>
<path d="M47.3048 47.8459H38.6559C36.7715 47.8459 35.2439 49.3592 35.2439 51.2259C35.2439 53.0926 36.7715 54.6057 38.6559 54.6057H47.3048C49.1892 54.6057 50.7168 53.0926 50.7168 51.2259C50.7168 49.3592 49.1892 47.8459 47.3048 47.8459Z" fill="#49FFBA" stroke="black" stroke-width="0.5"/>
<path d="M47.402 54.5272C49.2643 54.5272 50.7742 53.0315 50.7742 51.1865C50.7742 49.3417 49.2643 47.8459 47.402 47.8459C45.5395 47.8459 44.0295 49.3417 44.0295 51.1865C44.0295 53.0315 45.5395 54.5272 47.402 54.5272Z" fill="white" stroke="black" stroke-width="0.5"/>
<path d="M11.8179 74.0239H30.5139" stroke="white" stroke-width="0.5" stroke-miterlimit="10"/>
<path d="M3 76H21.6959" stroke="white" stroke-width="0.5" stroke-miterlimit="10"/>
<path d="M30.8517 72.5374H14.0728C14.2145 71.748 14.6321 71.0334 15.2526 70.5184C15.8729 70.0035 16.6564 69.7213 17.4657 69.7211C17.5101 69.7211 17.5545 69.7211 17.5974 69.7211C18.0758 68.8793 18.7937 68.1957 19.6616 67.7553C20.5296 67.3149 21.5093 67.1374 22.4784 67.2449C23.4475 67.3524 24.3632 67.74 25.1114 68.3595C25.8597 68.979 26.4072 69.803 26.686 70.7288C27.0406 70.4049 27.4828 70.1902 27.9587 70.1113C28.4345 70.0323 28.9232 70.0925 29.3651 70.2841C29.807 70.4759 30.183 70.7912 30.447 71.1911C30.7109 71.5912 30.8516 72.0587 30.8517 72.5366V72.5374Z" fill="#A883F8"/>
<path d="M26.1555 74.0545H7.88013C8.03511 73.195 8.4904 72.4168 9.16627 71.8564C9.84216 71.296 10.6955 70.9889 11.5769 70.9891C11.6253 70.9891 11.6737 70.9891 11.7214 70.9891C12.2423 70.0726 13.024 69.3285 13.969 68.849C14.9139 68.3695 15.9805 68.1762 17.0356 68.2929C18.0908 68.4097 19.0878 68.8313 19.9028 69.5054C20.7177 70.1796 21.3143 71.0763 21.6185 72.0839C22.0048 71.7311 22.4866 71.4974 23.0048 71.4115C23.5232 71.3255 24.0555 71.3911 24.5368 71.6C25.0182 71.809 25.4275 72.1523 25.7151 72.5881C26.0025 73.0239 26.1555 73.5331 26.1555 74.0538V74.0545Z" stroke="white" stroke-width="0.5" stroke-linecap="round" stroke-linejoin="round"/>
<path d="M68.6879 8.80768H53.2097C53.4675 7.35879 54.7697 6.26553 56.3434 6.26553C56.3841 6.26553 56.4247 6.26553 56.4654 6.26553C57.2523 4.90885 58.7445 4 60.4536 4C62.5292 4 64.2791 5.34351 64.8353 7.17438C65.2423 6.80558 65.785 6.58166 66.3818 6.58166C67.6569 6.58166 68.6879 7.58271 68.6879 8.80768Z" fill="#6A3DE6"/>
<path d="M77.2161 12.7052H67.6406C67.8029 11.771 68.6144 11.0566 69.5746 11.0566C69.6018 11.0566 69.6288 11.0566 69.6558 11.0566C70.1427 10.1774 71.0623 9.58667 72.1309 9.58667C73.4157 9.58667 74.4976 10.4522 74.8492 11.6473C75.1062 11.4138 75.4444 11.2627 75.8095 11.2627C76.5804 11.2764 77.2161 11.9221 77.2161 12.7052Z" fill="#6A3DE6"/>
</svg>
