<svg width="80" height="80" viewBox="0 0 80 80" fill="none" xmlns="http://www.w3.org/2000/svg">
<path d="M75.2364 43.8869C75.1998 43.8869 75.1646 43.8724 75.1387 43.8465C75.1128 43.8206 75.0982 43.7854 75.0982 43.7487V42.4972C75.0965 42.4781 75.0988 42.4589 75.105 42.4407C75.1112 42.4226 75.121 42.4059 75.134 42.3918C75.147 42.3776 75.1627 42.3664 75.1802 42.3586C75.1978 42.3509 75.2167 42.3469 75.2359 42.3469C75.2551 42.3469 75.274 42.3509 75.2916 42.3586C75.3091 42.3664 75.3249 42.3776 75.3378 42.3918C75.3508 42.4059 75.3606 42.4226 75.3668 42.4407C75.373 42.4589 75.3753 42.4781 75.3736 42.4972V43.7487C75.3736 43.7852 75.3592 43.8202 75.3335 43.8461C75.3078 43.872 75.2729 43.8867 75.2364 43.8869Z" fill="white" stroke="white" stroke-width="0.238917" stroke-miterlimit="10"/>
<path d="M76.001 43.1226C76.001 43.1593 75.9864 43.1944 75.9605 43.2204C75.9345 43.2463 75.8994 43.2608 75.8627 43.2608H74.6112C74.5921 43.2625 74.5729 43.2602 74.5547 43.254C74.5366 43.2478 74.5199 43.238 74.5058 43.225C74.4917 43.2121 74.4804 43.1963 74.4726 43.1788C74.4649 43.1612 74.4609 43.1423 74.4609 43.1231C74.4609 43.1039 74.4649 43.085 74.4726 43.0675C74.4804 43.0499 74.4917 43.0341 74.5058 43.0212C74.5199 43.0082 74.5366 42.9984 74.5547 42.9922C74.5729 42.9861 74.5921 42.9837 74.6112 42.9854H75.8627C75.8992 42.9854 75.9342 42.9998 75.9601 43.0255C75.986 43.0512 76.0007 43.0861 76.001 43.1226Z" fill="white" stroke="white" stroke-width="0.238917" stroke-miterlimit="10"/>
<path d="M62.2501 21.0894C62.2134 21.0894 62.1783 21.0748 62.1524 21.0489C62.1264 21.023 62.1119 20.9878 62.1119 20.9511V19.6996C62.1102 19.6805 62.1125 19.6613 62.1187 19.6431C62.1248 19.625 62.1347 19.6083 62.1477 19.5942C62.1606 19.58 62.1764 19.5687 62.1939 19.561C62.2114 19.5533 62.2304 19.5493 62.2496 19.5493C62.2688 19.5493 62.2877 19.5533 62.3053 19.561C62.3228 19.5687 62.3386 19.58 62.3515 19.5942C62.3645 19.6083 62.3743 19.625 62.3805 19.6431C62.3866 19.6613 62.389 19.6805 62.3873 19.6996V20.9511C62.3874 20.9692 62.384 20.9872 62.3772 21.0039C62.3703 21.0207 62.3602 21.036 62.3475 21.0488C62.3347 21.0617 62.3196 21.0719 62.3029 21.0788C62.2861 21.0858 62.2682 21.0894 62.2501 21.0894Z" fill="white" stroke="white" stroke-width="0.238917" stroke-miterlimit="10"/>
<path d="M63.014 20.3249C63.014 20.3616 62.9995 20.3968 62.9735 20.4227C62.9476 20.4486 62.9124 20.4632 62.8758 20.4632H61.619C61.5999 20.4649 61.5807 20.4625 61.5625 20.4564C61.5444 20.4502 61.5277 20.4404 61.5136 20.4274C61.4995 20.4145 61.4882 20.3987 61.4805 20.3811C61.4727 20.3636 61.4688 20.3447 61.4688 20.3255C61.4688 20.3063 61.4727 20.2874 61.4805 20.2698C61.4882 20.2523 61.4995 20.2365 61.5136 20.2236C61.5277 20.2106 61.5444 20.2007 61.5625 20.1946C61.5807 20.1884 61.5999 20.1861 61.619 20.1878H62.8758C62.9123 20.1878 62.9473 20.2022 62.9732 20.2279C62.9991 20.2536 63.0138 20.2885 63.014 20.3249Z" fill="white" stroke="white" stroke-width="0.238917" stroke-miterlimit="10"/>
<path d="M16.9068 51.8234C17.2469 51.8234 17.5226 51.5477 17.5226 51.2076C17.5226 50.8675 17.2469 50.5918 16.9068 50.5918C16.5667 50.5918 16.291 50.8675 16.291 51.2076C16.291 51.5477 16.5667 51.8234 16.9068 51.8234Z" stroke="white" stroke-width="0.477833" stroke-miterlimit="10"/>
<path d="M25.0645 47.5998V52.6739L46.198 66.2208L67.3315 52.6739V45.2266" stroke="white" stroke-width="0.477833" stroke-linecap="round" stroke-linejoin="round"/>
<path d="M67.3315 38.5847V29.4658L46.198 15.9189L25.0645 29.4658V44.4632" stroke="white" stroke-width="0.477833" stroke-linecap="round" stroke-linejoin="round"/>
<path d="M46.4028 58.341L50.6894 56.2233C53.2953 54.9356 55.4868 52.9414 57.014 50.4681C58.5411 47.9949 59.3425 45.1422 59.3265 42.2355L59.2647 30.5466C59.2632 30.272 59.1799 30.0041 59.0254 29.7771C58.871 29.5501 58.6524 29.3742 58.3975 29.272L46.2216 24.377H46.0456L33.9189 29.404C33.6653 29.5091 33.4488 29.6874 33.297 29.916C33.1451 30.1447 33.0649 30.4135 33.0664 30.688L33.1282 42.378C33.1442 45.2847 33.9765 48.1284 35.5303 50.585C37.0841 53.0417 39.2967 55.0124 41.9161 56.2725L46.2258 58.3451L46.4028 58.341Z" fill="white" stroke="white" stroke-width="0.477833" stroke-linejoin="round"/>
<path d="M46.5711 54.8722L49.9937 53.1808C52.0746 52.1527 53.8247 50.5602 55.0441 48.5853C56.2635 46.6103 56.9032 44.3324 56.8902 42.0114L56.8368 31.9363L46.4266 27.7471H46.2863L35.918 32.0463L35.9714 42.1224C35.9841 44.4435 36.6487 46.7144 37.8893 48.6762C39.1299 50.6381 40.8967 52.212 42.9883 53.2185L46.4297 54.8733L46.5711 54.8722Z" fill="#B5B5FF"/>
<path d="M49.6244 38.9741H43.1793C42.2001 38.9741 41.4062 39.768 41.4062 40.7472V44.8411C41.4062 45.8204 42.2001 46.6142 43.1793 46.6142H49.6244C50.6037 46.6142 51.3975 45.8204 51.3975 44.8411V40.7472C51.3975 39.768 50.6037 38.9741 49.6244 38.9741Z" fill="white" stroke="black" stroke-width="0.477833" stroke-linejoin="round"/>
<path d="M43.7584 38.9312V37.0293C43.7722 36.3372 44.0568 35.6781 44.5511 35.1935C45.0455 34.7089 45.7101 34.4374 46.4024 34.4374C47.0946 34.4374 47.7592 34.7089 48.2536 35.1935C48.7479 35.6781 49.0325 36.3372 49.0463 37.0293V38.9312H50.545V37.1508C50.5277 36.0635 50.0836 35.0266 49.3086 34.2638C48.5336 33.501 47.4898 33.0735 46.4024 33.0735C45.3149 33.0735 44.2711 33.501 43.4961 34.2638C42.7211 35.0266 42.2771 36.0635 42.2598 37.1508V38.9312H43.7584Z" fill="white" stroke="black" stroke-width="0.477833" stroke-linejoin="round"/>
<path d="M47.1462 41.7811C47.213 41.898 47.2512 42.0289 47.2578 42.163L47.2579 42.2052C47.2579 42.3498 47.2213 42.492 47.1514 42.6186C47.0815 42.7452 46.9806 42.852 46.8582 42.929L46.753 42.9952V43.1195V43.8795C46.7463 43.9668 46.7072 44.0486 46.6434 44.1087C46.5781 44.1702 46.4918 44.2044 46.402 44.2044C46.3123 44.2044 46.226 44.1702 46.1607 44.1087C46.0968 44.0486 46.0578 43.9668 46.051 43.8795V43.1195V42.9954L45.9461 42.9292C45.8204 42.8498 45.7174 42.7389 45.6476 42.6076C45.5777 42.4762 45.5432 42.3289 45.5476 42.1802C45.552 42.0315 45.5951 41.8865 45.6727 41.7595C45.7502 41.6326 45.8595 41.528 45.9898 41.4561C46.1201 41.3843 46.2668 41.3477 46.4156 41.3498C46.5643 41.352 46.71 41.3929 46.8381 41.4686C46.9662 41.5442 47.0724 41.6519 47.1462 41.7811Z" fill="#A67EFA" stroke="black" stroke-width="0.45"/>
<path d="M67.332 40.9629V42.7936" stroke="white" stroke-width="0.477833" stroke-linecap="round" stroke-linejoin="round"/>
<path d="M46.4007 20.3248C48.4234 20.3248 50.0631 18.6851 50.0631 16.6624C50.0631 14.6397 48.4234 13 46.4007 13C44.378 13 42.7383 14.6397 42.7383 16.6624C42.7383 18.6851 44.378 20.3248 46.4007 20.3248Z" fill="white" stroke="white" stroke-width="0.477833" stroke-linecap="round" stroke-linejoin="round"/>
<path d="M67.3323 33.0077C69.355 33.0077 70.9948 31.368 70.9948 29.3453C70.9948 27.3226 69.355 25.6829 67.3323 25.6829C65.3096 25.6829 63.6699 27.3226 63.6699 29.3453C63.6699 31.368 65.3096 33.0077 67.3323 33.0077Z" fill="white" stroke="white" stroke-width="0.477833" stroke-linecap="round" stroke-linejoin="round"/>
<path d="M67.3323 30.9392C68.2126 30.9392 68.9263 30.2256 68.9263 29.3452C68.9263 28.4649 68.2126 27.7512 67.3323 27.7512C66.4519 27.7512 65.7383 28.4649 65.7383 29.3452C65.7383 30.2256 66.4519 30.9392 67.3323 30.9392Z" fill="#6A4CDF"/>
<path d="M67.3323 56.4652C69.355 56.4652 70.9948 54.8255 70.9948 52.8028C70.9948 50.7801 69.355 49.1404 67.3323 49.1404C65.3096 49.1404 63.6699 50.7801 63.6699 52.8028C63.6699 54.8255 65.3096 56.4652 67.3323 56.4652Z" fill="white" stroke="white" stroke-width="0.477833" stroke-linecap="round" stroke-linejoin="round"/>
<path d="M25.0648 33.0077C27.0875 33.0077 28.7272 31.368 28.7272 29.3453C28.7272 27.3226 27.0875 25.6829 25.0648 25.6829C23.0421 25.6829 21.4023 27.3226 21.4023 29.3453C21.4023 31.368 23.0421 33.0077 25.0648 33.0077Z" fill="white" stroke="white" stroke-width="0.477833" stroke-linecap="round" stroke-linejoin="round"/>
<path d="M25.0648 56.4652C27.0875 56.4652 28.7272 54.8255 28.7272 52.8028C28.7272 50.7801 27.0875 49.1404 25.0648 49.1404C23.0421 49.1404 21.4023 50.7801 21.4023 52.8028C21.4023 54.8255 23.0421 56.4652 25.0648 56.4652Z" fill="white" stroke="white" stroke-width="0.477833" stroke-linecap="round" stroke-linejoin="round"/>
<path d="M28.7284 40.3754H9.3418C9.50448 39.453 9.98729 38.6175 10.7053 38.016C11.4233 37.4145 12.3304 37.0855 13.2671 37.0869H13.42C13.9726 36.1055 14.8017 35.3084 15.8042 34.795C16.8066 34.2816 17.9379 34.0745 19.0572 34.1996C20.1765 34.3246 21.2342 34.7763 22.0986 35.4983C22.963 36.2203 23.5958 37.1807 23.9181 38.2598C24.3278 37.8805 24.8393 37.6289 25.3899 37.536C25.9405 37.4431 26.5062 37.5129 27.0177 37.7369C27.5292 37.9608 27.9642 38.3292 28.2694 38.7967C28.5745 39.2643 28.7366 39.8108 28.7357 40.3691L28.7284 40.3754Z" fill="#C3C5FF" stroke="#C2C6FF" stroke-width="0.119458" stroke-linejoin="round"/>
<path d="M23.3866 41.8784H4C4.16378 40.9569 4.64706 40.1226 5.36495 39.5221C6.08283 38.9217 6.98938 38.5934 7.92529 38.5951C7.97661 38.5951 8.03001 38.5951 8.07819 38.5951C8.63069 37.6137 9.45978 36.8165 10.4621 36.303C11.4645 35.7895 12.5958 35.5824 13.7151 35.7073C14.8343 35.8323 15.8921 36.2838 16.7565 37.0057C17.621 37.7276 18.2539 38.6879 18.5764 39.767C18.9863 39.388 19.4978 39.1369 20.0483 39.0443C20.5988 38.9517 21.1644 39.0216 21.6757 39.2456C22.1871 39.4696 22.622 39.8379 22.9272 40.3053C23.2323 40.7727 23.3946 41.319 23.3939 41.8773L23.3866 41.8784Z" stroke="white" stroke-width="0.477833" stroke-linejoin="round"/>
<path d="M67.3323 54.3967C68.2126 54.3967 68.9263 53.6831 68.9263 52.8027C68.9263 51.9224 68.2126 51.2087 67.3323 51.2087C66.4519 51.2087 65.7383 51.9224 65.7383 52.8027C65.7383 53.6831 66.4519 54.3967 67.3323 54.3967Z" fill="#6A4CDF"/>
<path d="M25.0647 54.3967C25.945 54.3967 26.6587 53.6831 26.6587 52.8027C26.6587 51.9224 25.945 51.2087 25.0647 51.2087C24.1844 51.2087 23.4707 51.9224 23.4707 52.8027C23.4707 53.6831 24.1844 54.3967 25.0647 54.3967Z" fill="#6A4CDF"/>
<path d="M25.0647 30.9392C25.945 30.9392 26.6587 30.2256 26.6587 29.3452C26.6587 28.4649 25.945 27.7512 25.0647 27.7512C24.1844 27.7512 23.4707 28.4649 23.4707 29.3452C23.4707 30.2256 24.1844 30.9392 25.0647 30.9392Z" fill="#6A4CDF"/>
<path d="M46.4006 18.2563C47.281 18.2563 47.9946 17.5427 47.9946 16.6624C47.9946 15.782 47.281 15.0684 46.4006 15.0684C45.5203 15.0684 44.8066 15.782 44.8066 16.6624C44.8066 17.5427 45.5203 18.2563 46.4006 18.2563Z" fill="#6A4CDF"/>
</svg>
