<?xml version="1.0" encoding="UTF-8"?>
<svg width="312" height="129" fill="none" version="1.1" viewBox="0 0 312 129" xmlns="http://www.w3.org/2000/svg">
 <g clip-path="url(#clip0_101_100)">
  <rect width="312" height="129" rx="16" fill="#EDEDEC"/>
  <rect x="17" y="61" width="270" height="233" rx="24" fill="#E9E9E8"/>
  <rect x="17" y="61" width="270" height="233" rx="24" stroke="#CECECF" stroke-width="2"/>
  <rect x="30" y="74" width="42.693" height="42.693" rx="16" fill="#000"/>
  <path d="m63.988 93.747c-0.3739-0.8858-1.0008-1.6415-1.8022-2.1726-0.8015-0.531-1.7417-0.8138-2.7031-0.8129-0.8036-0.0061-1.596 0.1871-2.3066 0.5626-0.7105 0.3753-1.3167 0.921-1.7645 1.5883-0.2906 0.4344-0.5083 0.9135-0.6446 1.418h-6.8597c-0.0482-0.1999-0.1141-0.3952-0.1968-0.5834-0.0741-0.1844-0.1649-0.3616-0.2714-0.5293l2.4562-2.4562c0.7414 0.4248 1.5814 0.6471 2.4359 0.6446 0.6529 0.0015 1.2994-0.1301 1.8998-0.3868 0.8864-0.3736 1.6431-1.0002 2.1753-1.8015 0.5322-0.8014 0.8164-1.7418 0.8169-2.7038 0.0024-0.8036-0.1932-1.5954-0.5695-2.3054-0.3763-0.7101-0.9218-1.3164-1.5881-1.7656-0.8018-0.5415-1.7466-0.8321-2.7141-0.8346-0.8035-0.0061-1.596 0.1871-2.3065 0.5626-0.7105 0.3753-1.3168 0.921-1.7646 1.5883-0.5385 0.8032-0.8288 1.747-0.8345 2.714-0.0173 0.6765 0.1075 1.3492 0.3664 1.9745 0.0665 0.1554 0.1412 0.3071 0.2239 0.4546l-2.4698 2.4629c-0.7234-0.3975-1.5358-0.6052-2.3612-0.6038-0.8035-0.0061-1.596 0.1871-2.3065 0.5626-0.7105 0.3753-1.3168 0.921-1.7646 1.5883-0.5385 0.8032-0.8287 1.747-0.8345 2.714-0.0016 0.6552 0.1301 1.3038 0.3867 1.9066 0.37 0.8731 0.9852 1.6202 1.7709 2.1509 0.8014 0.5421 1.7465 0.8331 2.714 0.8351 0.8037 2e-3 1.5955-0.194 2.3055-0.5701 0.7101-0.3763 1.3165-0.9218 1.7656-1.5881 0.3062-0.4275 0.5359-0.9051 0.6786-1.4113h6.8529c0.0536 0.1992 0.1216 0.3943 0.2036 0.5835 0.0664 0.1554 0.1412 0.3072 0.2239 0.4546l-2.4902 2.4904c-0.723-0.399-1.5356-0.6064-2.3612-0.6041-0.8035-0.0061-1.596 0.1871-2.3065 0.5621-0.7105 0.376-1.3168 0.922-1.7646 1.589-0.5385 0.803-0.8287 1.747-0.8345 2.714-0.0016 0.655 0.1301 1.304 0.3867 1.906 0.372 0.872 0.9868 1.619 1.7709 2.151 0.7375 0.495 1.5956 0.779 2.4823 0.824 0.8868 0.044 1.7691-0.153 2.5523-0.571s1.4382-1.042 1.8947-1.803c0.4565-0.762 0.6975-1.633 0.6972-2.521-0.0018-0.652-0.1332-1.298-0.3867-1.9-0.0814-0.183-0.1697-0.366-0.2647-0.536l2.4494-2.449c0.7414 0.425 1.5815 0.647 2.4359 0.645 1.2964-4e-3 2.5386-0.5206 3.4553-1.4372 0.9166-0.9167 1.4332-2.1589 1.4368-3.4553-0.0025-0.633-0.1268-1.2596-0.3664-1.8455zm-13.726-8.1082c0.1707-0.4016 0.4533-0.7454 0.8142-0.9906 0.3137-0.2149 0.6767-0.3469 1.0552-0.3837s0.7601 0.0228 1.1093 0.1733c0.405 0.1745 0.7498 0.4645 0.9911 0.8338 0.2413 0.3692 0.3686 0.8013 0.3659 1.2424 0 0.5981-0.2371 1.1717-0.6594 1.5953-0.4223 0.4235-0.9952 0.6624-1.5932 0.6642-0.3719 7e-4 -0.7381-0.0906-1.066-0.2658-0.328-0.1752-0.6075-0.4289-0.8135-0.7384-0.2074-0.3119-0.3346-0.6702-0.3701-1.0431s0.0217-0.7488 0.1665-1.0942v0.0068zm-4.9802 10.89c-0.1577 0.3751-0.4139 0.7004-0.7416 0.9416-0.3276 0.2411-0.7145 0.389-1.1194 0.428-0.4049 0.0389-0.8129-0.0325-1.1806-0.2067-0.3676-0.1743-0.6811-0.4448-0.9074-0.7829-0.2074-0.3119-0.3345-0.6703-0.37-1.0431-0.0355-0.3729 0.0216-0.7488 0.1665-1.0942 0.1707-0.4015 0.4533-0.7454 0.8142-0.9907 0.3717-0.2539 0.8118-0.3888 1.262-0.3867 0.3007-0.0018 0.5987 0.0582 0.8753 0.1764 0.4051 0.1746 0.7498 0.4646 0.9911 0.8338s0.3686 0.8014 0.3659 1.2425c0.0083 0.3015-0.0448 0.6016-0.156 0.882zm7.1447 9.1332c-0.1149 0.272-0.2824 0.52-0.4929 0.728-0.2106 0.208-0.46 0.372-0.7341 0.484-0.2741 0.111-0.5674 0.167-0.8634 0.166-0.2959-2e-3 -0.5885-0.062-0.8612-0.177-0.3987-0.176-0.7397-0.461-0.9838-0.821-0.227-0.34-0.3577-0.735-0.3779-1.143-0.0204-0.409 0.0704-0.815 0.2625-1.175 0.1922-0.361 0.4786-0.663 0.8286-0.873 0.3502-0.211 0.7508-0.323 1.1595-0.324 0.2889 0 0.5748 0.058 0.8413 0.169 0.4051 0.175 0.7499 0.465 0.9912 0.834 0.2413 0.37 0.3686 0.802 0.3659 1.243 0.0157 0.302-0.0305 0.605-0.1357 0.889zm9.1327-9.1332c-0.1576 0.3751-0.4139 0.7004-0.7415 0.9416-0.3277 0.2411-0.7145 0.389-1.1195 0.428-0.4049 0.0389-0.8129-0.0325-1.1805-0.2067-0.3676-0.1743-0.6812-0.4448-0.9074-0.7829-0.2074-0.3119-0.3346-0.6703-0.37-1.0431-0.0355-0.3729 0.0216-0.7488 0.1664-1.0942 0.1707-0.4015 0.4534-0.7454 0.8143-0.9907 0.3717-0.2539 0.8118-0.3888 1.262-0.3867 0.3007-0.0018 0.5987 0.0582 0.8752 0.1764 0.4051 0.1746 0.7498 0.4646 0.9912 0.8338 0.2413 0.3692 0.3686 0.8014 0.3659 1.2425 0.0083 0.3015-0.0449 0.6016-0.1561 0.882z" fill="#fff"/>
  <path d="m84.876 99.244h1.5v-5.508l2.712 5.028 2.724-5.028v5.508h1.488v-8.244h-1.488l-2.724 5.028-2.712-5.028h-1.5zm12.852 0.144c1.824 0 3.312-1.464 3.312-3.252s-1.488-3.24-3.312-3.24c-1.836 0-3.336 1.452-3.336 3.24s1.5 3.252 3.336 3.252zm0-1.248c-1.044 0-1.896-0.9-1.896-2.004s0.852-1.992 1.896-1.992c1.032 0 1.872 0.888 1.872 1.992s-0.84 2.004-1.872 2.004zm3.96 1.104h5.244v-1.284h-3.336l3.312-3.852v-1.068h-5.148v1.284h3.216l-3.288 3.852zm6.984-7.14c0.456 0 0.816-0.396 0.816-0.84s-0.36-0.828-0.816-0.828c-0.468 0-0.84 0.384-0.84 0.828s0.372 0.84 0.84 0.84zm-0.732 7.14h1.464v-6.204h-1.464zm2.748 0h1.464v-8.388h-1.464zm2.808 0h1.464v-8.388h-1.464zm5.412-6.348c-0.78 0-1.596 0.216-2.472 0.648l0.504 1.02c0.528-0.264 1.092-0.468 1.68-0.468 1.128 0 1.512 0.696 1.512 1.416v0.156c-0.564-0.204-1.164-0.324-1.728-0.324-1.404 0-2.52 0.84-2.52 2.064 0 1.2 0.984 1.98 2.304 1.98 0.72 0 1.488-0.312 1.944-0.876v0.732h1.428v-3.732c0-1.572-1.008-2.616-2.652-2.616zm-0.396 5.424c-0.696 0-1.224-0.372-1.224-0.96s0.6-0.996 1.332-0.996c0.54 0 1.056 0.084 1.512 0.228v0.708c-0.156 0.66-0.912 1.02-1.62 1.02zm13.86-7.32-2.616 6.252-2.628-6.252h-1.656l3.444 8.244h1.668l3.444-8.244zm2.724 8.244h1.5v-2.772h2.088c1.764 0 3.084-1.128 3.084-2.736s-1.32-2.736-3.084-2.736h-3.588zm1.5-4.152v-2.712h1.908c1.032 0 1.74 0.516 1.74 1.356s-0.708 1.356-1.74 1.356zm6.396 4.152h1.5v-5.796l4.344 5.796h1.5v-8.244h-1.5v5.796l-4.344-5.796h-1.5z" fill="#1e1e1e" style="white-space:pre" aria-label="Mozilla VPN"/>
  <rect x="245" y="87" width="31.125" height="16.6" rx="8.3" fill="#0F84FF"/>
  <path d="m267.82 101.52c3.438 0 6.225-2.7871 6.225-6.2251 0-3.4379-2.787-6.2249-6.225-6.2249s-6.225 2.787-6.225 6.2249c0 3.438 2.787 6.2251 6.225 6.2251z" clip-rule="evenodd" fill="#fff" fill-rule="evenodd"/>
  <path d="m23.284 24.244h1.668l-3.456-8.244h-1.656l-3.456 8.244h1.668l0.648-1.56h3.936zm-4.068-2.784 1.452-3.48 1.452 3.48zm9.06 1.452c-0.132 0.132-0.372 0.228-0.624 0.228-0.336 0-0.612-0.3-0.612-0.72v-3.168h1.404v-1.212h-1.404v-1.704h-1.416v1.704h-0.9v1.212h0.9v3.348c0 1.044 0.72 1.788 1.74 1.788 0.48 0 0.984-0.192 1.332-0.492zm4.488 0c-0.132 0.132-0.372 0.228-0.624 0.228-0.336 0-0.612-0.3-0.612-0.72v-3.168h1.404v-1.212h-1.404v-1.704h-1.416v1.704h-0.9v1.212h0.9v3.348c0 1.044 0.72 1.788 1.74 1.788 0.48 0 0.984-0.192 1.332-0.492zm2.04-5.808c0.456 0 0.816-0.396 0.816-0.84s-0.36-0.828-0.816-0.828c-0.468 0-0.84 0.384-0.84 0.828s0.372 0.84 0.84 0.84zm-0.732 7.14h1.464v-6.204h-1.464zm4.908 0h1.38l2.628-6.204h-1.56l-1.764 4.512-1.8-4.512h-1.548zm5.532-7.14c0.456 0 0.816-0.396 0.816-0.84s-0.36-0.828-0.816-0.828c-0.468 0-0.84 0.384-0.84 0.828s0.372 0.84 0.84 0.84zm-0.732 7.14h1.464v-6.204h-1.464zm5.88-1.332c-0.132 0.132-0.372 0.228-0.624 0.228-0.336 0-0.612-0.3-0.612-0.72v-3.168h1.404v-1.212h-1.404v-1.704h-1.416v1.704h-0.9v1.212h0.9v3.348c0 1.044 0.72 1.788 1.74 1.788 0.48 0 0.984-0.192 1.332-0.492zm4.008-5.568-1.404-1.824-1.368 0.264 1.752 1.56zm-0.708 0.552c-0.78 0-1.596 0.216-2.472 0.648l0.504 1.02c0.528-0.264 1.092-0.468 1.68-0.468 1.128 0 1.512 0.696 1.512 1.416v0.156c-0.564-0.204-1.164-0.324-1.728-0.324-1.404 0-2.52 0.84-2.52 2.064 0 1.2 0.984 1.98 2.304 1.98 0.72 0 1.488-0.312 1.944-0.876v0.732h1.428v-3.732c0-1.572-1.008-2.616-2.652-2.616zm-0.396 5.424c-0.696 0-1.224-0.372-1.224-0.96s0.6-0.996 1.332-0.996c0.54 0 1.056 0.084 1.512 0.228v0.708c-0.156 0.66-0.912 1.02-1.62 1.02zm9.984-5.424c-0.78 0-1.596 0.216-2.472 0.648l0.504 1.02c0.528-0.264 1.092-0.468 1.68-0.468 1.128 0 1.512 0.696 1.512 1.416v0.156c-0.564-0.204-1.164-0.324-1.728-0.324-1.404 0-2.52 0.84-2.52 2.064 0 1.2 0.984 1.98 2.304 1.98 0.72 0 1.488-0.312 1.944-0.876v0.732h1.428v-3.732c0-1.572-1.008-2.616-2.652-2.616zm-0.396 5.424c-0.696 0-1.224-0.372-1.224-0.96s0.6-0.996 1.332-0.996c0.54 0 1.056 0.084 1.512 0.228v0.708c-0.156 0.66-0.912 1.02-1.62 1.02zm7.836-5.424c-0.912 0-1.668 0.42-2.148 1.116v-0.972h-1.464v8.268h1.464v-3.036c0.48 0.696 1.236 1.116 2.148 1.116 1.644 0 2.856-1.344 2.856-3.252 0-1.896-1.212-3.24-2.856-3.24zm-0.396 5.244c-1.02 0-1.752-0.84-1.752-2.004s0.732-1.992 1.752-1.992c1.056 0 1.8 0.828 1.8 1.992s-0.744 2.004-1.8 2.004zm7.836-5.244c-0.912 0-1.668 0.42-2.148 1.116v-0.972h-1.464v8.268h1.464v-3.036c0.48 0.696 1.236 1.116 2.148 1.116 1.644 0 2.856-1.344 2.856-3.252 0-1.896-1.212-3.24-2.856-3.24zm-0.396 5.244c-1.02 0-1.752-0.84-1.752-2.004s0.732-1.992 1.752-1.992c1.056 0 1.8 0.828 1.8 1.992s-0.744 2.004-1.8 2.004zm8.064-6.036c0.456 0 0.816-0.396 0.816-0.84s-0.36-0.828-0.816-0.828c-0.468 0-0.84 0.384-0.84 0.828s0.372 0.84 0.84 0.84zm-0.732 7.14h1.464v-6.204h-1.464zm6.084-6.348c-0.828 0-1.548 0.384-1.92 0.96v-0.816h-1.464v6.204h1.464v-3.756c0-0.756 0.66-1.344 1.5-1.344 0.768 0 1.308 0.588 1.308 1.44v3.66h1.428v-3.948c0-1.416-0.948-2.4-2.316-2.4zm10.26 0c-0.912 0-1.668 0.42-2.148 1.116v-3.156h-1.464v8.388h1.464v-0.972c0.48 0.696 1.236 1.116 2.148 1.116 1.644 0 2.856-1.344 2.856-3.252 0-1.896-1.212-3.24-2.856-3.24zm-0.396 5.244c-1.02 0-1.752-0.84-1.752-2.004s0.732-1.992 1.752-1.992c1.056 0 1.8 0.828 1.8 1.992s-0.744 2.004-1.8 2.004zm6.708-5.244c-0.78 0-1.596 0.216-2.472 0.648l0.504 1.02c0.528-0.264 1.092-0.468 1.68-0.468 1.128 0 1.512 0.696 1.512 1.416v0.156c-0.564-0.204-1.164-0.324-1.728-0.324-1.404 0-2.52 0.84-2.52 2.064 0 1.2 0.984 1.98 2.304 1.98 0.72 0 1.488-0.312 1.944-0.876v0.732h1.428v-3.732c0-1.572-1.008-2.616-2.652-2.616zm-0.396 5.424c-0.696 0-1.224-0.372-1.224-0.96s0.6-0.996 1.332-0.996c0.54 0 1.056 0.084 1.512 0.228v0.708c-0.156 0.66-0.912 1.02-1.62 1.02zm7.152 1.068c0.984 0 1.8-0.408 2.412-1.044l-0.984-0.852c-0.36 0.396-0.888 0.648-1.416 0.648-1.032 0-1.884-0.912-1.884-2.004 0-1.08 0.852-1.992 1.872-1.992 0.528 0 1.044 0.252 1.392 0.624l0.984-0.864c-0.6-0.612-1.416-1.008-2.364-1.008-1.8 0-3.336 1.476-3.336 3.24s1.524 3.252 3.324 3.252zm3.264-0.144h1.464v-1.56l0.876-0.912 1.74 2.472h1.716l-2.472-3.432 2.544-2.772h-1.728l-2.676 2.928v-5.112h-1.464zm11.304-6.204v0.912c-0.444-0.648-1.236-1.056-2.124-1.056-1.596 0-2.784 1.212-2.784 2.94s1.188 2.952 2.784 2.952c0.876 0 1.632-0.384 2.124-1.044v0.792c0 0.936-0.768 1.524-1.992 1.524-0.732 0-1.464-0.252-1.896-0.648l-0.54 1.068c0.6 0.48 1.596 0.828 2.664 0.828 1.896 0 3.24-1.128 3.24-2.724v-5.544zm-1.704 4.5c-0.984 0-1.692-0.708-1.692-1.704 0-0.984 0.708-1.692 1.692-1.692 0.996 0 1.704 0.708 1.704 1.692 0 0.996-0.708 1.704-1.704 1.704zm5.892-3.324v-1.176h-1.464v6.204h1.464v-3.132c0-1.176 0.888-1.968 2.22-1.968v-1.248c-1.008 0-1.824 0.516-2.22 1.32zm5.772 5.172c1.824 0 3.312-1.464 3.312-3.252s-1.488-3.24-3.312-3.24c-1.836 0-3.336 1.452-3.336 3.24s1.5 3.252 3.336 3.252zm0-1.248c-1.044 0-1.896-0.9-1.896-2.004s0.852-1.992 1.896-1.992c1.032 0 1.872 0.888 1.872 1.992s-0.84 2.004-1.872 2.004zm8.328-5.1v3.756c0 0.756-0.66 1.344-1.5 1.344-0.768 0-1.308-0.588-1.308-1.44v-3.66h-1.416v3.948c0 1.416 0.948 2.4 2.304 2.4 0.828 0 1.548-0.384 1.92-0.96v0.816h1.476v-6.204zm6.096-0.144c-0.828 0-1.548 0.384-1.92 0.96v-0.816h-1.464v6.204h1.464v-3.756c0-0.756 0.66-1.344 1.5-1.344 0.768 0 1.308 0.588 1.308 1.44v3.66h1.428v-3.948c0-1.416-0.948-2.4-2.316-2.4zm8.136-2.04v3.156c-0.48-0.696-1.236-1.116-2.148-1.116-1.644 0-2.856 1.344-2.856 3.24 0 1.908 1.212 3.252 2.856 3.252 0.912 0 1.668-0.42 2.148-1.116v0.972h1.464v-8.388zm-1.752 7.284c-1.056 0-1.8-0.84-1.8-2.004s0.744-1.992 1.8-1.992c1.02 0 1.752 0.828 1.752 1.992s-0.732 2.004-1.752 2.004z" fill="#1e1e1e" style="white-space:pre" aria-label="Attività app in background"/>
  <rect x="16" y="34" width="280" height="6" fill="#CECECF"/>
  <rect x="16" y="44" width="94" height="6" fill="#CECECF"/>
 </g>
 <defs>
  <clipPath id="clip0_101_100">
   <rect width="312" height="129" rx="16" fill="#fff"/>
  </clipPath>
 </defs>
</svg>
