<svg width="312" height="129" viewBox="0 0 312 129" fill="none" xmlns="http://www.w3.org/2000/svg">
<g clip-path="url(#clip0_101_49)">
<rect width="312" height="129" rx="16" fill="#2A2927"/>
<rect x="17" y="61" width="270" height="233" rx="24" fill="#2D2C2a"/>
<rect x="17" y="61" width="270" height="233" rx="24" stroke="#383835" stroke-width="2"/>
<rect x="30" y="74" width="42.6926" height="42.6926" rx="16" fill="black"/>
<path d="M63.9885 93.747C63.6146 92.8612 62.9877 92.1055 62.1863 91.5744C61.3848 91.0434 60.4446 90.7606 59.4832 90.7615C58.6796 90.7554 57.8872 90.9486 57.1766 91.3241C56.4661 91.6994 55.8599 92.2451 55.4121 92.9124C55.1215 93.3468 54.9038 93.8259 54.7675 94.3304H47.9078C47.8596 94.1305 47.7937 93.9352 47.711 93.747C47.6369 93.5626 47.5461 93.3854 47.4396 93.2177L49.8958 90.7615C50.6372 91.1863 51.4772 91.4086 52.3317 91.4061C52.9846 91.4076 53.6311 91.276 54.2315 91.0193C55.1179 90.6457 55.8746 90.0191 56.4068 89.2178C56.939 88.4164 57.2232 87.476 57.2237 86.514C57.2261 85.7104 57.0305 84.9186 56.6542 84.2086C56.2779 83.4985 55.7324 82.8922 55.0661 82.443C54.2643 81.9015 53.3195 81.6109 52.352 81.6084C51.5485 81.6023 50.756 81.7955 50.0455 82.171C49.335 82.5463 48.7287 83.092 48.2809 83.7593C47.7424 84.5625 47.4521 85.5063 47.4464 86.4733C47.4291 87.1498 47.5539 87.8225 47.8128 88.4478C47.8793 88.6032 47.954 88.7549 48.0367 88.9024L45.5669 91.3653C44.8435 90.9678 44.0311 90.7601 43.2057 90.7615C42.4022 90.7554 41.6097 90.9486 40.8992 91.3241C40.1887 91.6994 39.5824 92.2451 39.1346 92.9124C38.5961 93.7156 38.3059 94.6594 38.3001 95.6264C38.2985 96.2816 38.4302 96.9302 38.6868 97.533C39.0568 98.4061 39.672 99.1532 40.4577 99.6839C41.2591 100.226 42.2042 100.517 43.1717 100.519C43.9754 100.521 44.7672 100.325 45.4772 99.9489C46.1873 99.5726 46.7937 99.0271 47.2428 98.3608C47.549 97.9333 47.7787 97.4557 47.9214 96.9495H54.7743C54.8279 97.1487 54.8959 97.3438 54.9779 97.533C55.0443 97.6884 55.1191 97.8402 55.2018 97.9876L52.7116 100.478C51.9886 100.079 51.176 99.8716 50.3504 99.8739C49.5469 99.8678 48.7544 100.061 48.0439 100.436C47.3334 100.812 46.7271 101.358 46.2793 102.025C45.7408 102.828 45.4506 103.772 45.4448 104.739C45.4432 105.394 45.5749 106.043 45.8315 106.645C46.2035 107.517 46.8183 108.264 47.6024 108.796C48.3399 109.291 49.198 109.575 50.0847 109.62C50.9715 109.664 51.8538 109.467 52.637 109.049C53.4202 108.631 54.0752 108.007 54.5317 107.246C54.9882 106.484 55.2292 105.613 55.2289 104.725C55.2271 104.073 55.0957 103.427 54.8422 102.825C54.7608 102.642 54.6725 102.459 54.5775 102.289L57.0269 99.84C57.7683 100.265 58.6084 100.487 59.4628 100.485C60.7592 100.481 62.0014 99.9644 62.9181 99.0478C63.8347 98.1311 64.3513 96.8889 64.3549 95.5925C64.3524 94.9595 64.2281 94.3329 63.9885 93.747ZM50.2622 85.6388C50.4329 85.2372 50.7155 84.8934 51.0764 84.6482C51.3901 84.4333 51.7531 84.3013 52.1316 84.2645C52.5101 84.2277 52.8917 84.2873 53.2409 84.4378C53.6459 84.6123 53.9907 84.9023 54.232 85.2716C54.4733 85.6408 54.6006 86.0729 54.5979 86.514C54.5979 87.1121 54.3608 87.6857 53.9385 88.1093C53.5162 88.5328 52.9433 88.7717 52.3453 88.7735C51.9734 88.7742 51.6072 88.6829 51.2793 88.5077C50.9513 88.3325 50.6718 88.0788 50.4658 87.7693C50.2584 87.4574 50.1312 87.0991 50.0957 86.7262C50.0602 86.3533 50.1174 85.9774 50.2622 85.632V85.6388ZM45.282 96.5288C45.1243 96.9039 44.8681 97.2292 44.5404 97.4704C44.2128 97.7115 43.8259 97.8594 43.421 97.8984C43.0161 97.9373 42.6081 97.8659 42.2404 97.6917C41.8728 97.5174 41.5593 97.2469 41.333 96.9088C41.1256 96.5969 40.9985 96.2385 40.963 95.8657C40.9275 95.4928 40.9846 95.1169 41.1295 94.7715C41.3002 94.37 41.5828 94.0261 41.9437 93.7808C42.3154 93.5269 42.7555 93.392 43.2057 93.3941C43.5064 93.3923 43.8044 93.4523 44.081 93.5705C44.4861 93.7451 44.8308 94.0351 45.0721 94.4043C45.3134 94.7735 45.4407 95.2057 45.438 95.6468C45.4463 95.9483 45.3932 96.2484 45.282 96.5288ZM52.4267 105.662C52.3118 105.934 52.1443 106.182 51.9338 106.39C51.7232 106.598 51.4738 106.762 51.1997 106.874C50.9256 106.985 50.6323 107.041 50.3363 107.04C50.0404 107.038 49.7478 106.978 49.4751 106.863C49.0764 106.687 48.7354 106.402 48.4913 106.042C48.2643 105.702 48.1336 105.307 48.1134 104.899C48.093 104.49 48.1838 104.084 48.3759 103.724C48.5681 103.363 48.8545 103.061 49.2045 102.851C49.5547 102.64 49.9553 102.528 50.364 102.527C50.6529 102.527 50.9388 102.585 51.2053 102.696C51.6104 102.871 51.9552 103.161 52.1965 103.53C52.4378 103.9 52.5651 104.332 52.5624 104.773C52.5781 105.075 52.5319 105.378 52.4267 105.662ZM61.5594 96.5288C61.4018 96.9039 61.1455 97.2292 60.8179 97.4704C60.4902 97.7115 60.1034 97.8594 59.6984 97.8984C59.2935 97.9373 58.8855 97.8659 58.5179 97.6917C58.1503 97.5174 57.8367 97.2469 57.6105 96.9088C57.4031 96.5969 57.2759 96.2385 57.2405 95.8657C57.205 95.4928 57.2621 95.1169 57.4069 94.7715C57.5776 94.37 57.8603 94.0261 58.2212 93.7808C58.5929 93.5269 59.033 93.392 59.4832 93.3941C59.7839 93.3923 60.0819 93.4523 60.3584 93.5705C60.7635 93.7451 61.1082 94.0351 61.3496 94.4043C61.5909 94.7735 61.7182 95.2057 61.7155 95.6468C61.7238 95.9483 61.6706 96.2484 61.5594 96.5288Z" fill="white"/>
<path d="M84.96 99V90.756H86.46L89.172 95.784L91.896 90.756H93.384V99H91.896V93.492L89.172 98.52L86.46 93.492V99H84.96ZM98.0434 99.144C96.2434 99.144 94.7194 97.656 94.7194 95.892C94.7194 94.128 96.2434 92.652 98.0434 92.652C99.8434 92.652 101.367 94.128 101.367 95.892C101.367 97.656 99.8434 99.144 98.0434 99.144ZM98.0434 97.896C99.0634 97.896 99.9274 96.984 99.9274 95.892C99.9274 94.812 99.0634 93.9 98.0434 93.9C97.0114 93.9 96.1474 94.812 96.1474 95.892C96.1474 96.984 97.0114 97.896 98.0434 97.896ZM102.265 99V97.932L105.553 94.08H102.337V92.796H107.485L107.473 93.864L104.173 97.716H107.509V99H102.265ZM109.458 91.86C108.99 91.86 108.618 91.464 108.618 91.02C108.618 90.576 108.99 90.192 109.458 90.192C109.914 90.192 110.286 90.576 110.286 91.02C110.286 91.464 109.914 91.86 109.458 91.86ZM108.714 99V92.796H110.178V99H108.714ZM111.676 99V90.612H113.14V99H111.676ZM114.638 99V90.612H116.102V99H114.638ZM120.3 92.652C121.944 92.652 122.964 93.696 122.964 95.268V99H121.536V98.256C121.08 98.832 120.3 99.144 119.58 99.144C118.26 99.144 117.264 98.364 117.264 97.164C117.264 95.94 118.404 95.1 119.796 95.1C120.36 95.1 120.972 95.22 121.536 95.436V95.268C121.536 94.548 121.14 93.852 120.012 93.852C119.424 93.852 118.86 94.056 118.332 94.32L117.828 93.3C118.704 92.868 119.52 92.652 120.3 92.652ZM119.904 98.076C120.612 98.076 121.368 97.716 121.536 97.056V96.36C121.08 96.204 120.564 96.12 120.012 96.12C119.28 96.12 118.692 96.528 118.692 97.116C118.692 97.704 119.208 98.076 119.904 98.076ZM134.031 90.756H135.699L132.255 99H130.587L127.143 90.756H128.799L131.415 97.008L134.031 90.756ZM136.67 99V90.756H140.258C142.022 90.756 143.342 91.884 143.342 93.492C143.342 95.1 142.022 96.228 140.258 96.228H138.17V99H136.67ZM138.17 94.848H140.09C141.11 94.848 141.818 94.332 141.818 93.492C141.818 92.652 141.11 92.136 140.09 92.136H138.17V94.848ZM144.51 99V90.756H146.01L150.366 96.552V90.756H151.854V99H150.366L146.01 93.204V99H144.51Z" fill="#DFDEDE"/>
<rect x="245" y="87" width="31.125" height="16.6" rx="8.3" fill="#1673D7"/>
<path fill-rule="evenodd" clip-rule="evenodd" d="M267.825 101.525C271.263 101.525 274.05 98.7379 274.05 95.2999C274.05 91.862 271.263 89.075 267.825 89.075C264.387 89.075 261.6 91.862 261.6 95.2999C261.6 98.7379 264.387 101.525 267.825 101.525Z" fill="white"/>
<path d="M19.9 24.132C18.484 24.132 17.284 23.652 16.372 22.8L17.236 21.732C17.992 22.416 18.868 22.848 19.948 22.848C20.968 22.848 21.496 22.344 21.496 21.756C21.496 21.072 20.908 20.844 19.588 20.532C17.884 20.136 16.696 19.644 16.696 18.096C16.696 16.656 17.92 15.6 19.66 15.6C20.968 15.6 21.952 16.044 22.78 16.752L21.964 17.856C21.244 17.232 20.416 16.884 19.6 16.884C18.772 16.884 18.208 17.388 18.208 17.964C18.208 18.636 18.82 18.876 20.128 19.176C21.844 19.56 22.996 20.112 22.996 21.612C22.996 23.088 21.868 24.132 19.9 24.132ZM27.2917 22.668L27.7117 23.652C27.3637 23.952 26.8597 24.144 26.3917 24.144C25.3597 24.144 24.6397 23.4 24.6397 22.356V19.008H23.7397V17.796H24.6397V16.092H26.0677V17.796H27.4717V19.008H26.0677V22.176C26.0677 22.596 26.3317 22.896 26.6797 22.896C26.9317 22.896 27.1597 22.8 27.2917 22.668ZM31.4281 17.652C33.0721 17.652 34.0921 18.696 34.0921 20.268V24H32.6641V23.256C32.2081 23.832 31.4281 24.144 30.7081 24.144C29.3881 24.144 28.3921 23.364 28.3921 22.164C28.3921 20.94 29.5321 20.1 30.9241 20.1C31.4881 20.1 32.1001 20.22 32.6641 20.436V20.268C32.6641 19.548 32.2681 18.852 31.1401 18.852C30.5521 18.852 29.9881 19.056 29.4601 19.32L28.9561 18.3C29.8321 17.868 30.6481 17.652 31.4281 17.652ZM31.0321 23.076C31.7401 23.076 32.4961 22.716 32.6641 22.056V21.36C32.2081 21.204 31.6921 21.12 31.1401 21.12C30.4081 21.12 29.8201 21.528 29.8201 22.116C29.8201 22.704 30.3361 23.076 31.0321 23.076ZM41.9317 22.668L42.3517 23.652C42.0037 23.952 41.4997 24.144 41.0317 24.144C39.9997 24.144 39.2797 23.4 39.2797 22.356V19.008H38.3797V17.796H39.2797V16.092H40.7077V17.796H42.1117V19.008H40.7077V22.176C40.7077 22.596 40.9717 22.896 41.3197 22.896C41.5717 22.896 41.7997 22.8 41.9317 22.668ZM46.3681 24.144C44.5681 24.144 43.0441 22.656 43.0441 20.892C43.0441 19.128 44.5681 17.652 46.3681 17.652C48.1681 17.652 49.6921 19.128 49.6921 20.892C49.6921 22.656 48.1681 24.144 46.3681 24.144ZM46.3681 22.896C47.3881 22.896 48.2521 21.984 48.2521 20.892C48.2521 19.812 47.3881 18.9 46.3681 18.9C45.3361 18.9 44.4721 19.812 44.4721 20.892C44.4721 21.984 45.3361 22.896 46.3681 22.896ZM53.7338 22.848C54.3098 22.848 54.9938 22.584 55.3418 22.224L56.2658 23.184C55.7258 23.76 54.6458 24.144 53.7458 24.144C51.9698 24.144 50.5058 22.788 50.5058 20.88C50.5058 19.02 51.8978 17.652 53.6618 17.652C55.5818 17.652 56.6978 19.104 56.6978 21.396H52.0178C52.1978 22.248 52.8458 22.848 53.7338 22.848ZM53.7218 18.948C52.9058 18.948 52.2458 19.464 52.0298 20.28H55.2938C55.1258 19.5 54.5978 18.948 53.7218 18.948ZM64.1253 24.144C62.3253 24.144 60.8013 22.656 60.8013 20.892C60.8013 19.128 62.3253 17.652 64.1253 17.652C65.9253 17.652 67.4493 19.128 67.4493 20.892C67.4493 22.656 65.9253 24.144 64.1253 24.144ZM64.1253 22.896C65.1453 22.896 66.0093 21.984 66.0093 20.892C66.0093 19.812 65.1453 18.9 64.1253 18.9C63.0933 18.9 62.2293 19.812 62.2293 20.892C62.2293 21.984 63.0933 22.896 64.1253 22.896ZM72.259 17.652C73.903 17.652 75.103 18.996 75.103 20.892C75.103 22.8 73.903 24.144 72.259 24.144C71.335 24.144 70.591 23.724 70.099 23.016V26.064H68.635V17.796H70.099V18.78C70.591 18.072 71.335 17.652 72.259 17.652ZM71.863 22.896C72.907 22.896 73.651 22.056 73.651 20.892C73.651 19.728 72.907 18.9 71.863 18.9C70.831 18.9 70.111 19.728 70.111 20.892C70.111 22.056 70.831 22.896 71.863 22.896ZM84.3016 15.612H85.7656V24H84.3016V23.04C83.8096 23.736 83.0656 24.144 82.1536 24.144C80.5096 24.144 79.3096 22.8 79.3096 20.892C79.3096 18.996 80.5096 17.652 82.1536 17.652C83.0656 17.652 83.8096 18.06 84.3016 18.756V15.612ZM82.5496 22.896C83.5816 22.896 84.3016 22.056 84.3016 20.892C84.3016 19.728 83.5816 18.9 82.5496 18.9C81.5056 18.9 80.7616 19.728 80.7616 20.892C80.7616 22.056 81.5056 22.896 82.5496 22.896ZM90.1857 22.848C90.7617 22.848 91.4457 22.584 91.7937 22.224L92.7177 23.184C92.1777 23.76 91.0977 24.144 90.1977 24.144C88.4217 24.144 86.9577 22.788 86.9577 20.88C86.9577 19.02 88.3497 17.652 90.1137 17.652C92.0337 17.652 93.1497 19.104 93.1497 21.396H88.4697C88.6497 22.248 89.2977 22.848 90.1857 22.848ZM90.1737 18.948C89.3577 18.948 88.6977 19.464 88.4817 20.28H91.7457C91.5777 19.5 91.0497 18.948 90.1737 18.948ZM100.277 17.652C101.921 17.652 102.941 18.696 102.941 20.268V24H101.513V23.256C101.057 23.832 100.277 24.144 99.5571 24.144C98.2371 24.144 97.2411 23.364 97.2411 22.164C97.2411 20.94 98.3811 20.1 99.7731 20.1C100.337 20.1 100.949 20.22 101.513 20.436V20.268C101.513 19.548 101.117 18.852 99.9891 18.852C99.4011 18.852 98.8371 19.056 98.3091 19.32L97.8051 18.3C98.6811 17.868 99.4971 17.652 100.277 17.652ZM99.8811 23.076C100.589 23.076 101.345 22.716 101.513 22.056V21.36C101.057 21.204 100.541 21.12 99.9891 21.12C99.2571 21.12 98.6691 21.528 98.6691 22.116C98.6691 22.704 99.1851 23.076 99.8811 23.076ZM107.394 24.144C105.606 24.144 104.082 22.656 104.082 20.892C104.082 19.128 105.606 17.652 107.418 17.652C108.354 17.652 109.182 18.048 109.77 18.66L108.786 19.524C108.45 19.152 107.934 18.9 107.406 18.9C106.386 18.9 105.534 19.812 105.534 20.892C105.534 21.984 106.386 22.896 107.406 22.896C107.946 22.896 108.474 22.644 108.822 22.248L109.806 23.1C109.206 23.736 108.378 24.144 107.394 24.144ZM114.221 17.652C115.577 17.652 116.525 18.648 116.525 20.052V24H115.109V20.34C115.109 19.5 114.569 18.9 113.801 18.9C112.973 18.9 112.289 19.5 112.289 20.244V24H110.825V15.612H112.289V18.648C112.661 18.048 113.393 17.652 114.221 17.652ZM121.09 22.668L121.51 23.652C121.162 23.952 120.658 24.144 120.19 24.144C119.158 24.144 118.438 23.4 118.438 22.356V19.008H117.538V17.796H118.438V16.092H119.866V17.796H121.27V19.008H119.866V22.176C119.866 22.596 120.13 22.896 120.478 22.896C120.73 22.896 120.958 22.8 121.09 22.668ZM125.419 22.848C125.995 22.848 126.679 22.584 127.027 22.224L127.951 23.184C127.411 23.76 126.331 24.144 125.431 24.144C123.655 24.144 122.191 22.788 122.191 20.88C122.191 19.02 123.583 17.652 125.347 17.652C127.267 17.652 128.383 19.104 128.383 21.396H123.703C123.883 22.248 124.531 22.848 125.419 22.848ZM125.407 18.948C124.591 18.948 123.931 19.464 123.715 20.28H126.979C126.811 19.5 126.283 18.948 125.407 18.948ZM131.032 18.996C131.428 18.168 132.232 17.652 133.252 17.652V18.9C131.92 18.9 131.032 19.692 131.032 20.868V24H129.568V17.796H131.032V18.996ZM138.836 17.796H140.3V23.34C140.3 24.936 138.956 26.064 137.06 26.064C135.992 26.064 135.008 25.716 134.396 25.236L134.936 24.168C135.368 24.564 136.112 24.816 136.844 24.816C138.068 24.816 138.836 24.228 138.836 23.292V22.488C138.344 23.148 137.6 23.544 136.712 23.544C135.104 23.544 133.916 22.32 133.916 20.592C133.916 18.864 135.104 17.652 136.712 17.652C137.588 17.652 138.392 18.06 138.836 18.72V17.796ZM137.132 22.296C138.128 22.296 138.836 21.588 138.836 20.592C138.836 19.608 138.128 18.9 137.132 18.9C136.148 18.9 135.44 19.608 135.44 20.592C135.44 21.588 136.148 22.296 137.132 22.296ZM143.319 18.996C143.715 18.168 144.519 17.652 145.539 17.652V18.9C144.207 18.9 143.319 19.692 143.319 20.868V24H141.855V17.796H143.319V18.996ZM149.352 24.144C147.552 24.144 146.028 22.656 146.028 20.892C146.028 19.128 147.552 17.652 149.352 17.652C151.152 17.652 152.676 19.128 152.676 20.892C152.676 22.656 151.152 24.144 149.352 24.144ZM149.352 22.896C150.372 22.896 151.236 21.984 151.236 20.892C151.236 19.812 150.372 18.9 149.352 18.9C148.32 18.9 147.456 19.812 147.456 20.892C147.456 21.984 148.32 22.896 149.352 22.896ZM157.209 17.652C158.565 17.652 159.513 18.648 159.513 20.052V24H158.097V20.34C158.097 19.5 157.557 18.9 156.789 18.9C156.021 18.9 155.385 19.416 155.289 20.076V24H153.825V17.796H155.289V18.624C155.673 18.048 156.393 17.652 157.209 17.652ZM165.699 15.612H167.163V24H165.699V23.04C165.207 23.736 164.463 24.144 163.551 24.144C161.907 24.144 160.707 22.8 160.707 20.892C160.707 18.996 161.907 17.652 163.551 17.652C164.463 17.652 165.207 18.06 165.699 18.756V15.612ZM163.947 22.896C164.979 22.896 165.699 22.056 165.699 20.892C165.699 19.728 164.979 18.9 163.947 18.9C162.903 18.9 162.159 19.728 162.159 20.892C162.159 22.056 162.903 22.896 163.947 22.896Z" fill="#DFDEDE"/>
<rect x="16" y="34" width="280" height="6" fill="#9F9F9E"/>
<rect x="16" y="44" width="94" height="6" fill="#9F9F9E"/>
</g>
<defs>
<clipPath id="clip0_101_49">
<rect width="312" height="129" rx="16" fill="white"/>
</clipPath>
</defs>
</svg>

