<svg width="312" height="129" viewBox="0 0 312 129" fill="none" xmlns="http://www.w3.org/2000/svg">
<g clip-path="url(#clip0_101_83)">
<rect width="312" height="129" rx="16" fill="#EDEDEC"/>
<rect x="17" y="61" width="270" height="233" rx="24" fill="#E9E9E8"/>
<rect x="17" y="61" width="270" height="233" rx="24" stroke="#CECECF" stroke-width="2"/>
<rect x="30" y="74" width="42.6926" height="42.6926" rx="16" fill="black"/>
<path d="M63.9885 93.747C63.6146 92.8612 62.9877 92.1055 62.1863 91.5744C61.3848 91.0434 60.4446 90.7606 59.4832 90.7615C58.6796 90.7554 57.8872 90.9486 57.1766 91.3241C56.4661 91.6994 55.8599 92.2451 55.4121 92.9124C55.1215 93.3468 54.9038 93.8259 54.7675 94.3304H47.9078C47.8596 94.1305 47.7937 93.9352 47.711 93.747C47.6369 93.5626 47.5461 93.3854 47.4396 93.2177L49.8958 90.7615C50.6372 91.1863 51.4772 91.4086 52.3317 91.4061C52.9846 91.4076 53.6311 91.276 54.2315 91.0193C55.1179 90.6457 55.8746 90.0191 56.4068 89.2178C56.939 88.4164 57.2232 87.476 57.2237 86.514C57.2261 85.7104 57.0305 84.9186 56.6542 84.2086C56.2779 83.4985 55.7324 82.8922 55.0661 82.443C54.2643 81.9015 53.3195 81.6109 52.352 81.6084C51.5485 81.6023 50.756 81.7955 50.0455 82.171C49.335 82.5463 48.7287 83.092 48.2809 83.7593C47.7424 84.5625 47.4521 85.5063 47.4464 86.4733C47.4291 87.1498 47.5539 87.8225 47.8128 88.4478C47.8793 88.6032 47.954 88.7549 48.0367 88.9024L45.5669 91.3653C44.8435 90.9678 44.0311 90.7601 43.2057 90.7615C42.4022 90.7554 41.6097 90.9486 40.8992 91.3241C40.1887 91.6994 39.5824 92.2451 39.1346 92.9124C38.5961 93.7156 38.3059 94.6594 38.3001 95.6264C38.2985 96.2816 38.4302 96.9302 38.6868 97.533C39.0568 98.4061 39.672 99.1532 40.4577 99.6839C41.2591 100.226 42.2042 100.517 43.1717 100.519C43.9754 100.521 44.7672 100.325 45.4772 99.9489C46.1873 99.5726 46.7937 99.0271 47.2428 98.3608C47.549 97.9333 47.7787 97.4557 47.9214 96.9495H54.7743C54.8279 97.1487 54.8959 97.3438 54.9779 97.533C55.0443 97.6884 55.1191 97.8402 55.2018 97.9876L52.7116 100.478C51.9886 100.079 51.176 99.8716 50.3504 99.8739C49.5469 99.8678 48.7544 100.061 48.0439 100.436C47.3334 100.812 46.7271 101.358 46.2793 102.025C45.7408 102.828 45.4506 103.772 45.4448 104.739C45.4432 105.394 45.5749 106.043 45.8315 106.645C46.2035 107.517 46.8183 108.264 47.6024 108.796C48.3399 109.291 49.198 109.575 50.0847 109.62C50.9715 109.664 51.8538 109.467 52.637 109.049C53.4202 108.631 54.0752 108.007 54.5317 107.246C54.9882 106.484 55.2292 105.613 55.2289 104.725C55.2271 104.073 55.0957 103.427 54.8422 102.825C54.7608 102.642 54.6725 102.459 54.5775 102.289L57.0269 99.84C57.7683 100.265 58.6084 100.487 59.4628 100.485C60.7592 100.481 62.0014 99.9644 62.9181 99.0478C63.8347 98.1311 64.3513 96.8889 64.3549 95.5925C64.3524 94.9595 64.2281 94.3329 63.9885 93.747ZM50.2622 85.6388C50.4329 85.2372 50.7155 84.8934 51.0764 84.6482C51.3901 84.4333 51.7531 84.3013 52.1316 84.2645C52.5101 84.2277 52.8917 84.2873 53.2409 84.4378C53.6459 84.6123 53.9907 84.9023 54.232 85.2716C54.4733 85.6408 54.6006 86.0729 54.5979 86.514C54.5979 87.1121 54.3608 87.6857 53.9385 88.1093C53.5162 88.5328 52.9433 88.7717 52.3453 88.7735C51.9734 88.7742 51.6072 88.6829 51.2793 88.5077C50.9513 88.3325 50.6718 88.0788 50.4658 87.7693C50.2584 87.4574 50.1312 87.0991 50.0957 86.7262C50.0602 86.3533 50.1174 85.9774 50.2622 85.632V85.6388ZM45.282 96.5288C45.1243 96.9039 44.8681 97.2292 44.5404 97.4704C44.2128 97.7115 43.8259 97.8594 43.421 97.8984C43.0161 97.9373 42.6081 97.8659 42.2404 97.6917C41.8728 97.5174 41.5593 97.2469 41.333 96.9088C41.1256 96.5969 40.9985 96.2385 40.963 95.8657C40.9275 95.4928 40.9846 95.1169 41.1295 94.7715C41.3002 94.37 41.5828 94.0261 41.9437 93.7808C42.3154 93.5269 42.7555 93.392 43.2057 93.3941C43.5064 93.3923 43.8044 93.4523 44.081 93.5705C44.4861 93.7451 44.8308 94.0351 45.0721 94.4043C45.3134 94.7735 45.4407 95.2057 45.438 95.6468C45.4463 95.9483 45.3932 96.2484 45.282 96.5288ZM52.4267 105.662C52.3118 105.934 52.1443 106.182 51.9338 106.39C51.7232 106.598 51.4738 106.762 51.1997 106.874C50.9256 106.985 50.6323 107.041 50.3363 107.04C50.0404 107.038 49.7478 106.978 49.4751 106.863C49.0764 106.687 48.7354 106.402 48.4913 106.042C48.2643 105.702 48.1336 105.307 48.1134 104.899C48.093 104.49 48.1838 104.084 48.3759 103.724C48.5681 103.363 48.8545 103.061 49.2045 102.851C49.5547 102.64 49.9553 102.528 50.364 102.527C50.6529 102.527 50.9388 102.585 51.2053 102.696C51.6104 102.871 51.9552 103.161 52.1965 103.53C52.4378 103.9 52.5651 104.332 52.5624 104.773C52.5781 105.075 52.5319 105.378 52.4267 105.662ZM61.5594 96.5288C61.4018 96.9039 61.1455 97.2292 60.8179 97.4704C60.4902 97.7115 60.1034 97.8594 59.6984 97.8984C59.2935 97.9373 58.8855 97.8659 58.5179 97.6917C58.1503 97.5174 57.8367 97.2469 57.6105 96.9088C57.4031 96.5969 57.2759 96.2385 57.2405 95.8657C57.205 95.4928 57.2621 95.1169 57.4069 94.7715C57.5776 94.37 57.8603 94.0261 58.2212 93.7808C58.5929 93.5269 59.033 93.392 59.4832 93.3941C59.7839 93.3923 60.0819 93.4523 60.3584 93.5705C60.7635 93.7451 61.1082 94.0351 61.3496 94.4043C61.5909 94.7735 61.7182 95.2057 61.7155 95.6468C61.7238 95.9483 61.6706 96.2484 61.5594 96.5288Z" fill="white"/>
<path d="M84.96 99V90.756H86.46L89.172 95.784L91.896 90.756H93.384V99H91.896V93.492L89.172 98.52L86.46 93.492V99H84.96ZM98.0434 99.144C96.2434 99.144 94.7194 97.656 94.7194 95.892C94.7194 94.128 96.2434 92.652 98.0434 92.652C99.8434 92.652 101.367 94.128 101.367 95.892C101.367 97.656 99.8434 99.144 98.0434 99.144ZM98.0434 97.896C99.0634 97.896 99.9274 96.984 99.9274 95.892C99.9274 94.812 99.0634 93.9 98.0434 93.9C97.0114 93.9 96.1474 94.812 96.1474 95.892C96.1474 96.984 97.0114 97.896 98.0434 97.896ZM102.265 99V97.932L105.553 94.08H102.337V92.796H107.485L107.473 93.864L104.173 97.716H107.509V99H102.265ZM109.458 91.86C108.99 91.86 108.618 91.464 108.618 91.02C108.618 90.576 108.99 90.192 109.458 90.192C109.914 90.192 110.286 90.576 110.286 91.02C110.286 91.464 109.914 91.86 109.458 91.86ZM108.714 99V92.796H110.178V99H108.714ZM111.676 99V90.612H113.14V99H111.676ZM114.638 99V90.612H116.102V99H114.638ZM120.3 92.652C121.944 92.652 122.964 93.696 122.964 95.268V99H121.536V98.256C121.08 98.832 120.3 99.144 119.58 99.144C118.26 99.144 117.264 98.364 117.264 97.164C117.264 95.94 118.404 95.1 119.796 95.1C120.36 95.1 120.972 95.22 121.536 95.436V95.268C121.536 94.548 121.14 93.852 120.012 93.852C119.424 93.852 118.86 94.056 118.332 94.32L117.828 93.3C118.704 92.868 119.52 92.652 120.3 92.652ZM119.904 98.076C120.612 98.076 121.368 97.716 121.536 97.056V96.36C121.08 96.204 120.564 96.12 120.012 96.12C119.28 96.12 118.692 96.528 118.692 97.116C118.692 97.704 119.208 98.076 119.904 98.076ZM134.031 90.756H135.699L132.255 99H130.587L127.143 90.756H128.799L131.415 97.008L134.031 90.756ZM136.67 99V90.756H140.258C142.022 90.756 143.342 91.884 143.342 93.492C143.342 95.1 142.022 96.228 140.258 96.228H138.17V99H136.67ZM138.17 94.848H140.09C141.11 94.848 141.818 94.332 141.818 93.492C141.818 92.652 141.11 92.136 140.09 92.136H138.17V94.848ZM144.51 99V90.756H146.01L150.366 96.552V90.756H151.854V99H150.366L146.01 93.204V99H144.51Z" fill="#1E1E1E"/>
<rect x="245" y="87" width="31.125" height="16.6" rx="8.3" fill="#0F84FF"/>
<path fill-rule="evenodd" clip-rule="evenodd" d="M267.825 101.525C271.263 101.525 274.05 98.7379 274.05 95.2999C274.05 91.862 271.263 89.075 267.825 89.075C264.387 89.075 261.6 91.862 261.6 95.2999C261.6 98.7379 264.387 101.525 267.825 101.525Z" fill="white"/>
<path d="M23.128 24L22.504 22.512H18.52L17.896 24H16.228L19.672 15.756H21.34L24.784 24H23.128ZM19.06 21.216H21.964L20.512 17.748L19.06 21.216ZM29.9074 17.796H31.3714V24H29.9074V23.172C29.5234 23.748 28.8034 24.144 27.9874 24.144C26.6314 24.144 25.6834 23.148 25.6834 21.744V17.796H27.0994V21.456C27.0994 22.296 27.6394 22.896 28.4074 22.896C29.1754 22.896 29.8114 22.38 29.9074 21.72V17.796ZM35.9608 22.668L36.3808 23.652C36.0328 23.952 35.5288 24.144 35.0608 24.144C34.0288 24.144 33.3088 23.4 33.3088 22.356V19.008H32.4088V17.796H33.3088V16.092H34.7368V17.796H36.1408V19.008H34.7368V22.176C34.7368 22.596 35.0008 22.896 35.3488 22.896C35.6008 22.896 35.8288 22.8 35.9608 22.668ZM40.3971 24.144C38.5971 24.144 37.0731 22.656 37.0731 20.892C37.0731 19.128 38.5971 17.652 40.3971 17.652C42.1971 17.652 43.7211 19.128 43.7211 20.892C43.7211 22.656 42.1971 24.144 40.3971 24.144ZM40.3971 22.896C41.4171 22.896 42.2811 21.984 42.2811 20.892C42.2811 19.812 41.4171 18.9 40.3971 18.9C39.3651 18.9 38.5011 19.812 38.5011 20.892C38.5011 21.984 39.3651 22.896 40.3971 22.896ZM46.3709 18.996C46.7669 18.168 47.5709 17.652 48.5909 17.652V18.9C47.2589 18.9 46.3709 19.692 46.3709 20.868V24H44.9069V17.796H46.3709V18.996ZM50.2996 16.86C49.8316 16.86 49.4596 16.464 49.4596 16.02C49.4596 15.576 49.8316 15.192 50.2996 15.192C50.7556 15.192 51.1276 15.576 51.1276 16.02C51.1276 16.464 50.7556 16.86 50.2996 16.86ZM49.5556 24V17.796H51.0196V24H49.5556ZM54.8096 24.144C53.8616 24.144 52.8416 23.808 52.0976 23.208L52.7576 22.188C53.3576 22.62 54.0536 22.908 54.8336 22.908C55.4216 22.908 55.8296 22.656 55.8296 22.272C55.8296 21.792 55.2896 21.636 54.5816 21.444C53.2376 21.096 52.3856 20.712 52.3736 19.608C52.3736 18.444 53.3336 17.652 54.7136 17.652C55.5656 17.652 56.4176 17.952 57.0896 18.396L56.4776 19.464C55.8896 19.092 55.2536 18.9 54.7136 18.9C54.1976 18.9 53.8016 19.104 53.8016 19.452C53.8016 19.848 54.1256 19.968 55.0736 20.244C56.1176 20.532 57.2456 20.892 57.2456 22.188C57.2456 23.376 56.2616 24.144 54.8096 24.144ZM61.2896 22.848C61.8656 22.848 62.5496 22.584 62.8976 22.224L63.8216 23.184C63.2816 23.76 62.2016 24.144 61.3016 24.144C59.5256 24.144 58.0616 22.788 58.0616 20.88C58.0616 19.02 59.4536 17.652 61.2176 17.652C63.1376 17.652 64.2536 19.104 64.2536 21.396H59.5736C59.7536 22.248 60.4016 22.848 61.2896 22.848ZM61.2776 18.948C60.4616 18.948 59.8016 19.464 59.5856 20.28H62.8496C62.6816 19.5 62.1536 18.948 61.2776 18.948ZM66.9026 18.996C67.2986 18.168 68.1026 17.652 69.1226 17.652V18.9C67.7906 18.9 66.9026 19.692 66.9026 20.868V24H65.4386V17.796H66.9026V18.996ZM76.2577 22.848C76.8337 22.848 77.5177 22.584 77.8657 22.224L78.7897 23.184C78.2497 23.76 77.1697 24.144 76.2697 24.144C74.4937 24.144 73.0297 22.788 73.0297 20.88C73.0297 19.02 74.4217 17.652 76.1857 17.652C78.1057 17.652 79.2217 19.104 79.2217 21.396H74.5417C74.7217 22.248 75.3697 22.848 76.2577 22.848ZM76.2457 18.948C75.4297 18.948 74.7697 19.464 74.5537 20.28H77.8177C77.6497 19.5 77.1217 18.948 76.2457 18.948ZM83.7547 17.652C85.1107 17.652 86.0587 18.648 86.0587 20.052V24H84.6427V20.34C84.6427 19.5 84.1027 18.9 83.3347 18.9C82.5667 18.9 81.9307 19.416 81.8347 20.076V24H80.3707V17.796H81.8347V18.624C82.2187 18.048 82.9387 17.652 83.7547 17.652ZM93.5065 17.652C95.1505 17.652 96.1705 18.696 96.1705 20.268V24H94.7425V23.256C94.2865 23.832 93.5065 24.144 92.7865 24.144C91.4665 24.144 90.4705 23.364 90.4705 22.164C90.4705 20.94 91.6105 20.1 93.0025 20.1C93.5665 20.1 94.1785 20.22 94.7425 20.436V20.268C94.7425 19.548 94.3465 18.852 93.2185 18.852C92.6305 18.852 92.0665 19.056 91.5385 19.32L91.0345 18.3C91.9105 17.868 92.7265 17.652 93.5065 17.652ZM93.1105 23.076C93.8185 23.076 94.5745 22.716 94.7425 22.056V21.36C94.2865 21.204 93.7705 21.12 93.2185 21.12C92.4865 21.12 91.8985 21.528 91.8985 22.116C91.8985 22.704 92.4145 23.076 93.1105 23.076ZM99.1357 18.996C99.5317 18.168 100.336 17.652 101.356 17.652V18.9C100.024 18.9 99.1357 19.692 99.1357 20.868V24H97.6717V17.796H99.1357V18.996ZM103.82 18.996C104.216 18.168 105.02 17.652 106.04 17.652V18.9C104.708 18.9 103.82 19.692 103.82 20.868V24H102.356V17.796H103.82V18.996ZM107.749 16.86C107.281 16.86 106.909 16.464 106.909 16.02C106.909 15.576 107.281 15.192 107.749 15.192C108.205 15.192 108.577 15.576 108.577 16.02C108.577 16.464 108.205 16.86 107.749 16.86ZM107.005 24V17.796H108.469V24H107.005ZM113.807 17.1H112.787L111.035 15.54L112.403 15.276L113.807 17.1ZM112.859 22.848C113.435 22.848 114.119 22.584 114.467 22.224L115.391 23.184C114.851 23.76 113.771 24.144 112.871 24.144C111.095 24.144 109.631 22.788 109.631 20.88C109.631 19.02 111.023 17.652 112.787 17.652C114.707 17.652 115.823 19.104 115.823 21.396H111.143C111.323 22.248 111.971 22.848 112.859 22.848ZM112.847 18.948C112.031 18.948 111.371 19.464 111.155 20.28H114.419C114.251 19.5 113.723 18.948 112.847 18.948ZM118.472 18.996C118.868 18.168 119.672 17.652 120.692 17.652V18.9C119.36 18.9 118.472 19.692 118.472 20.868V24H117.008V17.796H118.472V18.996ZM124.549 22.848C125.125 22.848 125.809 22.584 126.157 22.224L127.081 23.184C126.541 23.76 125.461 24.144 124.561 24.144C122.785 24.144 121.321 22.788 121.321 20.88C121.321 19.02 122.713 17.652 124.477 17.652C126.397 17.652 127.513 19.104 127.513 21.396H122.833C123.013 22.248 123.661 22.848 124.549 22.848ZM124.537 18.948C123.721 18.948 123.061 19.464 122.845 20.28H126.109C125.941 19.5 125.413 18.948 124.537 18.948ZM128.446 21.348V20.064H131.674V21.348H128.446ZM136.608 17.652C138.252 17.652 139.452 18.996 139.452 20.892C139.452 22.8 138.252 24.144 136.608 24.144C135.684 24.144 134.94 23.724 134.448 23.016V26.064H132.984V17.796H134.448V18.78C134.94 18.072 135.684 17.652 136.608 17.652ZM136.212 22.896C137.256 22.896 138 22.056 138 20.892C138 19.728 137.256 18.9 136.212 18.9C135.18 18.9 134.46 19.728 134.46 20.892C134.46 22.056 135.18 22.896 136.212 22.896ZM140.656 24V15.612H142.12V24H140.656ZM146.318 17.652C147.962 17.652 148.982 18.696 148.982 20.268V24H147.554V23.256C147.098 23.832 146.318 24.144 145.598 24.144C144.278 24.144 143.282 23.364 143.282 22.164C143.282 20.94 144.422 20.1 145.814 20.1C146.378 20.1 146.99 20.22 147.554 20.436V20.268C147.554 19.548 147.158 18.852 146.03 18.852C145.442 18.852 144.878 19.056 144.35 19.32L143.846 18.3C144.722 17.868 145.538 17.652 146.318 17.652ZM145.922 23.076C146.63 23.076 147.386 22.716 147.554 22.056V21.36C147.098 21.204 146.582 21.12 146.03 21.12C145.298 21.12 144.71 21.528 144.71 22.116C144.71 22.704 145.226 23.076 145.922 23.076ZM153.831 17.652C155.187 17.652 156.135 18.648 156.135 20.052V24H154.719V20.34C154.719 19.5 154.179 18.9 153.411 18.9C152.643 18.9 152.007 19.416 151.911 20.076V24H150.447V17.796H151.911V18.624C152.295 18.048 153.015 17.652 153.831 17.652Z" fill="#1E1E1E"/>
<rect x="16" y="34" width="280" height="6" fill="#CECECF"/>
<rect x="16" y="44" width="94" height="6" fill="#CECECF"/>
</g>
<defs>
<clipPath id="clip0_101_83">
<rect width="312" height="129" rx="16" fill="white"/>
</clipPath>
</defs>
</svg>

