<svg width="312" height="129" viewBox="0 0 312 129" fill="none" xmlns="http://www.w3.org/2000/svg">
<g clip-path="url(#clip0_101_134)">
<rect width="312" height="129" rx="16" fill="#EDEDEC"/>
<rect x="17" y="61" width="270" height="233" rx="24" fill="#E9E9E8"/>
<rect x="17" y="61" width="270" height="233" rx="24" stroke="#CECECF" stroke-width="2"/>
<rect x="30" y="74" width="42.6926" height="42.6926" rx="16" fill="black"/>
<path d="M63.9885 93.747C63.6146 92.8612 62.9877 92.1055 62.1863 91.5744C61.3848 91.0434 60.4446 90.7606 59.4832 90.7615C58.6796 90.7554 57.8872 90.9486 57.1766 91.3241C56.4661 91.6994 55.8599 92.2451 55.4121 92.9124C55.1215 93.3468 54.9038 93.8259 54.7675 94.3304H47.9078C47.8596 94.1305 47.7937 93.9352 47.711 93.747C47.6369 93.5626 47.5461 93.3854 47.4396 93.2177L49.8958 90.7615C50.6372 91.1863 51.4772 91.4086 52.3317 91.4061C52.9846 91.4076 53.6311 91.276 54.2315 91.0193C55.1179 90.6457 55.8746 90.0191 56.4068 89.2178C56.939 88.4164 57.2232 87.476 57.2237 86.514C57.2261 85.7104 57.0305 84.9186 56.6542 84.2086C56.2779 83.4985 55.7324 82.8922 55.0661 82.443C54.2643 81.9015 53.3195 81.6109 52.352 81.6084C51.5485 81.6023 50.756 81.7955 50.0455 82.171C49.335 82.5463 48.7287 83.092 48.2809 83.7593C47.7424 84.5625 47.4521 85.5063 47.4464 86.4733C47.4291 87.1498 47.5539 87.8225 47.8128 88.4478C47.8793 88.6032 47.954 88.7549 48.0367 88.9024L45.5669 91.3653C44.8435 90.9678 44.0311 90.7601 43.2057 90.7615C42.4022 90.7554 41.6097 90.9486 40.8992 91.3241C40.1887 91.6994 39.5824 92.2451 39.1346 92.9124C38.5961 93.7156 38.3059 94.6594 38.3001 95.6264C38.2985 96.2816 38.4302 96.9302 38.6868 97.533C39.0568 98.4061 39.672 99.1532 40.4577 99.6839C41.2591 100.226 42.2042 100.517 43.1717 100.519C43.9754 100.521 44.7672 100.325 45.4772 99.9489C46.1873 99.5726 46.7937 99.0271 47.2428 98.3608C47.549 97.9333 47.7787 97.4557 47.9214 96.9495H54.7743C54.8279 97.1487 54.8959 97.3438 54.9779 97.533C55.0443 97.6884 55.1191 97.8402 55.2018 97.9876L52.7116 100.478C51.9886 100.079 51.176 99.8716 50.3504 99.8739C49.5469 99.8678 48.7544 100.061 48.0439 100.436C47.3334 100.812 46.7271 101.358 46.2793 102.025C45.7408 102.828 45.4506 103.772 45.4448 104.739C45.4432 105.394 45.5749 106.043 45.8315 106.645C46.2035 107.517 46.8183 108.264 47.6024 108.796C48.3399 109.291 49.198 109.575 50.0847 109.62C50.9715 109.664 51.8538 109.467 52.637 109.049C53.4202 108.631 54.0752 108.007 54.5317 107.246C54.9882 106.484 55.2292 105.613 55.2289 104.725C55.2271 104.073 55.0957 103.427 54.8422 102.825C54.7608 102.642 54.6725 102.459 54.5775 102.289L57.0269 99.84C57.7683 100.265 58.6084 100.487 59.4628 100.485C60.7592 100.481 62.0014 99.9644 62.9181 99.0478C63.8347 98.1311 64.3513 96.8889 64.3549 95.5925C64.3524 94.9595 64.2281 94.3329 63.9885 93.747ZM50.2622 85.6388C50.4329 85.2372 50.7155 84.8934 51.0764 84.6482C51.3901 84.4333 51.7531 84.3013 52.1316 84.2645C52.5101 84.2277 52.8917 84.2873 53.2409 84.4378C53.6459 84.6123 53.9907 84.9023 54.232 85.2716C54.4733 85.6408 54.6006 86.0729 54.5979 86.514C54.5979 87.1121 54.3608 87.6857 53.9385 88.1093C53.5162 88.5328 52.9433 88.7717 52.3453 88.7735C51.9734 88.7742 51.6072 88.6829 51.2793 88.5077C50.9513 88.3325 50.6718 88.0788 50.4658 87.7693C50.2584 87.4574 50.1312 87.0991 50.0957 86.7262C50.0602 86.3533 50.1174 85.9774 50.2622 85.632V85.6388ZM45.282 96.5288C45.1243 96.9039 44.8681 97.2292 44.5404 97.4704C44.2128 97.7115 43.8259 97.8594 43.421 97.8984C43.0161 97.9373 42.6081 97.8659 42.2404 97.6917C41.8728 97.5174 41.5593 97.2469 41.333 96.9088C41.1256 96.5969 40.9985 96.2385 40.963 95.8657C40.9275 95.4928 40.9846 95.1169 41.1295 94.7715C41.3002 94.37 41.5828 94.0261 41.9437 93.7808C42.3154 93.5269 42.7555 93.392 43.2057 93.3941C43.5064 93.3923 43.8044 93.4523 44.081 93.5705C44.4861 93.7451 44.8308 94.0351 45.0721 94.4043C45.3134 94.7735 45.4407 95.2057 45.438 95.6468C45.4463 95.9483 45.3932 96.2484 45.282 96.5288ZM52.4267 105.662C52.3118 105.934 52.1443 106.182 51.9338 106.39C51.7232 106.598 51.4738 106.762 51.1997 106.874C50.9256 106.985 50.6323 107.041 50.3363 107.04C50.0404 107.038 49.7478 106.978 49.4751 106.863C49.0764 106.687 48.7354 106.402 48.4913 106.042C48.2643 105.702 48.1336 105.307 48.1134 104.899C48.093 104.49 48.1838 104.084 48.3759 103.724C48.5681 103.363 48.8545 103.061 49.2045 102.851C49.5547 102.64 49.9553 102.528 50.364 102.527C50.6529 102.527 50.9388 102.585 51.2053 102.696C51.6104 102.871 51.9552 103.161 52.1965 103.53C52.4378 103.9 52.5651 104.332 52.5624 104.773C52.5781 105.075 52.5319 105.378 52.4267 105.662ZM61.5594 96.5288C61.4018 96.9039 61.1455 97.2292 60.8179 97.4704C60.4902 97.7115 60.1034 97.8594 59.6984 97.8984C59.2935 97.9373 58.8855 97.8659 58.5179 97.6917C58.1503 97.5174 57.8367 97.2469 57.6105 96.9088C57.4031 96.5969 57.2759 96.2385 57.2405 95.8657C57.205 95.4928 57.2621 95.1169 57.4069 94.7715C57.5776 94.37 57.8603 94.0261 58.2212 93.7808C58.5929 93.5269 59.033 93.392 59.4832 93.3941C59.7839 93.3923 60.0819 93.4523 60.3584 93.5705C60.7635 93.7451 61.1082 94.0351 61.3496 94.4043C61.5909 94.7735 61.7182 95.2057 61.7155 95.6468C61.7238 95.9483 61.6706 96.2484 61.5594 96.5288Z" fill="white"/>
<path d="M84.96 99V90.756H86.46L89.172 95.784L91.896 90.756H93.384V99H91.896V93.492L89.172 98.52L86.46 93.492V99H84.96ZM98.0434 99.144C96.2434 99.144 94.7194 97.656 94.7194 95.892C94.7194 94.128 96.2434 92.652 98.0434 92.652C99.8434 92.652 101.367 94.128 101.367 95.892C101.367 97.656 99.8434 99.144 98.0434 99.144ZM98.0434 97.896C99.0634 97.896 99.9274 96.984 99.9274 95.892C99.9274 94.812 99.0634 93.9 98.0434 93.9C97.0114 93.9 96.1474 94.812 96.1474 95.892C96.1474 96.984 97.0114 97.896 98.0434 97.896ZM102.265 99V97.932L105.553 94.08H102.337V92.796H107.485L107.473 93.864L104.173 97.716H107.509V99H102.265ZM109.458 91.86C108.99 91.86 108.618 91.464 108.618 91.02C108.618 90.576 108.99 90.192 109.458 90.192C109.914 90.192 110.286 90.576 110.286 91.02C110.286 91.464 109.914 91.86 109.458 91.86ZM108.714 99V92.796H110.178V99H108.714ZM111.676 99V90.612H113.14V99H111.676ZM114.638 99V90.612H116.102V99H114.638ZM120.3 92.652C121.944 92.652 122.964 93.696 122.964 95.268V99H121.536V98.256C121.08 98.832 120.3 99.144 119.58 99.144C118.26 99.144 117.264 98.364 117.264 97.164C117.264 95.94 118.404 95.1 119.796 95.1C120.36 95.1 120.972 95.22 121.536 95.436V95.268C121.536 94.548 121.14 93.852 120.012 93.852C119.424 93.852 118.86 94.056 118.332 94.32L117.828 93.3C118.704 92.868 119.52 92.652 120.3 92.652ZM119.904 98.076C120.612 98.076 121.368 97.716 121.536 97.056V96.36C121.08 96.204 120.564 96.12 120.012 96.12C119.28 96.12 118.692 96.528 118.692 97.116C118.692 97.704 119.208 98.076 119.904 98.076ZM134.031 90.756H135.699L132.255 99H130.587L127.143 90.756H128.799L131.415 97.008L134.031 90.756ZM136.67 99V90.756H140.258C142.022 90.756 143.342 91.884 143.342 93.492C143.342 95.1 142.022 96.228 140.258 96.228H138.17V99H136.67ZM138.17 94.848H140.09C141.11 94.848 141.818 94.332 141.818 93.492C141.818 92.652 141.11 92.136 140.09 92.136H138.17V94.848ZM144.51 99V90.756H146.01L150.366 96.552V90.756H151.854V99H150.366L146.01 93.204V99H144.51Z" fill="#1E1E1E"/>
<rect x="245" y="87" width="31.125" height="16.6" rx="8.3" fill="#0F84FF"/>
<path fill-rule="evenodd" clip-rule="evenodd" d="M267.825 101.525C271.263 101.525 274.05 98.7379 274.05 95.2999C274.05 91.862 271.263 89.075 267.825 89.075C264.387 89.075 261.6 91.862 261.6 95.2999C261.6 98.7379 264.387 101.525 267.825 101.525Z" fill="white"/>
<path d="M16.852 24V15.756H20.44C22.204 15.756 23.524 16.884 23.524 18.492C23.524 20.1 22.204 21.228 20.44 21.228H18.352V24H16.852ZM18.352 19.848H20.272C21.292 19.848 22 19.332 22 18.492C22 17.652 21.292 17.136 20.272 17.136H18.352V19.848ZM27.4276 22.848C28.0036 22.848 28.6876 22.584 29.0356 22.224L29.9596 23.184C29.4196 23.76 28.3396 24.144 27.4396 24.144C25.6636 24.144 24.1996 22.788 24.1996 20.88C24.1996 19.02 25.5916 17.652 27.3556 17.652C29.2756 17.652 30.3916 19.104 30.3916 21.396H25.7116C25.8916 22.248 26.5396 22.848 27.4276 22.848ZM27.4156 18.948C26.5996 18.948 25.9396 19.464 25.7236 20.28H28.9876C28.8196 19.5 28.2916 18.948 27.4156 18.948ZM33.0406 18.996C33.4366 18.168 34.2406 17.652 35.2606 17.652V18.9C33.9286 18.9 33.0406 19.692 33.0406 20.868V24H31.5766V17.796H33.0406V18.996ZM43.3892 17.652C44.6852 17.652 45.6572 18.648 45.6572 20.052V24H44.2292V20.292C44.2292 19.476 43.7372 18.9 43.0292 18.9C42.2252 18.9 41.6732 19.44 41.6732 20.196V24H40.2452V20.292C40.2452 19.476 39.7532 18.9 39.0332 18.9C38.2412 18.9 37.6772 19.44 37.6772 20.196V24H36.2132V17.796H37.6772V18.636C37.9892 18.036 38.6252 17.652 39.4052 17.652C40.2812 17.652 41.0012 18.096 41.3852 18.828C41.6852 18.108 42.4652 17.652 43.3892 17.652ZM47.8649 16.86C47.3969 16.86 47.0249 16.464 47.0249 16.02C47.0249 15.576 47.3969 15.192 47.8649 15.192C48.3209 15.192 48.6929 15.576 48.6929 16.02C48.6929 16.464 48.3209 16.86 47.8649 16.86ZM47.1209 24V17.796H48.5849V24H47.1209ZM53.1789 22.668L53.5989 23.652C53.2509 23.952 52.7469 24.144 52.2789 24.144C51.2469 24.144 50.5269 23.4 50.5269 22.356V19.008H49.6269V17.796H50.5269V16.092H51.9549V17.796H53.3589V19.008H51.9549V22.176C51.9549 22.596 52.2189 22.896 52.5669 22.896C52.8189 22.896 53.0469 22.8 53.1789 22.668ZM55.3592 16.86C54.8912 16.86 54.5192 16.464 54.5192 16.02C54.5192 15.576 54.8912 15.192 55.3592 15.192C55.8152 15.192 56.1872 15.576 56.1872 16.02C56.1872 16.464 55.8152 16.86 55.3592 16.86ZM54.6152 24V17.796H56.0792V24H54.6152ZM59.0773 18.996C59.4733 18.168 60.2773 17.652 61.2973 17.652V18.9C59.9653 18.9 59.0773 19.692 59.0773 20.868V24H57.6133V17.796H59.0773V18.996ZM68.4324 22.848C69.0084 22.848 69.6924 22.584 70.0404 22.224L70.9644 23.184C70.4244 23.76 69.3444 24.144 68.4444 24.144C66.6684 24.144 65.2044 22.788 65.2044 20.88C65.2044 19.02 66.5964 17.652 68.3604 17.652C70.2804 17.652 71.3964 19.104 71.3964 21.396H66.7164C66.8964 22.248 67.5444 22.848 68.4324 22.848ZM68.4204 18.948C67.6044 18.948 66.9444 19.464 66.7284 20.28H69.9924C69.8244 19.5 69.2964 18.948 68.4204 18.948ZM75.9294 17.652C77.2854 17.652 78.2334 18.648 78.2334 20.052V24H76.8174V20.34C76.8174 19.5 76.2774 18.9 75.5094 18.9C74.7414 18.9 74.1054 19.416 74.0094 20.076V24H72.5454V17.796H74.0094V18.624C74.3934 18.048 75.1134 17.652 75.9294 17.652ZM85.2732 24.144C84.3252 24.144 83.3052 23.808 82.5612 23.208L83.2212 22.188C83.8212 22.62 84.5172 22.908 85.2972 22.908C85.8852 22.908 86.2932 22.656 86.2932 22.272C86.2932 21.792 85.7532 21.636 85.0452 21.444C83.7012 21.096 82.8492 20.712 82.8372 19.608C82.8372 18.444 83.7972 17.652 85.1772 17.652C86.0292 17.652 86.8812 17.952 87.5532 18.396L86.9412 19.464C86.3532 19.092 85.7172 18.9 85.1772 18.9C84.6612 18.9 84.2652 19.104 84.2652 19.452C84.2652 19.848 84.5892 19.968 85.5372 20.244C86.5812 20.532 87.7092 20.892 87.7092 22.188C87.7092 23.376 86.7252 24.144 85.2732 24.144ZM91.7532 22.848C92.3292 22.848 93.0132 22.584 93.3612 22.224L94.2852 23.184C93.7452 23.76 92.6652 24.144 91.7652 24.144C89.9892 24.144 88.5252 22.788 88.5252 20.88C88.5252 19.02 89.9172 17.652 91.6812 17.652C93.6012 17.652 94.7172 19.104 94.7172 21.396H90.0372C90.2172 22.248 90.8652 22.848 91.7532 22.848ZM91.7412 18.948C90.9252 18.948 90.2652 19.464 90.0492 20.28H93.3132C93.1452 19.5 92.6172 18.948 91.7412 18.948ZM100.486 17.796H101.95V23.34C101.95 24.936 100.606 26.064 98.7102 26.064C97.6422 26.064 96.6582 25.716 96.0462 25.236L96.5862 24.168C97.0182 24.564 97.7622 24.816 98.4942 24.816C99.7182 24.816 100.486 24.228 100.486 23.292V22.488C99.9942 23.148 99.2502 23.544 98.3622 23.544C96.7542 23.544 95.5662 22.32 95.5662 20.592C95.5662 18.864 96.7542 17.652 98.3622 17.652C99.2382 17.652 100.042 18.06 100.486 18.72V17.796ZM98.7822 22.296C99.7782 22.296 100.486 21.588 100.486 20.592C100.486 19.608 99.7782 18.9 98.7822 18.9C97.7982 18.9 97.0902 19.608 97.0902 20.592C97.0902 21.588 97.7982 22.296 98.7822 22.296ZM107.669 17.796H109.133V24H107.669V23.172C107.285 23.748 106.565 24.144 105.749 24.144C104.393 24.144 103.445 23.148 103.445 21.744V17.796H104.861V21.456C104.861 22.296 105.401 22.896 106.169 22.896C106.937 22.896 107.573 22.38 107.669 21.72V17.796ZM114.01 17.652C115.366 17.652 116.314 18.648 116.314 20.052V24H114.898V20.34C114.898 19.5 114.358 18.9 113.59 18.9C112.822 18.9 112.186 19.416 112.09 20.076V24H110.626V17.796H112.09V18.624C112.474 18.048 113.194 17.652 114.01 17.652ZM122.5 15.612H123.964V24H122.5V23.04C122.008 23.736 121.264 24.144 120.352 24.144C118.708 24.144 117.508 22.8 117.508 20.892C117.508 18.996 118.708 17.652 120.352 17.652C121.264 17.652 122.008 18.06 122.5 18.756V15.612ZM120.748 22.896C121.78 22.896 122.5 22.056 122.5 20.892C122.5 19.728 121.78 18.9 120.748 18.9C119.704 18.9 118.96 19.728 118.96 20.892C118.96 22.056 119.704 22.896 120.748 22.896ZM128.492 24.144C126.692 24.144 125.168 22.656 125.168 20.892C125.168 19.128 126.692 17.652 128.492 17.652C130.292 17.652 131.816 19.128 131.816 20.892C131.816 22.656 130.292 24.144 128.492 24.144ZM128.492 22.896C129.512 22.896 130.376 21.984 130.376 20.892C130.376 19.812 129.512 18.9 128.492 18.9C127.46 18.9 126.596 19.812 126.596 20.892C126.596 21.984 127.46 22.896 128.492 22.896ZM139.904 17.652C141.548 17.652 142.748 18.996 142.748 20.892C142.748 22.8 141.548 24.144 139.904 24.144C138.98 24.144 138.236 23.724 137.744 23.016V26.064H136.28V17.796H137.744V18.78C138.236 18.072 138.98 17.652 139.904 17.652ZM139.508 22.896C140.552 22.896 141.296 22.056 141.296 20.892C141.296 19.728 140.552 18.9 139.508 18.9C138.476 18.9 137.756 19.728 137.756 20.892C137.756 22.056 138.476 22.896 139.508 22.896ZM143.952 24V15.612H145.416V24H143.952ZM149.614 17.652C151.258 17.652 152.278 18.696 152.278 20.268V24H150.85V23.256C150.394 23.832 149.614 24.144 148.894 24.144C147.574 24.144 146.578 23.364 146.578 22.164C146.578 20.94 147.718 20.1 149.11 20.1C149.674 20.1 150.286 20.22 150.85 20.436V20.268C150.85 19.548 150.454 18.852 149.326 18.852C148.738 18.852 148.174 19.056 147.646 19.32L147.142 18.3C148.018 17.868 148.834 17.652 149.614 17.652ZM149.218 23.076C149.926 23.076 150.682 22.716 150.85 22.056V21.36C150.394 21.204 149.878 21.12 149.326 21.12C148.594 21.12 148.006 21.528 148.006 22.116C148.006 22.704 148.522 23.076 149.218 23.076ZM157.127 17.652C158.483 17.652 159.431 18.648 159.431 20.052V24H158.015V20.34C158.015 19.5 157.475 18.9 156.707 18.9C155.939 18.9 155.303 19.416 155.207 20.076V24H153.743V17.796H155.207V18.624C155.591 18.048 156.311 17.652 157.127 17.652ZM163.901 24.144C162.101 24.144 160.577 22.656 160.577 20.892C160.577 19.128 162.101 17.652 163.901 17.652C165.701 17.652 167.225 19.128 167.225 20.892C167.225 22.656 165.701 24.144 163.901 24.144ZM163.901 22.896C164.921 22.896 165.785 21.984 165.785 20.892C165.785 19.812 164.921 18.9 163.901 18.9C162.869 18.9 162.005 19.812 162.005 20.892C162.005 21.984 162.869 22.896 163.901 22.896Z" fill="#1E1E1E"/>
<rect x="16" y="34" width="280" height="6" fill="#CECECF"/>
<rect x="16" y="44" width="94" height="6" fill="#CECECF"/>
</g>
<defs>
<clipPath id="clip0_101_134">
<rect width="312" height="129" rx="16" fill="white"/>
</clipPath>
</defs>
</svg>

