<svg width="312" height="129" viewBox="0 0 312 129" fill="none" xmlns="http://www.w3.org/2000/svg">
<g clip-path="url(#clip0_101_117)">
<rect width="312" height="129" rx="16" fill="#2A2927"/>
<rect x="17" y="61" width="270" height="233" rx="24" fill="#2D2C2A"/>
<rect x="17" y="61" width="270" height="233" rx="24" stroke="#383835" stroke-width="2"/>
<rect x="30" y="74" width="42.6926" height="42.6926" rx="16" fill="black"/>
<path d="M63.9885 93.747C63.6146 92.8612 62.9877 92.1055 62.1863 91.5744C61.3848 91.0434 60.4446 90.7606 59.4832 90.7615C58.6796 90.7554 57.8872 90.9486 57.1766 91.3241C56.4661 91.6994 55.8599 92.2451 55.4121 92.9124C55.1215 93.3468 54.9038 93.8259 54.7675 94.3304H47.9078C47.8596 94.1305 47.7937 93.9352 47.711 93.747C47.6369 93.5626 47.5461 93.3854 47.4396 93.2177L49.8958 90.7615C50.6372 91.1863 51.4772 91.4086 52.3317 91.4061C52.9846 91.4076 53.6311 91.276 54.2315 91.0193C55.1179 90.6457 55.8746 90.0191 56.4068 89.2178C56.939 88.4164 57.2232 87.476 57.2237 86.514C57.2261 85.7104 57.0305 84.9186 56.6542 84.2086C56.2779 83.4985 55.7324 82.8922 55.0661 82.443C54.2643 81.9015 53.3195 81.6109 52.352 81.6084C51.5485 81.6023 50.756 81.7955 50.0455 82.171C49.335 82.5463 48.7287 83.092 48.2809 83.7593C47.7424 84.5625 47.4521 85.5063 47.4464 86.4733C47.4291 87.1498 47.5539 87.8225 47.8128 88.4478C47.8793 88.6032 47.954 88.7549 48.0367 88.9024L45.5669 91.3653C44.8435 90.9678 44.0311 90.7601 43.2057 90.7615C42.4022 90.7554 41.6097 90.9486 40.8992 91.3241C40.1887 91.6994 39.5824 92.2451 39.1346 92.9124C38.5961 93.7156 38.3059 94.6594 38.3001 95.6264C38.2985 96.2816 38.4302 96.9302 38.6868 97.533C39.0568 98.4061 39.672 99.1532 40.4577 99.6839C41.2591 100.226 42.2042 100.517 43.1717 100.519C43.9754 100.521 44.7672 100.325 45.4772 99.9489C46.1873 99.5726 46.7937 99.0271 47.2428 98.3608C47.549 97.9333 47.7787 97.4557 47.9214 96.9495H54.7743C54.8279 97.1487 54.8959 97.3438 54.9779 97.533C55.0443 97.6884 55.1191 97.8402 55.2018 97.9876L52.7116 100.478C51.9886 100.079 51.176 99.8716 50.3504 99.8739C49.5469 99.8678 48.7544 100.061 48.0439 100.436C47.3334 100.812 46.7271 101.358 46.2793 102.025C45.7408 102.828 45.4506 103.772 45.4448 104.739C45.4432 105.394 45.5749 106.043 45.8315 106.645C46.2035 107.517 46.8183 108.264 47.6024 108.796C48.3399 109.291 49.198 109.575 50.0847 109.62C50.9715 109.664 51.8538 109.467 52.637 109.049C53.4202 108.631 54.0752 108.007 54.5317 107.246C54.9882 106.484 55.2292 105.613 55.2289 104.725C55.2271 104.073 55.0957 103.427 54.8422 102.825C54.7608 102.642 54.6725 102.459 54.5775 102.289L57.0269 99.84C57.7683 100.265 58.6084 100.487 59.4628 100.485C60.7592 100.481 62.0014 99.9644 62.9181 99.0478C63.8347 98.1311 64.3513 96.8889 64.3549 95.5925C64.3524 94.9595 64.2281 94.3329 63.9885 93.747ZM50.2622 85.6388C50.4329 85.2372 50.7155 84.8934 51.0764 84.6482C51.3901 84.4333 51.7531 84.3013 52.1316 84.2645C52.5101 84.2277 52.8917 84.2873 53.2409 84.4378C53.6459 84.6123 53.9907 84.9023 54.232 85.2716C54.4733 85.6408 54.6006 86.0729 54.5979 86.514C54.5979 87.1121 54.3608 87.6857 53.9385 88.1093C53.5162 88.5328 52.9433 88.7717 52.3453 88.7735C51.9734 88.7742 51.6072 88.6829 51.2793 88.5077C50.9513 88.3325 50.6718 88.0788 50.4658 87.7693C50.2584 87.4574 50.1312 87.0991 50.0957 86.7262C50.0602 86.3533 50.1174 85.9774 50.2622 85.632V85.6388ZM45.282 96.5288C45.1243 96.9039 44.8681 97.2292 44.5404 97.4704C44.2128 97.7115 43.8259 97.8594 43.421 97.8984C43.0161 97.9373 42.6081 97.8659 42.2404 97.6917C41.8728 97.5174 41.5593 97.2469 41.333 96.9088C41.1256 96.5969 40.9985 96.2385 40.963 95.8657C40.9275 95.4928 40.9846 95.1169 41.1295 94.7715C41.3002 94.37 41.5828 94.0261 41.9437 93.7808C42.3154 93.5269 42.7555 93.392 43.2057 93.3941C43.5064 93.3923 43.8044 93.4523 44.081 93.5705C44.4861 93.7451 44.8308 94.0351 45.0721 94.4043C45.3134 94.7735 45.4407 95.2057 45.438 95.6468C45.4463 95.9483 45.3932 96.2484 45.282 96.5288ZM52.4267 105.662C52.3118 105.934 52.1443 106.182 51.9338 106.39C51.7232 106.598 51.4738 106.762 51.1997 106.874C50.9256 106.985 50.6323 107.041 50.3363 107.04C50.0404 107.038 49.7478 106.978 49.4751 106.863C49.0764 106.687 48.7354 106.402 48.4913 106.042C48.2643 105.702 48.1336 105.307 48.1134 104.899C48.093 104.49 48.1838 104.084 48.3759 103.724C48.5681 103.363 48.8545 103.061 49.2045 102.851C49.5547 102.64 49.9553 102.528 50.364 102.527C50.6529 102.527 50.9388 102.585 51.2053 102.696C51.6104 102.871 51.9552 103.161 52.1965 103.53C52.4378 103.9 52.5651 104.332 52.5624 104.773C52.5781 105.075 52.5319 105.378 52.4267 105.662ZM61.5594 96.5288C61.4018 96.9039 61.1455 97.2292 60.8179 97.4704C60.4902 97.7115 60.1034 97.8594 59.6984 97.8984C59.2935 97.9373 58.8855 97.8659 58.5179 97.6917C58.1503 97.5174 57.8367 97.2469 57.6105 96.9088C57.4031 96.5969 57.2759 96.2385 57.2405 95.8657C57.205 95.4928 57.2621 95.1169 57.4069 94.7715C57.5776 94.37 57.8603 94.0261 58.2212 93.7808C58.5929 93.5269 59.033 93.392 59.4832 93.3941C59.7839 93.3923 60.0819 93.4523 60.3584 93.5705C60.7635 93.7451 61.1082 94.0351 61.3496 94.4043C61.5909 94.7735 61.7182 95.2057 61.7155 95.6468C61.7238 95.9483 61.6706 96.2484 61.5594 96.5288Z" fill="white"/>
<path d="M84.96 99V90.756H86.46L89.172 95.784L91.896 90.756H93.384V99H91.896V93.492L89.172 98.52L86.46 93.492V99H84.96ZM98.0434 99.144C96.2434 99.144 94.7194 97.656 94.7194 95.892C94.7194 94.128 96.2434 92.652 98.0434 92.652C99.8434 92.652 101.367 94.128 101.367 95.892C101.367 97.656 99.8434 99.144 98.0434 99.144ZM98.0434 97.896C99.0634 97.896 99.9274 96.984 99.9274 95.892C99.9274 94.812 99.0634 93.9 98.0434 93.9C97.0114 93.9 96.1474 94.812 96.1474 95.892C96.1474 96.984 97.0114 97.896 98.0434 97.896ZM102.265 99V97.932L105.553 94.08H102.337V92.796H107.485L107.473 93.864L104.173 97.716H107.509V99H102.265ZM109.458 91.86C108.99 91.86 108.618 91.464 108.618 91.02C108.618 90.576 108.99 90.192 109.458 90.192C109.914 90.192 110.286 90.576 110.286 91.02C110.286 91.464 109.914 91.86 109.458 91.86ZM108.714 99V92.796H110.178V99H108.714ZM111.676 99V90.612H113.14V99H111.676ZM114.638 99V90.612H116.102V99H114.638ZM120.3 92.652C121.944 92.652 122.964 93.696 122.964 95.268V99H121.536V98.256C121.08 98.832 120.3 99.144 119.58 99.144C118.26 99.144 117.264 98.364 117.264 97.164C117.264 95.94 118.404 95.1 119.796 95.1C120.36 95.1 120.972 95.22 121.536 95.436V95.268C121.536 94.548 121.14 93.852 120.012 93.852C119.424 93.852 118.86 94.056 118.332 94.32L117.828 93.3C118.704 92.868 119.52 92.652 120.3 92.652ZM119.904 98.076C120.612 98.076 121.368 97.716 121.536 97.056V96.36C121.08 96.204 120.564 96.12 120.012 96.12C119.28 96.12 118.692 96.528 118.692 97.116C118.692 97.704 119.208 98.076 119.904 98.076ZM134.031 90.756H135.699L132.255 99H130.587L127.143 90.756H128.799L131.415 97.008L134.031 90.756ZM136.67 99V90.756H140.258C142.022 90.756 143.342 91.884 143.342 93.492C143.342 95.1 142.022 96.228 140.258 96.228H138.17V99H136.67ZM138.17 94.848H140.09C141.11 94.848 141.818 94.332 141.818 93.492C141.818 92.652 141.11 92.136 140.09 92.136H138.17V94.848ZM144.51 99V90.756H146.01L150.366 96.552V90.756H151.854V99H150.366L146.01 93.204V99H144.51Z" fill="#DFDEDE"/>
<rect x="245" y="87" width="31.125" height="16.6" rx="8.3" fill="#1673D7"/>
<path fill-rule="evenodd" clip-rule="evenodd" d="M267.825 101.525C271.263 101.525 274.05 98.7379 274.05 95.2999C274.05 91.862 271.263 89.075 267.825 89.075C264.387 89.075 261.6 91.862 261.6 95.2999C261.6 98.7379 264.387 101.525 267.825 101.525Z" fill="white"/>
<path d="M16.876 24V15.756H18.364V24H16.876ZM27.0824 17.652C28.3784 17.652 29.3504 18.648 29.3504 20.052V24H27.9224V20.292C27.9224 19.476 27.4304 18.9 26.7224 18.9C25.9184 18.9 25.3664 19.44 25.3664 20.196V24H23.9384V20.292C23.9384 19.476 23.4464 18.9 22.7264 18.9C21.9344 18.9 21.3704 19.44 21.3704 20.196V24H19.9064V17.796H21.3704V18.636C21.6824 18.036 22.3184 17.652 23.0984 17.652C23.9744 17.652 24.6944 18.096 25.0784 18.828C25.3784 18.108 26.1584 17.652 27.0824 17.652ZM39.7564 15.756H41.2564V24H39.7564V20.484H35.6404V24H34.1404V15.756H35.6404V19.116H39.7564V15.756ZM43.5407 16.86C43.0727 16.86 42.7007 16.464 42.7007 16.02C42.7007 15.576 43.0727 15.192 43.5407 15.192C43.9967 15.192 44.3687 15.576 44.3687 16.02C44.3687 16.464 43.9967 16.86 43.5407 16.86ZM42.7967 24V17.796H44.2607V24H42.7967ZM49.1427 17.652C50.4987 17.652 51.4467 18.648 51.4467 20.052V24H50.0307V20.34C50.0307 19.5 49.4907 18.9 48.7227 18.9C47.9547 18.9 47.3187 19.416 47.2227 20.076V24H45.7587V17.796H47.2227V18.624C47.6067 18.048 48.3267 17.652 49.1427 17.652ZM56.012 22.668L56.432 23.652C56.084 23.952 55.58 24.144 55.112 24.144C54.08 24.144 53.36 23.4 53.36 22.356V19.008H52.46V17.796H53.36V16.092H54.788V17.796H56.192V19.008H54.788V22.176C54.788 22.596 55.052 22.896 55.4 22.896C55.652 22.896 55.88 22.8 56.012 22.668ZM60.3404 22.848C60.9164 22.848 61.6004 22.584 61.9484 22.224L62.8724 23.184C62.3324 23.76 61.2524 24.144 60.3524 24.144C58.5764 24.144 57.1124 22.788 57.1124 20.88C57.1124 19.02 58.5044 17.652 60.2684 17.652C62.1884 17.652 63.3044 19.104 63.3044 21.396H58.6244C58.8044 22.248 59.4524 22.848 60.3404 22.848ZM60.3284 18.948C59.5124 18.948 58.8524 19.464 58.6364 20.28H61.9004C61.7324 19.5 61.2044 18.948 60.3284 18.948ZM65.9534 18.996C66.3494 18.168 67.1534 17.652 68.1734 17.652V18.9C66.8414 18.9 65.9534 19.692 65.9534 20.868V24H64.4894V17.796H65.9534V18.996ZM73.7581 17.796H75.2221V23.34C75.2221 24.936 73.8781 26.064 71.9821 26.064C70.9141 26.064 69.9301 25.716 69.3181 25.236L69.8581 24.168C70.2901 24.564 71.0341 24.816 71.7661 24.816C72.9901 24.816 73.7581 24.228 73.7581 23.292V22.488C73.2661 23.148 72.5221 23.544 71.6341 23.544C70.0261 23.544 68.8381 22.32 68.8381 20.592C68.8381 18.864 70.0261 17.652 71.6341 17.652C72.5101 17.652 73.3141 18.06 73.7581 18.72V17.796ZM72.0541 22.296C73.0501 22.296 73.7581 21.588 73.7581 20.592C73.7581 19.608 73.0501 18.9 72.0541 18.9C71.0701 18.9 70.3621 19.608 70.3621 20.592C70.3621 21.588 71.0701 22.296 72.0541 22.296ZM78.2407 18.996C78.6367 18.168 79.4407 17.652 80.4607 17.652V18.9C79.1287 18.9 78.2407 19.692 78.2407 20.868V24H76.7767V17.796H78.2407V18.996ZM85.6254 17.796H87.0894V24H85.6254V23.172C85.2414 23.748 84.5214 24.144 83.7054 24.144C82.3494 24.144 81.4014 23.148 81.4014 21.744V17.796H82.8174V21.456C82.8174 22.296 83.3574 22.896 84.1254 22.896C84.8934 22.896 85.5294 22.38 85.6254 21.72V17.796ZM91.9667 17.652C93.3227 17.652 94.2707 18.648 94.2707 20.052V24H92.8547V20.34C92.8547 19.5 92.3147 18.9 91.5467 18.9C90.7787 18.9 90.1427 19.416 90.0467 20.076V24H88.5827V17.796H90.0467V18.624C90.4307 18.048 91.1507 17.652 91.9667 17.652ZM100.456 15.612H101.92V24H100.456V23.04C99.9641 23.736 99.2201 24.144 98.3081 24.144C96.6641 24.144 95.4641 22.8 95.4641 20.892C95.4641 18.996 96.6641 17.652 98.3081 17.652C99.2201 17.652 99.9641 18.06 100.456 18.756V15.612ZM98.7041 22.896C99.7361 22.896 100.456 22.056 100.456 20.892C100.456 19.728 99.7361 18.9 98.7041 18.9C97.6601 18.9 96.9161 19.728 96.9161 20.892C96.9161 22.056 97.6601 22.896 98.7041 22.896ZM109.619 22.848C110.195 22.848 110.879 22.584 111.227 22.224L112.151 23.184C111.611 23.76 110.531 24.144 109.631 24.144C107.855 24.144 106.391 22.788 106.391 20.88C106.391 19.02 107.783 17.652 109.547 17.652C111.467 17.652 112.583 19.104 112.583 21.396H107.903C108.083 22.248 108.731 22.848 109.619 22.848ZM109.607 18.948C108.791 18.948 108.131 19.464 107.915 20.28H111.179C111.011 19.5 110.483 18.948 109.607 18.948ZM115.232 18.996C115.628 18.168 116.432 17.652 117.452 17.652V18.9C116.12 18.9 115.232 19.692 115.232 20.868V24H113.768V17.796H115.232V18.996ZM118.416 24V15.612H119.88V24H118.416ZM124.078 17.652C125.722 17.652 126.742 18.696 126.742 20.268V24H125.314V23.256C124.858 23.832 124.078 24.144 123.358 24.144C122.038 24.144 121.042 23.364 121.042 22.164C121.042 20.94 122.182 20.1 123.574 20.1C124.138 20.1 124.75 20.22 125.314 20.436V20.268C125.314 19.548 124.918 18.852 123.79 18.852C123.202 18.852 122.638 19.056 122.11 19.32L121.606 18.3C122.482 17.868 123.298 17.652 124.078 17.652ZM123.682 23.076C124.39 23.076 125.146 22.716 125.314 22.056V21.36C124.858 21.204 124.342 21.12 123.79 21.12C123.058 21.12 122.47 21.528 122.47 22.116C122.47 22.704 122.986 23.076 123.682 23.076ZM132.408 17.796H133.872V24H132.408V23.172C132.024 23.748 131.304 24.144 130.488 24.144C129.132 24.144 128.184 23.148 128.184 21.744V17.796H129.6V21.456C129.6 22.296 130.14 22.896 130.908 22.896C131.676 22.896 132.312 22.38 132.408 21.72V17.796ZM139.025 17.652C140.669 17.652 141.869 18.996 141.869 20.892C141.869 22.8 140.669 24.144 139.025 24.144C138.101 24.144 137.357 23.724 136.865 23.016V24H135.401V15.612H136.865V18.78C137.357 18.072 138.101 17.652 139.025 17.652ZM138.629 22.896C139.673 22.896 140.417 22.056 140.417 20.892C140.417 19.728 139.673 18.9 138.629 18.9C137.597 18.9 136.877 19.728 136.877 20.892C136.877 22.056 137.597 22.896 138.629 22.896ZM145.965 22.848C146.541 22.848 147.225 22.584 147.573 22.224L148.497 23.184C147.957 23.76 146.877 24.144 145.977 24.144C144.201 24.144 142.737 22.788 142.737 20.88C142.737 19.02 144.129 17.652 145.893 17.652C147.813 17.652 148.929 19.104 148.929 21.396H144.249C144.429 22.248 145.077 22.848 145.965 22.848ZM145.953 18.948C145.137 18.948 144.477 19.464 144.261 20.28H147.525C147.357 19.5 146.829 18.948 145.953 18.948ZM153.462 17.652C154.818 17.652 155.766 18.648 155.766 20.052V24H154.35V20.34C154.35 19.5 153.81 18.9 153.042 18.9C152.274 18.9 151.638 19.416 151.542 20.076V24H150.078V17.796H151.542V18.624C151.926 18.048 152.646 17.652 153.462 17.652Z" fill="#DFDEDE"/>
<rect x="16" y="34" width="280" height="6" fill="#9F9F9E"/>
<rect x="16" y="44" width="94" height="6" fill="#9F9F9E"/>
</g>
<defs>
<clipPath id="clip0_101_117">
<rect width="312" height="129" rx="16" fill="white"/>
</clipPath>
</defs>
</svg>

