<?xml version="1.0" encoding="UTF-8" standalone="no"?>
<svg
   width="312"
   height="129"
   viewBox="0 0 312 129"
   fill="none"
   version="1.1"
   id="svg9"
   sodipodi:docname="macos-permission-dark.svg"
   inkscape:version="1.4.4 (dcaf3e7d9e, 2026-05-05)"
   xmlns:inkscape="http://www.inkscape.org/namespaces/inkscape"
   xmlns:sodipodi="http://sodipodi.sourceforge.net/DTD/sodipodi-0.dtd"
   xmlns="http://www.w3.org/2000/svg"
   xmlns:svg="http://www.w3.org/2000/svg">
  <sodipodi:namedview
     id="namedview9"
     pagecolor="#ffffff"
     bordercolor="#000000"
     borderopacity="0.25"
     inkscape:showpageshadow="2"
     inkscape:pageopacity="0.0"
     inkscape:pagecheckerboard="0"
     inkscape:deskcolor="#d1d1d1"
     inkscape:zoom="4.2820513"
     inkscape:cx="156.23353"
     inkscape:cy="64.45509"
     inkscape:window-width="1920"
     inkscape:window-height="1011"
     inkscape:window-x="0"
     inkscape:window-y="0"
     inkscape:window-maximized="1"
     inkscape:current-layer="g8" />
  <g
     clip-path="url(#clip0_48_141)"
     id="g8">
    <rect
       width="312"
       height="129"
       rx="16"
       fill="#2A2927"
       id="rect1" />
    <rect
       x="17"
       y="61"
       width="270"
       height="233"
       rx="24"
       fill="#2D2C2A"
       id="rect2" />
    <rect
       x="17"
       y="61"
       width="270"
       height="233"
       rx="24"
       stroke="#383835"
       stroke-width="2"
       id="rect3" />
    <rect
       x="30"
       y="74"
       width="42.6926"
       height="42.6926"
       rx="16"
       fill="black"
       id="rect4" />
    <path
       d="M63.9884 93.747C63.6145 92.8613 62.9877 92.1055 62.1862 91.5745C61.3848 91.0434 60.4446 90.7607 59.4831 90.7616C58.6796 90.7554 57.8871 90.9487 57.1766 91.3241C56.4661 91.6995 55.8598 92.2452 55.4121 92.9124C55.1215 93.3469 54.9037 93.8259 54.7675 94.3305H47.9077C47.8595 94.1305 47.7937 93.9353 47.711 93.747C47.6369 93.5627 47.546 93.3855 47.4396 93.2177L49.8957 90.7616C50.6371 91.1863 51.4772 91.4086 52.3316 91.4061C52.9846 91.4076 53.631 91.2761 54.2314 91.0193C55.1179 90.6458 55.8746 90.0191 56.4067 89.2178C56.939 88.4165 57.2231 87.476 57.2237 86.514C57.2261 85.7105 57.0305 84.9186 56.6542 84.2086C56.2778 83.4986 55.7324 82.8922 55.066 82.443C54.2643 81.9015 53.3195 81.611 52.352 81.6085C51.5485 81.6023 50.756 81.7956 50.0455 82.171C49.3349 82.5464 48.7287 83.0921 48.2809 83.7593C47.7424 84.5625 47.4521 85.5064 47.4463 86.4734C47.429 87.1499 47.5538 87.8225 47.8127 88.4478C47.8793 88.6032 47.954 88.755 48.0367 88.9024L45.5669 91.3654C44.8435 90.9679 44.0311 90.7601 43.2057 90.7616C42.4022 90.7554 41.6096 90.9487 40.8992 91.3241C40.1886 91.6995 39.5824 92.2452 39.1346 92.9124C38.596 93.7156 38.3058 94.6595 38.3 95.6265C38.2985 96.2816 38.4301 96.9303 38.6868 97.533C39.0568 98.4061 39.6719 99.1532 40.4577 99.6839C41.2591 100.226 42.2041 100.517 43.1717 100.519C43.9753 100.521 44.7672 100.325 45.4772 99.949C46.1872 99.5726 46.7936 99.0272 47.2428 98.3608C47.549 97.9333 47.7786 97.4557 47.9213 96.9496H54.7743C54.8278 97.1488 54.8959 97.3438 54.9778 97.533C55.0443 97.6885 55.1191 97.8402 55.2017 97.9877L52.7116 100.478C51.9885 100.079 51.1759 99.8716 50.3504 99.8739C49.5469 99.8678 48.7543 100.061 48.0439 100.436C47.3334 100.812 46.7271 101.358 46.2793 102.025C45.7408 102.828 45.4505 103.772 45.4447 104.739C45.4432 105.394 45.5748 106.043 45.8315 106.645C46.2035 107.517 46.8182 108.264 47.6024 108.796C48.3399 109.291 49.1979 109.575 50.0847 109.62C50.9715 109.664 51.8537 109.467 52.6369 109.049C53.4202 108.631 54.0751 108.008 54.5317 107.246C54.9882 106.484 55.2292 105.613 55.2288 104.725C55.2271 104.073 55.0956 103.427 54.8421 102.825C54.7607 102.642 54.6725 102.459 54.5775 102.289L57.0269 99.84C57.7683 100.265 58.6083 100.487 59.4627 100.485C60.7591 100.481 62.0014 99.9645 62.918 99.0478C63.8347 98.1311 64.3512 96.8889 64.3548 95.5925C64.3524 94.9596 64.228 94.3329 63.9884 93.747ZM50.2622 85.6388C50.4329 85.2373 50.7155 84.8934 51.0763 84.6482C51.3901 84.4333 51.7531 84.3013 52.1315 84.2645C52.51 84.2277 52.8916 84.2874 53.2408 84.4379C53.6459 84.6124 53.9906 84.9024 54.2319 85.2716C54.4733 85.6409 54.6005 86.073 54.5978 86.514C54.5978 87.1121 54.3607 87.6858 53.9385 88.1094C53.5162 88.5329 52.9432 88.7717 52.3452 88.7735C51.9734 88.7743 51.6071 88.6829 51.2792 88.5077C50.9513 88.3325 50.6718 88.0788 50.4657 87.7693C50.2583 87.4574 50.1312 87.0991 50.0957 86.7262C50.0601 86.3534 50.1173 85.9774 50.2622 85.632V85.6388ZM45.2819 96.5289C45.1243 96.9039 44.868 97.2293 44.5404 97.4705C44.2127 97.7116 43.8259 97.8594 43.4209 97.8985C43.016 97.9374 42.6081 97.8659 42.2404 97.6917C41.8728 97.5175 41.5592 97.247 41.333 96.9088C41.1255 96.5969 40.9985 96.2386 40.9629 95.8657C40.9274 95.4928 40.9846 95.117 41.1294 94.7716C41.3001 94.3701 41.5828 94.0262 41.9436 93.7809C42.3153 93.527 42.7555 93.392 43.2057 93.3942C43.5064 93.3923 43.8044 93.4524 44.081 93.5706C44.486 93.7451 44.8307 94.0352 45.0721 94.4044C45.3134 94.7736 45.4406 95.2057 45.4379 95.6468C45.4462 95.9484 45.3932 96.2485 45.2819 96.5289ZM52.4266 105.662C52.3117 105.934 52.1442 106.182 51.9337 106.39C51.7232 106.598 51.4738 106.762 51.1997 106.874C50.9256 106.985 50.6322 107.042 50.3363 107.04C50.0404 107.038 49.7477 106.978 49.4751 106.863C49.0764 106.687 48.7354 106.402 48.4912 106.042C48.2642 105.702 48.1336 105.307 48.1133 104.899C48.093 104.491 48.1837 104.085 48.3759 103.724C48.568 103.363 48.8544 103.061 49.2045 102.851C49.5546 102.64 49.9553 102.528 50.3639 102.527C50.6528 102.527 50.9388 102.585 51.2053 102.697C51.6104 102.871 51.9551 103.161 52.1964 103.53C52.4378 103.9 52.565 104.332 52.5623 104.773C52.578 105.075 52.5318 105.378 52.4266 105.662ZM61.5594 96.5289C61.4017 96.9039 61.1455 97.2293 60.8178 97.4705C60.4902 97.7116 60.1034 97.8594 59.6984 97.8985C59.2934 97.9374 58.8855 97.8659 58.5178 97.6917C58.1502 97.5175 57.8367 97.247 57.6104 96.9088C57.403 96.5969 57.2759 96.2386 57.2404 95.8657C57.2049 95.4928 57.2621 95.117 57.4069 94.7716C57.5776 94.3701 57.8602 94.0262 58.2211 93.7809C58.5928 93.527 59.0329 93.392 59.4831 93.3942C59.7839 93.3923 60.0818 93.4524 60.3584 93.5706C60.7635 93.7451 61.1082 94.0352 61.3495 94.4044C61.5908 94.7736 61.7181 95.2057 61.7154 95.6468C61.7237 95.9484 61.6706 96.2485 61.5594 96.5289Z"
       fill="white"
       id="path4" />
    <rect
       x="245"
       y="87"
       width="31.125"
       height="16.6"
       rx="8.3"
       fill="#1673D7"
       id="rect5" />
    <path
       fill-rule="evenodd"
       clip-rule="evenodd"
       d="M267.825 101.525C271.263 101.525 274.05 98.738 274.05 95.3C274.05 91.862 271.263 89.075 267.825 89.075C264.387 89.075 261.6 91.862 261.6 95.3C261.6 98.738 264.387 101.525 267.825 101.525Z"
       fill="white"
       id="path6" />
    <rect
       x="16"
       y="34"
       width="280"
       height="6"
       fill="#9F9F9E"
       id="rect7" />
    <rect
       x="16"
       y="44"
       width="94"
       height="6"
       fill="#9F9F9E"
       id="rect8" />
  </g>
  <defs
     id="defs9">
    <clipPath
       id="clip0_48_141">
      <rect
         width="312"
         height="129"
         rx="16"
         fill="white"
         id="rect9" />
    </clipPath>
  </defs>
</svg>
