<svg width="312" height="129" viewBox="0 0 312 129" fill="none" xmlns="http://www.w3.org/2000/svg">
<g clip-path="url(#clip0_101_100)">
<rect width="312" height="129" rx="16" fill="#2A2927"/>
<rect x="17" y="61" width="270" height="233" rx="24" fill="#2D2C2A"/>
<rect x="17" y="61" width="270" height="233" rx="24" stroke="#383835" stroke-width="2"/>
<rect x="30" y="74" width="42.6926" height="42.6926" rx="16" fill="black"/>
<path d="M63.9885 93.747C63.6146 92.8612 62.9877 92.1055 62.1863 91.5744C61.3848 91.0434 60.4446 90.7606 59.4832 90.7615C58.6796 90.7554 57.8872 90.9486 57.1766 91.3241C56.4661 91.6994 55.8599 92.2451 55.4121 92.9124C55.1215 93.3468 54.9038 93.8259 54.7675 94.3304H47.9078C47.8596 94.1305 47.7937 93.9352 47.711 93.747C47.6369 93.5626 47.5461 93.3854 47.4396 93.2177L49.8958 90.7615C50.6372 91.1863 51.4772 91.4086 52.3317 91.4061C52.9846 91.4076 53.6311 91.276 54.2315 91.0193C55.1179 90.6457 55.8746 90.0191 56.4068 89.2178C56.939 88.4164 57.2232 87.476 57.2237 86.514C57.2261 85.7104 57.0305 84.9186 56.6542 84.2086C56.2779 83.4985 55.7324 82.8922 55.0661 82.443C54.2643 81.9015 53.3195 81.6109 52.352 81.6084C51.5485 81.6023 50.756 81.7955 50.0455 82.171C49.335 82.5463 48.7287 83.092 48.2809 83.7593C47.7424 84.5625 47.4521 85.5063 47.4464 86.4733C47.4291 87.1498 47.5539 87.8225 47.8128 88.4478C47.8793 88.6032 47.954 88.7549 48.0367 88.9024L45.5669 91.3653C44.8435 90.9678 44.0311 90.7601 43.2057 90.7615C42.4022 90.7554 41.6097 90.9486 40.8992 91.3241C40.1887 91.6994 39.5824 92.2451 39.1346 92.9124C38.5961 93.7156 38.3059 94.6594 38.3001 95.6264C38.2985 96.2816 38.4302 96.9302 38.6868 97.533C39.0568 98.4061 39.672 99.1532 40.4577 99.6839C41.2591 100.226 42.2042 100.517 43.1717 100.519C43.9754 100.521 44.7672 100.325 45.4772 99.9489C46.1873 99.5726 46.7937 99.0271 47.2428 98.3608C47.549 97.9333 47.7787 97.4557 47.9214 96.9495H54.7743C54.8279 97.1487 54.8959 97.3438 54.9779 97.533C55.0443 97.6884 55.1191 97.8402 55.2018 97.9876L52.7116 100.478C51.9886 100.079 51.176 99.8716 50.3504 99.8739C49.5469 99.8678 48.7544 100.061 48.0439 100.436C47.3334 100.812 46.7271 101.358 46.2793 102.025C45.7408 102.828 45.4506 103.772 45.4448 104.739C45.4432 105.394 45.5749 106.043 45.8315 106.645C46.2035 107.517 46.8183 108.264 47.6024 108.796C48.3399 109.291 49.198 109.575 50.0847 109.62C50.9715 109.664 51.8538 109.467 52.637 109.049C53.4202 108.631 54.0752 108.007 54.5317 107.246C54.9882 106.484 55.2292 105.613 55.2289 104.725C55.2271 104.073 55.0957 103.427 54.8422 102.825C54.7608 102.642 54.6725 102.459 54.5775 102.289L57.0269 99.84C57.7683 100.265 58.6084 100.487 59.4628 100.485C60.7592 100.481 62.0014 99.9644 62.9181 99.0478C63.8347 98.1311 64.3513 96.8889 64.3549 95.5925C64.3524 94.9595 64.2281 94.3329 63.9885 93.747ZM50.2622 85.6388C50.4329 85.2372 50.7155 84.8934 51.0764 84.6482C51.3901 84.4333 51.7531 84.3013 52.1316 84.2645C52.5101 84.2277 52.8917 84.2873 53.2409 84.4378C53.6459 84.6123 53.9907 84.9023 54.232 85.2716C54.4733 85.6408 54.6006 86.0729 54.5979 86.514C54.5979 87.1121 54.3608 87.6857 53.9385 88.1093C53.5162 88.5328 52.9433 88.7717 52.3453 88.7735C51.9734 88.7742 51.6072 88.6829 51.2793 88.5077C50.9513 88.3325 50.6718 88.0788 50.4658 87.7693C50.2584 87.4574 50.1312 87.0991 50.0957 86.7262C50.0602 86.3533 50.1174 85.9774 50.2622 85.632V85.6388ZM45.282 96.5288C45.1243 96.9039 44.8681 97.2292 44.5404 97.4704C44.2128 97.7115 43.8259 97.8594 43.421 97.8984C43.0161 97.9373 42.6081 97.8659 42.2404 97.6917C41.8728 97.5174 41.5593 97.2469 41.333 96.9088C41.1256 96.5969 40.9985 96.2385 40.963 95.8657C40.9275 95.4928 40.9846 95.1169 41.1295 94.7715C41.3002 94.37 41.5828 94.0261 41.9437 93.7808C42.3154 93.5269 42.7555 93.392 43.2057 93.3941C43.5064 93.3923 43.8044 93.4523 44.081 93.5705C44.4861 93.7451 44.8308 94.0351 45.0721 94.4043C45.3134 94.7735 45.4407 95.2057 45.438 95.6468C45.4463 95.9483 45.3932 96.2484 45.282 96.5288ZM52.4267 105.662C52.3118 105.934 52.1443 106.182 51.9338 106.39C51.7232 106.598 51.4738 106.762 51.1997 106.874C50.9256 106.985 50.6323 107.041 50.3363 107.04C50.0404 107.038 49.7478 106.978 49.4751 106.863C49.0764 106.687 48.7354 106.402 48.4913 106.042C48.2643 105.702 48.1336 105.307 48.1134 104.899C48.093 104.49 48.1838 104.084 48.3759 103.724C48.5681 103.363 48.8545 103.061 49.2045 102.851C49.5547 102.64 49.9553 102.528 50.364 102.527C50.6529 102.527 50.9388 102.585 51.2053 102.696C51.6104 102.871 51.9552 103.161 52.1965 103.53C52.4378 103.9 52.5651 104.332 52.5624 104.773C52.5781 105.075 52.5319 105.378 52.4267 105.662ZM61.5594 96.5288C61.4018 96.9039 61.1455 97.2292 60.8179 97.4704C60.4902 97.7115 60.1034 97.8594 59.6984 97.8984C59.2935 97.9373 58.8855 97.8659 58.5179 97.6917C58.1503 97.5174 57.8367 97.2469 57.6105 96.9088C57.4031 96.5969 57.2759 96.2385 57.2405 95.8657C57.205 95.4928 57.2621 95.1169 57.4069 94.7715C57.5776 94.37 57.8603 94.0261 58.2212 93.7808C58.5929 93.5269 59.033 93.392 59.4832 93.3941C59.7839 93.3923 60.0819 93.4523 60.3584 93.5705C60.7635 93.7451 61.1082 94.0351 61.3496 94.4043C61.5909 94.7735 61.7182 95.2057 61.7155 95.6468C61.7238 95.9483 61.6706 96.2484 61.5594 96.5288Z" fill="white"/>
<path d="M84.96 99V90.756H86.46L89.172 95.784L91.896 90.756H93.384V99H91.896V93.492L89.172 98.52L86.46 93.492V99H84.96ZM98.0434 99.144C96.2434 99.144 94.7194 97.656 94.7194 95.892C94.7194 94.128 96.2434 92.652 98.0434 92.652C99.8434 92.652 101.367 94.128 101.367 95.892C101.367 97.656 99.8434 99.144 98.0434 99.144ZM98.0434 97.896C99.0634 97.896 99.9274 96.984 99.9274 95.892C99.9274 94.812 99.0634 93.9 98.0434 93.9C97.0114 93.9 96.1474 94.812 96.1474 95.892C96.1474 96.984 97.0114 97.896 98.0434 97.896ZM102.265 99V97.932L105.553 94.08H102.337V92.796H107.485L107.473 93.864L104.173 97.716H107.509V99H102.265ZM109.458 91.86C108.99 91.86 108.618 91.464 108.618 91.02C108.618 90.576 108.99 90.192 109.458 90.192C109.914 90.192 110.286 90.576 110.286 91.02C110.286 91.464 109.914 91.86 109.458 91.86ZM108.714 99V92.796H110.178V99H108.714ZM111.676 99V90.612H113.14V99H111.676ZM114.638 99V90.612H116.102V99H114.638ZM120.3 92.652C121.944 92.652 122.964 93.696 122.964 95.268V99H121.536V98.256C121.08 98.832 120.3 99.144 119.58 99.144C118.26 99.144 117.264 98.364 117.264 97.164C117.264 95.94 118.404 95.1 119.796 95.1C120.36 95.1 120.972 95.22 121.536 95.436V95.268C121.536 94.548 121.14 93.852 120.012 93.852C119.424 93.852 118.86 94.056 118.332 94.32L117.828 93.3C118.704 92.868 119.52 92.652 120.3 92.652ZM119.904 98.076C120.612 98.076 121.368 97.716 121.536 97.056V96.36C121.08 96.204 120.564 96.12 120.012 96.12C119.28 96.12 118.692 96.528 118.692 97.116C118.692 97.704 119.208 98.076 119.904 98.076ZM134.031 90.756H135.699L132.255 99H130.587L127.143 90.756H128.799L131.415 97.008L134.031 90.756ZM136.67 99V90.756H140.258C142.022 90.756 143.342 91.884 143.342 93.492C143.342 95.1 142.022 96.228 140.258 96.228H138.17V99H136.67ZM138.17 94.848H140.09C141.11 94.848 141.818 94.332 141.818 93.492C141.818 92.652 141.11 92.136 140.09 92.136H138.17V94.848ZM144.51 99V90.756H146.01L150.366 96.552V90.756H151.854V99H150.366L146.01 93.204V99H144.51Z" fill="#DFDEDE"/>
<rect x="245" y="87" width="31.125" height="16.6" rx="8.3" fill="#1673D7"/>
<path fill-rule="evenodd" clip-rule="evenodd" d="M267.825 101.525C271.263 101.525 274.05 98.7379 274.05 95.2999C274.05 91.862 271.263 89.075 267.825 89.075C264.387 89.075 261.6 91.862 261.6 95.2999C261.6 98.7379 264.387 101.525 267.825 101.525Z" fill="white"/>
<path d="M20.872 24.144C18.52 24.144 16.54 22.188 16.54 19.872C16.54 17.556 18.52 15.612 20.872 15.612C22.084 15.612 23.188 16.128 23.98 16.944L22.912 17.94C22.408 17.352 21.664 16.98 20.872 16.98C19.348 16.98 18.064 18.3 18.064 19.872C18.064 21.456 19.348 22.776 20.872 22.776C21.676 22.776 22.408 22.404 22.924 21.816L23.98 22.8C23.188 23.628 22.084 24.144 20.872 24.144ZM27.9692 24.144C26.1692 24.144 24.6452 22.656 24.6452 20.892C24.6452 19.128 26.1692 17.652 27.9692 17.652C29.7692 17.652 31.2932 19.128 31.2932 20.892C31.2932 22.656 29.7692 24.144 27.9692 24.144ZM27.9692 22.896C28.9892 22.896 29.8532 21.984 29.8532 20.892C29.8532 19.812 28.9892 18.9 27.9692 18.9C26.9372 18.9 26.0732 19.812 26.0732 20.892C26.0732 21.984 26.9372 22.896 27.9692 22.896ZM35.8269 17.652C37.1829 17.652 38.1309 18.648 38.1309 20.052V24H36.7149V20.34C36.7149 19.5 36.1749 18.9 35.4069 18.9C34.6389 18.9 34.0029 19.416 33.9069 20.076V24H32.4429V17.796H33.9069V18.624C34.2909 18.048 35.0109 17.652 35.8269 17.652ZM41.8922 24.144C40.9442 24.144 39.9242 23.808 39.1802 23.208L39.8402 22.188C40.4402 22.62 41.1362 22.908 41.9162 22.908C42.5042 22.908 42.9122 22.656 42.9122 22.272C42.9122 21.792 42.3722 21.636 41.6642 21.444C40.3202 21.096 39.4682 20.712 39.4562 19.608C39.4562 18.444 40.4162 17.652 41.7962 17.652C42.6482 17.652 43.5002 17.952 44.1722 18.396L43.5602 19.464C42.9722 19.092 42.3362 18.9 41.7962 18.9C41.2802 18.9 40.8842 19.104 40.8842 19.452C40.8842 19.848 41.2082 19.968 42.1562 20.244C43.2002 20.532 44.3282 20.892 44.3282 22.188C44.3282 23.376 43.3442 24.144 41.8922 24.144ZM48.3723 22.848C48.9483 22.848 49.6323 22.584 49.9803 22.224L50.9043 23.184C50.3643 23.76 49.2843 24.144 48.3843 24.144C46.6083 24.144 45.1443 22.788 45.1443 20.88C45.1443 19.02 46.5363 17.652 48.3003 17.652C50.2203 17.652 51.3363 19.104 51.3363 21.396H46.6563C46.8363 22.248 47.4843 22.848 48.3723 22.848ZM48.3603 18.948C47.5443 18.948 46.8843 19.464 46.6683 20.28H49.9323C49.7643 19.5 49.2363 18.948 48.3603 18.948ZM55.8693 17.652C57.2253 17.652 58.1733 18.648 58.1733 20.052V24H56.7573V20.34C56.7573 19.5 56.2173 18.9 55.4493 18.9C54.6813 18.9 54.0453 19.416 53.9493 20.076V24H52.4853V17.796H53.9493V18.624C54.3333 18.048 55.0533 17.652 55.8693 17.652ZM62.7386 22.668L63.1586 23.652C62.8106 23.952 62.3066 24.144 61.8386 24.144C60.8066 24.144 60.0866 23.4 60.0866 22.356V19.008H59.1866V17.796H60.0866V16.092H61.5146V17.796H62.9186V19.008H61.5146V22.176C61.5146 22.596 61.7786 22.896 62.1266 22.896C62.3786 22.896 62.6066 22.8 62.7386 22.668ZM64.9189 16.86C64.4509 16.86 64.0789 16.464 64.0789 16.02C64.0789 15.576 64.4509 15.192 64.9189 15.192C65.3749 15.192 65.7469 15.576 65.7469 16.02C65.7469 16.464 65.3749 16.86 64.9189 16.86ZM64.1749 24V17.796H65.6389V24H64.1749ZM71.1594 16.86C70.6914 16.86 70.3194 16.464 70.3194 16.02C70.3194 15.576 70.6914 15.192 71.1594 15.192C71.6154 15.192 71.9874 15.576 71.9874 16.02C71.9874 16.464 71.6154 16.86 71.1594 16.86ZM70.4154 24V17.796H71.8794V24H70.4154ZM76.7614 17.652C78.1174 17.652 79.0654 18.648 79.0654 20.052V24H77.6494V20.34C77.6494 19.5 77.1094 18.9 76.3414 18.9C75.5734 18.9 74.9374 19.416 74.8414 20.076V24H73.3774V17.796H74.8414V18.624C75.2254 18.048 75.9454 17.652 76.7614 17.652ZM87.4732 17.652C89.1172 17.652 90.3172 18.996 90.3172 20.892C90.3172 22.8 89.1172 24.144 87.4732 24.144C86.5492 24.144 85.8052 23.724 85.3132 23.016V24H83.8492V15.612H85.3132V18.78C85.8052 18.072 86.5492 17.652 87.4732 17.652ZM87.0772 22.896C88.1212 22.896 88.8652 22.056 88.8652 20.892C88.8652 19.728 88.1212 18.9 87.0772 18.9C86.0452 18.9 85.3252 19.728 85.3252 20.892C85.3252 22.056 86.0452 22.896 87.0772 22.896ZM94.2213 17.652C95.8653 17.652 96.8853 18.696 96.8853 20.268V24H95.4573V23.256C95.0013 23.832 94.2213 24.144 93.5013 24.144C92.1813 24.144 91.1853 23.364 91.1853 22.164C91.1853 20.94 92.3253 20.1 93.7173 20.1C94.2813 20.1 94.8933 20.22 95.4573 20.436V20.268C95.4573 19.548 95.0613 18.852 93.9333 18.852C93.3453 18.852 92.7813 19.056 92.2533 19.32L91.7493 18.3C92.6253 17.868 93.4413 17.652 94.2213 17.652ZM93.8253 23.076C94.5333 23.076 95.2893 22.716 95.4573 22.056V21.36C95.0013 21.204 94.4853 21.12 93.9333 21.12C93.2013 21.12 92.6133 21.528 92.6133 22.116C92.6133 22.704 93.1293 23.076 93.8253 23.076ZM101.339 24.144C99.5506 24.144 98.0266 22.656 98.0266 20.892C98.0266 19.128 99.5506 17.652 101.363 17.652C102.299 17.652 103.127 18.048 103.715 18.66L102.731 19.524C102.395 19.152 101.879 18.9 101.351 18.9C100.331 18.9 99.4786 19.812 99.4786 20.892C99.4786 21.984 100.331 22.896 101.351 22.896C101.891 22.896 102.419 22.644 102.767 22.248L103.751 23.1C103.151 23.736 102.323 24.144 101.339 24.144ZM110.637 17.796L108.081 20.568L110.553 24H108.849L107.097 21.528L106.221 22.452V24H104.757V15.612H106.221V20.736L108.909 17.796H110.637ZM116.02 17.796H117.484V23.34C117.484 24.936 116.14 26.064 114.244 26.064C113.176 26.064 112.192 25.716 111.58 25.236L112.12 24.168C112.552 24.564 113.296 24.816 114.028 24.816C115.252 24.816 116.02 24.228 116.02 23.292V22.488C115.528 23.148 114.784 23.544 113.896 23.544C112.288 23.544 111.1 22.32 111.1 20.592C111.1 18.864 112.288 17.652 113.896 17.652C114.772 17.652 115.576 18.06 116.02 18.72V17.796ZM114.316 22.296C115.312 22.296 116.02 21.588 116.02 20.592C116.02 19.608 115.312 18.9 114.316 18.9C113.332 18.9 112.624 19.608 112.624 20.592C112.624 21.588 113.332 22.296 114.316 22.296ZM120.502 18.996C120.898 18.168 121.702 17.652 122.722 17.652V18.9C121.39 18.9 120.502 19.692 120.502 20.868V24H119.038V17.796H120.502V18.996ZM126.535 24.144C124.735 24.144 123.211 22.656 123.211 20.892C123.211 19.128 124.735 17.652 126.535 17.652C128.335 17.652 129.859 19.128 129.859 20.892C129.859 22.656 128.335 24.144 126.535 24.144ZM126.535 22.896C127.555 22.896 128.419 21.984 128.419 20.892C128.419 19.812 127.555 18.9 126.535 18.9C125.503 18.9 124.639 19.812 124.639 20.892C124.639 21.984 125.503 22.896 126.535 22.896ZM135.208 17.796H136.672V24H135.208V23.172C134.824 23.748 134.104 24.144 133.288 24.144C131.932 24.144 130.984 23.148 130.984 21.744V17.796H132.4V21.456C132.4 22.296 132.94 22.896 133.708 22.896C134.476 22.896 135.112 22.38 135.208 21.72V17.796ZM141.55 17.652C142.906 17.652 143.854 18.648 143.854 20.052V24H142.438V20.34C142.438 19.5 141.898 18.9 141.13 18.9C140.362 18.9 139.726 19.416 139.63 20.076V24H138.166V17.796H139.63V18.624C140.014 18.048 140.734 17.652 141.55 17.652ZM150.039 15.612H151.503V24H150.039V23.04C149.547 23.736 148.803 24.144 147.891 24.144C146.247 24.144 145.047 22.8 145.047 20.892C145.047 18.996 146.247 17.652 147.891 17.652C148.803 17.652 149.547 18.06 150.039 18.756V15.612ZM148.287 22.896C149.319 22.896 150.039 22.056 150.039 20.892C150.039 19.728 149.319 18.9 148.287 18.9C147.243 18.9 146.499 19.728 146.499 20.892C146.499 22.056 147.243 22.896 148.287 22.896Z" fill="#DFDEDE"/>
<rect x="16" y="34" width="280" height="6" fill="#9F9F9E"/>
<rect x="16" y="44" width="94" height="6" fill="#9F9F9E"/>
</g>
<defs>
<clipPath id="clip0_101_100">
<rect width="312" height="129" rx="16" fill="white"/>
</clipPath>
</defs>
</svg>

