<svg width="312" height="129" viewBox="0 0 312 129" fill="none" xmlns="http://www.w3.org/2000/svg">
<g clip-path="url(#clip0_48_141)">
<rect width="312" height="129" rx="16" fill="#EDEDEC"/>
<rect x="17" y="61" width="270" height="233" rx="24" fill="#E9E9E8"/>
<rect x="17" y="61" width="270" height="233" rx="24" stroke="#CECECF" stroke-width="2"/>
<rect x="30" y="74" width="42.6926" height="42.6926" rx="16" fill="black"/>
<path d="M63.9884 93.747C63.6145 92.8613 62.9877 92.1055 62.1862 91.5745C61.3848 91.0434 60.4446 90.7607 59.4831 90.7616C58.6796 90.7554 57.8871 90.9487 57.1766 91.3241C56.4661 91.6995 55.8598 92.2452 55.4121 92.9124C55.1215 93.3469 54.9037 93.8259 54.7675 94.3305H47.9077C47.8595 94.1305 47.7937 93.9353 47.711 93.747C47.6369 93.5627 47.546 93.3855 47.4396 93.2177L49.8957 90.7616C50.6371 91.1863 51.4772 91.4086 52.3316 91.4061C52.9846 91.4076 53.631 91.2761 54.2314 91.0193C55.1179 90.6458 55.8746 90.0191 56.4067 89.2178C56.939 88.4165 57.2231 87.476 57.2237 86.514C57.2261 85.7105 57.0305 84.9186 56.6542 84.2086C56.2778 83.4986 55.7324 82.8922 55.066 82.443C54.2643 81.9015 53.3195 81.611 52.352 81.6085C51.5485 81.6023 50.756 81.7956 50.0455 82.171C49.3349 82.5464 48.7287 83.0921 48.2809 83.7593C47.7424 84.5625 47.4521 85.5064 47.4463 86.4734C47.429 87.1499 47.5538 87.8225 47.8127 88.4478C47.8793 88.6032 47.954 88.755 48.0367 88.9024L45.5669 91.3654C44.8435 90.9679 44.0311 90.7601 43.2057 90.7616C42.4022 90.7554 41.6096 90.9487 40.8992 91.3241C40.1886 91.6995 39.5824 92.2452 39.1346 92.9124C38.596 93.7156 38.3058 94.6595 38.3 95.6265C38.2985 96.2816 38.4301 96.9303 38.6868 97.533C39.0568 98.4061 39.6719 99.1532 40.4577 99.6839C41.2591 100.226 42.2041 100.517 43.1717 100.519C43.9753 100.521 44.7672 100.325 45.4772 99.949C46.1872 99.5726 46.7936 99.0272 47.2428 98.3608C47.549 97.9333 47.7786 97.4557 47.9213 96.9496H54.7743C54.8278 97.1488 54.8959 97.3438 54.9778 97.533C55.0443 97.6885 55.1191 97.8402 55.2017 97.9877L52.7116 100.478C51.9885 100.079 51.1759 99.8716 50.3504 99.8739C49.5469 99.8678 48.7543 100.061 48.0439 100.436C47.3334 100.812 46.7271 101.358 46.2793 102.025C45.7408 102.828 45.4505 103.772 45.4447 104.739C45.4432 105.394 45.5748 106.043 45.8315 106.645C46.2035 107.517 46.8182 108.264 47.6024 108.796C48.3399 109.291 49.1979 109.575 50.0847 109.62C50.9715 109.664 51.8537 109.467 52.6369 109.049C53.4202 108.631 54.0751 108.008 54.5317 107.246C54.9882 106.484 55.2292 105.613 55.2288 104.725C55.2271 104.073 55.0956 103.427 54.8421 102.825C54.7607 102.642 54.6725 102.459 54.5775 102.289L57.0269 99.84C57.7683 100.265 58.6083 100.487 59.4627 100.485C60.7591 100.481 62.0014 99.9645 62.918 99.0478C63.8347 98.1311 64.3512 96.8889 64.3548 95.5925C64.3524 94.9596 64.228 94.3329 63.9884 93.747ZM50.2622 85.6388C50.4329 85.2373 50.7155 84.8934 51.0763 84.6482C51.3901 84.4333 51.7531 84.3013 52.1315 84.2645C52.51 84.2277 52.8916 84.2874 53.2408 84.4379C53.6459 84.6124 53.9906 84.9024 54.2319 85.2716C54.4733 85.6409 54.6005 86.073 54.5978 86.514C54.5978 87.1121 54.3607 87.6858 53.9385 88.1094C53.5162 88.5329 52.9432 88.7717 52.3452 88.7735C51.9734 88.7743 51.6071 88.6829 51.2792 88.5077C50.9513 88.3325 50.6718 88.0788 50.4657 87.7693C50.2583 87.4574 50.1312 87.0991 50.0957 86.7262C50.0601 86.3534 50.1173 85.9774 50.2622 85.632V85.6388ZM45.2819 96.5289C45.1243 96.9039 44.868 97.2293 44.5404 97.4705C44.2127 97.7116 43.8259 97.8594 43.4209 97.8985C43.016 97.9374 42.6081 97.8659 42.2404 97.6917C41.8728 97.5175 41.5592 97.247 41.333 96.9088C41.1255 96.5969 40.9985 96.2386 40.9629 95.8657C40.9274 95.4928 40.9846 95.117 41.1294 94.7716C41.3001 94.3701 41.5828 94.0262 41.9436 93.7809C42.3153 93.527 42.7555 93.392 43.2057 93.3942C43.5064 93.3923 43.8044 93.4524 44.081 93.5706C44.486 93.7451 44.8307 94.0352 45.0721 94.4044C45.3134 94.7736 45.4406 95.2057 45.4379 95.6468C45.4462 95.9484 45.3932 96.2485 45.2819 96.5289ZM52.4266 105.662C52.3117 105.934 52.1442 106.182 51.9337 106.39C51.7232 106.598 51.4738 106.762 51.1997 106.874C50.9256 106.985 50.6322 107.042 50.3363 107.04C50.0404 107.038 49.7477 106.978 49.4751 106.863C49.0764 106.687 48.7354 106.402 48.4912 106.042C48.2642 105.702 48.1336 105.307 48.1133 104.899C48.093 104.491 48.1837 104.085 48.3759 103.724C48.568 103.363 48.8544 103.061 49.2045 102.851C49.5546 102.64 49.9553 102.528 50.3639 102.527C50.6528 102.527 50.9388 102.585 51.2053 102.697C51.6104 102.871 51.9551 103.161 52.1964 103.53C52.4378 103.9 52.565 104.332 52.5623 104.773C52.578 105.075 52.5318 105.378 52.4266 105.662ZM61.5594 96.5289C61.4017 96.9039 61.1455 97.2293 60.8178 97.4705C60.4902 97.7116 60.1034 97.8594 59.6984 97.8985C59.2934 97.9374 58.8855 97.8659 58.5178 97.6917C58.1502 97.5175 57.8367 97.247 57.6104 96.9088C57.403 96.5969 57.2759 96.2386 57.2404 95.8657C57.2049 95.4928 57.2621 95.117 57.4069 94.7716C57.5776 94.3701 57.8602 94.0262 58.2211 93.7809C58.5928 93.527 59.0329 93.392 59.4831 93.3942C59.7839 93.3923 60.0818 93.4524 60.3584 93.5706C60.7635 93.7451 61.1082 94.0352 61.3495 94.4044C61.5908 94.7736 61.7181 95.2057 61.7154 95.6468C61.7237 95.9484 61.6706 96.2485 61.5594 96.5289Z" fill="white"/>
<path d="M84.96 99V90.756H86.46L89.172 95.784L91.896 90.756H93.384V99H91.896V93.492L89.172 98.52L86.46 93.492V99H84.96ZM98.0434 99.144C96.2434 99.144 94.7194 97.656 94.7194 95.892C94.7194 94.128 96.2434 92.652 98.0434 92.652C99.8434 92.652 101.367 94.128 101.367 95.892C101.367 97.656 99.8434 99.144 98.0434 99.144ZM98.0434 97.896C99.0634 97.896 99.9274 96.984 99.9274 95.892C99.9274 94.812 99.0634 93.9 98.0434 93.9C97.0114 93.9 96.1474 94.812 96.1474 95.892C96.1474 96.984 97.0114 97.896 98.0434 97.896ZM102.265 99V97.932L105.553 94.08H102.337V92.796H107.485L107.473 93.864L104.173 97.716H107.509V99H102.265ZM109.458 91.86C108.99 91.86 108.618 91.464 108.618 91.02C108.618 90.576 108.99 90.192 109.458 90.192C109.914 90.192 110.286 90.576 110.286 91.02C110.286 91.464 109.914 91.86 109.458 91.86ZM108.714 99V92.796H110.178V99H108.714ZM111.676 99V90.612H113.14V99H111.676ZM114.638 99V90.612H116.102V99H114.638ZM120.3 92.652C121.944 92.652 122.964 93.696 122.964 95.268V99H121.536V98.256C121.08 98.832 120.3 99.144 119.58 99.144C118.26 99.144 117.264 98.364 117.264 97.164C117.264 95.94 118.404 95.1 119.796 95.1C120.36 95.1 120.972 95.22 121.536 95.436V95.268C121.536 94.548 121.14 93.852 120.012 93.852C119.424 93.852 118.86 94.056 118.332 94.32L117.828 93.3C118.704 92.868 119.52 92.652 120.3 92.652ZM119.904 98.076C120.612 98.076 121.368 97.716 121.536 97.056V96.36C121.08 96.204 120.564 96.12 120.012 96.12C119.28 96.12 118.692 96.528 118.692 97.116C118.692 97.704 119.208 98.076 119.904 98.076ZM134.031 90.756H135.699L132.255 99H130.587L127.143 90.756H128.799L131.415 97.008L134.031 90.756ZM136.67 99V90.756H140.258C142.022 90.756 143.342 91.884 143.342 93.492C143.342 95.1 142.022 96.228 140.258 96.228H138.17V99H136.67ZM138.17 94.848H140.09C141.11 94.848 141.818 94.332 141.818 93.492C141.818 92.652 141.11 92.136 140.09 92.136H138.17V94.848ZM144.51 99V90.756H146.01L150.366 96.552V90.756H151.854V99H150.366L146.01 93.204V99H144.51Z" fill="#1E1E1E"/>
<rect x="245" y="87" width="31.125" height="16.6" rx="8.3" fill="#0F84FF"/>
<path fill-rule="evenodd" clip-rule="evenodd" d="M267.825 101.525C271.263 101.525 274.05 98.738 274.05 95.3C274.05 91.862 271.263 89.075 267.825 89.075C264.387 89.075 261.6 91.862 261.6 95.3C261.6 98.738 264.387 101.525 267.825 101.525Z" fill="white"/>
<path d="M23.128 24L22.504 22.512H18.52L17.896 24H16.228L19.672 15.756H21.34L24.784 24H23.128ZM19.06 21.216H21.964L20.512 17.748L19.06 21.216ZM25.7074 24V15.612H27.1714V24H25.7074ZM28.6695 24V15.612H30.1335V24H28.6695ZM34.6315 24.144C32.8315 24.144 31.3075 22.656 31.3075 20.892C31.3075 19.128 32.8315 17.652 34.6315 17.652C36.4315 17.652 37.9555 19.128 37.9555 20.892C37.9555 22.656 36.4315 24.144 34.6315 24.144ZM34.6315 22.896C35.6515 22.896 36.5155 21.984 36.5155 20.892C36.5155 19.812 35.6515 18.9 34.6315 18.9C33.5995 18.9 32.7355 19.812 32.7355 20.892C32.7355 21.984 33.5995 22.896 34.6315 22.896ZM40.408 24L38.308 17.796H39.772L41.068 22.032L42.448 17.796H43.672L45.064 22.032L46.348 17.796H47.812L45.724 24H44.392L43.06 19.752L41.74 24H40.408ZM52.7928 16.86C52.3248 16.86 51.9528 16.464 51.9528 16.02C51.9528 15.576 52.3248 15.192 52.7928 15.192C53.2488 15.192 53.6208 15.576 53.6208 16.02C53.6208 16.464 53.2488 16.86 52.7928 16.86ZM52.0488 24V17.796H53.5128V24H52.0488ZM58.3949 17.652C59.7509 17.652 60.6989 18.648 60.6989 20.052V24H59.2829V20.34C59.2829 19.5 58.7429 18.9 57.9749 18.9C57.2069 18.9 56.5709 19.416 56.4749 20.076V24H55.0109V17.796H56.4749V18.624C56.8589 18.048 57.5789 17.652 58.3949 17.652ZM68.5427 22.668L68.9627 23.652C68.6147 23.952 68.1107 24.144 67.6427 24.144C66.6107 24.144 65.8907 23.4 65.8907 22.356V19.008H64.9907V17.796H65.8907V16.092H67.3187V17.796H68.7227V19.008H67.3187V22.176C67.3187 22.596 67.5827 22.896 67.9307 22.896C68.1827 22.896 68.4107 22.8 68.5427 22.668ZM73.363 17.652C74.719 17.652 75.667 18.648 75.667 20.052V24H74.251V20.34C74.251 19.5 73.711 18.9 72.943 18.9C72.115 18.9 71.431 19.5 71.431 20.244V24H69.967V15.612H71.431V18.648C71.803 18.048 72.535 17.652 73.363 17.652ZM80.0283 22.848C80.6043 22.848 81.2883 22.584 81.6363 22.224L82.5603 23.184C82.0203 23.76 80.9403 24.144 80.0403 24.144C78.2643 24.144 76.8003 22.788 76.8003 20.88C76.8003 19.02 78.1923 17.652 79.9563 17.652C81.8763 17.652 82.9923 19.104 82.9923 21.396H78.3123C78.4923 22.248 79.1403 22.848 80.0283 22.848ZM80.0163 18.948C79.2003 18.948 78.5403 19.464 78.3243 20.28H81.5883C81.4203 19.5 80.8923 18.948 80.0163 18.948ZM87.5758 24V15.756H91.6198C93.0478 15.756 94.0558 16.62 94.0558 17.82C94.0558 18.66 93.6238 19.248 92.8918 19.644C93.8398 20.1 94.4038 20.856 94.4038 21.756C94.4038 23.076 93.3118 24 91.7758 24H87.5758ZM89.0638 19.128H91.2598C91.9918 19.128 92.5198 18.696 92.5198 18.096C92.5198 17.484 91.9918 17.052 91.2598 17.052H89.0638V19.128ZM89.0638 22.704H91.4758C92.2918 22.704 92.8678 22.212 92.8678 21.528C92.8678 20.844 92.2918 20.352 91.4758 20.352H89.0638V22.704ZM98.3318 17.652C99.9758 17.652 100.996 18.696 100.996 20.268V24H99.5678V23.256C99.1118 23.832 98.3318 24.144 97.6118 24.144C96.2918 24.144 95.2958 23.364 95.2958 22.164C95.2958 20.94 96.4358 20.1 97.8278 20.1C98.3918 20.1 99.0038 20.22 99.5678 20.436V20.268C99.5678 19.548 99.1718 18.852 98.0438 18.852C97.4558 18.852 96.8918 19.056 96.3638 19.32L95.8598 18.3C96.7358 17.868 97.5518 17.652 98.3318 17.652ZM97.9358 23.076C98.6438 23.076 99.3998 22.716 99.5678 22.056V21.36C99.1118 21.204 98.5958 21.12 98.0438 21.12C97.3118 21.12 96.7238 21.528 96.7238 22.116C96.7238 22.704 97.2398 23.076 97.9358 23.076ZM105.449 24.144C103.661 24.144 102.137 22.656 102.137 20.892C102.137 19.128 103.661 17.652 105.473 17.652C106.409 17.652 107.237 18.048 107.825 18.66L106.841 19.524C106.505 19.152 105.989 18.9 105.461 18.9C104.441 18.9 103.589 19.812 103.589 20.892C103.589 21.984 104.441 22.896 105.461 22.896C106.001 22.896 106.529 22.644 106.877 22.248L107.861 23.1C107.261 23.736 106.433 24.144 105.449 24.144ZM114.748 17.796L112.192 20.568L114.664 24H112.96L111.208 21.528L110.332 22.452V24H108.868V15.612H110.332V20.736L113.02 17.796H114.748ZM120.13 17.796H121.594V23.34C121.594 24.936 120.25 26.064 118.354 26.064C117.286 26.064 116.302 25.716 115.69 25.236L116.23 24.168C116.662 24.564 117.406 24.816 118.138 24.816C119.362 24.816 120.13 24.228 120.13 23.292V22.488C119.638 23.148 118.894 23.544 118.006 23.544C116.398 23.544 115.21 22.32 115.21 20.592C115.21 18.864 116.398 17.652 118.006 17.652C118.882 17.652 119.686 18.06 120.13 18.72V17.796ZM118.426 22.296C119.422 22.296 120.13 21.588 120.13 20.592C120.13 19.608 119.422 18.9 118.426 18.9C117.442 18.9 116.734 19.608 116.734 20.592C116.734 21.588 117.442 22.296 118.426 22.296ZM124.613 18.996C125.009 18.168 125.813 17.652 126.833 17.652V18.9C125.501 18.9 124.613 19.692 124.613 20.868V24H123.149V17.796H124.613V18.996ZM130.645 24.144C128.845 24.144 127.321 22.656 127.321 20.892C127.321 19.128 128.845 17.652 130.645 17.652C132.445 17.652 133.969 19.128 133.969 20.892C133.969 22.656 132.445 24.144 130.645 24.144ZM130.645 22.896C131.665 22.896 132.529 21.984 132.529 20.892C132.529 19.812 131.665 18.9 130.645 18.9C129.613 18.9 128.749 19.812 128.749 20.892C128.749 21.984 129.613 22.896 130.645 22.896ZM139.319 17.796H140.783V24H139.319V23.172C138.935 23.748 138.215 24.144 137.399 24.144C136.043 24.144 135.095 23.148 135.095 21.744V17.796H136.511V21.456C136.511 22.296 137.051 22.896 137.819 22.896C138.587 22.896 139.223 22.38 139.319 21.72V17.796ZM145.66 17.652C147.016 17.652 147.964 18.648 147.964 20.052V24H146.548V20.34C146.548 19.5 146.008 18.9 145.24 18.9C144.472 18.9 143.836 19.416 143.74 20.076V24H142.276V17.796H143.74V18.624C144.124 18.048 144.844 17.652 145.66 17.652ZM154.15 15.612H155.614V24H154.15V23.04C153.658 23.736 152.914 24.144 152.002 24.144C150.358 24.144 149.158 22.8 149.158 20.892C149.158 18.996 150.358 17.652 152.002 17.652C152.914 17.652 153.658 18.06 154.15 18.756V15.612ZM152.398 22.896C153.43 22.896 154.15 22.056 154.15 20.892C154.15 19.728 153.43 18.9 152.398 18.9C151.354 18.9 150.61 19.728 150.61 20.892C150.61 22.056 151.354 22.896 152.398 22.896Z" fill="#1E1E1E"/>
<rect x="16" y="34" width="280" height="6" fill="#CECECF"/>
<rect x="16" y="44" width="94" height="6" fill="#CECECF"/>
</g>
<defs>
<clipPath id="clip0_48_141">
<rect width="312" height="129" rx="16" fill="white"/>
</clipPath>
</defs>
</svg>
