<svg width="215" height="147" viewBox="0 0 215 147" fill="none" xmlns="http://www.w3.org/2000/svg">
<path d="M186.095 72.0276H157.061C157.305 70.6483 158.028 69.3992 159.102 68.4997C160.176 67.6003 161.533 67.108 162.934 67.1091H163.16C163.986 65.6375 165.227 64.4417 166.729 63.6707C168.23 62.8998 169.925 62.5878 171.602 62.7738C173.279 62.9598 174.865 63.6355 176.16 64.7166C177.456 65.7977 178.405 67.2365 178.888 68.8533C179.502 68.2853 180.268 67.9089 181.092 67.7702C181.917 67.6316 182.764 67.7368 183.529 68.0729C184.294 68.4091 184.945 68.9613 185.401 69.6622C185.857 70.363 186.098 71.1817 186.095 72.0176V72.0276Z" fill="#AD79FF" stroke="#AD79FF" stroke-width="0.202122" stroke-miterlimit="10"/>
<path d="M134.894 85.6377C142.156 85.6377 149.254 83.4843 155.292 79.4499C161.33 75.4155 166.036 69.6814 168.815 62.9724C171.594 56.2634 172.321 48.8808 170.904 41.7586C169.488 34.6364 165.991 28.0942 160.856 22.9594C155.721 17.8246 149.179 14.3278 142.057 12.9111C134.935 11.4944 127.552 12.2214 120.843 15.0004C114.134 17.7793 108.4 22.4854 104.366 28.5233C100.331 34.5612 98.1777 41.6599 98.1777 48.9217C98.1774 53.7434 99.1269 58.5179 100.972 62.9726C102.817 67.4274 105.521 71.4752 108.931 74.8846C112.34 78.2941 116.388 80.9986 120.843 82.8437C125.298 84.6887 130.072 85.638 134.894 85.6377V85.6377Z" stroke="white" stroke-width="0.787487" stroke-miterlimit="10"/>
<path d="M134.893 80.7192C141.182 80.7192 147.33 78.8541 152.559 75.3602C157.788 71.8662 161.863 66.9002 164.27 61.09C166.677 55.2798 167.306 48.8864 166.079 42.7183C164.853 36.5502 161.824 30.8844 157.377 26.4374C152.93 21.9905 147.265 18.9622 141.096 17.7353C134.928 16.5084 128.535 17.138 122.725 19.5447C116.915 21.9514 111.948 26.0269 108.455 31.256C104.961 36.485 103.096 42.6328 103.096 48.9217C103.096 57.3549 106.446 65.4425 112.409 71.4057C118.372 77.3689 126.46 80.7192 134.893 80.7192Z" fill="#C3C5FF" stroke="#C2C6FF" stroke-width="0.202122" stroke-miterlimit="10"/>
<path d="M125.133 84.3422C116.442 75.9923 110.893 63.2194 110.893 48.9217C110.893 34.624 116.442 21.8538 125.133 13.5039" stroke="white" stroke-width="0.787487" stroke-miterlimit="10"/>
<path d="M144.652 13.4863C153.344 21.8337 158.893 34.6064 158.893 48.9041C158.893 63.2019 153.344 75.9723 144.652 84.3222" stroke="white" stroke-width="0.787487" stroke-miterlimit="10"/>
<path d="M98.1777 48.9216H171.607" stroke="white" stroke-width="0.787487" stroke-miterlimit="10"/>
<path d="M134.893 12.1882V85.6378" stroke="white" stroke-width="0.787487" stroke-miterlimit="10"/>
<path d="M158.587 23.3985C159.402 23.399 160.198 23.1578 160.876 22.7055C161.554 22.2532 162.082 21.6102 162.394 20.8576C162.706 20.105 162.788 19.2767 162.63 18.4775C162.471 17.6784 162.079 16.9443 161.503 16.368C160.927 15.7918 160.193 15.3991 159.394 15.2399C158.595 15.0808 157.767 15.1624 157.014 15.474C156.261 15.7857 155.618 16.3136 155.165 16.991C154.712 17.6684 154.471 18.4648 154.471 19.2796C154.471 20.3715 154.904 21.4187 155.676 22.1911C156.448 22.9634 157.495 23.3979 158.587 23.3985Z" fill="#AD79FF" stroke="black" stroke-width="0.787487" stroke-miterlimit="10"/>
<path d="M158.587 53.0406C159.402 53.0411 160.198 52.7999 160.876 52.3476C161.554 51.8953 162.082 51.2523 162.394 50.4997C162.706 49.7471 162.788 48.9188 162.63 48.1196C162.471 47.3205 162.079 46.5864 161.503 46.0101C160.927 45.4339 160.193 45.0412 159.394 44.882C158.595 44.7229 157.767 44.8044 157.014 45.1161C156.261 45.4278 155.618 45.9557 155.165 46.6331C154.712 47.3105 154.471 48.1069 154.471 48.9217C154.471 50.0136 154.904 51.0608 155.676 51.8332C156.448 52.6055 157.495 53.0399 158.587 53.0406Z" fill="#6F4AE7" stroke="black" stroke-width="0.787487" stroke-miterlimit="10"/>
<path d="M207.445 88.877H164.383V96.6189H207.445V88.877Z" fill="#AD79FF"/>
<path d="M170.998 102.375H192.233" stroke="white" stroke-width="0.787487" stroke-miterlimit="10" stroke-linecap="round"/>
<path d="M170.998 108.552H192.233" stroke="white" stroke-width="0.787487" stroke-miterlimit="10" stroke-linecap="round"/>
<path d="M170.998 114.709H192.233" stroke="white" stroke-width="0.787487" stroke-miterlimit="10" stroke-linecap="round"/>
<path d="M204.908 122.371H166.69C166.047 122.37 165.432 122.115 164.978 121.661C164.524 121.207 164.268 120.591 164.268 119.949V88.9915H207.33V119.949C207.33 120.591 207.074 121.207 206.62 121.661C206.166 122.115 205.55 122.37 204.908 122.371V122.371Z" stroke="white" stroke-width="0.787487" stroke-linejoin="round"/>
<path d="M164.268 96.6738H207.33" stroke="white" stroke-width="0.787487" stroke-miterlimit="10"/>
<path d="M168.022 94.0453C168.203 94.0458 168.381 93.9924 168.532 93.892C168.683 93.7915 168.801 93.6485 168.871 93.481C168.941 93.3135 168.959 93.129 168.924 92.951C168.889 92.773 168.802 92.6094 168.674 92.4809C168.546 92.3524 168.382 92.2649 168.204 92.2293C168.026 92.1937 167.842 92.2115 167.674 92.2809C167.506 92.3502 167.363 92.4678 167.262 92.6186C167.161 92.7695 167.107 92.9469 167.107 93.1284C167.107 93.2487 167.131 93.3678 167.176 93.479C167.222 93.5903 167.289 93.6915 167.374 93.7766C167.459 93.8618 167.56 93.9293 167.671 93.9755C167.782 94.0216 167.902 94.0453 168.022 94.0453Z" fill="white"/>
<path d="M172.142 93.9878C172.323 93.9878 172.5 93.934 172.651 93.8331C172.802 93.7322 172.92 93.5888 172.989 93.4211C173.058 93.2534 173.076 93.0688 173.041 92.8909C173.005 92.7129 172.918 92.5496 172.789 92.4215C172.661 92.2934 172.497 92.2062 172.319 92.1711C172.141 92.136 171.956 92.1546 171.789 92.2244C171.621 92.2942 171.478 92.412 171.378 92.5631C171.277 92.7142 171.224 92.8917 171.225 93.0731C171.225 93.3159 171.322 93.5485 171.494 93.7199C171.666 93.8914 171.899 93.9878 172.142 93.9878Z" fill="white"/>
<path d="M176.258 93.9878C176.44 93.9883 176.617 93.9348 176.769 93.8343C176.92 93.7337 177.038 93.5904 177.107 93.4228C177.177 93.2551 177.195 93.0707 177.16 92.8926C177.125 92.7144 177.037 92.5508 176.909 92.4224C176.781 92.294 176.617 92.2066 176.439 92.1713C176.261 92.136 176.076 92.1544 175.909 92.2241C175.741 92.2938 175.598 92.4117 175.497 92.5628C175.397 92.714 175.343 92.8915 175.344 93.0731C175.344 93.3156 175.44 93.5484 175.612 93.7199C175.783 93.8914 176.016 93.9878 176.258 93.9878Z" fill="white"/>
<path d="M205.022 129.864L199.057 114.841L214.077 120.822L209.674 122.957L214.498 127.779L211.757 130.123L206.858 125.015L205.022 129.864Z" fill="white" stroke="black" stroke-width="0.787487" stroke-linecap="round" stroke-linejoin="round"/>
<path d="M87.8575 39.5577H45.1836C45.542 37.5296 46.6044 35.693 48.1837 34.3712C49.763 33.0494 51.7581 32.3271 53.8176 32.3316H54.1614C55.3752 30.1697 57.1988 28.413 59.4046 27.2809C61.6104 26.1488 64.1007 25.6914 66.5649 25.9657C69.029 26.2399 71.3578 27.2338 73.2607 28.8232C75.1636 30.4126 76.5563 32.5273 77.265 34.9032C78.1656 34.0643 79.2921 33.5075 80.5055 33.3018C81.7189 33.096 82.9659 33.2503 84.0926 33.7454C85.2193 34.2405 86.1764 35.0548 86.8454 36.0877C87.5145 37.1207 87.8664 38.327 87.8575 39.5577Z" fill="#C3C5FF" stroke="#C2C6FF" stroke-width="0.202122" stroke-miterlimit="10"/>
<path d="M76.0838 42.8791H33.4199C33.7789 40.8508 34.8417 39.0142 36.4215 37.6924C38.0012 36.3706 39.9966 35.6485 42.0564 35.653H42.4002C43.6142 33.4911 45.438 31.7347 47.6439 30.6028C49.8499 29.4709 52.3404 29.0135 54.8045 29.2881C57.2687 29.5626 59.5974 30.5569 61.5002 32.1465C63.4029 33.7362 64.7954 35.851 65.5038 38.227C66.4045 37.3926 67.5295 36.8397 68.7403 36.6361C69.9511 36.4325 71.195 36.5872 72.3191 37.0811C73.4432 37.5751 74.3984 38.3868 75.0672 39.4164C75.7361 40.4461 76.0894 41.6489 76.0838 42.8767V42.8791Z" stroke="white" stroke-width="0.787487" stroke-miterlimit="10"/>
<path d="M143.148 4.54589C143.063 4.54277 142.982 4.50723 142.922 4.44661C142.862 4.386 142.827 4.3047 142.824 4.21934V1.32388C142.824 1.28134 142.833 1.23932 142.849 1.20002C142.865 1.16072 142.889 1.12498 142.919 1.0949C142.949 1.06482 142.985 1.0411 143.024 1.02482C143.063 1.00854 143.106 1 143.148 1C143.191 1 143.233 1.00854 143.272 1.02482C143.311 1.0411 143.347 1.06482 143.377 1.0949C143.407 1.12498 143.431 1.16072 143.447 1.20002C143.464 1.23932 143.472 1.28134 143.472 1.32388V4.23929C143.465 4.32132 143.429 4.39808 143.369 4.45464C143.309 4.51121 143.23 4.54371 143.148 4.54589Z" fill="white" stroke="white" stroke-width="0.401618" stroke-miterlimit="10"/>
<path d="M144.919 2.77163C144.916 2.85675 144.881 2.93772 144.821 2.99794C144.761 3.05815 144.68 3.09301 144.595 3.09551H141.679C141.593 3.09551 141.511 3.06136 141.45 3.00061C141.39 2.93986 141.355 2.85755 141.355 2.77163C141.355 2.68572 141.39 2.6034 141.45 2.54265C141.511 2.48191 141.593 2.44775 141.679 2.44775H144.597C144.682 2.45088 144.762 2.48591 144.822 2.54606C144.882 2.60621 144.916 2.68693 144.919 2.77163Z" fill="white" stroke="white" stroke-width="0.401618" stroke-miterlimit="10"/>
<path d="M2.27316 113.393C2.18804 113.391 2.10709 113.356 2.04687 113.296C1.98666 113.235 1.95172 113.154 1.94922 113.069V110.152C1.94922 110.066 1.98336 109.983 2.0441 109.923C2.10485 109.862 2.18725 109.828 2.27316 109.828C2.35907 109.828 2.44145 109.862 2.5022 109.923C2.56295 109.983 2.59709 110.066 2.59709 110.152V113.064C2.59809 113.108 2.59042 113.15 2.57456 113.19C2.5587 113.23 2.53497 113.267 2.50476 113.298C2.47454 113.328 2.43846 113.352 2.39868 113.369C2.35889 113.385 2.31622 113.394 2.27316 113.393Z" fill="white" stroke="white" stroke-width="0.401618" stroke-miterlimit="10"/>
<path d="M4.04579 111.619C4.04328 111.704 4.00835 111.785 3.94813 111.846C3.88792 111.906 3.80698 111.941 3.72186 111.943H0.823941C0.73803 111.943 0.655634 111.909 0.594886 111.848C0.534137 111.788 0.5 111.705 0.5 111.619C0.5 111.533 0.534137 111.451 0.594886 111.39C0.655634 111.329 0.73803 111.295 0.823941 111.295H3.74178C3.78333 111.296 3.8244 111.304 3.86248 111.321C3.90055 111.338 3.93485 111.362 3.96328 111.392C3.99171 111.422 4.01369 111.458 4.02787 111.497C4.04205 111.536 4.04815 111.578 4.04579 111.619Z" fill="white" stroke="white" stroke-width="0.401618" stroke-miterlimit="10"/>
<path d="M200.851 76.8493C201.127 76.8498 201.397 76.7683 201.626 76.6155C201.856 76.4626 202.034 76.2452 202.14 75.9906C202.246 75.736 202.274 75.4556 202.22 75.1851C202.166 74.9147 202.034 74.6664 201.839 74.4714C201.644 74.2765 201.395 74.1438 201.125 74.0901C200.855 74.0365 200.574 74.0642 200.32 74.1699C200.065 74.2757 199.847 74.4547 199.695 74.6841C199.542 74.9136 199.46 75.1832 199.461 75.4589C199.461 75.8277 199.607 76.1812 199.868 76.442C200.129 76.7027 200.483 76.8493 200.851 76.8493Z" fill="white" stroke="white" stroke-width="0.787487" stroke-miterlimit="10"/>
<path d="M83.4236 20.8046C83.6993 20.8051 83.969 20.7237 84.1984 20.5708C84.4278 20.4179 84.6068 20.2005 84.7125 19.9459C84.8182 19.6913 84.846 19.4109 84.7923 19.1405C84.7387 18.87 84.606 18.6217 84.411 18.4268C84.2161 18.2318 83.9677 18.0991 83.6972 18.0455C83.4268 17.9918 83.1465 18.0195 82.8919 18.1253C82.6373 18.231 82.4198 18.41 82.2669 18.6394C82.1141 18.8689 82.0327 19.1385 82.0332 19.4142C82.0332 19.783 82.1797 20.1365 82.4404 20.3973C82.7012 20.658 83.0549 20.8046 83.4236 20.8046Z" stroke="white" stroke-width="0.787487" stroke-miterlimit="10"/>
<path d="M45.5269 74.6766L17.3924 83.3503C16.9942 83.4735 16.5756 83.5168 16.1606 83.478C15.7455 83.4392 15.3422 83.3191 14.9738 83.1242C14.6053 82.9293 14.2788 82.6636 14.0132 82.3424C13.7475 82.0212 13.5478 81.6507 13.4255 81.2522L8.66128 65.7734C8.53806 65.3755 8.49454 64.9573 8.53321 64.5426C8.57188 64.1279 8.69198 63.7248 8.88664 63.3566C9.0813 62.9883 9.34669 62.6619 9.66761 62.3964C9.98853 62.1308 10.3587 61.9312 10.7569 61.809L38.8938 53.1552C39.2917 53.0316 39.7101 52.9877 40.1249 53.0262C40.5398 53.0647 40.9429 53.1849 41.3112 53.3796C41.6796 53.5743 42.0058 53.8398 42.2713 54.1609C42.5368 54.482 42.7362 54.8524 42.8582 55.2508L47.625 70.7294C47.7489 71.1263 47.7929 71.5438 47.7543 71.9578C47.7157 72.3717 47.5954 72.774 47.4002 73.1411C47.2051 73.5082 46.939 73.8329 46.6174 74.0965C46.2959 74.36 45.9252 74.5573 45.5269 74.6766Z" fill="#6A52DD" stroke="black" stroke-width="0.787487" stroke-miterlimit="10"/>
<path d="M36.0523 83.1412L6.82888 86.7244C5.99509 86.8243 5.15571 86.5895 4.49477 86.0715C3.83382 85.5535 3.40525 84.7945 3.30303 83.961L1.30962 67.8892C1.20974 67.055 1.44487 66.2151 1.9634 65.5541C2.48193 64.8931 3.24152 64.4649 4.07548 64.3632L33.2989 60.7801C34.1326 60.6802 34.972 60.915 35.633 61.433C36.2939 61.951 36.7225 62.7099 36.8247 63.5434L38.8057 79.6328C38.8561 80.0441 38.8248 80.4613 38.7136 80.8605C38.6024 81.2596 38.4135 81.6329 38.1577 81.9589C37.9019 82.2848 37.5842 82.557 37.2229 82.7599C36.8616 82.9628 36.4638 83.0925 36.0523 83.1412Z" fill="#AD79FF" stroke="white" stroke-width="0.787487" stroke-miterlimit="10"/>
<path d="M30.2834 80.9557C30.8204 80.7774 31.2925 80.4439 31.6399 79.9972C31.9873 79.5506 32.1945 79.0111 32.2352 78.4467C32.2758 77.8823 32.1482 77.3184 31.8684 76.8266C31.5887 76.3347 31.1693 75.9371 30.6634 75.6836C30.1575 75.4301 29.5878 75.3322 29.0263 75.4025C28.4649 75.4729 27.9369 75.7083 27.5092 76.0788C27.0815 76.4492 26.7733 76.9381 26.6235 77.4838C26.4737 78.0295 26.4892 78.6074 26.6679 79.1443C26.7861 79.5008 26.9735 79.8305 27.2193 80.1145C27.4651 80.3985 27.7644 80.6313 28.1002 80.7995C28.436 80.9677 28.8016 81.0681 29.1762 81.0949C29.5508 81.1217 29.9271 81.0744 30.2834 80.9557V80.9557Z" stroke="white" stroke-width="0.787487" stroke-miterlimit="10"/>
<path d="M33.6672 80.4994C34.1966 80.2997 34.6549 79.9474 34.9841 79.4871C35.3133 79.0269 35.4986 78.4796 35.5165 77.914C35.5345 77.3484 35.3843 76.7901 35.085 76.3099C34.7856 75.8297 34.3506 75.449 33.8349 75.2161C33.3192 74.9832 32.746 74.9086 32.1878 75.0015C31.6296 75.0944 31.1115 75.3507 30.6991 75.7381C30.2866 76.1255 29.9983 76.6264 29.8706 77.1776C29.743 77.7289 29.7817 78.3057 29.9818 78.835C30.1144 79.1864 30.3149 79.5082 30.5719 79.7821C30.8288 80.0559 31.1373 80.2765 31.4795 80.431C31.8218 80.5856 32.1912 80.6711 32.5665 80.6829C32.9419 80.6947 33.3159 80.6323 33.6672 80.4994V80.4994Z" stroke="white" stroke-width="0.787487" stroke-miterlimit="10"/>
<path d="M36.805 63.2817L1.29492 67.6448L1.76587 71.487L37.276 67.1216L36.805 63.2817Z" fill="#AD79FF" stroke="white" stroke-width="0.787487" stroke-miterlimit="10"/>
<path d="M152.962 146.085C149.531 146.753 145.701 146.085 142.517 144.732C140.421 143.855 138.246 142.33 136.016 141.911C133.711 141.49 131.211 142.273 129.021 142.863C126.903 143.436 124.536 144.199 122.749 142.634C121.205 141.301 120.671 138.707 120.258 136.345C119.844 133.983 119.418 131.673 119.012 129.348C118.857 128.451 118.688 127.519 118.8 126.622C118.948 125.72 119.307 124.866 119.849 124.13C121.259 122.09 123.243 120.891 125.206 119.842C126.903 118.945 128.675 118.125 130.506 118.125C132.001 118.125 133.496 118.678 134.947 119.231C137.386 120.166 139.845 121.098 142.287 122.032C143.05 122.319 143.812 122.623 144.46 123.233C144.993 123.749 145.412 124.454 145.87 125.082C148.539 128.857 152.675 130.763 154.639 135.223C155.636 137.493 156.069 140.456 156.241 143.04C156.298 144.941 154.716 145.761 152.962 146.085Z" fill="#9C7452"/>
<path d="M127.134 121.932L91.4295 128.299C90.55 128.455 89.6445 128.255 88.912 127.744C88.1795 127.233 87.6797 126.452 87.5224 125.573L74.8842 54.5578C74.7276 53.6782 74.9268 52.7725 75.4381 52.0398C75.9493 51.3071 76.7306 50.8073 77.6102 50.6506L113.295 44.2917C114.174 44.1358 115.08 44.3354 115.812 44.8465C116.545 45.3576 117.045 46.1386 117.202 47.0178L129.86 118.033C129.937 118.468 129.928 118.914 129.833 119.346C129.738 119.777 129.559 120.186 129.306 120.548C129.052 120.91 128.73 121.219 128.358 121.457C127.985 121.694 127.569 121.856 127.134 121.932Z" fill="white" stroke="black" stroke-width="0.787487" stroke-miterlimit="10"/>
<path d="M78.3147 69.2619C76.6377 68.6141 72.5836 66.8225 70.8618 66.384C69.8651 66.1348 68.7637 66.1746 67.9066 66.7079C65.3899 68.3101 67.1042 71.7786 68.5544 73.4755C71.3178 76.6774 76.4658 79.9367 80.1436 81.9774" fill="#9C7452"/>
<path d="M78.3147 69.2619C76.6377 68.6141 72.5836 66.8225 70.8618 66.384C69.8651 66.1348 68.7637 66.1746 67.9066 66.7079C65.3899 68.3101 67.1042 71.7786 68.5544 73.4755C71.3178 76.6774 76.4658 79.9367 80.1436 81.9774" stroke="black" stroke-width="0.787487" stroke-miterlimit="10"/>
<path d="M125.419 122.237L98.2344 127.746C98.2344 127.746 103.965 134.915 116.384 135.697L120.902 140.252" fill="#9C7452"/>
<path d="M125.419 122.237L98.2344 127.746C98.2344 127.746 103.965 134.915 116.384 135.697L120.902 140.252" stroke="black" stroke-width="0.787487" stroke-miterlimit="10"/>
<path d="M131.443 117.395L118.757 47.1874C118.498 45.7848 117.695 44.5412 116.524 43.7274C115.353 42.9135 113.907 42.5952 112.503 42.8416L78.3157 49.0263C76.9133 49.2848 75.6698 50.0868 74.8559 51.2577C74.042 52.4286 73.7236 53.8735 73.97 55.2781L86.678 125.486C86.9365 126.888 87.7385 128.132 88.9094 128.946C90.0803 129.76 91.5253 130.078 92.9298 129.832L127.129 123.657C128.531 123.397 129.771 122.591 130.58 121.418C131.388 120.244 131.699 118.797 131.443 117.395Z" fill="white" stroke="black" stroke-width="0.787487" stroke-miterlimit="10"/>
<path d="M78.6606 108.893C79.1365 108.99 79.5925 109.122 80.051 109.257C82.625 110.005 81.7952 109.808 84.3593 110.553C87.2572 111.39 89.5446 115.242 87.1426 117.796C84.2073 120.924 80.8334 119.129 77.5543 117.986C75.8374 117.395 74.3524 116.518 73.7419 114.689C72.9021 112.135 74.467 108.958 77.325 108.779C77.7729 108.772 78.2204 108.81 78.6606 108.893Z" fill="#9C7452" stroke="black" stroke-width="0.787487" stroke-miterlimit="10"/>
<path d="M121.7 120.809L93.5634 125.974C92.8486 126.103 92.1116 125.946 91.5122 125.535C90.9129 125.125 90.4994 124.495 90.3615 123.781L77.3919 54.9663C77.3236 54.6251 77.3251 54.2735 77.3965 53.9329C77.4679 53.5922 77.6076 53.2697 77.8072 52.9846C78.0069 52.6995 78.2622 52.4579 78.5578 52.2743C78.8535 52.0907 79.1833 51.9689 79.5273 51.9163L83.6064 51.1688C83.8051 51.1339 84.0098 51.1703 84.1843 51.2715C84.3589 51.3727 84.4922 51.5324 84.5607 51.7222C84.8935 52.6223 85.5319 53.3767 86.3644 53.854C87.197 54.3313 88.1707 54.501 89.1156 54.3334L104.403 51.5701C105.341 51.3973 106.189 50.903 106.801 50.1721C107.414 49.4412 107.753 48.5194 107.759 47.5657C107.761 47.3606 107.834 47.1627 107.966 47.0061C108.099 46.8495 108.282 46.7442 108.484 46.7087L111.706 46.1181C112.109 46.0452 112.522 46.0525 112.923 46.1395C113.323 46.2266 113.702 46.3917 114.038 46.6255C114.374 46.8592 114.661 47.1572 114.882 47.502C115.103 47.8468 115.254 48.2315 115.326 48.6347L117.9 63.2738" fill="white"/>
<path d="M121.7 120.809L93.5634 125.974C92.8486 126.103 92.1116 125.946 91.5122 125.535C90.9129 125.125 90.4994 124.495 90.3615 123.781L77.3919 54.9663C77.3236 54.6251 77.3251 54.2735 77.3965 53.9329C77.4679 53.5922 77.6076 53.2697 77.8072 52.9846C78.0069 52.6995 78.2622 52.4579 78.5578 52.2743C78.8535 52.0907 79.1833 51.9689 79.5273 51.9163L83.6064 51.1688C83.8051 51.1339 84.0098 51.1703 84.1843 51.2715C84.3589 51.3727 84.4922 51.5324 84.5607 51.7222C84.8935 52.6223 85.5319 53.3767 86.3644 53.854C87.197 54.3313 88.1707 54.501 89.1156 54.3334L104.403 51.5701C105.341 51.3973 106.189 50.903 106.801 50.1721C107.414 49.4412 107.753 48.5194 107.759 47.5657C107.761 47.3606 107.834 47.1627 107.966 47.0061C108.099 46.8495 108.282 46.7442 108.484 46.7087L111.706 46.1181C112.109 46.0452 112.522 46.0525 112.923 46.1395C113.323 46.2266 113.702 46.3917 114.038 46.6255C114.374 46.8592 114.661 47.1572 114.882 47.502C115.103 47.8468 115.254 48.2315 115.326 48.6347L117.9 63.2738" stroke="black" stroke-width="0.787487" stroke-miterlimit="10"/>
<path d="M75.2272 88.7252C75.7031 88.8224 76.1591 88.9544 76.6176 89.089C79.1916 89.8365 81.7656 90.584 84.357 91.3315C87.2549 92.1713 89.5424 96.0209 87.1403 98.5749C84.205 101.702 77.4 98.9762 74.1209 97.8126C72.404 97.222 70.919 96.3448 70.3085 94.5158C69.4688 91.9618 71.0311 88.7849 73.8916 88.6055C74.3401 88.5895 74.7887 88.6298 75.2272 88.7252Z" fill="#9C7452" stroke="black" stroke-width="0.787487" stroke-miterlimit="10"/>
<path d="M75.2272 98.1814C75.7031 98.2761 76.1591 98.4107 76.6176 98.5428C79.1916 99.2903 81.7656 100.05 84.357 100.785C87.2549 101.625 89.5424 105.475 87.1403 108.029C84.205 111.156 77.4 108.43 74.1209 107.267C72.404 106.676 70.919 105.799 70.3085 103.967C69.4688 101.413 71.0311 98.2364 73.8916 98.0595C74.3399 98.0518 74.7877 98.0926 75.2272 98.1814Z" fill="#9C7452" stroke="black" stroke-width="0.787487" stroke-miterlimit="10"/>
<path d="M156.814 143.055L155.803 138.862C155.708 137.813 143.718 108.647 142.402 105.063C141.086 101.48 131.805 83.0836 131.805 83.0836C130.449 80.375 129.726 77.3526 129.288 74.3899C129.288 74.3899 128.468 68.462 128.219 64.839C128.124 63.3713 126.046 62.3996 124.656 62.8954C122.844 63.5258 121.319 64.8016 120.48 67.3806C120.168 68.3587 120.083 69.3948 120.23 70.4106L122.67 101.465C114.435 121.786 130.277 131.317 130.277 131.317" fill="#9C7452"/>
<path d="M156.814 143.055L155.803 138.862C155.708 137.813 143.718 108.647 142.402 105.063C141.086 101.48 131.805 83.0836 131.805 83.0836C130.449 80.375 129.726 77.3526 129.288 74.3899C129.288 74.3899 128.468 68.462 128.219 64.839C128.124 63.3713 126.046 62.3996 124.656 62.8954C122.844 63.5258 121.319 64.8016 120.48 67.3806C120.168 68.3587 120.083 69.3948 120.23 70.4106L122.67 101.465C114.435 121.786 130.277 131.317 130.277 131.317" stroke="black" stroke-width="0.787487" stroke-miterlimit="10"/>
<path d="M106.165 68.7491C105.905 68.3477 105.535 68.0301 105.099 67.8346C104.65 67.6328 104.151 67.5727 103.668 67.6626C103.343 67.7225 103.032 67.8453 102.754 68.0239C102.439 68.2211 102.175 68.4891 101.983 68.8068C101.791 69.1244 101.676 69.4827 101.647 69.8529L98.2338 70.4459C98.1957 70.3504 98.1445 70.2606 98.0818 70.1792C98.0245 70.1019 97.9671 70.0072 97.9098 69.93L98.9215 68.4999C99.3244 68.6443 99.7575 68.6837 100.18 68.6145C100.505 68.5546 100.816 68.4318 101.094 68.2532C101.496 67.993 101.814 67.6216 102.009 67.1842C102.209 66.7367 102.269 66.2387 102.181 65.7563C102.12 65.4303 101.998 65.119 101.819 64.8394C101.558 64.4382 101.187 64.1208 100.75 63.925C100.302 63.7256 99.8034 63.6656 99.3202 63.7529C98.9946 63.8137 98.684 63.9372 98.4057 64.1167C98.0049 64.3771 97.6874 64.7474 97.4912 65.1832C97.2918 65.632 97.2319 66.1304 97.3193 66.6136C97.38 66.9391 97.5036 67.2497 97.6831 67.528C97.7265 67.6028 97.7774 67.6729 97.8351 67.7373L96.8234 69.1876C96.4325 69.0502 96.0127 69.0166 95.605 69.0902C95.2788 69.1515 94.9674 69.2752 94.688 69.4543C94.2872 69.7147 93.9697 70.0847 93.7735 70.5206C93.5741 70.9693 93.5142 71.4677 93.6016 71.9509C93.6623 72.2764 93.7859 72.587 93.9654 72.8654C94.2246 73.2672 94.5951 73.5849 95.0318 73.7798C95.4799 73.9816 95.979 74.0417 96.4621 73.9519C96.7875 73.8919 97.0981 73.7691 97.3766 73.5905C97.778 73.3307 98.0956 72.9603 98.2911 72.524C98.4037 72.2837 98.4688 72.0241 98.4829 71.7592L101.894 71.1686C101.934 71.2631 101.985 71.3524 102.046 71.435C102.092 71.5097 102.144 71.5806 102.201 71.647L101.189 73.0946C100.798 72.9568 100.378 72.9242 99.9705 72.9999C99.6443 73.0598 99.3329 73.1826 99.0535 73.3613C98.6524 73.6224 98.3349 73.9935 98.1391 74.4303C97.9394 74.878 97.8795 75.3755 97.9671 75.8579C98.0284 76.1841 98.1519 76.4956 98.3309 76.775C98.5914 77.1758 98.9616 77.4933 99.3974 77.6895C99.8462 77.8889 100.344 77.9486 100.828 77.8613C101.153 77.8005 101.464 77.677 101.742 77.4975C102.144 77.2383 102.462 76.8679 102.657 76.4312C102.857 75.9828 102.917 75.4841 102.829 75.0009C102.769 74.6755 102.646 74.3649 102.467 74.0864C102.41 74.0092 102.353 73.9145 102.295 73.8372L103.292 72.4093C103.649 72.5414 104.032 72.5877 104.409 72.5444C104.787 72.5011 105.15 72.3694 105.467 72.1602C105.868 71.8997 106.186 71.5295 106.382 71.0936C106.581 70.6449 106.641 70.1468 106.554 69.6635C106.47 69.3411 106.339 69.0329 106.165 68.7491ZM98.6549 65.9084C98.7095 65.6918 98.8214 65.4939 98.9788 65.3353C99.1395 65.1754 99.3458 65.0692 99.5693 65.0314C99.722 65.0082 99.8778 65.0147 100.028 65.0511C100.243 65.1082 100.439 65.22 100.598 65.3752C100.807 65.5954 100.921 65.8891 100.914 66.1926C100.907 66.4961 100.78 66.7846 100.561 66.9949C100.4 67.1543 100.194 67.2603 99.9705 67.2988C99.8179 67.3214 99.6625 67.3154 99.512 67.2813C99.297 67.2226 99.1001 67.1113 98.9389 66.9574C98.7867 66.7902 98.6818 66.5856 98.6349 66.3644C98.6117 66.2126 98.6184 66.0576 98.6549 65.9084ZM97.1299 71.7592C97.0802 71.972 96.9673 72.1647 96.806 72.3123C96.6442 72.4725 96.4373 72.5793 96.2129 72.6186C96.061 72.6394 95.9065 72.6326 95.7569 72.5987C95.542 72.54 95.345 72.4287 95.1838 72.2748C95.0309 72.1091 94.9259 71.9049 94.8798 71.6842C94.8566 71.5315 94.8634 71.3758 94.8998 71.2258C94.9551 71.0108 95.0704 70.8159 95.2324 70.6641C95.3943 70.5123 95.5962 70.41 95.8143 70.3687C95.9661 70.3455 96.121 70.3523 96.2703 70.3887C96.4857 70.4462 96.6829 70.5577 96.8434 70.7126C96.9963 70.8783 97.1013 71.0824 97.1474 71.3031C97.1702 71.4549 97.1643 71.6096 97.1299 71.7592ZM101.476 75.6686C101.42 75.8836 101.305 76.0784 101.143 76.2302C100.981 76.382 100.779 76.4846 100.561 76.5259C100.408 76.5491 100.253 76.5423 100.103 76.5059C99.8877 76.4488 99.6912 76.3373 99.532 76.182C99.3782 76.0166 99.2722 75.8124 99.2255 75.5915C99.2047 75.4395 99.2115 75.285 99.2454 75.1354C99.2904 74.9207 99.4041 74.7264 99.5693 74.5821C99.7305 74.4223 99.9365 74.3155 100.16 74.2757C100.313 74.255 100.468 74.2618 100.618 74.2957C100.833 74.3538 101.029 74.4652 101.189 74.6196C101.343 74.785 101.449 74.9892 101.495 75.2101C101.516 75.3629 101.509 75.5182 101.476 75.6686ZM105.213 70.3313C105.158 70.5462 105.043 70.7411 104.881 70.8929C104.719 71.0447 104.517 71.1473 104.299 71.1885C104.147 71.2118 103.992 71.205 103.843 71.1686C103.627 71.111 103.43 70.9993 103.27 70.8445C103.117 70.6787 103.012 70.4749 102.966 70.2541C102.943 70.1024 102.949 69.9477 102.983 69.7981C103.034 69.5857 103.147 69.393 103.307 69.2448C103.469 69.0845 103.676 68.9777 103.9 68.9384C104.052 68.9176 104.206 68.9244 104.356 68.9584C104.571 69.017 104.768 69.1283 104.929 69.2822C105.082 69.448 105.187 69.6521 105.233 69.8728C105.256 70.0256 105.249 70.1815 105.211 70.3313H105.213Z" fill="black"/>
<path d="M108.242 90.1926L98.7862 91.9093C98.3092 91.9957 97.82 91.9874 97.3463 91.8847C96.8726 91.782 96.4238 91.5871 96.0255 91.3109C95.6271 91.0348 95.2871 90.6829 95.0248 90.2753C94.7625 89.8677 94.583 89.4124 94.4966 88.9355C94.4102 88.4586 94.4186 87.9694 94.5213 87.4957C94.624 87.022 94.819 86.5732 95.0952 86.1748C95.3713 85.7765 95.7232 85.4363 96.1308 85.174C96.5383 84.9117 96.9936 84.7324 97.4705 84.646L106.927 82.9317C107.408 82.8349 107.903 82.8349 108.384 82.9319C108.865 83.0289 109.322 83.2208 109.728 83.4964C110.134 83.772 110.48 84.1257 110.748 84.537C111.015 84.9482 111.198 85.4086 111.286 85.8914C111.373 86.3741 111.364 86.8695 111.257 87.3485C111.151 87.8274 110.95 88.2805 110.667 88.681C110.384 89.0815 110.023 89.4213 109.607 89.6808C109.191 89.9404 108.727 90.1144 108.242 90.1926Z" fill="#47FFB9"/>
<path d="M108.244 90.1929L108.167 89.8116L98.713 91.5285C98.5183 91.5652 98.3206 91.5842 98.1225 91.5857C97.3491 91.5815 96.6016 91.3065 96.0098 90.8085C95.4181 90.3105 95.0194 89.6212 94.8832 88.8599C94.7929 88.3875 94.8094 87.9008 94.9314 87.4356C95.0534 86.9705 95.2779 86.5385 95.5884 86.1713C96.0862 85.5689 96.7823 85.1634 97.5519 85.0276L107.021 83.313C107.215 83.275 107.413 83.256 107.611 83.2558C108.384 83.2601 109.132 83.5351 109.724 84.0331C110.315 84.531 110.714 85.2204 110.85 85.9817C110.888 86.1763 110.908 86.374 110.908 86.5723C110.905 87.3382 110.635 88.0794 110.145 88.6679C109.649 89.2725 108.952 89.6784 108.182 89.8116L108.259 90.1929L108.334 90.5742C109.27 90.4019 110.116 89.9072 110.725 89.1762C111.335 88.4452 111.669 87.524 111.67 86.5723C111.672 86.3294 111.653 86.0868 111.613 85.8471C111.447 84.9029 110.946 84.0502 110.203 83.4452C109.475 82.8395 108.558 82.5087 107.611 82.5108C107.368 82.5105 107.126 82.5297 106.886 82.5682L97.4297 84.2849C96.4858 84.4498 95.6335 84.9508 95.0302 85.6953C94.4234 86.4222 94.0925 87.3397 94.0958 88.2866C94.0943 88.5295 94.1134 88.7721 94.1531 89.0117C94.3254 89.9477 94.8199 90.7938 95.5509 91.4032C96.2819 92.0127 97.2032 92.3472 98.1549 92.3483C98.3977 92.3486 98.6402 92.3294 98.88 92.2909L108.334 90.5742L108.244 90.1929Z" fill="black"/>
<path d="M111.142 85.9043C111.272 86.6224 111.186 87.3631 110.896 88.0325C110.605 88.7019 110.122 89.2699 109.509 89.6651C108.895 90.0602 108.178 90.2645 107.448 90.2522C106.719 90.2399 106.009 90.0116 105.409 89.5959C104.809 89.1803 104.346 88.5963 104.078 87.9174C103.81 87.2386 103.749 86.4954 103.904 85.7821C104.058 85.0688 104.42 84.4173 104.945 83.9099C105.47 83.4025 106.133 83.0622 106.851 82.9317C107.814 82.7581 108.807 82.9735 109.611 83.5308C110.415 84.0881 110.966 84.9416 111.142 85.9043Z" fill="white"/>
<path d="M111.14 85.9043L110.759 85.9815C110.849 86.4534 110.832 86.9397 110.71 87.4045C110.588 87.8693 110.364 88.3008 110.053 88.6676C109.557 89.2712 108.86 89.6769 108.09 89.8113C107.895 89.8492 107.698 89.8685 107.499 89.8688C106.675 89.8656 105.882 89.5545 105.275 88.9964C104.668 88.4383 104.292 87.6736 104.22 86.8524C104.148 86.0312 104.386 85.2128 104.887 84.5579C105.388 83.9031 106.115 83.4589 106.926 83.3128C107.121 83.2749 107.319 83.2559 107.517 83.2556C108.29 83.2598 109.038 83.5348 109.629 84.0328C110.221 84.5308 110.62 85.2202 110.756 85.9815L111.137 85.9043L111.519 85.8272C111.347 84.8908 110.852 84.0444 110.12 83.4352C109.388 82.826 108.466 82.4925 107.514 82.493C107.271 82.4916 107.029 82.5109 106.789 82.5504C105.845 82.7144 104.992 83.2156 104.39 83.9608C103.783 84.6877 103.452 85.6052 103.455 86.5521C103.454 86.795 103.473 87.0376 103.512 87.2772C103.685 88.2132 104.179 89.0593 104.91 89.6687C105.641 90.2782 106.563 90.6127 107.514 90.6138C107.757 90.6141 108 90.5949 108.239 90.5564C109.184 90.3904 110.036 89.8897 110.641 89.146C111.247 88.4175 111.578 87.4995 111.576 86.5521C111.576 86.3092 111.557 86.067 111.519 85.8272L111.14 85.9043Z" fill="black"/>
<path d="M152.962 146.085C149.531 146.753 145.701 146.085 142.517 144.732C140.421 143.855 138.246 142.33 136.016 141.911C133.711 141.49 131.211 142.273 129.021 142.863C126.903 143.436 124.536 144.199 122.749 142.634C121.205 141.301 120.671 138.707 120.258 136.345C119.844 133.983 119.418 131.673 119.012 129.348C118.857 128.451 118.688 127.519 118.8 126.622C118.948 125.72 119.307 124.866 119.849 124.13C121.259 122.09 123.243 120.891 125.206 119.842C126.903 118.945 128.675 118.125 130.506 118.125C132.001 118.125 133.496 118.678 134.947 119.231C137.386 120.166 139.845 121.098 142.287 122.032C143.05 122.319 143.812 122.623 144.46 123.233C144.993 123.749 145.412 124.454 145.87 125.082C148.539 128.857 152.675 130.763 154.639 135.223C155.636 137.493 156.069 140.456 156.241 143.04C156.298 144.941 154.716 145.761 152.962 146.085Z" fill="#9C7452"/>
<path d="M127.134 121.932L91.4295 128.299C90.55 128.455 89.6445 128.255 88.912 127.744C88.1795 127.233 87.6797 126.452 87.5224 125.573L74.8842 54.5578C74.7276 53.6782 74.9268 52.7725 75.4381 52.0398C75.9493 51.3071 76.7306 50.8073 77.6102 50.6506L113.295 44.2917C114.174 44.1358 115.08 44.3354 115.812 44.8465C116.545 45.3576 117.045 46.1386 117.202 47.0178L129.86 118.033C129.937 118.468 129.928 118.914 129.833 119.346C129.738 119.777 129.559 120.186 129.306 120.548C129.052 120.91 128.73 121.219 128.358 121.457C127.985 121.694 127.569 121.856 127.134 121.932Z" fill="white" stroke="black" stroke-width="0.787487" stroke-miterlimit="10"/>
<path d="M78.3147 69.2619C76.6377 68.6141 72.5836 66.8225 70.8618 66.384C69.8651 66.1348 68.7637 66.1746 67.9066 66.7079C65.3899 68.3101 67.1042 71.7786 68.5544 73.4755C71.3178 76.6774 76.4658 79.9367 80.1436 81.9774" fill="#9C7452"/>
<path d="M78.3147 69.2619C76.6377 68.6141 72.5836 66.8225 70.8618 66.384C69.8651 66.1348 68.7637 66.1746 67.9066 66.7079C65.3899 68.3101 67.1042 71.7786 68.5544 73.4755C71.3178 76.6774 76.4658 79.9367 80.1436 81.9774" stroke="black" stroke-width="0.787487" stroke-miterlimit="10"/>
<path d="M125.419 122.237L98.2344 127.746C98.2344 127.746 103.965 134.915 116.384 135.697L120.902 140.252" fill="#9C7452"/>
<path d="M125.419 122.237L98.2344 127.746C98.2344 127.746 103.965 134.915 116.384 135.697L120.902 140.252" stroke="black" stroke-width="0.787487" stroke-miterlimit="10"/>
<path d="M131.443 117.395L118.757 47.1874C118.498 45.7848 117.695 44.5412 116.524 43.7274C115.353 42.9135 113.907 42.5952 112.503 42.8416L78.3157 49.0263C76.9133 49.2848 75.6698 50.0868 74.8559 51.2577C74.042 52.4286 73.7236 53.8735 73.97 55.2781L86.678 125.486C86.9365 126.888 87.7385 128.132 88.9094 128.946C90.0803 129.76 91.5253 130.078 92.9298 129.832L127.129 123.657C128.531 123.397 129.771 122.591 130.58 121.418C131.388 120.244 131.699 118.797 131.443 117.395Z" fill="white" stroke="black" stroke-width="0.787487" stroke-miterlimit="10"/>
<path d="M78.6606 108.893C79.1365 108.99 79.5925 109.122 80.051 109.257C82.625 110.005 81.7952 109.808 84.3593 110.553C87.2572 111.39 89.5446 115.242 87.1426 117.796C84.2073 120.924 80.8334 119.129 77.5543 117.986C75.8374 117.395 74.3524 116.518 73.7419 114.689C72.9021 112.135 74.467 108.958 77.325 108.779C77.7729 108.772 78.2204 108.81 78.6606 108.893Z" fill="#9C7452" stroke="black" stroke-width="0.787487" stroke-miterlimit="10"/>
<path d="M121.7 120.809L93.5634 125.974C92.8486 126.103 92.1116 125.946 91.5122 125.535C90.9129 125.125 90.4994 124.495 90.3615 123.781L77.3919 54.9663C77.3236 54.6251 77.3251 54.2735 77.3965 53.9329C77.4679 53.5922 77.6076 53.2697 77.8072 52.9846C78.0069 52.6995 78.2622 52.4579 78.5578 52.2743C78.8535 52.0907 79.1833 51.9689 79.5273 51.9163L83.6064 51.1688C83.8051 51.1339 84.0098 51.1703 84.1843 51.2715C84.3589 51.3727 84.4922 51.5324 84.5607 51.7222C84.8935 52.6223 85.5319 53.3767 86.3644 53.854C87.197 54.3313 88.1707 54.501 89.1156 54.3334L104.403 51.5701C105.341 51.3973 106.189 50.903 106.801 50.1721C107.414 49.4412 107.753 48.5194 107.759 47.5657C107.761 47.3606 107.834 47.1627 107.966 47.0061C108.099 46.8495 108.282 46.7442 108.484 46.7087L111.706 46.1181C112.109 46.0452 112.522 46.0525 112.923 46.1395C113.323 46.2266 113.702 46.3917 114.038 46.6255C114.374 46.8592 114.661 47.1572 114.882 47.502C115.103 47.8468 115.254 48.2315 115.326 48.6347L117.9 63.2738" fill="white"/>
<path d="M121.7 120.809L93.5634 125.974C92.8486 126.103 92.1116 125.946 91.5122 125.535C90.9129 125.125 90.4994 124.495 90.3615 123.781L77.3919 54.9663C77.3236 54.6251 77.3251 54.2735 77.3965 53.9329C77.4679 53.5922 77.6076 53.2697 77.8072 52.9846C78.0069 52.6995 78.2622 52.4579 78.5578 52.2743C78.8535 52.0907 79.1833 51.9689 79.5273 51.9163L83.6064 51.1688C83.8051 51.1339 84.0098 51.1703 84.1843 51.2715C84.3589 51.3727 84.4922 51.5324 84.5607 51.7222C84.8935 52.6223 85.5319 53.3767 86.3644 53.854C87.197 54.3313 88.1707 54.501 89.1156 54.3334L104.403 51.5701C105.341 51.3973 106.189 50.903 106.801 50.1721C107.414 49.4412 107.753 48.5194 107.759 47.5657C107.761 47.3606 107.834 47.1627 107.966 47.0061C108.099 46.8495 108.282 46.7442 108.484 46.7087L111.706 46.1181C112.109 46.0452 112.522 46.0525 112.923 46.1395C113.323 46.2266 113.702 46.3917 114.038 46.6255C114.374 46.8592 114.661 47.1572 114.882 47.502C115.103 47.8468 115.254 48.2315 115.326 48.6347L117.9 63.2738" stroke="black" stroke-width="0.787487" stroke-miterlimit="10"/>
<path d="M75.2272 88.7252C75.7031 88.8224 76.1591 88.9544 76.6176 89.089C79.1916 89.8365 81.7656 90.584 84.357 91.3315C87.2549 92.1713 89.5424 96.0209 87.1403 98.5749C84.205 101.702 77.4 98.9762 74.1209 97.8126C72.404 97.222 70.919 96.3448 70.3085 94.5158C69.4688 91.9618 71.0311 88.7849 73.8916 88.6055C74.3401 88.5895 74.7887 88.6298 75.2272 88.7252Z" fill="#9C7452" stroke="black" stroke-width="0.787487" stroke-miterlimit="10"/>
<path d="M75.2272 98.1814C75.7031 98.2761 76.1591 98.4107 76.6176 98.5428C79.1916 99.2903 81.7656 100.05 84.357 100.785C87.2549 101.625 89.5424 105.475 87.1403 108.029C84.205 111.156 77.4 108.43 74.1209 107.267C72.404 106.676 70.919 105.799 70.3085 103.967C69.4688 101.413 71.0311 98.2364 73.8916 98.0595C74.3399 98.0518 74.7877 98.0926 75.2272 98.1814Z" fill="#9C7452" stroke="black" stroke-width="0.787487" stroke-miterlimit="10"/>
<path d="M156.814 143.055L155.803 138.862C155.708 137.813 143.718 108.647 142.402 105.063C141.086 101.48 131.805 83.0836 131.805 83.0836C130.449 80.375 129.726 77.3526 129.288 74.3899C129.288 74.3899 128.468 68.462 128.219 64.839C128.124 63.3713 126.046 62.3996 124.656 62.8954C122.844 63.5258 121.319 64.8016 120.48 67.3806C120.168 68.3587 120.083 69.3948 120.23 70.4106L122.67 101.465C114.435 121.786 130.277 131.317 130.277 131.317" fill="#9C7452"/>
<path d="M156.814 143.055L155.803 138.862C155.708 137.813 143.718 108.647 142.402 105.063C141.086 101.48 131.805 83.0836 131.805 83.0836C130.449 80.375 129.726 77.3526 129.288 74.3899C129.288 74.3899 128.468 68.462 128.219 64.839C128.124 63.3713 126.046 62.3996 124.656 62.8954C122.844 63.5258 121.319 64.8016 120.48 67.3806C120.168 68.3587 120.083 69.3948 120.23 70.4106L122.67 101.465C114.435 121.786 130.277 131.317 130.277 131.317" stroke="black" stroke-width="0.787487" stroke-miterlimit="10"/>
<path d="M106.165 68.7491C105.905 68.3477 105.535 68.0301 105.099 67.8346C104.65 67.6328 104.151 67.5727 103.668 67.6626C103.343 67.7225 103.032 67.8453 102.754 68.0239C102.439 68.2211 102.175 68.4891 101.983 68.8068C101.791 69.1244 101.676 69.4827 101.647 69.8529L98.2338 70.4459C98.1957 70.3504 98.1445 70.2606 98.0818 70.1792C98.0245 70.1019 97.9671 70.0072 97.9098 69.93L98.9215 68.4999C99.3244 68.6443 99.7575 68.6837 100.18 68.6145C100.505 68.5546 100.816 68.4318 101.094 68.2532C101.496 67.993 101.814 67.6216 102.009 67.1842C102.209 66.7367 102.269 66.2387 102.181 65.7563C102.12 65.4303 101.998 65.119 101.819 64.8394C101.558 64.4382 101.187 64.1208 100.75 63.925C100.302 63.7256 99.8034 63.6656 99.3202 63.7529C98.9946 63.8137 98.684 63.9372 98.4057 64.1167C98.0049 64.3771 97.6874 64.7474 97.4912 65.1832C97.2918 65.632 97.2319 66.1304 97.3193 66.6136C97.38 66.9391 97.5036 67.2497 97.6831 67.528C97.7265 67.6028 97.7774 67.6729 97.8351 67.7373L96.8234 69.1876C96.4325 69.0502 96.0127 69.0166 95.605 69.0902C95.2788 69.1515 94.9674 69.2752 94.688 69.4543C94.2872 69.7147 93.9697 70.0847 93.7735 70.5206C93.5741 70.9693 93.5142 71.4677 93.6016 71.9509C93.6623 72.2764 93.7859 72.587 93.9654 72.8654C94.2246 73.2672 94.5951 73.5849 95.0318 73.7798C95.4799 73.9816 95.979 74.0417 96.4621 73.9519C96.7875 73.8919 97.0981 73.7691 97.3766 73.5905C97.778 73.3307 98.0956 72.9603 98.2911 72.524C98.4037 72.2837 98.4688 72.0241 98.4829 71.7592L101.894 71.1686C101.934 71.2631 101.985 71.3524 102.046 71.435C102.092 71.5097 102.144 71.5806 102.201 71.647L101.189 73.0946C100.798 72.9568 100.378 72.9242 99.9705 72.9999C99.6443 73.0598 99.3329 73.1826 99.0535 73.3613C98.6524 73.6224 98.3349 73.9935 98.1391 74.4303C97.9394 74.878 97.8795 75.3755 97.9671 75.8579C98.0284 76.1841 98.1519 76.4956 98.3309 76.775C98.5914 77.1758 98.9616 77.4933 99.3974 77.6895C99.8462 77.8889 100.344 77.9486 100.828 77.8613C101.153 77.8005 101.464 77.677 101.742 77.4975C102.144 77.2383 102.462 76.8679 102.657 76.4312C102.857 75.9828 102.917 75.4841 102.829 75.0009C102.769 74.6755 102.646 74.3649 102.467 74.0864C102.41 74.0092 102.353 73.9145 102.295 73.8372L103.292 72.4093C103.649 72.5414 104.032 72.5877 104.409 72.5444C104.787 72.5011 105.15 72.3694 105.467 72.1602C105.868 71.8997 106.186 71.5295 106.382 71.0936C106.581 70.6449 106.641 70.1468 106.554 69.6635C106.47 69.3411 106.339 69.0329 106.165 68.7491ZM98.6549 65.9084C98.7095 65.6918 98.8214 65.4939 98.9788 65.3353C99.1395 65.1754 99.3458 65.0692 99.5693 65.0314C99.722 65.0082 99.8778 65.0147 100.028 65.0511C100.243 65.1082 100.439 65.22 100.598 65.3752C100.807 65.5954 100.921 65.8891 100.914 66.1926C100.907 66.4961 100.78 66.7846 100.561 66.9949C100.4 67.1543 100.194 67.2603 99.9705 67.2988C99.8179 67.3214 99.6625 67.3154 99.512 67.2813C99.297 67.2226 99.1001 67.1113 98.9389 66.9574C98.7867 66.7902 98.6818 66.5856 98.6349 66.3644C98.6117 66.2126 98.6184 66.0576 98.6549 65.9084ZM97.1299 71.7592C97.0802 71.972 96.9673 72.1647 96.806 72.3123C96.6442 72.4725 96.4373 72.5793 96.2129 72.6186C96.061 72.6394 95.9065 72.6326 95.7569 72.5987C95.542 72.54 95.345 72.4287 95.1838 72.2748C95.0309 72.1091 94.9259 71.9049 94.8798 71.6842C94.8566 71.5315 94.8634 71.3758 94.8998 71.2258C94.9551 71.0108 95.0704 70.8159 95.2324 70.6641C95.3943 70.5123 95.5962 70.41 95.8143 70.3687C95.9661 70.3455 96.121 70.3523 96.2703 70.3887C96.4857 70.4462 96.6829 70.5577 96.8434 70.7126C96.9963 70.8783 97.1013 71.0824 97.1474 71.3031C97.1702 71.4549 97.1643 71.6096 97.1299 71.7592ZM101.476 75.6686C101.42 75.8836 101.305 76.0784 101.143 76.2302C100.981 76.382 100.779 76.4846 100.561 76.5259C100.408 76.5491 100.253 76.5423 100.103 76.5059C99.8877 76.4488 99.6912 76.3373 99.532 76.182C99.3782 76.0166 99.2722 75.8124 99.2255 75.5915C99.2047 75.4395 99.2115 75.285 99.2454 75.1354C99.2904 74.9207 99.4041 74.7264 99.5693 74.5821C99.7305 74.4223 99.9365 74.3155 100.16 74.2757C100.313 74.255 100.468 74.2618 100.618 74.2957C100.833 74.3538 101.029 74.4652 101.189 74.6196C101.343 74.785 101.449 74.9892 101.495 75.2101C101.516 75.3629 101.509 75.5182 101.476 75.6686ZM105.213 70.3313C105.158 70.5462 105.043 70.7411 104.881 70.8929C104.719 71.0447 104.517 71.1473 104.299 71.1885C104.147 71.2118 103.992 71.205 103.843 71.1686C103.627 71.111 103.43 70.9993 103.27 70.8445C103.117 70.6787 103.012 70.4749 102.966 70.2541C102.943 70.1024 102.949 69.9477 102.983 69.7981C103.034 69.5857 103.147 69.393 103.307 69.2448C103.469 69.0845 103.676 68.9777 103.9 68.9384C104.052 68.9176 104.206 68.9244 104.356 68.9584C104.571 69.017 104.768 69.1283 104.929 69.2822C105.082 69.448 105.187 69.6521 105.233 69.8728C105.256 70.0256 105.249 70.1815 105.211 70.3313H105.213Z" fill="black"/>
<path d="M108.242 90.1926L98.7862 91.9093C98.3092 91.9957 97.82 91.9874 97.3463 91.8847C96.8726 91.782 96.4238 91.5871 96.0255 91.3109C95.6271 91.0348 95.2871 90.6829 95.0248 90.2753C94.7625 89.8677 94.583 89.4124 94.4966 88.9355C94.4102 88.4586 94.4186 87.9694 94.5213 87.4957C94.624 87.022 94.819 86.5732 95.0952 86.1748C95.3713 85.7765 95.7232 85.4363 96.1308 85.174C96.5383 84.9117 96.9936 84.7324 97.4705 84.646L106.927 82.9317C107.408 82.8349 107.903 82.8349 108.384 82.9319C108.865 83.0289 109.322 83.2208 109.728 83.4964C110.134 83.772 110.48 84.1257 110.748 84.537C111.015 84.9482 111.198 85.4086 111.286 85.8914C111.373 86.3741 111.364 86.8695 111.257 87.3485C111.151 87.8274 110.95 88.2805 110.667 88.681C110.384 89.0815 110.023 89.4213 109.607 89.6808C109.191 89.9404 108.727 90.1144 108.242 90.1926Z" fill="#47FFB9"/>
<path d="M108.244 90.1929L108.167 89.8116L98.713 91.5285C98.5183 91.5652 98.3206 91.5842 98.1225 91.5857C97.3491 91.5815 96.6016 91.3065 96.0098 90.8085C95.4181 90.3105 95.0194 89.6212 94.8832 88.8599C94.7929 88.3875 94.8094 87.9008 94.9314 87.4356C95.0534 86.9705 95.2779 86.5385 95.5884 86.1713C96.0862 85.5689 96.7823 85.1634 97.5519 85.0276L107.021 83.313C107.215 83.275 107.413 83.256 107.611 83.2558C108.384 83.2601 109.132 83.5351 109.724 84.0331C110.315 84.531 110.714 85.2204 110.85 85.9817C110.888 86.1763 110.908 86.374 110.908 86.5723C110.905 87.3382 110.635 88.0794 110.145 88.6679C109.649 89.2725 108.952 89.6784 108.182 89.8116L108.259 90.1929L108.334 90.5742C109.27 90.4019 110.116 89.9072 110.725 89.1762C111.335 88.4452 111.669 87.524 111.67 86.5723C111.672 86.3294 111.653 86.0868 111.613 85.8471C111.447 84.9029 110.946 84.0502 110.203 83.4452C109.475 82.8395 108.558 82.5087 107.611 82.5108C107.368 82.5105 107.126 82.5297 106.886 82.5682L97.4297 84.2849C96.4858 84.4498 95.6335 84.9508 95.0302 85.6953C94.4234 86.4222 94.0925 87.3397 94.0958 88.2866C94.0943 88.5295 94.1134 88.7721 94.1531 89.0117C94.3254 89.9477 94.8199 90.7938 95.5509 91.4032C96.2819 92.0127 97.2032 92.3472 98.1549 92.3483C98.3977 92.3486 98.6402 92.3294 98.88 92.2909L108.334 90.5742L108.244 90.1929Z" fill="black"/>
<path d="M111.142 85.9043C111.272 86.6224 111.186 87.3631 110.896 88.0325C110.605 88.7019 110.122 89.2699 109.509 89.6651C108.895 90.0602 108.178 90.2645 107.448 90.2522C106.719 90.2399 106.009 90.0116 105.409 89.5959C104.809 89.1803 104.346 88.5963 104.078 87.9174C103.81 87.2386 103.749 86.4954 103.904 85.7821C104.058 85.0688 104.42 84.4173 104.945 83.9099C105.47 83.4025 106.133 83.0622 106.851 82.9317C107.814 82.7581 108.807 82.9735 109.611 83.5308C110.415 84.0881 110.966 84.9416 111.142 85.9043Z" fill="white"/>
<path d="M111.14 85.9043L110.759 85.9815C110.849 86.4534 110.832 86.9397 110.71 87.4045C110.588 87.8693 110.364 88.3008 110.053 88.6676C109.557 89.2712 108.86 89.6769 108.09 89.8113C107.895 89.8492 107.698 89.8685 107.499 89.8688C106.675 89.8656 105.882 89.5545 105.275 88.9964C104.668 88.4383 104.292 87.6736 104.22 86.8524C104.148 86.0312 104.386 85.2128 104.887 84.5579C105.388 83.9031 106.115 83.4589 106.926 83.3128C107.121 83.2749 107.319 83.2559 107.517 83.2556C108.29 83.2598 109.038 83.5348 109.629 84.0328C110.221 84.5308 110.62 85.2202 110.756 85.9815L111.137 85.9043L111.519 85.8272C111.347 84.8908 110.852 84.0444 110.12 83.4352C109.388 82.826 108.466 82.4925 107.514 82.493C107.271 82.4916 107.029 82.5109 106.789 82.5504C105.845 82.7144 104.992 83.2156 104.39 83.9608C103.783 84.6877 103.452 85.6052 103.455 86.5521C103.454 86.795 103.473 87.0376 103.512 87.2772C103.685 88.2132 104.179 89.0593 104.91 89.6687C105.641 90.2782 106.563 90.6127 107.514 90.6138C107.757 90.6141 108 90.5949 108.239 90.5564C109.184 90.3904 110.036 89.8897 110.641 89.146C111.247 88.4175 111.578 87.4995 111.576 86.5521C111.576 86.3092 111.557 86.067 111.519 85.8272L111.14 85.9043Z" fill="black"/>
<path d="M127.571 19.262C127.613 21.2076 127.061 23.1198 125.989 24.7438L125.914 24.8584L119.109 35.0199C118.983 35.2049 118.814 35.3564 118.616 35.4611C118.418 35.5657 118.198 35.6202 117.974 35.6202C117.75 35.6202 117.53 35.5657 117.332 35.4611C117.134 35.3564 116.965 35.2049 116.839 35.0199L110.034 24.856L109.957 24.7414C109.14 23.499 108.622 22.0835 108.445 20.6069C108.268 19.1302 108.437 17.6327 108.938 16.2324C109.439 14.8321 110.258 13.5675 111.332 12.5381C112.405 11.5087 113.703 10.7428 115.123 10.3009C116.543 9.85893 118.046 9.75287 119.514 9.99135C120.982 10.2298 122.375 10.8063 123.582 11.675C124.789 12.5437 125.778 13.681 126.47 14.9973C127.162 16.3135 127.539 17.7727 127.571 19.2595V19.262Z" fill="#6F4AE7" stroke="black" stroke-width="0.787487" stroke-linecap="round" stroke-linejoin="round"/>
<path d="M121.498 20.371C121.675 19.6772 121.642 18.9465 121.404 18.2712C121.166 17.5959 120.733 17.0064 120.16 16.5771C119.587 16.1478 118.9 15.8981 118.185 15.8595C117.47 15.8209 116.759 15.9952 116.144 16.3603C115.528 16.7254 115.034 17.2651 114.724 17.9108C114.415 18.5566 114.304 19.2794 114.406 19.9882C114.507 20.697 114.817 21.3598 115.295 21.8928C115.773 22.4257 116.398 22.8049 117.092 22.9824C117.553 23.1003 118.032 23.1263 118.503 23.0589C118.974 22.9914 119.427 22.8317 119.836 22.5892C120.245 22.3467 120.602 22.0262 120.887 21.6456C121.172 21.2649 121.38 20.8317 121.498 20.371Z" fill="white" stroke="black" stroke-width="0.787487" stroke-miterlimit="10"/>
<path d="M31.5132 132.722L29.0538 133.312C28.2738 133.495 27.4532 133.362 26.7711 132.942C26.089 132.522 25.6009 131.849 25.4133 131.07L23.6218 123.56C23.4385 122.781 23.57 121.962 23.9877 121.281C24.4053 120.599 25.0753 120.109 25.8519 119.919L28.3113 119.329L31.5132 132.722Z" stroke="black" stroke-width="0.787487" stroke-linejoin="round"/>
<path d="M57.4768 107.196C57.7726 107.122 58.0277 106.935 58.1878 106.675C58.3479 106.416 58.4003 106.104 58.334 105.806L58.2966 105.614C57.7749 103.332 56.8067 101.175 55.4478 99.2681C54.0889 97.3614 52.366 95.7424 50.3786 94.5046C48.3912 93.2667 46.1784 92.4345 43.8679 92.0556C41.5573 91.6768 39.1946 91.7589 36.916 92.2973C34.6373 92.8356 32.4877 93.8194 30.591 95.1922C28.6943 96.5651 27.088 98.2998 25.8647 100.296C24.6414 102.293 23.8253 104.511 23.4633 106.825C23.1014 109.138 23.2008 111.5 23.7558 113.775L23.7932 113.964C23.8682 114.26 24.0552 114.515 24.3146 114.675C24.574 114.835 24.8856 114.889 25.1836 114.824L26.2725 114.555C26.5676 114.479 26.8219 114.292 26.9818 114.033C27.1417 113.773 27.1947 113.462 27.1296 113.164L27.0923 112.972C26.5506 110.673 26.5857 108.275 27.1945 105.993C27.8033 103.71 28.9668 101.613 30.5816 99.8889C32.1964 98.1646 34.2125 96.8661 36.4503 96.1091C38.6881 95.3521 41.0783 95.1601 43.4083 95.5499C46.1514 96.0181 48.7007 97.2694 50.749 99.153C52.8564 101.08 54.3329 103.599 54.985 106.379L55.0224 106.571C55.0974 106.867 55.2849 107.122 55.545 107.282C55.805 107.442 56.1172 107.495 56.4153 107.428L57.4768 107.196Z" fill="#C3C5FF" stroke="white" stroke-width="0.787487" stroke-linecap="round" stroke-linejoin="round"/>
<path d="M36.3001 133.995L34.202 134.494C33.9204 134.561 33.6284 134.571 33.3427 134.525C33.0569 134.479 32.7831 134.377 32.537 134.224C32.2909 134.072 32.0773 133.873 31.9085 133.637C31.7397 133.402 31.619 133.136 31.5533 132.854L28.314 119.184C28.2467 118.903 28.2358 118.611 28.2819 118.325C28.328 118.039 28.4302 117.765 28.5826 117.519C28.735 117.273 28.9346 117.059 29.1699 116.89C29.4052 116.722 29.6715 116.601 29.9536 116.536L32.0516 116.037C32.3333 115.97 32.6254 115.959 32.9113 116.005C33.1971 116.051 33.471 116.153 33.7172 116.306C33.9634 116.458 34.177 116.658 34.3458 116.893C34.5145 117.128 34.635 117.395 34.7004 117.677L37.9397 131.344C38.0729 131.913 37.9751 132.512 37.6678 133.009C37.3604 133.506 36.8686 133.86 36.3001 133.995Z" stroke="black" stroke-width="0.787487" stroke-linejoin="round"/>
<path d="M31.5132 132.722L29.0538 133.312C28.2738 133.495 27.4532 133.362 26.7711 132.942C26.089 132.522 25.6009 131.849 25.4133 131.07L23.6218 123.56C23.4385 122.781 23.57 121.962 23.9877 121.281C24.4053 120.599 25.0753 120.109 25.8519 119.919L28.3113 119.329L31.5132 132.722Z" stroke="white" stroke-width="0.787487" stroke-linejoin="round"/>
<path d="M36.3001 133.995L34.202 134.494C33.9204 134.561 33.6284 134.571 33.3427 134.525C33.0569 134.479 32.7831 134.377 32.537 134.224C32.2909 134.072 32.0773 133.873 31.9085 133.637C31.7397 133.402 31.619 133.136 31.5533 132.854L28.314 119.184C28.2467 118.903 28.2358 118.611 28.2819 118.325C28.328 118.039 28.4302 117.765 28.5826 117.519C28.735 117.273 28.9346 117.059 29.1699 116.89C29.4052 116.722 29.6715 116.601 29.9536 116.536L32.0516 116.037C32.3333 115.97 32.6254 115.959 32.9113 116.005C33.1971 116.051 33.471 116.153 33.7172 116.306C33.9634 116.458 34.177 116.658 34.3458 116.893C34.5145 117.128 34.635 117.395 34.7004 117.677L37.9397 131.344C38.0729 131.913 37.9751 132.512 37.6678 133.009C37.3604 133.506 36.8686 133.86 36.3001 133.995Z" stroke="white" stroke-width="0.787487" stroke-linejoin="round"/>
<path d="M59.8027 126.022L62.2621 125.431C62.6506 125.344 63.0177 125.179 63.3418 124.948C63.6659 124.716 63.9404 124.422 64.1493 124.083C64.3582 123.744 64.4973 123.366 64.5583 122.973C64.6193 122.579 64.6011 122.177 64.5047 121.791L62.7131 114.281C62.6254 113.892 62.4609 113.525 62.2294 113.201C61.9978 112.877 61.7038 112.602 61.3647 112.393C61.0256 112.184 60.6481 112.046 60.2545 111.985C59.8609 111.924 59.4591 111.942 59.0726 112.038L56.6133 112.629L59.8027 126.022Z" stroke="white" stroke-width="0.787487" stroke-linejoin="round"/>
<path d="M56.1063 129.291L58.2043 128.793C58.7727 128.658 59.2644 128.304 59.5718 127.807C59.8792 127.311 59.9771 126.712 59.8439 126.144L56.6046 112.476C56.5384 112.195 56.4173 111.929 56.2483 111.694C56.0793 111.46 55.8658 111.26 55.6198 111.108C55.3739 110.956 55.1003 110.854 54.8148 110.807C54.5293 110.761 54.2375 110.771 53.9559 110.837L51.8578 111.335C51.2895 111.47 50.7977 111.824 50.4903 112.321C50.1829 112.817 50.0851 113.415 50.2182 113.984L53.4575 127.651C53.5211 127.934 53.6404 128.202 53.8087 128.438C53.9769 128.675 54.1907 128.875 54.4374 129.028C54.684 129.18 54.9587 129.282 55.2453 129.327C55.5319 129.373 55.8246 129.36 56.1063 129.291V129.291Z" stroke="white" stroke-width="0.787487" stroke-linejoin="round"/>
<path d="M25.7383 114.956L26.8247 119.588" stroke="white" stroke-width="0.787487" stroke-linecap="round" stroke-linejoin="round"/>
<path d="M56.9824 107.541L58.0688 112.173" stroke="white" stroke-width="0.787487" stroke-linecap="round" stroke-linejoin="round"/>
<path d="M35.6699 109.696C36.1742 108.876 36.835 108.163 37.6148 107.599C38.3945 107.034 39.2779 106.629 40.2143 106.406C41.1508 106.182 42.1221 106.146 43.0726 106.298C44.0231 106.451 44.9343 106.789 45.7541 107.294" stroke="white" stroke-width="0.787487" stroke-linecap="round" stroke-linejoin="round"/>
<path d="M38.0547 111.143C38.6863 110.116 39.6998 109.382 40.8725 109.102C42.0452 108.821 43.2812 109.018 44.309 109.648" stroke="white" stroke-width="0.787487" stroke-linecap="round" stroke-linejoin="round"/>
<path d="M40.3027 112.534C40.4336 112.322 40.6052 112.138 40.8076 111.992C41.0099 111.847 41.2391 111.742 41.4818 111.686C41.7246 111.629 41.9761 111.621 42.2219 111.663C42.4677 111.704 42.703 111.793 42.9141 111.926" stroke="white" stroke-width="0.787487" stroke-linecap="round" stroke-linejoin="round"/>
<path d="M185.787 53.013C185.711 53.0111 185.639 52.9802 185.586 52.9269C185.533 52.8736 185.502 52.8018 185.5 52.7264V50.1551C185.5 50.0791 185.53 50.0061 185.584 49.9524C185.638 49.8986 185.711 49.8684 185.787 49.8684C185.863 49.8684 185.935 49.8986 185.989 49.9524C186.043 50.0061 186.073 50.0791 186.073 50.1551V52.7264C186.074 52.7642 186.067 52.8018 186.053 52.8369C186.039 52.8719 186.017 52.9038 185.991 52.9305C185.964 52.9573 185.932 52.9784 185.897 52.9926C185.862 53.0068 185.824 53.0137 185.787 53.013Z" fill="white" stroke="white" stroke-width="0.401618" stroke-miterlimit="10"/>
<path d="M187.371 51.4583C187.369 51.5337 187.338 51.6055 187.285 51.6588C187.232 51.7121 187.16 51.743 187.085 51.7449H184.513C184.437 51.7449 184.364 51.7147 184.31 51.661C184.257 51.6072 184.227 51.5343 184.227 51.4583C184.227 51.3823 184.257 51.3096 184.31 51.2558C184.364 51.2021 184.437 51.1719 184.513 51.1719H187.085C187.16 51.1738 187.232 51.2044 187.285 51.2578C187.338 51.3111 187.369 51.3829 187.371 51.4583Z" fill="white" stroke="white" stroke-width="0.401618" stroke-miterlimit="10"/>
</svg>
