<svg width="320" height="160" viewBox="0 0 320 160" fill="none" xmlns="http://www.w3.org/2000/svg">
<path d="M142.053 42.3655H110.414C108.483 42.3655 106.917 43.8976 106.917 45.7875V92.4509C106.917 94.3408 108.483 95.8729 110.414 95.8729H142.053C143.985 95.8729 145.551 94.3408 145.551 92.4509V45.7875C145.551 43.8976 143.985 42.3655 142.053 42.3655Z" fill="#C5C8FB"/>
<path d="M136.645 38.632H105.006C103.25 38.632 101.826 40.0248 101.826 41.7429V88.4063C101.826 90.1244 103.25 91.5172 105.006 91.5172H136.645C138.401 91.5172 139.825 90.1244 139.825 88.4063V41.7429C139.825 40.0248 138.401 38.632 136.645 38.632Z" fill="white" stroke="black" stroke-width="0.333332"/>
<path d="M129.643 53.9012C129.379 53.2907 128.938 52.7696 128.373 52.4032C127.809 52.0367 127.147 51.841 126.469 51.8406C125.904 51.8381 125.347 51.9723 124.847 52.2315C124.348 52.4904 123.921 52.8662 123.606 53.3254C123.401 53.625 123.248 53.9557 123.152 54.3039H118.299C118.265 54.166 118.219 54.0313 118.161 53.9012C118.108 53.7741 118.043 53.6519 117.968 53.5362L119.699 51.8424C120.224 52.1353 120.818 52.2882 121.422 52.2856C121.885 52.2874 122.343 52.1966 122.768 52.0184C123.394 51.7608 123.928 51.3284 124.303 50.7752C124.679 50.222 124.879 49.5727 124.879 48.9087C124.879 48.3565 124.74 47.8129 124.475 47.3256C124.209 46.8383 123.826 46.4219 123.358 46.1133C122.786 45.7358 122.112 45.5351 121.422 45.5374C120.969 45.5363 120.52 45.6228 120.101 45.7919C119.682 45.961 119.302 46.2091 118.981 46.5223C118.661 46.8355 118.406 47.2075 118.233 47.6171C118.06 48.0265 117.971 48.4654 117.971 48.9087C117.97 49.3613 118.062 49.8095 118.243 50.226C118.29 50.3332 118.343 50.4377 118.402 50.5393L116.648 52.2556C116.136 51.9812 115.562 51.8384 114.978 51.8406C114.525 51.8396 114.076 51.9261 113.658 52.095C113.239 52.2641 112.858 52.5124 112.537 52.8255C112.217 53.1387 111.963 53.5108 111.789 53.9202C111.616 54.3297 111.527 54.7687 111.527 55.2118C111.526 55.6645 111.618 56.1126 111.799 56.5292C112.061 57.1317 112.495 57.6474 113.05 58.014C113.619 58.3902 114.291 58.5906 114.978 58.5889C115.542 58.5879 116.098 58.4518 116.596 58.1921C117.094 57.9325 117.52 57.5573 117.835 57.0994C118.045 56.8031 118.2 56.4736 118.295 56.1255H123.143C123.181 56.2632 123.229 56.3977 123.287 56.5282C123.333 56.6354 123.386 56.7401 123.444 56.8416L121.688 58.5596C121.178 58.2846 120.605 58.1412 120.022 58.1429C119.569 58.1415 119.12 58.2277 118.701 58.3966C118.282 58.5655 117.901 58.8136 117.581 59.1269C117.26 59.4402 117.006 59.8124 116.832 60.2219C116.659 60.6316 116.57 61.0707 116.571 61.5142C116.57 61.9668 116.663 62.415 116.844 62.8315C117.107 63.4332 117.541 63.9482 118.094 64.3152C118.614 64.6565 119.218 64.8533 119.843 64.8845C120.468 64.9158 121.09 64.7805 121.642 64.493C122.195 64.2054 122.657 63.7766 122.979 63.2521C123.302 62.7276 123.473 62.1272 123.474 61.5151C123.473 61.0648 123.381 60.6192 123.201 60.2044C123.144 60.0774 123.082 59.9513 123.015 59.8337L124.746 58.1401H124.751C125.274 58.433 125.866 58.5864 126.469 58.5851C127.384 58.5822 128.26 58.2254 128.906 57.5926C129.553 56.96 129.917 56.1028 129.92 55.2081C129.917 54.7589 129.823 54.3147 129.643 53.9012ZM119.96 48.3036C120.081 48.0265 120.281 47.7893 120.537 47.6206C120.756 47.4757 121.009 47.3864 121.272 47.3609C121.535 47.3355 121.801 47.3746 122.045 47.4747C122.334 47.5931 122.58 47.7924 122.752 48.0473C122.925 48.3024 123.017 48.6018 123.016 48.9078C123.018 49.1168 122.976 49.324 122.892 49.5166C122.772 49.7945 122.571 50.0322 122.315 50.2005C122.052 50.3764 121.741 50.4698 121.422 50.4677C121.161 50.4676 120.904 50.4046 120.673 50.2845C120.443 50.1644 120.246 49.9908 120.1 49.779C119.955 49.5632 119.866 49.3158 119.842 49.0585C119.817 48.8012 119.858 48.5419 119.96 48.3036ZM116.447 55.8197C116.335 56.0787 116.154 56.3033 115.923 56.4699C115.691 56.6363 115.418 56.7384 115.132 56.7653C114.846 56.7922 114.558 56.743 114.299 56.6226C114.039 56.5024 113.817 56.3157 113.658 56.0823C113.513 55.8665 113.424 55.6194 113.399 55.3623C113.375 55.1051 113.415 54.846 113.517 54.6079C113.639 54.331 113.839 54.0939 114.094 53.9247C114.313 53.7797 114.566 53.6906 114.829 53.6651C115.093 53.6396 115.358 53.6788 115.602 53.779C115.891 53.8972 116.137 54.0964 116.31 54.3515C116.483 54.6065 116.574 54.9059 116.574 55.2118C116.574 55.4212 116.531 55.6284 116.447 55.8206V55.8197ZM121.487 62.1239C121.366 62.4014 121.166 62.6388 120.91 62.808C120.647 62.9816 120.338 63.0743 120.021 63.0742C119.809 63.074 119.599 63.0328 119.403 62.9528C119.118 62.834 118.874 62.6382 118.699 62.3884C118.508 62.1099 118.415 61.7789 118.431 61.4444C118.448 61.1098 118.575 60.7894 118.793 60.5307C119.01 60.272 119.307 60.0889 119.64 60.0084C119.972 59.928 120.322 59.9544 120.638 60.084C120.923 60.202 121.167 60.398 121.341 60.6486C121.487 60.8637 121.577 61.1109 121.602 61.368C121.627 61.6253 121.587 61.8845 121.485 62.123L121.487 62.1239ZM127.931 55.8197C127.81 56.0972 127.609 56.3347 127.354 56.5038C127.091 56.6774 126.781 56.7702 126.464 56.7701C126.203 56.7702 125.946 56.7077 125.716 56.5878C125.485 56.4677 125.289 56.2941 125.143 56.0823C124.997 55.867 124.907 55.6198 124.882 55.3626C124.858 55.1053 124.898 54.846 125.001 54.6079C125.122 54.3305 125.322 54.0933 125.578 53.9247C125.797 53.7797 126.049 53.6906 126.313 53.6651C126.576 53.6396 126.842 53.6788 127.086 53.779C127.374 53.8975 127.62 54.0967 127.793 54.3517C127.966 54.6066 128.058 54.9059 128.058 55.2118C128.058 55.4212 128.014 55.6284 127.93 55.8206L127.931 55.8197Z" fill="black"/>
<path d="M125.986 74.3203H115.503C113.219 74.3203 111.368 76.1317 111.368 78.3663C111.368 80.6008 113.219 82.4122 115.503 82.4122H125.986C128.27 82.4122 130.122 80.6008 130.122 78.3663C130.122 76.1317 128.27 74.3203 125.986 74.3203Z" fill="#49FFBA" stroke="black" stroke-width="0.333332"/>
<path d="M126.108 82.3182C128.365 82.3182 130.196 80.5277 130.196 78.3192C130.196 76.1107 128.365 74.3203 126.108 74.3203C123.851 74.3203 122.021 76.1107 122.021 78.3192C122.021 80.5277 123.851 82.3182 126.108 82.3182Z" fill="white" stroke="black" stroke-width="0.333332"/>
<path d="M242.251 126.471C242.968 126.471 243.656 126.189 244.163 125.688C244.67 125.187 244.955 124.508 244.955 123.799V74.8056C244.955 74.0971 244.67 73.4177 244.163 72.9168C243.656 72.4158 242.968 72.1344 242.251 72.1344H159.663C158.945 72.1344 158.257 72.4158 157.75 72.9168C157.243 73.4177 156.958 74.0971 156.958 74.8056V123.799C156.958 124.508 157.243 125.187 157.75 125.688C158.257 126.189 158.945 126.471 159.663 126.471" fill="white"/>
<path d="M242.254 126.932C243.095 126.932 243.902 126.602 244.497 126.015C245.092 125.428 245.427 124.631 245.428 123.801V74.3474H244.955V74.8069H245.424C245.424 73.9757 245.09 73.1784 244.495 72.5906C243.9 72.0028 243.092 71.6726 242.251 71.6726H159.666C158.825 71.6726 158.017 72.0028 157.422 72.5906C156.827 73.1784 156.493 73.9757 156.493 74.8069V123.801C156.493 124.212 156.575 124.62 156.734 125C156.894 125.38 157.128 125.725 157.422 126.016C157.717 126.307 158.067 126.537 158.452 126.694C158.837 126.851 159.25 126.932 159.666 126.932V126.009C159.073 126.009 158.504 125.776 158.084 125.362C157.664 124.948 157.428 124.387 157.427 123.801V74.8069C157.429 74.221 157.665 73.6595 158.085 73.2452C158.505 72.8308 159.073 72.5972 159.666 72.5953H242.251C242.844 72.5972 243.412 72.8308 243.832 73.2452C244.252 73.6595 244.488 74.221 244.49 74.8069V75.2701V123.801C244.489 124.387 244.253 124.948 243.833 125.362C243.413 125.776 242.844 126.009 242.251 126.009V126.932H242.254Z" fill="black"/>
<path d="M141.472 139.975V141.659C141.473 142.158 141.674 142.636 142.031 142.988C142.388 143.341 142.872 143.539 143.377 143.54H258.537C259.042 143.539 259.525 143.341 259.882 142.988C260.238 142.635 260.439 142.157 260.439 141.659V139.975" fill="white"/>
<path d="M141.007 139.975V141.659C141.007 142.28 141.256 142.875 141.701 143.314C142.145 143.753 142.748 144 143.377 144H258.538C259.166 144 259.769 143.753 260.214 143.314C260.658 142.875 260.908 142.28 260.908 141.659V139.975H259.974V141.659C259.969 142.034 259.816 142.392 259.548 142.657C259.279 142.922 258.917 143.073 258.538 143.077H143.377C142.994 143.077 142.627 142.928 142.355 142.663C142.083 142.398 141.927 142.037 141.923 141.659V139.975H141.007Z" fill="black"/>
<path d="M258.983 141.189C259.282 141.188 259.573 141.096 259.818 140.926C260.062 140.756 260.247 140.515 260.348 140.237C260.449 139.96 260.46 139.658 260.381 139.373C260.303 139.089 260.137 138.835 259.907 138.647L245.365 126.799C245.105 126.587 244.779 126.472 244.442 126.472H157.477C157.14 126.472 156.814 126.587 156.554 126.799L142.012 138.647C141.782 138.835 141.616 139.089 141.537 139.373C141.459 139.658 141.47 139.96 141.571 140.237C141.672 140.515 141.857 140.756 142.101 140.926C142.345 141.096 142.637 141.188 142.936 141.189H258.983Z" fill="white"/>
<path d="M258.984 141.188V141.651C259.257 141.653 259.528 141.596 259.777 141.486C260.122 141.336 260.412 141.085 260.609 140.768C260.803 140.461 260.907 140.107 260.907 139.745C260.907 139.477 260.849 139.213 260.736 138.969C260.613 138.708 260.432 138.477 260.206 138.294L245.664 126.446C245.32 126.166 244.889 126.013 244.443 126.012H157.478C157.032 126.013 156.601 126.166 156.256 126.446L141.715 138.294C141.489 138.477 141.307 138.708 141.184 138.969C141.072 139.213 141.013 139.477 141.013 139.745C141.014 140.232 141.199 140.701 141.533 141.059C141.713 141.248 141.93 141.399 142.172 141.502C142.413 141.604 142.674 141.657 142.937 141.655H258.984V140.732H142.929C142.788 140.733 142.648 140.705 142.518 140.65C142.345 140.573 142.199 140.448 142.097 140.291C141.995 140.129 141.941 139.942 141.94 139.752C141.941 139.617 141.97 139.484 142.024 139.361C142.088 139.222 142.182 139.099 142.3 139.002L156.842 127.153C157.017 127.009 157.239 126.931 157.467 126.931H244.436C244.664 126.931 244.885 127.01 245.061 127.153L259.602 139.002C259.722 139.098 259.816 139.221 259.879 139.361C259.936 139.483 259.965 139.617 259.966 139.752C259.965 140.006 259.868 140.251 259.693 140.438C259.608 140.531 259.504 140.606 259.388 140.657C259.258 140.712 259.118 140.74 258.977 140.739L258.984 141.188Z" fill="black"/>
<path d="M201.037 136.022H241.942L235.285 128.662H201.037H200.877H166.628L159.972 136.022H200.877H201.037Z" fill="white"/>
<path d="M201.031 136.023V136.486H241.944C242.035 136.49 242.126 136.467 242.205 136.419C242.283 136.372 242.346 136.303 242.384 136.221C242.423 136.139 242.437 136.047 242.423 135.958C242.409 135.868 242.369 135.785 242.307 135.718L235.647 128.357C235.604 128.309 235.551 128.27 235.492 128.243C235.432 128.216 235.367 128.203 235.302 128.203H166.63C166.562 128.201 166.494 128.213 166.431 128.24C166.368 128.267 166.312 128.307 166.267 128.357L159.61 135.718C159.549 135.783 159.509 135.865 159.495 135.953C159.481 136.042 159.493 136.132 159.53 136.213C159.568 136.294 159.627 136.362 159.703 136.411C159.778 136.459 159.866 136.485 159.956 136.486H201.031V135.563H161.017L166.834 129.126H235.069L240.886 135.563H201.031V136.023Z" fill="black"/>
<path d="M240.156 75.5571H161.701V123.406H240.156V75.5571Z" fill="white"/>
<path d="M240.156 123.413H240.625V75.5576C240.624 75.435 240.574 75.3178 240.486 75.2311C240.399 75.1445 240.28 75.0954 240.156 75.0944H161.701C161.578 75.0963 161.46 75.1458 161.373 75.2324C161.286 75.3189 161.237 75.4356 161.236 75.5576V123.413C161.236 123.535 161.285 123.652 161.372 123.738C161.459 123.824 161.578 123.873 161.701 123.873H240.156C240.279 123.872 240.397 123.824 240.487 123.74C240.574 123.653 240.623 123.536 240.625 123.413H240.156V122.95H162.17V76.0207H239.69V123.413H240.156Z" fill="black"/>
<path d="M210.179 97.9689C209.935 97.3994 209.541 96.9055 209.036 96.5392C208.532 96.173 207.937 95.948 207.314 95.8881C206.691 95.8281 206.063 95.9354 205.497 96.1987C204.931 96.4619 204.447 96.8713 204.097 97.3836C203.888 97.6872 203.734 98.0235 203.639 98.3782H198.753C198.72 98.2377 198.674 98.1007 198.615 97.9689C198.56 97.8444 198.496 97.7244 198.422 97.6098L200.167 95.8865C200.694 96.1844 201.29 96.3404 201.897 96.3388C202.362 96.3405 202.822 96.2489 203.25 96.0696C203.885 95.8099 204.429 95.3696 204.811 94.8045C205.192 94.2395 205.396 93.5751 205.395 92.8957C205.393 92.4384 205.3 91.9858 205.122 91.5637C204.818 90.8221 204.261 90.2087 203.547 89.8296C202.834 89.4505 202.009 89.3295 201.215 89.4874C200.42 89.6454 199.707 90.0725 199.198 90.6948C198.689 91.3171 198.415 92.0956 198.426 92.8957C198.425 93.356 198.519 93.8116 198.702 94.2349C198.749 94.3426 198.804 94.4539 198.858 94.5544L197.092 96.2994C196.563 96.0128 195.968 95.867 195.365 95.8763C194.762 95.8856 194.172 96.0498 193.652 96.3526C193.133 96.6554 192.702 97.0864 192.403 97.6033C192.103 98.1203 191.945 98.7053 191.944 99.3009C191.944 100.036 192.183 100.751 192.626 101.341C193.068 101.932 193.691 102.366 194.402 102.581C195.113 102.796 195.876 102.78 196.577 102.536C197.279 102.291 197.882 101.83 198.298 101.222C198.509 100.92 198.665 100.585 198.76 100.231H203.639C203.677 100.37 203.726 100.507 203.784 100.64C203.832 100.749 203.885 100.856 203.944 100.96L202.174 102.705C201.66 102.426 201.084 102.28 200.498 102.281C200.032 102.281 199.571 102.373 199.142 102.55C198.294 102.906 197.624 103.58 197.278 104.423C196.932 105.266 196.938 106.21 197.295 107.049C197.56 107.66 197.996 108.183 198.553 108.557C199.128 108.939 199.805 109.143 200.498 109.142C200.963 109.144 201.423 109.051 201.85 108.869C202.478 108.604 203.013 108.164 203.39 107.603C203.767 107.041 203.97 106.383 203.973 105.71C203.972 105.252 203.878 104.799 203.697 104.378C203.641 104.249 203.577 104.123 203.508 104.001L205.249 102.281C205.88 102.639 206.608 102.793 207.332 102.721C208.056 102.649 208.738 102.353 209.283 101.877C209.827 101.401 210.207 100.768 210.368 100.067C210.529 99.3668 210.462 98.634 210.179 97.9725V97.9689ZM200.425 92.2782C200.547 91.9967 200.749 91.7561 201.007 91.5852C201.227 91.4369 201.481 91.3457 201.746 91.32C202.011 91.2943 202.278 91.3349 202.523 91.438C202.81 91.5576 203.057 91.7572 203.232 92.0125C203.408 92.2726 203.502 92.579 203.501 92.8921C203.504 93.1054 203.462 93.3169 203.377 93.5132C203.295 93.7045 203.176 93.878 203.026 94.0238C202.877 94.1695 202.699 94.2847 202.505 94.3627C202.31 94.4408 202.101 94.4801 201.891 94.4785C201.681 94.4769 201.473 94.4344 201.279 94.3534C200.992 94.2329 200.746 94.0335 200.571 93.7789C200.393 93.518 200.301 93.2099 200.305 92.8957C200.303 92.684 200.344 92.474 200.425 92.2782V92.2782ZM196.888 99.922C196.765 100.203 196.563 100.443 196.306 100.615C196.041 100.793 195.729 100.888 195.408 100.888C195.195 100.886 194.984 100.843 194.787 100.762C194.493 100.645 194.24 100.445 194.06 100.188C193.883 99.9252 193.789 99.6164 193.791 99.3009C193.79 99.0897 193.833 98.8807 193.918 98.6869C194.038 98.4031 194.24 98.1604 194.498 97.9887C194.757 97.817 195.061 97.724 195.372 97.7211C195.585 97.72 195.797 97.7615 195.994 97.8432C196.281 97.9643 196.528 98.1651 196.703 98.4213C196.851 98.6398 196.942 98.8914 196.968 99.1534C196.993 99.4155 196.952 99.6796 196.848 99.922H196.888ZM201.977 106.327C201.855 106.614 201.651 106.858 201.389 107.031C201.127 107.203 200.82 107.296 200.505 107.297C200.242 107.295 199.984 107.231 199.752 107.109C199.52 106.987 199.322 106.811 199.175 106.596C198.995 106.335 198.9 106.026 198.902 105.71C198.901 105.499 198.944 105.289 199.029 105.096C199.151 104.809 199.356 104.563 199.619 104.392C199.881 104.22 200.19 104.129 200.505 104.13C200.719 104.129 200.93 104.171 201.127 104.252C201.417 104.372 201.665 104.575 201.839 104.835C202.013 105.094 202.106 105.398 202.105 105.71C202.102 105.923 202.053 106.133 201.963 106.327H201.977ZM208.467 99.922C208.344 100.208 208.139 100.451 207.877 100.623C207.615 100.794 207.308 100.887 206.994 100.888C206.78 100.886 206.567 100.844 206.369 100.762C206.082 100.643 205.837 100.443 205.664 100.188C205.484 99.9262 205.389 99.617 205.391 99.3009C205.39 99.0897 205.433 98.8807 205.518 98.6869C205.64 98.4052 205.841 98.1636 206.096 97.9904C206.318 97.8442 206.572 97.7543 206.837 97.7286C207.102 97.7029 207.37 97.7423 207.616 97.8432C207.902 97.9664 208.148 98.1667 208.325 98.4213C208.5 98.6821 208.593 98.988 208.594 99.3009C208.59 99.5153 208.542 99.7268 208.452 99.922H208.467Z" fill="black"/>
<path d="M242.867 132.436H239.326L242.293 135.718C242.354 135.785 242.395 135.868 242.408 135.958C242.422 136.048 242.409 136.139 242.37 136.221C242.331 136.304 242.268 136.373 242.19 136.42C242.111 136.467 242.021 136.49 241.929 136.486H169.949L167.826 138.493H249.331L242.867 132.443" fill="#C3C4FD"/>
<path d="M238.071 132.436H208.657H208.497H174.285L170.948 135.563H200.877H201.037H240.899L238.071 132.436Z" fill="#C3C4FD"/>
<path d="M239.324 132.436H238.07L240.898 135.563H170.947L169.961 136.486H241.941C242.033 136.49 242.124 136.467 242.202 136.42C242.281 136.373 242.343 136.304 242.382 136.221C242.421 136.139 242.434 136.048 242.421 135.958C242.407 135.868 242.367 135.785 242.305 135.718L239.338 132.436" fill="black"/>
<path d="M242.94 132.252H239.156L239.323 132.435H242.864L249.327 138.485H208.655H208.495H167.823L169.96 136.485H169.688L167.354 138.672H208.495H208.655H249.796L242.94 132.252Z" fill="#C3C5FD"/>
<path d="M237.902 132.252H208.656H208.496H174.211L170.673 135.562H170.946L174.283 132.435H208.496H208.656H238.069L237.902 132.252Z" fill="#C3C5FD"/>
<path d="M223.199 44.4168C223.85 44.4168 224.377 43.9004 224.377 43.2636C224.377 42.6265 223.85 42.1101 223.199 42.1101C222.548 42.1101 222.02 42.6265 222.02 43.2636C222.02 43.9004 222.548 44.4168 223.199 44.4168Z" stroke="white" stroke-width="0.666664" stroke-miterlimit="10"/>
<path d="M94.137 26.5277C94.788 26.5277 95.3158 26.0114 95.3158 25.3745C95.3158 24.7376 94.788 24.2213 94.137 24.2213C93.4858 24.2213 92.958 24.7376 92.958 25.3745C92.958 26.0114 93.4858 26.5277 94.137 26.5277Z" stroke="white" stroke-width="0.666664" stroke-miterlimit="10"/>
<path d="M100.262 111.097C100.913 111.097 101.44 110.58 101.44 109.944C101.44 109.307 100.913 108.79 100.262 108.79C99.6107 108.79 99.083 109.307 99.083 109.944C99.083 110.58 99.6107 111.097 100.262 111.097Z" stroke="white" stroke-width="0.666664" stroke-miterlimit="10"/>
<path d="M77.1108 61.7498V64.0156" stroke="white" stroke-width="0.666664" stroke-miterlimit="10" stroke-linecap="round"/>
<path d="M75.9583 62.8817H78.2741" stroke="white" stroke-width="0.666664" stroke-miterlimit="10" stroke-linecap="round"/>
<path d="M260.43 80.1898V82.4556" stroke="white" stroke-width="0.666664" stroke-miterlimit="10" stroke-linecap="round"/>
<path d="M259.27 81.3218H261.586" stroke="white" stroke-width="0.666664" stroke-miterlimit="10" stroke-linecap="round"/>
<path d="M133.527 16V18.4426" stroke="white" stroke-width="0.666664" stroke-miterlimit="10" stroke-linecap="round"/>
<path d="M132.277 17.2222H134.774" stroke="white" stroke-width="0.666664" stroke-miterlimit="10" stroke-linecap="round"/>
<path d="M76.0903 139.315H118.688" stroke="white" stroke-width="0.666664" stroke-miterlimit="10"/>
<path d="M56 143.694H98.5976" stroke="white" stroke-width="0.666664" stroke-miterlimit="10"/>
<path d="M119.459 135.969H81.229C81.5519 134.193 82.5035 132.585 83.9171 131.426C85.3305 130.267 87.1156 129.632 88.9596 129.632C89.0609 129.632 89.1619 129.632 89.2596 129.632C90.3496 127.737 91.9853 126.199 93.9629 125.208C95.9405 124.217 98.1727 123.818 100.381 124.06C102.589 124.301 104.675 125.174 106.38 126.568C108.085 127.962 109.332 129.816 109.967 131.899C110.776 131.17 111.783 130.687 112.867 130.51C113.951 130.332 115.065 130.467 116.072 130.899C117.079 131.33 117.935 132.04 118.537 132.939C119.138 133.84 119.459 134.892 119.459 135.967V135.969Z" fill="#A883F8"/>
<path d="M108.764 139.315H67.125C67.4781 137.381 68.5155 135.63 70.0554 134.369C71.5954 133.108 73.5397 132.417 75.548 132.417C75.6583 132.417 75.7685 132.417 75.877 132.417C77.0641 130.355 78.8451 128.68 80.9981 127.601C83.1511 126.523 85.5812 126.087 87.9853 126.35C90.3893 126.613 92.661 127.562 94.5179 129.079C96.3747 130.596 97.734 132.613 98.427 134.881C99.3072 134.087 100.405 133.561 101.586 133.368C102.767 133.174 103.98 133.322 105.076 133.792C106.173 134.262 107.106 135.035 107.761 136.015C108.416 136.996 108.764 138.142 108.764 139.313V139.315Z" stroke="white" stroke-width="0.666664" stroke-linecap="round" stroke-linejoin="round"/>
<path d="M242.793 30.1734H207.527C208.114 26.9131 211.082 24.453 214.667 24.453C214.76 24.453 214.852 24.453 214.945 24.453C216.738 21.4001 220.138 19.355 224.032 19.355C228.761 19.355 232.748 22.3782 234.015 26.4981C234.943 25.6682 236.179 25.1644 237.539 25.1644C240.444 25.1644 242.793 27.417 242.793 30.1734Z" fill="#6A3DE6"/>
<path d="M262.219 38.9444H240.402C240.772 36.8422 242.621 35.2347 244.808 35.2347C244.87 35.2347 244.932 35.2347 244.993 35.2347C246.103 33.2563 248.198 31.927 250.633 31.927C253.56 31.927 256.025 33.8746 256.826 36.564C257.412 36.0385 258.182 35.6984 259.014 35.6984C260.771 35.7294 262.219 37.1823 262.219 38.9444Z" fill="#6A3DE6"/>
</svg>
