<svg width="160" height="160" viewBox="0 0 160 160" fill="none" xmlns="http://www.w3.org/2000/svg">
<path d="M150.469 87.7738C150.396 87.7738 150.325 87.7447 150.273 87.6929C150.222 87.641 150.192 87.5706 150.192 87.4973V84.9942C150.189 84.956 150.194 84.9176 150.206 84.8813C150.218 84.845 150.238 84.8117 150.264 84.7834C150.29 84.7552 150.321 84.7326 150.357 84.7171C150.392 84.7017 150.43 84.6937 150.468 84.6937C150.506 84.6937 150.544 84.7017 150.579 84.7171C150.614 84.7326 150.646 84.7552 150.672 84.7834C150.698 84.8117 150.717 84.845 150.73 84.8813C150.742 84.9176 150.747 84.956 150.743 84.9942V87.4973C150.743 87.5703 150.715 87.6402 150.663 87.692C150.612 87.7438 150.542 87.7732 150.469 87.7738V87.7738Z" fill="white" stroke="white" stroke-width="0.47186" stroke-miterlimit="10"/>
<path d="M151.998 86.2452C151.998 86.3185 151.969 86.3889 151.917 86.4407C151.865 86.4926 151.795 86.5216 151.722 86.5216H149.219C149.18 86.525 149.142 86.5203 149.106 86.508C149.069 86.4957 149.036 86.4759 149.008 86.45C148.979 86.4241 148.957 86.3927 148.941 86.3576C148.926 86.3225 148.918 86.2845 148.918 86.2462C148.918 86.2079 148.926 86.17 148.941 86.1349C148.957 86.0998 148.979 86.0683 149.008 86.0424C149.036 86.0165 149.069 85.9968 149.106 85.9845C149.142 85.9721 149.18 85.9674 149.219 85.9708H151.722C151.795 85.9708 151.865 85.9997 151.916 86.0511C151.968 86.1025 151.997 86.1722 151.998 86.2452Z" fill="white" stroke="white" stroke-width="0.47186" stroke-miterlimit="10"/>
<path d="M124.5 42.1786C124.427 42.1786 124.357 42.1495 124.305 42.0976C124.253 42.0458 124.224 41.9754 124.224 41.9021V39.3991C124.22 39.3609 124.225 39.3224 124.237 39.2861C124.25 39.2498 124.269 39.2165 124.295 39.1882C124.321 39.1599 124.353 39.1374 124.388 39.1219C124.423 39.1065 124.461 39.0985 124.499 39.0985C124.538 39.0985 124.575 39.1065 124.611 39.1219C124.646 39.1374 124.677 39.1599 124.703 39.1882C124.729 39.2165 124.749 39.2498 124.761 39.2861C124.773 39.3224 124.778 39.3609 124.775 39.3991V41.9021C124.775 41.9383 124.768 41.9742 124.754 42.0077C124.741 42.0413 124.72 42.0718 124.695 42.0975C124.669 42.1232 124.639 42.1437 124.606 42.1576C124.572 42.1715 124.536 42.1786 124.5 42.1786V42.1786Z" fill="white" stroke="white" stroke-width="0.47186" stroke-miterlimit="10"/>
<path d="M126.028 40.6499C126.028 40.7232 125.999 40.7936 125.947 40.8454C125.895 40.8973 125.825 40.9264 125.752 40.9264H123.238C123.2 40.9298 123.161 40.925 123.125 40.9127C123.089 40.9004 123.055 40.8807 123.027 40.8548C122.999 40.8289 122.976 40.7974 122.961 40.7623C122.945 40.7272 122.938 40.6893 122.938 40.651C122.938 40.6127 122.945 40.5747 122.961 40.5396C122.976 40.5045 122.999 40.4731 123.027 40.4472C123.055 40.4213 123.089 40.4015 123.125 40.3892C123.161 40.3768 123.2 40.3722 123.238 40.3756H125.752C125.825 40.3756 125.895 40.4043 125.946 40.4557C125.998 40.5071 126.028 40.5769 126.028 40.6499Z" fill="white" stroke="white" stroke-width="0.47186" stroke-miterlimit="10"/>
<path d="M33.8098 103.647C34.49 103.647 35.0414 103.095 35.0414 102.415C35.0414 101.735 34.49 101.184 33.8098 101.184C33.1295 101.184 32.5781 101.735 32.5781 102.415C32.5781 103.095 33.1295 103.647 33.8098 103.647Z" stroke="white" stroke-width="0.94372" stroke-miterlimit="10"/>
<path d="M50.1289 95.1995V105.348L92.3959 132.442L134.663 105.348V90.4531" stroke="white" stroke-width="0.94372" stroke-linecap="round" stroke-linejoin="round"/>
<path d="M134.663 77.1692V58.9315L92.3959 31.8378L50.1289 58.9315V88.9262" stroke="white" stroke-width="0.94372" stroke-linecap="round" stroke-linejoin="round"/>
<path d="M92.8055 116.682L101.379 112.447C106.591 109.871 110.974 105.883 114.028 100.936C117.082 95.9898 118.685 90.2844 118.653 84.471L118.529 61.0932C118.526 60.544 118.36 60.0083 118.051 59.5542C117.742 59.1002 117.305 58.7485 116.795 58.544L92.4432 48.7539H92.0913L67.8378 58.808C67.3307 59.0182 66.8976 59.3747 66.5939 59.8321C66.2902 60.2895 66.1297 60.8269 66.1329 61.3759L66.2564 84.756C66.2884 90.5694 67.9531 96.2568 71.0606 101.17C74.1681 106.083 78.5935 110.025 83.8323 112.545L92.4516 116.69L92.8055 116.682Z" fill="white" stroke="white" stroke-width="0.94372" stroke-linejoin="round"/>
<path d="M93.1383 109.744L99.9835 106.362C104.145 104.305 107.645 101.12 110.084 97.1704C112.523 93.2205 113.802 88.6647 113.777 84.0226L113.67 63.8724L92.8493 55.494H92.5686L71.832 64.0924L71.9389 84.2446C71.9643 88.887 73.2934 93.4287 75.7747 97.3524C78.2559 101.276 81.7895 104.424 85.9727 106.437L92.8556 109.746L93.1383 109.744Z" fill="#B5B5FF"/>
<path d="M99.2489 77.9482H86.3587C84.4002 77.9482 82.8125 79.5359 82.8125 81.4943V89.6822C82.8125 91.6407 84.4002 93.2283 86.3587 93.2283H99.2489C101.207 93.2283 102.795 91.6407 102.795 89.6822V81.4943C102.795 79.5359 101.207 77.9482 99.2489 77.9482Z" fill="white" stroke="black" stroke-width="0.94372" stroke-linejoin="round"/>
<path d="M87.513 77.8623V74.0584C87.5405 72.6742 88.1097 71.3561 89.0984 70.387C90.0871 69.4178 91.4164 68.8748 92.8008 68.8748C94.1853 68.8748 95.5145 69.4178 96.5032 70.387C97.4919 71.3561 98.0611 72.6742 98.0886 74.0584V77.8623H101.086V74.3015C101.051 72.1269 100.163 70.0531 98.6133 68.5276C97.0633 67.002 94.9757 66.1469 92.8008 66.1469C90.626 66.1469 88.5383 67.002 86.9883 68.5276C85.4383 70.0531 84.5502 72.1269 84.5156 74.3015V77.8623H87.513Z" fill="white" stroke="black" stroke-width="0.94372" stroke-linejoin="round"/>
<path d="M94.2934 83.5593C94.4274 83.794 94.504 84.0566 94.5174 84.3257L94.5174 84.4104C94.5175 84.7005 94.444 84.9859 94.3038 85.2399C94.1636 85.4939 93.9611 85.7082 93.7156 85.8627L93.5078 85.9934V86.2388V87.7591C93.4942 87.9352 93.4155 88.1002 93.2867 88.2214C93.1551 88.3453 92.981 88.4144 92.8001 88.4144C92.6193 88.4144 92.4453 88.3454 92.3137 88.2214C92.1848 88.1001 92.1061 87.9352 92.0925 87.7591V86.2388V85.9939L91.8854 85.8631C91.633 85.7037 91.4265 85.4813 91.2862 85.2177C91.146 84.9542 91.0769 84.6586 91.0858 84.3602C91.0946 84.0618 91.1811 83.7709 91.3367 83.5161C91.4923 83.2613 91.7116 83.0514 91.973 82.9073C92.2343 82.7631 92.5288 82.6896 92.8274 82.694C93.1258 82.6984 93.4181 82.7805 93.6752 82.9322C93.9323 83.084 94.1453 83.3001 94.2934 83.5593Z" fill="#A67EFA" stroke="black" stroke-width="0.88875"/>
<path d="M134.664 81.9257V85.587" stroke="white" stroke-width="0.94372" stroke-linecap="round" stroke-linejoin="round"/>
<path d="M92.8053 40.6496C96.8507 40.6496 100.13 37.3702 100.13 33.3248C100.13 29.2794 96.8507 25.9999 92.8053 25.9999C88.7599 25.9999 85.4805 29.2794 85.4805 33.3248C85.4805 37.3702 88.7599 40.6496 92.8053 40.6496Z" fill="white" stroke="white" stroke-width="0.94372" stroke-linecap="round" stroke-linejoin="round"/>
<path d="M134.665 66.0153C138.71 66.0153 141.99 62.7358 141.99 58.6904C141.99 54.645 138.71 51.3656 134.665 51.3656C130.619 51.3656 127.34 54.645 127.34 58.6904C127.34 62.7358 130.619 66.0153 134.665 66.0153Z" fill="white" stroke="white" stroke-width="0.94372" stroke-linecap="round" stroke-linejoin="round"/>
<path d="M134.665 61.8783C136.425 61.8783 137.853 60.451 137.853 58.6903C137.853 56.9296 136.425 55.5023 134.665 55.5023C132.904 55.5023 131.477 56.9296 131.477 58.6903C131.477 60.451 132.904 61.8783 134.665 61.8783Z" fill="#6A4CDF"/>
<path d="M134.665 112.93C138.71 112.93 141.99 109.651 141.99 105.606C141.99 101.56 138.71 98.2807 134.665 98.2807C130.619 98.2807 127.34 101.56 127.34 105.606C127.34 109.651 130.619 112.93 134.665 112.93Z" fill="white" stroke="white" stroke-width="0.94372" stroke-linecap="round" stroke-linejoin="round"/>
<path d="M50.1256 66.0153C54.171 66.0153 57.4504 62.7358 57.4504 58.6904C57.4504 54.645 54.171 51.3656 50.1256 51.3656C46.0802 51.3656 42.8008 54.645 42.8008 58.6904C42.8008 62.7358 46.0802 66.0153 50.1256 66.0153Z" fill="white" stroke="white" stroke-width="0.94372" stroke-linecap="round" stroke-linejoin="round"/>
<path d="M50.1256 112.93C54.171 112.93 57.4504 109.651 57.4504 105.606C57.4504 101.56 54.171 98.2807 50.1256 98.2807C46.0802 98.2807 42.8008 101.56 42.8008 105.606C42.8008 109.651 46.0802 112.93 50.1256 112.93Z" fill="white" stroke="white" stroke-width="0.94372" stroke-linecap="round" stroke-linejoin="round"/>
<path d="M57.4568 80.7507H18.6836C19.009 78.9059 19.9746 77.2349 21.4106 76.0318C22.8466 74.8288 24.6609 74.1708 26.5342 74.1737H26.84C27.9451 72.2109 29.6035 70.6167 31.6083 69.5899C33.6132 68.563 35.8758 68.1489 38.1144 68.399C40.353 68.6491 42.4685 69.5525 44.1972 70.9965C45.926 72.4405 47.1916 74.3613 47.8363 76.5196C48.6557 75.7608 49.6786 75.2578 50.7798 75.072C51.8809 74.8862 53.0124 75.0257 54.0354 75.4736C55.0583 75.9215 55.9284 76.6582 56.5387 77.5934C57.1491 78.5285 57.4732 79.6214 57.4715 80.7381L57.4568 80.7507Z" fill="#C3C5FF" stroke="#C2C6FF" stroke-width="0.23593" stroke-linejoin="round"/>
<path d="M46.7732 83.7567H8C8.32756 81.9137 9.29412 80.2452 10.7299 79.0442C12.1657 77.8433 13.9788 77.1868 15.8506 77.1901C15.9532 77.1901 16.06 77.1901 16.1564 77.1901C17.2614 75.2273 18.9196 73.633 20.9243 72.606C22.929 71.5789 25.1916 71.1647 27.4301 71.4146C29.6687 71.6644 31.7842 72.5675 33.5131 74.0113C35.242 75.4551 36.5077 77.3758 37.1527 79.5339C37.9725 78.776 38.9956 78.2737 40.0967 78.0884C41.1977 77.9032 42.3288 78.0432 43.3515 78.4912C44.3741 78.9392 45.2439 79.6757 45.8543 80.6106C46.4647 81.5454 46.7891 82.638 46.7879 83.7545L46.7732 83.7567Z" stroke="white" stroke-width="0.94372" stroke-linejoin="round"/>
<path d="M134.665 108.793C136.425 108.793 137.853 107.366 137.853 105.605C137.853 103.845 136.425 102.417 134.665 102.417C132.904 102.417 131.477 103.845 131.477 105.605C131.477 107.366 132.904 108.793 134.665 108.793Z" fill="#6A4CDF"/>
<path d="M50.1333 108.793C51.894 108.793 53.3213 107.366 53.3213 105.605C53.3213 103.845 51.894 102.417 50.1333 102.417C48.3726 102.417 46.9453 103.845 46.9453 105.605C46.9453 107.366 48.3726 108.793 50.1333 108.793Z" fill="#6A4CDF"/>
<path d="M50.1333 61.8783C51.894 61.8783 53.3213 60.451 53.3213 58.6903C53.3213 56.9296 51.894 55.5023 50.1333 55.5023C48.3726 55.5023 46.9453 56.9296 46.9453 58.6903C46.9453 60.451 48.3726 61.8783 50.1333 61.8783Z" fill="#6A4CDF"/>
<path d="M92.8052 36.5126C94.5658 36.5126 95.9932 35.0853 95.9932 33.3246C95.9932 31.564 94.5658 30.1367 92.8052 30.1367C91.0445 30.1367 89.6172 31.564 89.6172 33.3246C89.6172 35.0853 91.0445 36.5126 92.8052 36.5126Z" fill="#6A4CDF"/>
</svg>
