<svg xmlns="http://www.w3.org/2000/svg" xmlns:xlink="http://www.w3.org/1999/xlink" viewBox="0 0 76 76"><defs><radialGradient id="a" cx="-267.59" cy="430.89" r="1" gradientTransform="matrix(76, -76, -76, -76, 53160.89, 12410.97)" gradientUnits="userSpaceOnUse"><stop offset="0" stop-color="#b833e1"/><stop offset="0.37" stop-color="#9059ff"/><stop offset="0.61" stop-color="#5b6df8"/><stop offset="1" stop-color="#0090ed"/></radialGradient></defs><path d="M38,0A38,38,0,1,0,64.86,11.14,38,38,0,0,0,38,0ZM62.52,23.55H55.15a36.61,36.61,0,0,0-5-11.29A28.64,28.64,0,0,1,62.52,23.55ZM66.5,38a28.31,28.31,0,0,1-1.59,9.3H56.26A59.2,59.2,0,0,0,57,38a59.11,59.11,0,0,0-.74-9.3h8.65A28.31,28.31,0,0,1,66.5,38ZM38,66.5c-5.11,0-9.68-5.7-12.19-14H50.2C47.68,60.8,43.11,66.5,38,66.5ZM24.58,47.3a52.36,52.36,0,0,1,0-18.6H51.42a52.72,52.72,0,0,1,.83,9.3,52.72,52.72,0,0,1-.83,9.3ZM9.5,38a28.31,28.31,0,0,1,1.59-9.3h8.65a58.61,58.61,0,0,0,0,18.6H11.09A28.31,28.31,0,0,1,9.5,38ZM38,9.5c5.11,0,9.68,5.7,12.19,14.05H25.81C28.32,15.2,32.89,9.5,38,9.5ZM25.84,12.26a36.61,36.61,0,0,0-5,11.29H13.48A28.64,28.64,0,0,1,25.84,12.26ZM13.49,52.45h7.36a36.61,36.61,0,0,0,5,11.29A28.64,28.64,0,0,1,13.48,52.45ZM50.17,63.74a36.64,36.64,0,0,0,5-11.29h7.37A28.69,28.69,0,0,1,50.16,63.74Z" transform="translate(0)" fill="url(#a)"/></svg>